M48
; DRILL file {KiCad (5.1.5)-3} date 05/05/2020 12:08:54
; FORMAT={-:-/ absolute / metric / decimal}
; #@! TF.CreationDate,2020-05-05T12:08:54+02:00
; #@! TF.GenerationSoftware,Kicad,Pcbnew,(5.1.5)-3
; #@! TF.FileFunction,Plated,1,2,PTH
FMAT,2
METRIC
T1C0.400
T2C0.800
T3C1.000
T4C1.016
T5C3.048
%
G90
G05
T1
X124.548Y-103.615
X126.798Y-100.865
X128.398Y-102.565
X128.498Y-108.615
X128.498Y-112.865
X128.698Y-96.965
X132.748Y-92.365
X133.748Y-112.865
X133.748Y-113.865
X133.748Y-114.865
X133.748Y-115.865
X133.748Y-116.865
X133.748Y-117.865
X133.748Y-118.865
X134.748Y-112.865
X134.748Y-113.865
X134.748Y-114.865
X134.748Y-115.865
X134.748Y-116.865
X134.748Y-117.865
X134.748Y-118.865
X135.748Y-112.865
X135.748Y-113.865
X135.748Y-114.865
X135.748Y-115.865
X135.748Y-116.865
X135.748Y-117.865
X135.748Y-118.865
X136.748Y-112.865
X136.748Y-113.865
X136.748Y-114.865
X136.748Y-115.865
X136.748Y-116.865
X136.748Y-117.865
X136.748Y-118.865
X137.748Y-112.865
X137.748Y-113.865
X137.748Y-114.865
X137.748Y-115.865
X137.748Y-116.865
X137.748Y-117.865
X137.748Y-118.865
X138.748Y-108.865
X138.748Y-109.615
X138.748Y-110.365
X138.748Y-112.865
X138.748Y-113.865
X138.748Y-114.865
X138.748Y-115.865
X138.748Y-116.865
X138.748Y-117.865
X138.748Y-118.865
X139.498Y-108.865
X139.498Y-109.615
X139.498Y-110.365
X139.748Y-112.865
X139.748Y-113.865
X139.748Y-114.865
X139.748Y-115.865
X139.748Y-116.865
X139.748Y-117.865
X139.748Y-118.865
X141.498Y-94.115
X141.748Y-85.615
X144.988Y-88.169
X144.996Y-87.363
X144.998Y-86.365
X144.998Y-89.365
X147.498Y-86.965
X147.498Y-87.84
X147.598Y-86.015
X148.498Y-97.865
X148.498Y-92.365
X149.248Y-88.115
X149.248Y-92.365
X149.248Y-97.865
X149.998Y-92.365
X149.998Y-107.115
X150.073Y-86.44
X150.498Y-100.115
X150.748Y-84.615
X151.248Y-80.365
X152.248Y-80.365
X153.248Y-80.365
X153.748Y-96.865
X153.748Y-104.365
X153.798Y-89.365
X153.798Y-111.965
X154.248Y-80.365
X155.498Y-86.115
X155.498Y-93.615
X155.498Y-101.115
X155.498Y-108.615
X161.998Y-90.115
X161.998Y-97.615
X161.998Y-105.115
X161.998Y-112.615
X167.248Y-120.865
T2
X143.198Y-111.165
X143.198Y-113.165
X143.198Y-105.365
X143.198Y-107.365
T3
X130.223Y-87.575
X130.223Y-90.115
X130.223Y-92.655
T4
X161.798Y-123.825
X164.338Y-123.825
X166.878Y-123.825
X169.418Y-123.825
X171.958Y-123.825
X174.498Y-123.825
X138.938Y-123.825
X141.478Y-123.825
X144.018Y-123.825
X146.558Y-123.825
X149.098Y-123.825
X151.638Y-123.825
X154.178Y-123.825
X156.718Y-123.825
X156.718Y-75.565
X159.258Y-75.565
X161.798Y-75.565
X164.338Y-75.565
X166.878Y-75.565
X169.418Y-75.565
X171.958Y-75.565
X174.498Y-75.565
X129.794Y-75.565
X132.334Y-75.565
X134.874Y-75.565
X137.414Y-75.565
X139.954Y-75.565
X142.494Y-75.565
X145.034Y-75.565
X147.574Y-75.565
X150.114Y-75.565
X152.654Y-75.565
T5
X126.238Y-75.565
X124.968Y-123.825
T3
G00X115.198Y-105.865
M15
G01X115.198Y-107.865
M16
G05
G00X117.198Y-111.565
M15
G01X119.198Y-111.565
M16
G05
G00X121.198Y-105.865
M15
G01X121.198Y-107.865
M16
G05
T0
M30
