G04 #@! TF.GenerationSoftware,KiCad,Pcbnew,(5.1.5)-3*
G04 #@! TF.CreationDate,2020-05-05T12:08:50+02:00*
G04 #@! TF.ProjectId,led_driver_test_board,6c65645f-6472-4697-9665-725f74657374,rev?*
G04 #@! TF.SameCoordinates,Original*
G04 #@! TF.FileFunction,Legend,Bot*
G04 #@! TF.FilePolarity,Positive*
%FSLAX46Y46*%
G04 Gerber Fmt 4.6, Leading zero omitted, Abs format (unit mm)*
G04 Created by KiCad (PCBNEW (5.1.5)-3) date 2020-05-05 12:08:50*
%MOMM*%
%LPD*%
G04 APERTURE LIST*
%ADD10C,0.010000*%
G04 APERTURE END LIST*
D10*
G36*
X171785776Y-107754878D02*
G01*
X171786355Y-107860612D01*
X171787922Y-107937132D01*
X171790972Y-107989372D01*
X171795996Y-108022263D01*
X171803489Y-108040737D01*
X171813944Y-108049727D01*
X171827853Y-108054163D01*
X171829654Y-108054594D01*
X171862145Y-108061333D01*
X171926252Y-108073808D01*
X172015151Y-108090719D01*
X172122019Y-108110771D01*
X172240033Y-108132664D01*
X172244178Y-108133429D01*
X172359831Y-108155359D01*
X172462014Y-108175877D01*
X172544598Y-108193659D01*
X172601456Y-108207381D01*
X172626458Y-108215718D01*
X172626901Y-108216116D01*
X172639110Y-108240677D01*
X172659456Y-108291315D01*
X172683545Y-108357095D01*
X172683674Y-108357461D01*
X172714818Y-108440317D01*
X172754491Y-108538000D01*
X172794381Y-108630077D01*
X172796353Y-108634434D01*
X172864420Y-108784407D01*
X172637639Y-109116498D01*
X172568504Y-109218374D01*
X172506697Y-109310657D01*
X172455733Y-109388003D01*
X172419127Y-109445064D01*
X172400394Y-109476495D01*
X172399004Y-109479479D01*
X172405190Y-109502321D01*
X172435035Y-109544982D01*
X172489947Y-109609128D01*
X172571334Y-109696421D01*
X172657922Y-109785535D01*
X172743247Y-109871441D01*
X172821108Y-109948327D01*
X172886697Y-110011564D01*
X172935205Y-110056523D01*
X172961825Y-110078576D01*
X172963195Y-110079396D01*
X172981463Y-110081834D01*
X173011295Y-110072650D01*
X173056721Y-110049574D01*
X173121770Y-110010337D01*
X173210470Y-109952670D01*
X173324657Y-109875795D01*
X173425162Y-109807570D01*
X173515303Y-109746582D01*
X173589849Y-109696356D01*
X173643565Y-109660416D01*
X173671218Y-109642287D01*
X173673095Y-109641146D01*
X173699590Y-109643359D01*
X173751086Y-109660138D01*
X173817851Y-109688142D01*
X173839172Y-109698122D01*
X173934159Y-109741672D01*
X174041937Y-109788134D01*
X174135192Y-109825877D01*
X174204406Y-109853073D01*
X174257006Y-109874675D01*
X174284497Y-109887158D01*
X174286616Y-109888709D01*
X174290124Y-109911668D01*
X174299738Y-109965786D01*
X174314089Y-110043868D01*
X174331807Y-110138719D01*
X174351525Y-110243143D01*
X174371874Y-110349944D01*
X174391486Y-110451926D01*
X174408991Y-110541894D01*
X174423022Y-110612653D01*
X174432209Y-110657006D01*
X174434807Y-110667885D01*
X174441218Y-110679122D01*
X174455697Y-110687605D01*
X174483133Y-110693714D01*
X174528411Y-110697832D01*
X174596420Y-110700341D01*
X174692047Y-110701621D01*
X174820180Y-110702054D01*
X174872701Y-110702077D01*
X175299845Y-110702077D01*
X175320091Y-110599500D01*
X175331070Y-110542431D01*
X175347095Y-110457269D01*
X175366233Y-110354372D01*
X175386551Y-110244096D01*
X175392132Y-110213615D01*
X175411917Y-110111855D01*
X175431373Y-110023205D01*
X175448697Y-109955108D01*
X175462088Y-109915004D01*
X175466079Y-109908323D01*
X175494342Y-109891919D01*
X175549109Y-109868399D01*
X175619588Y-109842316D01*
X175634769Y-109837142D01*
X175728896Y-109802956D01*
X175835101Y-109760523D01*
X175930473Y-109718997D01*
X175930916Y-109718792D01*
X176080525Y-109649640D01*
X176749617Y-110104512D01*
X177042116Y-109812500D01*
X177129170Y-109724180D01*
X177205909Y-109643625D01*
X177268237Y-109575360D01*
X177312056Y-109523908D01*
X177333270Y-109493794D01*
X177334616Y-109489474D01*
X177324016Y-109464111D01*
X177294547Y-109412358D01*
X177249705Y-109339868D01*
X177192984Y-109252294D01*
X177129462Y-109157612D01*
X177064668Y-109061516D01*
X177008287Y-108975837D01*
X176963788Y-108906016D01*
X176934639Y-108857494D01*
X176924308Y-108835782D01*
X176933050Y-108809293D01*
X176956087Y-108759062D01*
X176988631Y-108695451D01*
X176992249Y-108688708D01*
X177035210Y-108603046D01*
X177056279Y-108544306D01*
X177056503Y-108507772D01*
X177036928Y-108488731D01*
X177036654Y-108488620D01*
X177013472Y-108479102D01*
X176958441Y-108456403D01*
X176875822Y-108422282D01*
X176769872Y-108378500D01*
X176644852Y-108326816D01*
X176505020Y-108268992D01*
X176369637Y-108212991D01*
X176220234Y-108151447D01*
X176081832Y-108094939D01*
X175958673Y-108045161D01*
X175855002Y-108003806D01*
X175775059Y-107972568D01*
X175723088Y-107953141D01*
X175703692Y-107947154D01*
X175681443Y-107962168D01*
X175645982Y-108001439D01*
X175606887Y-108053807D01*
X175483245Y-108202941D01*
X175341522Y-108319511D01*
X175184704Y-108402118D01*
X175015775Y-108449366D01*
X174837722Y-108459857D01*
X174755539Y-108452231D01*
X174585031Y-108410682D01*
X174434459Y-108339123D01*
X174305309Y-108241995D01*
X174199064Y-108123734D01*
X174117210Y-107988780D01*
X174061232Y-107841571D01*
X174032615Y-107686544D01*
X174032844Y-107528139D01*
X174063405Y-107370794D01*
X174125782Y-107218946D01*
X174221460Y-107077035D01*
X174275572Y-107017803D01*
X174414520Y-106904203D01*
X174566361Y-106825106D01*
X174726667Y-106779986D01*
X174891012Y-106768316D01*
X175054971Y-106789569D01*
X175214118Y-106843220D01*
X175364025Y-106928740D01*
X175500267Y-107045605D01*
X175606887Y-107176193D01*
X175647642Y-107230588D01*
X175682718Y-107269014D01*
X175703726Y-107282846D01*
X175726635Y-107275603D01*
X175781365Y-107255005D01*
X175863672Y-107222746D01*
X175969315Y-107180521D01*
X176094050Y-107130023D01*
X176233636Y-107072948D01*
X176369670Y-107016854D01*
X176519201Y-106954967D01*
X176657767Y-106897644D01*
X176781107Y-106846644D01*
X176884964Y-106803727D01*
X176965080Y-106770653D01*
X177017195Y-106749181D01*
X177036654Y-106741225D01*
X177056423Y-106722429D01*
X177056365Y-106686074D01*
X177035441Y-106627479D01*
X176992613Y-106541968D01*
X176992249Y-106541292D01*
X176959012Y-106476907D01*
X176934802Y-106424861D01*
X176924404Y-106395512D01*
X176924308Y-106394217D01*
X176934855Y-106372124D01*
X176964184Y-106323348D01*
X177008827Y-106253331D01*
X177065314Y-106167514D01*
X177129462Y-106072388D01*
X177194411Y-105975540D01*
X177250896Y-105888253D01*
X177295421Y-105816181D01*
X177324490Y-105764977D01*
X177334616Y-105740526D01*
X177321307Y-105718010D01*
X177284112Y-105672742D01*
X177227128Y-105609244D01*
X177154449Y-105532039D01*
X177070171Y-105445651D01*
X177042016Y-105417399D01*
X176749416Y-105125287D01*
X176423104Y-105347631D01*
X176322897Y-105415202D01*
X176232963Y-105474507D01*
X176158510Y-105522217D01*
X176104751Y-105555007D01*
X176076894Y-105569548D01*
X176074912Y-105569974D01*
X176048655Y-105562308D01*
X175995837Y-105541689D01*
X175925310Y-105511685D01*
X175878093Y-105490625D01*
X175787694Y-105451248D01*
X175696366Y-105414165D01*
X175619200Y-105385415D01*
X175595692Y-105377605D01*
X175532916Y-105355417D01*
X175484411Y-105333727D01*
X175466079Y-105321813D01*
X175454859Y-105295523D01*
X175438954Y-105238142D01*
X175420167Y-105157118D01*
X175400299Y-105059895D01*
X175392132Y-105016385D01*
X175371829Y-104905896D01*
X175352170Y-104799916D01*
X175335088Y-104708801D01*
X175322518Y-104642908D01*
X175320091Y-104630500D01*
X175299845Y-104527923D01*
X174872701Y-104527923D01*
X174732246Y-104528153D01*
X174625979Y-104529099D01*
X174549013Y-104531141D01*
X174496460Y-104534662D01*
X174463433Y-104540043D01*
X174445045Y-104547666D01*
X174436408Y-104557912D01*
X174434807Y-104562115D01*
X174429127Y-104587470D01*
X174417795Y-104643484D01*
X174402179Y-104722964D01*
X174383647Y-104818712D01*
X174363569Y-104923533D01*
X174343312Y-105030232D01*
X174324246Y-105131613D01*
X174307739Y-105220479D01*
X174295159Y-105289637D01*
X174287875Y-105331889D01*
X174286616Y-105341290D01*
X174269763Y-105349807D01*
X174224870Y-105368660D01*
X174160430Y-105394324D01*
X174135192Y-105404123D01*
X174037686Y-105443648D01*
X173929959Y-105490192D01*
X173839172Y-105531877D01*
X173769753Y-105562550D01*
X173712710Y-105582956D01*
X173677777Y-105589768D01*
X173673095Y-105588682D01*
X173650991Y-105574285D01*
X173601831Y-105541412D01*
X173530848Y-105493590D01*
X173443278Y-105434348D01*
X173344357Y-105367215D01*
X173324830Y-105353941D01*
X173209140Y-105276046D01*
X173121044Y-105218787D01*
X173056486Y-105179881D01*
X173011411Y-105157044D01*
X172981763Y-105147994D01*
X172963485Y-105150448D01*
X172963369Y-105150511D01*
X172939361Y-105169827D01*
X172892947Y-105212551D01*
X172828937Y-105274051D01*
X172752145Y-105349698D01*
X172667382Y-105434861D01*
X172657922Y-105444465D01*
X172553989Y-105551790D01*
X172477675Y-105634615D01*
X172427571Y-105694605D01*
X172402270Y-105733423D01*
X172399004Y-105750520D01*
X172413250Y-105775473D01*
X172446156Y-105827255D01*
X172494208Y-105900520D01*
X172553890Y-105989920D01*
X172621688Y-106090111D01*
X172637639Y-106113501D01*
X172864420Y-106445593D01*
X172796353Y-106595565D01*
X172756685Y-106686770D01*
X172716791Y-106784669D01*
X172684983Y-106868831D01*
X172683674Y-106872538D01*
X172659576Y-106938369D01*
X172639200Y-106989116D01*
X172626936Y-107013842D01*
X172626901Y-107013884D01*
X172604734Y-107021729D01*
X172550217Y-107035066D01*
X172469480Y-107052570D01*
X172368650Y-107072917D01*
X172253856Y-107094782D01*
X172244178Y-107096571D01*
X172125904Y-107118504D01*
X172018542Y-107138640D01*
X171928917Y-107155680D01*
X171863851Y-107168328D01*
X171830168Y-107175284D01*
X171829654Y-107175406D01*
X171815325Y-107179639D01*
X171804507Y-107187871D01*
X171796706Y-107205033D01*
X171791429Y-107236058D01*
X171788182Y-107285878D01*
X171786472Y-107359424D01*
X171785807Y-107461629D01*
X171785693Y-107597425D01*
X171785692Y-107615000D01*
X171785776Y-107754878D01*
G37*
X171785776Y-107754878D02*
X171786355Y-107860612D01*
X171787922Y-107937132D01*
X171790972Y-107989372D01*
X171795996Y-108022263D01*
X171803489Y-108040737D01*
X171813944Y-108049727D01*
X171827853Y-108054163D01*
X171829654Y-108054594D01*
X171862145Y-108061333D01*
X171926252Y-108073808D01*
X172015151Y-108090719D01*
X172122019Y-108110771D01*
X172240033Y-108132664D01*
X172244178Y-108133429D01*
X172359831Y-108155359D01*
X172462014Y-108175877D01*
X172544598Y-108193659D01*
X172601456Y-108207381D01*
X172626458Y-108215718D01*
X172626901Y-108216116D01*
X172639110Y-108240677D01*
X172659456Y-108291315D01*
X172683545Y-108357095D01*
X172683674Y-108357461D01*
X172714818Y-108440317D01*
X172754491Y-108538000D01*
X172794381Y-108630077D01*
X172796353Y-108634434D01*
X172864420Y-108784407D01*
X172637639Y-109116498D01*
X172568504Y-109218374D01*
X172506697Y-109310657D01*
X172455733Y-109388003D01*
X172419127Y-109445064D01*
X172400394Y-109476495D01*
X172399004Y-109479479D01*
X172405190Y-109502321D01*
X172435035Y-109544982D01*
X172489947Y-109609128D01*
X172571334Y-109696421D01*
X172657922Y-109785535D01*
X172743247Y-109871441D01*
X172821108Y-109948327D01*
X172886697Y-110011564D01*
X172935205Y-110056523D01*
X172961825Y-110078576D01*
X172963195Y-110079396D01*
X172981463Y-110081834D01*
X173011295Y-110072650D01*
X173056721Y-110049574D01*
X173121770Y-110010337D01*
X173210470Y-109952670D01*
X173324657Y-109875795D01*
X173425162Y-109807570D01*
X173515303Y-109746582D01*
X173589849Y-109696356D01*
X173643565Y-109660416D01*
X173671218Y-109642287D01*
X173673095Y-109641146D01*
X173699590Y-109643359D01*
X173751086Y-109660138D01*
X173817851Y-109688142D01*
X173839172Y-109698122D01*
X173934159Y-109741672D01*
X174041937Y-109788134D01*
X174135192Y-109825877D01*
X174204406Y-109853073D01*
X174257006Y-109874675D01*
X174284497Y-109887158D01*
X174286616Y-109888709D01*
X174290124Y-109911668D01*
X174299738Y-109965786D01*
X174314089Y-110043868D01*
X174331807Y-110138719D01*
X174351525Y-110243143D01*
X174371874Y-110349944D01*
X174391486Y-110451926D01*
X174408991Y-110541894D01*
X174423022Y-110612653D01*
X174432209Y-110657006D01*
X174434807Y-110667885D01*
X174441218Y-110679122D01*
X174455697Y-110687605D01*
X174483133Y-110693714D01*
X174528411Y-110697832D01*
X174596420Y-110700341D01*
X174692047Y-110701621D01*
X174820180Y-110702054D01*
X174872701Y-110702077D01*
X175299845Y-110702077D01*
X175320091Y-110599500D01*
X175331070Y-110542431D01*
X175347095Y-110457269D01*
X175366233Y-110354372D01*
X175386551Y-110244096D01*
X175392132Y-110213615D01*
X175411917Y-110111855D01*
X175431373Y-110023205D01*
X175448697Y-109955108D01*
X175462088Y-109915004D01*
X175466079Y-109908323D01*
X175494342Y-109891919D01*
X175549109Y-109868399D01*
X175619588Y-109842316D01*
X175634769Y-109837142D01*
X175728896Y-109802956D01*
X175835101Y-109760523D01*
X175930473Y-109718997D01*
X175930916Y-109718792D01*
X176080525Y-109649640D01*
X176749617Y-110104512D01*
X177042116Y-109812500D01*
X177129170Y-109724180D01*
X177205909Y-109643625D01*
X177268237Y-109575360D01*
X177312056Y-109523908D01*
X177333270Y-109493794D01*
X177334616Y-109489474D01*
X177324016Y-109464111D01*
X177294547Y-109412358D01*
X177249705Y-109339868D01*
X177192984Y-109252294D01*
X177129462Y-109157612D01*
X177064668Y-109061516D01*
X177008287Y-108975837D01*
X176963788Y-108906016D01*
X176934639Y-108857494D01*
X176924308Y-108835782D01*
X176933050Y-108809293D01*
X176956087Y-108759062D01*
X176988631Y-108695451D01*
X176992249Y-108688708D01*
X177035210Y-108603046D01*
X177056279Y-108544306D01*
X177056503Y-108507772D01*
X177036928Y-108488731D01*
X177036654Y-108488620D01*
X177013472Y-108479102D01*
X176958441Y-108456403D01*
X176875822Y-108422282D01*
X176769872Y-108378500D01*
X176644852Y-108326816D01*
X176505020Y-108268992D01*
X176369637Y-108212991D01*
X176220234Y-108151447D01*
X176081832Y-108094939D01*
X175958673Y-108045161D01*
X175855002Y-108003806D01*
X175775059Y-107972568D01*
X175723088Y-107953141D01*
X175703692Y-107947154D01*
X175681443Y-107962168D01*
X175645982Y-108001439D01*
X175606887Y-108053807D01*
X175483245Y-108202941D01*
X175341522Y-108319511D01*
X175184704Y-108402118D01*
X175015775Y-108449366D01*
X174837722Y-108459857D01*
X174755539Y-108452231D01*
X174585031Y-108410682D01*
X174434459Y-108339123D01*
X174305309Y-108241995D01*
X174199064Y-108123734D01*
X174117210Y-107988780D01*
X174061232Y-107841571D01*
X174032615Y-107686544D01*
X174032844Y-107528139D01*
X174063405Y-107370794D01*
X174125782Y-107218946D01*
X174221460Y-107077035D01*
X174275572Y-107017803D01*
X174414520Y-106904203D01*
X174566361Y-106825106D01*
X174726667Y-106779986D01*
X174891012Y-106768316D01*
X175054971Y-106789569D01*
X175214118Y-106843220D01*
X175364025Y-106928740D01*
X175500267Y-107045605D01*
X175606887Y-107176193D01*
X175647642Y-107230588D01*
X175682718Y-107269014D01*
X175703726Y-107282846D01*
X175726635Y-107275603D01*
X175781365Y-107255005D01*
X175863672Y-107222746D01*
X175969315Y-107180521D01*
X176094050Y-107130023D01*
X176233636Y-107072948D01*
X176369670Y-107016854D01*
X176519201Y-106954967D01*
X176657767Y-106897644D01*
X176781107Y-106846644D01*
X176884964Y-106803727D01*
X176965080Y-106770653D01*
X177017195Y-106749181D01*
X177036654Y-106741225D01*
X177056423Y-106722429D01*
X177056365Y-106686074D01*
X177035441Y-106627479D01*
X176992613Y-106541968D01*
X176992249Y-106541292D01*
X176959012Y-106476907D01*
X176934802Y-106424861D01*
X176924404Y-106395512D01*
X176924308Y-106394217D01*
X176934855Y-106372124D01*
X176964184Y-106323348D01*
X177008827Y-106253331D01*
X177065314Y-106167514D01*
X177129462Y-106072388D01*
X177194411Y-105975540D01*
X177250896Y-105888253D01*
X177295421Y-105816181D01*
X177324490Y-105764977D01*
X177334616Y-105740526D01*
X177321307Y-105718010D01*
X177284112Y-105672742D01*
X177227128Y-105609244D01*
X177154449Y-105532039D01*
X177070171Y-105445651D01*
X177042016Y-105417399D01*
X176749416Y-105125287D01*
X176423104Y-105347631D01*
X176322897Y-105415202D01*
X176232963Y-105474507D01*
X176158510Y-105522217D01*
X176104751Y-105555007D01*
X176076894Y-105569548D01*
X176074912Y-105569974D01*
X176048655Y-105562308D01*
X175995837Y-105541689D01*
X175925310Y-105511685D01*
X175878093Y-105490625D01*
X175787694Y-105451248D01*
X175696366Y-105414165D01*
X175619200Y-105385415D01*
X175595692Y-105377605D01*
X175532916Y-105355417D01*
X175484411Y-105333727D01*
X175466079Y-105321813D01*
X175454859Y-105295523D01*
X175438954Y-105238142D01*
X175420167Y-105157118D01*
X175400299Y-105059895D01*
X175392132Y-105016385D01*
X175371829Y-104905896D01*
X175352170Y-104799916D01*
X175335088Y-104708801D01*
X175322518Y-104642908D01*
X175320091Y-104630500D01*
X175299845Y-104527923D01*
X174872701Y-104527923D01*
X174732246Y-104528153D01*
X174625979Y-104529099D01*
X174549013Y-104531141D01*
X174496460Y-104534662D01*
X174463433Y-104540043D01*
X174445045Y-104547666D01*
X174436408Y-104557912D01*
X174434807Y-104562115D01*
X174429127Y-104587470D01*
X174417795Y-104643484D01*
X174402179Y-104722964D01*
X174383647Y-104818712D01*
X174363569Y-104923533D01*
X174343312Y-105030232D01*
X174324246Y-105131613D01*
X174307739Y-105220479D01*
X174295159Y-105289637D01*
X174287875Y-105331889D01*
X174286616Y-105341290D01*
X174269763Y-105349807D01*
X174224870Y-105368660D01*
X174160430Y-105394324D01*
X174135192Y-105404123D01*
X174037686Y-105443648D01*
X173929959Y-105490192D01*
X173839172Y-105531877D01*
X173769753Y-105562550D01*
X173712710Y-105582956D01*
X173677777Y-105589768D01*
X173673095Y-105588682D01*
X173650991Y-105574285D01*
X173601831Y-105541412D01*
X173530848Y-105493590D01*
X173443278Y-105434348D01*
X173344357Y-105367215D01*
X173324830Y-105353941D01*
X173209140Y-105276046D01*
X173121044Y-105218787D01*
X173056486Y-105179881D01*
X173011411Y-105157044D01*
X172981763Y-105147994D01*
X172963485Y-105150448D01*
X172963369Y-105150511D01*
X172939361Y-105169827D01*
X172892947Y-105212551D01*
X172828937Y-105274051D01*
X172752145Y-105349698D01*
X172667382Y-105434861D01*
X172657922Y-105444465D01*
X172553989Y-105551790D01*
X172477675Y-105634615D01*
X172427571Y-105694605D01*
X172402270Y-105733423D01*
X172399004Y-105750520D01*
X172413250Y-105775473D01*
X172446156Y-105827255D01*
X172494208Y-105900520D01*
X172553890Y-105989920D01*
X172621688Y-106090111D01*
X172637639Y-106113501D01*
X172864420Y-106445593D01*
X172796353Y-106595565D01*
X172756685Y-106686770D01*
X172716791Y-106784669D01*
X172684983Y-106868831D01*
X172683674Y-106872538D01*
X172659576Y-106938369D01*
X172639200Y-106989116D01*
X172626936Y-107013842D01*
X172626901Y-107013884D01*
X172604734Y-107021729D01*
X172550217Y-107035066D01*
X172469480Y-107052570D01*
X172368650Y-107072917D01*
X172253856Y-107094782D01*
X172244178Y-107096571D01*
X172125904Y-107118504D01*
X172018542Y-107138640D01*
X171928917Y-107155680D01*
X171863851Y-107168328D01*
X171830168Y-107175284D01*
X171829654Y-107175406D01*
X171815325Y-107179639D01*
X171804507Y-107187871D01*
X171796706Y-107205033D01*
X171791429Y-107236058D01*
X171788182Y-107285878D01*
X171786472Y-107359424D01*
X171785807Y-107461629D01*
X171785693Y-107597425D01*
X171785692Y-107615000D01*
X171785776Y-107754878D01*
G36*
X178145838Y-111860224D02*
G01*
X178196361Y-111937528D01*
X178241590Y-111974814D01*
X178323663Y-112004353D01*
X178388607Y-112006699D01*
X178475445Y-112001385D01*
X178563103Y-111801115D01*
X178607887Y-111703739D01*
X178643913Y-111640113D01*
X178675117Y-111607029D01*
X178705436Y-111601280D01*
X178738805Y-111619658D01*
X178760923Y-111639923D01*
X178796393Y-111698889D01*
X178798879Y-111763024D01*
X178771235Y-111821926D01*
X178716320Y-111865197D01*
X178696928Y-111872936D01*
X178636364Y-111910006D01*
X178610552Y-111952654D01*
X178588471Y-112011154D01*
X178672184Y-112011154D01*
X178729150Y-112005982D01*
X178777189Y-111985723D01*
X178832346Y-111943262D01*
X178839514Y-111936951D01*
X178888585Y-111889720D01*
X178914920Y-111849121D01*
X178927035Y-111798328D01*
X178931003Y-111756220D01*
X178931991Y-111680902D01*
X178919466Y-111627286D01*
X178900869Y-111593838D01*
X178859975Y-111541268D01*
X178815748Y-111504879D01*
X178760126Y-111481850D01*
X178685047Y-111469359D01*
X178582449Y-111464587D01*
X178530376Y-111464206D01*
X178467948Y-111465501D01*
X178467948Y-111583471D01*
X178501438Y-111584839D01*
X178506923Y-111588249D01*
X178499472Y-111610753D01*
X178479753Y-111659182D01*
X178451718Y-111723908D01*
X178445692Y-111737443D01*
X178404096Y-111819244D01*
X178367538Y-111864312D01*
X178333296Y-111874217D01*
X178298648Y-111850526D01*
X178283339Y-111830960D01*
X178252721Y-111760360D01*
X178257780Y-111694280D01*
X178295151Y-111638959D01*
X178361473Y-111600636D01*
X178414116Y-111588349D01*
X178467948Y-111583471D01*
X178467948Y-111465501D01*
X178408720Y-111466730D01*
X178318710Y-111476032D01*
X178253167Y-111494460D01*
X178204912Y-111524360D01*
X178166767Y-111568080D01*
X178154440Y-111587141D01*
X178122336Y-111673726D01*
X178120316Y-111768522D01*
X178145838Y-111860224D01*
G37*
X178145838Y-111860224D02*
X178196361Y-111937528D01*
X178241590Y-111974814D01*
X178323663Y-112004353D01*
X178388607Y-112006699D01*
X178475445Y-112001385D01*
X178563103Y-111801115D01*
X178607887Y-111703739D01*
X178643913Y-111640113D01*
X178675117Y-111607029D01*
X178705436Y-111601280D01*
X178738805Y-111619658D01*
X178760923Y-111639923D01*
X178796393Y-111698889D01*
X178798879Y-111763024D01*
X178771235Y-111821926D01*
X178716320Y-111865197D01*
X178696928Y-111872936D01*
X178636364Y-111910006D01*
X178610552Y-111952654D01*
X178588471Y-112011154D01*
X178672184Y-112011154D01*
X178729150Y-112005982D01*
X178777189Y-111985723D01*
X178832346Y-111943262D01*
X178839514Y-111936951D01*
X178888585Y-111889720D01*
X178914920Y-111849121D01*
X178927035Y-111798328D01*
X178931003Y-111756220D01*
X178931991Y-111680902D01*
X178919466Y-111627286D01*
X178900869Y-111593838D01*
X178859975Y-111541268D01*
X178815748Y-111504879D01*
X178760126Y-111481850D01*
X178685047Y-111469359D01*
X178582449Y-111464587D01*
X178530376Y-111464206D01*
X178467948Y-111465501D01*
X178467948Y-111583471D01*
X178501438Y-111584839D01*
X178506923Y-111588249D01*
X178499472Y-111610753D01*
X178479753Y-111659182D01*
X178451718Y-111723908D01*
X178445692Y-111737443D01*
X178404096Y-111819244D01*
X178367538Y-111864312D01*
X178333296Y-111874217D01*
X178298648Y-111850526D01*
X178283339Y-111830960D01*
X178252721Y-111760360D01*
X178257780Y-111694280D01*
X178295151Y-111638959D01*
X178361473Y-111600636D01*
X178414116Y-111588349D01*
X178467948Y-111583471D01*
X178467948Y-111465501D01*
X178408720Y-111466730D01*
X178318710Y-111476032D01*
X178253167Y-111494460D01*
X178204912Y-111524360D01*
X178166767Y-111568080D01*
X178154440Y-111587141D01*
X178122336Y-111673726D01*
X178120316Y-111768522D01*
X178145838Y-111860224D01*
G36*
X178134782Y-111185807D02*
G01*
X178144988Y-111209161D01*
X178189134Y-111264902D01*
X178252967Y-111312569D01*
X178321087Y-111342048D01*
X178354670Y-111346846D01*
X178401556Y-111330760D01*
X178426365Y-111295475D01*
X178441387Y-111257644D01*
X178444155Y-111240321D01*
X178424066Y-111231886D01*
X178380351Y-111215230D01*
X178360598Y-111207923D01*
X178292271Y-111166948D01*
X178258191Y-111107622D01*
X178259239Y-111031552D01*
X178260581Y-111025918D01*
X178279836Y-110985305D01*
X178317375Y-110955448D01*
X178377809Y-110935055D01*
X178465751Y-110922836D01*
X178585813Y-110917500D01*
X178649698Y-110917000D01*
X178750403Y-110916752D01*
X178819054Y-110915126D01*
X178862673Y-110910801D01*
X178888282Y-110902454D01*
X178902903Y-110888765D01*
X178913558Y-110868411D01*
X178914095Y-110867234D01*
X178930667Y-110828038D01*
X178936769Y-110808619D01*
X178918319Y-110805635D01*
X178867323Y-110803081D01*
X178790308Y-110801140D01*
X178693805Y-110799997D01*
X178623184Y-110799769D01*
X178486525Y-110800932D01*
X178382851Y-110805479D01*
X178306108Y-110814999D01*
X178250246Y-110831081D01*
X178209212Y-110855313D01*
X178176954Y-110889286D01*
X178154440Y-110922833D01*
X178124476Y-111003499D01*
X178117718Y-111097381D01*
X178134782Y-111185807D01*
G37*
X178134782Y-111185807D02*
X178144988Y-111209161D01*
X178189134Y-111264902D01*
X178252967Y-111312569D01*
X178321087Y-111342048D01*
X178354670Y-111346846D01*
X178401556Y-111330760D01*
X178426365Y-111295475D01*
X178441387Y-111257644D01*
X178444155Y-111240321D01*
X178424066Y-111231886D01*
X178380351Y-111215230D01*
X178360598Y-111207923D01*
X178292271Y-111166948D01*
X178258191Y-111107622D01*
X178259239Y-111031552D01*
X178260581Y-111025918D01*
X178279836Y-110985305D01*
X178317375Y-110955448D01*
X178377809Y-110935055D01*
X178465751Y-110922836D01*
X178585813Y-110917500D01*
X178649698Y-110917000D01*
X178750403Y-110916752D01*
X178819054Y-110915126D01*
X178862673Y-110910801D01*
X178888282Y-110902454D01*
X178902903Y-110888765D01*
X178913558Y-110868411D01*
X178914095Y-110867234D01*
X178930667Y-110828038D01*
X178936769Y-110808619D01*
X178918319Y-110805635D01*
X178867323Y-110803081D01*
X178790308Y-110801140D01*
X178693805Y-110799997D01*
X178623184Y-110799769D01*
X178486525Y-110800932D01*
X178382851Y-110805479D01*
X178306108Y-110814999D01*
X178250246Y-110831081D01*
X178209212Y-110855313D01*
X178176954Y-110889286D01*
X178154440Y-110922833D01*
X178124476Y-111003499D01*
X178117718Y-111097381D01*
X178134782Y-111185807D01*
G36*
X178131528Y-110502333D02*
G01*
X178157117Y-110558590D01*
X178188124Y-110602747D01*
X178222795Y-110635101D01*
X178267520Y-110657438D01*
X178328692Y-110671546D01*
X178412701Y-110679211D01*
X178525940Y-110682220D01*
X178600509Y-110682538D01*
X178891420Y-110682538D01*
X178914095Y-110632773D01*
X178930667Y-110593576D01*
X178936769Y-110574157D01*
X178918610Y-110570442D01*
X178869648Y-110567495D01*
X178798153Y-110565691D01*
X178741385Y-110565308D01*
X178659371Y-110563661D01*
X178594309Y-110559222D01*
X178554467Y-110552740D01*
X178546000Y-110547590D01*
X178554646Y-110512977D01*
X178576823Y-110458640D01*
X178606886Y-110395722D01*
X178639192Y-110335368D01*
X178668098Y-110288721D01*
X178687961Y-110266926D01*
X178688175Y-110266839D01*
X178724935Y-110268714D01*
X178760026Y-110285525D01*
X178788528Y-110315039D01*
X178798061Y-110358116D01*
X178796950Y-110394932D01*
X178796133Y-110447074D01*
X178808349Y-110474444D01*
X178840624Y-110490882D01*
X178846710Y-110492955D01*
X178892739Y-110500081D01*
X178920687Y-110481024D01*
X178934007Y-110431353D01*
X178936470Y-110377697D01*
X178918210Y-110281142D01*
X178892131Y-110231159D01*
X178830868Y-110169429D01*
X178755670Y-110136690D01*
X178676211Y-110133753D01*
X178602167Y-110161424D01*
X178555769Y-110203047D01*
X178529793Y-110244604D01*
X178496907Y-110309922D01*
X178463557Y-110386038D01*
X178458461Y-110398726D01*
X178421565Y-110482333D01*
X178389046Y-110530530D01*
X178356718Y-110546030D01*
X178320394Y-110531550D01*
X178292000Y-110506692D01*
X178257039Y-110447939D01*
X178254417Y-110383293D01*
X178281358Y-110324008D01*
X178335088Y-110281339D01*
X178348950Y-110275739D01*
X178399936Y-110243133D01*
X178437787Y-110195530D01*
X178468850Y-110135461D01*
X178380768Y-110135461D01*
X178326951Y-110138997D01*
X178284534Y-110154156D01*
X178239279Y-110187768D01*
X178204420Y-110220035D01*
X178155062Y-110270209D01*
X178128547Y-110309193D01*
X178117911Y-110351064D01*
X178116154Y-110398460D01*
X178131528Y-110502333D01*
G37*
X178131528Y-110502333D02*
X178157117Y-110558590D01*
X178188124Y-110602747D01*
X178222795Y-110635101D01*
X178267520Y-110657438D01*
X178328692Y-110671546D01*
X178412701Y-110679211D01*
X178525940Y-110682220D01*
X178600509Y-110682538D01*
X178891420Y-110682538D01*
X178914095Y-110632773D01*
X178930667Y-110593576D01*
X178936769Y-110574157D01*
X178918610Y-110570442D01*
X178869648Y-110567495D01*
X178798153Y-110565691D01*
X178741385Y-110565308D01*
X178659371Y-110563661D01*
X178594309Y-110559222D01*
X178554467Y-110552740D01*
X178546000Y-110547590D01*
X178554646Y-110512977D01*
X178576823Y-110458640D01*
X178606886Y-110395722D01*
X178639192Y-110335368D01*
X178668098Y-110288721D01*
X178687961Y-110266926D01*
X178688175Y-110266839D01*
X178724935Y-110268714D01*
X178760026Y-110285525D01*
X178788528Y-110315039D01*
X178798061Y-110358116D01*
X178796950Y-110394932D01*
X178796133Y-110447074D01*
X178808349Y-110474444D01*
X178840624Y-110490882D01*
X178846710Y-110492955D01*
X178892739Y-110500081D01*
X178920687Y-110481024D01*
X178934007Y-110431353D01*
X178936470Y-110377697D01*
X178918210Y-110281142D01*
X178892131Y-110231159D01*
X178830868Y-110169429D01*
X178755670Y-110136690D01*
X178676211Y-110133753D01*
X178602167Y-110161424D01*
X178555769Y-110203047D01*
X178529793Y-110244604D01*
X178496907Y-110309922D01*
X178463557Y-110386038D01*
X178458461Y-110398726D01*
X178421565Y-110482333D01*
X178389046Y-110530530D01*
X178356718Y-110546030D01*
X178320394Y-110531550D01*
X178292000Y-110506692D01*
X178257039Y-110447939D01*
X178254417Y-110383293D01*
X178281358Y-110324008D01*
X178335088Y-110281339D01*
X178348950Y-110275739D01*
X178399936Y-110243133D01*
X178437787Y-110195530D01*
X178468850Y-110135461D01*
X178380768Y-110135461D01*
X178326951Y-110138997D01*
X178284534Y-110154156D01*
X178239279Y-110187768D01*
X178204420Y-110220035D01*
X178155062Y-110270209D01*
X178128547Y-110309193D01*
X178117911Y-110351064D01*
X178116154Y-110398460D01*
X178131528Y-110502333D01*
G36*
X178134662Y-110010929D02*
G01*
X178186068Y-110013911D01*
X178264192Y-110016247D01*
X178362857Y-110017749D01*
X178466343Y-110018231D01*
X178816533Y-110018231D01*
X178878363Y-109956401D01*
X178916462Y-109913793D01*
X178931895Y-109876390D01*
X178930918Y-109825270D01*
X178928433Y-109804978D01*
X178921200Y-109741554D01*
X178917055Y-109689095D01*
X178916672Y-109676308D01*
X178919176Y-109633199D01*
X178925462Y-109571544D01*
X178928433Y-109547638D01*
X178933028Y-109488922D01*
X178923046Y-109449464D01*
X178892228Y-109410338D01*
X178878363Y-109396215D01*
X178816533Y-109334385D01*
X178161503Y-109334385D01*
X178138829Y-109384150D01*
X178122034Y-109427002D01*
X178116154Y-109452073D01*
X178134736Y-109458501D01*
X178186655Y-109464509D01*
X178266172Y-109469697D01*
X178367546Y-109473664D01*
X178453192Y-109475577D01*
X178790231Y-109480923D01*
X178796825Y-109527560D01*
X178792214Y-109569976D01*
X178777287Y-109590760D01*
X178749377Y-109596570D01*
X178689925Y-109601530D01*
X178606466Y-109605246D01*
X178506532Y-109607324D01*
X178455104Y-109607624D01*
X178159054Y-109607923D01*
X178137604Y-109669454D01*
X178123020Y-109713004D01*
X178116219Y-109736694D01*
X178116154Y-109737377D01*
X178134642Y-109739754D01*
X178185906Y-109742366D01*
X178263649Y-109744995D01*
X178361574Y-109747421D01*
X178453192Y-109749115D01*
X178790231Y-109754461D01*
X178790231Y-109871692D01*
X178482746Y-109877072D01*
X178175261Y-109882451D01*
X178145707Y-109939601D01*
X178125413Y-109981797D01*
X178116204Y-110006770D01*
X178116154Y-110007491D01*
X178134662Y-110010929D01*
G37*
X178134662Y-110010929D02*
X178186068Y-110013911D01*
X178264192Y-110016247D01*
X178362857Y-110017749D01*
X178466343Y-110018231D01*
X178816533Y-110018231D01*
X178878363Y-109956401D01*
X178916462Y-109913793D01*
X178931895Y-109876390D01*
X178930918Y-109825270D01*
X178928433Y-109804978D01*
X178921200Y-109741554D01*
X178917055Y-109689095D01*
X178916672Y-109676308D01*
X178919176Y-109633199D01*
X178925462Y-109571544D01*
X178928433Y-109547638D01*
X178933028Y-109488922D01*
X178923046Y-109449464D01*
X178892228Y-109410338D01*
X178878363Y-109396215D01*
X178816533Y-109334385D01*
X178161503Y-109334385D01*
X178138829Y-109384150D01*
X178122034Y-109427002D01*
X178116154Y-109452073D01*
X178134736Y-109458501D01*
X178186655Y-109464509D01*
X178266172Y-109469697D01*
X178367546Y-109473664D01*
X178453192Y-109475577D01*
X178790231Y-109480923D01*
X178796825Y-109527560D01*
X178792214Y-109569976D01*
X178777287Y-109590760D01*
X178749377Y-109596570D01*
X178689925Y-109601530D01*
X178606466Y-109605246D01*
X178506532Y-109607324D01*
X178455104Y-109607624D01*
X178159054Y-109607923D01*
X178137604Y-109669454D01*
X178123020Y-109713004D01*
X178116219Y-109736694D01*
X178116154Y-109737377D01*
X178134642Y-109739754D01*
X178185906Y-109742366D01*
X178263649Y-109744995D01*
X178361574Y-109747421D01*
X178453192Y-109749115D01*
X178790231Y-109754461D01*
X178790231Y-109871692D01*
X178482746Y-109877072D01*
X178175261Y-109882451D01*
X178145707Y-109939601D01*
X178125413Y-109981797D01*
X178116204Y-110006770D01*
X178116154Y-110007491D01*
X178134662Y-110010929D01*
G36*
X178278289Y-109217081D02*
G01*
X178424320Y-109216833D01*
X178536655Y-109215872D01*
X178620678Y-109213794D01*
X178681769Y-109210193D01*
X178725309Y-109204665D01*
X178756679Y-109196804D01*
X178781262Y-109186207D01*
X178795294Y-109178182D01*
X178871388Y-109111728D01*
X178919084Y-109027470D01*
X178936199Y-108934249D01*
X178920546Y-108840900D01*
X178892418Y-108785312D01*
X178843760Y-108726957D01*
X178784333Y-108687186D01*
X178706507Y-108663190D01*
X178602652Y-108652161D01*
X178526462Y-108650599D01*
X178520986Y-108650809D01*
X178520986Y-108787308D01*
X178608355Y-108788141D01*
X178666192Y-108791961D01*
X178704029Y-108800746D01*
X178731398Y-108816474D01*
X178752042Y-108835266D01*
X178791890Y-108898375D01*
X178795295Y-108966137D01*
X178762025Y-109030179D01*
X178757517Y-109035164D01*
X178734067Y-109056439D01*
X178706166Y-109069779D01*
X178664641Y-109077001D01*
X178600316Y-109079923D01*
X178529200Y-109080385D01*
X178439858Y-109079383D01*
X178380258Y-109075238D01*
X178341089Y-109066236D01*
X178313040Y-109050667D01*
X178298144Y-109037902D01*
X178260575Y-108978600D01*
X178256057Y-108910301D01*
X178284753Y-108845110D01*
X178295406Y-108832528D01*
X178319063Y-108811111D01*
X178347251Y-108797744D01*
X178389245Y-108790566D01*
X178454319Y-108787719D01*
X178520986Y-108787308D01*
X178520986Y-108650809D01*
X178403765Y-108655322D01*
X178311577Y-108671362D01*
X178242269Y-108701528D01*
X178188211Y-108748629D01*
X178160505Y-108785312D01*
X178130572Y-108851990D01*
X178116678Y-108929272D01*
X178120397Y-109001110D01*
X178135400Y-109041308D01*
X178139670Y-109057082D01*
X178123750Y-109067550D01*
X178081089Y-109074856D01*
X178016106Y-109080385D01*
X177943732Y-109086437D01*
X177900187Y-109094844D01*
X177875287Y-109110141D01*
X177858845Y-109136864D01*
X177851564Y-109153654D01*
X177824963Y-109217154D01*
X178278289Y-109217081D01*
G37*
X178278289Y-109217081D02*
X178424320Y-109216833D01*
X178536655Y-109215872D01*
X178620678Y-109213794D01*
X178681769Y-109210193D01*
X178725309Y-109204665D01*
X178756679Y-109196804D01*
X178781262Y-109186207D01*
X178795294Y-109178182D01*
X178871388Y-109111728D01*
X178919084Y-109027470D01*
X178936199Y-108934249D01*
X178920546Y-108840900D01*
X178892418Y-108785312D01*
X178843760Y-108726957D01*
X178784333Y-108687186D01*
X178706507Y-108663190D01*
X178602652Y-108652161D01*
X178526462Y-108650599D01*
X178520986Y-108650809D01*
X178520986Y-108787308D01*
X178608355Y-108788141D01*
X178666192Y-108791961D01*
X178704029Y-108800746D01*
X178731398Y-108816474D01*
X178752042Y-108835266D01*
X178791890Y-108898375D01*
X178795295Y-108966137D01*
X178762025Y-109030179D01*
X178757517Y-109035164D01*
X178734067Y-109056439D01*
X178706166Y-109069779D01*
X178664641Y-109077001D01*
X178600316Y-109079923D01*
X178529200Y-109080385D01*
X178439858Y-109079383D01*
X178380258Y-109075238D01*
X178341089Y-109066236D01*
X178313040Y-109050667D01*
X178298144Y-109037902D01*
X178260575Y-108978600D01*
X178256057Y-108910301D01*
X178284753Y-108845110D01*
X178295406Y-108832528D01*
X178319063Y-108811111D01*
X178347251Y-108797744D01*
X178389245Y-108790566D01*
X178454319Y-108787719D01*
X178520986Y-108787308D01*
X178520986Y-108650809D01*
X178403765Y-108655322D01*
X178311577Y-108671362D01*
X178242269Y-108701528D01*
X178188211Y-108748629D01*
X178160505Y-108785312D01*
X178130572Y-108851990D01*
X178116678Y-108929272D01*
X178120397Y-109001110D01*
X178135400Y-109041308D01*
X178139670Y-109057082D01*
X178123750Y-109067550D01*
X178081089Y-109074856D01*
X178016106Y-109080385D01*
X177943732Y-109086437D01*
X177900187Y-109094844D01*
X177875287Y-109110141D01*
X177858845Y-109136864D01*
X177851564Y-109153654D01*
X177824963Y-109217154D01*
X178278289Y-109217081D01*
G36*
X178122670Y-108328362D02*
G01*
X178155421Y-108417117D01*
X178213350Y-108489022D01*
X178254128Y-108517144D01*
X178328954Y-108547802D01*
X178383058Y-108547165D01*
X178419446Y-108514987D01*
X178425633Y-108503081D01*
X178444925Y-108451675D01*
X178439982Y-108425422D01*
X178407587Y-108416530D01*
X178389692Y-108416077D01*
X178323859Y-108399797D01*
X178277807Y-108357365D01*
X178255564Y-108298388D01*
X178261161Y-108232475D01*
X178290229Y-108178895D01*
X178306810Y-108160798D01*
X178326925Y-108147971D01*
X178357332Y-108139306D01*
X178404788Y-108133696D01*
X178476050Y-108130035D01*
X178577875Y-108127215D01*
X178610115Y-108126484D01*
X178720410Y-108123820D01*
X178798036Y-108120792D01*
X178849396Y-108116250D01*
X178880890Y-108109046D01*
X178898920Y-108098033D01*
X178909888Y-108082060D01*
X178914733Y-108071834D01*
X178931301Y-108028406D01*
X178936769Y-108002842D01*
X178918507Y-107994395D01*
X178863296Y-107989239D01*
X178770499Y-107987346D01*
X178639478Y-107988689D01*
X178619269Y-107989107D01*
X178499733Y-107992058D01*
X178412449Y-107995548D01*
X178350591Y-108000514D01*
X178307336Y-108007893D01*
X178275860Y-108018624D01*
X178249339Y-108033645D01*
X178237975Y-108041502D01*
X178187692Y-108086553D01*
X178148581Y-108136940D01*
X178145167Y-108143108D01*
X178118212Y-108233458D01*
X178122670Y-108328362D01*
G37*
X178122670Y-108328362D02*
X178155421Y-108417117D01*
X178213350Y-108489022D01*
X178254128Y-108517144D01*
X178328954Y-108547802D01*
X178383058Y-108547165D01*
X178419446Y-108514987D01*
X178425633Y-108503081D01*
X178444925Y-108451675D01*
X178439982Y-108425422D01*
X178407587Y-108416530D01*
X178389692Y-108416077D01*
X178323859Y-108399797D01*
X178277807Y-108357365D01*
X178255564Y-108298388D01*
X178261161Y-108232475D01*
X178290229Y-108178895D01*
X178306810Y-108160798D01*
X178326925Y-108147971D01*
X178357332Y-108139306D01*
X178404788Y-108133696D01*
X178476050Y-108130035D01*
X178577875Y-108127215D01*
X178610115Y-108126484D01*
X178720410Y-108123820D01*
X178798036Y-108120792D01*
X178849396Y-108116250D01*
X178880890Y-108109046D01*
X178898920Y-108098033D01*
X178909888Y-108082060D01*
X178914733Y-108071834D01*
X178931301Y-108028406D01*
X178936769Y-108002842D01*
X178918507Y-107994395D01*
X178863296Y-107989239D01*
X178770499Y-107987346D01*
X178639478Y-107988689D01*
X178619269Y-107989107D01*
X178499733Y-107992058D01*
X178412449Y-107995548D01*
X178350591Y-108000514D01*
X178307336Y-108007893D01*
X178275860Y-108018624D01*
X178249339Y-108033645D01*
X178237975Y-108041502D01*
X178187692Y-108086553D01*
X178148581Y-108136940D01*
X178145167Y-108143108D01*
X178118212Y-108233458D01*
X178122670Y-108328362D01*
G36*
X178124303Y-107668501D02*
G01*
X178152733Y-107745060D01*
X178153279Y-107745936D01*
X178188127Y-107793285D01*
X178228852Y-107828241D01*
X178281925Y-107852825D01*
X178353814Y-107869062D01*
X178450992Y-107878975D01*
X178579928Y-107884586D01*
X178598298Y-107885077D01*
X178875287Y-107892141D01*
X178906028Y-107832695D01*
X178926802Y-107789681D01*
X178936646Y-107763710D01*
X178936769Y-107762509D01*
X178918606Y-107758014D01*
X178869612Y-107754444D01*
X178798031Y-107752248D01*
X178740068Y-107751769D01*
X178646170Y-107751758D01*
X178587203Y-107747466D01*
X178559079Y-107732503D01*
X178557706Y-107700482D01*
X178578998Y-107645014D01*
X178618136Y-107561269D01*
X178650643Y-107499689D01*
X178678845Y-107468017D01*
X178709582Y-107458706D01*
X178711104Y-107458692D01*
X178764054Y-107474057D01*
X178792660Y-107519547D01*
X178796803Y-107589166D01*
X178796084Y-107639313D01*
X178810527Y-107665754D01*
X178845218Y-107682243D01*
X178889416Y-107691733D01*
X178914493Y-107678057D01*
X178918082Y-107672907D01*
X178932496Y-107624425D01*
X178934537Y-107556531D01*
X178924983Y-107486612D01*
X178907522Y-107437068D01*
X178849364Y-107368570D01*
X178768408Y-107329634D01*
X178705160Y-107321923D01*
X178648111Y-107327807D01*
X178601542Y-107349101D01*
X178560181Y-107391265D01*
X178518755Y-107459759D01*
X178471993Y-107560044D01*
X178469350Y-107566154D01*
X178427617Y-107656490D01*
X178393391Y-107712235D01*
X178362635Y-107736129D01*
X178331311Y-107730913D01*
X178295383Y-107699328D01*
X178287116Y-107689883D01*
X178255058Y-107626617D01*
X178256407Y-107561064D01*
X178287838Y-107503972D01*
X178346024Y-107466093D01*
X178357446Y-107462574D01*
X178412837Y-107428300D01*
X178439518Y-107384809D01*
X178465960Y-107321923D01*
X178397548Y-107321923D01*
X178298110Y-107341052D01*
X178206902Y-107397831D01*
X178176389Y-107427378D01*
X178137228Y-107494542D01*
X178119500Y-107579956D01*
X178124303Y-107668501D01*
G37*
X178124303Y-107668501D02*
X178152733Y-107745060D01*
X178153279Y-107745936D01*
X178188127Y-107793285D01*
X178228852Y-107828241D01*
X178281925Y-107852825D01*
X178353814Y-107869062D01*
X178450992Y-107878975D01*
X178579928Y-107884586D01*
X178598298Y-107885077D01*
X178875287Y-107892141D01*
X178906028Y-107832695D01*
X178926802Y-107789681D01*
X178936646Y-107763710D01*
X178936769Y-107762509D01*
X178918606Y-107758014D01*
X178869612Y-107754444D01*
X178798031Y-107752248D01*
X178740068Y-107751769D01*
X178646170Y-107751758D01*
X178587203Y-107747466D01*
X178559079Y-107732503D01*
X178557706Y-107700482D01*
X178578998Y-107645014D01*
X178618136Y-107561269D01*
X178650643Y-107499689D01*
X178678845Y-107468017D01*
X178709582Y-107458706D01*
X178711104Y-107458692D01*
X178764054Y-107474057D01*
X178792660Y-107519547D01*
X178796803Y-107589166D01*
X178796084Y-107639313D01*
X178810527Y-107665754D01*
X178845218Y-107682243D01*
X178889416Y-107691733D01*
X178914493Y-107678057D01*
X178918082Y-107672907D01*
X178932496Y-107624425D01*
X178934537Y-107556531D01*
X178924983Y-107486612D01*
X178907522Y-107437068D01*
X178849364Y-107368570D01*
X178768408Y-107329634D01*
X178705160Y-107321923D01*
X178648111Y-107327807D01*
X178601542Y-107349101D01*
X178560181Y-107391265D01*
X178518755Y-107459759D01*
X178471993Y-107560044D01*
X178469350Y-107566154D01*
X178427617Y-107656490D01*
X178393391Y-107712235D01*
X178362635Y-107736129D01*
X178331311Y-107730913D01*
X178295383Y-107699328D01*
X178287116Y-107689883D01*
X178255058Y-107626617D01*
X178256407Y-107561064D01*
X178287838Y-107503972D01*
X178346024Y-107466093D01*
X178357446Y-107462574D01*
X178412837Y-107428300D01*
X178439518Y-107384809D01*
X178465960Y-107321923D01*
X178397548Y-107321923D01*
X178298110Y-107341052D01*
X178206902Y-107397831D01*
X178176389Y-107427378D01*
X178137228Y-107494542D01*
X178119500Y-107579956D01*
X178124303Y-107668501D01*
G36*
X177990120Y-106774846D02*
G01*
X178069980Y-106780572D01*
X178117039Y-106787149D01*
X178137566Y-106796262D01*
X178137829Y-106809598D01*
X178135378Y-106813923D01*
X178117636Y-106871444D01*
X178118672Y-106946268D01*
X178136910Y-107022339D01*
X178160505Y-107069918D01*
X178198198Y-107118702D01*
X178240855Y-107154364D01*
X178295057Y-107178845D01*
X178367384Y-107194087D01*
X178464419Y-107202030D01*
X178592742Y-107204616D01*
X178617358Y-107204662D01*
X178893870Y-107204692D01*
X178915320Y-107143161D01*
X178929912Y-107099459D01*
X178936706Y-107075482D01*
X178936769Y-107074777D01*
X178918345Y-107072415D01*
X178867526Y-107070406D01*
X178790993Y-107068901D01*
X178695430Y-107068053D01*
X178637329Y-107067923D01*
X178522771Y-107067651D01*
X178440667Y-107066252D01*
X178384393Y-107062849D01*
X178347326Y-107056567D01*
X178322844Y-107046529D01*
X178304325Y-107031861D01*
X178295406Y-107022702D01*
X178259466Y-106959789D01*
X178256775Y-106891136D01*
X178287170Y-106828848D01*
X178298144Y-106817329D01*
X178318779Y-106800433D01*
X178343256Y-106788714D01*
X178378647Y-106781233D01*
X178432026Y-106777054D01*
X178510466Y-106775237D01*
X178618617Y-106774846D01*
X178893870Y-106774846D01*
X178915320Y-106713315D01*
X178929912Y-106669613D01*
X178936706Y-106645636D01*
X178936769Y-106644930D01*
X178918069Y-106643126D01*
X178865322Y-106641500D01*
X178783557Y-106640117D01*
X178677805Y-106639042D01*
X178553094Y-106638340D01*
X178414455Y-106638077D01*
X177879806Y-106638077D01*
X177826236Y-106765077D01*
X177990120Y-106774846D01*
G37*
X177990120Y-106774846D02*
X178069980Y-106780572D01*
X178117039Y-106787149D01*
X178137566Y-106796262D01*
X178137829Y-106809598D01*
X178135378Y-106813923D01*
X178117636Y-106871444D01*
X178118672Y-106946268D01*
X178136910Y-107022339D01*
X178160505Y-107069918D01*
X178198198Y-107118702D01*
X178240855Y-107154364D01*
X178295057Y-107178845D01*
X178367384Y-107194087D01*
X178464419Y-107202030D01*
X178592742Y-107204616D01*
X178617358Y-107204662D01*
X178893870Y-107204692D01*
X178915320Y-107143161D01*
X178929912Y-107099459D01*
X178936706Y-107075482D01*
X178936769Y-107074777D01*
X178918345Y-107072415D01*
X178867526Y-107070406D01*
X178790993Y-107068901D01*
X178695430Y-107068053D01*
X178637329Y-107067923D01*
X178522771Y-107067651D01*
X178440667Y-107066252D01*
X178384393Y-107062849D01*
X178347326Y-107056567D01*
X178322844Y-107046529D01*
X178304325Y-107031861D01*
X178295406Y-107022702D01*
X178259466Y-106959789D01*
X178256775Y-106891136D01*
X178287170Y-106828848D01*
X178298144Y-106817329D01*
X178318779Y-106800433D01*
X178343256Y-106788714D01*
X178378647Y-106781233D01*
X178432026Y-106777054D01*
X178510466Y-106775237D01*
X178618617Y-106774846D01*
X178893870Y-106774846D01*
X178915320Y-106713315D01*
X178929912Y-106669613D01*
X178936706Y-106645636D01*
X178936769Y-106644930D01*
X178918069Y-106643126D01*
X178865322Y-106641500D01*
X178783557Y-106640117D01*
X178677805Y-106639042D01*
X178553094Y-106638340D01*
X178414455Y-106638077D01*
X177879806Y-106638077D01*
X177826236Y-106765077D01*
X177990120Y-106774846D01*
G36*
X178097745Y-105149254D02*
G01*
X178149567Y-105226286D01*
X178224412Y-105285816D01*
X178319654Y-105321378D01*
X178389756Y-105328571D01*
X178419009Y-105327754D01*
X178441407Y-105320914D01*
X178461474Y-105302112D01*
X178483733Y-105265408D01*
X178512709Y-105204862D01*
X178552927Y-105114534D01*
X178553129Y-105114077D01*
X178591210Y-105030933D01*
X178625025Y-104962753D01*
X178650933Y-104916505D01*
X178665295Y-104899158D01*
X178665411Y-104899154D01*
X178696685Y-104914443D01*
X178731157Y-104950196D01*
X178755990Y-104991242D01*
X178760923Y-105012037D01*
X178743862Y-105068770D01*
X178701133Y-105117627D01*
X178654155Y-105141465D01*
X178619522Y-105164397D01*
X178580081Y-105209318D01*
X178546009Y-105262123D01*
X178527480Y-105308710D01*
X178526462Y-105318452D01*
X178543215Y-105329418D01*
X178586039Y-105330079D01*
X178643781Y-105322020D01*
X178705289Y-105306827D01*
X178759409Y-105286086D01*
X178761510Y-105285038D01*
X178848660Y-105222621D01*
X178907939Y-105141726D01*
X178937034Y-105049856D01*
X178933634Y-104954513D01*
X178895428Y-104863198D01*
X178892741Y-104859138D01*
X178827642Y-104787306D01*
X178742705Y-104740073D01*
X178631021Y-104713934D01*
X178599643Y-104710426D01*
X178451536Y-104704213D01*
X178382468Y-104711661D01*
X178382468Y-104899154D01*
X178425552Y-104901590D01*
X178438126Y-104914914D01*
X178428719Y-104948132D01*
X178406483Y-105000494D01*
X178378610Y-105059024D01*
X178377872Y-105060479D01*
X178351777Y-105110089D01*
X178334363Y-105130000D01*
X178316107Y-105125090D01*
X178292120Y-105104416D01*
X178257406Y-105051819D01*
X178254856Y-104995177D01*
X178280119Y-104944369D01*
X178328847Y-104909276D01*
X178382468Y-104899154D01*
X178382468Y-104711661D01*
X178333036Y-104716992D01*
X178239055Y-104749778D01*
X178173215Y-104795421D01*
X178106681Y-104877802D01*
X178073676Y-104968546D01*
X178071573Y-105061185D01*
X178097745Y-105149254D01*
G37*
X178097745Y-105149254D02*
X178149567Y-105226286D01*
X178224412Y-105285816D01*
X178319654Y-105321378D01*
X178389756Y-105328571D01*
X178419009Y-105327754D01*
X178441407Y-105320914D01*
X178461474Y-105302112D01*
X178483733Y-105265408D01*
X178512709Y-105204862D01*
X178552927Y-105114534D01*
X178553129Y-105114077D01*
X178591210Y-105030933D01*
X178625025Y-104962753D01*
X178650933Y-104916505D01*
X178665295Y-104899158D01*
X178665411Y-104899154D01*
X178696685Y-104914443D01*
X178731157Y-104950196D01*
X178755990Y-104991242D01*
X178760923Y-105012037D01*
X178743862Y-105068770D01*
X178701133Y-105117627D01*
X178654155Y-105141465D01*
X178619522Y-105164397D01*
X178580081Y-105209318D01*
X178546009Y-105262123D01*
X178527480Y-105308710D01*
X178526462Y-105318452D01*
X178543215Y-105329418D01*
X178586039Y-105330079D01*
X178643781Y-105322020D01*
X178705289Y-105306827D01*
X178759409Y-105286086D01*
X178761510Y-105285038D01*
X178848660Y-105222621D01*
X178907939Y-105141726D01*
X178937034Y-105049856D01*
X178933634Y-104954513D01*
X178895428Y-104863198D01*
X178892741Y-104859138D01*
X178827642Y-104787306D01*
X178742705Y-104740073D01*
X178631021Y-104713934D01*
X178599643Y-104710426D01*
X178451536Y-104704213D01*
X178382468Y-104711661D01*
X178382468Y-104899154D01*
X178425552Y-104901590D01*
X178438126Y-104914914D01*
X178428719Y-104948132D01*
X178406483Y-105000494D01*
X178378610Y-105059024D01*
X178377872Y-105060479D01*
X178351777Y-105110089D01*
X178334363Y-105130000D01*
X178316107Y-105125090D01*
X178292120Y-105104416D01*
X178257406Y-105051819D01*
X178254856Y-104995177D01*
X178280119Y-104944369D01*
X178328847Y-104909276D01*
X178382468Y-104899154D01*
X178382468Y-104711661D01*
X178333036Y-104716992D01*
X178239055Y-104749778D01*
X178173215Y-104795421D01*
X178106681Y-104877802D01*
X178073676Y-104968546D01*
X178071573Y-105061185D01*
X178097745Y-105149254D01*
G36*
X178085256Y-103631886D02*
G01*
X178133409Y-103723464D01*
X178210905Y-103791049D01*
X178260727Y-103815057D01*
X178335533Y-103833738D01*
X178430052Y-103843301D01*
X178533210Y-103844208D01*
X178633935Y-103836921D01*
X178721153Y-103821903D01*
X178783791Y-103799615D01*
X178794579Y-103792765D01*
X178875105Y-103711632D01*
X178923336Y-103615266D01*
X178937450Y-103510701D01*
X178915629Y-103404968D01*
X178902547Y-103375543D01*
X178862231Y-103318241D01*
X178808775Y-103267950D01*
X178801995Y-103263197D01*
X178769321Y-103243878D01*
X178734394Y-103231108D01*
X178688414Y-103223564D01*
X178622584Y-103219924D01*
X178528105Y-103218865D01*
X178506923Y-103218846D01*
X178500182Y-103218894D01*
X178500182Y-103414231D01*
X178589349Y-103415368D01*
X178648520Y-103419841D01*
X178686741Y-103429246D01*
X178713053Y-103445176D01*
X178721846Y-103453308D01*
X178755261Y-103500058D01*
X178753737Y-103545447D01*
X178724752Y-103591340D01*
X178693809Y-103618712D01*
X178648643Y-103634923D01*
X178577420Y-103644026D01*
X178569114Y-103644651D01*
X178440037Y-103646204D01*
X178344172Y-103629965D01*
X178282107Y-103596152D01*
X178254432Y-103544984D01*
X178252923Y-103526720D01*
X178260513Y-103478760D01*
X178286808Y-103445953D01*
X178337095Y-103425895D01*
X178416664Y-103416178D01*
X178500182Y-103414231D01*
X178500182Y-103218894D01*
X178406249Y-103219574D01*
X178335906Y-103222629D01*
X178287163Y-103229322D01*
X178251288Y-103240960D01*
X178219548Y-103258853D01*
X178213648Y-103262808D01*
X178134104Y-103329267D01*
X178087929Y-103401685D01*
X178069599Y-103489849D01*
X178068703Y-103519787D01*
X178085256Y-103631886D01*
G37*
X178085256Y-103631886D02*
X178133409Y-103723464D01*
X178210905Y-103791049D01*
X178260727Y-103815057D01*
X178335533Y-103833738D01*
X178430052Y-103843301D01*
X178533210Y-103844208D01*
X178633935Y-103836921D01*
X178721153Y-103821903D01*
X178783791Y-103799615D01*
X178794579Y-103792765D01*
X178875105Y-103711632D01*
X178923336Y-103615266D01*
X178937450Y-103510701D01*
X178915629Y-103404968D01*
X178902547Y-103375543D01*
X178862231Y-103318241D01*
X178808775Y-103267950D01*
X178801995Y-103263197D01*
X178769321Y-103243878D01*
X178734394Y-103231108D01*
X178688414Y-103223564D01*
X178622584Y-103219924D01*
X178528105Y-103218865D01*
X178506923Y-103218846D01*
X178500182Y-103218894D01*
X178500182Y-103414231D01*
X178589349Y-103415368D01*
X178648520Y-103419841D01*
X178686741Y-103429246D01*
X178713053Y-103445176D01*
X178721846Y-103453308D01*
X178755261Y-103500058D01*
X178753737Y-103545447D01*
X178724752Y-103591340D01*
X178693809Y-103618712D01*
X178648643Y-103634923D01*
X178577420Y-103644026D01*
X178569114Y-103644651D01*
X178440037Y-103646204D01*
X178344172Y-103629965D01*
X178282107Y-103596152D01*
X178254432Y-103544984D01*
X178252923Y-103526720D01*
X178260513Y-103478760D01*
X178286808Y-103445953D01*
X178337095Y-103425895D01*
X178416664Y-103416178D01*
X178500182Y-103414231D01*
X178500182Y-103218894D01*
X178406249Y-103219574D01*
X178335906Y-103222629D01*
X178287163Y-103229322D01*
X178251288Y-103240960D01*
X178219548Y-103258853D01*
X178213648Y-103262808D01*
X178134104Y-103329267D01*
X178087929Y-103401685D01*
X178069599Y-103489849D01*
X178068703Y-103519787D01*
X178085256Y-103631886D01*
G36*
X178093089Y-105886664D02*
G01*
X178129358Y-105949367D01*
X178165358Y-105992961D01*
X178203075Y-106024845D01*
X178249199Y-106046810D01*
X178310421Y-106060649D01*
X178393431Y-106068153D01*
X178504919Y-106071117D01*
X178585062Y-106071461D01*
X178880065Y-106071461D01*
X178954515Y-105905385D01*
X178631402Y-105895615D01*
X178510729Y-105891579D01*
X178423141Y-105887344D01*
X178362650Y-105882097D01*
X178323268Y-105875025D01*
X178299007Y-105865311D01*
X178283880Y-105852144D01*
X178280606Y-105847919D01*
X178255034Y-105783909D01*
X178265153Y-105719208D01*
X178292000Y-105680692D01*
X178311024Y-105665025D01*
X178335988Y-105654180D01*
X178373834Y-105647288D01*
X178431502Y-105643479D01*
X178515935Y-105641883D01*
X178603928Y-105641615D01*
X178714323Y-105641563D01*
X178792463Y-105639672D01*
X178845165Y-105633345D01*
X178879242Y-105619983D01*
X178901511Y-105596985D01*
X178918787Y-105561754D01*
X178936738Y-105514697D01*
X178956278Y-105463303D01*
X178609485Y-105469421D01*
X178484468Y-105471884D01*
X178392082Y-105474767D01*
X178325881Y-105478898D01*
X178279420Y-105485107D01*
X178246256Y-105494226D01*
X178219944Y-105507083D01*
X178196729Y-105522584D01*
X178122569Y-105597371D01*
X178079684Y-105688628D01*
X178069412Y-105787883D01*
X178093089Y-105886664D01*
G37*
X178093089Y-105886664D02*
X178129358Y-105949367D01*
X178165358Y-105992961D01*
X178203075Y-106024845D01*
X178249199Y-106046810D01*
X178310421Y-106060649D01*
X178393431Y-106068153D01*
X178504919Y-106071117D01*
X178585062Y-106071461D01*
X178880065Y-106071461D01*
X178954515Y-105905385D01*
X178631402Y-105895615D01*
X178510729Y-105891579D01*
X178423141Y-105887344D01*
X178362650Y-105882097D01*
X178323268Y-105875025D01*
X178299007Y-105865311D01*
X178283880Y-105852144D01*
X178280606Y-105847919D01*
X178255034Y-105783909D01*
X178265153Y-105719208D01*
X178292000Y-105680692D01*
X178311024Y-105665025D01*
X178335988Y-105654180D01*
X178373834Y-105647288D01*
X178431502Y-105643479D01*
X178515935Y-105641883D01*
X178603928Y-105641615D01*
X178714323Y-105641563D01*
X178792463Y-105639672D01*
X178845165Y-105633345D01*
X178879242Y-105619983D01*
X178901511Y-105596985D01*
X178918787Y-105561754D01*
X178936738Y-105514697D01*
X178956278Y-105463303D01*
X178609485Y-105469421D01*
X178484468Y-105471884D01*
X178392082Y-105474767D01*
X178325881Y-105478898D01*
X178279420Y-105485107D01*
X178246256Y-105494226D01*
X178219944Y-105507083D01*
X178196729Y-105522584D01*
X178122569Y-105597371D01*
X178079684Y-105688628D01*
X178069412Y-105787883D01*
X178093089Y-105886664D01*
G36*
X178082505Y-104383886D02*
G01*
X178119727Y-104458539D01*
X178188261Y-104524431D01*
X178213648Y-104542577D01*
X178246866Y-104562345D01*
X178282945Y-104575172D01*
X178331098Y-104582510D01*
X178400536Y-104585813D01*
X178492206Y-104586538D01*
X178617830Y-104583263D01*
X178712154Y-104571877D01*
X178782523Y-104550041D01*
X178836286Y-104515419D01*
X178880788Y-104465670D01*
X178883423Y-104462014D01*
X178910377Y-104412985D01*
X178923712Y-104353945D01*
X178927000Y-104278859D01*
X178927000Y-104156795D01*
X179045497Y-104156744D01*
X179111492Y-104155608D01*
X179150202Y-104148686D01*
X179173419Y-104130598D01*
X179192933Y-104095962D01*
X179196920Y-104087645D01*
X179215603Y-104048720D01*
X179227403Y-104018583D01*
X179228422Y-103996174D01*
X179214761Y-103980433D01*
X179182522Y-103970302D01*
X179127804Y-103964723D01*
X179046711Y-103962635D01*
X178935344Y-103962981D01*
X178789802Y-103964700D01*
X178746269Y-103965237D01*
X178596205Y-103967172D01*
X178498042Y-103968904D01*
X178498042Y-104156692D01*
X178581364Y-104157748D01*
X178635880Y-104162438D01*
X178671837Y-104173051D01*
X178699482Y-104191872D01*
X178712965Y-104204650D01*
X178752417Y-104256890D01*
X178755628Y-104303142D01*
X178723049Y-104350867D01*
X178721846Y-104352077D01*
X178696668Y-104371494D01*
X178662447Y-104383307D01*
X178609748Y-104389265D01*
X178529131Y-104391120D01*
X178511271Y-104391154D01*
X178400175Y-104386670D01*
X178323161Y-104372074D01*
X178276147Y-104345650D01*
X178255050Y-104305683D01*
X178252923Y-104282584D01*
X178262900Y-104227762D01*
X178295752Y-104190158D01*
X178355857Y-104167523D01*
X178447598Y-104157606D01*
X178498042Y-104156692D01*
X178498042Y-103968904D01*
X178480060Y-103969222D01*
X178392679Y-103971873D01*
X178328905Y-103975606D01*
X178283582Y-103980907D01*
X178251555Y-103988258D01*
X178227668Y-103998143D01*
X178206764Y-104011046D01*
X178198898Y-104016579D01*
X178124595Y-104089969D01*
X178082467Y-104182760D01*
X178070722Y-104290096D01*
X178082505Y-104383886D01*
G37*
X178082505Y-104383886D02*
X178119727Y-104458539D01*
X178188261Y-104524431D01*
X178213648Y-104542577D01*
X178246866Y-104562345D01*
X178282945Y-104575172D01*
X178331098Y-104582510D01*
X178400536Y-104585813D01*
X178492206Y-104586538D01*
X178617830Y-104583263D01*
X178712154Y-104571877D01*
X178782523Y-104550041D01*
X178836286Y-104515419D01*
X178880788Y-104465670D01*
X178883423Y-104462014D01*
X178910377Y-104412985D01*
X178923712Y-104353945D01*
X178927000Y-104278859D01*
X178927000Y-104156795D01*
X179045497Y-104156744D01*
X179111492Y-104155608D01*
X179150202Y-104148686D01*
X179173419Y-104130598D01*
X179192933Y-104095962D01*
X179196920Y-104087645D01*
X179215603Y-104048720D01*
X179227403Y-104018583D01*
X179228422Y-103996174D01*
X179214761Y-103980433D01*
X179182522Y-103970302D01*
X179127804Y-103964723D01*
X179046711Y-103962635D01*
X178935344Y-103962981D01*
X178789802Y-103964700D01*
X178746269Y-103965237D01*
X178596205Y-103967172D01*
X178498042Y-103968904D01*
X178498042Y-104156692D01*
X178581364Y-104157748D01*
X178635880Y-104162438D01*
X178671837Y-104173051D01*
X178699482Y-104191872D01*
X178712965Y-104204650D01*
X178752417Y-104256890D01*
X178755628Y-104303142D01*
X178723049Y-104350867D01*
X178721846Y-104352077D01*
X178696668Y-104371494D01*
X178662447Y-104383307D01*
X178609748Y-104389265D01*
X178529131Y-104391120D01*
X178511271Y-104391154D01*
X178400175Y-104386670D01*
X178323161Y-104372074D01*
X178276147Y-104345650D01*
X178255050Y-104305683D01*
X178252923Y-104282584D01*
X178262900Y-104227762D01*
X178295752Y-104190158D01*
X178355857Y-104167523D01*
X178447598Y-104157606D01*
X178498042Y-104156692D01*
X178498042Y-103968904D01*
X178480060Y-103969222D01*
X178392679Y-103971873D01*
X178328905Y-103975606D01*
X178283582Y-103980907D01*
X178251555Y-103988258D01*
X178227668Y-103998143D01*
X178206764Y-104011046D01*
X178198898Y-104016579D01*
X178124595Y-104089969D01*
X178082467Y-104182760D01*
X178070722Y-104290096D01*
X178082505Y-104383886D01*
G36*
X178022533Y-102343823D02*
G01*
X178044776Y-102375202D01*
X178072485Y-102402911D01*
X178381920Y-102402911D01*
X178473799Y-102402838D01*
X178545840Y-102402495D01*
X178600780Y-102401692D01*
X178641360Y-102400241D01*
X178670317Y-102397952D01*
X178690391Y-102394636D01*
X178704321Y-102390105D01*
X178714845Y-102384169D01*
X178721100Y-102379514D01*
X178745673Y-102348783D01*
X178748341Y-102313496D01*
X178733271Y-102281245D01*
X178724374Y-102270588D01*
X178712557Y-102263464D01*
X178693526Y-102259167D01*
X178662992Y-102256991D01*
X178616662Y-102256228D01*
X178580871Y-102256155D01*
X178446045Y-102256155D01*
X178446045Y-101759444D01*
X178568700Y-101759444D01*
X178624787Y-101758931D01*
X178663333Y-101756876D01*
X178689361Y-101752508D01*
X178707897Y-101745056D01*
X178721100Y-101736047D01*
X178745604Y-101705144D01*
X178748506Y-101670196D01*
X178731089Y-101636738D01*
X178721959Y-101627604D01*
X178709855Y-101621152D01*
X178691001Y-101616897D01*
X178661620Y-101614352D01*
X178617937Y-101613029D01*
X178556175Y-101612443D01*
X178542000Y-101612375D01*
X178425631Y-101611891D01*
X178329727Y-101611641D01*
X178252177Y-101611723D01*
X178190869Y-101612231D01*
X178143690Y-101613262D01*
X178108530Y-101614913D01*
X178083276Y-101617279D01*
X178065817Y-101620457D01*
X178054041Y-101624544D01*
X178045835Y-101629634D01*
X178039645Y-101635266D01*
X178019844Y-101667128D01*
X178022533Y-101700357D01*
X178044776Y-101731735D01*
X178059126Y-101744433D01*
X178074978Y-101752526D01*
X178097554Y-101757042D01*
X178132078Y-101759006D01*
X178183776Y-101759444D01*
X178299289Y-101759444D01*
X178299289Y-102256155D01*
X178180756Y-102256155D01*
X178126148Y-102256662D01*
X178089275Y-102258698D01*
X178065307Y-102263035D01*
X178049415Y-102270447D01*
X178039645Y-102278733D01*
X178019844Y-102310594D01*
X178022533Y-102343823D01*
G37*
X178022533Y-102343823D02*
X178044776Y-102375202D01*
X178072485Y-102402911D01*
X178381920Y-102402911D01*
X178473799Y-102402838D01*
X178545840Y-102402495D01*
X178600780Y-102401692D01*
X178641360Y-102400241D01*
X178670317Y-102397952D01*
X178690391Y-102394636D01*
X178704321Y-102390105D01*
X178714845Y-102384169D01*
X178721100Y-102379514D01*
X178745673Y-102348783D01*
X178748341Y-102313496D01*
X178733271Y-102281245D01*
X178724374Y-102270588D01*
X178712557Y-102263464D01*
X178693526Y-102259167D01*
X178662992Y-102256991D01*
X178616662Y-102256228D01*
X178580871Y-102256155D01*
X178446045Y-102256155D01*
X178446045Y-101759444D01*
X178568700Y-101759444D01*
X178624787Y-101758931D01*
X178663333Y-101756876D01*
X178689361Y-101752508D01*
X178707897Y-101745056D01*
X178721100Y-101736047D01*
X178745604Y-101705144D01*
X178748506Y-101670196D01*
X178731089Y-101636738D01*
X178721959Y-101627604D01*
X178709855Y-101621152D01*
X178691001Y-101616897D01*
X178661620Y-101614352D01*
X178617937Y-101613029D01*
X178556175Y-101612443D01*
X178542000Y-101612375D01*
X178425631Y-101611891D01*
X178329727Y-101611641D01*
X178252177Y-101611723D01*
X178190869Y-101612231D01*
X178143690Y-101613262D01*
X178108530Y-101614913D01*
X178083276Y-101617279D01*
X178065817Y-101620457D01*
X178054041Y-101624544D01*
X178045835Y-101629634D01*
X178039645Y-101635266D01*
X178019844Y-101667128D01*
X178022533Y-101700357D01*
X178044776Y-101731735D01*
X178059126Y-101744433D01*
X178074978Y-101752526D01*
X178097554Y-101757042D01*
X178132078Y-101759006D01*
X178183776Y-101759444D01*
X178299289Y-101759444D01*
X178299289Y-102256155D01*
X178180756Y-102256155D01*
X178126148Y-102256662D01*
X178089275Y-102258698D01*
X178065307Y-102263035D01*
X178049415Y-102270447D01*
X178039645Y-102278733D01*
X178019844Y-102310594D01*
X178022533Y-102343823D01*
G36*
X178017163Y-101078065D02*
G01*
X178017542Y-101156772D01*
X178018333Y-101217863D01*
X178019670Y-101263817D01*
X178021683Y-101297114D01*
X178024506Y-101320236D01*
X178028269Y-101335662D01*
X178033105Y-101345871D01*
X178036822Y-101350813D01*
X178069358Y-101376457D01*
X178103138Y-101379559D01*
X178133826Y-101363711D01*
X178146089Y-101353348D01*
X178154450Y-101342196D01*
X178159657Y-101326035D01*
X178162457Y-101300642D01*
X178163596Y-101261798D01*
X178163821Y-101205280D01*
X178163822Y-101194180D01*
X178163822Y-101048244D01*
X178434756Y-101048244D01*
X178520154Y-101048148D01*
X178585864Y-101047711D01*
X178634774Y-101046712D01*
X178669773Y-101044928D01*
X178693749Y-101042137D01*
X178709593Y-101038117D01*
X178720191Y-101032645D01*
X178728267Y-101025666D01*
X178748112Y-100992734D01*
X178746548Y-100958354D01*
X178723906Y-100927176D01*
X178721100Y-100924886D01*
X178710492Y-100917429D01*
X178698081Y-100911747D01*
X178680850Y-100907601D01*
X178655784Y-100904750D01*
X178619867Y-100902954D01*
X178570083Y-100901972D01*
X178503417Y-100901564D01*
X178427589Y-100901489D01*
X178163822Y-100901489D01*
X178163822Y-100762127D01*
X178163418Y-100702322D01*
X178161840Y-100660918D01*
X178158547Y-100633748D01*
X178152992Y-100616646D01*
X178144631Y-100605443D01*
X178143178Y-100604083D01*
X178109939Y-100587725D01*
X178072362Y-100589172D01*
X178039645Y-100607978D01*
X178033298Y-100615250D01*
X178028266Y-100624627D01*
X178024396Y-100638609D01*
X178021537Y-100659696D01*
X178019535Y-100690389D01*
X178018239Y-100733189D01*
X178017498Y-100790595D01*
X178017158Y-100865110D01*
X178017068Y-100959233D01*
X178017067Y-100979260D01*
X178017163Y-101078065D01*
G37*
X178017163Y-101078065D02*
X178017542Y-101156772D01*
X178018333Y-101217863D01*
X178019670Y-101263817D01*
X178021683Y-101297114D01*
X178024506Y-101320236D01*
X178028269Y-101335662D01*
X178033105Y-101345871D01*
X178036822Y-101350813D01*
X178069358Y-101376457D01*
X178103138Y-101379559D01*
X178133826Y-101363711D01*
X178146089Y-101353348D01*
X178154450Y-101342196D01*
X178159657Y-101326035D01*
X178162457Y-101300642D01*
X178163596Y-101261798D01*
X178163821Y-101205280D01*
X178163822Y-101194180D01*
X178163822Y-101048244D01*
X178434756Y-101048244D01*
X178520154Y-101048148D01*
X178585864Y-101047711D01*
X178634774Y-101046712D01*
X178669773Y-101044928D01*
X178693749Y-101042137D01*
X178709593Y-101038117D01*
X178720191Y-101032645D01*
X178728267Y-101025666D01*
X178748112Y-100992734D01*
X178746548Y-100958354D01*
X178723906Y-100927176D01*
X178721100Y-100924886D01*
X178710492Y-100917429D01*
X178698081Y-100911747D01*
X178680850Y-100907601D01*
X178655784Y-100904750D01*
X178619867Y-100902954D01*
X178570083Y-100901972D01*
X178503417Y-100901564D01*
X178427589Y-100901489D01*
X178163822Y-100901489D01*
X178163822Y-100762127D01*
X178163418Y-100702322D01*
X178161840Y-100660918D01*
X178158547Y-100633748D01*
X178152992Y-100616646D01*
X178144631Y-100605443D01*
X178143178Y-100604083D01*
X178109939Y-100587725D01*
X178072362Y-100589172D01*
X178039645Y-100607978D01*
X178033298Y-100615250D01*
X178028266Y-100624627D01*
X178024396Y-100638609D01*
X178021537Y-100659696D01*
X178019535Y-100690389D01*
X178018239Y-100733189D01*
X178017498Y-100790595D01*
X178017158Y-100865110D01*
X178017068Y-100959233D01*
X178017067Y-100979260D01*
X178017163Y-101078065D01*
G36*
X178023877Y-100303614D02*
G01*
X178038647Y-100327327D01*
X178060227Y-100353978D01*
X178381773Y-100353978D01*
X178475830Y-100353893D01*
X178549932Y-100353529D01*
X178606704Y-100352724D01*
X178648768Y-100351313D01*
X178678748Y-100349133D01*
X178699267Y-100346021D01*
X178712949Y-100341814D01*
X178722416Y-100336348D01*
X178727082Y-100332472D01*
X178747575Y-100301034D01*
X178746739Y-100265233D01*
X178729264Y-100233873D01*
X178707684Y-100207222D01*
X178060227Y-100207222D01*
X178038647Y-100233873D01*
X178022949Y-100259594D01*
X178017067Y-100280600D01*
X178023877Y-100303614D01*
G37*
X178023877Y-100303614D02*
X178038647Y-100327327D01*
X178060227Y-100353978D01*
X178381773Y-100353978D01*
X178475830Y-100353893D01*
X178549932Y-100353529D01*
X178606704Y-100352724D01*
X178648768Y-100351313D01*
X178678748Y-100349133D01*
X178699267Y-100346021D01*
X178712949Y-100341814D01*
X178722416Y-100336348D01*
X178727082Y-100332472D01*
X178747575Y-100301034D01*
X178746739Y-100265233D01*
X178729264Y-100233873D01*
X178707684Y-100207222D01*
X178060227Y-100207222D01*
X178038647Y-100233873D01*
X178022949Y-100259594D01*
X178017067Y-100280600D01*
X178023877Y-100303614D01*
G36*
X178019034Y-99859665D02*
G01*
X178026035Y-99879255D01*
X178026377Y-99880010D01*
X178046678Y-99906613D01*
X178067561Y-99921270D01*
X178077352Y-99924138D01*
X178090361Y-99923996D01*
X178108895Y-99919961D01*
X178135257Y-99911146D01*
X178171752Y-99896669D01*
X178220687Y-99875645D01*
X178284365Y-99847188D01*
X178365093Y-99810415D01*
X178409216Y-99790175D01*
X178487985Y-99753625D01*
X178560423Y-99719315D01*
X178623880Y-99688552D01*
X178675708Y-99662648D01*
X178713259Y-99642910D01*
X178733884Y-99630650D01*
X178736733Y-99628224D01*
X178749302Y-99597183D01*
X178747619Y-99562121D01*
X178732332Y-99534000D01*
X178731089Y-99532854D01*
X178714154Y-99521668D01*
X178681170Y-99502904D01*
X178636380Y-99478875D01*
X178584032Y-99451897D01*
X178564742Y-99442201D01*
X178418150Y-99369014D01*
X178577393Y-99289240D01*
X178632415Y-99260767D01*
X178680132Y-99234350D01*
X178716893Y-99212148D01*
X178739044Y-99196319D01*
X178743741Y-99190954D01*
X178750102Y-99149257D01*
X178736733Y-99114849D01*
X178722446Y-99104728D01*
X178690692Y-99087214D01*
X178644597Y-99063735D01*
X178587285Y-99035720D01*
X178521880Y-99004599D01*
X178451507Y-98971799D01*
X178379291Y-98938750D01*
X178308355Y-98906881D01*
X178241825Y-98877619D01*
X178182826Y-98852395D01*
X178134481Y-98832636D01*
X178099915Y-98819772D01*
X178082253Y-98815231D01*
X178081613Y-98815277D01*
X178059388Y-98826326D01*
X178036753Y-98848410D01*
X178035768Y-98849710D01*
X178020425Y-98876853D01*
X178020574Y-98901958D01*
X178023466Y-98911368D01*
X178029718Y-98922834D01*
X178042014Y-98935010D01*
X178062908Y-98949357D01*
X178094949Y-98967336D01*
X178140688Y-98990407D01*
X178202677Y-99020030D01*
X178259898Y-99046745D01*
X178326226Y-99077480D01*
X178385874Y-99105021D01*
X178435725Y-99127938D01*
X178472664Y-99144798D01*
X178493573Y-99154173D01*
X178496845Y-99155540D01*
X178491497Y-99161689D01*
X178469109Y-99175822D01*
X178432946Y-99196057D01*
X178386277Y-99220515D01*
X178367022Y-99230248D01*
X178302004Y-99263217D01*
X178254654Y-99288643D01*
X178222219Y-99308612D01*
X178201946Y-99325210D01*
X178191082Y-99340524D01*
X178186875Y-99356640D01*
X178186400Y-99367143D01*
X178188042Y-99385670D01*
X178194831Y-99401904D01*
X178209566Y-99418035D01*
X178235044Y-99436251D01*
X178274061Y-99458739D01*
X178329414Y-99487689D01*
X178360903Y-99503662D01*
X178411087Y-99529570D01*
X178452704Y-99552167D01*
X178482242Y-99569458D01*
X178496189Y-99579450D01*
X178496770Y-99580809D01*
X178485793Y-99587261D01*
X178457290Y-99601708D01*
X178414244Y-99622703D01*
X178359638Y-99648797D01*
X178296454Y-99678546D01*
X178265071Y-99693180D01*
X178184078Y-99731250D01*
X178121756Y-99761905D01*
X178076071Y-99786737D01*
X178044989Y-99807337D01*
X178026478Y-99825298D01*
X178018504Y-99842210D01*
X178019034Y-99859665D01*
G37*
X178019034Y-99859665D02*
X178026035Y-99879255D01*
X178026377Y-99880010D01*
X178046678Y-99906613D01*
X178067561Y-99921270D01*
X178077352Y-99924138D01*
X178090361Y-99923996D01*
X178108895Y-99919961D01*
X178135257Y-99911146D01*
X178171752Y-99896669D01*
X178220687Y-99875645D01*
X178284365Y-99847188D01*
X178365093Y-99810415D01*
X178409216Y-99790175D01*
X178487985Y-99753625D01*
X178560423Y-99719315D01*
X178623880Y-99688552D01*
X178675708Y-99662648D01*
X178713259Y-99642910D01*
X178733884Y-99630650D01*
X178736733Y-99628224D01*
X178749302Y-99597183D01*
X178747619Y-99562121D01*
X178732332Y-99534000D01*
X178731089Y-99532854D01*
X178714154Y-99521668D01*
X178681170Y-99502904D01*
X178636380Y-99478875D01*
X178584032Y-99451897D01*
X178564742Y-99442201D01*
X178418150Y-99369014D01*
X178577393Y-99289240D01*
X178632415Y-99260767D01*
X178680132Y-99234350D01*
X178716893Y-99212148D01*
X178739044Y-99196319D01*
X178743741Y-99190954D01*
X178750102Y-99149257D01*
X178736733Y-99114849D01*
X178722446Y-99104728D01*
X178690692Y-99087214D01*
X178644597Y-99063735D01*
X178587285Y-99035720D01*
X178521880Y-99004599D01*
X178451507Y-98971799D01*
X178379291Y-98938750D01*
X178308355Y-98906881D01*
X178241825Y-98877619D01*
X178182826Y-98852395D01*
X178134481Y-98832636D01*
X178099915Y-98819772D01*
X178082253Y-98815231D01*
X178081613Y-98815277D01*
X178059388Y-98826326D01*
X178036753Y-98848410D01*
X178035768Y-98849710D01*
X178020425Y-98876853D01*
X178020574Y-98901958D01*
X178023466Y-98911368D01*
X178029718Y-98922834D01*
X178042014Y-98935010D01*
X178062908Y-98949357D01*
X178094949Y-98967336D01*
X178140688Y-98990407D01*
X178202677Y-99020030D01*
X178259898Y-99046745D01*
X178326226Y-99077480D01*
X178385874Y-99105021D01*
X178435725Y-99127938D01*
X178472664Y-99144798D01*
X178493573Y-99154173D01*
X178496845Y-99155540D01*
X178491497Y-99161689D01*
X178469109Y-99175822D01*
X178432946Y-99196057D01*
X178386277Y-99220515D01*
X178367022Y-99230248D01*
X178302004Y-99263217D01*
X178254654Y-99288643D01*
X178222219Y-99308612D01*
X178201946Y-99325210D01*
X178191082Y-99340524D01*
X178186875Y-99356640D01*
X178186400Y-99367143D01*
X178188042Y-99385670D01*
X178194831Y-99401904D01*
X178209566Y-99418035D01*
X178235044Y-99436251D01*
X178274061Y-99458739D01*
X178329414Y-99487689D01*
X178360903Y-99503662D01*
X178411087Y-99529570D01*
X178452704Y-99552167D01*
X178482242Y-99569458D01*
X178496189Y-99579450D01*
X178496770Y-99580809D01*
X178485793Y-99587261D01*
X178457290Y-99601708D01*
X178414244Y-99622703D01*
X178359638Y-99648797D01*
X178296454Y-99678546D01*
X178265071Y-99693180D01*
X178184078Y-99731250D01*
X178121756Y-99761905D01*
X178076071Y-99786737D01*
X178044989Y-99807337D01*
X178026478Y-99825298D01*
X178018504Y-99842210D01*
X178019034Y-99859665D01*
G36*
X178017275Y-97133309D02*
G01*
X178021636Y-97262288D01*
X178034861Y-97371991D01*
X178057741Y-97464226D01*
X178091070Y-97540802D01*
X178135638Y-97603527D01*
X178192236Y-97654212D01*
X178261658Y-97694663D01*
X178263351Y-97695459D01*
X178325483Y-97719601D01*
X178380509Y-97728203D01*
X178435887Y-97721231D01*
X178499073Y-97698654D01*
X178508689Y-97694372D01*
X178564966Y-97665172D01*
X178608451Y-97632356D01*
X178645417Y-97590002D01*
X178682135Y-97532190D01*
X178684052Y-97528831D01*
X178708227Y-97478504D01*
X178726282Y-97421621D01*
X178738839Y-97354527D01*
X178746522Y-97273565D01*
X178749953Y-97175082D01*
X178750251Y-97140286D01*
X178750845Y-96974594D01*
X178721100Y-96951197D01*
X178711319Y-96944257D01*
X178699897Y-96938842D01*
X178684095Y-96934765D01*
X178661175Y-96931837D01*
X178628396Y-96929867D01*
X178604089Y-96929225D01*
X178604089Y-97085844D01*
X178604089Y-97179726D01*
X178602483Y-97234664D01*
X178598255Y-97291060D01*
X178592292Y-97337345D01*
X178591790Y-97340139D01*
X178569736Y-97422348D01*
X178536600Y-97486114D01*
X178490847Y-97533452D01*
X178430939Y-97566382D01*
X178415061Y-97572108D01*
X178390333Y-97577721D01*
X178365902Y-97575291D01*
X178333400Y-97563467D01*
X178317434Y-97556340D01*
X178275006Y-97533000D01*
X178245240Y-97504880D01*
X178224511Y-97473940D01*
X178197537Y-97411966D01*
X178177998Y-97332651D01*
X178166746Y-97240253D01*
X178164270Y-97173333D01*
X178163822Y-97085844D01*
X178604089Y-97085844D01*
X178604089Y-96929225D01*
X178583021Y-96928668D01*
X178522311Y-96928050D01*
X178443526Y-96927825D01*
X178381920Y-96927800D01*
X178072485Y-96927800D01*
X178044776Y-96955509D01*
X178033544Y-96967806D01*
X178025853Y-96981103D01*
X178021040Y-96999672D01*
X178018446Y-97027786D01*
X178017410Y-97069717D01*
X178017270Y-97129737D01*
X178017275Y-97133309D01*
G37*
X178017275Y-97133309D02*
X178021636Y-97262288D01*
X178034861Y-97371991D01*
X178057741Y-97464226D01*
X178091070Y-97540802D01*
X178135638Y-97603527D01*
X178192236Y-97654212D01*
X178261658Y-97694663D01*
X178263351Y-97695459D01*
X178325483Y-97719601D01*
X178380509Y-97728203D01*
X178435887Y-97721231D01*
X178499073Y-97698654D01*
X178508689Y-97694372D01*
X178564966Y-97665172D01*
X178608451Y-97632356D01*
X178645417Y-97590002D01*
X178682135Y-97532190D01*
X178684052Y-97528831D01*
X178708227Y-97478504D01*
X178726282Y-97421621D01*
X178738839Y-97354527D01*
X178746522Y-97273565D01*
X178749953Y-97175082D01*
X178750251Y-97140286D01*
X178750845Y-96974594D01*
X178721100Y-96951197D01*
X178711319Y-96944257D01*
X178699897Y-96938842D01*
X178684095Y-96934765D01*
X178661175Y-96931837D01*
X178628396Y-96929867D01*
X178604089Y-96929225D01*
X178604089Y-97085844D01*
X178604089Y-97179726D01*
X178602483Y-97234664D01*
X178598255Y-97291060D01*
X178592292Y-97337345D01*
X178591790Y-97340139D01*
X178569736Y-97422348D01*
X178536600Y-97486114D01*
X178490847Y-97533452D01*
X178430939Y-97566382D01*
X178415061Y-97572108D01*
X178390333Y-97577721D01*
X178365902Y-97575291D01*
X178333400Y-97563467D01*
X178317434Y-97556340D01*
X178275006Y-97533000D01*
X178245240Y-97504880D01*
X178224511Y-97473940D01*
X178197537Y-97411966D01*
X178177998Y-97332651D01*
X178166746Y-97240253D01*
X178164270Y-97173333D01*
X178163822Y-97085844D01*
X178604089Y-97085844D01*
X178604089Y-96929225D01*
X178583021Y-96928668D01*
X178522311Y-96928050D01*
X178443526Y-96927825D01*
X178381920Y-96927800D01*
X178072485Y-96927800D01*
X178044776Y-96955509D01*
X178033544Y-96967806D01*
X178025853Y-96981103D01*
X178021040Y-96999672D01*
X178018446Y-97027786D01*
X178017410Y-97069717D01*
X178017270Y-97129737D01*
X178017275Y-97133309D01*
G36*
X178017260Y-96345343D02*
G01*
X178018174Y-96421701D01*
X178020311Y-96480217D01*
X178024175Y-96523255D01*
X178030267Y-96553183D01*
X178039090Y-96572368D01*
X178051146Y-96583176D01*
X178066939Y-96587973D01*
X178086970Y-96589127D01*
X178089335Y-96589133D01*
X178111992Y-96588131D01*
X178129503Y-96583396D01*
X178142574Y-96572333D01*
X178151913Y-96552348D01*
X178158227Y-96520846D01*
X178162222Y-96475232D01*
X178164606Y-96412913D01*
X178166086Y-96331293D01*
X178166414Y-96306277D01*
X178169467Y-96064200D01*
X178234378Y-96060814D01*
X178299289Y-96057429D01*
X178299289Y-96225576D01*
X178299531Y-96291266D01*
X178300556Y-96338172D01*
X178302811Y-96370083D01*
X178306742Y-96390791D01*
X178312798Y-96404084D01*
X178321424Y-96413755D01*
X178321493Y-96413817D01*
X178355112Y-96431356D01*
X178391448Y-96430722D01*
X178422423Y-96412314D01*
X178425607Y-96408671D01*
X178433812Y-96395741D01*
X178439521Y-96378024D01*
X178443162Y-96351570D01*
X178445167Y-96312432D01*
X178445964Y-96256662D01*
X178446045Y-96220994D01*
X178446045Y-96058555D01*
X178604089Y-96058555D01*
X178604089Y-96305161D01*
X178604231Y-96386580D01*
X178604814Y-96448410D01*
X178606068Y-96493637D01*
X178608227Y-96525248D01*
X178611523Y-96546231D01*
X178616189Y-96559573D01*
X178622457Y-96568261D01*
X178624733Y-96570450D01*
X178656280Y-96586614D01*
X178692168Y-96587797D01*
X178723285Y-96574536D01*
X178733271Y-96564043D01*
X178738769Y-96553129D01*
X178743022Y-96536217D01*
X178746180Y-96510633D01*
X178748392Y-96473701D01*
X178749806Y-96422746D01*
X178750572Y-96355094D01*
X178750838Y-96268069D01*
X178750845Y-96248394D01*
X178750787Y-96159911D01*
X178750467Y-96091227D01*
X178749667Y-96039564D01*
X178748167Y-96002145D01*
X178745749Y-95976190D01*
X178742194Y-95958922D01*
X178737282Y-95947562D01*
X178730795Y-95939332D01*
X178726138Y-95934817D01*
X178717889Y-95928021D01*
X178707669Y-95922712D01*
X178692800Y-95918706D01*
X178670602Y-95915821D01*
X178638393Y-95913874D01*
X178593496Y-95912681D01*
X178533228Y-95912061D01*
X178454911Y-95911829D01*
X178388994Y-95911800D01*
X178296628Y-95911871D01*
X178224117Y-95912208D01*
X178168737Y-95912998D01*
X178127765Y-95914426D01*
X178098478Y-95916679D01*
X178078153Y-95919943D01*
X178064066Y-95924404D01*
X178053495Y-95930248D01*
X178046811Y-95935197D01*
X178017067Y-95958594D01*
X178017067Y-96248774D01*
X178017260Y-96345343D01*
G37*
X178017260Y-96345343D02*
X178018174Y-96421701D01*
X178020311Y-96480217D01*
X178024175Y-96523255D01*
X178030267Y-96553183D01*
X178039090Y-96572368D01*
X178051146Y-96583176D01*
X178066939Y-96587973D01*
X178086970Y-96589127D01*
X178089335Y-96589133D01*
X178111992Y-96588131D01*
X178129503Y-96583396D01*
X178142574Y-96572333D01*
X178151913Y-96552348D01*
X178158227Y-96520846D01*
X178162222Y-96475232D01*
X178164606Y-96412913D01*
X178166086Y-96331293D01*
X178166414Y-96306277D01*
X178169467Y-96064200D01*
X178234378Y-96060814D01*
X178299289Y-96057429D01*
X178299289Y-96225576D01*
X178299531Y-96291266D01*
X178300556Y-96338172D01*
X178302811Y-96370083D01*
X178306742Y-96390791D01*
X178312798Y-96404084D01*
X178321424Y-96413755D01*
X178321493Y-96413817D01*
X178355112Y-96431356D01*
X178391448Y-96430722D01*
X178422423Y-96412314D01*
X178425607Y-96408671D01*
X178433812Y-96395741D01*
X178439521Y-96378024D01*
X178443162Y-96351570D01*
X178445167Y-96312432D01*
X178445964Y-96256662D01*
X178446045Y-96220994D01*
X178446045Y-96058555D01*
X178604089Y-96058555D01*
X178604089Y-96305161D01*
X178604231Y-96386580D01*
X178604814Y-96448410D01*
X178606068Y-96493637D01*
X178608227Y-96525248D01*
X178611523Y-96546231D01*
X178616189Y-96559573D01*
X178622457Y-96568261D01*
X178624733Y-96570450D01*
X178656280Y-96586614D01*
X178692168Y-96587797D01*
X178723285Y-96574536D01*
X178733271Y-96564043D01*
X178738769Y-96553129D01*
X178743022Y-96536217D01*
X178746180Y-96510633D01*
X178748392Y-96473701D01*
X178749806Y-96422746D01*
X178750572Y-96355094D01*
X178750838Y-96268069D01*
X178750845Y-96248394D01*
X178750787Y-96159911D01*
X178750467Y-96091227D01*
X178749667Y-96039564D01*
X178748167Y-96002145D01*
X178745749Y-95976190D01*
X178742194Y-95958922D01*
X178737282Y-95947562D01*
X178730795Y-95939332D01*
X178726138Y-95934817D01*
X178717889Y-95928021D01*
X178707669Y-95922712D01*
X178692800Y-95918706D01*
X178670602Y-95915821D01*
X178638393Y-95913874D01*
X178593496Y-95912681D01*
X178533228Y-95912061D01*
X178454911Y-95911829D01*
X178388994Y-95911800D01*
X178296628Y-95911871D01*
X178224117Y-95912208D01*
X178168737Y-95912998D01*
X178127765Y-95914426D01*
X178098478Y-95916679D01*
X178078153Y-95919943D01*
X178064066Y-95924404D01*
X178053495Y-95930248D01*
X178046811Y-95935197D01*
X178017067Y-95958594D01*
X178017067Y-96248774D01*
X178017260Y-96345343D01*
G36*
X178021448Y-94814886D02*
G01*
X178035273Y-94838452D01*
X178057881Y-94869265D01*
X178090338Y-94908922D01*
X178133708Y-94959020D01*
X178189058Y-95021157D01*
X178257451Y-95096928D01*
X178336084Y-95183666D01*
X178499878Y-95364289D01*
X178280029Y-95369933D01*
X178204351Y-95371971D01*
X178147994Y-95373937D01*
X178107706Y-95376266D01*
X178080235Y-95379394D01*
X178062329Y-95383755D01*
X178050737Y-95389784D01*
X178042208Y-95397916D01*
X178038623Y-95402228D01*
X178019670Y-95436759D01*
X178022441Y-95469617D01*
X178038633Y-95495682D01*
X178060199Y-95522333D01*
X178375151Y-95525648D01*
X178467779Y-95526565D01*
X178540544Y-95527032D01*
X178596161Y-95526887D01*
X178637342Y-95525968D01*
X178666803Y-95524113D01*
X178687255Y-95521161D01*
X178701413Y-95516950D01*
X178711991Y-95511318D01*
X178720474Y-95505073D01*
X178736207Y-95491561D01*
X178746636Y-95478117D01*
X178750639Y-95462876D01*
X178747094Y-95443974D01*
X178734879Y-95419545D01*
X178712871Y-95387727D01*
X178679949Y-95346652D01*
X178634991Y-95294458D01*
X178576875Y-95229278D01*
X178510099Y-95155444D01*
X178269458Y-94890155D01*
X178488589Y-94884511D01*
X178564128Y-94882469D01*
X178620354Y-94880498D01*
X178660524Y-94878161D01*
X178687896Y-94875019D01*
X178705728Y-94870636D01*
X178717279Y-94864576D01*
X178725807Y-94856400D01*
X178729282Y-94852216D01*
X178748372Y-94815235D01*
X178745493Y-94780292D01*
X178721100Y-94749864D01*
X178711286Y-94742903D01*
X178699826Y-94737477D01*
X178683968Y-94733397D01*
X178660963Y-94730471D01*
X178628062Y-94728508D01*
X178582516Y-94727317D01*
X178521573Y-94726708D01*
X178442486Y-94726489D01*
X178383956Y-94726466D01*
X178292407Y-94726540D01*
X178220687Y-94726887D01*
X178166045Y-94727699D01*
X178125732Y-94729167D01*
X178096998Y-94731481D01*
X178077093Y-94734833D01*
X178063268Y-94739412D01*
X178052772Y-94745411D01*
X178046811Y-94749864D01*
X178032691Y-94761150D01*
X178022029Y-94771699D01*
X178015892Y-94783107D01*
X178015343Y-94796970D01*
X178021448Y-94814886D01*
G37*
X178021448Y-94814886D02*
X178035273Y-94838452D01*
X178057881Y-94869265D01*
X178090338Y-94908922D01*
X178133708Y-94959020D01*
X178189058Y-95021157D01*
X178257451Y-95096928D01*
X178336084Y-95183666D01*
X178499878Y-95364289D01*
X178280029Y-95369933D01*
X178204351Y-95371971D01*
X178147994Y-95373937D01*
X178107706Y-95376266D01*
X178080235Y-95379394D01*
X178062329Y-95383755D01*
X178050737Y-95389784D01*
X178042208Y-95397916D01*
X178038623Y-95402228D01*
X178019670Y-95436759D01*
X178022441Y-95469617D01*
X178038633Y-95495682D01*
X178060199Y-95522333D01*
X178375151Y-95525648D01*
X178467779Y-95526565D01*
X178540544Y-95527032D01*
X178596161Y-95526887D01*
X178637342Y-95525968D01*
X178666803Y-95524113D01*
X178687255Y-95521161D01*
X178701413Y-95516950D01*
X178711991Y-95511318D01*
X178720474Y-95505073D01*
X178736207Y-95491561D01*
X178746636Y-95478117D01*
X178750639Y-95462876D01*
X178747094Y-95443974D01*
X178734879Y-95419545D01*
X178712871Y-95387727D01*
X178679949Y-95346652D01*
X178634991Y-95294458D01*
X178576875Y-95229278D01*
X178510099Y-95155444D01*
X178269458Y-94890155D01*
X178488589Y-94884511D01*
X178564128Y-94882469D01*
X178620354Y-94880498D01*
X178660524Y-94878161D01*
X178687896Y-94875019D01*
X178705728Y-94870636D01*
X178717279Y-94864576D01*
X178725807Y-94856400D01*
X178729282Y-94852216D01*
X178748372Y-94815235D01*
X178745493Y-94780292D01*
X178721100Y-94749864D01*
X178711286Y-94742903D01*
X178699826Y-94737477D01*
X178683968Y-94733397D01*
X178660963Y-94730471D01*
X178628062Y-94728508D01*
X178582516Y-94727317D01*
X178521573Y-94726708D01*
X178442486Y-94726489D01*
X178383956Y-94726466D01*
X178292407Y-94726540D01*
X178220687Y-94726887D01*
X178166045Y-94727699D01*
X178125732Y-94729167D01*
X178096998Y-94731481D01*
X178077093Y-94734833D01*
X178063268Y-94739412D01*
X178052772Y-94745411D01*
X178046811Y-94749864D01*
X178032691Y-94761150D01*
X178022029Y-94771699D01*
X178015892Y-94783107D01*
X178015343Y-94796970D01*
X178021448Y-94814886D01*
G36*
X178022599Y-94164919D02*
G01*
X178034095Y-94233435D01*
X178051967Y-94286057D01*
X178075499Y-94320292D01*
X178088924Y-94329621D01*
X178120148Y-94339107D01*
X178148395Y-94332723D01*
X178175182Y-94312570D01*
X178187713Y-94281255D01*
X178186696Y-94235817D01*
X178179906Y-94200674D01*
X178166971Y-94122581D01*
X178165742Y-94042774D01*
X178176241Y-93953445D01*
X178180690Y-93928771D01*
X178204108Y-93845709D01*
X178238945Y-93780727D01*
X178284604Y-93734539D01*
X178340494Y-93707855D01*
X178369388Y-93702337D01*
X178428012Y-93705949D01*
X178479879Y-93729271D01*
X178523978Y-93770176D01*
X178559299Y-93826541D01*
X178584829Y-93896240D01*
X178599559Y-93977148D01*
X178602478Y-94067140D01*
X178592575Y-94164090D01*
X178591641Y-94169564D01*
X178584459Y-94208125D01*
X178577521Y-94229506D01*
X178567227Y-94238773D01*
X178549976Y-94240994D01*
X178540841Y-94241044D01*
X178502489Y-94241044D01*
X178502489Y-94172569D01*
X178498347Y-94112100D01*
X178485147Y-94070835D01*
X178461730Y-94046825D01*
X178426936Y-94038123D01*
X178422394Y-94038017D01*
X178392654Y-94043108D01*
X178371419Y-94060567D01*
X178357366Y-94093061D01*
X178349173Y-94143257D01*
X178346161Y-94191877D01*
X178344433Y-94262544D01*
X178347070Y-94313802D01*
X178356800Y-94348761D01*
X178376353Y-94370530D01*
X178408456Y-94382220D01*
X178455838Y-94386940D01*
X178518071Y-94387800D01*
X178587535Y-94386391D01*
X178634786Y-94382152D01*
X178660012Y-94375064D01*
X178661988Y-94373689D01*
X178693508Y-94334772D01*
X178718470Y-94277714D01*
X178736340Y-94206131D01*
X178746586Y-94123642D01*
X178748673Y-94033861D01*
X178742068Y-93940408D01*
X178733956Y-93885444D01*
X178709554Y-93799234D01*
X178669662Y-93719108D01*
X178617887Y-93652023D01*
X178607539Y-93641827D01*
X178564035Y-93608698D01*
X178510118Y-93578806D01*
X178453592Y-93555643D01*
X178402259Y-93542702D01*
X178382544Y-93541142D01*
X178341419Y-93547782D01*
X178290252Y-93565432D01*
X178236394Y-93590703D01*
X178187195Y-93620211D01*
X178154334Y-93646281D01*
X178105452Y-93707235D01*
X178066545Y-93786031D01*
X178038494Y-93879843D01*
X178022179Y-93985850D01*
X178018192Y-94083000D01*
X178022599Y-94164919D01*
G37*
X178022599Y-94164919D02*
X178034095Y-94233435D01*
X178051967Y-94286057D01*
X178075499Y-94320292D01*
X178088924Y-94329621D01*
X178120148Y-94339107D01*
X178148395Y-94332723D01*
X178175182Y-94312570D01*
X178187713Y-94281255D01*
X178186696Y-94235817D01*
X178179906Y-94200674D01*
X178166971Y-94122581D01*
X178165742Y-94042774D01*
X178176241Y-93953445D01*
X178180690Y-93928771D01*
X178204108Y-93845709D01*
X178238945Y-93780727D01*
X178284604Y-93734539D01*
X178340494Y-93707855D01*
X178369388Y-93702337D01*
X178428012Y-93705949D01*
X178479879Y-93729271D01*
X178523978Y-93770176D01*
X178559299Y-93826541D01*
X178584829Y-93896240D01*
X178599559Y-93977148D01*
X178602478Y-94067140D01*
X178592575Y-94164090D01*
X178591641Y-94169564D01*
X178584459Y-94208125D01*
X178577521Y-94229506D01*
X178567227Y-94238773D01*
X178549976Y-94240994D01*
X178540841Y-94241044D01*
X178502489Y-94241044D01*
X178502489Y-94172569D01*
X178498347Y-94112100D01*
X178485147Y-94070835D01*
X178461730Y-94046825D01*
X178426936Y-94038123D01*
X178422394Y-94038017D01*
X178392654Y-94043108D01*
X178371419Y-94060567D01*
X178357366Y-94093061D01*
X178349173Y-94143257D01*
X178346161Y-94191877D01*
X178344433Y-94262544D01*
X178347070Y-94313802D01*
X178356800Y-94348761D01*
X178376353Y-94370530D01*
X178408456Y-94382220D01*
X178455838Y-94386940D01*
X178518071Y-94387800D01*
X178587535Y-94386391D01*
X178634786Y-94382152D01*
X178660012Y-94375064D01*
X178661988Y-94373689D01*
X178693508Y-94334772D01*
X178718470Y-94277714D01*
X178736340Y-94206131D01*
X178746586Y-94123642D01*
X178748673Y-94033861D01*
X178742068Y-93940408D01*
X178733956Y-93885444D01*
X178709554Y-93799234D01*
X178669662Y-93719108D01*
X178617887Y-93652023D01*
X178607539Y-93641827D01*
X178564035Y-93608698D01*
X178510118Y-93578806D01*
X178453592Y-93555643D01*
X178402259Y-93542702D01*
X178382544Y-93541142D01*
X178341419Y-93547782D01*
X178290252Y-93565432D01*
X178236394Y-93590703D01*
X178187195Y-93620211D01*
X178154334Y-93646281D01*
X178105452Y-93707235D01*
X178066545Y-93786031D01*
X178038494Y-93879843D01*
X178022179Y-93985850D01*
X178018192Y-94083000D01*
X178022599Y-94164919D01*
G36*
X178039645Y-93191178D02*
G01*
X178047218Y-93197758D01*
X178056987Y-93202921D01*
X178071571Y-93206836D01*
X178093585Y-93209676D01*
X178125648Y-93211613D01*
X178170375Y-93212817D01*
X178230385Y-93213461D01*
X178308294Y-93213716D01*
X178383956Y-93213755D01*
X178477802Y-93213686D01*
X178551689Y-93213362D01*
X178608232Y-93212614D01*
X178650049Y-93211268D01*
X178679757Y-93209154D01*
X178699973Y-93206100D01*
X178713314Y-93201934D01*
X178722398Y-93196484D01*
X178728267Y-93191178D01*
X178747947Y-93158174D01*
X178746181Y-93123009D01*
X178724717Y-93091545D01*
X178716337Y-93084316D01*
X178706614Y-93078666D01*
X178692861Y-93074401D01*
X178672389Y-93071327D01*
X178642512Y-93069248D01*
X178600541Y-93067970D01*
X178543789Y-93067299D01*
X178469567Y-93067041D01*
X178385537Y-93067000D01*
X178072485Y-93067000D01*
X178044776Y-93094709D01*
X178021463Y-93128863D01*
X178020623Y-93161994D01*
X178039645Y-93191178D01*
G37*
X178039645Y-93191178D02*
X178047218Y-93197758D01*
X178056987Y-93202921D01*
X178071571Y-93206836D01*
X178093585Y-93209676D01*
X178125648Y-93211613D01*
X178170375Y-93212817D01*
X178230385Y-93213461D01*
X178308294Y-93213716D01*
X178383956Y-93213755D01*
X178477802Y-93213686D01*
X178551689Y-93213362D01*
X178608232Y-93212614D01*
X178650049Y-93211268D01*
X178679757Y-93209154D01*
X178699973Y-93206100D01*
X178713314Y-93201934D01*
X178722398Y-93196484D01*
X178728267Y-93191178D01*
X178747947Y-93158174D01*
X178746181Y-93123009D01*
X178724717Y-93091545D01*
X178716337Y-93084316D01*
X178706614Y-93078666D01*
X178692861Y-93074401D01*
X178672389Y-93071327D01*
X178642512Y-93069248D01*
X178600541Y-93067970D01*
X178543789Y-93067299D01*
X178469567Y-93067041D01*
X178385537Y-93067000D01*
X178072485Y-93067000D01*
X178044776Y-93094709D01*
X178021463Y-93128863D01*
X178020623Y-93161994D01*
X178039645Y-93191178D01*
G36*
X178018351Y-92423297D02*
G01*
X178023581Y-92498112D01*
X178031750Y-92567694D01*
X178042550Y-92627998D01*
X178055673Y-92674980D01*
X178070813Y-92704594D01*
X178075269Y-92709140D01*
X178109850Y-92724946D01*
X178145351Y-92720153D01*
X178175725Y-92695636D01*
X178176596Y-92694466D01*
X178185954Y-92680046D01*
X178190876Y-92664992D01*
X178191473Y-92643995D01*
X178187861Y-92611743D01*
X178180154Y-92562927D01*
X178179505Y-92559000D01*
X178170569Y-92486261D01*
X178166161Y-92407783D01*
X178166119Y-92329073D01*
X178170279Y-92255639D01*
X178178479Y-92192989D01*
X178190557Y-92146630D01*
X178191771Y-92143584D01*
X178210615Y-92109952D01*
X178229685Y-92098136D01*
X178248439Y-92107386D01*
X178266337Y-92136953D01*
X178282837Y-92186089D01*
X178297396Y-92254043D01*
X178304406Y-92299355D01*
X178317889Y-92393544D01*
X178330214Y-92468456D01*
X178342449Y-92527283D01*
X178355661Y-92573215D01*
X178370917Y-92609445D01*
X178389285Y-92639162D01*
X178411831Y-92665558D01*
X178433971Y-92686770D01*
X178464819Y-92711935D01*
X178491345Y-92724319D01*
X178524026Y-92728192D01*
X178535995Y-92728333D01*
X178575712Y-92725424D01*
X178605259Y-92713798D01*
X178631486Y-92693677D01*
X178671576Y-92652784D01*
X178702149Y-92607183D01*
X178724203Y-92553487D01*
X178738735Y-92488308D01*
X178746741Y-92408256D01*
X178749218Y-92309943D01*
X178749177Y-92293711D01*
X178747818Y-92228151D01*
X178744730Y-92163134D01*
X178740356Y-92105748D01*
X178735140Y-92063078D01*
X178734541Y-92059628D01*
X178724491Y-92017204D01*
X178711796Y-91981220D01*
X178700190Y-91960850D01*
X178669572Y-91941893D01*
X178633918Y-91940573D01*
X178602144Y-91956915D01*
X178598551Y-91960571D01*
X178587876Y-91975685D01*
X178583276Y-91994585D01*
X178584059Y-92023838D01*
X178588127Y-92059349D01*
X178591762Y-92099030D01*
X178594828Y-92154655D01*
X178597053Y-92219594D01*
X178598164Y-92287215D01*
X178598237Y-92305000D01*
X178597964Y-92372872D01*
X178596646Y-92422546D01*
X178593827Y-92458390D01*
X178589050Y-92484776D01*
X178581857Y-92506074D01*
X178575867Y-92518874D01*
X178559233Y-92547000D01*
X178544168Y-92564932D01*
X178539897Y-92567553D01*
X178522263Y-92562024D01*
X178505192Y-92535740D01*
X178489458Y-92490522D01*
X178475838Y-92428192D01*
X178472804Y-92409829D01*
X178457738Y-92313910D01*
X178445146Y-92237359D01*
X178434111Y-92177220D01*
X178423720Y-92130540D01*
X178413056Y-92094363D01*
X178401205Y-92065735D01*
X178387251Y-92041702D01*
X178370281Y-92019308D01*
X178349378Y-91995598D01*
X178342049Y-91987620D01*
X178314699Y-91959647D01*
X178293029Y-91944840D01*
X178268232Y-91939048D01*
X178236983Y-91938111D01*
X178175705Y-91948425D01*
X178123640Y-91979248D01*
X178080958Y-92030405D01*
X178047825Y-92101717D01*
X178032964Y-92152600D01*
X178023366Y-92207900D01*
X178017936Y-92274147D01*
X178016367Y-92347294D01*
X178018351Y-92423297D01*
G37*
X178018351Y-92423297D02*
X178023581Y-92498112D01*
X178031750Y-92567694D01*
X178042550Y-92627998D01*
X178055673Y-92674980D01*
X178070813Y-92704594D01*
X178075269Y-92709140D01*
X178109850Y-92724946D01*
X178145351Y-92720153D01*
X178175725Y-92695636D01*
X178176596Y-92694466D01*
X178185954Y-92680046D01*
X178190876Y-92664992D01*
X178191473Y-92643995D01*
X178187861Y-92611743D01*
X178180154Y-92562927D01*
X178179505Y-92559000D01*
X178170569Y-92486261D01*
X178166161Y-92407783D01*
X178166119Y-92329073D01*
X178170279Y-92255639D01*
X178178479Y-92192989D01*
X178190557Y-92146630D01*
X178191771Y-92143584D01*
X178210615Y-92109952D01*
X178229685Y-92098136D01*
X178248439Y-92107386D01*
X178266337Y-92136953D01*
X178282837Y-92186089D01*
X178297396Y-92254043D01*
X178304406Y-92299355D01*
X178317889Y-92393544D01*
X178330214Y-92468456D01*
X178342449Y-92527283D01*
X178355661Y-92573215D01*
X178370917Y-92609445D01*
X178389285Y-92639162D01*
X178411831Y-92665558D01*
X178433971Y-92686770D01*
X178464819Y-92711935D01*
X178491345Y-92724319D01*
X178524026Y-92728192D01*
X178535995Y-92728333D01*
X178575712Y-92725424D01*
X178605259Y-92713798D01*
X178631486Y-92693677D01*
X178671576Y-92652784D01*
X178702149Y-92607183D01*
X178724203Y-92553487D01*
X178738735Y-92488308D01*
X178746741Y-92408256D01*
X178749218Y-92309943D01*
X178749177Y-92293711D01*
X178747818Y-92228151D01*
X178744730Y-92163134D01*
X178740356Y-92105748D01*
X178735140Y-92063078D01*
X178734541Y-92059628D01*
X178724491Y-92017204D01*
X178711796Y-91981220D01*
X178700190Y-91960850D01*
X178669572Y-91941893D01*
X178633918Y-91940573D01*
X178602144Y-91956915D01*
X178598551Y-91960571D01*
X178587876Y-91975685D01*
X178583276Y-91994585D01*
X178584059Y-92023838D01*
X178588127Y-92059349D01*
X178591762Y-92099030D01*
X178594828Y-92154655D01*
X178597053Y-92219594D01*
X178598164Y-92287215D01*
X178598237Y-92305000D01*
X178597964Y-92372872D01*
X178596646Y-92422546D01*
X178593827Y-92458390D01*
X178589050Y-92484776D01*
X178581857Y-92506074D01*
X178575867Y-92518874D01*
X178559233Y-92547000D01*
X178544168Y-92564932D01*
X178539897Y-92567553D01*
X178522263Y-92562024D01*
X178505192Y-92535740D01*
X178489458Y-92490522D01*
X178475838Y-92428192D01*
X178472804Y-92409829D01*
X178457738Y-92313910D01*
X178445146Y-92237359D01*
X178434111Y-92177220D01*
X178423720Y-92130540D01*
X178413056Y-92094363D01*
X178401205Y-92065735D01*
X178387251Y-92041702D01*
X178370281Y-92019308D01*
X178349378Y-91995598D01*
X178342049Y-91987620D01*
X178314699Y-91959647D01*
X178293029Y-91944840D01*
X178268232Y-91939048D01*
X178236983Y-91938111D01*
X178175705Y-91948425D01*
X178123640Y-91979248D01*
X178080958Y-92030405D01*
X178047825Y-92101717D01*
X178032964Y-92152600D01*
X178023366Y-92207900D01*
X178017936Y-92274147D01*
X178016367Y-92347294D01*
X178018351Y-92423297D01*
G36*
X178017146Y-91402206D02*
G01*
X178017518Y-91471614D01*
X178018385Y-91524003D01*
X178019946Y-91562153D01*
X178022403Y-91588841D01*
X178025957Y-91606847D01*
X178030810Y-91618951D01*
X178037161Y-91627931D01*
X178040084Y-91631182D01*
X178071142Y-91650957D01*
X178106828Y-91654518D01*
X178138510Y-91641509D01*
X178144913Y-91635494D01*
X178151121Y-91625765D01*
X178155910Y-91610099D01*
X178159514Y-91585592D01*
X178162164Y-91549339D01*
X178164095Y-91498435D01*
X178165539Y-91429974D01*
X178166418Y-91367383D01*
X178169467Y-91119666D01*
X178234378Y-91116281D01*
X178299289Y-91112895D01*
X178299289Y-91281042D01*
X178299919Y-91354041D01*
X178302553Y-91407483D01*
X178308309Y-91444372D01*
X178318304Y-91467712D01*
X178333656Y-91480506D01*
X178355482Y-91485758D01*
X178375738Y-91486555D01*
X178400592Y-91484077D01*
X178418906Y-91474723D01*
X178431637Y-91455617D01*
X178439741Y-91423882D01*
X178444176Y-91376641D01*
X178445899Y-91311017D01*
X178446045Y-91275199D01*
X178446045Y-91114022D01*
X178604089Y-91114022D01*
X178604089Y-91362378D01*
X178604202Y-91443787D01*
X178604712Y-91505658D01*
X178605870Y-91551032D01*
X178607930Y-91582946D01*
X178611146Y-91604441D01*
X178615772Y-91618557D01*
X178622059Y-91628332D01*
X178626667Y-91633311D01*
X178653560Y-91650390D01*
X178677467Y-91655889D01*
X178706667Y-91648037D01*
X178728267Y-91633311D01*
X178735066Y-91625454D01*
X178740346Y-91615312D01*
X178744298Y-91600156D01*
X178747113Y-91577259D01*
X178748982Y-91543891D01*
X178750098Y-91497325D01*
X178750651Y-91434833D01*
X178750833Y-91353686D01*
X178750845Y-91311578D01*
X178750765Y-91221402D01*
X178750398Y-91151076D01*
X178749552Y-91097871D01*
X178748036Y-91059060D01*
X178745659Y-91031913D01*
X178742229Y-91013702D01*
X178737554Y-91001700D01*
X178731444Y-90993178D01*
X178728267Y-90989844D01*
X178720670Y-90983245D01*
X178710870Y-90978073D01*
X178696239Y-90974154D01*
X178674152Y-90971316D01*
X178641982Y-90969385D01*
X178597103Y-90968188D01*
X178536889Y-90967552D01*
X178458713Y-90967303D01*
X178385923Y-90967266D01*
X178292707Y-90967300D01*
X178219431Y-90967535D01*
X178163458Y-90968170D01*
X178122151Y-90969406D01*
X178092872Y-90971444D01*
X178072984Y-90974483D01*
X178059850Y-90978723D01*
X178050832Y-90984365D01*
X178043293Y-90991609D01*
X178041612Y-90993394D01*
X178034172Y-91002055D01*
X178028409Y-91012118D01*
X178024112Y-91026375D01*
X178021064Y-91047617D01*
X178019051Y-91078636D01*
X178017860Y-91122223D01*
X178017275Y-91181169D01*
X178017083Y-91258266D01*
X178017067Y-91312999D01*
X178017146Y-91402206D01*
G37*
X178017146Y-91402206D02*
X178017518Y-91471614D01*
X178018385Y-91524003D01*
X178019946Y-91562153D01*
X178022403Y-91588841D01*
X178025957Y-91606847D01*
X178030810Y-91618951D01*
X178037161Y-91627931D01*
X178040084Y-91631182D01*
X178071142Y-91650957D01*
X178106828Y-91654518D01*
X178138510Y-91641509D01*
X178144913Y-91635494D01*
X178151121Y-91625765D01*
X178155910Y-91610099D01*
X178159514Y-91585592D01*
X178162164Y-91549339D01*
X178164095Y-91498435D01*
X178165539Y-91429974D01*
X178166418Y-91367383D01*
X178169467Y-91119666D01*
X178234378Y-91116281D01*
X178299289Y-91112895D01*
X178299289Y-91281042D01*
X178299919Y-91354041D01*
X178302553Y-91407483D01*
X178308309Y-91444372D01*
X178318304Y-91467712D01*
X178333656Y-91480506D01*
X178355482Y-91485758D01*
X178375738Y-91486555D01*
X178400592Y-91484077D01*
X178418906Y-91474723D01*
X178431637Y-91455617D01*
X178439741Y-91423882D01*
X178444176Y-91376641D01*
X178445899Y-91311017D01*
X178446045Y-91275199D01*
X178446045Y-91114022D01*
X178604089Y-91114022D01*
X178604089Y-91362378D01*
X178604202Y-91443787D01*
X178604712Y-91505658D01*
X178605870Y-91551032D01*
X178607930Y-91582946D01*
X178611146Y-91604441D01*
X178615772Y-91618557D01*
X178622059Y-91628332D01*
X178626667Y-91633311D01*
X178653560Y-91650390D01*
X178677467Y-91655889D01*
X178706667Y-91648037D01*
X178728267Y-91633311D01*
X178735066Y-91625454D01*
X178740346Y-91615312D01*
X178744298Y-91600156D01*
X178747113Y-91577259D01*
X178748982Y-91543891D01*
X178750098Y-91497325D01*
X178750651Y-91434833D01*
X178750833Y-91353686D01*
X178750845Y-91311578D01*
X178750765Y-91221402D01*
X178750398Y-91151076D01*
X178749552Y-91097871D01*
X178748036Y-91059060D01*
X178745659Y-91031913D01*
X178742229Y-91013702D01*
X178737554Y-91001700D01*
X178731444Y-90993178D01*
X178728267Y-90989844D01*
X178720670Y-90983245D01*
X178710870Y-90978073D01*
X178696239Y-90974154D01*
X178674152Y-90971316D01*
X178641982Y-90969385D01*
X178597103Y-90968188D01*
X178536889Y-90967552D01*
X178458713Y-90967303D01*
X178385923Y-90967266D01*
X178292707Y-90967300D01*
X178219431Y-90967535D01*
X178163458Y-90968170D01*
X178122151Y-90969406D01*
X178092872Y-90971444D01*
X178072984Y-90974483D01*
X178059850Y-90978723D01*
X178050832Y-90984365D01*
X178043293Y-90991609D01*
X178041612Y-90993394D01*
X178034172Y-91002055D01*
X178028409Y-91012118D01*
X178024112Y-91026375D01*
X178021064Y-91047617D01*
X178019051Y-91078636D01*
X178017860Y-91122223D01*
X178017275Y-91181169D01*
X178017083Y-91258266D01*
X178017067Y-91312999D01*
X178017146Y-91402206D01*
G36*
X178017066Y-89993629D02*
G01*
X178017467Y-90033111D01*
X178020259Y-90148800D01*
X178028550Y-90245689D01*
X178043232Y-90327081D01*
X178065193Y-90396277D01*
X178095322Y-90456580D01*
X178134510Y-90511292D01*
X178151532Y-90530833D01*
X178191363Y-90563250D01*
X178245413Y-90592480D01*
X178305323Y-90615009D01*
X178362739Y-90627321D01*
X178383956Y-90628600D01*
X178442769Y-90620583D01*
X178507013Y-90599101D01*
X178567821Y-90568001D01*
X178616330Y-90531134D01*
X178622182Y-90525146D01*
X178663321Y-90474421D01*
X178695435Y-90418875D01*
X178719365Y-90355304D01*
X178735953Y-90280506D01*
X178746041Y-90191278D01*
X178750469Y-90084418D01*
X178750845Y-90035472D01*
X178750545Y-89973238D01*
X178749292Y-89929472D01*
X178746554Y-89900069D01*
X178741801Y-89880921D01*
X178734501Y-89867923D01*
X178728267Y-89860955D01*
X178720694Y-89854374D01*
X178710924Y-89849212D01*
X178696340Y-89845297D01*
X178674326Y-89842457D01*
X178642264Y-89840520D01*
X178597536Y-89839316D01*
X178537526Y-89838672D01*
X178459617Y-89838417D01*
X178383956Y-89838378D01*
X178283041Y-89838130D01*
X178202427Y-89838183D01*
X178163822Y-89839143D01*
X178163822Y-89985133D01*
X178604089Y-89985133D01*
X178604004Y-90078266D01*
X178602396Y-90134307D01*
X178598256Y-90193001D01*
X178592464Y-90241972D01*
X178592226Y-90243462D01*
X178573090Y-90322608D01*
X178543287Y-90383998D01*
X178500878Y-90430695D01*
X178454961Y-90460365D01*
X178404026Y-90478647D01*
X178356200Y-90477229D01*
X178304933Y-90456012D01*
X178251899Y-90414511D01*
X178212600Y-90357002D01*
X178186331Y-90282250D01*
X178177035Y-90232292D01*
X178170507Y-90175584D01*
X178165782Y-90115481D01*
X178163817Y-90064361D01*
X178163808Y-90061333D01*
X178163822Y-89985133D01*
X178163822Y-89839143D01*
X178139851Y-89839740D01*
X178093055Y-89844002D01*
X178059778Y-89852170D01*
X178037759Y-89865444D01*
X178024739Y-89885026D01*
X178018457Y-89912117D01*
X178016653Y-89947918D01*
X178017066Y-89993629D01*
G37*
X178017066Y-89993629D02*
X178017467Y-90033111D01*
X178020259Y-90148800D01*
X178028550Y-90245689D01*
X178043232Y-90327081D01*
X178065193Y-90396277D01*
X178095322Y-90456580D01*
X178134510Y-90511292D01*
X178151532Y-90530833D01*
X178191363Y-90563250D01*
X178245413Y-90592480D01*
X178305323Y-90615009D01*
X178362739Y-90627321D01*
X178383956Y-90628600D01*
X178442769Y-90620583D01*
X178507013Y-90599101D01*
X178567821Y-90568001D01*
X178616330Y-90531134D01*
X178622182Y-90525146D01*
X178663321Y-90474421D01*
X178695435Y-90418875D01*
X178719365Y-90355304D01*
X178735953Y-90280506D01*
X178746041Y-90191278D01*
X178750469Y-90084418D01*
X178750845Y-90035472D01*
X178750545Y-89973238D01*
X178749292Y-89929472D01*
X178746554Y-89900069D01*
X178741801Y-89880921D01*
X178734501Y-89867923D01*
X178728267Y-89860955D01*
X178720694Y-89854374D01*
X178710924Y-89849212D01*
X178696340Y-89845297D01*
X178674326Y-89842457D01*
X178642264Y-89840520D01*
X178597536Y-89839316D01*
X178537526Y-89838672D01*
X178459617Y-89838417D01*
X178383956Y-89838378D01*
X178283041Y-89838130D01*
X178202427Y-89838183D01*
X178163822Y-89839143D01*
X178163822Y-89985133D01*
X178604089Y-89985133D01*
X178604004Y-90078266D01*
X178602396Y-90134307D01*
X178598256Y-90193001D01*
X178592464Y-90241972D01*
X178592226Y-90243462D01*
X178573090Y-90322608D01*
X178543287Y-90383998D01*
X178500878Y-90430695D01*
X178454961Y-90460365D01*
X178404026Y-90478647D01*
X178356200Y-90477229D01*
X178304933Y-90456012D01*
X178251899Y-90414511D01*
X178212600Y-90357002D01*
X178186331Y-90282250D01*
X178177035Y-90232292D01*
X178170507Y-90175584D01*
X178165782Y-90115481D01*
X178163817Y-90064361D01*
X178163808Y-90061333D01*
X178163822Y-89985133D01*
X178163822Y-89839143D01*
X178139851Y-89839740D01*
X178093055Y-89844002D01*
X178059778Y-89852170D01*
X178037759Y-89865444D01*
X178024739Y-89885026D01*
X178018457Y-89912117D01*
X178016653Y-89947918D01*
X178017066Y-89993629D01*
G36*
X172774571Y-93841957D02*
G01*
X172798809Y-93938232D01*
X172841641Y-94024816D01*
X172901419Y-94099627D01*
X172976494Y-94160582D01*
X173065220Y-94205601D01*
X173161530Y-94231864D01*
X173258795Y-94237714D01*
X173352654Y-94222860D01*
X173440511Y-94189160D01*
X173519770Y-94138472D01*
X173587836Y-94072655D01*
X173642112Y-93993566D01*
X173680002Y-93903066D01*
X173692426Y-93851800D01*
X173699947Y-93807302D01*
X173702919Y-93773001D01*
X173701094Y-93740040D01*
X173694225Y-93699566D01*
X173687250Y-93666469D01*
X173655741Y-93573053D01*
X173604617Y-93489381D01*
X173535429Y-93417335D01*
X173449728Y-93358800D01*
X173422489Y-93344852D01*
X173386122Y-93328414D01*
X173355582Y-93318106D01*
X173323450Y-93312540D01*
X173282307Y-93310331D01*
X173236222Y-93310052D01*
X173151865Y-93314139D01*
X173082586Y-93327554D01*
X173021961Y-93352744D01*
X172963567Y-93392154D01*
X172919302Y-93430702D01*
X172853484Y-93502594D01*
X172808053Y-93577687D01*
X172780850Y-93660438D01*
X172770576Y-93738072D01*
X172774571Y-93841957D01*
G37*
X172774571Y-93841957D02*
X172798809Y-93938232D01*
X172841641Y-94024816D01*
X172901419Y-94099627D01*
X172976494Y-94160582D01*
X173065220Y-94205601D01*
X173161530Y-94231864D01*
X173258795Y-94237714D01*
X173352654Y-94222860D01*
X173440511Y-94189160D01*
X173519770Y-94138472D01*
X173587836Y-94072655D01*
X173642112Y-93993566D01*
X173680002Y-93903066D01*
X173692426Y-93851800D01*
X173699947Y-93807302D01*
X173702919Y-93773001D01*
X173701094Y-93740040D01*
X173694225Y-93699566D01*
X173687250Y-93666469D01*
X173655741Y-93573053D01*
X173604617Y-93489381D01*
X173535429Y-93417335D01*
X173449728Y-93358800D01*
X173422489Y-93344852D01*
X173386122Y-93328414D01*
X173355582Y-93318106D01*
X173323450Y-93312540D01*
X173282307Y-93310331D01*
X173236222Y-93310052D01*
X173151865Y-93314139D01*
X173082586Y-93327554D01*
X173021961Y-93352744D01*
X172963567Y-93392154D01*
X172919302Y-93430702D01*
X172853484Y-93502594D01*
X172808053Y-93577687D01*
X172780850Y-93660438D01*
X172770576Y-93738072D01*
X172774571Y-93841957D01*
G36*
X175220245Y-102301507D02*
G01*
X175454662Y-102301526D01*
X175667603Y-102301552D01*
X175860168Y-102301625D01*
X176033459Y-102301782D01*
X176188576Y-102302064D01*
X176326620Y-102302509D01*
X176448692Y-102303156D01*
X176555894Y-102304045D01*
X176649326Y-102305213D01*
X176730090Y-102306701D01*
X176799286Y-102308546D01*
X176858015Y-102310789D01*
X176907379Y-102313469D01*
X176948478Y-102316623D01*
X176982413Y-102320292D01*
X177010286Y-102324513D01*
X177033198Y-102329327D01*
X177052249Y-102334773D01*
X177068540Y-102340888D01*
X177083173Y-102347712D01*
X177097249Y-102355285D01*
X177111868Y-102363645D01*
X177120974Y-102368839D01*
X177181689Y-102403104D01*
X177181689Y-101544955D01*
X177085733Y-101544955D01*
X177042370Y-101544224D01*
X177009205Y-101542272D01*
X176991424Y-101539463D01*
X176989778Y-101538221D01*
X176996662Y-101526799D01*
X177014505Y-101504084D01*
X177033879Y-101481385D01*
X177074614Y-101426800D01*
X177115617Y-101357321D01*
X177153123Y-101280270D01*
X177183364Y-101202965D01*
X177193012Y-101172113D01*
X177207578Y-101103616D01*
X177217539Y-101020764D01*
X177222583Y-100931371D01*
X177222396Y-100843248D01*
X177216666Y-100764207D01*
X177210858Y-100726511D01*
X177172797Y-100588414D01*
X177115073Y-100461113D01*
X177038211Y-100345292D01*
X176942739Y-100241637D01*
X176829179Y-100150833D01*
X176718381Y-100084031D01*
X176601625Y-100029164D01*
X176482276Y-99987163D01*
X176356283Y-99957167D01*
X176219594Y-99938311D01*
X176068158Y-99929732D01*
X175990711Y-99929006D01*
X175933934Y-99931100D01*
X175933934Y-100760217D01*
X176027002Y-100760424D01*
X176114692Y-100763337D01*
X176191772Y-100769000D01*
X176253009Y-100777455D01*
X176265350Y-100780038D01*
X176372633Y-100811840D01*
X176459658Y-100853498D01*
X176526642Y-100905363D01*
X176573805Y-100967781D01*
X176601365Y-101041100D01*
X176609541Y-101125669D01*
X176598551Y-101221835D01*
X176582829Y-101285311D01*
X176564639Y-101334454D01*
X176538791Y-101388583D01*
X176515089Y-101429244D01*
X176468721Y-101499800D01*
X175318530Y-101499800D01*
X175274962Y-101432392D01*
X175234040Y-101353867D01*
X175207389Y-101269681D01*
X175195465Y-101184557D01*
X175198722Y-101103216D01*
X175217615Y-101030380D01*
X175233184Y-100998426D01*
X175276181Y-100940501D01*
X175332953Y-100891544D01*
X175405575Y-100850390D01*
X175496121Y-100815874D01*
X175606666Y-100786833D01*
X175612533Y-100785552D01*
X175674788Y-100775381D01*
X175752594Y-100767739D01*
X175840720Y-100762670D01*
X175933934Y-100760217D01*
X175933934Y-99931100D01*
X175777895Y-99936857D01*
X175582059Y-99958802D01*
X175403332Y-99994786D01*
X175241845Y-100044759D01*
X175097726Y-100108668D01*
X174971106Y-100186462D01*
X174862115Y-100278089D01*
X174770883Y-100383497D01*
X174739932Y-100428662D01*
X174683785Y-100529611D01*
X174644174Y-100632901D01*
X174620014Y-100742989D01*
X174610219Y-100864330D01*
X174611265Y-100956836D01*
X174622231Y-101086490D01*
X174644046Y-101199084D01*
X174677714Y-101297875D01*
X174724236Y-101386121D01*
X174758448Y-101434986D01*
X174780362Y-101464353D01*
X174795333Y-101486043D01*
X174799733Y-101494253D01*
X174788904Y-101495868D01*
X174758251Y-101497159D01*
X174710526Y-101498138D01*
X174648479Y-101498817D01*
X174574862Y-101499210D01*
X174492427Y-101499330D01*
X174403925Y-101499188D01*
X174312107Y-101498797D01*
X174219724Y-101498171D01*
X174129528Y-101497320D01*
X174044271Y-101496260D01*
X173966703Y-101495001D01*
X173899576Y-101493556D01*
X173845641Y-101491938D01*
X173807650Y-101490161D01*
X173800667Y-101489669D01*
X173730251Y-101482092D01*
X173675102Y-101470531D01*
X173627981Y-101452792D01*
X173581647Y-101426682D01*
X173572067Y-101420415D01*
X173535378Y-101395983D01*
X173535378Y-102301311D01*
X175220245Y-102301507D01*
G37*
X175220245Y-102301507D02*
X175454662Y-102301526D01*
X175667603Y-102301552D01*
X175860168Y-102301625D01*
X176033459Y-102301782D01*
X176188576Y-102302064D01*
X176326620Y-102302509D01*
X176448692Y-102303156D01*
X176555894Y-102304045D01*
X176649326Y-102305213D01*
X176730090Y-102306701D01*
X176799286Y-102308546D01*
X176858015Y-102310789D01*
X176907379Y-102313469D01*
X176948478Y-102316623D01*
X176982413Y-102320292D01*
X177010286Y-102324513D01*
X177033198Y-102329327D01*
X177052249Y-102334773D01*
X177068540Y-102340888D01*
X177083173Y-102347712D01*
X177097249Y-102355285D01*
X177111868Y-102363645D01*
X177120974Y-102368839D01*
X177181689Y-102403104D01*
X177181689Y-101544955D01*
X177085733Y-101544955D01*
X177042370Y-101544224D01*
X177009205Y-101542272D01*
X176991424Y-101539463D01*
X176989778Y-101538221D01*
X176996662Y-101526799D01*
X177014505Y-101504084D01*
X177033879Y-101481385D01*
X177074614Y-101426800D01*
X177115617Y-101357321D01*
X177153123Y-101280270D01*
X177183364Y-101202965D01*
X177193012Y-101172113D01*
X177207578Y-101103616D01*
X177217539Y-101020764D01*
X177222583Y-100931371D01*
X177222396Y-100843248D01*
X177216666Y-100764207D01*
X177210858Y-100726511D01*
X177172797Y-100588414D01*
X177115073Y-100461113D01*
X177038211Y-100345292D01*
X176942739Y-100241637D01*
X176829179Y-100150833D01*
X176718381Y-100084031D01*
X176601625Y-100029164D01*
X176482276Y-99987163D01*
X176356283Y-99957167D01*
X176219594Y-99938311D01*
X176068158Y-99929732D01*
X175990711Y-99929006D01*
X175933934Y-99931100D01*
X175933934Y-100760217D01*
X176027002Y-100760424D01*
X176114692Y-100763337D01*
X176191772Y-100769000D01*
X176253009Y-100777455D01*
X176265350Y-100780038D01*
X176372633Y-100811840D01*
X176459658Y-100853498D01*
X176526642Y-100905363D01*
X176573805Y-100967781D01*
X176601365Y-101041100D01*
X176609541Y-101125669D01*
X176598551Y-101221835D01*
X176582829Y-101285311D01*
X176564639Y-101334454D01*
X176538791Y-101388583D01*
X176515089Y-101429244D01*
X176468721Y-101499800D01*
X175318530Y-101499800D01*
X175274962Y-101432392D01*
X175234040Y-101353867D01*
X175207389Y-101269681D01*
X175195465Y-101184557D01*
X175198722Y-101103216D01*
X175217615Y-101030380D01*
X175233184Y-100998426D01*
X175276181Y-100940501D01*
X175332953Y-100891544D01*
X175405575Y-100850390D01*
X175496121Y-100815874D01*
X175606666Y-100786833D01*
X175612533Y-100785552D01*
X175674788Y-100775381D01*
X175752594Y-100767739D01*
X175840720Y-100762670D01*
X175933934Y-100760217D01*
X175933934Y-99931100D01*
X175777895Y-99936857D01*
X175582059Y-99958802D01*
X175403332Y-99994786D01*
X175241845Y-100044759D01*
X175097726Y-100108668D01*
X174971106Y-100186462D01*
X174862115Y-100278089D01*
X174770883Y-100383497D01*
X174739932Y-100428662D01*
X174683785Y-100529611D01*
X174644174Y-100632901D01*
X174620014Y-100742989D01*
X174610219Y-100864330D01*
X174611265Y-100956836D01*
X174622231Y-101086490D01*
X174644046Y-101199084D01*
X174677714Y-101297875D01*
X174724236Y-101386121D01*
X174758448Y-101434986D01*
X174780362Y-101464353D01*
X174795333Y-101486043D01*
X174799733Y-101494253D01*
X174788904Y-101495868D01*
X174758251Y-101497159D01*
X174710526Y-101498138D01*
X174648479Y-101498817D01*
X174574862Y-101499210D01*
X174492427Y-101499330D01*
X174403925Y-101499188D01*
X174312107Y-101498797D01*
X174219724Y-101498171D01*
X174129528Y-101497320D01*
X174044271Y-101496260D01*
X173966703Y-101495001D01*
X173899576Y-101493556D01*
X173845641Y-101491938D01*
X173807650Y-101490161D01*
X173800667Y-101489669D01*
X173730251Y-101482092D01*
X173675102Y-101470531D01*
X173627981Y-101452792D01*
X173581647Y-101426682D01*
X173572067Y-101420415D01*
X173535378Y-101395983D01*
X173535378Y-102301311D01*
X175220245Y-102301507D01*
G36*
X174614552Y-98788574D02*
G01*
X174634567Y-98940492D01*
X174668202Y-99075756D01*
X174715725Y-99195239D01*
X174777405Y-99299815D01*
X174840965Y-99377424D01*
X174915099Y-99446265D01*
X174994871Y-99500006D01*
X175087091Y-99542910D01*
X175130161Y-99558384D01*
X175169142Y-99571244D01*
X175205289Y-99582446D01*
X175240434Y-99592120D01*
X175276410Y-99600396D01*
X175315050Y-99607403D01*
X175358185Y-99613272D01*
X175407649Y-99618131D01*
X175465273Y-99622110D01*
X175532891Y-99625340D01*
X175612334Y-99627949D01*
X175705436Y-99630067D01*
X175814027Y-99631824D01*
X175939942Y-99633349D01*
X176085012Y-99634772D01*
X176227778Y-99636025D01*
X176383968Y-99637351D01*
X176519239Y-99638556D01*
X176635246Y-99639766D01*
X176733645Y-99641106D01*
X176816093Y-99642700D01*
X176884246Y-99644675D01*
X176939760Y-99647156D01*
X176984292Y-99650269D01*
X177019498Y-99654138D01*
X177047034Y-99658889D01*
X177068556Y-99664648D01*
X177085722Y-99671539D01*
X177100186Y-99679689D01*
X177113606Y-99689223D01*
X177127638Y-99700266D01*
X177133071Y-99704566D01*
X177155910Y-99720386D01*
X177171463Y-99727422D01*
X177171922Y-99727444D01*
X177174121Y-99716567D01*
X177176147Y-99685582D01*
X177177942Y-99636957D01*
X177179451Y-99573163D01*
X177180616Y-99496669D01*
X177181380Y-99409944D01*
X177181686Y-99315457D01*
X177181689Y-99304550D01*
X177181689Y-98881657D01*
X177085622Y-98878395D01*
X176989556Y-98875133D01*
X177040543Y-98813044D01*
X177108057Y-98715714D01*
X177162749Y-98605813D01*
X177192978Y-98519349D01*
X177207666Y-98450278D01*
X177217659Y-98366925D01*
X177222646Y-98277159D01*
X177222313Y-98188845D01*
X177216351Y-98109851D01*
X177210638Y-98073622D01*
X177172776Y-97933603D01*
X177117932Y-97807178D01*
X177046924Y-97695260D01*
X176960568Y-97598762D01*
X176859679Y-97518600D01*
X176745076Y-97455687D01*
X176618984Y-97411312D01*
X176562401Y-97398978D01*
X176500202Y-97391368D01*
X176425363Y-97387739D01*
X176391467Y-97387245D01*
X176388282Y-97387310D01*
X176388282Y-98147248D01*
X176463333Y-98156541D01*
X176527160Y-98184728D01*
X176582798Y-98233197D01*
X176587211Y-98238254D01*
X176622037Y-98286548D01*
X176644620Y-98338257D01*
X176656540Y-98398989D01*
X176659383Y-98474352D01*
X176658978Y-98492459D01*
X176656325Y-98546278D01*
X176650909Y-98586308D01*
X176640745Y-98621324D01*
X176623850Y-98660103D01*
X176618672Y-98670745D01*
X176582844Y-98731396D01*
X176540212Y-98778215D01*
X176524973Y-98790952D01*
X176468462Y-98835622D01*
X176272586Y-98835622D01*
X176193939Y-98835086D01*
X176135988Y-98833396D01*
X176096875Y-98830428D01*
X176074741Y-98826057D01*
X176068274Y-98821972D01*
X176065111Y-98806047D01*
X176062488Y-98772264D01*
X176060655Y-98725340D01*
X176059857Y-98669993D01*
X176059842Y-98661106D01*
X176065096Y-98540330D01*
X176081263Y-98437660D01*
X176108961Y-98351106D01*
X176148808Y-98278681D01*
X176195758Y-98223751D01*
X176253645Y-98179204D01*
X176316693Y-98154480D01*
X176388282Y-98147248D01*
X176388282Y-97387310D01*
X176297712Y-97389178D01*
X176218812Y-97397522D01*
X176147590Y-97413768D01*
X176076864Y-97439405D01*
X176024493Y-97463401D01*
X175929196Y-97522020D01*
X175841170Y-97600117D01*
X175762017Y-97695315D01*
X175693340Y-97805238D01*
X175636741Y-97927510D01*
X175593821Y-98059755D01*
X175578882Y-98124422D01*
X175556777Y-98260604D01*
X175542194Y-98409049D01*
X175535813Y-98560505D01*
X175537445Y-98687064D01*
X175544224Y-98848950D01*
X175485245Y-98841530D01*
X175386092Y-98822238D01*
X175305372Y-98791104D01*
X175242466Y-98747269D01*
X175196756Y-98689871D01*
X175167622Y-98618048D01*
X175154447Y-98530941D01*
X175156611Y-98427686D01*
X175160612Y-98389711D01*
X175185780Y-98248520D01*
X175226814Y-98111707D01*
X175264815Y-98017178D01*
X175284190Y-97972018D01*
X175299760Y-97933585D01*
X175309405Y-97907234D01*
X175311452Y-97899546D01*
X175302374Y-97889802D01*
X175273405Y-97873083D01*
X175224217Y-97849232D01*
X175154484Y-97818093D01*
X175063879Y-97779507D01*
X175048089Y-97772910D01*
X174975772Y-97742853D01*
X174910425Y-97715874D01*
X174854906Y-97693136D01*
X174812072Y-97675806D01*
X174784781Y-97665048D01*
X174775942Y-97661941D01*
X174771187Y-97671940D01*
X174765910Y-97698217D01*
X174762231Y-97726489D01*
X174757474Y-97756646D01*
X174748028Y-97804433D01*
X174734820Y-97865612D01*
X174718776Y-97935946D01*
X174700820Y-98011194D01*
X174693797Y-98039755D01*
X174668209Y-98144816D01*
X174648147Y-98232480D01*
X174632969Y-98307068D01*
X174622035Y-98372903D01*
X174614704Y-98434307D01*
X174610335Y-98495602D01*
X174608287Y-98561110D01*
X174607889Y-98619128D01*
X174614552Y-98788574D01*
G37*
X174614552Y-98788574D02*
X174634567Y-98940492D01*
X174668202Y-99075756D01*
X174715725Y-99195239D01*
X174777405Y-99299815D01*
X174840965Y-99377424D01*
X174915099Y-99446265D01*
X174994871Y-99500006D01*
X175087091Y-99542910D01*
X175130161Y-99558384D01*
X175169142Y-99571244D01*
X175205289Y-99582446D01*
X175240434Y-99592120D01*
X175276410Y-99600396D01*
X175315050Y-99607403D01*
X175358185Y-99613272D01*
X175407649Y-99618131D01*
X175465273Y-99622110D01*
X175532891Y-99625340D01*
X175612334Y-99627949D01*
X175705436Y-99630067D01*
X175814027Y-99631824D01*
X175939942Y-99633349D01*
X176085012Y-99634772D01*
X176227778Y-99636025D01*
X176383968Y-99637351D01*
X176519239Y-99638556D01*
X176635246Y-99639766D01*
X176733645Y-99641106D01*
X176816093Y-99642700D01*
X176884246Y-99644675D01*
X176939760Y-99647156D01*
X176984292Y-99650269D01*
X177019498Y-99654138D01*
X177047034Y-99658889D01*
X177068556Y-99664648D01*
X177085722Y-99671539D01*
X177100186Y-99679689D01*
X177113606Y-99689223D01*
X177127638Y-99700266D01*
X177133071Y-99704566D01*
X177155910Y-99720386D01*
X177171463Y-99727422D01*
X177171922Y-99727444D01*
X177174121Y-99716567D01*
X177176147Y-99685582D01*
X177177942Y-99636957D01*
X177179451Y-99573163D01*
X177180616Y-99496669D01*
X177181380Y-99409944D01*
X177181686Y-99315457D01*
X177181689Y-99304550D01*
X177181689Y-98881657D01*
X177085622Y-98878395D01*
X176989556Y-98875133D01*
X177040543Y-98813044D01*
X177108057Y-98715714D01*
X177162749Y-98605813D01*
X177192978Y-98519349D01*
X177207666Y-98450278D01*
X177217659Y-98366925D01*
X177222646Y-98277159D01*
X177222313Y-98188845D01*
X177216351Y-98109851D01*
X177210638Y-98073622D01*
X177172776Y-97933603D01*
X177117932Y-97807178D01*
X177046924Y-97695260D01*
X176960568Y-97598762D01*
X176859679Y-97518600D01*
X176745076Y-97455687D01*
X176618984Y-97411312D01*
X176562401Y-97398978D01*
X176500202Y-97391368D01*
X176425363Y-97387739D01*
X176391467Y-97387245D01*
X176388282Y-97387310D01*
X176388282Y-98147248D01*
X176463333Y-98156541D01*
X176527160Y-98184728D01*
X176582798Y-98233197D01*
X176587211Y-98238254D01*
X176622037Y-98286548D01*
X176644620Y-98338257D01*
X176656540Y-98398989D01*
X176659383Y-98474352D01*
X176658978Y-98492459D01*
X176656325Y-98546278D01*
X176650909Y-98586308D01*
X176640745Y-98621324D01*
X176623850Y-98660103D01*
X176618672Y-98670745D01*
X176582844Y-98731396D01*
X176540212Y-98778215D01*
X176524973Y-98790952D01*
X176468462Y-98835622D01*
X176272586Y-98835622D01*
X176193939Y-98835086D01*
X176135988Y-98833396D01*
X176096875Y-98830428D01*
X176074741Y-98826057D01*
X176068274Y-98821972D01*
X176065111Y-98806047D01*
X176062488Y-98772264D01*
X176060655Y-98725340D01*
X176059857Y-98669993D01*
X176059842Y-98661106D01*
X176065096Y-98540330D01*
X176081263Y-98437660D01*
X176108961Y-98351106D01*
X176148808Y-98278681D01*
X176195758Y-98223751D01*
X176253645Y-98179204D01*
X176316693Y-98154480D01*
X176388282Y-98147248D01*
X176388282Y-97387310D01*
X176297712Y-97389178D01*
X176218812Y-97397522D01*
X176147590Y-97413768D01*
X176076864Y-97439405D01*
X176024493Y-97463401D01*
X175929196Y-97522020D01*
X175841170Y-97600117D01*
X175762017Y-97695315D01*
X175693340Y-97805238D01*
X175636741Y-97927510D01*
X175593821Y-98059755D01*
X175578882Y-98124422D01*
X175556777Y-98260604D01*
X175542194Y-98409049D01*
X175535813Y-98560505D01*
X175537445Y-98687064D01*
X175544224Y-98848950D01*
X175485245Y-98841530D01*
X175386092Y-98822238D01*
X175305372Y-98791104D01*
X175242466Y-98747269D01*
X175196756Y-98689871D01*
X175167622Y-98618048D01*
X175154447Y-98530941D01*
X175156611Y-98427686D01*
X175160612Y-98389711D01*
X175185780Y-98248520D01*
X175226814Y-98111707D01*
X175264815Y-98017178D01*
X175284190Y-97972018D01*
X175299760Y-97933585D01*
X175309405Y-97907234D01*
X175311452Y-97899546D01*
X175302374Y-97889802D01*
X175273405Y-97873083D01*
X175224217Y-97849232D01*
X175154484Y-97818093D01*
X175063879Y-97779507D01*
X175048089Y-97772910D01*
X174975772Y-97742853D01*
X174910425Y-97715874D01*
X174854906Y-97693136D01*
X174812072Y-97675806D01*
X174784781Y-97665048D01*
X174775942Y-97661941D01*
X174771187Y-97671940D01*
X174765910Y-97698217D01*
X174762231Y-97726489D01*
X174757474Y-97756646D01*
X174748028Y-97804433D01*
X174734820Y-97865612D01*
X174718776Y-97935946D01*
X174700820Y-98011194D01*
X174693797Y-98039755D01*
X174668209Y-98144816D01*
X174648147Y-98232480D01*
X174632969Y-98307068D01*
X174622035Y-98372903D01*
X174614704Y-98434307D01*
X174610335Y-98495602D01*
X174608287Y-98561110D01*
X174607889Y-98619128D01*
X174614552Y-98788574D01*
G36*
X173697071Y-96443429D02*
G01*
X173718245Y-96603570D01*
X173758385Y-96767510D01*
X173817889Y-96937313D01*
X173897154Y-97115043D01*
X173902699Y-97126310D01*
X173930725Y-97184005D01*
X173954802Y-97235552D01*
X173973249Y-97277191D01*
X173984386Y-97305162D01*
X173986933Y-97314733D01*
X173991941Y-97333950D01*
X173996147Y-97338561D01*
X174006580Y-97333458D01*
X174032868Y-97317418D01*
X174072257Y-97292288D01*
X174121991Y-97259914D01*
X174179315Y-97222143D01*
X174241476Y-97180822D01*
X174305718Y-97137798D01*
X174369285Y-97094917D01*
X174429425Y-97054026D01*
X174483380Y-97016971D01*
X174528397Y-96985600D01*
X174561721Y-96961759D01*
X174580597Y-96947294D01*
X174582787Y-96945309D01*
X174578138Y-96935191D01*
X174560962Y-96912850D01*
X174534440Y-96882280D01*
X174519964Y-96866536D01*
X174444682Y-96770047D01*
X174389241Y-96663336D01*
X174354141Y-96547832D01*
X174339880Y-96424962D01*
X174341051Y-96355561D01*
X174358212Y-96234423D01*
X174394094Y-96125205D01*
X174448959Y-96027582D01*
X174523070Y-95941228D01*
X174616688Y-95865815D01*
X174730076Y-95801018D01*
X174816667Y-95763601D01*
X174952366Y-95719748D01*
X175099850Y-95687428D01*
X175255314Y-95666557D01*
X175414956Y-95657051D01*
X175574973Y-95658827D01*
X175731561Y-95671803D01*
X175880918Y-95695894D01*
X176019240Y-95731018D01*
X176142724Y-95777092D01*
X176176978Y-95793373D01*
X176291064Y-95861620D01*
X176387557Y-95942079D01*
X176465670Y-96033570D01*
X176524617Y-96134911D01*
X176563612Y-96244920D01*
X176581868Y-96362415D01*
X176583211Y-96403883D01*
X176572290Y-96525441D01*
X176539474Y-96645878D01*
X176485439Y-96763666D01*
X176410865Y-96877277D01*
X176332539Y-96968685D01*
X176288008Y-97015215D01*
X176585271Y-97196483D01*
X176659433Y-97241580D01*
X176727646Y-97282819D01*
X176787459Y-97318735D01*
X176836420Y-97347866D01*
X176872079Y-97368750D01*
X176891984Y-97379924D01*
X176895079Y-97381375D01*
X176904718Y-97373146D01*
X176921999Y-97347567D01*
X176945283Y-97307873D01*
X176972934Y-97257297D01*
X177003315Y-97199074D01*
X177034790Y-97136437D01*
X177065722Y-97072621D01*
X177094473Y-97010860D01*
X177119408Y-96954388D01*
X177138889Y-96906438D01*
X177147318Y-96882986D01*
X177185133Y-96749221D01*
X177210136Y-96611327D01*
X177223140Y-96463622D01*
X177225468Y-96336833D01*
X177224373Y-96268878D01*
X177222275Y-96203277D01*
X177219434Y-96145847D01*
X177216106Y-96102403D01*
X177214422Y-96088298D01*
X177185587Y-95949284D01*
X177140468Y-95807757D01*
X177081750Y-95670275D01*
X177012120Y-95543394D01*
X176959441Y-95465889D01*
X176851239Y-95338481D01*
X176724671Y-95220178D01*
X176582866Y-95113172D01*
X176428951Y-95019652D01*
X176266053Y-94941810D01*
X176148756Y-94897956D01*
X175965128Y-94847708D01*
X175770581Y-94814209D01*
X175569325Y-94797449D01*
X175365568Y-94797416D01*
X175163521Y-94814101D01*
X174967392Y-94847493D01*
X174781391Y-94897580D01*
X174769803Y-94901397D01*
X174607750Y-94964281D01*
X174459832Y-95041028D01*
X174321865Y-95134242D01*
X174189661Y-95246527D01*
X174144399Y-95290392D01*
X174020457Y-95426534D01*
X173917915Y-95566491D01*
X173835656Y-95712411D01*
X173772564Y-95866442D01*
X173727523Y-96030732D01*
X173710033Y-96126289D01*
X173694466Y-96285023D01*
X173697071Y-96443429D01*
G37*
X173697071Y-96443429D02*
X173718245Y-96603570D01*
X173758385Y-96767510D01*
X173817889Y-96937313D01*
X173897154Y-97115043D01*
X173902699Y-97126310D01*
X173930725Y-97184005D01*
X173954802Y-97235552D01*
X173973249Y-97277191D01*
X173984386Y-97305162D01*
X173986933Y-97314733D01*
X173991941Y-97333950D01*
X173996147Y-97338561D01*
X174006580Y-97333458D01*
X174032868Y-97317418D01*
X174072257Y-97292288D01*
X174121991Y-97259914D01*
X174179315Y-97222143D01*
X174241476Y-97180822D01*
X174305718Y-97137798D01*
X174369285Y-97094917D01*
X174429425Y-97054026D01*
X174483380Y-97016971D01*
X174528397Y-96985600D01*
X174561721Y-96961759D01*
X174580597Y-96947294D01*
X174582787Y-96945309D01*
X174578138Y-96935191D01*
X174560962Y-96912850D01*
X174534440Y-96882280D01*
X174519964Y-96866536D01*
X174444682Y-96770047D01*
X174389241Y-96663336D01*
X174354141Y-96547832D01*
X174339880Y-96424962D01*
X174341051Y-96355561D01*
X174358212Y-96234423D01*
X174394094Y-96125205D01*
X174448959Y-96027582D01*
X174523070Y-95941228D01*
X174616688Y-95865815D01*
X174730076Y-95801018D01*
X174816667Y-95763601D01*
X174952366Y-95719748D01*
X175099850Y-95687428D01*
X175255314Y-95666557D01*
X175414956Y-95657051D01*
X175574973Y-95658827D01*
X175731561Y-95671803D01*
X175880918Y-95695894D01*
X176019240Y-95731018D01*
X176142724Y-95777092D01*
X176176978Y-95793373D01*
X176291064Y-95861620D01*
X176387557Y-95942079D01*
X176465670Y-96033570D01*
X176524617Y-96134911D01*
X176563612Y-96244920D01*
X176581868Y-96362415D01*
X176583211Y-96403883D01*
X176572290Y-96525441D01*
X176539474Y-96645878D01*
X176485439Y-96763666D01*
X176410865Y-96877277D01*
X176332539Y-96968685D01*
X176288008Y-97015215D01*
X176585271Y-97196483D01*
X176659433Y-97241580D01*
X176727646Y-97282819D01*
X176787459Y-97318735D01*
X176836420Y-97347866D01*
X176872079Y-97368750D01*
X176891984Y-97379924D01*
X176895079Y-97381375D01*
X176904718Y-97373146D01*
X176921999Y-97347567D01*
X176945283Y-97307873D01*
X176972934Y-97257297D01*
X177003315Y-97199074D01*
X177034790Y-97136437D01*
X177065722Y-97072621D01*
X177094473Y-97010860D01*
X177119408Y-96954388D01*
X177138889Y-96906438D01*
X177147318Y-96882986D01*
X177185133Y-96749221D01*
X177210136Y-96611327D01*
X177223140Y-96463622D01*
X177225468Y-96336833D01*
X177224373Y-96268878D01*
X177222275Y-96203277D01*
X177219434Y-96145847D01*
X177216106Y-96102403D01*
X177214422Y-96088298D01*
X177185587Y-95949284D01*
X177140468Y-95807757D01*
X177081750Y-95670275D01*
X177012120Y-95543394D01*
X176959441Y-95465889D01*
X176851239Y-95338481D01*
X176724671Y-95220178D01*
X176582866Y-95113172D01*
X176428951Y-95019652D01*
X176266053Y-94941810D01*
X176148756Y-94897956D01*
X175965128Y-94847708D01*
X175770581Y-94814209D01*
X175569325Y-94797449D01*
X175365568Y-94797416D01*
X175163521Y-94814101D01*
X174967392Y-94847493D01*
X174781391Y-94897580D01*
X174769803Y-94901397D01*
X174607750Y-94964281D01*
X174459832Y-95041028D01*
X174321865Y-95134242D01*
X174189661Y-95246527D01*
X174144399Y-95290392D01*
X174020457Y-95426534D01*
X173917915Y-95566491D01*
X173835656Y-95712411D01*
X173772564Y-95866442D01*
X173727523Y-96030732D01*
X173710033Y-96126289D01*
X173694466Y-96285023D01*
X173697071Y-96443429D01*
G36*
X173237054Y-93168600D02*
G01*
X173350993Y-93179465D01*
X173458616Y-93211082D01*
X173557615Y-93261985D01*
X173645684Y-93330707D01*
X173720516Y-93415781D01*
X173778384Y-93512768D01*
X173818005Y-93619036D01*
X173836573Y-93726050D01*
X173835434Y-93831700D01*
X173815930Y-93933875D01*
X173779406Y-94030466D01*
X173727205Y-94119362D01*
X173660673Y-94198454D01*
X173581152Y-94265631D01*
X173489987Y-94318783D01*
X173388523Y-94355801D01*
X173278102Y-94374573D01*
X173228206Y-94376511D01*
X173140267Y-94376511D01*
X173140267Y-94428440D01*
X173143111Y-94464747D01*
X173154911Y-94491645D01*
X173178649Y-94518751D01*
X173217031Y-94557133D01*
X175408602Y-94557133D01*
X175670739Y-94557124D01*
X175911241Y-94557092D01*
X176131048Y-94557028D01*
X176331101Y-94556924D01*
X176512344Y-94556773D01*
X176675716Y-94556566D01*
X176822160Y-94556294D01*
X176952617Y-94555950D01*
X177068029Y-94555526D01*
X177169338Y-94555013D01*
X177257484Y-94554403D01*
X177333410Y-94553688D01*
X177398057Y-94552860D01*
X177452367Y-94551911D01*
X177497280Y-94550833D01*
X177533740Y-94549617D01*
X177562687Y-94548255D01*
X177585063Y-94546739D01*
X177601809Y-94545062D01*
X177613868Y-94543214D01*
X177622180Y-94541187D01*
X177627687Y-94538975D01*
X177629537Y-94537892D01*
X177636549Y-94533729D01*
X177642996Y-94530195D01*
X177648900Y-94526365D01*
X177654286Y-94521318D01*
X177659178Y-94514129D01*
X177663598Y-94503877D01*
X177667572Y-94489636D01*
X177671121Y-94470486D01*
X177674270Y-94445501D01*
X177677042Y-94413760D01*
X177679461Y-94374338D01*
X177681551Y-94326314D01*
X177683335Y-94268763D01*
X177684837Y-94200763D01*
X177686080Y-94121390D01*
X177687089Y-94029721D01*
X177687885Y-93924834D01*
X177688494Y-93805804D01*
X177688939Y-93671710D01*
X177689243Y-93521627D01*
X177689430Y-93354633D01*
X177689524Y-93169804D01*
X177689548Y-92966217D01*
X177689525Y-92742950D01*
X177689480Y-92499078D01*
X177689437Y-92233679D01*
X177689432Y-92195296D01*
X177689389Y-91928318D01*
X177689318Y-91682998D01*
X177689213Y-91458417D01*
X177689066Y-91253655D01*
X177688869Y-91067794D01*
X177688616Y-90899912D01*
X177688300Y-90749092D01*
X177687913Y-90614413D01*
X177687447Y-90494956D01*
X177686897Y-90389801D01*
X177686253Y-90298029D01*
X177685511Y-90218721D01*
X177684661Y-90150957D01*
X177683697Y-90093818D01*
X177682611Y-90046383D01*
X177681397Y-90007734D01*
X177680047Y-89976951D01*
X177678555Y-89953115D01*
X177676911Y-89935306D01*
X177675111Y-89922605D01*
X177673145Y-89914092D01*
X177671477Y-89909734D01*
X177667906Y-89901272D01*
X177665270Y-89893503D01*
X177662634Y-89886398D01*
X177659062Y-89879927D01*
X177653621Y-89874061D01*
X177645375Y-89868771D01*
X177633390Y-89864026D01*
X177616731Y-89859798D01*
X177594463Y-89856057D01*
X177565652Y-89852773D01*
X177529363Y-89849917D01*
X177484661Y-89847460D01*
X177430611Y-89845371D01*
X177366279Y-89843622D01*
X177290730Y-89842183D01*
X177203030Y-89841024D01*
X177102243Y-89840117D01*
X176987434Y-89839431D01*
X176857670Y-89838937D01*
X176712015Y-89838605D01*
X176549535Y-89838407D01*
X176369295Y-89838313D01*
X176170360Y-89838292D01*
X175951796Y-89838315D01*
X175712668Y-89838354D01*
X175452040Y-89838378D01*
X175409889Y-89838378D01*
X175146992Y-89838364D01*
X174905732Y-89838339D01*
X174685165Y-89838329D01*
X174484352Y-89838358D01*
X174302349Y-89838452D01*
X174138216Y-89838638D01*
X173991011Y-89838941D01*
X173859792Y-89839386D01*
X173749867Y-89839966D01*
X173749867Y-90142803D01*
X173807711Y-90182593D01*
X173823479Y-90193764D01*
X173837441Y-90203834D01*
X173850784Y-90212862D01*
X173864693Y-90220903D01*
X173880356Y-90228014D01*
X173898958Y-90234253D01*
X173921686Y-90239675D01*
X173949727Y-90244338D01*
X173984267Y-90248299D01*
X174026492Y-90251615D01*
X174077589Y-90254341D01*
X174138744Y-90256536D01*
X174211144Y-90258255D01*
X174295975Y-90259556D01*
X174394422Y-90260495D01*
X174507674Y-90261130D01*
X174636916Y-90261516D01*
X174783334Y-90261712D01*
X174948116Y-90261773D01*
X175132447Y-90261757D01*
X175337513Y-90261720D01*
X175460133Y-90261711D01*
X175677082Y-90261735D01*
X175872642Y-90261769D01*
X176047999Y-90261757D01*
X176204341Y-90261642D01*
X176342857Y-90261370D01*
X176464734Y-90260882D01*
X176571160Y-90260124D01*
X176663322Y-90259038D01*
X176742409Y-90257569D01*
X176809608Y-90255660D01*
X176866107Y-90253256D01*
X176913093Y-90250299D01*
X176951755Y-90246734D01*
X176983280Y-90242505D01*
X177008855Y-90237554D01*
X177029670Y-90231827D01*
X177046911Y-90225267D01*
X177061765Y-90217817D01*
X177075422Y-90209421D01*
X177089069Y-90200024D01*
X177103893Y-90189568D01*
X177112783Y-90183477D01*
X177170400Y-90144704D01*
X177170400Y-90676268D01*
X177170365Y-90799517D01*
X177170215Y-90902013D01*
X177169878Y-90985580D01*
X177169286Y-91052044D01*
X177168367Y-91103229D01*
X177167051Y-91140959D01*
X177165269Y-91167060D01*
X177162951Y-91183356D01*
X177160026Y-91191672D01*
X177156424Y-91193832D01*
X177152075Y-91191661D01*
X177150645Y-91190465D01*
X177113573Y-91165315D01*
X177060772Y-91139417D01*
X176998770Y-91115808D01*
X176972357Y-91107539D01*
X176954416Y-91102922D01*
X176933355Y-91099021D01*
X176907089Y-91095752D01*
X176873532Y-91093034D01*
X176830599Y-91090785D01*
X176776204Y-91088923D01*
X176708262Y-91087364D01*
X176624688Y-91086028D01*
X176523395Y-91084831D01*
X176402300Y-91083692D01*
X176357600Y-91083315D01*
X176232449Y-91082298D01*
X176128082Y-91081540D01*
X176042707Y-91081097D01*
X175974533Y-91081030D01*
X175921765Y-91081395D01*
X175882614Y-91082252D01*
X175855285Y-91083659D01*
X175837986Y-91085675D01*
X175828926Y-91088357D01*
X175826312Y-91091764D01*
X175828351Y-91095956D01*
X175832667Y-91100429D01*
X175845602Y-91110784D01*
X175874676Y-91132842D01*
X175917759Y-91165043D01*
X175972718Y-91205826D01*
X176037423Y-91253630D01*
X176109742Y-91306895D01*
X176187544Y-91364060D01*
X176268698Y-91423563D01*
X176351072Y-91483845D01*
X176432536Y-91543345D01*
X176510957Y-91600502D01*
X176584204Y-91653755D01*
X176650147Y-91701543D01*
X176706654Y-91742307D01*
X176751593Y-91774484D01*
X176782834Y-91796515D01*
X176789466Y-91801083D01*
X176826369Y-91824004D01*
X176874359Y-91850812D01*
X176923897Y-91876211D01*
X176930577Y-91879432D01*
X176978772Y-91901110D01*
X177016334Y-91913696D01*
X177052160Y-91919426D01*
X177094200Y-91920544D01*
X177170400Y-91919910D01*
X177170400Y-93074349D01*
X177076669Y-92983185D01*
X177026775Y-92936388D01*
X176970295Y-92886101D01*
X176916026Y-92840056D01*
X176890673Y-92819631D01*
X176851128Y-92789193D01*
X176797916Y-92749138D01*
X176732667Y-92700639D01*
X176657011Y-92644865D01*
X176572577Y-92582989D01*
X176480994Y-92516181D01*
X176383892Y-92445613D01*
X176282901Y-92372455D01*
X176179650Y-92297879D01*
X176075768Y-92223056D01*
X175972885Y-92149157D01*
X175872631Y-92077354D01*
X175776636Y-92008816D01*
X175686527Y-91944716D01*
X175603936Y-91886225D01*
X175530492Y-91834514D01*
X175467824Y-91790753D01*
X175417561Y-91756115D01*
X175381334Y-91731770D01*
X175360771Y-91718889D01*
X175356668Y-91717131D01*
X175345342Y-91725090D01*
X175318162Y-91745885D01*
X175276829Y-91778153D01*
X175223044Y-91820530D01*
X175158506Y-91871653D01*
X175084918Y-91930159D01*
X175003978Y-91994686D01*
X174917388Y-92063869D01*
X174826848Y-92136347D01*
X174734060Y-92210754D01*
X174659702Y-92270483D01*
X174659702Y-93281489D01*
X174672659Y-93287398D01*
X174694908Y-93301728D01*
X174696391Y-93302775D01*
X174726544Y-93321562D01*
X174763375Y-93341209D01*
X174771511Y-93345108D01*
X174779940Y-93348644D01*
X174790059Y-93351770D01*
X174803260Y-93354514D01*
X174820938Y-93356908D01*
X174844484Y-93358981D01*
X174875293Y-93360765D01*
X174914757Y-93362288D01*
X174964269Y-93363581D01*
X175025223Y-93364674D01*
X175099011Y-93365597D01*
X175187028Y-93366381D01*
X175290665Y-93367055D01*
X175411316Y-93367650D01*
X175550374Y-93368195D01*
X175709232Y-93368721D01*
X175888089Y-93369255D01*
X176073207Y-93369794D01*
X176237145Y-93370228D01*
X176381303Y-93370491D01*
X176507079Y-93370516D01*
X176615871Y-93370235D01*
X176709077Y-93369581D01*
X176788097Y-93368486D01*
X176854328Y-93366882D01*
X176909170Y-93364703D01*
X176954021Y-93361881D01*
X176990278Y-93358349D01*
X177019341Y-93354039D01*
X177042609Y-93348883D01*
X177061479Y-93342815D01*
X177077351Y-93335767D01*
X177091622Y-93327671D01*
X177105691Y-93318460D01*
X177118158Y-93309960D01*
X177144452Y-93292824D01*
X177162037Y-93282678D01*
X177165257Y-93281489D01*
X177166334Y-93292396D01*
X177167335Y-93323589D01*
X177168235Y-93372777D01*
X177169010Y-93437667D01*
X177169637Y-93515970D01*
X177170091Y-93605393D01*
X177170349Y-93703644D01*
X177170400Y-93772555D01*
X177170180Y-93877548D01*
X177169548Y-93974390D01*
X177168549Y-94060893D01*
X177167227Y-94134868D01*
X177165626Y-94194126D01*
X177163791Y-94236480D01*
X177161765Y-94259740D01*
X177160493Y-94263622D01*
X177145591Y-94255924D01*
X177137560Y-94247926D01*
X177120434Y-94234754D01*
X177090183Y-94217515D01*
X177065622Y-94205593D01*
X177006711Y-94178955D01*
X175829845Y-94175880D01*
X174652978Y-94172805D01*
X174652978Y-93727147D01*
X174653142Y-93629330D01*
X174653611Y-93538936D01*
X174654347Y-93458370D01*
X174655316Y-93390038D01*
X174656480Y-93336344D01*
X174657803Y-93299695D01*
X174659249Y-93282496D01*
X174659702Y-93281489D01*
X174659702Y-92270483D01*
X174640722Y-92285730D01*
X174548537Y-92359910D01*
X174459204Y-92431931D01*
X174374424Y-92500431D01*
X174295898Y-92564045D01*
X174225326Y-92621412D01*
X174164409Y-92671167D01*
X174114847Y-92711948D01*
X174094178Y-92729112D01*
X173993516Y-92815404D01*
X173910259Y-92892003D01*
X173842438Y-92960817D01*
X173788089Y-93023752D01*
X173780722Y-93033133D01*
X173750117Y-93072644D01*
X173749867Y-91940884D01*
X173797844Y-91946173D01*
X173855188Y-91942870D01*
X173923463Y-91921339D01*
X174003212Y-91881365D01*
X174075495Y-91836057D01*
X174098140Y-91819839D01*
X174135696Y-91791786D01*
X174186021Y-91753570D01*
X174246973Y-91706863D01*
X174316411Y-91653339D01*
X174392194Y-91594669D01*
X174472180Y-91532525D01*
X174554228Y-91468579D01*
X174636196Y-91404505D01*
X174715943Y-91341973D01*
X174791327Y-91282657D01*
X174860207Y-91228229D01*
X174920442Y-91180361D01*
X174969889Y-91140725D01*
X175006408Y-91110994D01*
X175027858Y-91092839D01*
X175031156Y-91089780D01*
X175023149Y-91086921D01*
X174992855Y-91084707D01*
X174940556Y-91083143D01*
X174866531Y-91082233D01*
X174771063Y-91081980D01*
X174654434Y-91082387D01*
X174534445Y-91083296D01*
X174402333Y-91084618D01*
X174290594Y-91086143D01*
X174197025Y-91088119D01*
X174119419Y-91090794D01*
X174055574Y-91094418D01*
X174003283Y-91099239D01*
X173960344Y-91105506D01*
X173924551Y-91113468D01*
X173893700Y-91123373D01*
X173865586Y-91135469D01*
X173838005Y-91150007D01*
X173812966Y-91164689D01*
X173749867Y-91202686D01*
X173749867Y-90142803D01*
X173749867Y-89839966D01*
X173743617Y-89839999D01*
X173641544Y-89840805D01*
X173552633Y-89841830D01*
X173475941Y-89843100D01*
X173410527Y-89844640D01*
X173355449Y-89846476D01*
X173309765Y-89848633D01*
X173272534Y-89851137D01*
X173242813Y-89854013D01*
X173219662Y-89857287D01*
X173202139Y-89860985D01*
X173189301Y-89865131D01*
X173180208Y-89869753D01*
X173173918Y-89874874D01*
X173169488Y-89880522D01*
X173165978Y-89886721D01*
X173162445Y-89893496D01*
X173158876Y-89899492D01*
X173156300Y-89904725D01*
X173153972Y-89912901D01*
X173151878Y-89925114D01*
X173150007Y-89942459D01*
X173148347Y-89966031D01*
X173146884Y-89996923D01*
X173145608Y-90036232D01*
X173144504Y-90085050D01*
X173143561Y-90144473D01*
X173142767Y-90215596D01*
X173142109Y-90299512D01*
X173141575Y-90397317D01*
X173141153Y-90510106D01*
X173140829Y-90638971D01*
X173140592Y-90785009D01*
X173140430Y-90949314D01*
X173140330Y-91132980D01*
X173140280Y-91337103D01*
X173140267Y-91548247D01*
X173140267Y-93168600D01*
X173237054Y-93168600D01*
G37*
X173237054Y-93168600D02*
X173350993Y-93179465D01*
X173458616Y-93211082D01*
X173557615Y-93261985D01*
X173645684Y-93330707D01*
X173720516Y-93415781D01*
X173778384Y-93512768D01*
X173818005Y-93619036D01*
X173836573Y-93726050D01*
X173835434Y-93831700D01*
X173815930Y-93933875D01*
X173779406Y-94030466D01*
X173727205Y-94119362D01*
X173660673Y-94198454D01*
X173581152Y-94265631D01*
X173489987Y-94318783D01*
X173388523Y-94355801D01*
X173278102Y-94374573D01*
X173228206Y-94376511D01*
X173140267Y-94376511D01*
X173140267Y-94428440D01*
X173143111Y-94464747D01*
X173154911Y-94491645D01*
X173178649Y-94518751D01*
X173217031Y-94557133D01*
X175408602Y-94557133D01*
X175670739Y-94557124D01*
X175911241Y-94557092D01*
X176131048Y-94557028D01*
X176331101Y-94556924D01*
X176512344Y-94556773D01*
X176675716Y-94556566D01*
X176822160Y-94556294D01*
X176952617Y-94555950D01*
X177068029Y-94555526D01*
X177169338Y-94555013D01*
X177257484Y-94554403D01*
X177333410Y-94553688D01*
X177398057Y-94552860D01*
X177452367Y-94551911D01*
X177497280Y-94550833D01*
X177533740Y-94549617D01*
X177562687Y-94548255D01*
X177585063Y-94546739D01*
X177601809Y-94545062D01*
X177613868Y-94543214D01*
X177622180Y-94541187D01*
X177627687Y-94538975D01*
X177629537Y-94537892D01*
X177636549Y-94533729D01*
X177642996Y-94530195D01*
X177648900Y-94526365D01*
X177654286Y-94521318D01*
X177659178Y-94514129D01*
X177663598Y-94503877D01*
X177667572Y-94489636D01*
X177671121Y-94470486D01*
X177674270Y-94445501D01*
X177677042Y-94413760D01*
X177679461Y-94374338D01*
X177681551Y-94326314D01*
X177683335Y-94268763D01*
X177684837Y-94200763D01*
X177686080Y-94121390D01*
X177687089Y-94029721D01*
X177687885Y-93924834D01*
X177688494Y-93805804D01*
X177688939Y-93671710D01*
X177689243Y-93521627D01*
X177689430Y-93354633D01*
X177689524Y-93169804D01*
X177689548Y-92966217D01*
X177689525Y-92742950D01*
X177689480Y-92499078D01*
X177689437Y-92233679D01*
X177689432Y-92195296D01*
X177689389Y-91928318D01*
X177689318Y-91682998D01*
X177689213Y-91458417D01*
X177689066Y-91253655D01*
X177688869Y-91067794D01*
X177688616Y-90899912D01*
X177688300Y-90749092D01*
X177687913Y-90614413D01*
X177687447Y-90494956D01*
X177686897Y-90389801D01*
X177686253Y-90298029D01*
X177685511Y-90218721D01*
X177684661Y-90150957D01*
X177683697Y-90093818D01*
X177682611Y-90046383D01*
X177681397Y-90007734D01*
X177680047Y-89976951D01*
X177678555Y-89953115D01*
X177676911Y-89935306D01*
X177675111Y-89922605D01*
X177673145Y-89914092D01*
X177671477Y-89909734D01*
X177667906Y-89901272D01*
X177665270Y-89893503D01*
X177662634Y-89886398D01*
X177659062Y-89879927D01*
X177653621Y-89874061D01*
X177645375Y-89868771D01*
X177633390Y-89864026D01*
X177616731Y-89859798D01*
X177594463Y-89856057D01*
X177565652Y-89852773D01*
X177529363Y-89849917D01*
X177484661Y-89847460D01*
X177430611Y-89845371D01*
X177366279Y-89843622D01*
X177290730Y-89842183D01*
X177203030Y-89841024D01*
X177102243Y-89840117D01*
X176987434Y-89839431D01*
X176857670Y-89838937D01*
X176712015Y-89838605D01*
X176549535Y-89838407D01*
X176369295Y-89838313D01*
X176170360Y-89838292D01*
X175951796Y-89838315D01*
X175712668Y-89838354D01*
X175452040Y-89838378D01*
X175409889Y-89838378D01*
X175146992Y-89838364D01*
X174905732Y-89838339D01*
X174685165Y-89838329D01*
X174484352Y-89838358D01*
X174302349Y-89838452D01*
X174138216Y-89838638D01*
X173991011Y-89838941D01*
X173859792Y-89839386D01*
X173749867Y-89839966D01*
X173749867Y-90142803D01*
X173807711Y-90182593D01*
X173823479Y-90193764D01*
X173837441Y-90203834D01*
X173850784Y-90212862D01*
X173864693Y-90220903D01*
X173880356Y-90228014D01*
X173898958Y-90234253D01*
X173921686Y-90239675D01*
X173949727Y-90244338D01*
X173984267Y-90248299D01*
X174026492Y-90251615D01*
X174077589Y-90254341D01*
X174138744Y-90256536D01*
X174211144Y-90258255D01*
X174295975Y-90259556D01*
X174394422Y-90260495D01*
X174507674Y-90261130D01*
X174636916Y-90261516D01*
X174783334Y-90261712D01*
X174948116Y-90261773D01*
X175132447Y-90261757D01*
X175337513Y-90261720D01*
X175460133Y-90261711D01*
X175677082Y-90261735D01*
X175872642Y-90261769D01*
X176047999Y-90261757D01*
X176204341Y-90261642D01*
X176342857Y-90261370D01*
X176464734Y-90260882D01*
X176571160Y-90260124D01*
X176663322Y-90259038D01*
X176742409Y-90257569D01*
X176809608Y-90255660D01*
X176866107Y-90253256D01*
X176913093Y-90250299D01*
X176951755Y-90246734D01*
X176983280Y-90242505D01*
X177008855Y-90237554D01*
X177029670Y-90231827D01*
X177046911Y-90225267D01*
X177061765Y-90217817D01*
X177075422Y-90209421D01*
X177089069Y-90200024D01*
X177103893Y-90189568D01*
X177112783Y-90183477D01*
X177170400Y-90144704D01*
X177170400Y-90676268D01*
X177170365Y-90799517D01*
X177170215Y-90902013D01*
X177169878Y-90985580D01*
X177169286Y-91052044D01*
X177168367Y-91103229D01*
X177167051Y-91140959D01*
X177165269Y-91167060D01*
X177162951Y-91183356D01*
X177160026Y-91191672D01*
X177156424Y-91193832D01*
X177152075Y-91191661D01*
X177150645Y-91190465D01*
X177113573Y-91165315D01*
X177060772Y-91139417D01*
X176998770Y-91115808D01*
X176972357Y-91107539D01*
X176954416Y-91102922D01*
X176933355Y-91099021D01*
X176907089Y-91095752D01*
X176873532Y-91093034D01*
X176830599Y-91090785D01*
X176776204Y-91088923D01*
X176708262Y-91087364D01*
X176624688Y-91086028D01*
X176523395Y-91084831D01*
X176402300Y-91083692D01*
X176357600Y-91083315D01*
X176232449Y-91082298D01*
X176128082Y-91081540D01*
X176042707Y-91081097D01*
X175974533Y-91081030D01*
X175921765Y-91081395D01*
X175882614Y-91082252D01*
X175855285Y-91083659D01*
X175837986Y-91085675D01*
X175828926Y-91088357D01*
X175826312Y-91091764D01*
X175828351Y-91095956D01*
X175832667Y-91100429D01*
X175845602Y-91110784D01*
X175874676Y-91132842D01*
X175917759Y-91165043D01*
X175972718Y-91205826D01*
X176037423Y-91253630D01*
X176109742Y-91306895D01*
X176187544Y-91364060D01*
X176268698Y-91423563D01*
X176351072Y-91483845D01*
X176432536Y-91543345D01*
X176510957Y-91600502D01*
X176584204Y-91653755D01*
X176650147Y-91701543D01*
X176706654Y-91742307D01*
X176751593Y-91774484D01*
X176782834Y-91796515D01*
X176789466Y-91801083D01*
X176826369Y-91824004D01*
X176874359Y-91850812D01*
X176923897Y-91876211D01*
X176930577Y-91879432D01*
X176978772Y-91901110D01*
X177016334Y-91913696D01*
X177052160Y-91919426D01*
X177094200Y-91920544D01*
X177170400Y-91919910D01*
X177170400Y-93074349D01*
X177076669Y-92983185D01*
X177026775Y-92936388D01*
X176970295Y-92886101D01*
X176916026Y-92840056D01*
X176890673Y-92819631D01*
X176851128Y-92789193D01*
X176797916Y-92749138D01*
X176732667Y-92700639D01*
X176657011Y-92644865D01*
X176572577Y-92582989D01*
X176480994Y-92516181D01*
X176383892Y-92445613D01*
X176282901Y-92372455D01*
X176179650Y-92297879D01*
X176075768Y-92223056D01*
X175972885Y-92149157D01*
X175872631Y-92077354D01*
X175776636Y-92008816D01*
X175686527Y-91944716D01*
X175603936Y-91886225D01*
X175530492Y-91834514D01*
X175467824Y-91790753D01*
X175417561Y-91756115D01*
X175381334Y-91731770D01*
X175360771Y-91718889D01*
X175356668Y-91717131D01*
X175345342Y-91725090D01*
X175318162Y-91745885D01*
X175276829Y-91778153D01*
X175223044Y-91820530D01*
X175158506Y-91871653D01*
X175084918Y-91930159D01*
X175003978Y-91994686D01*
X174917388Y-92063869D01*
X174826848Y-92136347D01*
X174734060Y-92210754D01*
X174659702Y-92270483D01*
X174659702Y-93281489D01*
X174672659Y-93287398D01*
X174694908Y-93301728D01*
X174696391Y-93302775D01*
X174726544Y-93321562D01*
X174763375Y-93341209D01*
X174771511Y-93345108D01*
X174779940Y-93348644D01*
X174790059Y-93351770D01*
X174803260Y-93354514D01*
X174820938Y-93356908D01*
X174844484Y-93358981D01*
X174875293Y-93360765D01*
X174914757Y-93362288D01*
X174964269Y-93363581D01*
X175025223Y-93364674D01*
X175099011Y-93365597D01*
X175187028Y-93366381D01*
X175290665Y-93367055D01*
X175411316Y-93367650D01*
X175550374Y-93368195D01*
X175709232Y-93368721D01*
X175888089Y-93369255D01*
X176073207Y-93369794D01*
X176237145Y-93370228D01*
X176381303Y-93370491D01*
X176507079Y-93370516D01*
X176615871Y-93370235D01*
X176709077Y-93369581D01*
X176788097Y-93368486D01*
X176854328Y-93366882D01*
X176909170Y-93364703D01*
X176954021Y-93361881D01*
X176990278Y-93358349D01*
X177019341Y-93354039D01*
X177042609Y-93348883D01*
X177061479Y-93342815D01*
X177077351Y-93335767D01*
X177091622Y-93327671D01*
X177105691Y-93318460D01*
X177118158Y-93309960D01*
X177144452Y-93292824D01*
X177162037Y-93282678D01*
X177165257Y-93281489D01*
X177166334Y-93292396D01*
X177167335Y-93323589D01*
X177168235Y-93372777D01*
X177169010Y-93437667D01*
X177169637Y-93515970D01*
X177170091Y-93605393D01*
X177170349Y-93703644D01*
X177170400Y-93772555D01*
X177170180Y-93877548D01*
X177169548Y-93974390D01*
X177168549Y-94060893D01*
X177167227Y-94134868D01*
X177165626Y-94194126D01*
X177163791Y-94236480D01*
X177161765Y-94259740D01*
X177160493Y-94263622D01*
X177145591Y-94255924D01*
X177137560Y-94247926D01*
X177120434Y-94234754D01*
X177090183Y-94217515D01*
X177065622Y-94205593D01*
X177006711Y-94178955D01*
X175829845Y-94175880D01*
X174652978Y-94172805D01*
X174652978Y-93727147D01*
X174653142Y-93629330D01*
X174653611Y-93538936D01*
X174654347Y-93458370D01*
X174655316Y-93390038D01*
X174656480Y-93336344D01*
X174657803Y-93299695D01*
X174659249Y-93282496D01*
X174659702Y-93281489D01*
X174659702Y-92270483D01*
X174640722Y-92285730D01*
X174548537Y-92359910D01*
X174459204Y-92431931D01*
X174374424Y-92500431D01*
X174295898Y-92564045D01*
X174225326Y-92621412D01*
X174164409Y-92671167D01*
X174114847Y-92711948D01*
X174094178Y-92729112D01*
X173993516Y-92815404D01*
X173910259Y-92892003D01*
X173842438Y-92960817D01*
X173788089Y-93023752D01*
X173780722Y-93033133D01*
X173750117Y-93072644D01*
X173749867Y-91940884D01*
X173797844Y-91946173D01*
X173855188Y-91942870D01*
X173923463Y-91921339D01*
X174003212Y-91881365D01*
X174075495Y-91836057D01*
X174098140Y-91819839D01*
X174135696Y-91791786D01*
X174186021Y-91753570D01*
X174246973Y-91706863D01*
X174316411Y-91653339D01*
X174392194Y-91594669D01*
X174472180Y-91532525D01*
X174554228Y-91468579D01*
X174636196Y-91404505D01*
X174715943Y-91341973D01*
X174791327Y-91282657D01*
X174860207Y-91228229D01*
X174920442Y-91180361D01*
X174969889Y-91140725D01*
X175006408Y-91110994D01*
X175027858Y-91092839D01*
X175031156Y-91089780D01*
X175023149Y-91086921D01*
X174992855Y-91084707D01*
X174940556Y-91083143D01*
X174866531Y-91082233D01*
X174771063Y-91081980D01*
X174654434Y-91082387D01*
X174534445Y-91083296D01*
X174402333Y-91084618D01*
X174290594Y-91086143D01*
X174197025Y-91088119D01*
X174119419Y-91090794D01*
X174055574Y-91094418D01*
X174003283Y-91099239D01*
X173960344Y-91105506D01*
X173924551Y-91113468D01*
X173893700Y-91123373D01*
X173865586Y-91135469D01*
X173838005Y-91150007D01*
X173812966Y-91164689D01*
X173749867Y-91202686D01*
X173749867Y-90142803D01*
X173749867Y-89839966D01*
X173743617Y-89839999D01*
X173641544Y-89840805D01*
X173552633Y-89841830D01*
X173475941Y-89843100D01*
X173410527Y-89844640D01*
X173355449Y-89846476D01*
X173309765Y-89848633D01*
X173272534Y-89851137D01*
X173242813Y-89854013D01*
X173219662Y-89857287D01*
X173202139Y-89860985D01*
X173189301Y-89865131D01*
X173180208Y-89869753D01*
X173173918Y-89874874D01*
X173169488Y-89880522D01*
X173165978Y-89886721D01*
X173162445Y-89893496D01*
X173158876Y-89899492D01*
X173156300Y-89904725D01*
X173153972Y-89912901D01*
X173151878Y-89925114D01*
X173150007Y-89942459D01*
X173148347Y-89966031D01*
X173146884Y-89996923D01*
X173145608Y-90036232D01*
X173144504Y-90085050D01*
X173143561Y-90144473D01*
X173142767Y-90215596D01*
X173142109Y-90299512D01*
X173141575Y-90397317D01*
X173141153Y-90510106D01*
X173140829Y-90638971D01*
X173140592Y-90785009D01*
X173140430Y-90949314D01*
X173140330Y-91132980D01*
X173140280Y-91337103D01*
X173140267Y-91548247D01*
X173140267Y-93168600D01*
X173237054Y-93168600D01*
M02*
