G04 #@! TF.GenerationSoftware,KiCad,Pcbnew,(5.1.5)-3*
G04 #@! TF.CreationDate,2020-05-05T12:08:50+02:00*
G04 #@! TF.ProjectId,led_driver_test_board,6c65645f-6472-4697-9665-725f74657374,rev?*
G04 #@! TF.SameCoordinates,Original*
G04 #@! TF.FileFunction,Soldermask,Top*
G04 #@! TF.FilePolarity,Negative*
%FSLAX46Y46*%
G04 Gerber Fmt 4.6, Leading zero omitted, Abs format (unit mm)*
G04 Created by KiCad (PCBNEW (5.1.5)-3) date 2020-05-05 12:08:50*
%MOMM*%
%LPD*%
G04 APERTURE LIST*
%ADD10R,1.200000X0.900000*%
%ADD11C,0.100000*%
%ADD12C,4.300000*%
%ADD13O,1.700000X1.700000*%
%ADD14R,1.700000X1.700000*%
%ADD15R,1.060000X0.650000*%
%ADD16R,1.800000X2.500000*%
%ADD17R,0.650000X1.220000*%
%ADD18R,1.200000X2.200000*%
%ADD19R,5.800000X6.400000*%
%ADD20R,3.900000X1.200000*%
%ADD21R,3.500000X3.500000*%
%ADD22C,1.600000*%
%ADD23R,1.600000X1.600000*%
%ADD24O,1.727200X2.032000*%
%ADD25C,4.064000*%
G04 APERTURE END LIST*
D10*
X164498000Y-100465000D03*
X164498000Y-103765000D03*
X164498000Y-107965000D03*
X164498000Y-111265000D03*
D11*
G36*
X162203142Y-88416174D02*
G01*
X162226803Y-88419684D01*
X162250007Y-88425496D01*
X162272529Y-88433554D01*
X162294153Y-88443782D01*
X162314670Y-88456079D01*
X162333883Y-88470329D01*
X162351607Y-88486393D01*
X162367671Y-88504117D01*
X162381921Y-88523330D01*
X162394218Y-88543847D01*
X162404446Y-88565471D01*
X162412504Y-88587993D01*
X162418316Y-88611197D01*
X162421826Y-88634858D01*
X162423000Y-88658750D01*
X162423000Y-89571250D01*
X162421826Y-89595142D01*
X162418316Y-89618803D01*
X162412504Y-89642007D01*
X162404446Y-89664529D01*
X162394218Y-89686153D01*
X162381921Y-89706670D01*
X162367671Y-89725883D01*
X162351607Y-89743607D01*
X162333883Y-89759671D01*
X162314670Y-89773921D01*
X162294153Y-89786218D01*
X162272529Y-89796446D01*
X162250007Y-89804504D01*
X162226803Y-89810316D01*
X162203142Y-89813826D01*
X162179250Y-89815000D01*
X161691750Y-89815000D01*
X161667858Y-89813826D01*
X161644197Y-89810316D01*
X161620993Y-89804504D01*
X161598471Y-89796446D01*
X161576847Y-89786218D01*
X161556330Y-89773921D01*
X161537117Y-89759671D01*
X161519393Y-89743607D01*
X161503329Y-89725883D01*
X161489079Y-89706670D01*
X161476782Y-89686153D01*
X161466554Y-89664529D01*
X161458496Y-89642007D01*
X161452684Y-89618803D01*
X161449174Y-89595142D01*
X161448000Y-89571250D01*
X161448000Y-88658750D01*
X161449174Y-88634858D01*
X161452684Y-88611197D01*
X161458496Y-88587993D01*
X161466554Y-88565471D01*
X161476782Y-88543847D01*
X161489079Y-88523330D01*
X161503329Y-88504117D01*
X161519393Y-88486393D01*
X161537117Y-88470329D01*
X161556330Y-88456079D01*
X161576847Y-88443782D01*
X161598471Y-88433554D01*
X161620993Y-88425496D01*
X161644197Y-88419684D01*
X161667858Y-88416174D01*
X161691750Y-88415000D01*
X162179250Y-88415000D01*
X162203142Y-88416174D01*
G37*
G36*
X160328142Y-88416174D02*
G01*
X160351803Y-88419684D01*
X160375007Y-88425496D01*
X160397529Y-88433554D01*
X160419153Y-88443782D01*
X160439670Y-88456079D01*
X160458883Y-88470329D01*
X160476607Y-88486393D01*
X160492671Y-88504117D01*
X160506921Y-88523330D01*
X160519218Y-88543847D01*
X160529446Y-88565471D01*
X160537504Y-88587993D01*
X160543316Y-88611197D01*
X160546826Y-88634858D01*
X160548000Y-88658750D01*
X160548000Y-89571250D01*
X160546826Y-89595142D01*
X160543316Y-89618803D01*
X160537504Y-89642007D01*
X160529446Y-89664529D01*
X160519218Y-89686153D01*
X160506921Y-89706670D01*
X160492671Y-89725883D01*
X160476607Y-89743607D01*
X160458883Y-89759671D01*
X160439670Y-89773921D01*
X160419153Y-89786218D01*
X160397529Y-89796446D01*
X160375007Y-89804504D01*
X160351803Y-89810316D01*
X160328142Y-89813826D01*
X160304250Y-89815000D01*
X159816750Y-89815000D01*
X159792858Y-89813826D01*
X159769197Y-89810316D01*
X159745993Y-89804504D01*
X159723471Y-89796446D01*
X159701847Y-89786218D01*
X159681330Y-89773921D01*
X159662117Y-89759671D01*
X159644393Y-89743607D01*
X159628329Y-89725883D01*
X159614079Y-89706670D01*
X159601782Y-89686153D01*
X159591554Y-89664529D01*
X159583496Y-89642007D01*
X159577684Y-89618803D01*
X159574174Y-89595142D01*
X159573000Y-89571250D01*
X159573000Y-88658750D01*
X159574174Y-88634858D01*
X159577684Y-88611197D01*
X159583496Y-88587993D01*
X159591554Y-88565471D01*
X159601782Y-88543847D01*
X159614079Y-88523330D01*
X159628329Y-88504117D01*
X159644393Y-88486393D01*
X159662117Y-88470329D01*
X159681330Y-88456079D01*
X159701847Y-88443782D01*
X159723471Y-88433554D01*
X159745993Y-88425496D01*
X159769197Y-88419684D01*
X159792858Y-88416174D01*
X159816750Y-88415000D01*
X160304250Y-88415000D01*
X160328142Y-88416174D01*
G37*
G36*
X162203142Y-95916174D02*
G01*
X162226803Y-95919684D01*
X162250007Y-95925496D01*
X162272529Y-95933554D01*
X162294153Y-95943782D01*
X162314670Y-95956079D01*
X162333883Y-95970329D01*
X162351607Y-95986393D01*
X162367671Y-96004117D01*
X162381921Y-96023330D01*
X162394218Y-96043847D01*
X162404446Y-96065471D01*
X162412504Y-96087993D01*
X162418316Y-96111197D01*
X162421826Y-96134858D01*
X162423000Y-96158750D01*
X162423000Y-97071250D01*
X162421826Y-97095142D01*
X162418316Y-97118803D01*
X162412504Y-97142007D01*
X162404446Y-97164529D01*
X162394218Y-97186153D01*
X162381921Y-97206670D01*
X162367671Y-97225883D01*
X162351607Y-97243607D01*
X162333883Y-97259671D01*
X162314670Y-97273921D01*
X162294153Y-97286218D01*
X162272529Y-97296446D01*
X162250007Y-97304504D01*
X162226803Y-97310316D01*
X162203142Y-97313826D01*
X162179250Y-97315000D01*
X161691750Y-97315000D01*
X161667858Y-97313826D01*
X161644197Y-97310316D01*
X161620993Y-97304504D01*
X161598471Y-97296446D01*
X161576847Y-97286218D01*
X161556330Y-97273921D01*
X161537117Y-97259671D01*
X161519393Y-97243607D01*
X161503329Y-97225883D01*
X161489079Y-97206670D01*
X161476782Y-97186153D01*
X161466554Y-97164529D01*
X161458496Y-97142007D01*
X161452684Y-97118803D01*
X161449174Y-97095142D01*
X161448000Y-97071250D01*
X161448000Y-96158750D01*
X161449174Y-96134858D01*
X161452684Y-96111197D01*
X161458496Y-96087993D01*
X161466554Y-96065471D01*
X161476782Y-96043847D01*
X161489079Y-96023330D01*
X161503329Y-96004117D01*
X161519393Y-95986393D01*
X161537117Y-95970329D01*
X161556330Y-95956079D01*
X161576847Y-95943782D01*
X161598471Y-95933554D01*
X161620993Y-95925496D01*
X161644197Y-95919684D01*
X161667858Y-95916174D01*
X161691750Y-95915000D01*
X162179250Y-95915000D01*
X162203142Y-95916174D01*
G37*
G36*
X160328142Y-95916174D02*
G01*
X160351803Y-95919684D01*
X160375007Y-95925496D01*
X160397529Y-95933554D01*
X160419153Y-95943782D01*
X160439670Y-95956079D01*
X160458883Y-95970329D01*
X160476607Y-95986393D01*
X160492671Y-96004117D01*
X160506921Y-96023330D01*
X160519218Y-96043847D01*
X160529446Y-96065471D01*
X160537504Y-96087993D01*
X160543316Y-96111197D01*
X160546826Y-96134858D01*
X160548000Y-96158750D01*
X160548000Y-97071250D01*
X160546826Y-97095142D01*
X160543316Y-97118803D01*
X160537504Y-97142007D01*
X160529446Y-97164529D01*
X160519218Y-97186153D01*
X160506921Y-97206670D01*
X160492671Y-97225883D01*
X160476607Y-97243607D01*
X160458883Y-97259671D01*
X160439670Y-97273921D01*
X160419153Y-97286218D01*
X160397529Y-97296446D01*
X160375007Y-97304504D01*
X160351803Y-97310316D01*
X160328142Y-97313826D01*
X160304250Y-97315000D01*
X159816750Y-97315000D01*
X159792858Y-97313826D01*
X159769197Y-97310316D01*
X159745993Y-97304504D01*
X159723471Y-97296446D01*
X159701847Y-97286218D01*
X159681330Y-97273921D01*
X159662117Y-97259671D01*
X159644393Y-97243607D01*
X159628329Y-97225883D01*
X159614079Y-97206670D01*
X159601782Y-97186153D01*
X159591554Y-97164529D01*
X159583496Y-97142007D01*
X159577684Y-97118803D01*
X159574174Y-97095142D01*
X159573000Y-97071250D01*
X159573000Y-96158750D01*
X159574174Y-96134858D01*
X159577684Y-96111197D01*
X159583496Y-96087993D01*
X159591554Y-96065471D01*
X159601782Y-96043847D01*
X159614079Y-96023330D01*
X159628329Y-96004117D01*
X159644393Y-95986393D01*
X159662117Y-95970329D01*
X159681330Y-95956079D01*
X159701847Y-95943782D01*
X159723471Y-95933554D01*
X159745993Y-95925496D01*
X159769197Y-95919684D01*
X159792858Y-95916174D01*
X159816750Y-95915000D01*
X160304250Y-95915000D01*
X160328142Y-95916174D01*
G37*
G36*
X162203142Y-103416174D02*
G01*
X162226803Y-103419684D01*
X162250007Y-103425496D01*
X162272529Y-103433554D01*
X162294153Y-103443782D01*
X162314670Y-103456079D01*
X162333883Y-103470329D01*
X162351607Y-103486393D01*
X162367671Y-103504117D01*
X162381921Y-103523330D01*
X162394218Y-103543847D01*
X162404446Y-103565471D01*
X162412504Y-103587993D01*
X162418316Y-103611197D01*
X162421826Y-103634858D01*
X162423000Y-103658750D01*
X162423000Y-104571250D01*
X162421826Y-104595142D01*
X162418316Y-104618803D01*
X162412504Y-104642007D01*
X162404446Y-104664529D01*
X162394218Y-104686153D01*
X162381921Y-104706670D01*
X162367671Y-104725883D01*
X162351607Y-104743607D01*
X162333883Y-104759671D01*
X162314670Y-104773921D01*
X162294153Y-104786218D01*
X162272529Y-104796446D01*
X162250007Y-104804504D01*
X162226803Y-104810316D01*
X162203142Y-104813826D01*
X162179250Y-104815000D01*
X161691750Y-104815000D01*
X161667858Y-104813826D01*
X161644197Y-104810316D01*
X161620993Y-104804504D01*
X161598471Y-104796446D01*
X161576847Y-104786218D01*
X161556330Y-104773921D01*
X161537117Y-104759671D01*
X161519393Y-104743607D01*
X161503329Y-104725883D01*
X161489079Y-104706670D01*
X161476782Y-104686153D01*
X161466554Y-104664529D01*
X161458496Y-104642007D01*
X161452684Y-104618803D01*
X161449174Y-104595142D01*
X161448000Y-104571250D01*
X161448000Y-103658750D01*
X161449174Y-103634858D01*
X161452684Y-103611197D01*
X161458496Y-103587993D01*
X161466554Y-103565471D01*
X161476782Y-103543847D01*
X161489079Y-103523330D01*
X161503329Y-103504117D01*
X161519393Y-103486393D01*
X161537117Y-103470329D01*
X161556330Y-103456079D01*
X161576847Y-103443782D01*
X161598471Y-103433554D01*
X161620993Y-103425496D01*
X161644197Y-103419684D01*
X161667858Y-103416174D01*
X161691750Y-103415000D01*
X162179250Y-103415000D01*
X162203142Y-103416174D01*
G37*
G36*
X160328142Y-103416174D02*
G01*
X160351803Y-103419684D01*
X160375007Y-103425496D01*
X160397529Y-103433554D01*
X160419153Y-103443782D01*
X160439670Y-103456079D01*
X160458883Y-103470329D01*
X160476607Y-103486393D01*
X160492671Y-103504117D01*
X160506921Y-103523330D01*
X160519218Y-103543847D01*
X160529446Y-103565471D01*
X160537504Y-103587993D01*
X160543316Y-103611197D01*
X160546826Y-103634858D01*
X160548000Y-103658750D01*
X160548000Y-104571250D01*
X160546826Y-104595142D01*
X160543316Y-104618803D01*
X160537504Y-104642007D01*
X160529446Y-104664529D01*
X160519218Y-104686153D01*
X160506921Y-104706670D01*
X160492671Y-104725883D01*
X160476607Y-104743607D01*
X160458883Y-104759671D01*
X160439670Y-104773921D01*
X160419153Y-104786218D01*
X160397529Y-104796446D01*
X160375007Y-104804504D01*
X160351803Y-104810316D01*
X160328142Y-104813826D01*
X160304250Y-104815000D01*
X159816750Y-104815000D01*
X159792858Y-104813826D01*
X159769197Y-104810316D01*
X159745993Y-104804504D01*
X159723471Y-104796446D01*
X159701847Y-104786218D01*
X159681330Y-104773921D01*
X159662117Y-104759671D01*
X159644393Y-104743607D01*
X159628329Y-104725883D01*
X159614079Y-104706670D01*
X159601782Y-104686153D01*
X159591554Y-104664529D01*
X159583496Y-104642007D01*
X159577684Y-104618803D01*
X159574174Y-104595142D01*
X159573000Y-104571250D01*
X159573000Y-103658750D01*
X159574174Y-103634858D01*
X159577684Y-103611197D01*
X159583496Y-103587993D01*
X159591554Y-103565471D01*
X159601782Y-103543847D01*
X159614079Y-103523330D01*
X159628329Y-103504117D01*
X159644393Y-103486393D01*
X159662117Y-103470329D01*
X159681330Y-103456079D01*
X159701847Y-103443782D01*
X159723471Y-103433554D01*
X159745993Y-103425496D01*
X159769197Y-103419684D01*
X159792858Y-103416174D01*
X159816750Y-103415000D01*
X160304250Y-103415000D01*
X160328142Y-103416174D01*
G37*
G36*
X162203142Y-110916174D02*
G01*
X162226803Y-110919684D01*
X162250007Y-110925496D01*
X162272529Y-110933554D01*
X162294153Y-110943782D01*
X162314670Y-110956079D01*
X162333883Y-110970329D01*
X162351607Y-110986393D01*
X162367671Y-111004117D01*
X162381921Y-111023330D01*
X162394218Y-111043847D01*
X162404446Y-111065471D01*
X162412504Y-111087993D01*
X162418316Y-111111197D01*
X162421826Y-111134858D01*
X162423000Y-111158750D01*
X162423000Y-112071250D01*
X162421826Y-112095142D01*
X162418316Y-112118803D01*
X162412504Y-112142007D01*
X162404446Y-112164529D01*
X162394218Y-112186153D01*
X162381921Y-112206670D01*
X162367671Y-112225883D01*
X162351607Y-112243607D01*
X162333883Y-112259671D01*
X162314670Y-112273921D01*
X162294153Y-112286218D01*
X162272529Y-112296446D01*
X162250007Y-112304504D01*
X162226803Y-112310316D01*
X162203142Y-112313826D01*
X162179250Y-112315000D01*
X161691750Y-112315000D01*
X161667858Y-112313826D01*
X161644197Y-112310316D01*
X161620993Y-112304504D01*
X161598471Y-112296446D01*
X161576847Y-112286218D01*
X161556330Y-112273921D01*
X161537117Y-112259671D01*
X161519393Y-112243607D01*
X161503329Y-112225883D01*
X161489079Y-112206670D01*
X161476782Y-112186153D01*
X161466554Y-112164529D01*
X161458496Y-112142007D01*
X161452684Y-112118803D01*
X161449174Y-112095142D01*
X161448000Y-112071250D01*
X161448000Y-111158750D01*
X161449174Y-111134858D01*
X161452684Y-111111197D01*
X161458496Y-111087993D01*
X161466554Y-111065471D01*
X161476782Y-111043847D01*
X161489079Y-111023330D01*
X161503329Y-111004117D01*
X161519393Y-110986393D01*
X161537117Y-110970329D01*
X161556330Y-110956079D01*
X161576847Y-110943782D01*
X161598471Y-110933554D01*
X161620993Y-110925496D01*
X161644197Y-110919684D01*
X161667858Y-110916174D01*
X161691750Y-110915000D01*
X162179250Y-110915000D01*
X162203142Y-110916174D01*
G37*
G36*
X160328142Y-110916174D02*
G01*
X160351803Y-110919684D01*
X160375007Y-110925496D01*
X160397529Y-110933554D01*
X160419153Y-110943782D01*
X160439670Y-110956079D01*
X160458883Y-110970329D01*
X160476607Y-110986393D01*
X160492671Y-111004117D01*
X160506921Y-111023330D01*
X160519218Y-111043847D01*
X160529446Y-111065471D01*
X160537504Y-111087993D01*
X160543316Y-111111197D01*
X160546826Y-111134858D01*
X160548000Y-111158750D01*
X160548000Y-112071250D01*
X160546826Y-112095142D01*
X160543316Y-112118803D01*
X160537504Y-112142007D01*
X160529446Y-112164529D01*
X160519218Y-112186153D01*
X160506921Y-112206670D01*
X160492671Y-112225883D01*
X160476607Y-112243607D01*
X160458883Y-112259671D01*
X160439670Y-112273921D01*
X160419153Y-112286218D01*
X160397529Y-112296446D01*
X160375007Y-112304504D01*
X160351803Y-112310316D01*
X160328142Y-112313826D01*
X160304250Y-112315000D01*
X159816750Y-112315000D01*
X159792858Y-112313826D01*
X159769197Y-112310316D01*
X159745993Y-112304504D01*
X159723471Y-112296446D01*
X159701847Y-112286218D01*
X159681330Y-112273921D01*
X159662117Y-112259671D01*
X159644393Y-112243607D01*
X159628329Y-112225883D01*
X159614079Y-112206670D01*
X159601782Y-112186153D01*
X159591554Y-112164529D01*
X159583496Y-112142007D01*
X159577684Y-112118803D01*
X159574174Y-112095142D01*
X159573000Y-112071250D01*
X159573000Y-111158750D01*
X159574174Y-111134858D01*
X159577684Y-111111197D01*
X159583496Y-111087993D01*
X159591554Y-111065471D01*
X159601782Y-111043847D01*
X159614079Y-111023330D01*
X159628329Y-111004117D01*
X159644393Y-110986393D01*
X159662117Y-110970329D01*
X159681330Y-110956079D01*
X159701847Y-110943782D01*
X159723471Y-110933554D01*
X159745993Y-110925496D01*
X159769197Y-110919684D01*
X159792858Y-110916174D01*
X159816750Y-110915000D01*
X160304250Y-110915000D01*
X160328142Y-110916174D01*
G37*
D12*
X117298000Y-76965000D03*
D11*
G36*
X166703142Y-120166174D02*
G01*
X166726803Y-120169684D01*
X166750007Y-120175496D01*
X166772529Y-120183554D01*
X166794153Y-120193782D01*
X166814670Y-120206079D01*
X166833883Y-120220329D01*
X166851607Y-120236393D01*
X166867671Y-120254117D01*
X166881921Y-120273330D01*
X166894218Y-120293847D01*
X166904446Y-120315471D01*
X166912504Y-120337993D01*
X166918316Y-120361197D01*
X166921826Y-120384858D01*
X166923000Y-120408750D01*
X166923000Y-121321250D01*
X166921826Y-121345142D01*
X166918316Y-121368803D01*
X166912504Y-121392007D01*
X166904446Y-121414529D01*
X166894218Y-121436153D01*
X166881921Y-121456670D01*
X166867671Y-121475883D01*
X166851607Y-121493607D01*
X166833883Y-121509671D01*
X166814670Y-121523921D01*
X166794153Y-121536218D01*
X166772529Y-121546446D01*
X166750007Y-121554504D01*
X166726803Y-121560316D01*
X166703142Y-121563826D01*
X166679250Y-121565000D01*
X166191750Y-121565000D01*
X166167858Y-121563826D01*
X166144197Y-121560316D01*
X166120993Y-121554504D01*
X166098471Y-121546446D01*
X166076847Y-121536218D01*
X166056330Y-121523921D01*
X166037117Y-121509671D01*
X166019393Y-121493607D01*
X166003329Y-121475883D01*
X165989079Y-121456670D01*
X165976782Y-121436153D01*
X165966554Y-121414529D01*
X165958496Y-121392007D01*
X165952684Y-121368803D01*
X165949174Y-121345142D01*
X165948000Y-121321250D01*
X165948000Y-120408750D01*
X165949174Y-120384858D01*
X165952684Y-120361197D01*
X165958496Y-120337993D01*
X165966554Y-120315471D01*
X165976782Y-120293847D01*
X165989079Y-120273330D01*
X166003329Y-120254117D01*
X166019393Y-120236393D01*
X166037117Y-120220329D01*
X166056330Y-120206079D01*
X166076847Y-120193782D01*
X166098471Y-120183554D01*
X166120993Y-120175496D01*
X166144197Y-120169684D01*
X166167858Y-120166174D01*
X166191750Y-120165000D01*
X166679250Y-120165000D01*
X166703142Y-120166174D01*
G37*
G36*
X164828142Y-120166174D02*
G01*
X164851803Y-120169684D01*
X164875007Y-120175496D01*
X164897529Y-120183554D01*
X164919153Y-120193782D01*
X164939670Y-120206079D01*
X164958883Y-120220329D01*
X164976607Y-120236393D01*
X164992671Y-120254117D01*
X165006921Y-120273330D01*
X165019218Y-120293847D01*
X165029446Y-120315471D01*
X165037504Y-120337993D01*
X165043316Y-120361197D01*
X165046826Y-120384858D01*
X165048000Y-120408750D01*
X165048000Y-121321250D01*
X165046826Y-121345142D01*
X165043316Y-121368803D01*
X165037504Y-121392007D01*
X165029446Y-121414529D01*
X165019218Y-121436153D01*
X165006921Y-121456670D01*
X164992671Y-121475883D01*
X164976607Y-121493607D01*
X164958883Y-121509671D01*
X164939670Y-121523921D01*
X164919153Y-121536218D01*
X164897529Y-121546446D01*
X164875007Y-121554504D01*
X164851803Y-121560316D01*
X164828142Y-121563826D01*
X164804250Y-121565000D01*
X164316750Y-121565000D01*
X164292858Y-121563826D01*
X164269197Y-121560316D01*
X164245993Y-121554504D01*
X164223471Y-121546446D01*
X164201847Y-121536218D01*
X164181330Y-121523921D01*
X164162117Y-121509671D01*
X164144393Y-121493607D01*
X164128329Y-121475883D01*
X164114079Y-121456670D01*
X164101782Y-121436153D01*
X164091554Y-121414529D01*
X164083496Y-121392007D01*
X164077684Y-121368803D01*
X164074174Y-121345142D01*
X164073000Y-121321250D01*
X164073000Y-120408750D01*
X164074174Y-120384858D01*
X164077684Y-120361197D01*
X164083496Y-120337993D01*
X164091554Y-120315471D01*
X164101782Y-120293847D01*
X164114079Y-120273330D01*
X164128329Y-120254117D01*
X164144393Y-120236393D01*
X164162117Y-120220329D01*
X164181330Y-120206079D01*
X164201847Y-120193782D01*
X164223471Y-120183554D01*
X164245993Y-120175496D01*
X164269197Y-120169684D01*
X164292858Y-120166174D01*
X164316750Y-120165000D01*
X164804250Y-120165000D01*
X164828142Y-120166174D01*
G37*
G36*
X163203142Y-120166174D02*
G01*
X163226803Y-120169684D01*
X163250007Y-120175496D01*
X163272529Y-120183554D01*
X163294153Y-120193782D01*
X163314670Y-120206079D01*
X163333883Y-120220329D01*
X163351607Y-120236393D01*
X163367671Y-120254117D01*
X163381921Y-120273330D01*
X163394218Y-120293847D01*
X163404446Y-120315471D01*
X163412504Y-120337993D01*
X163418316Y-120361197D01*
X163421826Y-120384858D01*
X163423000Y-120408750D01*
X163423000Y-121321250D01*
X163421826Y-121345142D01*
X163418316Y-121368803D01*
X163412504Y-121392007D01*
X163404446Y-121414529D01*
X163394218Y-121436153D01*
X163381921Y-121456670D01*
X163367671Y-121475883D01*
X163351607Y-121493607D01*
X163333883Y-121509671D01*
X163314670Y-121523921D01*
X163294153Y-121536218D01*
X163272529Y-121546446D01*
X163250007Y-121554504D01*
X163226803Y-121560316D01*
X163203142Y-121563826D01*
X163179250Y-121565000D01*
X162691750Y-121565000D01*
X162667858Y-121563826D01*
X162644197Y-121560316D01*
X162620993Y-121554504D01*
X162598471Y-121546446D01*
X162576847Y-121536218D01*
X162556330Y-121523921D01*
X162537117Y-121509671D01*
X162519393Y-121493607D01*
X162503329Y-121475883D01*
X162489079Y-121456670D01*
X162476782Y-121436153D01*
X162466554Y-121414529D01*
X162458496Y-121392007D01*
X162452684Y-121368803D01*
X162449174Y-121345142D01*
X162448000Y-121321250D01*
X162448000Y-120408750D01*
X162449174Y-120384858D01*
X162452684Y-120361197D01*
X162458496Y-120337993D01*
X162466554Y-120315471D01*
X162476782Y-120293847D01*
X162489079Y-120273330D01*
X162503329Y-120254117D01*
X162519393Y-120236393D01*
X162537117Y-120220329D01*
X162556330Y-120206079D01*
X162576847Y-120193782D01*
X162598471Y-120183554D01*
X162620993Y-120175496D01*
X162644197Y-120169684D01*
X162667858Y-120166174D01*
X162691750Y-120165000D01*
X163179250Y-120165000D01*
X163203142Y-120166174D01*
G37*
G36*
X161328142Y-120166174D02*
G01*
X161351803Y-120169684D01*
X161375007Y-120175496D01*
X161397529Y-120183554D01*
X161419153Y-120193782D01*
X161439670Y-120206079D01*
X161458883Y-120220329D01*
X161476607Y-120236393D01*
X161492671Y-120254117D01*
X161506921Y-120273330D01*
X161519218Y-120293847D01*
X161529446Y-120315471D01*
X161537504Y-120337993D01*
X161543316Y-120361197D01*
X161546826Y-120384858D01*
X161548000Y-120408750D01*
X161548000Y-121321250D01*
X161546826Y-121345142D01*
X161543316Y-121368803D01*
X161537504Y-121392007D01*
X161529446Y-121414529D01*
X161519218Y-121436153D01*
X161506921Y-121456670D01*
X161492671Y-121475883D01*
X161476607Y-121493607D01*
X161458883Y-121509671D01*
X161439670Y-121523921D01*
X161419153Y-121536218D01*
X161397529Y-121546446D01*
X161375007Y-121554504D01*
X161351803Y-121560316D01*
X161328142Y-121563826D01*
X161304250Y-121565000D01*
X160816750Y-121565000D01*
X160792858Y-121563826D01*
X160769197Y-121560316D01*
X160745993Y-121554504D01*
X160723471Y-121546446D01*
X160701847Y-121536218D01*
X160681330Y-121523921D01*
X160662117Y-121509671D01*
X160644393Y-121493607D01*
X160628329Y-121475883D01*
X160614079Y-121456670D01*
X160601782Y-121436153D01*
X160591554Y-121414529D01*
X160583496Y-121392007D01*
X160577684Y-121368803D01*
X160574174Y-121345142D01*
X160573000Y-121321250D01*
X160573000Y-120408750D01*
X160574174Y-120384858D01*
X160577684Y-120361197D01*
X160583496Y-120337993D01*
X160591554Y-120315471D01*
X160601782Y-120293847D01*
X160614079Y-120273330D01*
X160628329Y-120254117D01*
X160644393Y-120236393D01*
X160662117Y-120220329D01*
X160681330Y-120206079D01*
X160701847Y-120193782D01*
X160723471Y-120183554D01*
X160745993Y-120175496D01*
X160769197Y-120169684D01*
X160792858Y-120166174D01*
X160816750Y-120165000D01*
X161304250Y-120165000D01*
X161328142Y-120166174D01*
G37*
D13*
X130223000Y-92655000D03*
X130223000Y-90115000D03*
D14*
X130223000Y-87575000D03*
D11*
G36*
X142499771Y-93829580D02*
G01*
X142521006Y-93832730D01*
X142541830Y-93837946D01*
X142562042Y-93845178D01*
X142581448Y-93854357D01*
X142599861Y-93865393D01*
X142617104Y-93878181D01*
X142633010Y-93892597D01*
X142995403Y-94254990D01*
X143009819Y-94270896D01*
X143022607Y-94288139D01*
X143033643Y-94306552D01*
X143042822Y-94325958D01*
X143050054Y-94346170D01*
X143055270Y-94366994D01*
X143058420Y-94388229D01*
X143059473Y-94409670D01*
X143058420Y-94431111D01*
X143055270Y-94452346D01*
X143050054Y-94473170D01*
X143042822Y-94493382D01*
X143033643Y-94512788D01*
X143022607Y-94531201D01*
X143009819Y-94548444D01*
X142995403Y-94564350D01*
X142686044Y-94873709D01*
X142670138Y-94888125D01*
X142652895Y-94900913D01*
X142634482Y-94911949D01*
X142615076Y-94921128D01*
X142594864Y-94928360D01*
X142574040Y-94933576D01*
X142552805Y-94936726D01*
X142531364Y-94937779D01*
X142509923Y-94936726D01*
X142488688Y-94933576D01*
X142467864Y-94928360D01*
X142447652Y-94921128D01*
X142428246Y-94911949D01*
X142409833Y-94900913D01*
X142392590Y-94888125D01*
X142376684Y-94873709D01*
X142014291Y-94511316D01*
X141999875Y-94495410D01*
X141987087Y-94478167D01*
X141976051Y-94459754D01*
X141966872Y-94440348D01*
X141959640Y-94420136D01*
X141954424Y-94399312D01*
X141951274Y-94378077D01*
X141950221Y-94356636D01*
X141951274Y-94335195D01*
X141954424Y-94313960D01*
X141959640Y-94293136D01*
X141966872Y-94272924D01*
X141976051Y-94253518D01*
X141987087Y-94235105D01*
X141999875Y-94217862D01*
X142014291Y-94201956D01*
X142323650Y-93892597D01*
X142339556Y-93878181D01*
X142356799Y-93865393D01*
X142375212Y-93854357D01*
X142394618Y-93845178D01*
X142414830Y-93837946D01*
X142435654Y-93832730D01*
X142456889Y-93829580D01*
X142478330Y-93828527D01*
X142499771Y-93829580D01*
G37*
G36*
X141386077Y-94943274D02*
G01*
X141407312Y-94946424D01*
X141428136Y-94951640D01*
X141448348Y-94958872D01*
X141467754Y-94968051D01*
X141486167Y-94979087D01*
X141503410Y-94991875D01*
X141519316Y-95006291D01*
X141881709Y-95368684D01*
X141896125Y-95384590D01*
X141908913Y-95401833D01*
X141919949Y-95420246D01*
X141929128Y-95439652D01*
X141936360Y-95459864D01*
X141941576Y-95480688D01*
X141944726Y-95501923D01*
X141945779Y-95523364D01*
X141944726Y-95544805D01*
X141941576Y-95566040D01*
X141936360Y-95586864D01*
X141929128Y-95607076D01*
X141919949Y-95626482D01*
X141908913Y-95644895D01*
X141896125Y-95662138D01*
X141881709Y-95678044D01*
X141572350Y-95987403D01*
X141556444Y-96001819D01*
X141539201Y-96014607D01*
X141520788Y-96025643D01*
X141501382Y-96034822D01*
X141481170Y-96042054D01*
X141460346Y-96047270D01*
X141439111Y-96050420D01*
X141417670Y-96051473D01*
X141396229Y-96050420D01*
X141374994Y-96047270D01*
X141354170Y-96042054D01*
X141333958Y-96034822D01*
X141314552Y-96025643D01*
X141296139Y-96014607D01*
X141278896Y-96001819D01*
X141262990Y-95987403D01*
X140900597Y-95625010D01*
X140886181Y-95609104D01*
X140873393Y-95591861D01*
X140862357Y-95573448D01*
X140853178Y-95554042D01*
X140845946Y-95533830D01*
X140840730Y-95513006D01*
X140837580Y-95491771D01*
X140836527Y-95470330D01*
X140837580Y-95448889D01*
X140840730Y-95427654D01*
X140845946Y-95406830D01*
X140853178Y-95386618D01*
X140862357Y-95367212D01*
X140873393Y-95348799D01*
X140886181Y-95331556D01*
X140900597Y-95315650D01*
X141209956Y-95006291D01*
X141225862Y-94991875D01*
X141243105Y-94979087D01*
X141261518Y-94968051D01*
X141280924Y-94958872D01*
X141301136Y-94951640D01*
X141321960Y-94946424D01*
X141343195Y-94943274D01*
X141364636Y-94942221D01*
X141386077Y-94943274D01*
G37*
G36*
X152228142Y-89566174D02*
G01*
X152251803Y-89569684D01*
X152275007Y-89575496D01*
X152297529Y-89583554D01*
X152319153Y-89593782D01*
X152339670Y-89606079D01*
X152358883Y-89620329D01*
X152376607Y-89636393D01*
X152392671Y-89654117D01*
X152406921Y-89673330D01*
X152419218Y-89693847D01*
X152429446Y-89715471D01*
X152437504Y-89737993D01*
X152443316Y-89761197D01*
X152446826Y-89784858D01*
X152448000Y-89808750D01*
X152448000Y-90296250D01*
X152446826Y-90320142D01*
X152443316Y-90343803D01*
X152437504Y-90367007D01*
X152429446Y-90389529D01*
X152419218Y-90411153D01*
X152406921Y-90431670D01*
X152392671Y-90450883D01*
X152376607Y-90468607D01*
X152358883Y-90484671D01*
X152339670Y-90498921D01*
X152319153Y-90511218D01*
X152297529Y-90521446D01*
X152275007Y-90529504D01*
X152251803Y-90535316D01*
X152228142Y-90538826D01*
X152204250Y-90540000D01*
X151291750Y-90540000D01*
X151267858Y-90538826D01*
X151244197Y-90535316D01*
X151220993Y-90529504D01*
X151198471Y-90521446D01*
X151176847Y-90511218D01*
X151156330Y-90498921D01*
X151137117Y-90484671D01*
X151119393Y-90468607D01*
X151103329Y-90450883D01*
X151089079Y-90431670D01*
X151076782Y-90411153D01*
X151066554Y-90389529D01*
X151058496Y-90367007D01*
X151052684Y-90343803D01*
X151049174Y-90320142D01*
X151048000Y-90296250D01*
X151048000Y-89808750D01*
X151049174Y-89784858D01*
X151052684Y-89761197D01*
X151058496Y-89737993D01*
X151066554Y-89715471D01*
X151076782Y-89693847D01*
X151089079Y-89673330D01*
X151103329Y-89654117D01*
X151119393Y-89636393D01*
X151137117Y-89620329D01*
X151156330Y-89606079D01*
X151176847Y-89593782D01*
X151198471Y-89583554D01*
X151220993Y-89575496D01*
X151244197Y-89569684D01*
X151267858Y-89566174D01*
X151291750Y-89565000D01*
X152204250Y-89565000D01*
X152228142Y-89566174D01*
G37*
G36*
X152228142Y-87691174D02*
G01*
X152251803Y-87694684D01*
X152275007Y-87700496D01*
X152297529Y-87708554D01*
X152319153Y-87718782D01*
X152339670Y-87731079D01*
X152358883Y-87745329D01*
X152376607Y-87761393D01*
X152392671Y-87779117D01*
X152406921Y-87798330D01*
X152419218Y-87818847D01*
X152429446Y-87840471D01*
X152437504Y-87862993D01*
X152443316Y-87886197D01*
X152446826Y-87909858D01*
X152448000Y-87933750D01*
X152448000Y-88421250D01*
X152446826Y-88445142D01*
X152443316Y-88468803D01*
X152437504Y-88492007D01*
X152429446Y-88514529D01*
X152419218Y-88536153D01*
X152406921Y-88556670D01*
X152392671Y-88575883D01*
X152376607Y-88593607D01*
X152358883Y-88609671D01*
X152339670Y-88623921D01*
X152319153Y-88636218D01*
X152297529Y-88646446D01*
X152275007Y-88654504D01*
X152251803Y-88660316D01*
X152228142Y-88663826D01*
X152204250Y-88665000D01*
X151291750Y-88665000D01*
X151267858Y-88663826D01*
X151244197Y-88660316D01*
X151220993Y-88654504D01*
X151198471Y-88646446D01*
X151176847Y-88636218D01*
X151156330Y-88623921D01*
X151137117Y-88609671D01*
X151119393Y-88593607D01*
X151103329Y-88575883D01*
X151089079Y-88556670D01*
X151076782Y-88536153D01*
X151066554Y-88514529D01*
X151058496Y-88492007D01*
X151052684Y-88468803D01*
X151049174Y-88445142D01*
X151048000Y-88421250D01*
X151048000Y-87933750D01*
X151049174Y-87909858D01*
X151052684Y-87886197D01*
X151058496Y-87862993D01*
X151066554Y-87840471D01*
X151076782Y-87818847D01*
X151089079Y-87798330D01*
X151103329Y-87779117D01*
X151119393Y-87761393D01*
X151137117Y-87745329D01*
X151156330Y-87731079D01*
X151176847Y-87718782D01*
X151198471Y-87708554D01*
X151220993Y-87700496D01*
X151244197Y-87694684D01*
X151267858Y-87691174D01*
X151291750Y-87690000D01*
X152204250Y-87690000D01*
X152228142Y-87691174D01*
G37*
G36*
X152228142Y-84191174D02*
G01*
X152251803Y-84194684D01*
X152275007Y-84200496D01*
X152297529Y-84208554D01*
X152319153Y-84218782D01*
X152339670Y-84231079D01*
X152358883Y-84245329D01*
X152376607Y-84261393D01*
X152392671Y-84279117D01*
X152406921Y-84298330D01*
X152419218Y-84318847D01*
X152429446Y-84340471D01*
X152437504Y-84362993D01*
X152443316Y-84386197D01*
X152446826Y-84409858D01*
X152448000Y-84433750D01*
X152448000Y-84921250D01*
X152446826Y-84945142D01*
X152443316Y-84968803D01*
X152437504Y-84992007D01*
X152429446Y-85014529D01*
X152419218Y-85036153D01*
X152406921Y-85056670D01*
X152392671Y-85075883D01*
X152376607Y-85093607D01*
X152358883Y-85109671D01*
X152339670Y-85123921D01*
X152319153Y-85136218D01*
X152297529Y-85146446D01*
X152275007Y-85154504D01*
X152251803Y-85160316D01*
X152228142Y-85163826D01*
X152204250Y-85165000D01*
X151291750Y-85165000D01*
X151267858Y-85163826D01*
X151244197Y-85160316D01*
X151220993Y-85154504D01*
X151198471Y-85146446D01*
X151176847Y-85136218D01*
X151156330Y-85123921D01*
X151137117Y-85109671D01*
X151119393Y-85093607D01*
X151103329Y-85075883D01*
X151089079Y-85056670D01*
X151076782Y-85036153D01*
X151066554Y-85014529D01*
X151058496Y-84992007D01*
X151052684Y-84968803D01*
X151049174Y-84945142D01*
X151048000Y-84921250D01*
X151048000Y-84433750D01*
X151049174Y-84409858D01*
X151052684Y-84386197D01*
X151058496Y-84362993D01*
X151066554Y-84340471D01*
X151076782Y-84318847D01*
X151089079Y-84298330D01*
X151103329Y-84279117D01*
X151119393Y-84261393D01*
X151137117Y-84245329D01*
X151156330Y-84231079D01*
X151176847Y-84218782D01*
X151198471Y-84208554D01*
X151220993Y-84200496D01*
X151244197Y-84194684D01*
X151267858Y-84191174D01*
X151291750Y-84190000D01*
X152204250Y-84190000D01*
X152228142Y-84191174D01*
G37*
G36*
X152228142Y-86066174D02*
G01*
X152251803Y-86069684D01*
X152275007Y-86075496D01*
X152297529Y-86083554D01*
X152319153Y-86093782D01*
X152339670Y-86106079D01*
X152358883Y-86120329D01*
X152376607Y-86136393D01*
X152392671Y-86154117D01*
X152406921Y-86173330D01*
X152419218Y-86193847D01*
X152429446Y-86215471D01*
X152437504Y-86237993D01*
X152443316Y-86261197D01*
X152446826Y-86284858D01*
X152448000Y-86308750D01*
X152448000Y-86796250D01*
X152446826Y-86820142D01*
X152443316Y-86843803D01*
X152437504Y-86867007D01*
X152429446Y-86889529D01*
X152419218Y-86911153D01*
X152406921Y-86931670D01*
X152392671Y-86950883D01*
X152376607Y-86968607D01*
X152358883Y-86984671D01*
X152339670Y-86998921D01*
X152319153Y-87011218D01*
X152297529Y-87021446D01*
X152275007Y-87029504D01*
X152251803Y-87035316D01*
X152228142Y-87038826D01*
X152204250Y-87040000D01*
X151291750Y-87040000D01*
X151267858Y-87038826D01*
X151244197Y-87035316D01*
X151220993Y-87029504D01*
X151198471Y-87021446D01*
X151176847Y-87011218D01*
X151156330Y-86998921D01*
X151137117Y-86984671D01*
X151119393Y-86968607D01*
X151103329Y-86950883D01*
X151089079Y-86931670D01*
X151076782Y-86911153D01*
X151066554Y-86889529D01*
X151058496Y-86867007D01*
X151052684Y-86843803D01*
X151049174Y-86820142D01*
X151048000Y-86796250D01*
X151048000Y-86308750D01*
X151049174Y-86284858D01*
X151052684Y-86261197D01*
X151058496Y-86237993D01*
X151066554Y-86215471D01*
X151076782Y-86193847D01*
X151089079Y-86173330D01*
X151103329Y-86154117D01*
X151119393Y-86136393D01*
X151137117Y-86120329D01*
X151156330Y-86106079D01*
X151176847Y-86093782D01*
X151198471Y-86083554D01*
X151220993Y-86075496D01*
X151244197Y-86069684D01*
X151267858Y-86066174D01*
X151291750Y-86065000D01*
X152204250Y-86065000D01*
X152228142Y-86066174D01*
G37*
G36*
X152228142Y-97066174D02*
G01*
X152251803Y-97069684D01*
X152275007Y-97075496D01*
X152297529Y-97083554D01*
X152319153Y-97093782D01*
X152339670Y-97106079D01*
X152358883Y-97120329D01*
X152376607Y-97136393D01*
X152392671Y-97154117D01*
X152406921Y-97173330D01*
X152419218Y-97193847D01*
X152429446Y-97215471D01*
X152437504Y-97237993D01*
X152443316Y-97261197D01*
X152446826Y-97284858D01*
X152448000Y-97308750D01*
X152448000Y-97796250D01*
X152446826Y-97820142D01*
X152443316Y-97843803D01*
X152437504Y-97867007D01*
X152429446Y-97889529D01*
X152419218Y-97911153D01*
X152406921Y-97931670D01*
X152392671Y-97950883D01*
X152376607Y-97968607D01*
X152358883Y-97984671D01*
X152339670Y-97998921D01*
X152319153Y-98011218D01*
X152297529Y-98021446D01*
X152275007Y-98029504D01*
X152251803Y-98035316D01*
X152228142Y-98038826D01*
X152204250Y-98040000D01*
X151291750Y-98040000D01*
X151267858Y-98038826D01*
X151244197Y-98035316D01*
X151220993Y-98029504D01*
X151198471Y-98021446D01*
X151176847Y-98011218D01*
X151156330Y-97998921D01*
X151137117Y-97984671D01*
X151119393Y-97968607D01*
X151103329Y-97950883D01*
X151089079Y-97931670D01*
X151076782Y-97911153D01*
X151066554Y-97889529D01*
X151058496Y-97867007D01*
X151052684Y-97843803D01*
X151049174Y-97820142D01*
X151048000Y-97796250D01*
X151048000Y-97308750D01*
X151049174Y-97284858D01*
X151052684Y-97261197D01*
X151058496Y-97237993D01*
X151066554Y-97215471D01*
X151076782Y-97193847D01*
X151089079Y-97173330D01*
X151103329Y-97154117D01*
X151119393Y-97136393D01*
X151137117Y-97120329D01*
X151156330Y-97106079D01*
X151176847Y-97093782D01*
X151198471Y-97083554D01*
X151220993Y-97075496D01*
X151244197Y-97069684D01*
X151267858Y-97066174D01*
X151291750Y-97065000D01*
X152204250Y-97065000D01*
X152228142Y-97066174D01*
G37*
G36*
X152228142Y-95191174D02*
G01*
X152251803Y-95194684D01*
X152275007Y-95200496D01*
X152297529Y-95208554D01*
X152319153Y-95218782D01*
X152339670Y-95231079D01*
X152358883Y-95245329D01*
X152376607Y-95261393D01*
X152392671Y-95279117D01*
X152406921Y-95298330D01*
X152419218Y-95318847D01*
X152429446Y-95340471D01*
X152437504Y-95362993D01*
X152443316Y-95386197D01*
X152446826Y-95409858D01*
X152448000Y-95433750D01*
X152448000Y-95921250D01*
X152446826Y-95945142D01*
X152443316Y-95968803D01*
X152437504Y-95992007D01*
X152429446Y-96014529D01*
X152419218Y-96036153D01*
X152406921Y-96056670D01*
X152392671Y-96075883D01*
X152376607Y-96093607D01*
X152358883Y-96109671D01*
X152339670Y-96123921D01*
X152319153Y-96136218D01*
X152297529Y-96146446D01*
X152275007Y-96154504D01*
X152251803Y-96160316D01*
X152228142Y-96163826D01*
X152204250Y-96165000D01*
X151291750Y-96165000D01*
X151267858Y-96163826D01*
X151244197Y-96160316D01*
X151220993Y-96154504D01*
X151198471Y-96146446D01*
X151176847Y-96136218D01*
X151156330Y-96123921D01*
X151137117Y-96109671D01*
X151119393Y-96093607D01*
X151103329Y-96075883D01*
X151089079Y-96056670D01*
X151076782Y-96036153D01*
X151066554Y-96014529D01*
X151058496Y-95992007D01*
X151052684Y-95968803D01*
X151049174Y-95945142D01*
X151048000Y-95921250D01*
X151048000Y-95433750D01*
X151049174Y-95409858D01*
X151052684Y-95386197D01*
X151058496Y-95362993D01*
X151066554Y-95340471D01*
X151076782Y-95318847D01*
X151089079Y-95298330D01*
X151103329Y-95279117D01*
X151119393Y-95261393D01*
X151137117Y-95245329D01*
X151156330Y-95231079D01*
X151176847Y-95218782D01*
X151198471Y-95208554D01*
X151220993Y-95200496D01*
X151244197Y-95194684D01*
X151267858Y-95191174D01*
X151291750Y-95190000D01*
X152204250Y-95190000D01*
X152228142Y-95191174D01*
G37*
G36*
X152228142Y-91691174D02*
G01*
X152251803Y-91694684D01*
X152275007Y-91700496D01*
X152297529Y-91708554D01*
X152319153Y-91718782D01*
X152339670Y-91731079D01*
X152358883Y-91745329D01*
X152376607Y-91761393D01*
X152392671Y-91779117D01*
X152406921Y-91798330D01*
X152419218Y-91818847D01*
X152429446Y-91840471D01*
X152437504Y-91862993D01*
X152443316Y-91886197D01*
X152446826Y-91909858D01*
X152448000Y-91933750D01*
X152448000Y-92421250D01*
X152446826Y-92445142D01*
X152443316Y-92468803D01*
X152437504Y-92492007D01*
X152429446Y-92514529D01*
X152419218Y-92536153D01*
X152406921Y-92556670D01*
X152392671Y-92575883D01*
X152376607Y-92593607D01*
X152358883Y-92609671D01*
X152339670Y-92623921D01*
X152319153Y-92636218D01*
X152297529Y-92646446D01*
X152275007Y-92654504D01*
X152251803Y-92660316D01*
X152228142Y-92663826D01*
X152204250Y-92665000D01*
X151291750Y-92665000D01*
X151267858Y-92663826D01*
X151244197Y-92660316D01*
X151220993Y-92654504D01*
X151198471Y-92646446D01*
X151176847Y-92636218D01*
X151156330Y-92623921D01*
X151137117Y-92609671D01*
X151119393Y-92593607D01*
X151103329Y-92575883D01*
X151089079Y-92556670D01*
X151076782Y-92536153D01*
X151066554Y-92514529D01*
X151058496Y-92492007D01*
X151052684Y-92468803D01*
X151049174Y-92445142D01*
X151048000Y-92421250D01*
X151048000Y-91933750D01*
X151049174Y-91909858D01*
X151052684Y-91886197D01*
X151058496Y-91862993D01*
X151066554Y-91840471D01*
X151076782Y-91818847D01*
X151089079Y-91798330D01*
X151103329Y-91779117D01*
X151119393Y-91761393D01*
X151137117Y-91745329D01*
X151156330Y-91731079D01*
X151176847Y-91718782D01*
X151198471Y-91708554D01*
X151220993Y-91700496D01*
X151244197Y-91694684D01*
X151267858Y-91691174D01*
X151291750Y-91690000D01*
X152204250Y-91690000D01*
X152228142Y-91691174D01*
G37*
G36*
X152228142Y-93566174D02*
G01*
X152251803Y-93569684D01*
X152275007Y-93575496D01*
X152297529Y-93583554D01*
X152319153Y-93593782D01*
X152339670Y-93606079D01*
X152358883Y-93620329D01*
X152376607Y-93636393D01*
X152392671Y-93654117D01*
X152406921Y-93673330D01*
X152419218Y-93693847D01*
X152429446Y-93715471D01*
X152437504Y-93737993D01*
X152443316Y-93761197D01*
X152446826Y-93784858D01*
X152448000Y-93808750D01*
X152448000Y-94296250D01*
X152446826Y-94320142D01*
X152443316Y-94343803D01*
X152437504Y-94367007D01*
X152429446Y-94389529D01*
X152419218Y-94411153D01*
X152406921Y-94431670D01*
X152392671Y-94450883D01*
X152376607Y-94468607D01*
X152358883Y-94484671D01*
X152339670Y-94498921D01*
X152319153Y-94511218D01*
X152297529Y-94521446D01*
X152275007Y-94529504D01*
X152251803Y-94535316D01*
X152228142Y-94538826D01*
X152204250Y-94540000D01*
X151291750Y-94540000D01*
X151267858Y-94538826D01*
X151244197Y-94535316D01*
X151220993Y-94529504D01*
X151198471Y-94521446D01*
X151176847Y-94511218D01*
X151156330Y-94498921D01*
X151137117Y-94484671D01*
X151119393Y-94468607D01*
X151103329Y-94450883D01*
X151089079Y-94431670D01*
X151076782Y-94411153D01*
X151066554Y-94389529D01*
X151058496Y-94367007D01*
X151052684Y-94343803D01*
X151049174Y-94320142D01*
X151048000Y-94296250D01*
X151048000Y-93808750D01*
X151049174Y-93784858D01*
X151052684Y-93761197D01*
X151058496Y-93737993D01*
X151066554Y-93715471D01*
X151076782Y-93693847D01*
X151089079Y-93673330D01*
X151103329Y-93654117D01*
X151119393Y-93636393D01*
X151137117Y-93620329D01*
X151156330Y-93606079D01*
X151176847Y-93593782D01*
X151198471Y-93583554D01*
X151220993Y-93575496D01*
X151244197Y-93569684D01*
X151267858Y-93566174D01*
X151291750Y-93565000D01*
X152204250Y-93565000D01*
X152228142Y-93566174D01*
G37*
G36*
X152228142Y-104566174D02*
G01*
X152251803Y-104569684D01*
X152275007Y-104575496D01*
X152297529Y-104583554D01*
X152319153Y-104593782D01*
X152339670Y-104606079D01*
X152358883Y-104620329D01*
X152376607Y-104636393D01*
X152392671Y-104654117D01*
X152406921Y-104673330D01*
X152419218Y-104693847D01*
X152429446Y-104715471D01*
X152437504Y-104737993D01*
X152443316Y-104761197D01*
X152446826Y-104784858D01*
X152448000Y-104808750D01*
X152448000Y-105296250D01*
X152446826Y-105320142D01*
X152443316Y-105343803D01*
X152437504Y-105367007D01*
X152429446Y-105389529D01*
X152419218Y-105411153D01*
X152406921Y-105431670D01*
X152392671Y-105450883D01*
X152376607Y-105468607D01*
X152358883Y-105484671D01*
X152339670Y-105498921D01*
X152319153Y-105511218D01*
X152297529Y-105521446D01*
X152275007Y-105529504D01*
X152251803Y-105535316D01*
X152228142Y-105538826D01*
X152204250Y-105540000D01*
X151291750Y-105540000D01*
X151267858Y-105538826D01*
X151244197Y-105535316D01*
X151220993Y-105529504D01*
X151198471Y-105521446D01*
X151176847Y-105511218D01*
X151156330Y-105498921D01*
X151137117Y-105484671D01*
X151119393Y-105468607D01*
X151103329Y-105450883D01*
X151089079Y-105431670D01*
X151076782Y-105411153D01*
X151066554Y-105389529D01*
X151058496Y-105367007D01*
X151052684Y-105343803D01*
X151049174Y-105320142D01*
X151048000Y-105296250D01*
X151048000Y-104808750D01*
X151049174Y-104784858D01*
X151052684Y-104761197D01*
X151058496Y-104737993D01*
X151066554Y-104715471D01*
X151076782Y-104693847D01*
X151089079Y-104673330D01*
X151103329Y-104654117D01*
X151119393Y-104636393D01*
X151137117Y-104620329D01*
X151156330Y-104606079D01*
X151176847Y-104593782D01*
X151198471Y-104583554D01*
X151220993Y-104575496D01*
X151244197Y-104569684D01*
X151267858Y-104566174D01*
X151291750Y-104565000D01*
X152204250Y-104565000D01*
X152228142Y-104566174D01*
G37*
G36*
X152228142Y-102691174D02*
G01*
X152251803Y-102694684D01*
X152275007Y-102700496D01*
X152297529Y-102708554D01*
X152319153Y-102718782D01*
X152339670Y-102731079D01*
X152358883Y-102745329D01*
X152376607Y-102761393D01*
X152392671Y-102779117D01*
X152406921Y-102798330D01*
X152419218Y-102818847D01*
X152429446Y-102840471D01*
X152437504Y-102862993D01*
X152443316Y-102886197D01*
X152446826Y-102909858D01*
X152448000Y-102933750D01*
X152448000Y-103421250D01*
X152446826Y-103445142D01*
X152443316Y-103468803D01*
X152437504Y-103492007D01*
X152429446Y-103514529D01*
X152419218Y-103536153D01*
X152406921Y-103556670D01*
X152392671Y-103575883D01*
X152376607Y-103593607D01*
X152358883Y-103609671D01*
X152339670Y-103623921D01*
X152319153Y-103636218D01*
X152297529Y-103646446D01*
X152275007Y-103654504D01*
X152251803Y-103660316D01*
X152228142Y-103663826D01*
X152204250Y-103665000D01*
X151291750Y-103665000D01*
X151267858Y-103663826D01*
X151244197Y-103660316D01*
X151220993Y-103654504D01*
X151198471Y-103646446D01*
X151176847Y-103636218D01*
X151156330Y-103623921D01*
X151137117Y-103609671D01*
X151119393Y-103593607D01*
X151103329Y-103575883D01*
X151089079Y-103556670D01*
X151076782Y-103536153D01*
X151066554Y-103514529D01*
X151058496Y-103492007D01*
X151052684Y-103468803D01*
X151049174Y-103445142D01*
X151048000Y-103421250D01*
X151048000Y-102933750D01*
X151049174Y-102909858D01*
X151052684Y-102886197D01*
X151058496Y-102862993D01*
X151066554Y-102840471D01*
X151076782Y-102818847D01*
X151089079Y-102798330D01*
X151103329Y-102779117D01*
X151119393Y-102761393D01*
X151137117Y-102745329D01*
X151156330Y-102731079D01*
X151176847Y-102718782D01*
X151198471Y-102708554D01*
X151220993Y-102700496D01*
X151244197Y-102694684D01*
X151267858Y-102691174D01*
X151291750Y-102690000D01*
X152204250Y-102690000D01*
X152228142Y-102691174D01*
G37*
G36*
X152228142Y-99191174D02*
G01*
X152251803Y-99194684D01*
X152275007Y-99200496D01*
X152297529Y-99208554D01*
X152319153Y-99218782D01*
X152339670Y-99231079D01*
X152358883Y-99245329D01*
X152376607Y-99261393D01*
X152392671Y-99279117D01*
X152406921Y-99298330D01*
X152419218Y-99318847D01*
X152429446Y-99340471D01*
X152437504Y-99362993D01*
X152443316Y-99386197D01*
X152446826Y-99409858D01*
X152448000Y-99433750D01*
X152448000Y-99921250D01*
X152446826Y-99945142D01*
X152443316Y-99968803D01*
X152437504Y-99992007D01*
X152429446Y-100014529D01*
X152419218Y-100036153D01*
X152406921Y-100056670D01*
X152392671Y-100075883D01*
X152376607Y-100093607D01*
X152358883Y-100109671D01*
X152339670Y-100123921D01*
X152319153Y-100136218D01*
X152297529Y-100146446D01*
X152275007Y-100154504D01*
X152251803Y-100160316D01*
X152228142Y-100163826D01*
X152204250Y-100165000D01*
X151291750Y-100165000D01*
X151267858Y-100163826D01*
X151244197Y-100160316D01*
X151220993Y-100154504D01*
X151198471Y-100146446D01*
X151176847Y-100136218D01*
X151156330Y-100123921D01*
X151137117Y-100109671D01*
X151119393Y-100093607D01*
X151103329Y-100075883D01*
X151089079Y-100056670D01*
X151076782Y-100036153D01*
X151066554Y-100014529D01*
X151058496Y-99992007D01*
X151052684Y-99968803D01*
X151049174Y-99945142D01*
X151048000Y-99921250D01*
X151048000Y-99433750D01*
X151049174Y-99409858D01*
X151052684Y-99386197D01*
X151058496Y-99362993D01*
X151066554Y-99340471D01*
X151076782Y-99318847D01*
X151089079Y-99298330D01*
X151103329Y-99279117D01*
X151119393Y-99261393D01*
X151137117Y-99245329D01*
X151156330Y-99231079D01*
X151176847Y-99218782D01*
X151198471Y-99208554D01*
X151220993Y-99200496D01*
X151244197Y-99194684D01*
X151267858Y-99191174D01*
X151291750Y-99190000D01*
X152204250Y-99190000D01*
X152228142Y-99191174D01*
G37*
G36*
X152228142Y-101066174D02*
G01*
X152251803Y-101069684D01*
X152275007Y-101075496D01*
X152297529Y-101083554D01*
X152319153Y-101093782D01*
X152339670Y-101106079D01*
X152358883Y-101120329D01*
X152376607Y-101136393D01*
X152392671Y-101154117D01*
X152406921Y-101173330D01*
X152419218Y-101193847D01*
X152429446Y-101215471D01*
X152437504Y-101237993D01*
X152443316Y-101261197D01*
X152446826Y-101284858D01*
X152448000Y-101308750D01*
X152448000Y-101796250D01*
X152446826Y-101820142D01*
X152443316Y-101843803D01*
X152437504Y-101867007D01*
X152429446Y-101889529D01*
X152419218Y-101911153D01*
X152406921Y-101931670D01*
X152392671Y-101950883D01*
X152376607Y-101968607D01*
X152358883Y-101984671D01*
X152339670Y-101998921D01*
X152319153Y-102011218D01*
X152297529Y-102021446D01*
X152275007Y-102029504D01*
X152251803Y-102035316D01*
X152228142Y-102038826D01*
X152204250Y-102040000D01*
X151291750Y-102040000D01*
X151267858Y-102038826D01*
X151244197Y-102035316D01*
X151220993Y-102029504D01*
X151198471Y-102021446D01*
X151176847Y-102011218D01*
X151156330Y-101998921D01*
X151137117Y-101984671D01*
X151119393Y-101968607D01*
X151103329Y-101950883D01*
X151089079Y-101931670D01*
X151076782Y-101911153D01*
X151066554Y-101889529D01*
X151058496Y-101867007D01*
X151052684Y-101843803D01*
X151049174Y-101820142D01*
X151048000Y-101796250D01*
X151048000Y-101308750D01*
X151049174Y-101284858D01*
X151052684Y-101261197D01*
X151058496Y-101237993D01*
X151066554Y-101215471D01*
X151076782Y-101193847D01*
X151089079Y-101173330D01*
X151103329Y-101154117D01*
X151119393Y-101136393D01*
X151137117Y-101120329D01*
X151156330Y-101106079D01*
X151176847Y-101093782D01*
X151198471Y-101083554D01*
X151220993Y-101075496D01*
X151244197Y-101069684D01*
X151267858Y-101066174D01*
X151291750Y-101065000D01*
X152204250Y-101065000D01*
X152228142Y-101066174D01*
G37*
G36*
X152228142Y-112066174D02*
G01*
X152251803Y-112069684D01*
X152275007Y-112075496D01*
X152297529Y-112083554D01*
X152319153Y-112093782D01*
X152339670Y-112106079D01*
X152358883Y-112120329D01*
X152376607Y-112136393D01*
X152392671Y-112154117D01*
X152406921Y-112173330D01*
X152419218Y-112193847D01*
X152429446Y-112215471D01*
X152437504Y-112237993D01*
X152443316Y-112261197D01*
X152446826Y-112284858D01*
X152448000Y-112308750D01*
X152448000Y-112796250D01*
X152446826Y-112820142D01*
X152443316Y-112843803D01*
X152437504Y-112867007D01*
X152429446Y-112889529D01*
X152419218Y-112911153D01*
X152406921Y-112931670D01*
X152392671Y-112950883D01*
X152376607Y-112968607D01*
X152358883Y-112984671D01*
X152339670Y-112998921D01*
X152319153Y-113011218D01*
X152297529Y-113021446D01*
X152275007Y-113029504D01*
X152251803Y-113035316D01*
X152228142Y-113038826D01*
X152204250Y-113040000D01*
X151291750Y-113040000D01*
X151267858Y-113038826D01*
X151244197Y-113035316D01*
X151220993Y-113029504D01*
X151198471Y-113021446D01*
X151176847Y-113011218D01*
X151156330Y-112998921D01*
X151137117Y-112984671D01*
X151119393Y-112968607D01*
X151103329Y-112950883D01*
X151089079Y-112931670D01*
X151076782Y-112911153D01*
X151066554Y-112889529D01*
X151058496Y-112867007D01*
X151052684Y-112843803D01*
X151049174Y-112820142D01*
X151048000Y-112796250D01*
X151048000Y-112308750D01*
X151049174Y-112284858D01*
X151052684Y-112261197D01*
X151058496Y-112237993D01*
X151066554Y-112215471D01*
X151076782Y-112193847D01*
X151089079Y-112173330D01*
X151103329Y-112154117D01*
X151119393Y-112136393D01*
X151137117Y-112120329D01*
X151156330Y-112106079D01*
X151176847Y-112093782D01*
X151198471Y-112083554D01*
X151220993Y-112075496D01*
X151244197Y-112069684D01*
X151267858Y-112066174D01*
X151291750Y-112065000D01*
X152204250Y-112065000D01*
X152228142Y-112066174D01*
G37*
G36*
X152228142Y-110191174D02*
G01*
X152251803Y-110194684D01*
X152275007Y-110200496D01*
X152297529Y-110208554D01*
X152319153Y-110218782D01*
X152339670Y-110231079D01*
X152358883Y-110245329D01*
X152376607Y-110261393D01*
X152392671Y-110279117D01*
X152406921Y-110298330D01*
X152419218Y-110318847D01*
X152429446Y-110340471D01*
X152437504Y-110362993D01*
X152443316Y-110386197D01*
X152446826Y-110409858D01*
X152448000Y-110433750D01*
X152448000Y-110921250D01*
X152446826Y-110945142D01*
X152443316Y-110968803D01*
X152437504Y-110992007D01*
X152429446Y-111014529D01*
X152419218Y-111036153D01*
X152406921Y-111056670D01*
X152392671Y-111075883D01*
X152376607Y-111093607D01*
X152358883Y-111109671D01*
X152339670Y-111123921D01*
X152319153Y-111136218D01*
X152297529Y-111146446D01*
X152275007Y-111154504D01*
X152251803Y-111160316D01*
X152228142Y-111163826D01*
X152204250Y-111165000D01*
X151291750Y-111165000D01*
X151267858Y-111163826D01*
X151244197Y-111160316D01*
X151220993Y-111154504D01*
X151198471Y-111146446D01*
X151176847Y-111136218D01*
X151156330Y-111123921D01*
X151137117Y-111109671D01*
X151119393Y-111093607D01*
X151103329Y-111075883D01*
X151089079Y-111056670D01*
X151076782Y-111036153D01*
X151066554Y-111014529D01*
X151058496Y-110992007D01*
X151052684Y-110968803D01*
X151049174Y-110945142D01*
X151048000Y-110921250D01*
X151048000Y-110433750D01*
X151049174Y-110409858D01*
X151052684Y-110386197D01*
X151058496Y-110362993D01*
X151066554Y-110340471D01*
X151076782Y-110318847D01*
X151089079Y-110298330D01*
X151103329Y-110279117D01*
X151119393Y-110261393D01*
X151137117Y-110245329D01*
X151156330Y-110231079D01*
X151176847Y-110218782D01*
X151198471Y-110208554D01*
X151220993Y-110200496D01*
X151244197Y-110194684D01*
X151267858Y-110191174D01*
X151291750Y-110190000D01*
X152204250Y-110190000D01*
X152228142Y-110191174D01*
G37*
G36*
X152228142Y-106691174D02*
G01*
X152251803Y-106694684D01*
X152275007Y-106700496D01*
X152297529Y-106708554D01*
X152319153Y-106718782D01*
X152339670Y-106731079D01*
X152358883Y-106745329D01*
X152376607Y-106761393D01*
X152392671Y-106779117D01*
X152406921Y-106798330D01*
X152419218Y-106818847D01*
X152429446Y-106840471D01*
X152437504Y-106862993D01*
X152443316Y-106886197D01*
X152446826Y-106909858D01*
X152448000Y-106933750D01*
X152448000Y-107421250D01*
X152446826Y-107445142D01*
X152443316Y-107468803D01*
X152437504Y-107492007D01*
X152429446Y-107514529D01*
X152419218Y-107536153D01*
X152406921Y-107556670D01*
X152392671Y-107575883D01*
X152376607Y-107593607D01*
X152358883Y-107609671D01*
X152339670Y-107623921D01*
X152319153Y-107636218D01*
X152297529Y-107646446D01*
X152275007Y-107654504D01*
X152251803Y-107660316D01*
X152228142Y-107663826D01*
X152204250Y-107665000D01*
X151291750Y-107665000D01*
X151267858Y-107663826D01*
X151244197Y-107660316D01*
X151220993Y-107654504D01*
X151198471Y-107646446D01*
X151176847Y-107636218D01*
X151156330Y-107623921D01*
X151137117Y-107609671D01*
X151119393Y-107593607D01*
X151103329Y-107575883D01*
X151089079Y-107556670D01*
X151076782Y-107536153D01*
X151066554Y-107514529D01*
X151058496Y-107492007D01*
X151052684Y-107468803D01*
X151049174Y-107445142D01*
X151048000Y-107421250D01*
X151048000Y-106933750D01*
X151049174Y-106909858D01*
X151052684Y-106886197D01*
X151058496Y-106862993D01*
X151066554Y-106840471D01*
X151076782Y-106818847D01*
X151089079Y-106798330D01*
X151103329Y-106779117D01*
X151119393Y-106761393D01*
X151137117Y-106745329D01*
X151156330Y-106731079D01*
X151176847Y-106718782D01*
X151198471Y-106708554D01*
X151220993Y-106700496D01*
X151244197Y-106694684D01*
X151267858Y-106691174D01*
X151291750Y-106690000D01*
X152204250Y-106690000D01*
X152228142Y-106691174D01*
G37*
G36*
X152228142Y-108566174D02*
G01*
X152251803Y-108569684D01*
X152275007Y-108575496D01*
X152297529Y-108583554D01*
X152319153Y-108593782D01*
X152339670Y-108606079D01*
X152358883Y-108620329D01*
X152376607Y-108636393D01*
X152392671Y-108654117D01*
X152406921Y-108673330D01*
X152419218Y-108693847D01*
X152429446Y-108715471D01*
X152437504Y-108737993D01*
X152443316Y-108761197D01*
X152446826Y-108784858D01*
X152448000Y-108808750D01*
X152448000Y-109296250D01*
X152446826Y-109320142D01*
X152443316Y-109343803D01*
X152437504Y-109367007D01*
X152429446Y-109389529D01*
X152419218Y-109411153D01*
X152406921Y-109431670D01*
X152392671Y-109450883D01*
X152376607Y-109468607D01*
X152358883Y-109484671D01*
X152339670Y-109498921D01*
X152319153Y-109511218D01*
X152297529Y-109521446D01*
X152275007Y-109529504D01*
X152251803Y-109535316D01*
X152228142Y-109538826D01*
X152204250Y-109540000D01*
X151291750Y-109540000D01*
X151267858Y-109538826D01*
X151244197Y-109535316D01*
X151220993Y-109529504D01*
X151198471Y-109521446D01*
X151176847Y-109511218D01*
X151156330Y-109498921D01*
X151137117Y-109484671D01*
X151119393Y-109468607D01*
X151103329Y-109450883D01*
X151089079Y-109431670D01*
X151076782Y-109411153D01*
X151066554Y-109389529D01*
X151058496Y-109367007D01*
X151052684Y-109343803D01*
X151049174Y-109320142D01*
X151048000Y-109296250D01*
X151048000Y-108808750D01*
X151049174Y-108784858D01*
X151052684Y-108761197D01*
X151058496Y-108737993D01*
X151066554Y-108715471D01*
X151076782Y-108693847D01*
X151089079Y-108673330D01*
X151103329Y-108654117D01*
X151119393Y-108636393D01*
X151137117Y-108620329D01*
X151156330Y-108606079D01*
X151176847Y-108593782D01*
X151198471Y-108583554D01*
X151220993Y-108575496D01*
X151244197Y-108569684D01*
X151267858Y-108566174D01*
X151291750Y-108565000D01*
X152204250Y-108565000D01*
X152228142Y-108566174D01*
G37*
D15*
X127648000Y-102665000D03*
X127648000Y-104565000D03*
X125448000Y-104565000D03*
X125448000Y-103615000D03*
X125448000Y-102665000D03*
D11*
G36*
X136318621Y-84223311D02*
G01*
X136495398Y-84046534D01*
X137414637Y-84965773D01*
X137237860Y-85142550D01*
X136318621Y-84223311D01*
G37*
G36*
X135965068Y-84576864D02*
G01*
X136141845Y-84400087D01*
X137061084Y-85319326D01*
X136884307Y-85496103D01*
X135965068Y-84576864D01*
G37*
G36*
X135611514Y-84930418D02*
G01*
X135788291Y-84753641D01*
X136707530Y-85672880D01*
X136530753Y-85849657D01*
X135611514Y-84930418D01*
G37*
G36*
X135257961Y-85283971D02*
G01*
X135434738Y-85107194D01*
X136353977Y-86026433D01*
X136177200Y-86203210D01*
X135257961Y-85283971D01*
G37*
G36*
X134904408Y-85637524D02*
G01*
X135081185Y-85460747D01*
X136000424Y-86379986D01*
X135823647Y-86556763D01*
X134904408Y-85637524D01*
G37*
G36*
X134550854Y-85991078D02*
G01*
X134727631Y-85814301D01*
X135646870Y-86733540D01*
X135470093Y-86910317D01*
X134550854Y-85991078D01*
G37*
G36*
X134197301Y-86344631D02*
G01*
X134374078Y-86167854D01*
X135293317Y-87087093D01*
X135116540Y-87263870D01*
X134197301Y-86344631D01*
G37*
G36*
X133843747Y-86698185D02*
G01*
X134020524Y-86521408D01*
X134939763Y-87440647D01*
X134762986Y-87617424D01*
X133843747Y-86698185D01*
G37*
G36*
X133490194Y-87051738D02*
G01*
X133666971Y-86874961D01*
X134586210Y-87794200D01*
X134409433Y-87970977D01*
X133490194Y-87051738D01*
G37*
G36*
X133136641Y-87405291D02*
G01*
X133313418Y-87228514D01*
X134232657Y-88147753D01*
X134055880Y-88324530D01*
X133136641Y-87405291D01*
G37*
G36*
X132783087Y-87758845D02*
G01*
X132959864Y-87582068D01*
X133879103Y-88501307D01*
X133702326Y-88678084D01*
X132783087Y-87758845D01*
G37*
G36*
X132429534Y-88112398D02*
G01*
X132606311Y-87935621D01*
X133525550Y-88854860D01*
X133348773Y-89031637D01*
X132429534Y-88112398D01*
G37*
G36*
X132606311Y-91294379D02*
G01*
X132429534Y-91117602D01*
X133348773Y-90198363D01*
X133525550Y-90375140D01*
X132606311Y-91294379D01*
G37*
G36*
X132959864Y-91647932D02*
G01*
X132783087Y-91471155D01*
X133702326Y-90551916D01*
X133879103Y-90728693D01*
X132959864Y-91647932D01*
G37*
G36*
X133313418Y-92001486D02*
G01*
X133136641Y-91824709D01*
X134055880Y-90905470D01*
X134232657Y-91082247D01*
X133313418Y-92001486D01*
G37*
G36*
X133666971Y-92355039D02*
G01*
X133490194Y-92178262D01*
X134409433Y-91259023D01*
X134586210Y-91435800D01*
X133666971Y-92355039D01*
G37*
G36*
X134020524Y-92708592D02*
G01*
X133843747Y-92531815D01*
X134762986Y-91612576D01*
X134939763Y-91789353D01*
X134020524Y-92708592D01*
G37*
G36*
X134374078Y-93062146D02*
G01*
X134197301Y-92885369D01*
X135116540Y-91966130D01*
X135293317Y-92142907D01*
X134374078Y-93062146D01*
G37*
G36*
X134727631Y-93415699D02*
G01*
X134550854Y-93238922D01*
X135470093Y-92319683D01*
X135646870Y-92496460D01*
X134727631Y-93415699D01*
G37*
G36*
X135081185Y-93769253D02*
G01*
X134904408Y-93592476D01*
X135823647Y-92673237D01*
X136000424Y-92850014D01*
X135081185Y-93769253D01*
G37*
G36*
X135434738Y-94122806D02*
G01*
X135257961Y-93946029D01*
X136177200Y-93026790D01*
X136353977Y-93203567D01*
X135434738Y-94122806D01*
G37*
G36*
X135788291Y-94476359D02*
G01*
X135611514Y-94299582D01*
X136530753Y-93380343D01*
X136707530Y-93557120D01*
X135788291Y-94476359D01*
G37*
G36*
X136141845Y-94829913D02*
G01*
X135965068Y-94653136D01*
X136884307Y-93733897D01*
X137061084Y-93910674D01*
X136141845Y-94829913D01*
G37*
G36*
X136495398Y-95183466D02*
G01*
X136318621Y-95006689D01*
X137237860Y-94087450D01*
X137414637Y-94264227D01*
X136495398Y-95183466D01*
G37*
G36*
X138581363Y-94264227D02*
G01*
X138758140Y-94087450D01*
X139677379Y-95006689D01*
X139500602Y-95183466D01*
X138581363Y-94264227D01*
G37*
G36*
X138934916Y-93910674D02*
G01*
X139111693Y-93733897D01*
X140030932Y-94653136D01*
X139854155Y-94829913D01*
X138934916Y-93910674D01*
G37*
G36*
X139288470Y-93557120D02*
G01*
X139465247Y-93380343D01*
X140384486Y-94299582D01*
X140207709Y-94476359D01*
X139288470Y-93557120D01*
G37*
G36*
X139642023Y-93203567D02*
G01*
X139818800Y-93026790D01*
X140738039Y-93946029D01*
X140561262Y-94122806D01*
X139642023Y-93203567D01*
G37*
G36*
X139995576Y-92850014D02*
G01*
X140172353Y-92673237D01*
X141091592Y-93592476D01*
X140914815Y-93769253D01*
X139995576Y-92850014D01*
G37*
G36*
X140349130Y-92496460D02*
G01*
X140525907Y-92319683D01*
X141445146Y-93238922D01*
X141268369Y-93415699D01*
X140349130Y-92496460D01*
G37*
G36*
X140702683Y-92142907D02*
G01*
X140879460Y-91966130D01*
X141798699Y-92885369D01*
X141621922Y-93062146D01*
X140702683Y-92142907D01*
G37*
G36*
X141056237Y-91789353D02*
G01*
X141233014Y-91612576D01*
X142152253Y-92531815D01*
X141975476Y-92708592D01*
X141056237Y-91789353D01*
G37*
G36*
X141409790Y-91435800D02*
G01*
X141586567Y-91259023D01*
X142505806Y-92178262D01*
X142329029Y-92355039D01*
X141409790Y-91435800D01*
G37*
G36*
X141763343Y-91082247D02*
G01*
X141940120Y-90905470D01*
X142859359Y-91824709D01*
X142682582Y-92001486D01*
X141763343Y-91082247D01*
G37*
G36*
X142116897Y-90728693D02*
G01*
X142293674Y-90551916D01*
X143212913Y-91471155D01*
X143036136Y-91647932D01*
X142116897Y-90728693D01*
G37*
G36*
X142470450Y-90375140D02*
G01*
X142647227Y-90198363D01*
X143566466Y-91117602D01*
X143389689Y-91294379D01*
X142470450Y-90375140D01*
G37*
G36*
X142647227Y-89031637D02*
G01*
X142470450Y-88854860D01*
X143389689Y-87935621D01*
X143566466Y-88112398D01*
X142647227Y-89031637D01*
G37*
G36*
X142293674Y-88678084D02*
G01*
X142116897Y-88501307D01*
X143036136Y-87582068D01*
X143212913Y-87758845D01*
X142293674Y-88678084D01*
G37*
G36*
X141940120Y-88324530D02*
G01*
X141763343Y-88147753D01*
X142682582Y-87228514D01*
X142859359Y-87405291D01*
X141940120Y-88324530D01*
G37*
G36*
X141586567Y-87970977D02*
G01*
X141409790Y-87794200D01*
X142329029Y-86874961D01*
X142505806Y-87051738D01*
X141586567Y-87970977D01*
G37*
G36*
X141233014Y-87617424D02*
G01*
X141056237Y-87440647D01*
X141975476Y-86521408D01*
X142152253Y-86698185D01*
X141233014Y-87617424D01*
G37*
G36*
X140879460Y-87263870D02*
G01*
X140702683Y-87087093D01*
X141621922Y-86167854D01*
X141798699Y-86344631D01*
X140879460Y-87263870D01*
G37*
G36*
X140525907Y-86910317D02*
G01*
X140349130Y-86733540D01*
X141268369Y-85814301D01*
X141445146Y-85991078D01*
X140525907Y-86910317D01*
G37*
G36*
X140172353Y-86556763D02*
G01*
X139995576Y-86379986D01*
X140914815Y-85460747D01*
X141091592Y-85637524D01*
X140172353Y-86556763D01*
G37*
G36*
X139818800Y-86203210D02*
G01*
X139642023Y-86026433D01*
X140561262Y-85107194D01*
X140738039Y-85283971D01*
X139818800Y-86203210D01*
G37*
G36*
X139465247Y-85849657D02*
G01*
X139288470Y-85672880D01*
X140207709Y-84753641D01*
X140384486Y-84930418D01*
X139465247Y-85849657D01*
G37*
G36*
X139111693Y-85496103D02*
G01*
X138934916Y-85319326D01*
X139854155Y-84400087D01*
X140030932Y-84576864D01*
X139111693Y-85496103D01*
G37*
G36*
X138758140Y-85142550D02*
G01*
X138581363Y-84965773D01*
X139500602Y-84046534D01*
X139677379Y-84223311D01*
X138758140Y-85142550D01*
G37*
G36*
X127753142Y-100166174D02*
G01*
X127776803Y-100169684D01*
X127800007Y-100175496D01*
X127822529Y-100183554D01*
X127844153Y-100193782D01*
X127864670Y-100206079D01*
X127883883Y-100220329D01*
X127901607Y-100236393D01*
X127917671Y-100254117D01*
X127931921Y-100273330D01*
X127944218Y-100293847D01*
X127954446Y-100315471D01*
X127962504Y-100337993D01*
X127968316Y-100361197D01*
X127971826Y-100384858D01*
X127973000Y-100408750D01*
X127973000Y-101321250D01*
X127971826Y-101345142D01*
X127968316Y-101368803D01*
X127962504Y-101392007D01*
X127954446Y-101414529D01*
X127944218Y-101436153D01*
X127931921Y-101456670D01*
X127917671Y-101475883D01*
X127901607Y-101493607D01*
X127883883Y-101509671D01*
X127864670Y-101523921D01*
X127844153Y-101536218D01*
X127822529Y-101546446D01*
X127800007Y-101554504D01*
X127776803Y-101560316D01*
X127753142Y-101563826D01*
X127729250Y-101565000D01*
X127241750Y-101565000D01*
X127217858Y-101563826D01*
X127194197Y-101560316D01*
X127170993Y-101554504D01*
X127148471Y-101546446D01*
X127126847Y-101536218D01*
X127106330Y-101523921D01*
X127087117Y-101509671D01*
X127069393Y-101493607D01*
X127053329Y-101475883D01*
X127039079Y-101456670D01*
X127026782Y-101436153D01*
X127016554Y-101414529D01*
X127008496Y-101392007D01*
X127002684Y-101368803D01*
X126999174Y-101345142D01*
X126998000Y-101321250D01*
X126998000Y-100408750D01*
X126999174Y-100384858D01*
X127002684Y-100361197D01*
X127008496Y-100337993D01*
X127016554Y-100315471D01*
X127026782Y-100293847D01*
X127039079Y-100273330D01*
X127053329Y-100254117D01*
X127069393Y-100236393D01*
X127087117Y-100220329D01*
X127106330Y-100206079D01*
X127126847Y-100193782D01*
X127148471Y-100183554D01*
X127170993Y-100175496D01*
X127194197Y-100169684D01*
X127217858Y-100166174D01*
X127241750Y-100165000D01*
X127729250Y-100165000D01*
X127753142Y-100166174D01*
G37*
G36*
X125878142Y-100166174D02*
G01*
X125901803Y-100169684D01*
X125925007Y-100175496D01*
X125947529Y-100183554D01*
X125969153Y-100193782D01*
X125989670Y-100206079D01*
X126008883Y-100220329D01*
X126026607Y-100236393D01*
X126042671Y-100254117D01*
X126056921Y-100273330D01*
X126069218Y-100293847D01*
X126079446Y-100315471D01*
X126087504Y-100337993D01*
X126093316Y-100361197D01*
X126096826Y-100384858D01*
X126098000Y-100408750D01*
X126098000Y-101321250D01*
X126096826Y-101345142D01*
X126093316Y-101368803D01*
X126087504Y-101392007D01*
X126079446Y-101414529D01*
X126069218Y-101436153D01*
X126056921Y-101456670D01*
X126042671Y-101475883D01*
X126026607Y-101493607D01*
X126008883Y-101509671D01*
X125989670Y-101523921D01*
X125969153Y-101536218D01*
X125947529Y-101546446D01*
X125925007Y-101554504D01*
X125901803Y-101560316D01*
X125878142Y-101563826D01*
X125854250Y-101565000D01*
X125366750Y-101565000D01*
X125342858Y-101563826D01*
X125319197Y-101560316D01*
X125295993Y-101554504D01*
X125273471Y-101546446D01*
X125251847Y-101536218D01*
X125231330Y-101523921D01*
X125212117Y-101509671D01*
X125194393Y-101493607D01*
X125178329Y-101475883D01*
X125164079Y-101456670D01*
X125151782Y-101436153D01*
X125141554Y-101414529D01*
X125133496Y-101392007D01*
X125127684Y-101368803D01*
X125124174Y-101345142D01*
X125123000Y-101321250D01*
X125123000Y-100408750D01*
X125124174Y-100384858D01*
X125127684Y-100361197D01*
X125133496Y-100337993D01*
X125141554Y-100315471D01*
X125151782Y-100293847D01*
X125164079Y-100273330D01*
X125178329Y-100254117D01*
X125194393Y-100236393D01*
X125212117Y-100220329D01*
X125231330Y-100206079D01*
X125251847Y-100193782D01*
X125273471Y-100183554D01*
X125295993Y-100175496D01*
X125319197Y-100169684D01*
X125342858Y-100166174D01*
X125366750Y-100165000D01*
X125854250Y-100165000D01*
X125878142Y-100166174D01*
G37*
G36*
X128347504Y-105741204D02*
G01*
X128371773Y-105744804D01*
X128395571Y-105750765D01*
X128418671Y-105759030D01*
X128440849Y-105769520D01*
X128461893Y-105782133D01*
X128481598Y-105796747D01*
X128499777Y-105813223D01*
X128516253Y-105831402D01*
X128530867Y-105851107D01*
X128543480Y-105872151D01*
X128553970Y-105894329D01*
X128562235Y-105917429D01*
X128568196Y-105941227D01*
X128571796Y-105965496D01*
X128573000Y-105990000D01*
X128573000Y-107240000D01*
X128571796Y-107264504D01*
X128568196Y-107288773D01*
X128562235Y-107312571D01*
X128553970Y-107335671D01*
X128543480Y-107357849D01*
X128530867Y-107378893D01*
X128516253Y-107398598D01*
X128499777Y-107416777D01*
X128481598Y-107433253D01*
X128461893Y-107447867D01*
X128440849Y-107460480D01*
X128418671Y-107470970D01*
X128395571Y-107479235D01*
X128371773Y-107485196D01*
X128347504Y-107488796D01*
X128323000Y-107490000D01*
X127573000Y-107490000D01*
X127548496Y-107488796D01*
X127524227Y-107485196D01*
X127500429Y-107479235D01*
X127477329Y-107470970D01*
X127455151Y-107460480D01*
X127434107Y-107447867D01*
X127414402Y-107433253D01*
X127396223Y-107416777D01*
X127379747Y-107398598D01*
X127365133Y-107378893D01*
X127352520Y-107357849D01*
X127342030Y-107335671D01*
X127333765Y-107312571D01*
X127327804Y-107288773D01*
X127324204Y-107264504D01*
X127323000Y-107240000D01*
X127323000Y-105990000D01*
X127324204Y-105965496D01*
X127327804Y-105941227D01*
X127333765Y-105917429D01*
X127342030Y-105894329D01*
X127352520Y-105872151D01*
X127365133Y-105851107D01*
X127379747Y-105831402D01*
X127396223Y-105813223D01*
X127414402Y-105796747D01*
X127434107Y-105782133D01*
X127455151Y-105769520D01*
X127477329Y-105759030D01*
X127500429Y-105750765D01*
X127524227Y-105744804D01*
X127548496Y-105741204D01*
X127573000Y-105740000D01*
X128323000Y-105740000D01*
X128347504Y-105741204D01*
G37*
G36*
X125547504Y-105741204D02*
G01*
X125571773Y-105744804D01*
X125595571Y-105750765D01*
X125618671Y-105759030D01*
X125640849Y-105769520D01*
X125661893Y-105782133D01*
X125681598Y-105796747D01*
X125699777Y-105813223D01*
X125716253Y-105831402D01*
X125730867Y-105851107D01*
X125743480Y-105872151D01*
X125753970Y-105894329D01*
X125762235Y-105917429D01*
X125768196Y-105941227D01*
X125771796Y-105965496D01*
X125773000Y-105990000D01*
X125773000Y-107240000D01*
X125771796Y-107264504D01*
X125768196Y-107288773D01*
X125762235Y-107312571D01*
X125753970Y-107335671D01*
X125743480Y-107357849D01*
X125730867Y-107378893D01*
X125716253Y-107398598D01*
X125699777Y-107416777D01*
X125681598Y-107433253D01*
X125661893Y-107447867D01*
X125640849Y-107460480D01*
X125618671Y-107470970D01*
X125595571Y-107479235D01*
X125571773Y-107485196D01*
X125547504Y-107488796D01*
X125523000Y-107490000D01*
X124773000Y-107490000D01*
X124748496Y-107488796D01*
X124724227Y-107485196D01*
X124700429Y-107479235D01*
X124677329Y-107470970D01*
X124655151Y-107460480D01*
X124634107Y-107447867D01*
X124614402Y-107433253D01*
X124596223Y-107416777D01*
X124579747Y-107398598D01*
X124565133Y-107378893D01*
X124552520Y-107357849D01*
X124542030Y-107335671D01*
X124533765Y-107312571D01*
X124527804Y-107288773D01*
X124524204Y-107264504D01*
X124523000Y-107240000D01*
X124523000Y-105990000D01*
X124524204Y-105965496D01*
X124527804Y-105941227D01*
X124533765Y-105917429D01*
X124542030Y-105894329D01*
X124552520Y-105872151D01*
X124565133Y-105851107D01*
X124579747Y-105831402D01*
X124596223Y-105813223D01*
X124614402Y-105796747D01*
X124634107Y-105782133D01*
X124655151Y-105769520D01*
X124677329Y-105759030D01*
X124700429Y-105750765D01*
X124724227Y-105744804D01*
X124748496Y-105741204D01*
X124773000Y-105740000D01*
X125523000Y-105740000D01*
X125547504Y-105741204D01*
G37*
G36*
X155997504Y-88741204D02*
G01*
X156021773Y-88744804D01*
X156045571Y-88750765D01*
X156068671Y-88759030D01*
X156090849Y-88769520D01*
X156111893Y-88782133D01*
X156131598Y-88796747D01*
X156149777Y-88813223D01*
X156166253Y-88831402D01*
X156180867Y-88851107D01*
X156193480Y-88872151D01*
X156203970Y-88894329D01*
X156212235Y-88917429D01*
X156218196Y-88941227D01*
X156221796Y-88965496D01*
X156223000Y-88990000D01*
X156223000Y-90240000D01*
X156221796Y-90264504D01*
X156218196Y-90288773D01*
X156212235Y-90312571D01*
X156203970Y-90335671D01*
X156193480Y-90357849D01*
X156180867Y-90378893D01*
X156166253Y-90398598D01*
X156149777Y-90416777D01*
X156131598Y-90433253D01*
X156111893Y-90447867D01*
X156090849Y-90460480D01*
X156068671Y-90470970D01*
X156045571Y-90479235D01*
X156021773Y-90485196D01*
X155997504Y-90488796D01*
X155973000Y-90490000D01*
X155223000Y-90490000D01*
X155198496Y-90488796D01*
X155174227Y-90485196D01*
X155150429Y-90479235D01*
X155127329Y-90470970D01*
X155105151Y-90460480D01*
X155084107Y-90447867D01*
X155064402Y-90433253D01*
X155046223Y-90416777D01*
X155029747Y-90398598D01*
X155015133Y-90378893D01*
X155002520Y-90357849D01*
X154992030Y-90335671D01*
X154983765Y-90312571D01*
X154977804Y-90288773D01*
X154974204Y-90264504D01*
X154973000Y-90240000D01*
X154973000Y-88990000D01*
X154974204Y-88965496D01*
X154977804Y-88941227D01*
X154983765Y-88917429D01*
X154992030Y-88894329D01*
X155002520Y-88872151D01*
X155015133Y-88851107D01*
X155029747Y-88831402D01*
X155046223Y-88813223D01*
X155064402Y-88796747D01*
X155084107Y-88782133D01*
X155105151Y-88769520D01*
X155127329Y-88759030D01*
X155150429Y-88750765D01*
X155174227Y-88744804D01*
X155198496Y-88741204D01*
X155223000Y-88740000D01*
X155973000Y-88740000D01*
X155997504Y-88741204D01*
G37*
G36*
X158797504Y-88741204D02*
G01*
X158821773Y-88744804D01*
X158845571Y-88750765D01*
X158868671Y-88759030D01*
X158890849Y-88769520D01*
X158911893Y-88782133D01*
X158931598Y-88796747D01*
X158949777Y-88813223D01*
X158966253Y-88831402D01*
X158980867Y-88851107D01*
X158993480Y-88872151D01*
X159003970Y-88894329D01*
X159012235Y-88917429D01*
X159018196Y-88941227D01*
X159021796Y-88965496D01*
X159023000Y-88990000D01*
X159023000Y-90240000D01*
X159021796Y-90264504D01*
X159018196Y-90288773D01*
X159012235Y-90312571D01*
X159003970Y-90335671D01*
X158993480Y-90357849D01*
X158980867Y-90378893D01*
X158966253Y-90398598D01*
X158949777Y-90416777D01*
X158931598Y-90433253D01*
X158911893Y-90447867D01*
X158890849Y-90460480D01*
X158868671Y-90470970D01*
X158845571Y-90479235D01*
X158821773Y-90485196D01*
X158797504Y-90488796D01*
X158773000Y-90490000D01*
X158023000Y-90490000D01*
X157998496Y-90488796D01*
X157974227Y-90485196D01*
X157950429Y-90479235D01*
X157927329Y-90470970D01*
X157905151Y-90460480D01*
X157884107Y-90447867D01*
X157864402Y-90433253D01*
X157846223Y-90416777D01*
X157829747Y-90398598D01*
X157815133Y-90378893D01*
X157802520Y-90357849D01*
X157792030Y-90335671D01*
X157783765Y-90312571D01*
X157777804Y-90288773D01*
X157774204Y-90264504D01*
X157773000Y-90240000D01*
X157773000Y-88990000D01*
X157774204Y-88965496D01*
X157777804Y-88941227D01*
X157783765Y-88917429D01*
X157792030Y-88894329D01*
X157802520Y-88872151D01*
X157815133Y-88851107D01*
X157829747Y-88831402D01*
X157846223Y-88813223D01*
X157864402Y-88796747D01*
X157884107Y-88782133D01*
X157905151Y-88769520D01*
X157927329Y-88759030D01*
X157950429Y-88750765D01*
X157974227Y-88744804D01*
X157998496Y-88741204D01*
X158023000Y-88740000D01*
X158773000Y-88740000D01*
X158797504Y-88741204D01*
G37*
D16*
X164498000Y-85115000D03*
X164498000Y-89115000D03*
D11*
G36*
X154228142Y-84191174D02*
G01*
X154251803Y-84194684D01*
X154275007Y-84200496D01*
X154297529Y-84208554D01*
X154319153Y-84218782D01*
X154339670Y-84231079D01*
X154358883Y-84245329D01*
X154376607Y-84261393D01*
X154392671Y-84279117D01*
X154406921Y-84298330D01*
X154419218Y-84318847D01*
X154429446Y-84340471D01*
X154437504Y-84362993D01*
X154443316Y-84386197D01*
X154446826Y-84409858D01*
X154448000Y-84433750D01*
X154448000Y-84921250D01*
X154446826Y-84945142D01*
X154443316Y-84968803D01*
X154437504Y-84992007D01*
X154429446Y-85014529D01*
X154419218Y-85036153D01*
X154406921Y-85056670D01*
X154392671Y-85075883D01*
X154376607Y-85093607D01*
X154358883Y-85109671D01*
X154339670Y-85123921D01*
X154319153Y-85136218D01*
X154297529Y-85146446D01*
X154275007Y-85154504D01*
X154251803Y-85160316D01*
X154228142Y-85163826D01*
X154204250Y-85165000D01*
X153291750Y-85165000D01*
X153267858Y-85163826D01*
X153244197Y-85160316D01*
X153220993Y-85154504D01*
X153198471Y-85146446D01*
X153176847Y-85136218D01*
X153156330Y-85123921D01*
X153137117Y-85109671D01*
X153119393Y-85093607D01*
X153103329Y-85075883D01*
X153089079Y-85056670D01*
X153076782Y-85036153D01*
X153066554Y-85014529D01*
X153058496Y-84992007D01*
X153052684Y-84968803D01*
X153049174Y-84945142D01*
X153048000Y-84921250D01*
X153048000Y-84433750D01*
X153049174Y-84409858D01*
X153052684Y-84386197D01*
X153058496Y-84362993D01*
X153066554Y-84340471D01*
X153076782Y-84318847D01*
X153089079Y-84298330D01*
X153103329Y-84279117D01*
X153119393Y-84261393D01*
X153137117Y-84245329D01*
X153156330Y-84231079D01*
X153176847Y-84218782D01*
X153198471Y-84208554D01*
X153220993Y-84200496D01*
X153244197Y-84194684D01*
X153267858Y-84191174D01*
X153291750Y-84190000D01*
X154204250Y-84190000D01*
X154228142Y-84191174D01*
G37*
G36*
X154228142Y-86066174D02*
G01*
X154251803Y-86069684D01*
X154275007Y-86075496D01*
X154297529Y-86083554D01*
X154319153Y-86093782D01*
X154339670Y-86106079D01*
X154358883Y-86120329D01*
X154376607Y-86136393D01*
X154392671Y-86154117D01*
X154406921Y-86173330D01*
X154419218Y-86193847D01*
X154429446Y-86215471D01*
X154437504Y-86237993D01*
X154443316Y-86261197D01*
X154446826Y-86284858D01*
X154448000Y-86308750D01*
X154448000Y-86796250D01*
X154446826Y-86820142D01*
X154443316Y-86843803D01*
X154437504Y-86867007D01*
X154429446Y-86889529D01*
X154419218Y-86911153D01*
X154406921Y-86931670D01*
X154392671Y-86950883D01*
X154376607Y-86968607D01*
X154358883Y-86984671D01*
X154339670Y-86998921D01*
X154319153Y-87011218D01*
X154297529Y-87021446D01*
X154275007Y-87029504D01*
X154251803Y-87035316D01*
X154228142Y-87038826D01*
X154204250Y-87040000D01*
X153291750Y-87040000D01*
X153267858Y-87038826D01*
X153244197Y-87035316D01*
X153220993Y-87029504D01*
X153198471Y-87021446D01*
X153176847Y-87011218D01*
X153156330Y-86998921D01*
X153137117Y-86984671D01*
X153119393Y-86968607D01*
X153103329Y-86950883D01*
X153089079Y-86931670D01*
X153076782Y-86911153D01*
X153066554Y-86889529D01*
X153058496Y-86867007D01*
X153052684Y-86843803D01*
X153049174Y-86820142D01*
X153048000Y-86796250D01*
X153048000Y-86308750D01*
X153049174Y-86284858D01*
X153052684Y-86261197D01*
X153058496Y-86237993D01*
X153066554Y-86215471D01*
X153076782Y-86193847D01*
X153089079Y-86173330D01*
X153103329Y-86154117D01*
X153119393Y-86136393D01*
X153137117Y-86120329D01*
X153156330Y-86106079D01*
X153176847Y-86093782D01*
X153198471Y-86083554D01*
X153220993Y-86075496D01*
X153244197Y-86069684D01*
X153267858Y-86066174D01*
X153291750Y-86065000D01*
X154204250Y-86065000D01*
X154228142Y-86066174D01*
G37*
G36*
X154228142Y-91691174D02*
G01*
X154251803Y-91694684D01*
X154275007Y-91700496D01*
X154297529Y-91708554D01*
X154319153Y-91718782D01*
X154339670Y-91731079D01*
X154358883Y-91745329D01*
X154376607Y-91761393D01*
X154392671Y-91779117D01*
X154406921Y-91798330D01*
X154419218Y-91818847D01*
X154429446Y-91840471D01*
X154437504Y-91862993D01*
X154443316Y-91886197D01*
X154446826Y-91909858D01*
X154448000Y-91933750D01*
X154448000Y-92421250D01*
X154446826Y-92445142D01*
X154443316Y-92468803D01*
X154437504Y-92492007D01*
X154429446Y-92514529D01*
X154419218Y-92536153D01*
X154406921Y-92556670D01*
X154392671Y-92575883D01*
X154376607Y-92593607D01*
X154358883Y-92609671D01*
X154339670Y-92623921D01*
X154319153Y-92636218D01*
X154297529Y-92646446D01*
X154275007Y-92654504D01*
X154251803Y-92660316D01*
X154228142Y-92663826D01*
X154204250Y-92665000D01*
X153291750Y-92665000D01*
X153267858Y-92663826D01*
X153244197Y-92660316D01*
X153220993Y-92654504D01*
X153198471Y-92646446D01*
X153176847Y-92636218D01*
X153156330Y-92623921D01*
X153137117Y-92609671D01*
X153119393Y-92593607D01*
X153103329Y-92575883D01*
X153089079Y-92556670D01*
X153076782Y-92536153D01*
X153066554Y-92514529D01*
X153058496Y-92492007D01*
X153052684Y-92468803D01*
X153049174Y-92445142D01*
X153048000Y-92421250D01*
X153048000Y-91933750D01*
X153049174Y-91909858D01*
X153052684Y-91886197D01*
X153058496Y-91862993D01*
X153066554Y-91840471D01*
X153076782Y-91818847D01*
X153089079Y-91798330D01*
X153103329Y-91779117D01*
X153119393Y-91761393D01*
X153137117Y-91745329D01*
X153156330Y-91731079D01*
X153176847Y-91718782D01*
X153198471Y-91708554D01*
X153220993Y-91700496D01*
X153244197Y-91694684D01*
X153267858Y-91691174D01*
X153291750Y-91690000D01*
X154204250Y-91690000D01*
X154228142Y-91691174D01*
G37*
G36*
X154228142Y-93566174D02*
G01*
X154251803Y-93569684D01*
X154275007Y-93575496D01*
X154297529Y-93583554D01*
X154319153Y-93593782D01*
X154339670Y-93606079D01*
X154358883Y-93620329D01*
X154376607Y-93636393D01*
X154392671Y-93654117D01*
X154406921Y-93673330D01*
X154419218Y-93693847D01*
X154429446Y-93715471D01*
X154437504Y-93737993D01*
X154443316Y-93761197D01*
X154446826Y-93784858D01*
X154448000Y-93808750D01*
X154448000Y-94296250D01*
X154446826Y-94320142D01*
X154443316Y-94343803D01*
X154437504Y-94367007D01*
X154429446Y-94389529D01*
X154419218Y-94411153D01*
X154406921Y-94431670D01*
X154392671Y-94450883D01*
X154376607Y-94468607D01*
X154358883Y-94484671D01*
X154339670Y-94498921D01*
X154319153Y-94511218D01*
X154297529Y-94521446D01*
X154275007Y-94529504D01*
X154251803Y-94535316D01*
X154228142Y-94538826D01*
X154204250Y-94540000D01*
X153291750Y-94540000D01*
X153267858Y-94538826D01*
X153244197Y-94535316D01*
X153220993Y-94529504D01*
X153198471Y-94521446D01*
X153176847Y-94511218D01*
X153156330Y-94498921D01*
X153137117Y-94484671D01*
X153119393Y-94468607D01*
X153103329Y-94450883D01*
X153089079Y-94431670D01*
X153076782Y-94411153D01*
X153066554Y-94389529D01*
X153058496Y-94367007D01*
X153052684Y-94343803D01*
X153049174Y-94320142D01*
X153048000Y-94296250D01*
X153048000Y-93808750D01*
X153049174Y-93784858D01*
X153052684Y-93761197D01*
X153058496Y-93737993D01*
X153066554Y-93715471D01*
X153076782Y-93693847D01*
X153089079Y-93673330D01*
X153103329Y-93654117D01*
X153119393Y-93636393D01*
X153137117Y-93620329D01*
X153156330Y-93606079D01*
X153176847Y-93593782D01*
X153198471Y-93583554D01*
X153220993Y-93575496D01*
X153244197Y-93569684D01*
X153267858Y-93566174D01*
X153291750Y-93565000D01*
X154204250Y-93565000D01*
X154228142Y-93566174D01*
G37*
G36*
X154228142Y-99191174D02*
G01*
X154251803Y-99194684D01*
X154275007Y-99200496D01*
X154297529Y-99208554D01*
X154319153Y-99218782D01*
X154339670Y-99231079D01*
X154358883Y-99245329D01*
X154376607Y-99261393D01*
X154392671Y-99279117D01*
X154406921Y-99298330D01*
X154419218Y-99318847D01*
X154429446Y-99340471D01*
X154437504Y-99362993D01*
X154443316Y-99386197D01*
X154446826Y-99409858D01*
X154448000Y-99433750D01*
X154448000Y-99921250D01*
X154446826Y-99945142D01*
X154443316Y-99968803D01*
X154437504Y-99992007D01*
X154429446Y-100014529D01*
X154419218Y-100036153D01*
X154406921Y-100056670D01*
X154392671Y-100075883D01*
X154376607Y-100093607D01*
X154358883Y-100109671D01*
X154339670Y-100123921D01*
X154319153Y-100136218D01*
X154297529Y-100146446D01*
X154275007Y-100154504D01*
X154251803Y-100160316D01*
X154228142Y-100163826D01*
X154204250Y-100165000D01*
X153291750Y-100165000D01*
X153267858Y-100163826D01*
X153244197Y-100160316D01*
X153220993Y-100154504D01*
X153198471Y-100146446D01*
X153176847Y-100136218D01*
X153156330Y-100123921D01*
X153137117Y-100109671D01*
X153119393Y-100093607D01*
X153103329Y-100075883D01*
X153089079Y-100056670D01*
X153076782Y-100036153D01*
X153066554Y-100014529D01*
X153058496Y-99992007D01*
X153052684Y-99968803D01*
X153049174Y-99945142D01*
X153048000Y-99921250D01*
X153048000Y-99433750D01*
X153049174Y-99409858D01*
X153052684Y-99386197D01*
X153058496Y-99362993D01*
X153066554Y-99340471D01*
X153076782Y-99318847D01*
X153089079Y-99298330D01*
X153103329Y-99279117D01*
X153119393Y-99261393D01*
X153137117Y-99245329D01*
X153156330Y-99231079D01*
X153176847Y-99218782D01*
X153198471Y-99208554D01*
X153220993Y-99200496D01*
X153244197Y-99194684D01*
X153267858Y-99191174D01*
X153291750Y-99190000D01*
X154204250Y-99190000D01*
X154228142Y-99191174D01*
G37*
G36*
X154228142Y-101066174D02*
G01*
X154251803Y-101069684D01*
X154275007Y-101075496D01*
X154297529Y-101083554D01*
X154319153Y-101093782D01*
X154339670Y-101106079D01*
X154358883Y-101120329D01*
X154376607Y-101136393D01*
X154392671Y-101154117D01*
X154406921Y-101173330D01*
X154419218Y-101193847D01*
X154429446Y-101215471D01*
X154437504Y-101237993D01*
X154443316Y-101261197D01*
X154446826Y-101284858D01*
X154448000Y-101308750D01*
X154448000Y-101796250D01*
X154446826Y-101820142D01*
X154443316Y-101843803D01*
X154437504Y-101867007D01*
X154429446Y-101889529D01*
X154419218Y-101911153D01*
X154406921Y-101931670D01*
X154392671Y-101950883D01*
X154376607Y-101968607D01*
X154358883Y-101984671D01*
X154339670Y-101998921D01*
X154319153Y-102011218D01*
X154297529Y-102021446D01*
X154275007Y-102029504D01*
X154251803Y-102035316D01*
X154228142Y-102038826D01*
X154204250Y-102040000D01*
X153291750Y-102040000D01*
X153267858Y-102038826D01*
X153244197Y-102035316D01*
X153220993Y-102029504D01*
X153198471Y-102021446D01*
X153176847Y-102011218D01*
X153156330Y-101998921D01*
X153137117Y-101984671D01*
X153119393Y-101968607D01*
X153103329Y-101950883D01*
X153089079Y-101931670D01*
X153076782Y-101911153D01*
X153066554Y-101889529D01*
X153058496Y-101867007D01*
X153052684Y-101843803D01*
X153049174Y-101820142D01*
X153048000Y-101796250D01*
X153048000Y-101308750D01*
X153049174Y-101284858D01*
X153052684Y-101261197D01*
X153058496Y-101237993D01*
X153066554Y-101215471D01*
X153076782Y-101193847D01*
X153089079Y-101173330D01*
X153103329Y-101154117D01*
X153119393Y-101136393D01*
X153137117Y-101120329D01*
X153156330Y-101106079D01*
X153176847Y-101093782D01*
X153198471Y-101083554D01*
X153220993Y-101075496D01*
X153244197Y-101069684D01*
X153267858Y-101066174D01*
X153291750Y-101065000D01*
X154204250Y-101065000D01*
X154228142Y-101066174D01*
G37*
G36*
X154228142Y-106691174D02*
G01*
X154251803Y-106694684D01*
X154275007Y-106700496D01*
X154297529Y-106708554D01*
X154319153Y-106718782D01*
X154339670Y-106731079D01*
X154358883Y-106745329D01*
X154376607Y-106761393D01*
X154392671Y-106779117D01*
X154406921Y-106798330D01*
X154419218Y-106818847D01*
X154429446Y-106840471D01*
X154437504Y-106862993D01*
X154443316Y-106886197D01*
X154446826Y-106909858D01*
X154448000Y-106933750D01*
X154448000Y-107421250D01*
X154446826Y-107445142D01*
X154443316Y-107468803D01*
X154437504Y-107492007D01*
X154429446Y-107514529D01*
X154419218Y-107536153D01*
X154406921Y-107556670D01*
X154392671Y-107575883D01*
X154376607Y-107593607D01*
X154358883Y-107609671D01*
X154339670Y-107623921D01*
X154319153Y-107636218D01*
X154297529Y-107646446D01*
X154275007Y-107654504D01*
X154251803Y-107660316D01*
X154228142Y-107663826D01*
X154204250Y-107665000D01*
X153291750Y-107665000D01*
X153267858Y-107663826D01*
X153244197Y-107660316D01*
X153220993Y-107654504D01*
X153198471Y-107646446D01*
X153176847Y-107636218D01*
X153156330Y-107623921D01*
X153137117Y-107609671D01*
X153119393Y-107593607D01*
X153103329Y-107575883D01*
X153089079Y-107556670D01*
X153076782Y-107536153D01*
X153066554Y-107514529D01*
X153058496Y-107492007D01*
X153052684Y-107468803D01*
X153049174Y-107445142D01*
X153048000Y-107421250D01*
X153048000Y-106933750D01*
X153049174Y-106909858D01*
X153052684Y-106886197D01*
X153058496Y-106862993D01*
X153066554Y-106840471D01*
X153076782Y-106818847D01*
X153089079Y-106798330D01*
X153103329Y-106779117D01*
X153119393Y-106761393D01*
X153137117Y-106745329D01*
X153156330Y-106731079D01*
X153176847Y-106718782D01*
X153198471Y-106708554D01*
X153220993Y-106700496D01*
X153244197Y-106694684D01*
X153267858Y-106691174D01*
X153291750Y-106690000D01*
X154204250Y-106690000D01*
X154228142Y-106691174D01*
G37*
G36*
X154228142Y-108566174D02*
G01*
X154251803Y-108569684D01*
X154275007Y-108575496D01*
X154297529Y-108583554D01*
X154319153Y-108593782D01*
X154339670Y-108606079D01*
X154358883Y-108620329D01*
X154376607Y-108636393D01*
X154392671Y-108654117D01*
X154406921Y-108673330D01*
X154419218Y-108693847D01*
X154429446Y-108715471D01*
X154437504Y-108737993D01*
X154443316Y-108761197D01*
X154446826Y-108784858D01*
X154448000Y-108808750D01*
X154448000Y-109296250D01*
X154446826Y-109320142D01*
X154443316Y-109343803D01*
X154437504Y-109367007D01*
X154429446Y-109389529D01*
X154419218Y-109411153D01*
X154406921Y-109431670D01*
X154392671Y-109450883D01*
X154376607Y-109468607D01*
X154358883Y-109484671D01*
X154339670Y-109498921D01*
X154319153Y-109511218D01*
X154297529Y-109521446D01*
X154275007Y-109529504D01*
X154251803Y-109535316D01*
X154228142Y-109538826D01*
X154204250Y-109540000D01*
X153291750Y-109540000D01*
X153267858Y-109538826D01*
X153244197Y-109535316D01*
X153220993Y-109529504D01*
X153198471Y-109521446D01*
X153176847Y-109511218D01*
X153156330Y-109498921D01*
X153137117Y-109484671D01*
X153119393Y-109468607D01*
X153103329Y-109450883D01*
X153089079Y-109431670D01*
X153076782Y-109411153D01*
X153066554Y-109389529D01*
X153058496Y-109367007D01*
X153052684Y-109343803D01*
X153049174Y-109320142D01*
X153048000Y-109296250D01*
X153048000Y-108808750D01*
X153049174Y-108784858D01*
X153052684Y-108761197D01*
X153058496Y-108737993D01*
X153066554Y-108715471D01*
X153076782Y-108693847D01*
X153089079Y-108673330D01*
X153103329Y-108654117D01*
X153119393Y-108636393D01*
X153137117Y-108620329D01*
X153156330Y-108606079D01*
X153176847Y-108593782D01*
X153198471Y-108583554D01*
X153220993Y-108575496D01*
X153244197Y-108569684D01*
X153267858Y-108566174D01*
X153291750Y-108565000D01*
X154204250Y-108565000D01*
X154228142Y-108566174D01*
G37*
G36*
X154228142Y-89566174D02*
G01*
X154251803Y-89569684D01*
X154275007Y-89575496D01*
X154297529Y-89583554D01*
X154319153Y-89593782D01*
X154339670Y-89606079D01*
X154358883Y-89620329D01*
X154376607Y-89636393D01*
X154392671Y-89654117D01*
X154406921Y-89673330D01*
X154419218Y-89693847D01*
X154429446Y-89715471D01*
X154437504Y-89737993D01*
X154443316Y-89761197D01*
X154446826Y-89784858D01*
X154448000Y-89808750D01*
X154448000Y-90296250D01*
X154446826Y-90320142D01*
X154443316Y-90343803D01*
X154437504Y-90367007D01*
X154429446Y-90389529D01*
X154419218Y-90411153D01*
X154406921Y-90431670D01*
X154392671Y-90450883D01*
X154376607Y-90468607D01*
X154358883Y-90484671D01*
X154339670Y-90498921D01*
X154319153Y-90511218D01*
X154297529Y-90521446D01*
X154275007Y-90529504D01*
X154251803Y-90535316D01*
X154228142Y-90538826D01*
X154204250Y-90540000D01*
X153291750Y-90540000D01*
X153267858Y-90538826D01*
X153244197Y-90535316D01*
X153220993Y-90529504D01*
X153198471Y-90521446D01*
X153176847Y-90511218D01*
X153156330Y-90498921D01*
X153137117Y-90484671D01*
X153119393Y-90468607D01*
X153103329Y-90450883D01*
X153089079Y-90431670D01*
X153076782Y-90411153D01*
X153066554Y-90389529D01*
X153058496Y-90367007D01*
X153052684Y-90343803D01*
X153049174Y-90320142D01*
X153048000Y-90296250D01*
X153048000Y-89808750D01*
X153049174Y-89784858D01*
X153052684Y-89761197D01*
X153058496Y-89737993D01*
X153066554Y-89715471D01*
X153076782Y-89693847D01*
X153089079Y-89673330D01*
X153103329Y-89654117D01*
X153119393Y-89636393D01*
X153137117Y-89620329D01*
X153156330Y-89606079D01*
X153176847Y-89593782D01*
X153198471Y-89583554D01*
X153220993Y-89575496D01*
X153244197Y-89569684D01*
X153267858Y-89566174D01*
X153291750Y-89565000D01*
X154204250Y-89565000D01*
X154228142Y-89566174D01*
G37*
G36*
X154228142Y-87691174D02*
G01*
X154251803Y-87694684D01*
X154275007Y-87700496D01*
X154297529Y-87708554D01*
X154319153Y-87718782D01*
X154339670Y-87731079D01*
X154358883Y-87745329D01*
X154376607Y-87761393D01*
X154392671Y-87779117D01*
X154406921Y-87798330D01*
X154419218Y-87818847D01*
X154429446Y-87840471D01*
X154437504Y-87862993D01*
X154443316Y-87886197D01*
X154446826Y-87909858D01*
X154448000Y-87933750D01*
X154448000Y-88421250D01*
X154446826Y-88445142D01*
X154443316Y-88468803D01*
X154437504Y-88492007D01*
X154429446Y-88514529D01*
X154419218Y-88536153D01*
X154406921Y-88556670D01*
X154392671Y-88575883D01*
X154376607Y-88593607D01*
X154358883Y-88609671D01*
X154339670Y-88623921D01*
X154319153Y-88636218D01*
X154297529Y-88646446D01*
X154275007Y-88654504D01*
X154251803Y-88660316D01*
X154228142Y-88663826D01*
X154204250Y-88665000D01*
X153291750Y-88665000D01*
X153267858Y-88663826D01*
X153244197Y-88660316D01*
X153220993Y-88654504D01*
X153198471Y-88646446D01*
X153176847Y-88636218D01*
X153156330Y-88623921D01*
X153137117Y-88609671D01*
X153119393Y-88593607D01*
X153103329Y-88575883D01*
X153089079Y-88556670D01*
X153076782Y-88536153D01*
X153066554Y-88514529D01*
X153058496Y-88492007D01*
X153052684Y-88468803D01*
X153049174Y-88445142D01*
X153048000Y-88421250D01*
X153048000Y-87933750D01*
X153049174Y-87909858D01*
X153052684Y-87886197D01*
X153058496Y-87862993D01*
X153066554Y-87840471D01*
X153076782Y-87818847D01*
X153089079Y-87798330D01*
X153103329Y-87779117D01*
X153119393Y-87761393D01*
X153137117Y-87745329D01*
X153156330Y-87731079D01*
X153176847Y-87718782D01*
X153198471Y-87708554D01*
X153220993Y-87700496D01*
X153244197Y-87694684D01*
X153267858Y-87691174D01*
X153291750Y-87690000D01*
X154204250Y-87690000D01*
X154228142Y-87691174D01*
G37*
G36*
X154228142Y-97066174D02*
G01*
X154251803Y-97069684D01*
X154275007Y-97075496D01*
X154297529Y-97083554D01*
X154319153Y-97093782D01*
X154339670Y-97106079D01*
X154358883Y-97120329D01*
X154376607Y-97136393D01*
X154392671Y-97154117D01*
X154406921Y-97173330D01*
X154419218Y-97193847D01*
X154429446Y-97215471D01*
X154437504Y-97237993D01*
X154443316Y-97261197D01*
X154446826Y-97284858D01*
X154448000Y-97308750D01*
X154448000Y-97796250D01*
X154446826Y-97820142D01*
X154443316Y-97843803D01*
X154437504Y-97867007D01*
X154429446Y-97889529D01*
X154419218Y-97911153D01*
X154406921Y-97931670D01*
X154392671Y-97950883D01*
X154376607Y-97968607D01*
X154358883Y-97984671D01*
X154339670Y-97998921D01*
X154319153Y-98011218D01*
X154297529Y-98021446D01*
X154275007Y-98029504D01*
X154251803Y-98035316D01*
X154228142Y-98038826D01*
X154204250Y-98040000D01*
X153291750Y-98040000D01*
X153267858Y-98038826D01*
X153244197Y-98035316D01*
X153220993Y-98029504D01*
X153198471Y-98021446D01*
X153176847Y-98011218D01*
X153156330Y-97998921D01*
X153137117Y-97984671D01*
X153119393Y-97968607D01*
X153103329Y-97950883D01*
X153089079Y-97931670D01*
X153076782Y-97911153D01*
X153066554Y-97889529D01*
X153058496Y-97867007D01*
X153052684Y-97843803D01*
X153049174Y-97820142D01*
X153048000Y-97796250D01*
X153048000Y-97308750D01*
X153049174Y-97284858D01*
X153052684Y-97261197D01*
X153058496Y-97237993D01*
X153066554Y-97215471D01*
X153076782Y-97193847D01*
X153089079Y-97173330D01*
X153103329Y-97154117D01*
X153119393Y-97136393D01*
X153137117Y-97120329D01*
X153156330Y-97106079D01*
X153176847Y-97093782D01*
X153198471Y-97083554D01*
X153220993Y-97075496D01*
X153244197Y-97069684D01*
X153267858Y-97066174D01*
X153291750Y-97065000D01*
X154204250Y-97065000D01*
X154228142Y-97066174D01*
G37*
G36*
X154228142Y-95191174D02*
G01*
X154251803Y-95194684D01*
X154275007Y-95200496D01*
X154297529Y-95208554D01*
X154319153Y-95218782D01*
X154339670Y-95231079D01*
X154358883Y-95245329D01*
X154376607Y-95261393D01*
X154392671Y-95279117D01*
X154406921Y-95298330D01*
X154419218Y-95318847D01*
X154429446Y-95340471D01*
X154437504Y-95362993D01*
X154443316Y-95386197D01*
X154446826Y-95409858D01*
X154448000Y-95433750D01*
X154448000Y-95921250D01*
X154446826Y-95945142D01*
X154443316Y-95968803D01*
X154437504Y-95992007D01*
X154429446Y-96014529D01*
X154419218Y-96036153D01*
X154406921Y-96056670D01*
X154392671Y-96075883D01*
X154376607Y-96093607D01*
X154358883Y-96109671D01*
X154339670Y-96123921D01*
X154319153Y-96136218D01*
X154297529Y-96146446D01*
X154275007Y-96154504D01*
X154251803Y-96160316D01*
X154228142Y-96163826D01*
X154204250Y-96165000D01*
X153291750Y-96165000D01*
X153267858Y-96163826D01*
X153244197Y-96160316D01*
X153220993Y-96154504D01*
X153198471Y-96146446D01*
X153176847Y-96136218D01*
X153156330Y-96123921D01*
X153137117Y-96109671D01*
X153119393Y-96093607D01*
X153103329Y-96075883D01*
X153089079Y-96056670D01*
X153076782Y-96036153D01*
X153066554Y-96014529D01*
X153058496Y-95992007D01*
X153052684Y-95968803D01*
X153049174Y-95945142D01*
X153048000Y-95921250D01*
X153048000Y-95433750D01*
X153049174Y-95409858D01*
X153052684Y-95386197D01*
X153058496Y-95362993D01*
X153066554Y-95340471D01*
X153076782Y-95318847D01*
X153089079Y-95298330D01*
X153103329Y-95279117D01*
X153119393Y-95261393D01*
X153137117Y-95245329D01*
X153156330Y-95231079D01*
X153176847Y-95218782D01*
X153198471Y-95208554D01*
X153220993Y-95200496D01*
X153244197Y-95194684D01*
X153267858Y-95191174D01*
X153291750Y-95190000D01*
X154204250Y-95190000D01*
X154228142Y-95191174D01*
G37*
G36*
X154228142Y-104566174D02*
G01*
X154251803Y-104569684D01*
X154275007Y-104575496D01*
X154297529Y-104583554D01*
X154319153Y-104593782D01*
X154339670Y-104606079D01*
X154358883Y-104620329D01*
X154376607Y-104636393D01*
X154392671Y-104654117D01*
X154406921Y-104673330D01*
X154419218Y-104693847D01*
X154429446Y-104715471D01*
X154437504Y-104737993D01*
X154443316Y-104761197D01*
X154446826Y-104784858D01*
X154448000Y-104808750D01*
X154448000Y-105296250D01*
X154446826Y-105320142D01*
X154443316Y-105343803D01*
X154437504Y-105367007D01*
X154429446Y-105389529D01*
X154419218Y-105411153D01*
X154406921Y-105431670D01*
X154392671Y-105450883D01*
X154376607Y-105468607D01*
X154358883Y-105484671D01*
X154339670Y-105498921D01*
X154319153Y-105511218D01*
X154297529Y-105521446D01*
X154275007Y-105529504D01*
X154251803Y-105535316D01*
X154228142Y-105538826D01*
X154204250Y-105540000D01*
X153291750Y-105540000D01*
X153267858Y-105538826D01*
X153244197Y-105535316D01*
X153220993Y-105529504D01*
X153198471Y-105521446D01*
X153176847Y-105511218D01*
X153156330Y-105498921D01*
X153137117Y-105484671D01*
X153119393Y-105468607D01*
X153103329Y-105450883D01*
X153089079Y-105431670D01*
X153076782Y-105411153D01*
X153066554Y-105389529D01*
X153058496Y-105367007D01*
X153052684Y-105343803D01*
X153049174Y-105320142D01*
X153048000Y-105296250D01*
X153048000Y-104808750D01*
X153049174Y-104784858D01*
X153052684Y-104761197D01*
X153058496Y-104737993D01*
X153066554Y-104715471D01*
X153076782Y-104693847D01*
X153089079Y-104673330D01*
X153103329Y-104654117D01*
X153119393Y-104636393D01*
X153137117Y-104620329D01*
X153156330Y-104606079D01*
X153176847Y-104593782D01*
X153198471Y-104583554D01*
X153220993Y-104575496D01*
X153244197Y-104569684D01*
X153267858Y-104566174D01*
X153291750Y-104565000D01*
X154204250Y-104565000D01*
X154228142Y-104566174D01*
G37*
G36*
X154228142Y-102691174D02*
G01*
X154251803Y-102694684D01*
X154275007Y-102700496D01*
X154297529Y-102708554D01*
X154319153Y-102718782D01*
X154339670Y-102731079D01*
X154358883Y-102745329D01*
X154376607Y-102761393D01*
X154392671Y-102779117D01*
X154406921Y-102798330D01*
X154419218Y-102818847D01*
X154429446Y-102840471D01*
X154437504Y-102862993D01*
X154443316Y-102886197D01*
X154446826Y-102909858D01*
X154448000Y-102933750D01*
X154448000Y-103421250D01*
X154446826Y-103445142D01*
X154443316Y-103468803D01*
X154437504Y-103492007D01*
X154429446Y-103514529D01*
X154419218Y-103536153D01*
X154406921Y-103556670D01*
X154392671Y-103575883D01*
X154376607Y-103593607D01*
X154358883Y-103609671D01*
X154339670Y-103623921D01*
X154319153Y-103636218D01*
X154297529Y-103646446D01*
X154275007Y-103654504D01*
X154251803Y-103660316D01*
X154228142Y-103663826D01*
X154204250Y-103665000D01*
X153291750Y-103665000D01*
X153267858Y-103663826D01*
X153244197Y-103660316D01*
X153220993Y-103654504D01*
X153198471Y-103646446D01*
X153176847Y-103636218D01*
X153156330Y-103623921D01*
X153137117Y-103609671D01*
X153119393Y-103593607D01*
X153103329Y-103575883D01*
X153089079Y-103556670D01*
X153076782Y-103536153D01*
X153066554Y-103514529D01*
X153058496Y-103492007D01*
X153052684Y-103468803D01*
X153049174Y-103445142D01*
X153048000Y-103421250D01*
X153048000Y-102933750D01*
X153049174Y-102909858D01*
X153052684Y-102886197D01*
X153058496Y-102862993D01*
X153066554Y-102840471D01*
X153076782Y-102818847D01*
X153089079Y-102798330D01*
X153103329Y-102779117D01*
X153119393Y-102761393D01*
X153137117Y-102745329D01*
X153156330Y-102731079D01*
X153176847Y-102718782D01*
X153198471Y-102708554D01*
X153220993Y-102700496D01*
X153244197Y-102694684D01*
X153267858Y-102691174D01*
X153291750Y-102690000D01*
X154204250Y-102690000D01*
X154228142Y-102691174D01*
G37*
G36*
X154228142Y-112066174D02*
G01*
X154251803Y-112069684D01*
X154275007Y-112075496D01*
X154297529Y-112083554D01*
X154319153Y-112093782D01*
X154339670Y-112106079D01*
X154358883Y-112120329D01*
X154376607Y-112136393D01*
X154392671Y-112154117D01*
X154406921Y-112173330D01*
X154419218Y-112193847D01*
X154429446Y-112215471D01*
X154437504Y-112237993D01*
X154443316Y-112261197D01*
X154446826Y-112284858D01*
X154448000Y-112308750D01*
X154448000Y-112796250D01*
X154446826Y-112820142D01*
X154443316Y-112843803D01*
X154437504Y-112867007D01*
X154429446Y-112889529D01*
X154419218Y-112911153D01*
X154406921Y-112931670D01*
X154392671Y-112950883D01*
X154376607Y-112968607D01*
X154358883Y-112984671D01*
X154339670Y-112998921D01*
X154319153Y-113011218D01*
X154297529Y-113021446D01*
X154275007Y-113029504D01*
X154251803Y-113035316D01*
X154228142Y-113038826D01*
X154204250Y-113040000D01*
X153291750Y-113040000D01*
X153267858Y-113038826D01*
X153244197Y-113035316D01*
X153220993Y-113029504D01*
X153198471Y-113021446D01*
X153176847Y-113011218D01*
X153156330Y-112998921D01*
X153137117Y-112984671D01*
X153119393Y-112968607D01*
X153103329Y-112950883D01*
X153089079Y-112931670D01*
X153076782Y-112911153D01*
X153066554Y-112889529D01*
X153058496Y-112867007D01*
X153052684Y-112843803D01*
X153049174Y-112820142D01*
X153048000Y-112796250D01*
X153048000Y-112308750D01*
X153049174Y-112284858D01*
X153052684Y-112261197D01*
X153058496Y-112237993D01*
X153066554Y-112215471D01*
X153076782Y-112193847D01*
X153089079Y-112173330D01*
X153103329Y-112154117D01*
X153119393Y-112136393D01*
X153137117Y-112120329D01*
X153156330Y-112106079D01*
X153176847Y-112093782D01*
X153198471Y-112083554D01*
X153220993Y-112075496D01*
X153244197Y-112069684D01*
X153267858Y-112066174D01*
X153291750Y-112065000D01*
X154204250Y-112065000D01*
X154228142Y-112066174D01*
G37*
G36*
X154228142Y-110191174D02*
G01*
X154251803Y-110194684D01*
X154275007Y-110200496D01*
X154297529Y-110208554D01*
X154319153Y-110218782D01*
X154339670Y-110231079D01*
X154358883Y-110245329D01*
X154376607Y-110261393D01*
X154392671Y-110279117D01*
X154406921Y-110298330D01*
X154419218Y-110318847D01*
X154429446Y-110340471D01*
X154437504Y-110362993D01*
X154443316Y-110386197D01*
X154446826Y-110409858D01*
X154448000Y-110433750D01*
X154448000Y-110921250D01*
X154446826Y-110945142D01*
X154443316Y-110968803D01*
X154437504Y-110992007D01*
X154429446Y-111014529D01*
X154419218Y-111036153D01*
X154406921Y-111056670D01*
X154392671Y-111075883D01*
X154376607Y-111093607D01*
X154358883Y-111109671D01*
X154339670Y-111123921D01*
X154319153Y-111136218D01*
X154297529Y-111146446D01*
X154275007Y-111154504D01*
X154251803Y-111160316D01*
X154228142Y-111163826D01*
X154204250Y-111165000D01*
X153291750Y-111165000D01*
X153267858Y-111163826D01*
X153244197Y-111160316D01*
X153220993Y-111154504D01*
X153198471Y-111146446D01*
X153176847Y-111136218D01*
X153156330Y-111123921D01*
X153137117Y-111109671D01*
X153119393Y-111093607D01*
X153103329Y-111075883D01*
X153089079Y-111056670D01*
X153076782Y-111036153D01*
X153066554Y-111014529D01*
X153058496Y-110992007D01*
X153052684Y-110968803D01*
X153049174Y-110945142D01*
X153048000Y-110921250D01*
X153048000Y-110433750D01*
X153049174Y-110409858D01*
X153052684Y-110386197D01*
X153058496Y-110362993D01*
X153066554Y-110340471D01*
X153076782Y-110318847D01*
X153089079Y-110298330D01*
X153103329Y-110279117D01*
X153119393Y-110261393D01*
X153137117Y-110245329D01*
X153156330Y-110231079D01*
X153176847Y-110218782D01*
X153198471Y-110208554D01*
X153220993Y-110200496D01*
X153244197Y-110194684D01*
X153267858Y-110191174D01*
X153291750Y-110190000D01*
X154204250Y-110190000D01*
X154228142Y-110191174D01*
G37*
D17*
X157448000Y-87425000D03*
X155548000Y-87425000D03*
X155548000Y-84805000D03*
X156498000Y-84805000D03*
X157448000Y-84805000D03*
X157448000Y-94925000D03*
X155548000Y-94925000D03*
X155548000Y-92305000D03*
X156498000Y-92305000D03*
X157448000Y-92305000D03*
X157448000Y-102425000D03*
X155548000Y-102425000D03*
X155548000Y-99805000D03*
X156498000Y-99805000D03*
X157448000Y-99805000D03*
X157448000Y-109925000D03*
X155548000Y-109925000D03*
X155548000Y-107305000D03*
X156498000Y-107305000D03*
X157448000Y-107305000D03*
D18*
X139078000Y-109615000D03*
X134518000Y-109615000D03*
D19*
X136798000Y-115915000D03*
D11*
G36*
X155997504Y-96241204D02*
G01*
X156021773Y-96244804D01*
X156045571Y-96250765D01*
X156068671Y-96259030D01*
X156090849Y-96269520D01*
X156111893Y-96282133D01*
X156131598Y-96296747D01*
X156149777Y-96313223D01*
X156166253Y-96331402D01*
X156180867Y-96351107D01*
X156193480Y-96372151D01*
X156203970Y-96394329D01*
X156212235Y-96417429D01*
X156218196Y-96441227D01*
X156221796Y-96465496D01*
X156223000Y-96490000D01*
X156223000Y-97740000D01*
X156221796Y-97764504D01*
X156218196Y-97788773D01*
X156212235Y-97812571D01*
X156203970Y-97835671D01*
X156193480Y-97857849D01*
X156180867Y-97878893D01*
X156166253Y-97898598D01*
X156149777Y-97916777D01*
X156131598Y-97933253D01*
X156111893Y-97947867D01*
X156090849Y-97960480D01*
X156068671Y-97970970D01*
X156045571Y-97979235D01*
X156021773Y-97985196D01*
X155997504Y-97988796D01*
X155973000Y-97990000D01*
X155223000Y-97990000D01*
X155198496Y-97988796D01*
X155174227Y-97985196D01*
X155150429Y-97979235D01*
X155127329Y-97970970D01*
X155105151Y-97960480D01*
X155084107Y-97947867D01*
X155064402Y-97933253D01*
X155046223Y-97916777D01*
X155029747Y-97898598D01*
X155015133Y-97878893D01*
X155002520Y-97857849D01*
X154992030Y-97835671D01*
X154983765Y-97812571D01*
X154977804Y-97788773D01*
X154974204Y-97764504D01*
X154973000Y-97740000D01*
X154973000Y-96490000D01*
X154974204Y-96465496D01*
X154977804Y-96441227D01*
X154983765Y-96417429D01*
X154992030Y-96394329D01*
X155002520Y-96372151D01*
X155015133Y-96351107D01*
X155029747Y-96331402D01*
X155046223Y-96313223D01*
X155064402Y-96296747D01*
X155084107Y-96282133D01*
X155105151Y-96269520D01*
X155127329Y-96259030D01*
X155150429Y-96250765D01*
X155174227Y-96244804D01*
X155198496Y-96241204D01*
X155223000Y-96240000D01*
X155973000Y-96240000D01*
X155997504Y-96241204D01*
G37*
G36*
X158797504Y-96241204D02*
G01*
X158821773Y-96244804D01*
X158845571Y-96250765D01*
X158868671Y-96259030D01*
X158890849Y-96269520D01*
X158911893Y-96282133D01*
X158931598Y-96296747D01*
X158949777Y-96313223D01*
X158966253Y-96331402D01*
X158980867Y-96351107D01*
X158993480Y-96372151D01*
X159003970Y-96394329D01*
X159012235Y-96417429D01*
X159018196Y-96441227D01*
X159021796Y-96465496D01*
X159023000Y-96490000D01*
X159023000Y-97740000D01*
X159021796Y-97764504D01*
X159018196Y-97788773D01*
X159012235Y-97812571D01*
X159003970Y-97835671D01*
X158993480Y-97857849D01*
X158980867Y-97878893D01*
X158966253Y-97898598D01*
X158949777Y-97916777D01*
X158931598Y-97933253D01*
X158911893Y-97947867D01*
X158890849Y-97960480D01*
X158868671Y-97970970D01*
X158845571Y-97979235D01*
X158821773Y-97985196D01*
X158797504Y-97988796D01*
X158773000Y-97990000D01*
X158023000Y-97990000D01*
X157998496Y-97988796D01*
X157974227Y-97985196D01*
X157950429Y-97979235D01*
X157927329Y-97970970D01*
X157905151Y-97960480D01*
X157884107Y-97947867D01*
X157864402Y-97933253D01*
X157846223Y-97916777D01*
X157829747Y-97898598D01*
X157815133Y-97878893D01*
X157802520Y-97857849D01*
X157792030Y-97835671D01*
X157783765Y-97812571D01*
X157777804Y-97788773D01*
X157774204Y-97764504D01*
X157773000Y-97740000D01*
X157773000Y-96490000D01*
X157774204Y-96465496D01*
X157777804Y-96441227D01*
X157783765Y-96417429D01*
X157792030Y-96394329D01*
X157802520Y-96372151D01*
X157815133Y-96351107D01*
X157829747Y-96331402D01*
X157846223Y-96313223D01*
X157864402Y-96296747D01*
X157884107Y-96282133D01*
X157905151Y-96269520D01*
X157927329Y-96259030D01*
X157950429Y-96250765D01*
X157974227Y-96244804D01*
X157998496Y-96241204D01*
X158023000Y-96240000D01*
X158773000Y-96240000D01*
X158797504Y-96241204D01*
G37*
G36*
X155997504Y-103741204D02*
G01*
X156021773Y-103744804D01*
X156045571Y-103750765D01*
X156068671Y-103759030D01*
X156090849Y-103769520D01*
X156111893Y-103782133D01*
X156131598Y-103796747D01*
X156149777Y-103813223D01*
X156166253Y-103831402D01*
X156180867Y-103851107D01*
X156193480Y-103872151D01*
X156203970Y-103894329D01*
X156212235Y-103917429D01*
X156218196Y-103941227D01*
X156221796Y-103965496D01*
X156223000Y-103990000D01*
X156223000Y-105240000D01*
X156221796Y-105264504D01*
X156218196Y-105288773D01*
X156212235Y-105312571D01*
X156203970Y-105335671D01*
X156193480Y-105357849D01*
X156180867Y-105378893D01*
X156166253Y-105398598D01*
X156149777Y-105416777D01*
X156131598Y-105433253D01*
X156111893Y-105447867D01*
X156090849Y-105460480D01*
X156068671Y-105470970D01*
X156045571Y-105479235D01*
X156021773Y-105485196D01*
X155997504Y-105488796D01*
X155973000Y-105490000D01*
X155223000Y-105490000D01*
X155198496Y-105488796D01*
X155174227Y-105485196D01*
X155150429Y-105479235D01*
X155127329Y-105470970D01*
X155105151Y-105460480D01*
X155084107Y-105447867D01*
X155064402Y-105433253D01*
X155046223Y-105416777D01*
X155029747Y-105398598D01*
X155015133Y-105378893D01*
X155002520Y-105357849D01*
X154992030Y-105335671D01*
X154983765Y-105312571D01*
X154977804Y-105288773D01*
X154974204Y-105264504D01*
X154973000Y-105240000D01*
X154973000Y-103990000D01*
X154974204Y-103965496D01*
X154977804Y-103941227D01*
X154983765Y-103917429D01*
X154992030Y-103894329D01*
X155002520Y-103872151D01*
X155015133Y-103851107D01*
X155029747Y-103831402D01*
X155046223Y-103813223D01*
X155064402Y-103796747D01*
X155084107Y-103782133D01*
X155105151Y-103769520D01*
X155127329Y-103759030D01*
X155150429Y-103750765D01*
X155174227Y-103744804D01*
X155198496Y-103741204D01*
X155223000Y-103740000D01*
X155973000Y-103740000D01*
X155997504Y-103741204D01*
G37*
G36*
X158797504Y-103741204D02*
G01*
X158821773Y-103744804D01*
X158845571Y-103750765D01*
X158868671Y-103759030D01*
X158890849Y-103769520D01*
X158911893Y-103782133D01*
X158931598Y-103796747D01*
X158949777Y-103813223D01*
X158966253Y-103831402D01*
X158980867Y-103851107D01*
X158993480Y-103872151D01*
X159003970Y-103894329D01*
X159012235Y-103917429D01*
X159018196Y-103941227D01*
X159021796Y-103965496D01*
X159023000Y-103990000D01*
X159023000Y-105240000D01*
X159021796Y-105264504D01*
X159018196Y-105288773D01*
X159012235Y-105312571D01*
X159003970Y-105335671D01*
X158993480Y-105357849D01*
X158980867Y-105378893D01*
X158966253Y-105398598D01*
X158949777Y-105416777D01*
X158931598Y-105433253D01*
X158911893Y-105447867D01*
X158890849Y-105460480D01*
X158868671Y-105470970D01*
X158845571Y-105479235D01*
X158821773Y-105485196D01*
X158797504Y-105488796D01*
X158773000Y-105490000D01*
X158023000Y-105490000D01*
X157998496Y-105488796D01*
X157974227Y-105485196D01*
X157950429Y-105479235D01*
X157927329Y-105470970D01*
X157905151Y-105460480D01*
X157884107Y-105447867D01*
X157864402Y-105433253D01*
X157846223Y-105416777D01*
X157829747Y-105398598D01*
X157815133Y-105378893D01*
X157802520Y-105357849D01*
X157792030Y-105335671D01*
X157783765Y-105312571D01*
X157777804Y-105288773D01*
X157774204Y-105264504D01*
X157773000Y-105240000D01*
X157773000Y-103990000D01*
X157774204Y-103965496D01*
X157777804Y-103941227D01*
X157783765Y-103917429D01*
X157792030Y-103894329D01*
X157802520Y-103872151D01*
X157815133Y-103851107D01*
X157829747Y-103831402D01*
X157846223Y-103813223D01*
X157864402Y-103796747D01*
X157884107Y-103782133D01*
X157905151Y-103769520D01*
X157927329Y-103759030D01*
X157950429Y-103750765D01*
X157974227Y-103744804D01*
X157998496Y-103741204D01*
X158023000Y-103740000D01*
X158773000Y-103740000D01*
X158797504Y-103741204D01*
G37*
G36*
X155997504Y-111241204D02*
G01*
X156021773Y-111244804D01*
X156045571Y-111250765D01*
X156068671Y-111259030D01*
X156090849Y-111269520D01*
X156111893Y-111282133D01*
X156131598Y-111296747D01*
X156149777Y-111313223D01*
X156166253Y-111331402D01*
X156180867Y-111351107D01*
X156193480Y-111372151D01*
X156203970Y-111394329D01*
X156212235Y-111417429D01*
X156218196Y-111441227D01*
X156221796Y-111465496D01*
X156223000Y-111490000D01*
X156223000Y-112740000D01*
X156221796Y-112764504D01*
X156218196Y-112788773D01*
X156212235Y-112812571D01*
X156203970Y-112835671D01*
X156193480Y-112857849D01*
X156180867Y-112878893D01*
X156166253Y-112898598D01*
X156149777Y-112916777D01*
X156131598Y-112933253D01*
X156111893Y-112947867D01*
X156090849Y-112960480D01*
X156068671Y-112970970D01*
X156045571Y-112979235D01*
X156021773Y-112985196D01*
X155997504Y-112988796D01*
X155973000Y-112990000D01*
X155223000Y-112990000D01*
X155198496Y-112988796D01*
X155174227Y-112985196D01*
X155150429Y-112979235D01*
X155127329Y-112970970D01*
X155105151Y-112960480D01*
X155084107Y-112947867D01*
X155064402Y-112933253D01*
X155046223Y-112916777D01*
X155029747Y-112898598D01*
X155015133Y-112878893D01*
X155002520Y-112857849D01*
X154992030Y-112835671D01*
X154983765Y-112812571D01*
X154977804Y-112788773D01*
X154974204Y-112764504D01*
X154973000Y-112740000D01*
X154973000Y-111490000D01*
X154974204Y-111465496D01*
X154977804Y-111441227D01*
X154983765Y-111417429D01*
X154992030Y-111394329D01*
X155002520Y-111372151D01*
X155015133Y-111351107D01*
X155029747Y-111331402D01*
X155046223Y-111313223D01*
X155064402Y-111296747D01*
X155084107Y-111282133D01*
X155105151Y-111269520D01*
X155127329Y-111259030D01*
X155150429Y-111250765D01*
X155174227Y-111244804D01*
X155198496Y-111241204D01*
X155223000Y-111240000D01*
X155973000Y-111240000D01*
X155997504Y-111241204D01*
G37*
G36*
X158797504Y-111241204D02*
G01*
X158821773Y-111244804D01*
X158845571Y-111250765D01*
X158868671Y-111259030D01*
X158890849Y-111269520D01*
X158911893Y-111282133D01*
X158931598Y-111296747D01*
X158949777Y-111313223D01*
X158966253Y-111331402D01*
X158980867Y-111351107D01*
X158993480Y-111372151D01*
X159003970Y-111394329D01*
X159012235Y-111417429D01*
X159018196Y-111441227D01*
X159021796Y-111465496D01*
X159023000Y-111490000D01*
X159023000Y-112740000D01*
X159021796Y-112764504D01*
X159018196Y-112788773D01*
X159012235Y-112812571D01*
X159003970Y-112835671D01*
X158993480Y-112857849D01*
X158980867Y-112878893D01*
X158966253Y-112898598D01*
X158949777Y-112916777D01*
X158931598Y-112933253D01*
X158911893Y-112947867D01*
X158890849Y-112960480D01*
X158868671Y-112970970D01*
X158845571Y-112979235D01*
X158821773Y-112985196D01*
X158797504Y-112988796D01*
X158773000Y-112990000D01*
X158023000Y-112990000D01*
X157998496Y-112988796D01*
X157974227Y-112985196D01*
X157950429Y-112979235D01*
X157927329Y-112970970D01*
X157905151Y-112960480D01*
X157884107Y-112947867D01*
X157864402Y-112933253D01*
X157846223Y-112916777D01*
X157829747Y-112898598D01*
X157815133Y-112878893D01*
X157802520Y-112857849D01*
X157792030Y-112835671D01*
X157783765Y-112812571D01*
X157777804Y-112788773D01*
X157774204Y-112764504D01*
X157773000Y-112740000D01*
X157773000Y-111490000D01*
X157774204Y-111465496D01*
X157777804Y-111441227D01*
X157783765Y-111417429D01*
X157792030Y-111394329D01*
X157802520Y-111372151D01*
X157815133Y-111351107D01*
X157829747Y-111331402D01*
X157846223Y-111313223D01*
X157864402Y-111296747D01*
X157884107Y-111282133D01*
X157905151Y-111269520D01*
X157927329Y-111259030D01*
X157950429Y-111250765D01*
X157974227Y-111244804D01*
X157998496Y-111241204D01*
X158023000Y-111240000D01*
X158773000Y-111240000D01*
X158797504Y-111241204D01*
G37*
D20*
X160498000Y-87515000D03*
X160498000Y-84715000D03*
X160498000Y-95015000D03*
X160498000Y-92215000D03*
X160498000Y-102515000D03*
X160498000Y-99715000D03*
X160498000Y-110015000D03*
X160498000Y-107215000D03*
D11*
G36*
X178872504Y-89266204D02*
G01*
X178896773Y-89269804D01*
X178920571Y-89275765D01*
X178943671Y-89284030D01*
X178965849Y-89294520D01*
X178986893Y-89307133D01*
X179006598Y-89321747D01*
X179024777Y-89338223D01*
X179041253Y-89356402D01*
X179055867Y-89376107D01*
X179068480Y-89397151D01*
X179078970Y-89419329D01*
X179087235Y-89442429D01*
X179093196Y-89466227D01*
X179096796Y-89490496D01*
X179098000Y-89515000D01*
X179098000Y-90515000D01*
X179096796Y-90539504D01*
X179093196Y-90563773D01*
X179087235Y-90587571D01*
X179078970Y-90610671D01*
X179068480Y-90632849D01*
X179055867Y-90653893D01*
X179041253Y-90673598D01*
X179024777Y-90691777D01*
X179006598Y-90708253D01*
X178986893Y-90722867D01*
X178965849Y-90735480D01*
X178943671Y-90745970D01*
X178920571Y-90754235D01*
X178896773Y-90760196D01*
X178872504Y-90763796D01*
X178848000Y-90765000D01*
X175948000Y-90765000D01*
X175923496Y-90763796D01*
X175899227Y-90760196D01*
X175875429Y-90754235D01*
X175852329Y-90745970D01*
X175830151Y-90735480D01*
X175809107Y-90722867D01*
X175789402Y-90708253D01*
X175771223Y-90691777D01*
X175754747Y-90673598D01*
X175740133Y-90653893D01*
X175727520Y-90632849D01*
X175717030Y-90610671D01*
X175708765Y-90587571D01*
X175702804Y-90563773D01*
X175699204Y-90539504D01*
X175698000Y-90515000D01*
X175698000Y-89515000D01*
X175699204Y-89490496D01*
X175702804Y-89466227D01*
X175708765Y-89442429D01*
X175717030Y-89419329D01*
X175727520Y-89397151D01*
X175740133Y-89376107D01*
X175754747Y-89356402D01*
X175771223Y-89338223D01*
X175789402Y-89321747D01*
X175809107Y-89307133D01*
X175830151Y-89294520D01*
X175852329Y-89284030D01*
X175875429Y-89275765D01*
X175899227Y-89269804D01*
X175923496Y-89266204D01*
X175948000Y-89265000D01*
X178848000Y-89265000D01*
X178872504Y-89266204D01*
G37*
G36*
X178872504Y-107966204D02*
G01*
X178896773Y-107969804D01*
X178920571Y-107975765D01*
X178943671Y-107984030D01*
X178965849Y-107994520D01*
X178986893Y-108007133D01*
X179006598Y-108021747D01*
X179024777Y-108038223D01*
X179041253Y-108056402D01*
X179055867Y-108076107D01*
X179068480Y-108097151D01*
X179078970Y-108119329D01*
X179087235Y-108142429D01*
X179093196Y-108166227D01*
X179096796Y-108190496D01*
X179098000Y-108215000D01*
X179098000Y-109215000D01*
X179096796Y-109239504D01*
X179093196Y-109263773D01*
X179087235Y-109287571D01*
X179078970Y-109310671D01*
X179068480Y-109332849D01*
X179055867Y-109353893D01*
X179041253Y-109373598D01*
X179024777Y-109391777D01*
X179006598Y-109408253D01*
X178986893Y-109422867D01*
X178965849Y-109435480D01*
X178943671Y-109445970D01*
X178920571Y-109454235D01*
X178896773Y-109460196D01*
X178872504Y-109463796D01*
X178848000Y-109465000D01*
X175948000Y-109465000D01*
X175923496Y-109463796D01*
X175899227Y-109460196D01*
X175875429Y-109454235D01*
X175852329Y-109445970D01*
X175830151Y-109435480D01*
X175809107Y-109422867D01*
X175789402Y-109408253D01*
X175771223Y-109391777D01*
X175754747Y-109373598D01*
X175740133Y-109353893D01*
X175727520Y-109332849D01*
X175717030Y-109310671D01*
X175708765Y-109287571D01*
X175702804Y-109263773D01*
X175699204Y-109239504D01*
X175698000Y-109215000D01*
X175698000Y-108215000D01*
X175699204Y-108190496D01*
X175702804Y-108166227D01*
X175708765Y-108142429D01*
X175717030Y-108119329D01*
X175727520Y-108097151D01*
X175740133Y-108076107D01*
X175754747Y-108056402D01*
X175771223Y-108038223D01*
X175789402Y-108021747D01*
X175809107Y-108007133D01*
X175830151Y-107994520D01*
X175852329Y-107984030D01*
X175875429Y-107975765D01*
X175899227Y-107969804D01*
X175923496Y-107966204D01*
X175948000Y-107965000D01*
X178848000Y-107965000D01*
X178872504Y-107966204D01*
G37*
G36*
X173172504Y-91866204D02*
G01*
X173196773Y-91869804D01*
X173220571Y-91875765D01*
X173243671Y-91884030D01*
X173265849Y-91894520D01*
X173286893Y-91907133D01*
X173306598Y-91921747D01*
X173324777Y-91938223D01*
X173341253Y-91956402D01*
X173355867Y-91976107D01*
X173368480Y-91997151D01*
X173378970Y-92019329D01*
X173387235Y-92042429D01*
X173393196Y-92066227D01*
X173396796Y-92090496D01*
X173398000Y-92115000D01*
X173398000Y-92615000D01*
X173396796Y-92639504D01*
X173393196Y-92663773D01*
X173387235Y-92687571D01*
X173378970Y-92710671D01*
X173368480Y-92732849D01*
X173355867Y-92753893D01*
X173341253Y-92773598D01*
X173324777Y-92791777D01*
X173306598Y-92808253D01*
X173286893Y-92822867D01*
X173265849Y-92835480D01*
X173243671Y-92845970D01*
X173220571Y-92854235D01*
X173196773Y-92860196D01*
X173172504Y-92863796D01*
X173148000Y-92865000D01*
X170148000Y-92865000D01*
X170123496Y-92863796D01*
X170099227Y-92860196D01*
X170075429Y-92854235D01*
X170052329Y-92845970D01*
X170030151Y-92835480D01*
X170009107Y-92822867D01*
X169989402Y-92808253D01*
X169971223Y-92791777D01*
X169954747Y-92773598D01*
X169940133Y-92753893D01*
X169927520Y-92732849D01*
X169917030Y-92710671D01*
X169908765Y-92687571D01*
X169902804Y-92663773D01*
X169899204Y-92639504D01*
X169898000Y-92615000D01*
X169898000Y-92115000D01*
X169899204Y-92090496D01*
X169902804Y-92066227D01*
X169908765Y-92042429D01*
X169917030Y-92019329D01*
X169927520Y-91997151D01*
X169940133Y-91976107D01*
X169954747Y-91956402D01*
X169971223Y-91938223D01*
X169989402Y-91921747D01*
X170009107Y-91907133D01*
X170030151Y-91894520D01*
X170052329Y-91884030D01*
X170075429Y-91875765D01*
X170099227Y-91869804D01*
X170123496Y-91866204D01*
X170148000Y-91865000D01*
X173148000Y-91865000D01*
X173172504Y-91866204D01*
G37*
G36*
X173172504Y-93866204D02*
G01*
X173196773Y-93869804D01*
X173220571Y-93875765D01*
X173243671Y-93884030D01*
X173265849Y-93894520D01*
X173286893Y-93907133D01*
X173306598Y-93921747D01*
X173324777Y-93938223D01*
X173341253Y-93956402D01*
X173355867Y-93976107D01*
X173368480Y-93997151D01*
X173378970Y-94019329D01*
X173387235Y-94042429D01*
X173393196Y-94066227D01*
X173396796Y-94090496D01*
X173398000Y-94115000D01*
X173398000Y-94615000D01*
X173396796Y-94639504D01*
X173393196Y-94663773D01*
X173387235Y-94687571D01*
X173378970Y-94710671D01*
X173368480Y-94732849D01*
X173355867Y-94753893D01*
X173341253Y-94773598D01*
X173324777Y-94791777D01*
X173306598Y-94808253D01*
X173286893Y-94822867D01*
X173265849Y-94835480D01*
X173243671Y-94845970D01*
X173220571Y-94854235D01*
X173196773Y-94860196D01*
X173172504Y-94863796D01*
X173148000Y-94865000D01*
X170148000Y-94865000D01*
X170123496Y-94863796D01*
X170099227Y-94860196D01*
X170075429Y-94854235D01*
X170052329Y-94845970D01*
X170030151Y-94835480D01*
X170009107Y-94822867D01*
X169989402Y-94808253D01*
X169971223Y-94791777D01*
X169954747Y-94773598D01*
X169940133Y-94753893D01*
X169927520Y-94732849D01*
X169917030Y-94710671D01*
X169908765Y-94687571D01*
X169902804Y-94663773D01*
X169899204Y-94639504D01*
X169898000Y-94615000D01*
X169898000Y-94115000D01*
X169899204Y-94090496D01*
X169902804Y-94066227D01*
X169908765Y-94042429D01*
X169917030Y-94019329D01*
X169927520Y-93997151D01*
X169940133Y-93976107D01*
X169954747Y-93956402D01*
X169971223Y-93938223D01*
X169989402Y-93921747D01*
X170009107Y-93907133D01*
X170030151Y-93894520D01*
X170052329Y-93884030D01*
X170075429Y-93875765D01*
X170099227Y-93869804D01*
X170123496Y-93866204D01*
X170148000Y-93865000D01*
X173148000Y-93865000D01*
X173172504Y-93866204D01*
G37*
G36*
X173172504Y-95866204D02*
G01*
X173196773Y-95869804D01*
X173220571Y-95875765D01*
X173243671Y-95884030D01*
X173265849Y-95894520D01*
X173286893Y-95907133D01*
X173306598Y-95921747D01*
X173324777Y-95938223D01*
X173341253Y-95956402D01*
X173355867Y-95976107D01*
X173368480Y-95997151D01*
X173378970Y-96019329D01*
X173387235Y-96042429D01*
X173393196Y-96066227D01*
X173396796Y-96090496D01*
X173398000Y-96115000D01*
X173398000Y-96615000D01*
X173396796Y-96639504D01*
X173393196Y-96663773D01*
X173387235Y-96687571D01*
X173378970Y-96710671D01*
X173368480Y-96732849D01*
X173355867Y-96753893D01*
X173341253Y-96773598D01*
X173324777Y-96791777D01*
X173306598Y-96808253D01*
X173286893Y-96822867D01*
X173265849Y-96835480D01*
X173243671Y-96845970D01*
X173220571Y-96854235D01*
X173196773Y-96860196D01*
X173172504Y-96863796D01*
X173148000Y-96865000D01*
X170148000Y-96865000D01*
X170123496Y-96863796D01*
X170099227Y-96860196D01*
X170075429Y-96854235D01*
X170052329Y-96845970D01*
X170030151Y-96835480D01*
X170009107Y-96822867D01*
X169989402Y-96808253D01*
X169971223Y-96791777D01*
X169954747Y-96773598D01*
X169940133Y-96753893D01*
X169927520Y-96732849D01*
X169917030Y-96710671D01*
X169908765Y-96687571D01*
X169902804Y-96663773D01*
X169899204Y-96639504D01*
X169898000Y-96615000D01*
X169898000Y-96115000D01*
X169899204Y-96090496D01*
X169902804Y-96066227D01*
X169908765Y-96042429D01*
X169917030Y-96019329D01*
X169927520Y-95997151D01*
X169940133Y-95976107D01*
X169954747Y-95956402D01*
X169971223Y-95938223D01*
X169989402Y-95921747D01*
X170009107Y-95907133D01*
X170030151Y-95894520D01*
X170052329Y-95884030D01*
X170075429Y-95875765D01*
X170099227Y-95869804D01*
X170123496Y-95866204D01*
X170148000Y-95865000D01*
X173148000Y-95865000D01*
X173172504Y-95866204D01*
G37*
G36*
X173172504Y-97866204D02*
G01*
X173196773Y-97869804D01*
X173220571Y-97875765D01*
X173243671Y-97884030D01*
X173265849Y-97894520D01*
X173286893Y-97907133D01*
X173306598Y-97921747D01*
X173324777Y-97938223D01*
X173341253Y-97956402D01*
X173355867Y-97976107D01*
X173368480Y-97997151D01*
X173378970Y-98019329D01*
X173387235Y-98042429D01*
X173393196Y-98066227D01*
X173396796Y-98090496D01*
X173398000Y-98115000D01*
X173398000Y-98615000D01*
X173396796Y-98639504D01*
X173393196Y-98663773D01*
X173387235Y-98687571D01*
X173378970Y-98710671D01*
X173368480Y-98732849D01*
X173355867Y-98753893D01*
X173341253Y-98773598D01*
X173324777Y-98791777D01*
X173306598Y-98808253D01*
X173286893Y-98822867D01*
X173265849Y-98835480D01*
X173243671Y-98845970D01*
X173220571Y-98854235D01*
X173196773Y-98860196D01*
X173172504Y-98863796D01*
X173148000Y-98865000D01*
X170148000Y-98865000D01*
X170123496Y-98863796D01*
X170099227Y-98860196D01*
X170075429Y-98854235D01*
X170052329Y-98845970D01*
X170030151Y-98835480D01*
X170009107Y-98822867D01*
X169989402Y-98808253D01*
X169971223Y-98791777D01*
X169954747Y-98773598D01*
X169940133Y-98753893D01*
X169927520Y-98732849D01*
X169917030Y-98710671D01*
X169908765Y-98687571D01*
X169902804Y-98663773D01*
X169899204Y-98639504D01*
X169898000Y-98615000D01*
X169898000Y-98115000D01*
X169899204Y-98090496D01*
X169902804Y-98066227D01*
X169908765Y-98042429D01*
X169917030Y-98019329D01*
X169927520Y-97997151D01*
X169940133Y-97976107D01*
X169954747Y-97956402D01*
X169971223Y-97938223D01*
X169989402Y-97921747D01*
X170009107Y-97907133D01*
X170030151Y-97894520D01*
X170052329Y-97884030D01*
X170075429Y-97875765D01*
X170099227Y-97869804D01*
X170123496Y-97866204D01*
X170148000Y-97865000D01*
X173148000Y-97865000D01*
X173172504Y-97866204D01*
G37*
G36*
X173172504Y-99866204D02*
G01*
X173196773Y-99869804D01*
X173220571Y-99875765D01*
X173243671Y-99884030D01*
X173265849Y-99894520D01*
X173286893Y-99907133D01*
X173306598Y-99921747D01*
X173324777Y-99938223D01*
X173341253Y-99956402D01*
X173355867Y-99976107D01*
X173368480Y-99997151D01*
X173378970Y-100019329D01*
X173387235Y-100042429D01*
X173393196Y-100066227D01*
X173396796Y-100090496D01*
X173398000Y-100115000D01*
X173398000Y-100615000D01*
X173396796Y-100639504D01*
X173393196Y-100663773D01*
X173387235Y-100687571D01*
X173378970Y-100710671D01*
X173368480Y-100732849D01*
X173355867Y-100753893D01*
X173341253Y-100773598D01*
X173324777Y-100791777D01*
X173306598Y-100808253D01*
X173286893Y-100822867D01*
X173265849Y-100835480D01*
X173243671Y-100845970D01*
X173220571Y-100854235D01*
X173196773Y-100860196D01*
X173172504Y-100863796D01*
X173148000Y-100865000D01*
X170148000Y-100865000D01*
X170123496Y-100863796D01*
X170099227Y-100860196D01*
X170075429Y-100854235D01*
X170052329Y-100845970D01*
X170030151Y-100835480D01*
X170009107Y-100822867D01*
X169989402Y-100808253D01*
X169971223Y-100791777D01*
X169954747Y-100773598D01*
X169940133Y-100753893D01*
X169927520Y-100732849D01*
X169917030Y-100710671D01*
X169908765Y-100687571D01*
X169902804Y-100663773D01*
X169899204Y-100639504D01*
X169898000Y-100615000D01*
X169898000Y-100115000D01*
X169899204Y-100090496D01*
X169902804Y-100066227D01*
X169908765Y-100042429D01*
X169917030Y-100019329D01*
X169927520Y-99997151D01*
X169940133Y-99976107D01*
X169954747Y-99956402D01*
X169971223Y-99938223D01*
X169989402Y-99921747D01*
X170009107Y-99907133D01*
X170030151Y-99894520D01*
X170052329Y-99884030D01*
X170075429Y-99875765D01*
X170099227Y-99869804D01*
X170123496Y-99866204D01*
X170148000Y-99865000D01*
X173148000Y-99865000D01*
X173172504Y-99866204D01*
G37*
G36*
X173172504Y-101866204D02*
G01*
X173196773Y-101869804D01*
X173220571Y-101875765D01*
X173243671Y-101884030D01*
X173265849Y-101894520D01*
X173286893Y-101907133D01*
X173306598Y-101921747D01*
X173324777Y-101938223D01*
X173341253Y-101956402D01*
X173355867Y-101976107D01*
X173368480Y-101997151D01*
X173378970Y-102019329D01*
X173387235Y-102042429D01*
X173393196Y-102066227D01*
X173396796Y-102090496D01*
X173398000Y-102115000D01*
X173398000Y-102615000D01*
X173396796Y-102639504D01*
X173393196Y-102663773D01*
X173387235Y-102687571D01*
X173378970Y-102710671D01*
X173368480Y-102732849D01*
X173355867Y-102753893D01*
X173341253Y-102773598D01*
X173324777Y-102791777D01*
X173306598Y-102808253D01*
X173286893Y-102822867D01*
X173265849Y-102835480D01*
X173243671Y-102845970D01*
X173220571Y-102854235D01*
X173196773Y-102860196D01*
X173172504Y-102863796D01*
X173148000Y-102865000D01*
X170148000Y-102865000D01*
X170123496Y-102863796D01*
X170099227Y-102860196D01*
X170075429Y-102854235D01*
X170052329Y-102845970D01*
X170030151Y-102835480D01*
X170009107Y-102822867D01*
X169989402Y-102808253D01*
X169971223Y-102791777D01*
X169954747Y-102773598D01*
X169940133Y-102753893D01*
X169927520Y-102732849D01*
X169917030Y-102710671D01*
X169908765Y-102687571D01*
X169902804Y-102663773D01*
X169899204Y-102639504D01*
X169898000Y-102615000D01*
X169898000Y-102115000D01*
X169899204Y-102090496D01*
X169902804Y-102066227D01*
X169908765Y-102042429D01*
X169917030Y-102019329D01*
X169927520Y-101997151D01*
X169940133Y-101976107D01*
X169954747Y-101956402D01*
X169971223Y-101938223D01*
X169989402Y-101921747D01*
X170009107Y-101907133D01*
X170030151Y-101894520D01*
X170052329Y-101884030D01*
X170075429Y-101875765D01*
X170099227Y-101869804D01*
X170123496Y-101866204D01*
X170148000Y-101865000D01*
X173148000Y-101865000D01*
X173172504Y-101866204D01*
G37*
G36*
X173172504Y-103866204D02*
G01*
X173196773Y-103869804D01*
X173220571Y-103875765D01*
X173243671Y-103884030D01*
X173265849Y-103894520D01*
X173286893Y-103907133D01*
X173306598Y-103921747D01*
X173324777Y-103938223D01*
X173341253Y-103956402D01*
X173355867Y-103976107D01*
X173368480Y-103997151D01*
X173378970Y-104019329D01*
X173387235Y-104042429D01*
X173393196Y-104066227D01*
X173396796Y-104090496D01*
X173398000Y-104115000D01*
X173398000Y-104615000D01*
X173396796Y-104639504D01*
X173393196Y-104663773D01*
X173387235Y-104687571D01*
X173378970Y-104710671D01*
X173368480Y-104732849D01*
X173355867Y-104753893D01*
X173341253Y-104773598D01*
X173324777Y-104791777D01*
X173306598Y-104808253D01*
X173286893Y-104822867D01*
X173265849Y-104835480D01*
X173243671Y-104845970D01*
X173220571Y-104854235D01*
X173196773Y-104860196D01*
X173172504Y-104863796D01*
X173148000Y-104865000D01*
X170148000Y-104865000D01*
X170123496Y-104863796D01*
X170099227Y-104860196D01*
X170075429Y-104854235D01*
X170052329Y-104845970D01*
X170030151Y-104835480D01*
X170009107Y-104822867D01*
X169989402Y-104808253D01*
X169971223Y-104791777D01*
X169954747Y-104773598D01*
X169940133Y-104753893D01*
X169927520Y-104732849D01*
X169917030Y-104710671D01*
X169908765Y-104687571D01*
X169902804Y-104663773D01*
X169899204Y-104639504D01*
X169898000Y-104615000D01*
X169898000Y-104115000D01*
X169899204Y-104090496D01*
X169902804Y-104066227D01*
X169908765Y-104042429D01*
X169917030Y-104019329D01*
X169927520Y-103997151D01*
X169940133Y-103976107D01*
X169954747Y-103956402D01*
X169971223Y-103938223D01*
X169989402Y-103921747D01*
X170009107Y-103907133D01*
X170030151Y-103894520D01*
X170052329Y-103884030D01*
X170075429Y-103875765D01*
X170099227Y-103869804D01*
X170123496Y-103866204D01*
X170148000Y-103865000D01*
X173148000Y-103865000D01*
X173172504Y-103866204D01*
G37*
G36*
X173172504Y-105866204D02*
G01*
X173196773Y-105869804D01*
X173220571Y-105875765D01*
X173243671Y-105884030D01*
X173265849Y-105894520D01*
X173286893Y-105907133D01*
X173306598Y-105921747D01*
X173324777Y-105938223D01*
X173341253Y-105956402D01*
X173355867Y-105976107D01*
X173368480Y-105997151D01*
X173378970Y-106019329D01*
X173387235Y-106042429D01*
X173393196Y-106066227D01*
X173396796Y-106090496D01*
X173398000Y-106115000D01*
X173398000Y-106615000D01*
X173396796Y-106639504D01*
X173393196Y-106663773D01*
X173387235Y-106687571D01*
X173378970Y-106710671D01*
X173368480Y-106732849D01*
X173355867Y-106753893D01*
X173341253Y-106773598D01*
X173324777Y-106791777D01*
X173306598Y-106808253D01*
X173286893Y-106822867D01*
X173265849Y-106835480D01*
X173243671Y-106845970D01*
X173220571Y-106854235D01*
X173196773Y-106860196D01*
X173172504Y-106863796D01*
X173148000Y-106865000D01*
X170148000Y-106865000D01*
X170123496Y-106863796D01*
X170099227Y-106860196D01*
X170075429Y-106854235D01*
X170052329Y-106845970D01*
X170030151Y-106835480D01*
X170009107Y-106822867D01*
X169989402Y-106808253D01*
X169971223Y-106791777D01*
X169954747Y-106773598D01*
X169940133Y-106753893D01*
X169927520Y-106732849D01*
X169917030Y-106710671D01*
X169908765Y-106687571D01*
X169902804Y-106663773D01*
X169899204Y-106639504D01*
X169898000Y-106615000D01*
X169898000Y-106115000D01*
X169899204Y-106090496D01*
X169902804Y-106066227D01*
X169908765Y-106042429D01*
X169917030Y-106019329D01*
X169927520Y-105997151D01*
X169940133Y-105976107D01*
X169954747Y-105956402D01*
X169971223Y-105938223D01*
X169989402Y-105921747D01*
X170009107Y-105907133D01*
X170030151Y-105894520D01*
X170052329Y-105884030D01*
X170075429Y-105875765D01*
X170099227Y-105869804D01*
X170123496Y-105866204D01*
X170148000Y-105865000D01*
X173148000Y-105865000D01*
X173172504Y-105866204D01*
G37*
G36*
X119158765Y-109819213D02*
G01*
X119243704Y-109831813D01*
X119326999Y-109852677D01*
X119407848Y-109881605D01*
X119485472Y-109918319D01*
X119559124Y-109962464D01*
X119628094Y-110013616D01*
X119691718Y-110071282D01*
X119749384Y-110134906D01*
X119800536Y-110203876D01*
X119844681Y-110277528D01*
X119881395Y-110355152D01*
X119910323Y-110436001D01*
X119931187Y-110519296D01*
X119943787Y-110604235D01*
X119948000Y-110690000D01*
X119948000Y-112440000D01*
X119943787Y-112525765D01*
X119931187Y-112610704D01*
X119910323Y-112693999D01*
X119881395Y-112774848D01*
X119844681Y-112852472D01*
X119800536Y-112926124D01*
X119749384Y-112995094D01*
X119691718Y-113058718D01*
X119628094Y-113116384D01*
X119559124Y-113167536D01*
X119485472Y-113211681D01*
X119407848Y-113248395D01*
X119326999Y-113277323D01*
X119243704Y-113298187D01*
X119158765Y-113310787D01*
X119073000Y-113315000D01*
X117323000Y-113315000D01*
X117237235Y-113310787D01*
X117152296Y-113298187D01*
X117069001Y-113277323D01*
X116988152Y-113248395D01*
X116910528Y-113211681D01*
X116836876Y-113167536D01*
X116767906Y-113116384D01*
X116704282Y-113058718D01*
X116646616Y-112995094D01*
X116595464Y-112926124D01*
X116551319Y-112852472D01*
X116514605Y-112774848D01*
X116485677Y-112693999D01*
X116464813Y-112610704D01*
X116452213Y-112525765D01*
X116448000Y-112440000D01*
X116448000Y-110690000D01*
X116452213Y-110604235D01*
X116464813Y-110519296D01*
X116485677Y-110436001D01*
X116514605Y-110355152D01*
X116551319Y-110277528D01*
X116595464Y-110203876D01*
X116646616Y-110134906D01*
X116704282Y-110071282D01*
X116767906Y-110013616D01*
X116836876Y-109962464D01*
X116910528Y-109918319D01*
X116988152Y-109881605D01*
X117069001Y-109852677D01*
X117152296Y-109831813D01*
X117237235Y-109819213D01*
X117323000Y-109815000D01*
X119073000Y-109815000D01*
X119158765Y-109819213D01*
G37*
G36*
X116021513Y-105118611D02*
G01*
X116094318Y-105129411D01*
X116165714Y-105147295D01*
X116235013Y-105172090D01*
X116301548Y-105203559D01*
X116364678Y-105241398D01*
X116423795Y-105285242D01*
X116478330Y-105334670D01*
X116527758Y-105389205D01*
X116571602Y-105448322D01*
X116609441Y-105511452D01*
X116640910Y-105577987D01*
X116665705Y-105647286D01*
X116683589Y-105718682D01*
X116694389Y-105791487D01*
X116698000Y-105865000D01*
X116698000Y-107865000D01*
X116694389Y-107938513D01*
X116683589Y-108011318D01*
X116665705Y-108082714D01*
X116640910Y-108152013D01*
X116609441Y-108218548D01*
X116571602Y-108281678D01*
X116527758Y-108340795D01*
X116478330Y-108395330D01*
X116423795Y-108444758D01*
X116364678Y-108488602D01*
X116301548Y-108526441D01*
X116235013Y-108557910D01*
X116165714Y-108582705D01*
X116094318Y-108600589D01*
X116021513Y-108611389D01*
X115948000Y-108615000D01*
X114448000Y-108615000D01*
X114374487Y-108611389D01*
X114301682Y-108600589D01*
X114230286Y-108582705D01*
X114160987Y-108557910D01*
X114094452Y-108526441D01*
X114031322Y-108488602D01*
X113972205Y-108444758D01*
X113917670Y-108395330D01*
X113868242Y-108340795D01*
X113824398Y-108281678D01*
X113786559Y-108218548D01*
X113755090Y-108152013D01*
X113730295Y-108082714D01*
X113712411Y-108011318D01*
X113701611Y-107938513D01*
X113698000Y-107865000D01*
X113698000Y-105865000D01*
X113701611Y-105791487D01*
X113712411Y-105718682D01*
X113730295Y-105647286D01*
X113755090Y-105577987D01*
X113786559Y-105511452D01*
X113824398Y-105448322D01*
X113868242Y-105389205D01*
X113917670Y-105334670D01*
X113972205Y-105285242D01*
X114031322Y-105241398D01*
X114094452Y-105203559D01*
X114160987Y-105172090D01*
X114230286Y-105147295D01*
X114301682Y-105129411D01*
X114374487Y-105118611D01*
X114448000Y-105115000D01*
X115948000Y-105115000D01*
X116021513Y-105118611D01*
G37*
D21*
X121198000Y-106865000D03*
D16*
X164498000Y-92615000D03*
X164498000Y-96615000D03*
D11*
G36*
X129475691Y-103916053D02*
G01*
X129496926Y-103919203D01*
X129517750Y-103924419D01*
X129537962Y-103931651D01*
X129557368Y-103940830D01*
X129575781Y-103951866D01*
X129593024Y-103964654D01*
X129608930Y-103979070D01*
X129623346Y-103994976D01*
X129636134Y-104012219D01*
X129647170Y-104030632D01*
X129656349Y-104050038D01*
X129663581Y-104070250D01*
X129668797Y-104091074D01*
X129671947Y-104112309D01*
X129673000Y-104133750D01*
X129673000Y-104571250D01*
X129671947Y-104592691D01*
X129668797Y-104613926D01*
X129663581Y-104634750D01*
X129656349Y-104654962D01*
X129647170Y-104674368D01*
X129636134Y-104692781D01*
X129623346Y-104710024D01*
X129608930Y-104725930D01*
X129593024Y-104740346D01*
X129575781Y-104753134D01*
X129557368Y-104764170D01*
X129537962Y-104773349D01*
X129517750Y-104780581D01*
X129496926Y-104785797D01*
X129475691Y-104788947D01*
X129454250Y-104790000D01*
X128941750Y-104790000D01*
X128920309Y-104788947D01*
X128899074Y-104785797D01*
X128878250Y-104780581D01*
X128858038Y-104773349D01*
X128838632Y-104764170D01*
X128820219Y-104753134D01*
X128802976Y-104740346D01*
X128787070Y-104725930D01*
X128772654Y-104710024D01*
X128759866Y-104692781D01*
X128748830Y-104674368D01*
X128739651Y-104654962D01*
X128732419Y-104634750D01*
X128727203Y-104613926D01*
X128724053Y-104592691D01*
X128723000Y-104571250D01*
X128723000Y-104133750D01*
X128724053Y-104112309D01*
X128727203Y-104091074D01*
X128732419Y-104070250D01*
X128739651Y-104050038D01*
X128748830Y-104030632D01*
X128759866Y-104012219D01*
X128772654Y-103994976D01*
X128787070Y-103979070D01*
X128802976Y-103964654D01*
X128820219Y-103951866D01*
X128838632Y-103940830D01*
X128858038Y-103931651D01*
X128878250Y-103924419D01*
X128899074Y-103919203D01*
X128920309Y-103916053D01*
X128941750Y-103915000D01*
X129454250Y-103915000D01*
X129475691Y-103916053D01*
G37*
G36*
X129475691Y-102341053D02*
G01*
X129496926Y-102344203D01*
X129517750Y-102349419D01*
X129537962Y-102356651D01*
X129557368Y-102365830D01*
X129575781Y-102376866D01*
X129593024Y-102389654D01*
X129608930Y-102404070D01*
X129623346Y-102419976D01*
X129636134Y-102437219D01*
X129647170Y-102455632D01*
X129656349Y-102475038D01*
X129663581Y-102495250D01*
X129668797Y-102516074D01*
X129671947Y-102537309D01*
X129673000Y-102558750D01*
X129673000Y-102996250D01*
X129671947Y-103017691D01*
X129668797Y-103038926D01*
X129663581Y-103059750D01*
X129656349Y-103079962D01*
X129647170Y-103099368D01*
X129636134Y-103117781D01*
X129623346Y-103135024D01*
X129608930Y-103150930D01*
X129593024Y-103165346D01*
X129575781Y-103178134D01*
X129557368Y-103189170D01*
X129537962Y-103198349D01*
X129517750Y-103205581D01*
X129496926Y-103210797D01*
X129475691Y-103213947D01*
X129454250Y-103215000D01*
X128941750Y-103215000D01*
X128920309Y-103213947D01*
X128899074Y-103210797D01*
X128878250Y-103205581D01*
X128858038Y-103198349D01*
X128838632Y-103189170D01*
X128820219Y-103178134D01*
X128802976Y-103165346D01*
X128787070Y-103150930D01*
X128772654Y-103135024D01*
X128759866Y-103117781D01*
X128748830Y-103099368D01*
X128739651Y-103079962D01*
X128732419Y-103059750D01*
X128727203Y-103038926D01*
X128724053Y-103017691D01*
X128723000Y-102996250D01*
X128723000Y-102558750D01*
X128724053Y-102537309D01*
X128727203Y-102516074D01*
X128732419Y-102495250D01*
X128739651Y-102475038D01*
X128748830Y-102455632D01*
X128759866Y-102437219D01*
X128772654Y-102419976D01*
X128787070Y-102404070D01*
X128802976Y-102389654D01*
X128820219Y-102376866D01*
X128838632Y-102365830D01*
X128858038Y-102356651D01*
X128878250Y-102349419D01*
X128899074Y-102344203D01*
X128920309Y-102341053D01*
X128941750Y-102340000D01*
X129454250Y-102340000D01*
X129475691Y-102341053D01*
G37*
D22*
X143198000Y-111165000D03*
D23*
X143198000Y-113165000D03*
D11*
G36*
X137775691Y-106891053D02*
G01*
X137796926Y-106894203D01*
X137817750Y-106899419D01*
X137837962Y-106906651D01*
X137857368Y-106915830D01*
X137875781Y-106926866D01*
X137893024Y-106939654D01*
X137908930Y-106954070D01*
X137923346Y-106969976D01*
X137936134Y-106987219D01*
X137947170Y-107005632D01*
X137956349Y-107025038D01*
X137963581Y-107045250D01*
X137968797Y-107066074D01*
X137971947Y-107087309D01*
X137973000Y-107108750D01*
X137973000Y-107621250D01*
X137971947Y-107642691D01*
X137968797Y-107663926D01*
X137963581Y-107684750D01*
X137956349Y-107704962D01*
X137947170Y-107724368D01*
X137936134Y-107742781D01*
X137923346Y-107760024D01*
X137908930Y-107775930D01*
X137893024Y-107790346D01*
X137875781Y-107803134D01*
X137857368Y-107814170D01*
X137837962Y-107823349D01*
X137817750Y-107830581D01*
X137796926Y-107835797D01*
X137775691Y-107838947D01*
X137754250Y-107840000D01*
X137316750Y-107840000D01*
X137295309Y-107838947D01*
X137274074Y-107835797D01*
X137253250Y-107830581D01*
X137233038Y-107823349D01*
X137213632Y-107814170D01*
X137195219Y-107803134D01*
X137177976Y-107790346D01*
X137162070Y-107775930D01*
X137147654Y-107760024D01*
X137134866Y-107742781D01*
X137123830Y-107724368D01*
X137114651Y-107704962D01*
X137107419Y-107684750D01*
X137102203Y-107663926D01*
X137099053Y-107642691D01*
X137098000Y-107621250D01*
X137098000Y-107108750D01*
X137099053Y-107087309D01*
X137102203Y-107066074D01*
X137107419Y-107045250D01*
X137114651Y-107025038D01*
X137123830Y-107005632D01*
X137134866Y-106987219D01*
X137147654Y-106969976D01*
X137162070Y-106954070D01*
X137177976Y-106939654D01*
X137195219Y-106926866D01*
X137213632Y-106915830D01*
X137233038Y-106906651D01*
X137253250Y-106899419D01*
X137274074Y-106894203D01*
X137295309Y-106891053D01*
X137316750Y-106890000D01*
X137754250Y-106890000D01*
X137775691Y-106891053D01*
G37*
G36*
X136200691Y-106891053D02*
G01*
X136221926Y-106894203D01*
X136242750Y-106899419D01*
X136262962Y-106906651D01*
X136282368Y-106915830D01*
X136300781Y-106926866D01*
X136318024Y-106939654D01*
X136333930Y-106954070D01*
X136348346Y-106969976D01*
X136361134Y-106987219D01*
X136372170Y-107005632D01*
X136381349Y-107025038D01*
X136388581Y-107045250D01*
X136393797Y-107066074D01*
X136396947Y-107087309D01*
X136398000Y-107108750D01*
X136398000Y-107621250D01*
X136396947Y-107642691D01*
X136393797Y-107663926D01*
X136388581Y-107684750D01*
X136381349Y-107704962D01*
X136372170Y-107724368D01*
X136361134Y-107742781D01*
X136348346Y-107760024D01*
X136333930Y-107775930D01*
X136318024Y-107790346D01*
X136300781Y-107803134D01*
X136282368Y-107814170D01*
X136262962Y-107823349D01*
X136242750Y-107830581D01*
X136221926Y-107835797D01*
X136200691Y-107838947D01*
X136179250Y-107840000D01*
X135741750Y-107840000D01*
X135720309Y-107838947D01*
X135699074Y-107835797D01*
X135678250Y-107830581D01*
X135658038Y-107823349D01*
X135638632Y-107814170D01*
X135620219Y-107803134D01*
X135602976Y-107790346D01*
X135587070Y-107775930D01*
X135572654Y-107760024D01*
X135559866Y-107742781D01*
X135548830Y-107724368D01*
X135539651Y-107704962D01*
X135532419Y-107684750D01*
X135527203Y-107663926D01*
X135524053Y-107642691D01*
X135523000Y-107621250D01*
X135523000Y-107108750D01*
X135524053Y-107087309D01*
X135527203Y-107066074D01*
X135532419Y-107045250D01*
X135539651Y-107025038D01*
X135548830Y-107005632D01*
X135559866Y-106987219D01*
X135572654Y-106969976D01*
X135587070Y-106954070D01*
X135602976Y-106939654D01*
X135620219Y-106926866D01*
X135638632Y-106915830D01*
X135658038Y-106906651D01*
X135678250Y-106899419D01*
X135699074Y-106894203D01*
X135720309Y-106891053D01*
X135741750Y-106890000D01*
X136179250Y-106890000D01*
X136200691Y-106891053D01*
G37*
D23*
X143198000Y-107365000D03*
D22*
X143198000Y-105365000D03*
D24*
X156718000Y-123825000D03*
X154178000Y-123825000D03*
X151638000Y-123825000D03*
X149098000Y-123825000D03*
X146558000Y-123825000D03*
X144018000Y-123825000D03*
X141478000Y-123825000D03*
X138938000Y-123825000D03*
X174498000Y-123825000D03*
X171958000Y-123825000D03*
X169418000Y-123825000D03*
X166878000Y-123825000D03*
X164338000Y-123825000D03*
X161798000Y-123825000D03*
X152654000Y-75565000D03*
X150114000Y-75565000D03*
X147574000Y-75565000D03*
X145034000Y-75565000D03*
X142494000Y-75565000D03*
X139954000Y-75565000D03*
X137414000Y-75565000D03*
X134874000Y-75565000D03*
X132334000Y-75565000D03*
X129794000Y-75565000D03*
X174498000Y-75565000D03*
X171958000Y-75565000D03*
X169418000Y-75565000D03*
X166878000Y-75565000D03*
X164338000Y-75565000D03*
X161798000Y-75565000D03*
X159258000Y-75565000D03*
X156718000Y-75565000D03*
D25*
X124968000Y-123825000D03*
X126238000Y-75565000D03*
M02*
