G04 #@! TF.GenerationSoftware,KiCad,Pcbnew,(5.1.5)-3*
G04 #@! TF.CreationDate,2020-05-05T12:08:50+02:00*
G04 #@! TF.ProjectId,led_driver_test_board,6c65645f-6472-4697-9665-725f74657374,rev?*
G04 #@! TF.SameCoordinates,Original*
G04 #@! TF.FileFunction,Legend,Top*
G04 #@! TF.FilePolarity,Positive*
%FSLAX46Y46*%
G04 Gerber Fmt 4.6, Leading zero omitted, Abs format (unit mm)*
G04 Created by KiCad (PCBNEW (5.1.5)-3) date 2020-05-05 12:08:50*
%MOMM*%
%LPD*%
G04 APERTURE LIST*
%ADD10C,0.400000*%
%ADD11C,0.300000*%
%ADD12C,0.500000*%
%ADD13C,0.150000*%
%ADD14C,0.120000*%
%ADD15C,0.010000*%
G04 APERTURE END LIST*
D10*
X147390857Y-114986428D02*
X147390857Y-116605476D01*
X147295619Y-116795952D01*
X147200380Y-116891190D01*
X147009904Y-116986428D01*
X146724190Y-116986428D01*
X146533714Y-116891190D01*
X147390857Y-116224523D02*
X147200380Y-116319761D01*
X146819428Y-116319761D01*
X146628952Y-116224523D01*
X146533714Y-116129285D01*
X146438476Y-115938809D01*
X146438476Y-115367380D01*
X146533714Y-115176904D01*
X146628952Y-115081666D01*
X146819428Y-114986428D01*
X147200380Y-114986428D01*
X147390857Y-115081666D01*
X148343238Y-116319761D02*
X148343238Y-114986428D01*
X148343238Y-114319761D02*
X148248000Y-114415000D01*
X148343238Y-114510238D01*
X148438476Y-114415000D01*
X148343238Y-114319761D01*
X148343238Y-114510238D01*
X149009904Y-114986428D02*
X149771809Y-114986428D01*
X149295619Y-114319761D02*
X149295619Y-116034047D01*
X149390857Y-116224523D01*
X149581333Y-116319761D01*
X149771809Y-116319761D01*
X150438476Y-116319761D02*
X150438476Y-114319761D01*
X151295619Y-116319761D02*
X151295619Y-115272142D01*
X151200380Y-115081666D01*
X151009904Y-114986428D01*
X150724190Y-114986428D01*
X150533714Y-115081666D01*
X150438476Y-115176904D01*
X153105142Y-114986428D02*
X153105142Y-116319761D01*
X152248000Y-114986428D02*
X152248000Y-116034047D01*
X152343238Y-116224523D01*
X152533714Y-116319761D01*
X152819428Y-116319761D01*
X153009904Y-116224523D01*
X153105142Y-116129285D01*
X154057523Y-116319761D02*
X154057523Y-114319761D01*
X154057523Y-115081666D02*
X154248000Y-114986428D01*
X154628952Y-114986428D01*
X154819428Y-115081666D01*
X154914666Y-115176904D01*
X155009904Y-115367380D01*
X155009904Y-115938809D01*
X154914666Y-116129285D01*
X154819428Y-116224523D01*
X154628952Y-116319761D01*
X154248000Y-116319761D01*
X154057523Y-116224523D01*
X155867047Y-116129285D02*
X155962285Y-116224523D01*
X155867047Y-116319761D01*
X155771809Y-116224523D01*
X155867047Y-116129285D01*
X155867047Y-116319761D01*
X157676571Y-116224523D02*
X157486095Y-116319761D01*
X157105142Y-116319761D01*
X156914666Y-116224523D01*
X156819428Y-116129285D01*
X156724190Y-115938809D01*
X156724190Y-115367380D01*
X156819428Y-115176904D01*
X156914666Y-115081666D01*
X157105142Y-114986428D01*
X157486095Y-114986428D01*
X157676571Y-115081666D01*
X158819428Y-116319761D02*
X158628952Y-116224523D01*
X158533714Y-116129285D01*
X158438476Y-115938809D01*
X158438476Y-115367380D01*
X158533714Y-115176904D01*
X158628952Y-115081666D01*
X158819428Y-114986428D01*
X159105142Y-114986428D01*
X159295619Y-115081666D01*
X159390857Y-115176904D01*
X159486095Y-115367380D01*
X159486095Y-115938809D01*
X159390857Y-116129285D01*
X159295619Y-116224523D01*
X159105142Y-116319761D01*
X158819428Y-116319761D01*
X160343238Y-116319761D02*
X160343238Y-114986428D01*
X160343238Y-115176904D02*
X160438476Y-115081666D01*
X160628952Y-114986428D01*
X160914666Y-114986428D01*
X161105142Y-115081666D01*
X161200380Y-115272142D01*
X161200380Y-116319761D01*
X161200380Y-115272142D02*
X161295619Y-115081666D01*
X161486095Y-114986428D01*
X161771809Y-114986428D01*
X161962285Y-115081666D01*
X162057523Y-115272142D01*
X162057523Y-116319761D01*
X164438476Y-114224523D02*
X162724190Y-116795952D01*
X166057523Y-114319761D02*
X165105142Y-114319761D01*
X165009904Y-115272142D01*
X165105142Y-115176904D01*
X165295619Y-115081666D01*
X165771809Y-115081666D01*
X165962285Y-115176904D01*
X166057523Y-115272142D01*
X166152761Y-115462619D01*
X166152761Y-115938809D01*
X166057523Y-116129285D01*
X165962285Y-116224523D01*
X165771809Y-116319761D01*
X165295619Y-116319761D01*
X165105142Y-116224523D01*
X165009904Y-116129285D01*
X167009904Y-116319761D02*
X167009904Y-114319761D01*
X168152761Y-116319761D01*
X168152761Y-114319761D01*
X169962285Y-114986428D02*
X169962285Y-116319761D01*
X169486095Y-114224523D02*
X169009904Y-115653095D01*
X170248000Y-115653095D01*
X171867047Y-114986428D02*
X171867047Y-116319761D01*
X171390857Y-114224523D02*
X170914666Y-115653095D01*
X172152761Y-115653095D01*
X172914666Y-116319761D02*
X172914666Y-114319761D01*
X173676571Y-114319761D01*
X173867047Y-114415000D01*
X173962285Y-114510238D01*
X174057523Y-114700714D01*
X174057523Y-114986428D01*
X173962285Y-115176904D01*
X173867047Y-115272142D01*
X173676571Y-115367380D01*
X172914666Y-115367380D01*
X142486095Y-119719761D02*
X142486095Y-117719761D01*
X143152761Y-119148333D01*
X143819428Y-117719761D01*
X143819428Y-119719761D01*
X145628952Y-119719761D02*
X145628952Y-118672142D01*
X145533714Y-118481666D01*
X145343238Y-118386428D01*
X144962285Y-118386428D01*
X144771809Y-118481666D01*
X145628952Y-119624523D02*
X145438476Y-119719761D01*
X144962285Y-119719761D01*
X144771809Y-119624523D01*
X144676571Y-119434047D01*
X144676571Y-119243571D01*
X144771809Y-119053095D01*
X144962285Y-118957857D01*
X145438476Y-118957857D01*
X145628952Y-118862619D01*
X146581333Y-119719761D02*
X146581333Y-118386428D01*
X146581333Y-118767380D02*
X146676571Y-118576904D01*
X146771809Y-118481666D01*
X146962285Y-118386428D01*
X147152761Y-118386428D01*
X148676571Y-119624523D02*
X148486095Y-119719761D01*
X148105142Y-119719761D01*
X147914666Y-119624523D01*
X147819428Y-119529285D01*
X147724190Y-119338809D01*
X147724190Y-118767380D01*
X147819428Y-118576904D01*
X147914666Y-118481666D01*
X148105142Y-118386428D01*
X148486095Y-118386428D01*
X148676571Y-118481666D01*
X149533714Y-119719761D02*
X149533714Y-117719761D01*
X150390857Y-119719761D02*
X150390857Y-118672142D01*
X150295619Y-118481666D01*
X150105142Y-118386428D01*
X149819428Y-118386428D01*
X149628952Y-118481666D01*
X149533714Y-118576904D01*
X152771809Y-117910238D02*
X152867047Y-117815000D01*
X153057523Y-117719761D01*
X153533714Y-117719761D01*
X153724190Y-117815000D01*
X153819428Y-117910238D01*
X153914666Y-118100714D01*
X153914666Y-118291190D01*
X153819428Y-118576904D01*
X152676571Y-119719761D01*
X153914666Y-119719761D01*
X155152761Y-117719761D02*
X155343238Y-117719761D01*
X155533714Y-117815000D01*
X155628952Y-117910238D01*
X155724190Y-118100714D01*
X155819428Y-118481666D01*
X155819428Y-118957857D01*
X155724190Y-119338809D01*
X155628952Y-119529285D01*
X155533714Y-119624523D01*
X155343238Y-119719761D01*
X155152761Y-119719761D01*
X154962285Y-119624523D01*
X154867047Y-119529285D01*
X154771809Y-119338809D01*
X154676571Y-118957857D01*
X154676571Y-118481666D01*
X154771809Y-118100714D01*
X154867047Y-117910238D01*
X154962285Y-117815000D01*
X155152761Y-117719761D01*
X156581333Y-117910238D02*
X156676571Y-117815000D01*
X156867047Y-117719761D01*
X157343238Y-117719761D01*
X157533714Y-117815000D01*
X157628952Y-117910238D01*
X157724190Y-118100714D01*
X157724190Y-118291190D01*
X157628952Y-118576904D01*
X156486095Y-119719761D01*
X157724190Y-119719761D01*
X158962285Y-117719761D02*
X159152761Y-117719761D01*
X159343238Y-117815000D01*
X159438476Y-117910238D01*
X159533714Y-118100714D01*
X159628952Y-118481666D01*
X159628952Y-118957857D01*
X159533714Y-119338809D01*
X159438476Y-119529285D01*
X159343238Y-119624523D01*
X159152761Y-119719761D01*
X158962285Y-119719761D01*
X158771809Y-119624523D01*
X158676571Y-119529285D01*
X158581333Y-119338809D01*
X158486095Y-118957857D01*
X158486095Y-118481666D01*
X158581333Y-118100714D01*
X158676571Y-117910238D01*
X158771809Y-117815000D01*
X158962285Y-117719761D01*
X162009904Y-118957857D02*
X163533714Y-118957857D01*
X166009904Y-119719761D02*
X166009904Y-117719761D01*
X166009904Y-118481666D02*
X166200380Y-118386428D01*
X166581333Y-118386428D01*
X166771809Y-118481666D01*
X166867047Y-118576904D01*
X166962285Y-118767380D01*
X166962285Y-119338809D01*
X166867047Y-119529285D01*
X166771809Y-119624523D01*
X166581333Y-119719761D01*
X166200380Y-119719761D01*
X166009904Y-119624523D01*
X168676571Y-119719761D02*
X168676571Y-118672142D01*
X168581333Y-118481666D01*
X168390857Y-118386428D01*
X168009904Y-118386428D01*
X167819428Y-118481666D01*
X168676571Y-119624523D02*
X168486095Y-119719761D01*
X168009904Y-119719761D01*
X167819428Y-119624523D01*
X167724190Y-119434047D01*
X167724190Y-119243571D01*
X167819428Y-119053095D01*
X168009904Y-118957857D01*
X168486095Y-118957857D01*
X168676571Y-118862619D01*
X169533714Y-119624523D02*
X169724190Y-119719761D01*
X170105142Y-119719761D01*
X170295619Y-119624523D01*
X170390857Y-119434047D01*
X170390857Y-119338809D01*
X170295619Y-119148333D01*
X170105142Y-119053095D01*
X169819428Y-119053095D01*
X169628952Y-118957857D01*
X169533714Y-118767380D01*
X169533714Y-118672142D01*
X169628952Y-118481666D01*
X169819428Y-118386428D01*
X170105142Y-118386428D01*
X170295619Y-118481666D01*
X171248000Y-119719761D02*
X171248000Y-118386428D01*
X171248000Y-117719761D02*
X171152761Y-117815000D01*
X171248000Y-117910238D01*
X171343238Y-117815000D01*
X171248000Y-117719761D01*
X171248000Y-117910238D01*
X172486095Y-119719761D02*
X172295619Y-119624523D01*
X172200380Y-119434047D01*
X172200380Y-117719761D01*
X173057523Y-117719761D02*
X174295619Y-117719761D01*
X173628952Y-118481666D01*
X173914666Y-118481666D01*
X174105142Y-118576904D01*
X174200380Y-118672142D01*
X174295619Y-118862619D01*
X174295619Y-119338809D01*
X174200380Y-119529285D01*
X174105142Y-119624523D01*
X173914666Y-119719761D01*
X173343238Y-119719761D01*
X173152761Y-119624523D01*
X173057523Y-119529285D01*
X176009904Y-117719761D02*
X175628952Y-117719761D01*
X175438476Y-117815000D01*
X175343238Y-117910238D01*
X175152761Y-118195952D01*
X175057523Y-118576904D01*
X175057523Y-119338809D01*
X175152761Y-119529285D01*
X175247999Y-119624523D01*
X175438476Y-119719761D01*
X175819428Y-119719761D01*
X176009904Y-119624523D01*
X176105142Y-119529285D01*
X176200380Y-119338809D01*
X176200380Y-118862619D01*
X176105142Y-118672142D01*
X176009904Y-118576904D01*
X175819428Y-118481666D01*
X175438476Y-118481666D01*
X175247999Y-118576904D01*
X175152761Y-118672142D01*
X175057523Y-118862619D01*
X178009904Y-117719761D02*
X177057523Y-117719761D01*
X176962285Y-118672142D01*
X177057523Y-118576904D01*
X177247999Y-118481666D01*
X177724190Y-118481666D01*
X177914666Y-118576904D01*
X178009904Y-118672142D01*
X178105142Y-118862619D01*
X178105142Y-119338809D01*
X178009904Y-119529285D01*
X177914666Y-119624523D01*
X177724190Y-119719761D01*
X177247999Y-119719761D01*
X177057523Y-119624523D01*
X176962285Y-119529285D01*
D11*
X112905142Y-91193571D02*
X112905142Y-92693571D01*
X112905142Y-91265000D02*
X113048000Y-91193571D01*
X113333714Y-91193571D01*
X113476571Y-91265000D01*
X113548000Y-91336428D01*
X113619428Y-91479285D01*
X113619428Y-91907857D01*
X113548000Y-92050714D01*
X113476571Y-92122142D01*
X113333714Y-92193571D01*
X113048000Y-92193571D01*
X112905142Y-92122142D01*
X114905142Y-92193571D02*
X114905142Y-91407857D01*
X114833714Y-91265000D01*
X114690857Y-91193571D01*
X114405142Y-91193571D01*
X114262285Y-91265000D01*
X114905142Y-92122142D02*
X114762285Y-92193571D01*
X114405142Y-92193571D01*
X114262285Y-92122142D01*
X114190857Y-91979285D01*
X114190857Y-91836428D01*
X114262285Y-91693571D01*
X114405142Y-91622142D01*
X114762285Y-91622142D01*
X114905142Y-91550714D01*
X115619428Y-92193571D02*
X115619428Y-91193571D01*
X115619428Y-91479285D02*
X115690857Y-91336428D01*
X115762285Y-91265000D01*
X115905142Y-91193571D01*
X116048000Y-91193571D01*
X116333714Y-91193571D02*
X116905142Y-91193571D01*
X116548000Y-90693571D02*
X116548000Y-91979285D01*
X116619428Y-92122142D01*
X116762285Y-92193571D01*
X116905142Y-92193571D01*
X118762285Y-92193571D02*
X118619428Y-92122142D01*
X118548000Y-92050714D01*
X118476571Y-91907857D01*
X118476571Y-91479285D01*
X118548000Y-91336428D01*
X118619428Y-91265000D01*
X118762285Y-91193571D01*
X118976571Y-91193571D01*
X119119428Y-91265000D01*
X119190857Y-91336428D01*
X119262285Y-91479285D01*
X119262285Y-91907857D01*
X119190857Y-92050714D01*
X119119428Y-92122142D01*
X118976571Y-92193571D01*
X118762285Y-92193571D01*
X119690857Y-91193571D02*
X120262285Y-91193571D01*
X119905142Y-92193571D02*
X119905142Y-90907857D01*
X119976571Y-90765000D01*
X120119428Y-90693571D01*
X120262285Y-90693571D01*
X121690857Y-91193571D02*
X122262285Y-91193571D01*
X121905142Y-90693571D02*
X121905142Y-91979285D01*
X121976571Y-92122142D01*
X122119428Y-92193571D01*
X122262285Y-92193571D01*
X122762285Y-92193571D02*
X122762285Y-90693571D01*
X123405142Y-92193571D02*
X123405142Y-91407857D01*
X123333714Y-91265000D01*
X123190857Y-91193571D01*
X122976571Y-91193571D01*
X122833714Y-91265000D01*
X122762285Y-91336428D01*
X124690857Y-92122142D02*
X124548000Y-92193571D01*
X124262285Y-92193571D01*
X124119428Y-92122142D01*
X124048000Y-91979285D01*
X124048000Y-91407857D01*
X124119428Y-91265000D01*
X124262285Y-91193571D01*
X124548000Y-91193571D01*
X124690857Y-91265000D01*
X124762285Y-91407857D01*
X124762285Y-91550714D01*
X124048000Y-91693571D01*
X113726571Y-94743571D02*
X113726571Y-93243571D01*
X113726571Y-93815000D02*
X113869428Y-93743571D01*
X114155142Y-93743571D01*
X114298000Y-93815000D01*
X114369428Y-93886428D01*
X114440857Y-94029285D01*
X114440857Y-94457857D01*
X114369428Y-94600714D01*
X114298000Y-94672142D01*
X114155142Y-94743571D01*
X113869428Y-94743571D01*
X113726571Y-94672142D01*
X115726571Y-94743571D02*
X115726571Y-93957857D01*
X115655142Y-93815000D01*
X115512285Y-93743571D01*
X115226571Y-93743571D01*
X115083714Y-93815000D01*
X115726571Y-94672142D02*
X115583714Y-94743571D01*
X115226571Y-94743571D01*
X115083714Y-94672142D01*
X115012285Y-94529285D01*
X115012285Y-94386428D01*
X115083714Y-94243571D01*
X115226571Y-94172142D01*
X115583714Y-94172142D01*
X115726571Y-94100714D01*
X116369428Y-94672142D02*
X116512285Y-94743571D01*
X116798000Y-94743571D01*
X116940857Y-94672142D01*
X117012285Y-94529285D01*
X117012285Y-94457857D01*
X116940857Y-94315000D01*
X116798000Y-94243571D01*
X116583714Y-94243571D01*
X116440857Y-94172142D01*
X116369428Y-94029285D01*
X116369428Y-93957857D01*
X116440857Y-93815000D01*
X116583714Y-93743571D01*
X116798000Y-93743571D01*
X116940857Y-93815000D01*
X117655142Y-94743571D02*
X117655142Y-93743571D01*
X117655142Y-93243571D02*
X117583714Y-93315000D01*
X117655142Y-93386428D01*
X117726571Y-93315000D01*
X117655142Y-93243571D01*
X117655142Y-93386428D01*
X118583714Y-94743571D02*
X118440857Y-94672142D01*
X118369428Y-94529285D01*
X118369428Y-93243571D01*
X119012285Y-93243571D02*
X119940857Y-93243571D01*
X119440857Y-93815000D01*
X119655142Y-93815000D01*
X119798000Y-93886428D01*
X119869428Y-93957857D01*
X119940857Y-94100714D01*
X119940857Y-94457857D01*
X119869428Y-94600714D01*
X119798000Y-94672142D01*
X119655142Y-94743571D01*
X119226571Y-94743571D01*
X119083714Y-94672142D01*
X119012285Y-94600714D01*
X121226571Y-93243571D02*
X120940857Y-93243571D01*
X120798000Y-93315000D01*
X120726571Y-93386428D01*
X120583714Y-93600714D01*
X120512285Y-93886428D01*
X120512285Y-94457857D01*
X120583714Y-94600714D01*
X120655142Y-94672142D01*
X120798000Y-94743571D01*
X121083714Y-94743571D01*
X121226571Y-94672142D01*
X121298000Y-94600714D01*
X121369428Y-94457857D01*
X121369428Y-94100714D01*
X121298000Y-93957857D01*
X121226571Y-93886428D01*
X121083714Y-93815000D01*
X120798000Y-93815000D01*
X120655142Y-93886428D01*
X120583714Y-93957857D01*
X120512285Y-94100714D01*
X122726571Y-93243571D02*
X122012285Y-93243571D01*
X121940857Y-93957857D01*
X122012285Y-93886428D01*
X122155142Y-93815000D01*
X122512285Y-93815000D01*
X122655142Y-93886428D01*
X122726571Y-93957857D01*
X122798000Y-94100714D01*
X122798000Y-94457857D01*
X122726571Y-94600714D01*
X122655142Y-94672142D01*
X122512285Y-94743571D01*
X122155142Y-94743571D01*
X122012285Y-94672142D01*
X121940857Y-94600714D01*
X115262285Y-96293571D02*
X115262285Y-97793571D01*
X115262285Y-96365000D02*
X115405142Y-96293571D01*
X115690857Y-96293571D01*
X115833714Y-96365000D01*
X115905142Y-96436428D01*
X115976571Y-96579285D01*
X115976571Y-97007857D01*
X115905142Y-97150714D01*
X115833714Y-97222142D01*
X115690857Y-97293571D01*
X115405142Y-97293571D01*
X115262285Y-97222142D01*
X116619428Y-97293571D02*
X116619428Y-96293571D01*
X116619428Y-96579285D02*
X116690857Y-96436428D01*
X116762285Y-96365000D01*
X116905142Y-96293571D01*
X117048000Y-96293571D01*
X117762285Y-97293571D02*
X117619428Y-97222142D01*
X117548000Y-97150714D01*
X117476571Y-97007857D01*
X117476571Y-96579285D01*
X117548000Y-96436428D01*
X117619428Y-96365000D01*
X117762285Y-96293571D01*
X117976571Y-96293571D01*
X118119428Y-96365000D01*
X118190857Y-96436428D01*
X118262285Y-96579285D01*
X118262285Y-97007857D01*
X118190857Y-97150714D01*
X118119428Y-97222142D01*
X117976571Y-97293571D01*
X117762285Y-97293571D01*
X118905142Y-96293571D02*
X118905142Y-97579285D01*
X118833714Y-97722142D01*
X118690857Y-97793571D01*
X118619428Y-97793571D01*
X118905142Y-95793571D02*
X118833714Y-95865000D01*
X118905142Y-95936428D01*
X118976571Y-95865000D01*
X118905142Y-95793571D01*
X118905142Y-95936428D01*
X120190857Y-97222142D02*
X120048000Y-97293571D01*
X119762285Y-97293571D01*
X119619428Y-97222142D01*
X119548000Y-97079285D01*
X119548000Y-96507857D01*
X119619428Y-96365000D01*
X119762285Y-96293571D01*
X120048000Y-96293571D01*
X120190857Y-96365000D01*
X120262285Y-96507857D01*
X120262285Y-96650714D01*
X119548000Y-96793571D01*
X121548000Y-97222142D02*
X121405142Y-97293571D01*
X121119428Y-97293571D01*
X120976571Y-97222142D01*
X120905142Y-97150714D01*
X120833714Y-97007857D01*
X120833714Y-96579285D01*
X120905142Y-96436428D01*
X120976571Y-96365000D01*
X121119428Y-96293571D01*
X121405142Y-96293571D01*
X121548000Y-96365000D01*
X121976571Y-96293571D02*
X122548000Y-96293571D01*
X122190857Y-95793571D02*
X122190857Y-97079285D01*
X122262285Y-97222142D01*
X122405142Y-97293571D01*
X122548000Y-97293571D01*
X168819428Y-93043571D02*
X168819428Y-92257857D01*
X168748000Y-92115000D01*
X168605142Y-92043571D01*
X168319428Y-92043571D01*
X168176571Y-92115000D01*
X168819428Y-92972142D02*
X168676571Y-93043571D01*
X168319428Y-93043571D01*
X168176571Y-92972142D01*
X168105142Y-92829285D01*
X168105142Y-92686428D01*
X168176571Y-92543571D01*
X168319428Y-92472142D01*
X168676571Y-92472142D01*
X168819428Y-92400714D01*
X168819428Y-97043571D02*
X168819428Y-96257857D01*
X168748000Y-96115000D01*
X168605142Y-96043571D01*
X168319428Y-96043571D01*
X168176571Y-96115000D01*
X168819428Y-96972142D02*
X168676571Y-97043571D01*
X168319428Y-97043571D01*
X168176571Y-96972142D01*
X168105142Y-96829285D01*
X168105142Y-96686428D01*
X168176571Y-96543571D01*
X168319428Y-96472142D01*
X168676571Y-96472142D01*
X168819428Y-96400714D01*
X168819428Y-101043571D02*
X168819428Y-100257857D01*
X168748000Y-100115000D01*
X168605142Y-100043571D01*
X168319428Y-100043571D01*
X168176571Y-100115000D01*
X168819428Y-100972142D02*
X168676571Y-101043571D01*
X168319428Y-101043571D01*
X168176571Y-100972142D01*
X168105142Y-100829285D01*
X168105142Y-100686428D01*
X168176571Y-100543571D01*
X168319428Y-100472142D01*
X168676571Y-100472142D01*
X168819428Y-100400714D01*
X168819428Y-105043571D02*
X168819428Y-104257857D01*
X168748000Y-104115000D01*
X168605142Y-104043571D01*
X168319428Y-104043571D01*
X168176571Y-104115000D01*
X168819428Y-104972142D02*
X168676571Y-105043571D01*
X168319428Y-105043571D01*
X168176571Y-104972142D01*
X168105142Y-104829285D01*
X168105142Y-104686428D01*
X168176571Y-104543571D01*
X168319428Y-104472142D01*
X168676571Y-104472142D01*
X168819428Y-104400714D01*
X168248000Y-107043571D02*
X168248000Y-105543571D01*
X168390857Y-106472142D02*
X168819428Y-107043571D01*
X168819428Y-106043571D02*
X168248000Y-106615000D01*
X168248000Y-103043571D02*
X168248000Y-101543571D01*
X168390857Y-102472142D02*
X168819428Y-103043571D01*
X168819428Y-102043571D02*
X168248000Y-102615000D01*
X168248000Y-99043571D02*
X168248000Y-97543571D01*
X168390857Y-98472142D02*
X168819428Y-99043571D01*
X168819428Y-98043571D02*
X168248000Y-98615000D01*
X168248000Y-95043571D02*
X168248000Y-93543571D01*
X168390857Y-94472142D02*
X168819428Y-95043571D01*
X168819428Y-94043571D02*
X168248000Y-94615000D01*
D12*
X149712285Y-88745952D02*
X149807523Y-88841190D01*
X149902761Y-89126904D01*
X149902761Y-89317380D01*
X149807523Y-89603095D01*
X149617047Y-89793571D01*
X149426571Y-89888809D01*
X149045619Y-89984047D01*
X148759904Y-89984047D01*
X148378952Y-89888809D01*
X148188476Y-89793571D01*
X147998000Y-89603095D01*
X147902761Y-89317380D01*
X147902761Y-89126904D01*
X147998000Y-88841190D01*
X148093238Y-88745952D01*
X149902761Y-87888809D02*
X147902761Y-87888809D01*
X148855142Y-87888809D02*
X148855142Y-86745952D01*
X149902761Y-86745952D02*
X147902761Y-86745952D01*
X148569428Y-84936428D02*
X149902761Y-84936428D01*
X147807523Y-85412619D02*
X149236095Y-85888809D01*
X149236095Y-84650714D01*
X149712285Y-96245952D02*
X149807523Y-96341190D01*
X149902761Y-96626904D01*
X149902761Y-96817380D01*
X149807523Y-97103095D01*
X149617047Y-97293571D01*
X149426571Y-97388809D01*
X149045619Y-97484047D01*
X148759904Y-97484047D01*
X148378952Y-97388809D01*
X148188476Y-97293571D01*
X147998000Y-97103095D01*
X147902761Y-96817380D01*
X147902761Y-96626904D01*
X147998000Y-96341190D01*
X148093238Y-96245952D01*
X149902761Y-95388809D02*
X147902761Y-95388809D01*
X148855142Y-95388809D02*
X148855142Y-94245952D01*
X149902761Y-94245952D02*
X147902761Y-94245952D01*
X147902761Y-93484047D02*
X147902761Y-92245952D01*
X148664666Y-92912619D01*
X148664666Y-92626904D01*
X148759904Y-92436428D01*
X148855142Y-92341190D01*
X149045619Y-92245952D01*
X149521809Y-92245952D01*
X149712285Y-92341190D01*
X149807523Y-92436428D01*
X149902761Y-92626904D01*
X149902761Y-93198333D01*
X149807523Y-93388809D01*
X149712285Y-93484047D01*
X149712285Y-103745952D02*
X149807523Y-103841190D01*
X149902761Y-104126904D01*
X149902761Y-104317380D01*
X149807523Y-104603095D01*
X149617047Y-104793571D01*
X149426571Y-104888809D01*
X149045619Y-104984047D01*
X148759904Y-104984047D01*
X148378952Y-104888809D01*
X148188476Y-104793571D01*
X147998000Y-104603095D01*
X147902761Y-104317380D01*
X147902761Y-104126904D01*
X147998000Y-103841190D01*
X148093238Y-103745952D01*
X149902761Y-102888809D02*
X147902761Y-102888809D01*
X148855142Y-102888809D02*
X148855142Y-101745952D01*
X149902761Y-101745952D02*
X147902761Y-101745952D01*
X148093238Y-100888809D02*
X147998000Y-100793571D01*
X147902761Y-100603095D01*
X147902761Y-100126904D01*
X147998000Y-99936428D01*
X148093238Y-99841190D01*
X148283714Y-99745952D01*
X148474190Y-99745952D01*
X148759904Y-99841190D01*
X149902761Y-100984047D01*
X149902761Y-99745952D01*
X149712285Y-111245952D02*
X149807523Y-111341190D01*
X149902761Y-111626904D01*
X149902761Y-111817380D01*
X149807523Y-112103095D01*
X149617047Y-112293571D01*
X149426571Y-112388809D01*
X149045619Y-112484047D01*
X148759904Y-112484047D01*
X148378952Y-112388809D01*
X148188476Y-112293571D01*
X147998000Y-112103095D01*
X147902761Y-111817380D01*
X147902761Y-111626904D01*
X147998000Y-111341190D01*
X148093238Y-111245952D01*
X149902761Y-110388809D02*
X147902761Y-110388809D01*
X148855142Y-110388809D02*
X148855142Y-109245952D01*
X149902761Y-109245952D02*
X147902761Y-109245952D01*
X149902761Y-107245952D02*
X149902761Y-108388809D01*
X149902761Y-107817380D02*
X147902761Y-107817380D01*
X148188476Y-108007857D01*
X148378952Y-108198333D01*
X148474190Y-108388809D01*
D11*
X134426571Y-82293571D02*
X134426571Y-83293571D01*
X134069428Y-81722142D02*
X133712285Y-82793571D01*
X134640857Y-82793571D01*
X135855142Y-83222142D02*
X135712285Y-83293571D01*
X135426571Y-83293571D01*
X135283714Y-83222142D01*
X135212285Y-83150714D01*
X135140857Y-83007857D01*
X135140857Y-82579285D01*
X135212285Y-82436428D01*
X135283714Y-82365000D01*
X135426571Y-82293571D01*
X135712285Y-82293571D01*
X135855142Y-82365000D01*
X136498000Y-83293571D02*
X136498000Y-81793571D01*
X137140857Y-83293571D02*
X137140857Y-82507857D01*
X137069428Y-82365000D01*
X136926571Y-82293571D01*
X136712285Y-82293571D01*
X136569428Y-82365000D01*
X136498000Y-82436428D01*
X139712285Y-81793571D02*
X138998000Y-81793571D01*
X138926571Y-82507857D01*
X138998000Y-82436428D01*
X139140857Y-82365000D01*
X139498000Y-82365000D01*
X139640857Y-82436428D01*
X139712285Y-82507857D01*
X139783714Y-82650714D01*
X139783714Y-83007857D01*
X139712285Y-83150714D01*
X139640857Y-83222142D01*
X139498000Y-83293571D01*
X139140857Y-83293571D01*
X138998000Y-83222142D01*
X138926571Y-83150714D01*
X140426571Y-82722142D02*
X141569428Y-82722142D01*
X142926571Y-82293571D02*
X142926571Y-83293571D01*
X142569428Y-81722142D02*
X142212285Y-82793571D01*
X143140857Y-82793571D01*
X143998000Y-81793571D02*
X144140857Y-81793571D01*
X144283714Y-81865000D01*
X144355142Y-81936428D01*
X144426571Y-82079285D01*
X144498000Y-82365000D01*
X144498000Y-82722142D01*
X144426571Y-83007857D01*
X144355142Y-83150714D01*
X144283714Y-83222142D01*
X144140857Y-83293571D01*
X143998000Y-83293571D01*
X143855142Y-83222142D01*
X143783714Y-83150714D01*
X143712285Y-83007857D01*
X143640857Y-82722142D01*
X143640857Y-82365000D01*
X143712285Y-82079285D01*
X143783714Y-81936428D01*
X143855142Y-81865000D01*
X143998000Y-81793571D01*
X144926571Y-81793571D02*
X145426571Y-83293571D01*
X145926571Y-81793571D01*
X147855142Y-81793571D02*
X147998000Y-81793571D01*
X148140857Y-81865000D01*
X148212285Y-81936428D01*
X148283714Y-82079285D01*
X148355142Y-82365000D01*
X148355142Y-82722142D01*
X148283714Y-83007857D01*
X148212285Y-83150714D01*
X148140857Y-83222142D01*
X147998000Y-83293571D01*
X147855142Y-83293571D01*
X147712285Y-83222142D01*
X147640857Y-83150714D01*
X147569428Y-83007857D01*
X147498000Y-82722142D01*
X147498000Y-82365000D01*
X147569428Y-82079285D01*
X147640857Y-81936428D01*
X147712285Y-81865000D01*
X147855142Y-81793571D01*
X148998000Y-82722142D02*
X150140857Y-82722142D01*
X150712285Y-81793571D02*
X151640857Y-81793571D01*
X151140857Y-82365000D01*
X151355142Y-82365000D01*
X151498000Y-82436428D01*
X151569428Y-82507857D01*
X151640857Y-82650714D01*
X151640857Y-83007857D01*
X151569428Y-83150714D01*
X151498000Y-83222142D01*
X151355142Y-83293571D01*
X150926571Y-83293571D01*
X150783714Y-83222142D01*
X150712285Y-83150714D01*
X152569428Y-81793571D02*
X152712285Y-81793571D01*
X152855142Y-81865000D01*
X152926571Y-81936428D01*
X152998000Y-82079285D01*
X153069428Y-82365000D01*
X153069428Y-82722142D01*
X152998000Y-83007857D01*
X152926571Y-83150714D01*
X152855142Y-83222142D01*
X152712285Y-83293571D01*
X152569428Y-83293571D01*
X152426571Y-83222142D01*
X152355142Y-83150714D01*
X152283714Y-83007857D01*
X152212285Y-82722142D01*
X152212285Y-82365000D01*
X152283714Y-82079285D01*
X152355142Y-81936428D01*
X152426571Y-81865000D01*
X152569428Y-81793571D01*
X153998000Y-81793571D02*
X154140857Y-81793571D01*
X154283714Y-81865000D01*
X154355142Y-81936428D01*
X154426571Y-82079285D01*
X154498000Y-82365000D01*
X154498000Y-82722142D01*
X154426571Y-83007857D01*
X154355142Y-83150714D01*
X154283714Y-83222142D01*
X154140857Y-83293571D01*
X153998000Y-83293571D01*
X153855142Y-83222142D01*
X153783714Y-83150714D01*
X153712285Y-83007857D01*
X153640857Y-82722142D01*
X153640857Y-82365000D01*
X153712285Y-82079285D01*
X153783714Y-81936428D01*
X153855142Y-81865000D01*
X153998000Y-81793571D01*
X155140857Y-83293571D02*
X155140857Y-82293571D01*
X155140857Y-82436428D02*
X155212285Y-82365000D01*
X155355142Y-82293571D01*
X155569428Y-82293571D01*
X155712285Y-82365000D01*
X155783714Y-82507857D01*
X155783714Y-83293571D01*
X155783714Y-82507857D02*
X155855142Y-82365000D01*
X155998000Y-82293571D01*
X156212285Y-82293571D01*
X156355142Y-82365000D01*
X156426571Y-82507857D01*
X156426571Y-83293571D01*
X157069428Y-82865000D02*
X157783714Y-82865000D01*
X156926571Y-83293571D02*
X157426571Y-81793571D01*
X157926571Y-83293571D01*
X160212285Y-83222142D02*
X160069428Y-83293571D01*
X159783714Y-83293571D01*
X159640857Y-83222142D01*
X159569428Y-83150714D01*
X159498000Y-83007857D01*
X159498000Y-82579285D01*
X159569428Y-82436428D01*
X159640857Y-82365000D01*
X159783714Y-82293571D01*
X160069428Y-82293571D01*
X160212285Y-82365000D01*
X160855142Y-83150714D02*
X160926571Y-83222142D01*
X160855142Y-83293571D01*
X160783714Y-83222142D01*
X160855142Y-83150714D01*
X160855142Y-83293571D01*
X162212285Y-83222142D02*
X162069428Y-83293571D01*
X161783714Y-83293571D01*
X161640857Y-83222142D01*
X161569428Y-83150714D01*
X161498000Y-83007857D01*
X161498000Y-82579285D01*
X161569428Y-82436428D01*
X161640857Y-82365000D01*
X161783714Y-82293571D01*
X162069428Y-82293571D01*
X162212285Y-82365000D01*
X162855142Y-83150714D02*
X162926571Y-83222142D01*
X162855142Y-83293571D01*
X162783714Y-83222142D01*
X162855142Y-83150714D01*
X162855142Y-83293571D01*
X165426571Y-83293571D02*
X164712285Y-83293571D01*
X164712285Y-81793571D01*
X165926571Y-82507857D02*
X166426571Y-82507857D01*
X166640857Y-83293571D02*
X165926571Y-83293571D01*
X165926571Y-81793571D01*
X166640857Y-81793571D01*
X167283714Y-83293571D02*
X167283714Y-81793571D01*
X167640857Y-81793571D01*
X167855142Y-81865000D01*
X167998000Y-82007857D01*
X168069428Y-82150714D01*
X168140857Y-82436428D01*
X168140857Y-82650714D01*
X168069428Y-82936428D01*
X167998000Y-83079285D01*
X167855142Y-83222142D01*
X167640857Y-83293571D01*
X167283714Y-83293571D01*
X169926571Y-83293571D02*
X169926571Y-81793571D01*
X170283714Y-81793571D01*
X170498000Y-81865000D01*
X170640857Y-82007857D01*
X170712285Y-82150714D01*
X170783714Y-82436428D01*
X170783714Y-82650714D01*
X170712285Y-82936428D01*
X170640857Y-83079285D01*
X170498000Y-83222142D01*
X170283714Y-83293571D01*
X169926571Y-83293571D01*
X171426571Y-83293571D02*
X171426571Y-82293571D01*
X171426571Y-82579285D02*
X171498000Y-82436428D01*
X171569428Y-82365000D01*
X171712285Y-82293571D01*
X171855142Y-82293571D01*
X172355142Y-83293571D02*
X172355142Y-82293571D01*
X172355142Y-81793571D02*
X172283714Y-81865000D01*
X172355142Y-81936428D01*
X172426571Y-81865000D01*
X172355142Y-81793571D01*
X172355142Y-81936428D01*
X172926571Y-82293571D02*
X173283714Y-83293571D01*
X173640857Y-82293571D01*
X174783714Y-83222142D02*
X174640857Y-83293571D01*
X174355142Y-83293571D01*
X174212285Y-83222142D01*
X174140857Y-83079285D01*
X174140857Y-82507857D01*
X174212285Y-82365000D01*
X174355142Y-82293571D01*
X174640857Y-82293571D01*
X174783714Y-82365000D01*
X174855142Y-82507857D01*
X174855142Y-82650714D01*
X174140857Y-82793571D01*
X175498000Y-83293571D02*
X175498000Y-82293571D01*
X175498000Y-82579285D02*
X175569428Y-82436428D01*
X175640857Y-82365000D01*
X175783714Y-82293571D01*
X175926571Y-82293571D01*
D10*
X140688476Y-79948333D02*
X141640857Y-79948333D01*
X140498000Y-80519761D02*
X141164666Y-78519761D01*
X141831333Y-80519761D01*
X143450380Y-80519761D02*
X142498000Y-80519761D01*
X142498000Y-78519761D01*
X144402761Y-79376904D02*
X144212285Y-79281666D01*
X144117047Y-79186428D01*
X144021809Y-78995952D01*
X144021809Y-78900714D01*
X144117047Y-78710238D01*
X144212285Y-78615000D01*
X144402761Y-78519761D01*
X144783714Y-78519761D01*
X144974190Y-78615000D01*
X145069428Y-78710238D01*
X145164666Y-78900714D01*
X145164666Y-78995952D01*
X145069428Y-79186428D01*
X144974190Y-79281666D01*
X144783714Y-79376904D01*
X144402761Y-79376904D01*
X144212285Y-79472142D01*
X144117047Y-79567380D01*
X144021809Y-79757857D01*
X144021809Y-80138809D01*
X144117047Y-80329285D01*
X144212285Y-80424523D01*
X144402761Y-80519761D01*
X144783714Y-80519761D01*
X144974190Y-80424523D01*
X145069428Y-80329285D01*
X145164666Y-80138809D01*
X145164666Y-79757857D01*
X145069428Y-79567380D01*
X144974190Y-79472142D01*
X144783714Y-79376904D01*
X146307523Y-79376904D02*
X146117047Y-79281666D01*
X146021809Y-79186428D01*
X145926571Y-78995952D01*
X145926571Y-78900714D01*
X146021809Y-78710238D01*
X146117047Y-78615000D01*
X146307523Y-78519761D01*
X146688476Y-78519761D01*
X146878952Y-78615000D01*
X146974190Y-78710238D01*
X147069428Y-78900714D01*
X147069428Y-78995952D01*
X146974190Y-79186428D01*
X146878952Y-79281666D01*
X146688476Y-79376904D01*
X146307523Y-79376904D01*
X146117047Y-79472142D01*
X146021809Y-79567380D01*
X145926571Y-79757857D01*
X145926571Y-80138809D01*
X146021809Y-80329285D01*
X146117047Y-80424523D01*
X146307523Y-80519761D01*
X146688476Y-80519761D01*
X146878952Y-80424523D01*
X146974190Y-80329285D01*
X147069428Y-80138809D01*
X147069428Y-79757857D01*
X146974190Y-79567380D01*
X146878952Y-79472142D01*
X146688476Y-79376904D01*
X148783714Y-78519761D02*
X148402761Y-78519761D01*
X148212285Y-78615000D01*
X148117047Y-78710238D01*
X147926571Y-78995952D01*
X147831333Y-79376904D01*
X147831333Y-80138809D01*
X147926571Y-80329285D01*
X148021809Y-80424523D01*
X148212285Y-80519761D01*
X148593238Y-80519761D01*
X148783714Y-80424523D01*
X148878952Y-80329285D01*
X148974190Y-80138809D01*
X148974190Y-79662619D01*
X148878952Y-79472142D01*
X148783714Y-79376904D01*
X148593238Y-79281666D01*
X148212285Y-79281666D01*
X148021809Y-79376904D01*
X147926571Y-79472142D01*
X147831333Y-79662619D01*
X150212285Y-78519761D02*
X150402761Y-78519761D01*
X150593238Y-78615000D01*
X150688476Y-78710238D01*
X150783714Y-78900714D01*
X150878952Y-79281666D01*
X150878952Y-79757857D01*
X150783714Y-80138809D01*
X150688476Y-80329285D01*
X150593238Y-80424523D01*
X150402761Y-80519761D01*
X150212285Y-80519761D01*
X150021809Y-80424523D01*
X149926571Y-80329285D01*
X149831333Y-80138809D01*
X149736095Y-79757857D01*
X149736095Y-79281666D01*
X149831333Y-78900714D01*
X149926571Y-78710238D01*
X150021809Y-78615000D01*
X150212285Y-78519761D01*
X154117047Y-79186428D02*
X154117047Y-80519761D01*
X153640857Y-78424523D02*
X153164666Y-79853095D01*
X154402761Y-79853095D01*
X156021809Y-80424523D02*
X155831333Y-80519761D01*
X155450380Y-80519761D01*
X155259904Y-80424523D01*
X155164666Y-80329285D01*
X155069428Y-80138809D01*
X155069428Y-79567380D01*
X155164666Y-79376904D01*
X155259904Y-79281666D01*
X155450380Y-79186428D01*
X155831333Y-79186428D01*
X156021809Y-79281666D01*
X156878952Y-80519761D02*
X156878952Y-78519761D01*
X157736095Y-80519761D02*
X157736095Y-79472142D01*
X157640857Y-79281666D01*
X157450380Y-79186428D01*
X157164666Y-79186428D01*
X156974190Y-79281666D01*
X156878952Y-79376904D01*
X160117047Y-80424523D02*
X160307523Y-80519761D01*
X160688476Y-80519761D01*
X160878952Y-80424523D01*
X160974190Y-80234047D01*
X160974190Y-80138809D01*
X160878952Y-79948333D01*
X160688476Y-79853095D01*
X160402761Y-79853095D01*
X160212285Y-79757857D01*
X160117047Y-79567380D01*
X160117047Y-79472142D01*
X160212285Y-79281666D01*
X160402761Y-79186428D01*
X160688476Y-79186428D01*
X160878952Y-79281666D01*
X161831333Y-80519761D02*
X161831333Y-78519761D01*
X162688476Y-80519761D02*
X162688476Y-79472142D01*
X162593238Y-79281666D01*
X162402761Y-79186428D01*
X162117047Y-79186428D01*
X161926571Y-79281666D01*
X161831333Y-79376904D01*
X163640857Y-80519761D02*
X163640857Y-79186428D01*
X163640857Y-78519761D02*
X163545619Y-78615000D01*
X163640857Y-78710238D01*
X163736095Y-78615000D01*
X163640857Y-78519761D01*
X163640857Y-78710238D01*
X165355142Y-80424523D02*
X165164666Y-80519761D01*
X164783714Y-80519761D01*
X164593238Y-80424523D01*
X164498000Y-80234047D01*
X164498000Y-79472142D01*
X164593238Y-79281666D01*
X164783714Y-79186428D01*
X165164666Y-79186428D01*
X165355142Y-79281666D01*
X165450380Y-79472142D01*
X165450380Y-79662619D01*
X164498000Y-79853095D01*
X166593238Y-80519761D02*
X166402761Y-80424523D01*
X166307523Y-80234047D01*
X166307523Y-78519761D01*
X168212285Y-80519761D02*
X168212285Y-78519761D01*
X168212285Y-80424523D02*
X168021809Y-80519761D01*
X167640857Y-80519761D01*
X167450380Y-80424523D01*
X167355142Y-80329285D01*
X167259904Y-80138809D01*
X167259904Y-79567380D01*
X167355142Y-79376904D01*
X167450380Y-79281666D01*
X167640857Y-79186428D01*
X168021809Y-79186428D01*
X168212285Y-79281666D01*
D13*
X139390380Y-120999285D02*
X139390380Y-121570714D01*
X139390380Y-121285000D02*
X138390380Y-121285000D01*
X138533238Y-121380238D01*
X138628476Y-121475476D01*
X138676095Y-121570714D01*
D14*
X163498000Y-104365000D02*
X163498000Y-100465000D01*
X165498000Y-104365000D02*
X165498000Y-100465000D01*
X163498000Y-104365000D02*
X165498000Y-104365000D01*
X163498000Y-111865000D02*
X163498000Y-107965000D01*
X165498000Y-111865000D02*
X165498000Y-107965000D01*
X163498000Y-111865000D02*
X165498000Y-111865000D01*
X160739422Y-89825000D02*
X161256578Y-89825000D01*
X160739422Y-88405000D02*
X161256578Y-88405000D01*
X160739422Y-97325000D02*
X161256578Y-97325000D01*
X160739422Y-95905000D02*
X161256578Y-95905000D01*
X160739422Y-104825000D02*
X161256578Y-104825000D01*
X160739422Y-103405000D02*
X161256578Y-103405000D01*
X160739422Y-112325000D02*
X161256578Y-112325000D01*
X160739422Y-110905000D02*
X161256578Y-110905000D01*
D15*
G36*
X116868424Y-88552896D02*
G01*
X116894417Y-88635707D01*
X116885403Y-88678417D01*
X116833291Y-88723514D01*
X116752834Y-88725607D01*
X116687526Y-88686493D01*
X116678420Y-88669860D01*
X116677084Y-88577980D01*
X116743516Y-88525237D01*
X116787302Y-88519667D01*
X116868424Y-88552896D01*
G37*
X116868424Y-88552896D02*
X116894417Y-88635707D01*
X116885403Y-88678417D01*
X116833291Y-88723514D01*
X116752834Y-88725607D01*
X116687526Y-88686493D01*
X116678420Y-88669860D01*
X116677084Y-88577980D01*
X116743516Y-88525237D01*
X116787302Y-88519667D01*
X116868424Y-88552896D01*
G36*
X115389750Y-82348549D02*
G01*
X115424083Y-82351476D01*
X115842433Y-82407749D01*
X116286144Y-82502813D01*
X116731659Y-82629429D01*
X117155421Y-82780357D01*
X117533872Y-82948357D01*
X117748661Y-83065841D01*
X118083810Y-83299013D01*
X118418397Y-83588351D01*
X118732759Y-83913419D01*
X119007232Y-84253785D01*
X119222153Y-84589015D01*
X119232195Y-84607530D01*
X119353708Y-84833986D01*
X119531254Y-84606657D01*
X119660268Y-84461484D01*
X119823227Y-84305120D01*
X119973869Y-84180073D01*
X120224749Y-84006128D01*
X120483055Y-83859629D01*
X120764693Y-83734225D01*
X121085568Y-83623565D01*
X121461586Y-83521298D01*
X121837357Y-83436033D01*
X122170894Y-83370002D01*
X122428094Y-83329886D01*
X122613112Y-83315337D01*
X122730102Y-83326007D01*
X122780850Y-83357185D01*
X122772613Y-83408911D01*
X122731459Y-83521344D01*
X122663401Y-83680007D01*
X122574453Y-83870422D01*
X122530295Y-83960435D01*
X122420747Y-84183080D01*
X122343018Y-84351901D01*
X122290204Y-84488367D01*
X122255399Y-84613946D01*
X122231697Y-84750104D01*
X122212194Y-84918311D01*
X122207588Y-84963667D01*
X122136464Y-85511394D01*
X122038927Y-85987900D01*
X121911973Y-86403329D01*
X121752596Y-86767827D01*
X121592069Y-87041155D01*
X121356836Y-87332995D01*
X121079296Y-87572471D01*
X120773967Y-87749737D01*
X120455367Y-87854950D01*
X120370336Y-87869538D01*
X120247733Y-87897079D01*
X120181918Y-87934597D01*
X120176000Y-87949726D01*
X120204793Y-88026821D01*
X120282164Y-88145325D01*
X120394598Y-88289088D01*
X120528580Y-88441958D01*
X120670596Y-88587786D01*
X120807133Y-88710422D01*
X120823694Y-88723754D01*
X121105133Y-88927480D01*
X121364744Y-89069313D01*
X121625964Y-89158914D01*
X121912227Y-89205942D01*
X122011973Y-89213520D01*
X122228499Y-89242440D01*
X122372581Y-89302917D01*
X122452387Y-89400618D01*
X122476111Y-89535667D01*
X122450758Y-89677588D01*
X122369534Y-89775415D01*
X122224691Y-89834266D01*
X122008484Y-89859264D01*
X121985378Y-89860025D01*
X121796701Y-89859185D01*
X121609442Y-89848586D01*
X121479040Y-89832773D01*
X121224061Y-89762249D01*
X120950630Y-89636060D01*
X120647334Y-89448430D01*
X120472333Y-89323406D01*
X120242482Y-89143422D01*
X120005767Y-88941821D01*
X119779138Y-88734388D01*
X119579546Y-88536910D01*
X119423941Y-88365172D01*
X119370192Y-88296980D01*
X119253236Y-88137793D01*
X119104364Y-88345012D01*
X118993664Y-88482484D01*
X118872072Y-88609178D01*
X118806248Y-88666065D01*
X118545878Y-88817701D01*
X118237241Y-88921158D01*
X117905275Y-88970800D01*
X117574915Y-88960987D01*
X117530167Y-88954541D01*
X117403870Y-88929648D01*
X117340796Y-88898348D01*
X117319829Y-88846799D01*
X117318500Y-88815786D01*
X117318500Y-88710784D01*
X117763000Y-88710475D01*
X117971775Y-88708172D01*
X118121297Y-88698641D01*
X118236935Y-88677435D01*
X118344057Y-88640107D01*
X118453324Y-88589458D01*
X118717132Y-88414846D01*
X118863000Y-88261463D01*
X118959906Y-88118903D01*
X119054158Y-87946938D01*
X119072202Y-87907179D01*
X119419710Y-87907179D01*
X119423646Y-87959714D01*
X119483751Y-88056571D01*
X119590783Y-88188316D01*
X119735500Y-88345515D01*
X119908658Y-88518733D01*
X120101015Y-88698535D01*
X120303329Y-88875488D01*
X120506357Y-89040157D01*
X120596782Y-89108691D01*
X120856328Y-89293755D01*
X121072375Y-89428544D01*
X121263685Y-89520160D01*
X121449022Y-89575702D01*
X121647147Y-89602273D01*
X121876824Y-89606971D01*
X121911667Y-89606308D01*
X122080042Y-89598962D01*
X122178780Y-89584074D01*
X122222804Y-89558324D01*
X122229167Y-89535667D01*
X122207005Y-89498591D01*
X122131428Y-89472418D01*
X121988800Y-89453124D01*
X121932833Y-89448232D01*
X121572190Y-89391844D01*
X121244200Y-89277962D01*
X120930089Y-89104213D01*
X120716954Y-88948543D01*
X120500671Y-88759156D01*
X120299433Y-88554742D01*
X120131435Y-88353991D01*
X120014869Y-88175593D01*
X120002759Y-88151531D01*
X119940754Y-88029718D01*
X119885056Y-87963599D01*
X119806179Y-87932137D01*
X119674636Y-87914297D01*
X119669415Y-87913736D01*
X119538718Y-87903087D01*
X119446802Y-87901929D01*
X119419710Y-87907179D01*
X119072202Y-87907179D01*
X119133816Y-87771418D01*
X119186941Y-87618190D01*
X119202333Y-87526746D01*
X119166092Y-87478726D01*
X119073976Y-87422517D01*
X119011958Y-87395631D01*
X118925135Y-87364256D01*
X118853135Y-87348777D01*
X118775308Y-87351307D01*
X118671008Y-87373964D01*
X118519584Y-87418861D01*
X118391819Y-87459163D01*
X118070610Y-87568157D01*
X117810046Y-87671640D01*
X117616465Y-87766669D01*
X117496206Y-87850299D01*
X117463619Y-87890360D01*
X117395746Y-87952819D01*
X117308914Y-87965786D01*
X117239544Y-87926918D01*
X117227850Y-87905506D01*
X117232327Y-87804545D01*
X117314857Y-87693868D01*
X117469912Y-87577275D01*
X117691964Y-87458569D01*
X117975487Y-87341550D01*
X118122833Y-87290063D01*
X118419167Y-87191617D01*
X118228667Y-87129324D01*
X118063313Y-87094950D01*
X117816059Y-87072884D01*
X117488796Y-87063291D01*
X117466667Y-87063116D01*
X117230829Y-87062636D01*
X117058648Y-87066864D01*
X116929134Y-87078654D01*
X116821297Y-87100858D01*
X116714148Y-87136332D01*
X116605012Y-87180267D01*
X116454597Y-87241048D01*
X116360944Y-87270364D01*
X116303423Y-87271092D01*
X116261406Y-87246108D01*
X116245179Y-87230436D01*
X116202612Y-87175749D01*
X116216964Y-87130328D01*
X116275847Y-87077272D01*
X116366939Y-87023483D01*
X116509090Y-86961695D01*
X116670672Y-86905562D01*
X116965151Y-86816117D01*
X116729076Y-86709308D01*
X116579635Y-86630774D01*
X116505121Y-86562469D01*
X116493000Y-86522587D01*
X116509036Y-86455215D01*
X116562976Y-86426090D01*
X116663569Y-86436178D01*
X116819563Y-86486444D01*
X117039709Y-86577854D01*
X117055008Y-86584606D01*
X117322563Y-86694125D01*
X117555566Y-86767147D01*
X117789818Y-86814280D01*
X117866610Y-86825077D01*
X118094386Y-86863505D01*
X118351865Y-86920549D01*
X118589504Y-86985024D01*
X118626752Y-86996685D01*
X118793020Y-87047975D01*
X118926353Y-87084999D01*
X119008279Y-87102843D01*
X119024846Y-87102599D01*
X119006687Y-87065989D01*
X118943113Y-86985634D01*
X118847653Y-86878566D01*
X118842621Y-86873176D01*
X118520526Y-86588046D01*
X118502103Y-86577202D01*
X118995985Y-86577202D01*
X119005065Y-86666953D01*
X119039107Y-86727687D01*
X119067680Y-86756206D01*
X119117657Y-86796336D01*
X119153364Y-86796579D01*
X119189870Y-86744761D01*
X119242245Y-86628709D01*
X119251104Y-86608039D01*
X119406388Y-86275306D01*
X119574932Y-85966012D01*
X119729433Y-85725667D01*
X119828397Y-85547215D01*
X119928745Y-85289268D01*
X120003164Y-85048502D01*
X120070085Y-84821231D01*
X120123518Y-84665546D01*
X120169394Y-84570626D01*
X120213644Y-84525646D01*
X120262198Y-84519785D01*
X120288578Y-84527612D01*
X120335891Y-84586967D01*
X120337798Y-84712845D01*
X120294284Y-84907561D01*
X120285758Y-84936496D01*
X120226183Y-85134448D01*
X120423342Y-84991035D01*
X120560480Y-84896606D01*
X120694171Y-84812967D01*
X120755373Y-84778958D01*
X120850754Y-84736877D01*
X120908217Y-84738215D01*
X120954658Y-84774706D01*
X120999094Y-84843835D01*
X120980352Y-84910254D01*
X120891947Y-84984094D01*
X120779264Y-85048736D01*
X120526382Y-85218549D01*
X120266748Y-85461093D01*
X120009771Y-85765990D01*
X119764861Y-86122862D01*
X119685643Y-86254833D01*
X119562925Y-86466500D01*
X119710713Y-86368308D01*
X119845394Y-86287559D01*
X120020214Y-86194693D01*
X120212353Y-86100496D01*
X120398994Y-86015752D01*
X120557317Y-85951245D01*
X120663657Y-85917926D01*
X120794139Y-85917753D01*
X120867044Y-85947813D01*
X120920182Y-86022403D01*
X120902986Y-86095405D01*
X120826707Y-86142611D01*
X120773526Y-86149000D01*
X120653985Y-86172175D01*
X120487626Y-86235345D01*
X120290563Y-86328982D01*
X120078906Y-86443554D01*
X119868765Y-86569532D01*
X119676253Y-86697384D01*
X119517480Y-86817582D01*
X119408557Y-86920594D01*
X119369830Y-86979329D01*
X119354129Y-87075620D01*
X119385555Y-87189219D01*
X119416321Y-87254217D01*
X119465866Y-87380675D01*
X119480574Y-87484489D01*
X119476856Y-87505695D01*
X119462357Y-87580046D01*
X119482225Y-87629763D01*
X119547801Y-87658587D01*
X119670424Y-87670255D01*
X119861435Y-87668506D01*
X119959690Y-87664880D01*
X120185799Y-87651942D01*
X120353987Y-87631514D01*
X120490963Y-87598553D01*
X120623437Y-87548013D01*
X120656181Y-87533324D01*
X120945717Y-87368459D01*
X121195654Y-87154513D01*
X121408549Y-86886429D01*
X121586964Y-86559150D01*
X121733457Y-86167622D01*
X121850589Y-85706787D01*
X121940919Y-85171590D01*
X121969791Y-84938463D01*
X121998075Y-84708258D01*
X122027960Y-84533425D01*
X122067621Y-84384927D01*
X122125238Y-84233724D01*
X122208985Y-84050778D01*
X122235027Y-83996547D01*
X122314446Y-83826282D01*
X122373785Y-83687895D01*
X122406948Y-83596433D01*
X122409174Y-83566667D01*
X122335556Y-83576520D01*
X122198794Y-83603157D01*
X122017723Y-83642194D01*
X121811178Y-83689244D01*
X121597992Y-83739923D01*
X121397001Y-83789847D01*
X121227037Y-83834629D01*
X121107333Y-83869756D01*
X120627020Y-84063710D01*
X120210209Y-84312710D01*
X119854246Y-84619406D01*
X119556475Y-84986443D01*
X119314240Y-85416471D01*
X119156058Y-85815352D01*
X119095421Y-86016128D01*
X119044198Y-86221562D01*
X119011347Y-86394703D01*
X119006775Y-86431259D01*
X118995985Y-86577202D01*
X118502103Y-86577202D01*
X118158626Y-86375034D01*
X117763239Y-86235260D01*
X117340682Y-86169839D01*
X116897273Y-86179891D01*
X116439329Y-86266533D01*
X116083576Y-86385035D01*
X115892926Y-86464311D01*
X115722129Y-86545735D01*
X115554070Y-86639575D01*
X115371636Y-86756103D01*
X115157712Y-86905586D01*
X114896237Y-87097511D01*
X114692326Y-87251822D01*
X114552258Y-87364477D01*
X114469770Y-87441293D01*
X114438599Y-87488087D01*
X114451737Y-87510396D01*
X114523949Y-87533000D01*
X114655040Y-87569677D01*
X114821741Y-87614001D01*
X114898333Y-87633748D01*
X115091153Y-87693722D01*
X115303256Y-87777326D01*
X115520243Y-87876727D01*
X115727716Y-87984090D01*
X115911273Y-88091581D01*
X116056517Y-88191367D01*
X116149046Y-88275614D01*
X116175500Y-88328587D01*
X116161169Y-88391909D01*
X116112657Y-88416472D01*
X116021688Y-88400311D01*
X115879982Y-88341463D01*
X115679264Y-88237965D01*
X115592643Y-88190330D01*
X115342165Y-88058376D01*
X115121477Y-87961835D01*
X114892348Y-87885706D01*
X114665785Y-87826654D01*
X114412737Y-87764492D01*
X114231249Y-87715510D01*
X114110046Y-87675368D01*
X114037854Y-87639727D01*
X114003398Y-87604248D01*
X113995333Y-87568615D01*
X114028521Y-87511978D01*
X114121920Y-87414797D01*
X114266287Y-87284946D01*
X114452377Y-87130299D01*
X114670947Y-86958729D01*
X114912751Y-86778110D01*
X114983943Y-86726568D01*
X115238884Y-86555927D01*
X115514260Y-86392940D01*
X115785346Y-86251010D01*
X116027417Y-86143544D01*
X116122583Y-86109254D01*
X116222965Y-86072334D01*
X116277847Y-86043662D01*
X116281333Y-86038524D01*
X116266540Y-85990697D01*
X116229902Y-85896481D01*
X116219113Y-85870367D01*
X116154928Y-85693343D01*
X116080788Y-85449997D01*
X116001144Y-85157440D01*
X115920441Y-84832781D01*
X115843127Y-84493133D01*
X115774373Y-84159333D01*
X115721288Y-83894977D01*
X115673917Y-83689790D01*
X115624267Y-83519391D01*
X115564345Y-83359400D01*
X115486159Y-83185435D01*
X115392701Y-82995031D01*
X115273505Y-82754608D01*
X115203824Y-82603174D01*
X115495497Y-82603174D01*
X115508280Y-82643310D01*
X115551098Y-82743167D01*
X115616737Y-82886434D01*
X115676493Y-83012335D01*
X115758987Y-83194293D01*
X115826898Y-83372179D01*
X115886858Y-83567723D01*
X115945500Y-83802657D01*
X116009455Y-84098714D01*
X116012396Y-84113001D01*
X116108337Y-84564627D01*
X116195716Y-84942368D01*
X116277130Y-85256266D01*
X116355177Y-85516366D01*
X116429328Y-85724722D01*
X116484417Y-85855841D01*
X116529980Y-85924827D01*
X116583331Y-85949846D01*
X116644340Y-85950344D01*
X116907894Y-85938630D01*
X117175685Y-85936542D01*
X117425604Y-85943465D01*
X117635540Y-85958784D01*
X117783381Y-85981883D01*
X117784167Y-85982076D01*
X117979115Y-86041574D01*
X118190071Y-86124123D01*
X118389354Y-86217288D01*
X118549282Y-86308632D01*
X118609667Y-86352934D01*
X118695443Y-86422366D01*
X118730210Y-86430939D01*
X118727250Y-86372889D01*
X118713765Y-86307750D01*
X118673208Y-86169966D01*
X118625765Y-86055910D01*
X118546601Y-85956364D01*
X118406380Y-85833443D01*
X118221677Y-85697567D01*
X118009063Y-85559156D01*
X117785113Y-85428629D01*
X117566400Y-85316407D01*
X117369496Y-85232909D01*
X117263882Y-85199686D01*
X117130889Y-85155031D01*
X117065428Y-85101311D01*
X117051678Y-85061728D01*
X117066374Y-84981478D01*
X117099383Y-84951217D01*
X117213383Y-84943445D01*
X117379656Y-84979238D01*
X117582038Y-85052310D01*
X117804364Y-85156378D01*
X118030472Y-85285155D01*
X118136391Y-85354442D01*
X118241821Y-85421783D01*
X118315707Y-85459762D01*
X118336220Y-85462891D01*
X118330661Y-85411940D01*
X118274704Y-85311800D01*
X118177646Y-85173321D01*
X118048785Y-85007357D01*
X117897417Y-84824759D01*
X117732838Y-84636380D01*
X117564344Y-84453072D01*
X117401234Y-84285687D01*
X117252802Y-84145078D01*
X117128346Y-84042097D01*
X117104700Y-84025291D01*
X116980448Y-83923575D01*
X116933874Y-83837454D01*
X116961334Y-83758955D01*
X116975739Y-83743118D01*
X117028100Y-83706049D01*
X117087483Y-83716909D01*
X117157211Y-83758416D01*
X117248416Y-83826874D01*
X117373374Y-83931679D01*
X117505102Y-84050197D01*
X117505639Y-84050699D01*
X117611091Y-84144261D01*
X117684572Y-84199697D01*
X117713238Y-84207614D01*
X117712120Y-84201667D01*
X117690700Y-84127316D01*
X117659369Y-84001556D01*
X117634344Y-83893336D01*
X117605851Y-83742551D01*
X117604074Y-83651425D01*
X117628718Y-83599378D01*
X117630112Y-83597954D01*
X117702327Y-83571318D01*
X117776874Y-83615653D01*
X117838907Y-83719026D01*
X117858832Y-83781819D01*
X117931179Y-84066918D01*
X117992058Y-84286610D01*
X118048135Y-84458191D01*
X118106078Y-84598956D01*
X118172554Y-84726201D01*
X118254228Y-84857220D01*
X118299180Y-84924168D01*
X118427721Y-85124855D01*
X118561273Y-85352583D01*
X118674848Y-85564375D01*
X118694145Y-85603473D01*
X118772686Y-85763322D01*
X118823489Y-85855670D01*
X118854645Y-85889726D01*
X118874248Y-85874700D01*
X118889067Y-85825312D01*
X118920832Y-85726160D01*
X118976337Y-85581150D01*
X119043716Y-85421241D01*
X119045429Y-85417367D01*
X119110633Y-85263030D01*
X119143069Y-85157345D01*
X119147396Y-85073019D01*
X119128273Y-84982758D01*
X119122799Y-84964105D01*
X119038629Y-84767870D01*
X118898878Y-84537083D01*
X118716409Y-84287030D01*
X118504088Y-84032996D01*
X118274779Y-83790266D01*
X118041346Y-83574125D01*
X117816655Y-83399856D01*
X117792579Y-83383604D01*
X117442478Y-83174797D01*
X117075951Y-82998135D01*
X116724942Y-82868663D01*
X116658746Y-82849574D01*
X116500995Y-82808915D01*
X116312491Y-82763949D01*
X116110467Y-82718327D01*
X115912154Y-82675698D01*
X115734786Y-82639714D01*
X115595595Y-82614023D01*
X115511813Y-82602276D01*
X115495497Y-82603174D01*
X115203824Y-82603174D01*
X115193105Y-82579881D01*
X115151976Y-82461046D01*
X115150599Y-82388300D01*
X115189450Y-82351837D01*
X115269007Y-82341855D01*
X115389750Y-82348549D01*
G37*
X115389750Y-82348549D02*
X115424083Y-82351476D01*
X115842433Y-82407749D01*
X116286144Y-82502813D01*
X116731659Y-82629429D01*
X117155421Y-82780357D01*
X117533872Y-82948357D01*
X117748661Y-83065841D01*
X118083810Y-83299013D01*
X118418397Y-83588351D01*
X118732759Y-83913419D01*
X119007232Y-84253785D01*
X119222153Y-84589015D01*
X119232195Y-84607530D01*
X119353708Y-84833986D01*
X119531254Y-84606657D01*
X119660268Y-84461484D01*
X119823227Y-84305120D01*
X119973869Y-84180073D01*
X120224749Y-84006128D01*
X120483055Y-83859629D01*
X120764693Y-83734225D01*
X121085568Y-83623565D01*
X121461586Y-83521298D01*
X121837357Y-83436033D01*
X122170894Y-83370002D01*
X122428094Y-83329886D01*
X122613112Y-83315337D01*
X122730102Y-83326007D01*
X122780850Y-83357185D01*
X122772613Y-83408911D01*
X122731459Y-83521344D01*
X122663401Y-83680007D01*
X122574453Y-83870422D01*
X122530295Y-83960435D01*
X122420747Y-84183080D01*
X122343018Y-84351901D01*
X122290204Y-84488367D01*
X122255399Y-84613946D01*
X122231697Y-84750104D01*
X122212194Y-84918311D01*
X122207588Y-84963667D01*
X122136464Y-85511394D01*
X122038927Y-85987900D01*
X121911973Y-86403329D01*
X121752596Y-86767827D01*
X121592069Y-87041155D01*
X121356836Y-87332995D01*
X121079296Y-87572471D01*
X120773967Y-87749737D01*
X120455367Y-87854950D01*
X120370336Y-87869538D01*
X120247733Y-87897079D01*
X120181918Y-87934597D01*
X120176000Y-87949726D01*
X120204793Y-88026821D01*
X120282164Y-88145325D01*
X120394598Y-88289088D01*
X120528580Y-88441958D01*
X120670596Y-88587786D01*
X120807133Y-88710422D01*
X120823694Y-88723754D01*
X121105133Y-88927480D01*
X121364744Y-89069313D01*
X121625964Y-89158914D01*
X121912227Y-89205942D01*
X122011973Y-89213520D01*
X122228499Y-89242440D01*
X122372581Y-89302917D01*
X122452387Y-89400618D01*
X122476111Y-89535667D01*
X122450758Y-89677588D01*
X122369534Y-89775415D01*
X122224691Y-89834266D01*
X122008484Y-89859264D01*
X121985378Y-89860025D01*
X121796701Y-89859185D01*
X121609442Y-89848586D01*
X121479040Y-89832773D01*
X121224061Y-89762249D01*
X120950630Y-89636060D01*
X120647334Y-89448430D01*
X120472333Y-89323406D01*
X120242482Y-89143422D01*
X120005767Y-88941821D01*
X119779138Y-88734388D01*
X119579546Y-88536910D01*
X119423941Y-88365172D01*
X119370192Y-88296980D01*
X119253236Y-88137793D01*
X119104364Y-88345012D01*
X118993664Y-88482484D01*
X118872072Y-88609178D01*
X118806248Y-88666065D01*
X118545878Y-88817701D01*
X118237241Y-88921158D01*
X117905275Y-88970800D01*
X117574915Y-88960987D01*
X117530167Y-88954541D01*
X117403870Y-88929648D01*
X117340796Y-88898348D01*
X117319829Y-88846799D01*
X117318500Y-88815786D01*
X117318500Y-88710784D01*
X117763000Y-88710475D01*
X117971775Y-88708172D01*
X118121297Y-88698641D01*
X118236935Y-88677435D01*
X118344057Y-88640107D01*
X118453324Y-88589458D01*
X118717132Y-88414846D01*
X118863000Y-88261463D01*
X118959906Y-88118903D01*
X119054158Y-87946938D01*
X119072202Y-87907179D01*
X119419710Y-87907179D01*
X119423646Y-87959714D01*
X119483751Y-88056571D01*
X119590783Y-88188316D01*
X119735500Y-88345515D01*
X119908658Y-88518733D01*
X120101015Y-88698535D01*
X120303329Y-88875488D01*
X120506357Y-89040157D01*
X120596782Y-89108691D01*
X120856328Y-89293755D01*
X121072375Y-89428544D01*
X121263685Y-89520160D01*
X121449022Y-89575702D01*
X121647147Y-89602273D01*
X121876824Y-89606971D01*
X121911667Y-89606308D01*
X122080042Y-89598962D01*
X122178780Y-89584074D01*
X122222804Y-89558324D01*
X122229167Y-89535667D01*
X122207005Y-89498591D01*
X122131428Y-89472418D01*
X121988800Y-89453124D01*
X121932833Y-89448232D01*
X121572190Y-89391844D01*
X121244200Y-89277962D01*
X120930089Y-89104213D01*
X120716954Y-88948543D01*
X120500671Y-88759156D01*
X120299433Y-88554742D01*
X120131435Y-88353991D01*
X120014869Y-88175593D01*
X120002759Y-88151531D01*
X119940754Y-88029718D01*
X119885056Y-87963599D01*
X119806179Y-87932137D01*
X119674636Y-87914297D01*
X119669415Y-87913736D01*
X119538718Y-87903087D01*
X119446802Y-87901929D01*
X119419710Y-87907179D01*
X119072202Y-87907179D01*
X119133816Y-87771418D01*
X119186941Y-87618190D01*
X119202333Y-87526746D01*
X119166092Y-87478726D01*
X119073976Y-87422517D01*
X119011958Y-87395631D01*
X118925135Y-87364256D01*
X118853135Y-87348777D01*
X118775308Y-87351307D01*
X118671008Y-87373964D01*
X118519584Y-87418861D01*
X118391819Y-87459163D01*
X118070610Y-87568157D01*
X117810046Y-87671640D01*
X117616465Y-87766669D01*
X117496206Y-87850299D01*
X117463619Y-87890360D01*
X117395746Y-87952819D01*
X117308914Y-87965786D01*
X117239544Y-87926918D01*
X117227850Y-87905506D01*
X117232327Y-87804545D01*
X117314857Y-87693868D01*
X117469912Y-87577275D01*
X117691964Y-87458569D01*
X117975487Y-87341550D01*
X118122833Y-87290063D01*
X118419167Y-87191617D01*
X118228667Y-87129324D01*
X118063313Y-87094950D01*
X117816059Y-87072884D01*
X117488796Y-87063291D01*
X117466667Y-87063116D01*
X117230829Y-87062636D01*
X117058648Y-87066864D01*
X116929134Y-87078654D01*
X116821297Y-87100858D01*
X116714148Y-87136332D01*
X116605012Y-87180267D01*
X116454597Y-87241048D01*
X116360944Y-87270364D01*
X116303423Y-87271092D01*
X116261406Y-87246108D01*
X116245179Y-87230436D01*
X116202612Y-87175749D01*
X116216964Y-87130328D01*
X116275847Y-87077272D01*
X116366939Y-87023483D01*
X116509090Y-86961695D01*
X116670672Y-86905562D01*
X116965151Y-86816117D01*
X116729076Y-86709308D01*
X116579635Y-86630774D01*
X116505121Y-86562469D01*
X116493000Y-86522587D01*
X116509036Y-86455215D01*
X116562976Y-86426090D01*
X116663569Y-86436178D01*
X116819563Y-86486444D01*
X117039709Y-86577854D01*
X117055008Y-86584606D01*
X117322563Y-86694125D01*
X117555566Y-86767147D01*
X117789818Y-86814280D01*
X117866610Y-86825077D01*
X118094386Y-86863505D01*
X118351865Y-86920549D01*
X118589504Y-86985024D01*
X118626752Y-86996685D01*
X118793020Y-87047975D01*
X118926353Y-87084999D01*
X119008279Y-87102843D01*
X119024846Y-87102599D01*
X119006687Y-87065989D01*
X118943113Y-86985634D01*
X118847653Y-86878566D01*
X118842621Y-86873176D01*
X118520526Y-86588046D01*
X118502103Y-86577202D01*
X118995985Y-86577202D01*
X119005065Y-86666953D01*
X119039107Y-86727687D01*
X119067680Y-86756206D01*
X119117657Y-86796336D01*
X119153364Y-86796579D01*
X119189870Y-86744761D01*
X119242245Y-86628709D01*
X119251104Y-86608039D01*
X119406388Y-86275306D01*
X119574932Y-85966012D01*
X119729433Y-85725667D01*
X119828397Y-85547215D01*
X119928745Y-85289268D01*
X120003164Y-85048502D01*
X120070085Y-84821231D01*
X120123518Y-84665546D01*
X120169394Y-84570626D01*
X120213644Y-84525646D01*
X120262198Y-84519785D01*
X120288578Y-84527612D01*
X120335891Y-84586967D01*
X120337798Y-84712845D01*
X120294284Y-84907561D01*
X120285758Y-84936496D01*
X120226183Y-85134448D01*
X120423342Y-84991035D01*
X120560480Y-84896606D01*
X120694171Y-84812967D01*
X120755373Y-84778958D01*
X120850754Y-84736877D01*
X120908217Y-84738215D01*
X120954658Y-84774706D01*
X120999094Y-84843835D01*
X120980352Y-84910254D01*
X120891947Y-84984094D01*
X120779264Y-85048736D01*
X120526382Y-85218549D01*
X120266748Y-85461093D01*
X120009771Y-85765990D01*
X119764861Y-86122862D01*
X119685643Y-86254833D01*
X119562925Y-86466500D01*
X119710713Y-86368308D01*
X119845394Y-86287559D01*
X120020214Y-86194693D01*
X120212353Y-86100496D01*
X120398994Y-86015752D01*
X120557317Y-85951245D01*
X120663657Y-85917926D01*
X120794139Y-85917753D01*
X120867044Y-85947813D01*
X120920182Y-86022403D01*
X120902986Y-86095405D01*
X120826707Y-86142611D01*
X120773526Y-86149000D01*
X120653985Y-86172175D01*
X120487626Y-86235345D01*
X120290563Y-86328982D01*
X120078906Y-86443554D01*
X119868765Y-86569532D01*
X119676253Y-86697384D01*
X119517480Y-86817582D01*
X119408557Y-86920594D01*
X119369830Y-86979329D01*
X119354129Y-87075620D01*
X119385555Y-87189219D01*
X119416321Y-87254217D01*
X119465866Y-87380675D01*
X119480574Y-87484489D01*
X119476856Y-87505695D01*
X119462357Y-87580046D01*
X119482225Y-87629763D01*
X119547801Y-87658587D01*
X119670424Y-87670255D01*
X119861435Y-87668506D01*
X119959690Y-87664880D01*
X120185799Y-87651942D01*
X120353987Y-87631514D01*
X120490963Y-87598553D01*
X120623437Y-87548013D01*
X120656181Y-87533324D01*
X120945717Y-87368459D01*
X121195654Y-87154513D01*
X121408549Y-86886429D01*
X121586964Y-86559150D01*
X121733457Y-86167622D01*
X121850589Y-85706787D01*
X121940919Y-85171590D01*
X121969791Y-84938463D01*
X121998075Y-84708258D01*
X122027960Y-84533425D01*
X122067621Y-84384927D01*
X122125238Y-84233724D01*
X122208985Y-84050778D01*
X122235027Y-83996547D01*
X122314446Y-83826282D01*
X122373785Y-83687895D01*
X122406948Y-83596433D01*
X122409174Y-83566667D01*
X122335556Y-83576520D01*
X122198794Y-83603157D01*
X122017723Y-83642194D01*
X121811178Y-83689244D01*
X121597992Y-83739923D01*
X121397001Y-83789847D01*
X121227037Y-83834629D01*
X121107333Y-83869756D01*
X120627020Y-84063710D01*
X120210209Y-84312710D01*
X119854246Y-84619406D01*
X119556475Y-84986443D01*
X119314240Y-85416471D01*
X119156058Y-85815352D01*
X119095421Y-86016128D01*
X119044198Y-86221562D01*
X119011347Y-86394703D01*
X119006775Y-86431259D01*
X118995985Y-86577202D01*
X118502103Y-86577202D01*
X118158626Y-86375034D01*
X117763239Y-86235260D01*
X117340682Y-86169839D01*
X116897273Y-86179891D01*
X116439329Y-86266533D01*
X116083576Y-86385035D01*
X115892926Y-86464311D01*
X115722129Y-86545735D01*
X115554070Y-86639575D01*
X115371636Y-86756103D01*
X115157712Y-86905586D01*
X114896237Y-87097511D01*
X114692326Y-87251822D01*
X114552258Y-87364477D01*
X114469770Y-87441293D01*
X114438599Y-87488087D01*
X114451737Y-87510396D01*
X114523949Y-87533000D01*
X114655040Y-87569677D01*
X114821741Y-87614001D01*
X114898333Y-87633748D01*
X115091153Y-87693722D01*
X115303256Y-87777326D01*
X115520243Y-87876727D01*
X115727716Y-87984090D01*
X115911273Y-88091581D01*
X116056517Y-88191367D01*
X116149046Y-88275614D01*
X116175500Y-88328587D01*
X116161169Y-88391909D01*
X116112657Y-88416472D01*
X116021688Y-88400311D01*
X115879982Y-88341463D01*
X115679264Y-88237965D01*
X115592643Y-88190330D01*
X115342165Y-88058376D01*
X115121477Y-87961835D01*
X114892348Y-87885706D01*
X114665785Y-87826654D01*
X114412737Y-87764492D01*
X114231249Y-87715510D01*
X114110046Y-87675368D01*
X114037854Y-87639727D01*
X114003398Y-87604248D01*
X113995333Y-87568615D01*
X114028521Y-87511978D01*
X114121920Y-87414797D01*
X114266287Y-87284946D01*
X114452377Y-87130299D01*
X114670947Y-86958729D01*
X114912751Y-86778110D01*
X114983943Y-86726568D01*
X115238884Y-86555927D01*
X115514260Y-86392940D01*
X115785346Y-86251010D01*
X116027417Y-86143544D01*
X116122583Y-86109254D01*
X116222965Y-86072334D01*
X116277847Y-86043662D01*
X116281333Y-86038524D01*
X116266540Y-85990697D01*
X116229902Y-85896481D01*
X116219113Y-85870367D01*
X116154928Y-85693343D01*
X116080788Y-85449997D01*
X116001144Y-85157440D01*
X115920441Y-84832781D01*
X115843127Y-84493133D01*
X115774373Y-84159333D01*
X115721288Y-83894977D01*
X115673917Y-83689790D01*
X115624267Y-83519391D01*
X115564345Y-83359400D01*
X115486159Y-83185435D01*
X115392701Y-82995031D01*
X115273505Y-82754608D01*
X115203824Y-82603174D01*
X115495497Y-82603174D01*
X115508280Y-82643310D01*
X115551098Y-82743167D01*
X115616737Y-82886434D01*
X115676493Y-83012335D01*
X115758987Y-83194293D01*
X115826898Y-83372179D01*
X115886858Y-83567723D01*
X115945500Y-83802657D01*
X116009455Y-84098714D01*
X116012396Y-84113001D01*
X116108337Y-84564627D01*
X116195716Y-84942368D01*
X116277130Y-85256266D01*
X116355177Y-85516366D01*
X116429328Y-85724722D01*
X116484417Y-85855841D01*
X116529980Y-85924827D01*
X116583331Y-85949846D01*
X116644340Y-85950344D01*
X116907894Y-85938630D01*
X117175685Y-85936542D01*
X117425604Y-85943465D01*
X117635540Y-85958784D01*
X117783381Y-85981883D01*
X117784167Y-85982076D01*
X117979115Y-86041574D01*
X118190071Y-86124123D01*
X118389354Y-86217288D01*
X118549282Y-86308632D01*
X118609667Y-86352934D01*
X118695443Y-86422366D01*
X118730210Y-86430939D01*
X118727250Y-86372889D01*
X118713765Y-86307750D01*
X118673208Y-86169966D01*
X118625765Y-86055910D01*
X118546601Y-85956364D01*
X118406380Y-85833443D01*
X118221677Y-85697567D01*
X118009063Y-85559156D01*
X117785113Y-85428629D01*
X117566400Y-85316407D01*
X117369496Y-85232909D01*
X117263882Y-85199686D01*
X117130889Y-85155031D01*
X117065428Y-85101311D01*
X117051678Y-85061728D01*
X117066374Y-84981478D01*
X117099383Y-84951217D01*
X117213383Y-84943445D01*
X117379656Y-84979238D01*
X117582038Y-85052310D01*
X117804364Y-85156378D01*
X118030472Y-85285155D01*
X118136391Y-85354442D01*
X118241821Y-85421783D01*
X118315707Y-85459762D01*
X118336220Y-85462891D01*
X118330661Y-85411940D01*
X118274704Y-85311800D01*
X118177646Y-85173321D01*
X118048785Y-85007357D01*
X117897417Y-84824759D01*
X117732838Y-84636380D01*
X117564344Y-84453072D01*
X117401234Y-84285687D01*
X117252802Y-84145078D01*
X117128346Y-84042097D01*
X117104700Y-84025291D01*
X116980448Y-83923575D01*
X116933874Y-83837454D01*
X116961334Y-83758955D01*
X116975739Y-83743118D01*
X117028100Y-83706049D01*
X117087483Y-83716909D01*
X117157211Y-83758416D01*
X117248416Y-83826874D01*
X117373374Y-83931679D01*
X117505102Y-84050197D01*
X117505639Y-84050699D01*
X117611091Y-84144261D01*
X117684572Y-84199697D01*
X117713238Y-84207614D01*
X117712120Y-84201667D01*
X117690700Y-84127316D01*
X117659369Y-84001556D01*
X117634344Y-83893336D01*
X117605851Y-83742551D01*
X117604074Y-83651425D01*
X117628718Y-83599378D01*
X117630112Y-83597954D01*
X117702327Y-83571318D01*
X117776874Y-83615653D01*
X117838907Y-83719026D01*
X117858832Y-83781819D01*
X117931179Y-84066918D01*
X117992058Y-84286610D01*
X118048135Y-84458191D01*
X118106078Y-84598956D01*
X118172554Y-84726201D01*
X118254228Y-84857220D01*
X118299180Y-84924168D01*
X118427721Y-85124855D01*
X118561273Y-85352583D01*
X118674848Y-85564375D01*
X118694145Y-85603473D01*
X118772686Y-85763322D01*
X118823489Y-85855670D01*
X118854645Y-85889726D01*
X118874248Y-85874700D01*
X118889067Y-85825312D01*
X118920832Y-85726160D01*
X118976337Y-85581150D01*
X119043716Y-85421241D01*
X119045429Y-85417367D01*
X119110633Y-85263030D01*
X119143069Y-85157345D01*
X119147396Y-85073019D01*
X119128273Y-84982758D01*
X119122799Y-84964105D01*
X119038629Y-84767870D01*
X118898878Y-84537083D01*
X118716409Y-84287030D01*
X118504088Y-84032996D01*
X118274779Y-83790266D01*
X118041346Y-83574125D01*
X117816655Y-83399856D01*
X117792579Y-83383604D01*
X117442478Y-83174797D01*
X117075951Y-82998135D01*
X116724942Y-82868663D01*
X116658746Y-82849574D01*
X116500995Y-82808915D01*
X116312491Y-82763949D01*
X116110467Y-82718327D01*
X115912154Y-82675698D01*
X115734786Y-82639714D01*
X115595595Y-82614023D01*
X115511813Y-82602276D01*
X115495497Y-82603174D01*
X115203824Y-82603174D01*
X115193105Y-82579881D01*
X115151976Y-82461046D01*
X115150599Y-82388300D01*
X115189450Y-82351837D01*
X115269007Y-82341855D01*
X115389750Y-82348549D01*
G36*
X119904522Y-117123102D02*
G01*
X119984311Y-117132821D01*
X120014408Y-117157109D01*
X120012292Y-117202585D01*
X120009124Y-117216584D01*
X119998229Y-117277011D01*
X119975937Y-117412322D01*
X119943636Y-117613707D01*
X119902714Y-117872353D01*
X119854559Y-118179450D01*
X119800561Y-118526186D01*
X119742107Y-118903749D01*
X119690621Y-119238000D01*
X119629514Y-119634634D01*
X119571726Y-120007836D01*
X119518642Y-120348795D01*
X119471647Y-120648699D01*
X119432126Y-120898738D01*
X119401464Y-121090101D01*
X119381047Y-121213976D01*
X119372830Y-121259417D01*
X119354086Y-121309757D01*
X119313485Y-121338386D01*
X119231117Y-121351334D01*
X119087075Y-121354632D01*
X119058379Y-121354667D01*
X118898963Y-121351120D01*
X118805437Y-121337544D01*
X118759212Y-121309538D01*
X118745469Y-121280584D01*
X118737147Y-121221818D01*
X118722847Y-121089150D01*
X118703556Y-120893057D01*
X118680262Y-120644014D01*
X118653949Y-120352499D01*
X118625607Y-120028989D01*
X118605918Y-119798917D01*
X118576794Y-119463834D01*
X118548765Y-119157286D01*
X118522832Y-118889054D01*
X118499998Y-118668919D01*
X118481267Y-118506661D01*
X118467641Y-118412063D01*
X118461612Y-118391334D01*
X118447595Y-118431025D01*
X118423939Y-118541270D01*
X118393094Y-118708822D01*
X118357507Y-118920434D01*
X118322671Y-119142750D01*
X118274501Y-119458200D01*
X118219708Y-119813484D01*
X118163969Y-120172001D01*
X118112961Y-120497147D01*
X118096171Y-120603250D01*
X117983621Y-121312334D01*
X117715644Y-121312334D01*
X117577565Y-121310810D01*
X117480836Y-121306833D01*
X117447723Y-121301750D01*
X117454010Y-121259111D01*
X117472020Y-121140857D01*
X117500512Y-120955042D01*
X117538248Y-120709721D01*
X117583985Y-120412947D01*
X117636485Y-120072774D01*
X117694506Y-119697256D01*
X117756809Y-119294447D01*
X117765223Y-119240074D01*
X117828069Y-118833340D01*
X117886782Y-118452056D01*
X117940117Y-118104397D01*
X117986831Y-117798539D01*
X118025678Y-117542655D01*
X118055413Y-117344920D01*
X118074793Y-117213510D01*
X118082571Y-117156599D01*
X118082666Y-117155158D01*
X118121840Y-117140248D01*
X118226758Y-117128694D01*
X118378512Y-117122178D01*
X118462860Y-117121334D01*
X118643781Y-117122637D01*
X118757183Y-117129269D01*
X118820204Y-117145315D01*
X118849982Y-117174859D01*
X118862569Y-117216584D01*
X118871121Y-117282897D01*
X118885337Y-117421575D01*
X118904113Y-117620582D01*
X118926342Y-117867888D01*
X118950921Y-118151459D01*
X118976743Y-118459264D01*
X118977175Y-118464505D01*
X119002442Y-118765846D01*
X119025961Y-119037009D01*
X119046744Y-119267320D01*
X119063799Y-119446104D01*
X119076139Y-119562685D01*
X119082773Y-119606388D01*
X119083024Y-119606420D01*
X119092133Y-119563439D01*
X119112283Y-119447843D01*
X119141664Y-119270704D01*
X119178465Y-119043092D01*
X119220873Y-118776079D01*
X119264694Y-118496081D01*
X119311822Y-118193494D01*
X119355832Y-117912087D01*
X119394705Y-117664681D01*
X119426420Y-117464099D01*
X119448959Y-117323164D01*
X119459554Y-117258917D01*
X119483503Y-117121334D01*
X119757558Y-117121334D01*
X119904522Y-117123102D01*
G37*
X119904522Y-117123102D02*
X119984311Y-117132821D01*
X120014408Y-117157109D01*
X120012292Y-117202585D01*
X120009124Y-117216584D01*
X119998229Y-117277011D01*
X119975937Y-117412322D01*
X119943636Y-117613707D01*
X119902714Y-117872353D01*
X119854559Y-118179450D01*
X119800561Y-118526186D01*
X119742107Y-118903749D01*
X119690621Y-119238000D01*
X119629514Y-119634634D01*
X119571726Y-120007836D01*
X119518642Y-120348795D01*
X119471647Y-120648699D01*
X119432126Y-120898738D01*
X119401464Y-121090101D01*
X119381047Y-121213976D01*
X119372830Y-121259417D01*
X119354086Y-121309757D01*
X119313485Y-121338386D01*
X119231117Y-121351334D01*
X119087075Y-121354632D01*
X119058379Y-121354667D01*
X118898963Y-121351120D01*
X118805437Y-121337544D01*
X118759212Y-121309538D01*
X118745469Y-121280584D01*
X118737147Y-121221818D01*
X118722847Y-121089150D01*
X118703556Y-120893057D01*
X118680262Y-120644014D01*
X118653949Y-120352499D01*
X118625607Y-120028989D01*
X118605918Y-119798917D01*
X118576794Y-119463834D01*
X118548765Y-119157286D01*
X118522832Y-118889054D01*
X118499998Y-118668919D01*
X118481267Y-118506661D01*
X118467641Y-118412063D01*
X118461612Y-118391334D01*
X118447595Y-118431025D01*
X118423939Y-118541270D01*
X118393094Y-118708822D01*
X118357507Y-118920434D01*
X118322671Y-119142750D01*
X118274501Y-119458200D01*
X118219708Y-119813484D01*
X118163969Y-120172001D01*
X118112961Y-120497147D01*
X118096171Y-120603250D01*
X117983621Y-121312334D01*
X117715644Y-121312334D01*
X117577565Y-121310810D01*
X117480836Y-121306833D01*
X117447723Y-121301750D01*
X117454010Y-121259111D01*
X117472020Y-121140857D01*
X117500512Y-120955042D01*
X117538248Y-120709721D01*
X117583985Y-120412947D01*
X117636485Y-120072774D01*
X117694506Y-119697256D01*
X117756809Y-119294447D01*
X117765223Y-119240074D01*
X117828069Y-118833340D01*
X117886782Y-118452056D01*
X117940117Y-118104397D01*
X117986831Y-117798539D01*
X118025678Y-117542655D01*
X118055413Y-117344920D01*
X118074793Y-117213510D01*
X118082571Y-117156599D01*
X118082666Y-117155158D01*
X118121840Y-117140248D01*
X118226758Y-117128694D01*
X118378512Y-117122178D01*
X118462860Y-117121334D01*
X118643781Y-117122637D01*
X118757183Y-117129269D01*
X118820204Y-117145315D01*
X118849982Y-117174859D01*
X118862569Y-117216584D01*
X118871121Y-117282897D01*
X118885337Y-117421575D01*
X118904113Y-117620582D01*
X118926342Y-117867888D01*
X118950921Y-118151459D01*
X118976743Y-118459264D01*
X118977175Y-118464505D01*
X119002442Y-118765846D01*
X119025961Y-119037009D01*
X119046744Y-119267320D01*
X119063799Y-119446104D01*
X119076139Y-119562685D01*
X119082773Y-119606388D01*
X119083024Y-119606420D01*
X119092133Y-119563439D01*
X119112283Y-119447843D01*
X119141664Y-119270704D01*
X119178465Y-119043092D01*
X119220873Y-118776079D01*
X119264694Y-118496081D01*
X119311822Y-118193494D01*
X119355832Y-117912087D01*
X119394705Y-117664681D01*
X119426420Y-117464099D01*
X119448959Y-117323164D01*
X119459554Y-117258917D01*
X119483503Y-117121334D01*
X119757558Y-117121334D01*
X119904522Y-117123102D01*
G36*
X117554123Y-117364750D02*
G01*
X117535557Y-117514680D01*
X117516336Y-117631035D01*
X117500919Y-117687817D01*
X117452143Y-117700666D01*
X117336199Y-117708057D01*
X117170440Y-117709448D01*
X116972465Y-117704308D01*
X116727414Y-117697586D01*
X116561755Y-117701160D01*
X116470813Y-117715263D01*
X116449437Y-117730491D01*
X116433705Y-117789128D01*
X116404608Y-117911345D01*
X116366622Y-118077957D01*
X116333163Y-118228849D01*
X116234259Y-118680197D01*
X116393735Y-118552039D01*
X116579860Y-118444727D01*
X116779034Y-118399986D01*
X116972753Y-118415487D01*
X117142510Y-118488902D01*
X117269801Y-118617903D01*
X117296228Y-118665586D01*
X117334830Y-118791834D01*
X117358795Y-118958182D01*
X117363000Y-119055318D01*
X117353936Y-119233982D01*
X117329135Y-119464389D01*
X117292183Y-119726038D01*
X117246666Y-119998429D01*
X117196168Y-120261059D01*
X117144275Y-120493430D01*
X117094574Y-120675039D01*
X117065780Y-120754678D01*
X116922572Y-120991238D01*
X116727989Y-121173620D01*
X116496779Y-121296156D01*
X116243685Y-121353178D01*
X115983453Y-121339018D01*
X115752719Y-121259417D01*
X115576339Y-121138411D01*
X115459228Y-120977905D01*
X115396808Y-120767687D01*
X115384496Y-120497550D01*
X115387083Y-120444500D01*
X115401252Y-120235922D01*
X115420764Y-120097490D01*
X115455868Y-120014826D01*
X115516817Y-119973552D01*
X115613861Y-119959291D01*
X115734174Y-119957667D01*
X116001290Y-119957667D01*
X115994228Y-120304374D01*
X115992253Y-120476252D01*
X115998344Y-120583865D01*
X116017644Y-120647567D01*
X116055296Y-120687708D01*
X116097773Y-120714083D01*
X116237764Y-120752474D01*
X116369514Y-120713357D01*
X116479250Y-120603708D01*
X116534046Y-120493039D01*
X116572445Y-120357392D01*
X116613914Y-120163184D01*
X116654305Y-119936212D01*
X116689469Y-119702275D01*
X116715259Y-119487169D01*
X116727527Y-119316692D01*
X116728000Y-119286841D01*
X116699945Y-119133962D01*
X116626257Y-119037314D01*
X116522644Y-118994776D01*
X116404819Y-119004225D01*
X116288491Y-119063539D01*
X116189372Y-119170596D01*
X116123172Y-119323273D01*
X116113343Y-119369872D01*
X116085557Y-119534334D01*
X115814112Y-119534334D01*
X115665307Y-119531167D01*
X115582752Y-119518231D01*
X115548152Y-119490371D01*
X115542666Y-119457854D01*
X115550589Y-119401913D01*
X115572616Y-119276407D01*
X115606129Y-119094772D01*
X115648514Y-118870440D01*
X115697155Y-118616848D01*
X115749437Y-118347430D01*
X115802743Y-118075621D01*
X115854459Y-117814855D01*
X115901968Y-117578567D01*
X115942656Y-117380192D01*
X115973906Y-117233165D01*
X115987260Y-117174250D01*
X115997412Y-117140883D01*
X116017421Y-117116390D01*
X116058949Y-117099399D01*
X116133663Y-117088539D01*
X116253226Y-117082437D01*
X116429303Y-117079722D01*
X116673558Y-117079023D01*
X116797238Y-117079000D01*
X117584530Y-117079000D01*
X117554123Y-117364750D01*
G37*
X117554123Y-117364750D02*
X117535557Y-117514680D01*
X117516336Y-117631035D01*
X117500919Y-117687817D01*
X117452143Y-117700666D01*
X117336199Y-117708057D01*
X117170440Y-117709448D01*
X116972465Y-117704308D01*
X116727414Y-117697586D01*
X116561755Y-117701160D01*
X116470813Y-117715263D01*
X116449437Y-117730491D01*
X116433705Y-117789128D01*
X116404608Y-117911345D01*
X116366622Y-118077957D01*
X116333163Y-118228849D01*
X116234259Y-118680197D01*
X116393735Y-118552039D01*
X116579860Y-118444727D01*
X116779034Y-118399986D01*
X116972753Y-118415487D01*
X117142510Y-118488902D01*
X117269801Y-118617903D01*
X117296228Y-118665586D01*
X117334830Y-118791834D01*
X117358795Y-118958182D01*
X117363000Y-119055318D01*
X117353936Y-119233982D01*
X117329135Y-119464389D01*
X117292183Y-119726038D01*
X117246666Y-119998429D01*
X117196168Y-120261059D01*
X117144275Y-120493430D01*
X117094574Y-120675039D01*
X117065780Y-120754678D01*
X116922572Y-120991238D01*
X116727989Y-121173620D01*
X116496779Y-121296156D01*
X116243685Y-121353178D01*
X115983453Y-121339018D01*
X115752719Y-121259417D01*
X115576339Y-121138411D01*
X115459228Y-120977905D01*
X115396808Y-120767687D01*
X115384496Y-120497550D01*
X115387083Y-120444500D01*
X115401252Y-120235922D01*
X115420764Y-120097490D01*
X115455868Y-120014826D01*
X115516817Y-119973552D01*
X115613861Y-119959291D01*
X115734174Y-119957667D01*
X116001290Y-119957667D01*
X115994228Y-120304374D01*
X115992253Y-120476252D01*
X115998344Y-120583865D01*
X116017644Y-120647567D01*
X116055296Y-120687708D01*
X116097773Y-120714083D01*
X116237764Y-120752474D01*
X116369514Y-120713357D01*
X116479250Y-120603708D01*
X116534046Y-120493039D01*
X116572445Y-120357392D01*
X116613914Y-120163184D01*
X116654305Y-119936212D01*
X116689469Y-119702275D01*
X116715259Y-119487169D01*
X116727527Y-119316692D01*
X116728000Y-119286841D01*
X116699945Y-119133962D01*
X116626257Y-119037314D01*
X116522644Y-118994776D01*
X116404819Y-119004225D01*
X116288491Y-119063539D01*
X116189372Y-119170596D01*
X116123172Y-119323273D01*
X116113343Y-119369872D01*
X116085557Y-119534334D01*
X115814112Y-119534334D01*
X115665307Y-119531167D01*
X115582752Y-119518231D01*
X115548152Y-119490371D01*
X115542666Y-119457854D01*
X115550589Y-119401913D01*
X115572616Y-119276407D01*
X115606129Y-119094772D01*
X115648514Y-118870440D01*
X115697155Y-118616848D01*
X115749437Y-118347430D01*
X115802743Y-118075621D01*
X115854459Y-117814855D01*
X115901968Y-117578567D01*
X115942656Y-117380192D01*
X115973906Y-117233165D01*
X115987260Y-117174250D01*
X115997412Y-117140883D01*
X116017421Y-117116390D01*
X116058949Y-117099399D01*
X116133663Y-117088539D01*
X116253226Y-117082437D01*
X116429303Y-117079722D01*
X116673558Y-117079023D01*
X116797238Y-117079000D01*
X117584530Y-117079000D01*
X117554123Y-117364750D01*
G36*
X118278174Y-115525967D02*
G01*
X118807743Y-115648963D01*
X119313468Y-115850985D01*
X119790357Y-116130307D01*
X120233416Y-116485206D01*
X120389833Y-116637435D01*
X120740916Y-117056691D01*
X121021596Y-117521056D01*
X121230168Y-118026154D01*
X121364928Y-118567610D01*
X121424172Y-119141047D01*
X121427000Y-119300839D01*
X121385807Y-119820370D01*
X121266328Y-120325810D01*
X121074714Y-120809313D01*
X120817115Y-121263034D01*
X120499681Y-121679127D01*
X120128563Y-122049745D01*
X119709910Y-122367043D01*
X119249875Y-122623174D01*
X118754606Y-122810293D01*
X118654166Y-122838145D01*
X118364053Y-122895492D01*
X118028830Y-122932356D01*
X117679285Y-122947489D01*
X117346203Y-122939645D01*
X117060372Y-122907575D01*
X117038793Y-122903606D01*
X116485898Y-122756907D01*
X115974824Y-122537861D01*
X115509825Y-122249996D01*
X115095151Y-121896840D01*
X114735056Y-121481922D01*
X114433791Y-121008770D01*
X114231470Y-120574363D01*
X114086226Y-120124912D01*
X114002536Y-119654524D01*
X113984096Y-119301500D01*
X114328074Y-119301500D01*
X114392911Y-119855601D01*
X114533359Y-120374404D01*
X114746732Y-120853734D01*
X115030343Y-121289419D01*
X115381506Y-121677286D01*
X115797534Y-122013159D01*
X116243379Y-122276756D01*
X116691247Y-122456556D01*
X117174390Y-122566743D01*
X117677909Y-122605900D01*
X118186904Y-122572611D01*
X118569168Y-122497752D01*
X119026342Y-122338610D01*
X119462546Y-122104721D01*
X119866537Y-121805444D01*
X120227068Y-121450138D01*
X120532894Y-121048161D01*
X120730985Y-120698500D01*
X120874865Y-120373975D01*
X120972604Y-120076497D01*
X121030915Y-119775749D01*
X121056510Y-119441411D01*
X121058987Y-119216834D01*
X121016593Y-118664823D01*
X120897835Y-118148732D01*
X120704100Y-117670960D01*
X120436773Y-117233908D01*
X120097240Y-116839977D01*
X119686888Y-116491566D01*
X119362647Y-116278645D01*
X118911156Y-116060079D01*
X118430138Y-115916220D01*
X117929897Y-115847065D01*
X117420736Y-115852608D01*
X116912958Y-115932844D01*
X116416867Y-116087768D01*
X116008333Y-116280237D01*
X115794437Y-116420575D01*
X115556154Y-116613087D01*
X115313761Y-116838019D01*
X115087533Y-117075614D01*
X114897746Y-117306118D01*
X114786821Y-117470368D01*
X114561130Y-117914232D01*
X114412605Y-118355336D01*
X114336536Y-118812481D01*
X114328074Y-119301500D01*
X113984096Y-119301500D01*
X113976333Y-119152892D01*
X114006320Y-118642383D01*
X114100010Y-118172256D01*
X114262999Y-117724162D01*
X114500880Y-117279752D01*
X114589577Y-117141558D01*
X114934102Y-116697564D01*
X115332244Y-116317979D01*
X115779561Y-116005594D01*
X116271607Y-115763196D01*
X116803941Y-115593574D01*
X117167472Y-115523952D01*
X117729753Y-115483722D01*
X118278174Y-115525967D01*
G37*
X118278174Y-115525967D02*
X118807743Y-115648963D01*
X119313468Y-115850985D01*
X119790357Y-116130307D01*
X120233416Y-116485206D01*
X120389833Y-116637435D01*
X120740916Y-117056691D01*
X121021596Y-117521056D01*
X121230168Y-118026154D01*
X121364928Y-118567610D01*
X121424172Y-119141047D01*
X121427000Y-119300839D01*
X121385807Y-119820370D01*
X121266328Y-120325810D01*
X121074714Y-120809313D01*
X120817115Y-121263034D01*
X120499681Y-121679127D01*
X120128563Y-122049745D01*
X119709910Y-122367043D01*
X119249875Y-122623174D01*
X118754606Y-122810293D01*
X118654166Y-122838145D01*
X118364053Y-122895492D01*
X118028830Y-122932356D01*
X117679285Y-122947489D01*
X117346203Y-122939645D01*
X117060372Y-122907575D01*
X117038793Y-122903606D01*
X116485898Y-122756907D01*
X115974824Y-122537861D01*
X115509825Y-122249996D01*
X115095151Y-121896840D01*
X114735056Y-121481922D01*
X114433791Y-121008770D01*
X114231470Y-120574363D01*
X114086226Y-120124912D01*
X114002536Y-119654524D01*
X113984096Y-119301500D01*
X114328074Y-119301500D01*
X114392911Y-119855601D01*
X114533359Y-120374404D01*
X114746732Y-120853734D01*
X115030343Y-121289419D01*
X115381506Y-121677286D01*
X115797534Y-122013159D01*
X116243379Y-122276756D01*
X116691247Y-122456556D01*
X117174390Y-122566743D01*
X117677909Y-122605900D01*
X118186904Y-122572611D01*
X118569168Y-122497752D01*
X119026342Y-122338610D01*
X119462546Y-122104721D01*
X119866537Y-121805444D01*
X120227068Y-121450138D01*
X120532894Y-121048161D01*
X120730985Y-120698500D01*
X120874865Y-120373975D01*
X120972604Y-120076497D01*
X121030915Y-119775749D01*
X121056510Y-119441411D01*
X121058987Y-119216834D01*
X121016593Y-118664823D01*
X120897835Y-118148732D01*
X120704100Y-117670960D01*
X120436773Y-117233908D01*
X120097240Y-116839977D01*
X119686888Y-116491566D01*
X119362647Y-116278645D01*
X118911156Y-116060079D01*
X118430138Y-115916220D01*
X117929897Y-115847065D01*
X117420736Y-115852608D01*
X116912958Y-115932844D01*
X116416867Y-116087768D01*
X116008333Y-116280237D01*
X115794437Y-116420575D01*
X115556154Y-116613087D01*
X115313761Y-116838019D01*
X115087533Y-117075614D01*
X114897746Y-117306118D01*
X114786821Y-117470368D01*
X114561130Y-117914232D01*
X114412605Y-118355336D01*
X114336536Y-118812481D01*
X114328074Y-119301500D01*
X113984096Y-119301500D01*
X113976333Y-119152892D01*
X114006320Y-118642383D01*
X114100010Y-118172256D01*
X114262999Y-117724162D01*
X114500880Y-117279752D01*
X114589577Y-117141558D01*
X114934102Y-116697564D01*
X115332244Y-116317979D01*
X115779561Y-116005594D01*
X116271607Y-115763196D01*
X116803941Y-115593574D01*
X117167472Y-115523952D01*
X117729753Y-115483722D01*
X118278174Y-115525967D01*
D14*
X165239422Y-121575000D02*
X165756578Y-121575000D01*
X165239422Y-120155000D02*
X165756578Y-120155000D01*
X161739422Y-121575000D02*
X162256578Y-121575000D01*
X161739422Y-120155000D02*
X162256578Y-120155000D01*
X128893000Y-86245000D02*
X130223000Y-86245000D01*
X128893000Y-87575000D02*
X128893000Y-86245000D01*
X128893000Y-88845000D02*
X131553000Y-88845000D01*
X131553000Y-88845000D02*
X131553000Y-93985000D01*
X128893000Y-88845000D02*
X128893000Y-93985000D01*
X128893000Y-93985000D02*
X131553000Y-93985000D01*
X142193522Y-95415727D02*
X142423727Y-95185522D01*
X141472273Y-94694478D02*
X141702478Y-94464273D01*
X151038000Y-88856422D02*
X151038000Y-89373578D01*
X152458000Y-88856422D02*
X152458000Y-89373578D01*
X152458000Y-85873578D02*
X152458000Y-85356422D01*
X151038000Y-85873578D02*
X151038000Y-85356422D01*
X151038000Y-96356422D02*
X151038000Y-96873578D01*
X152458000Y-96356422D02*
X152458000Y-96873578D01*
X152458000Y-93373578D02*
X152458000Y-92856422D01*
X151038000Y-93373578D02*
X151038000Y-92856422D01*
X151038000Y-103856422D02*
X151038000Y-104373578D01*
X152458000Y-103856422D02*
X152458000Y-104373578D01*
X152458000Y-100873578D02*
X152458000Y-100356422D01*
X151038000Y-100873578D02*
X151038000Y-100356422D01*
X151038000Y-111356422D02*
X151038000Y-111873578D01*
X152458000Y-111356422D02*
X152458000Y-111873578D01*
X152458000Y-108373578D02*
X152458000Y-107856422D01*
X151038000Y-108373578D02*
X151038000Y-107856422D01*
X127448000Y-102005000D02*
X124998000Y-102005000D01*
X125648000Y-105225000D02*
X127448000Y-105225000D01*
D13*
X137998000Y-84488476D02*
X137697480Y-84788996D01*
X143124524Y-89615000D02*
X142753293Y-89986231D01*
X137998000Y-94741524D02*
X138369231Y-94370293D01*
X132871476Y-89615000D02*
X133242707Y-89243769D01*
X137998000Y-84488476D02*
X138369231Y-84859707D01*
X132871476Y-89615000D02*
X133242707Y-89986231D01*
X137998000Y-94741524D02*
X137626769Y-94370293D01*
X143124524Y-89615000D02*
X142753293Y-89243769D01*
X137697480Y-84788996D02*
X136725208Y-83816724D01*
D14*
X126289422Y-101575000D02*
X126806578Y-101575000D01*
X126289422Y-100155000D02*
X126806578Y-100155000D01*
X125945936Y-107525000D02*
X127150064Y-107525000D01*
X125945936Y-105705000D02*
X127150064Y-105705000D01*
X157600064Y-88705000D02*
X156395936Y-88705000D01*
X157600064Y-90525000D02*
X156395936Y-90525000D01*
X162848000Y-90515000D02*
X162848000Y-85115000D01*
X166148000Y-90515000D02*
X166148000Y-85115000D01*
X162848000Y-90515000D02*
X166148000Y-90515000D01*
X154458000Y-85873578D02*
X154458000Y-85356422D01*
X153038000Y-85873578D02*
X153038000Y-85356422D01*
X154458000Y-93373578D02*
X154458000Y-92856422D01*
X153038000Y-93373578D02*
X153038000Y-92856422D01*
X154458000Y-100873578D02*
X154458000Y-100356422D01*
X153038000Y-100873578D02*
X153038000Y-100356422D01*
X154458000Y-108373578D02*
X154458000Y-107856422D01*
X153038000Y-108373578D02*
X153038000Y-107856422D01*
X153038000Y-88856422D02*
X153038000Y-89373578D01*
X154458000Y-88856422D02*
X154458000Y-89373578D01*
X153038000Y-96356422D02*
X153038000Y-96873578D01*
X154458000Y-96356422D02*
X154458000Y-96873578D01*
X153038000Y-103856422D02*
X153038000Y-104373578D01*
X154458000Y-103856422D02*
X154458000Y-104373578D01*
X153038000Y-111356422D02*
X153038000Y-111873578D01*
X154458000Y-111356422D02*
X154458000Y-111873578D01*
X158008000Y-86995000D02*
X158008000Y-84565000D01*
X154938000Y-85235000D02*
X154938000Y-86995000D01*
X158008000Y-94495000D02*
X158008000Y-92065000D01*
X154938000Y-92735000D02*
X154938000Y-94495000D01*
X158008000Y-101995000D02*
X158008000Y-99565000D01*
X154938000Y-100235000D02*
X154938000Y-101995000D01*
X158008000Y-109495000D02*
X158008000Y-107065000D01*
X154938000Y-107735000D02*
X154938000Y-109495000D01*
X140248000Y-112845000D02*
X140248000Y-111345000D01*
X140248000Y-111345000D02*
X139978000Y-111345000D01*
X139978000Y-111345000D02*
X139978000Y-108515000D01*
X133348000Y-112845000D02*
X133348000Y-111345000D01*
X133348000Y-111345000D02*
X133618000Y-111345000D01*
X133618000Y-111345000D02*
X133618000Y-110245000D01*
X157600064Y-96205000D02*
X156395936Y-96205000D01*
X157600064Y-98025000D02*
X156395936Y-98025000D01*
X157600064Y-103705000D02*
X156395936Y-103705000D01*
X157600064Y-105525000D02*
X156395936Y-105525000D01*
X157600064Y-111205000D02*
X156395936Y-111205000D01*
X157600064Y-113025000D02*
X156395936Y-113025000D01*
X158398000Y-84115000D02*
X158398000Y-88115000D01*
X162598000Y-84115000D02*
X162598000Y-88115000D01*
X158398000Y-91615000D02*
X158398000Y-95615000D01*
X162598000Y-91615000D02*
X162598000Y-95615000D01*
X158398000Y-99115000D02*
X158398000Y-103115000D01*
X162598000Y-99115000D02*
X162598000Y-103115000D01*
X158398000Y-106615000D02*
X158398000Y-110615000D01*
X162598000Y-106615000D02*
X162598000Y-110615000D01*
X179008000Y-107705000D02*
X179008000Y-91025000D01*
X172788000Y-90325000D02*
X172788000Y-91605000D01*
X171188000Y-90325000D02*
X172788000Y-90325000D01*
X171188000Y-89305000D02*
X171188000Y-90325000D01*
X175438000Y-89305000D02*
X171188000Y-89305000D01*
X172788000Y-107125000D02*
X169898000Y-107125000D01*
X172788000Y-108405000D02*
X172788000Y-107125000D01*
X171188000Y-108405000D02*
X172788000Y-108405000D01*
X171188000Y-109425000D02*
X171188000Y-108405000D01*
X175438000Y-109425000D02*
X171188000Y-109425000D01*
X122098000Y-102265000D02*
X122098000Y-104865000D01*
X107398000Y-102265000D02*
X122098000Y-102265000D01*
X122098000Y-111465000D02*
X120198000Y-111465000D01*
X122098000Y-108765000D02*
X122098000Y-111465000D01*
X107398000Y-111465000D02*
X107398000Y-102265000D01*
X116198000Y-111465000D02*
X107398000Y-111465000D01*
X121248000Y-102065000D02*
X122298000Y-102065000D01*
X122298000Y-103115000D02*
X122298000Y-102065000D01*
X162848000Y-98015000D02*
X162848000Y-92615000D01*
X166148000Y-98015000D02*
X166148000Y-92615000D01*
X162848000Y-98015000D02*
X166148000Y-98015000D01*
X128688000Y-103402221D02*
X128688000Y-103727779D01*
X129708000Y-103402221D02*
X129708000Y-103727779D01*
X141473000Y-114719775D02*
X141973000Y-114719775D01*
X141723000Y-114969775D02*
X141723000Y-114469775D01*
X142914000Y-109564000D02*
X143482000Y-109564000D01*
X142680000Y-109604000D02*
X143716000Y-109604000D01*
X142521000Y-109644000D02*
X143875000Y-109644000D01*
X142393000Y-109684000D02*
X144003000Y-109684000D01*
X142283000Y-109724000D02*
X144113000Y-109724000D01*
X142187000Y-109764000D02*
X144209000Y-109764000D01*
X142100000Y-109804000D02*
X144296000Y-109804000D01*
X142020000Y-109844000D02*
X144376000Y-109844000D01*
X141947000Y-109884000D02*
X144449000Y-109884000D01*
X141879000Y-109924000D02*
X144517000Y-109924000D01*
X141815000Y-109964000D02*
X144581000Y-109964000D01*
X141755000Y-110004000D02*
X144641000Y-110004000D01*
X141698000Y-110044000D02*
X144698000Y-110044000D01*
X141644000Y-110084000D02*
X144752000Y-110084000D01*
X141593000Y-110124000D02*
X144803000Y-110124000D01*
X144238000Y-110164000D02*
X144851000Y-110164000D01*
X141545000Y-110164000D02*
X142158000Y-110164000D01*
X144238000Y-110204000D02*
X144897000Y-110204000D01*
X141499000Y-110204000D02*
X142158000Y-110204000D01*
X144238000Y-110244000D02*
X144941000Y-110244000D01*
X141455000Y-110244000D02*
X142158000Y-110244000D01*
X144238000Y-110284000D02*
X144983000Y-110284000D01*
X141413000Y-110284000D02*
X142158000Y-110284000D01*
X144238000Y-110324000D02*
X145024000Y-110324000D01*
X141372000Y-110324000D02*
X142158000Y-110324000D01*
X144238000Y-110364000D02*
X145062000Y-110364000D01*
X141334000Y-110364000D02*
X142158000Y-110364000D01*
X144238000Y-110404000D02*
X145099000Y-110404000D01*
X141297000Y-110404000D02*
X142158000Y-110404000D01*
X144238000Y-110444000D02*
X145135000Y-110444000D01*
X141261000Y-110444000D02*
X142158000Y-110444000D01*
X144238000Y-110484000D02*
X145169000Y-110484000D01*
X141227000Y-110484000D02*
X142158000Y-110484000D01*
X144238000Y-110524000D02*
X145202000Y-110524000D01*
X141194000Y-110524000D02*
X142158000Y-110524000D01*
X144238000Y-110564000D02*
X145233000Y-110564000D01*
X141163000Y-110564000D02*
X142158000Y-110564000D01*
X144238000Y-110604000D02*
X145263000Y-110604000D01*
X141133000Y-110604000D02*
X142158000Y-110604000D01*
X144238000Y-110644000D02*
X145293000Y-110644000D01*
X141103000Y-110644000D02*
X142158000Y-110644000D01*
X144238000Y-110684000D02*
X145320000Y-110684000D01*
X141076000Y-110684000D02*
X142158000Y-110684000D01*
X144238000Y-110724000D02*
X145347000Y-110724000D01*
X141049000Y-110724000D02*
X142158000Y-110724000D01*
X144238000Y-110764000D02*
X145373000Y-110764000D01*
X141023000Y-110764000D02*
X142158000Y-110764000D01*
X144238000Y-110804000D02*
X145398000Y-110804000D01*
X140998000Y-110804000D02*
X142158000Y-110804000D01*
X144238000Y-110844000D02*
X145422000Y-110844000D01*
X140974000Y-110844000D02*
X142158000Y-110844000D01*
X144238000Y-110884000D02*
X145445000Y-110884000D01*
X140951000Y-110884000D02*
X142158000Y-110884000D01*
X144238000Y-110924000D02*
X145466000Y-110924000D01*
X140930000Y-110924000D02*
X142158000Y-110924000D01*
X144238000Y-110964000D02*
X145488000Y-110964000D01*
X140908000Y-110964000D02*
X142158000Y-110964000D01*
X144238000Y-111004000D02*
X145508000Y-111004000D01*
X140888000Y-111004000D02*
X142158000Y-111004000D01*
X144238000Y-111044000D02*
X145527000Y-111044000D01*
X140869000Y-111044000D02*
X142158000Y-111044000D01*
X144238000Y-111084000D02*
X145546000Y-111084000D01*
X140850000Y-111084000D02*
X142158000Y-111084000D01*
X144238000Y-111124000D02*
X145563000Y-111124000D01*
X140833000Y-111124000D02*
X142158000Y-111124000D01*
X144238000Y-111164000D02*
X145580000Y-111164000D01*
X140816000Y-111164000D02*
X142158000Y-111164000D01*
X144238000Y-111204000D02*
X145596000Y-111204000D01*
X140800000Y-111204000D02*
X142158000Y-111204000D01*
X144238000Y-111244000D02*
X145612000Y-111244000D01*
X140784000Y-111244000D02*
X142158000Y-111244000D01*
X144238000Y-111284000D02*
X145626000Y-111284000D01*
X140770000Y-111284000D02*
X142158000Y-111284000D01*
X144238000Y-111324000D02*
X145640000Y-111324000D01*
X140756000Y-111324000D02*
X142158000Y-111324000D01*
X144238000Y-111364000D02*
X145653000Y-111364000D01*
X140743000Y-111364000D02*
X142158000Y-111364000D01*
X144238000Y-111404000D02*
X145666000Y-111404000D01*
X140730000Y-111404000D02*
X142158000Y-111404000D01*
X144238000Y-111444000D02*
X145678000Y-111444000D01*
X140718000Y-111444000D02*
X142158000Y-111444000D01*
X144238000Y-111485000D02*
X145689000Y-111485000D01*
X140707000Y-111485000D02*
X142158000Y-111485000D01*
X144238000Y-111525000D02*
X145699000Y-111525000D01*
X140697000Y-111525000D02*
X142158000Y-111525000D01*
X144238000Y-111565000D02*
X145709000Y-111565000D01*
X140687000Y-111565000D02*
X142158000Y-111565000D01*
X144238000Y-111605000D02*
X145718000Y-111605000D01*
X140678000Y-111605000D02*
X142158000Y-111605000D01*
X144238000Y-111645000D02*
X145726000Y-111645000D01*
X140670000Y-111645000D02*
X142158000Y-111645000D01*
X144238000Y-111685000D02*
X145734000Y-111685000D01*
X140662000Y-111685000D02*
X142158000Y-111685000D01*
X144238000Y-111725000D02*
X145741000Y-111725000D01*
X140655000Y-111725000D02*
X142158000Y-111725000D01*
X144238000Y-111765000D02*
X145748000Y-111765000D01*
X140648000Y-111765000D02*
X142158000Y-111765000D01*
X144238000Y-111805000D02*
X145754000Y-111805000D01*
X140642000Y-111805000D02*
X142158000Y-111805000D01*
X144238000Y-111845000D02*
X145759000Y-111845000D01*
X140637000Y-111845000D02*
X142158000Y-111845000D01*
X144238000Y-111885000D02*
X145763000Y-111885000D01*
X140633000Y-111885000D02*
X142158000Y-111885000D01*
X144238000Y-111925000D02*
X145767000Y-111925000D01*
X140629000Y-111925000D02*
X142158000Y-111925000D01*
X144238000Y-111965000D02*
X145771000Y-111965000D01*
X140625000Y-111965000D02*
X142158000Y-111965000D01*
X144238000Y-112005000D02*
X145774000Y-112005000D01*
X140622000Y-112005000D02*
X142158000Y-112005000D01*
X144238000Y-112045000D02*
X145776000Y-112045000D01*
X140620000Y-112045000D02*
X142158000Y-112045000D01*
X144238000Y-112085000D02*
X145777000Y-112085000D01*
X140619000Y-112085000D02*
X142158000Y-112085000D01*
X140618000Y-112125000D02*
X142158000Y-112125000D01*
X144238000Y-112125000D02*
X145778000Y-112125000D01*
X140618000Y-112165000D02*
X142158000Y-112165000D01*
X144238000Y-112165000D02*
X145778000Y-112165000D01*
X145818000Y-112165000D02*
G75*
G03X145818000Y-112165000I-2620000J0D01*
G01*
X136585221Y-107875000D02*
X136910779Y-107875000D01*
X136585221Y-106855000D02*
X136910779Y-106855000D01*
X145818000Y-106365000D02*
G75*
G03X145818000Y-106365000I-2620000J0D01*
G01*
X144238000Y-106365000D02*
X145778000Y-106365000D01*
X140618000Y-106365000D02*
X142158000Y-106365000D01*
X144238000Y-106325000D02*
X145778000Y-106325000D01*
X140618000Y-106325000D02*
X142158000Y-106325000D01*
X140619000Y-106285000D02*
X142158000Y-106285000D01*
X144238000Y-106285000D02*
X145777000Y-106285000D01*
X140620000Y-106245000D02*
X142158000Y-106245000D01*
X144238000Y-106245000D02*
X145776000Y-106245000D01*
X140622000Y-106205000D02*
X142158000Y-106205000D01*
X144238000Y-106205000D02*
X145774000Y-106205000D01*
X140625000Y-106165000D02*
X142158000Y-106165000D01*
X144238000Y-106165000D02*
X145771000Y-106165000D01*
X140629000Y-106125000D02*
X142158000Y-106125000D01*
X144238000Y-106125000D02*
X145767000Y-106125000D01*
X140633000Y-106085000D02*
X142158000Y-106085000D01*
X144238000Y-106085000D02*
X145763000Y-106085000D01*
X140637000Y-106045000D02*
X142158000Y-106045000D01*
X144238000Y-106045000D02*
X145759000Y-106045000D01*
X140642000Y-106005000D02*
X142158000Y-106005000D01*
X144238000Y-106005000D02*
X145754000Y-106005000D01*
X140648000Y-105965000D02*
X142158000Y-105965000D01*
X144238000Y-105965000D02*
X145748000Y-105965000D01*
X140655000Y-105925000D02*
X142158000Y-105925000D01*
X144238000Y-105925000D02*
X145741000Y-105925000D01*
X140662000Y-105885000D02*
X142158000Y-105885000D01*
X144238000Y-105885000D02*
X145734000Y-105885000D01*
X140670000Y-105845000D02*
X142158000Y-105845000D01*
X144238000Y-105845000D02*
X145726000Y-105845000D01*
X140678000Y-105805000D02*
X142158000Y-105805000D01*
X144238000Y-105805000D02*
X145718000Y-105805000D01*
X140687000Y-105765000D02*
X142158000Y-105765000D01*
X144238000Y-105765000D02*
X145709000Y-105765000D01*
X140697000Y-105725000D02*
X142158000Y-105725000D01*
X144238000Y-105725000D02*
X145699000Y-105725000D01*
X140707000Y-105685000D02*
X142158000Y-105685000D01*
X144238000Y-105685000D02*
X145689000Y-105685000D01*
X140718000Y-105644000D02*
X142158000Y-105644000D01*
X144238000Y-105644000D02*
X145678000Y-105644000D01*
X140730000Y-105604000D02*
X142158000Y-105604000D01*
X144238000Y-105604000D02*
X145666000Y-105604000D01*
X140743000Y-105564000D02*
X142158000Y-105564000D01*
X144238000Y-105564000D02*
X145653000Y-105564000D01*
X140756000Y-105524000D02*
X142158000Y-105524000D01*
X144238000Y-105524000D02*
X145640000Y-105524000D01*
X140770000Y-105484000D02*
X142158000Y-105484000D01*
X144238000Y-105484000D02*
X145626000Y-105484000D01*
X140784000Y-105444000D02*
X142158000Y-105444000D01*
X144238000Y-105444000D02*
X145612000Y-105444000D01*
X140800000Y-105404000D02*
X142158000Y-105404000D01*
X144238000Y-105404000D02*
X145596000Y-105404000D01*
X140816000Y-105364000D02*
X142158000Y-105364000D01*
X144238000Y-105364000D02*
X145580000Y-105364000D01*
X140833000Y-105324000D02*
X142158000Y-105324000D01*
X144238000Y-105324000D02*
X145563000Y-105324000D01*
X140850000Y-105284000D02*
X142158000Y-105284000D01*
X144238000Y-105284000D02*
X145546000Y-105284000D01*
X140869000Y-105244000D02*
X142158000Y-105244000D01*
X144238000Y-105244000D02*
X145527000Y-105244000D01*
X140888000Y-105204000D02*
X142158000Y-105204000D01*
X144238000Y-105204000D02*
X145508000Y-105204000D01*
X140908000Y-105164000D02*
X142158000Y-105164000D01*
X144238000Y-105164000D02*
X145488000Y-105164000D01*
X140930000Y-105124000D02*
X142158000Y-105124000D01*
X144238000Y-105124000D02*
X145466000Y-105124000D01*
X140951000Y-105084000D02*
X142158000Y-105084000D01*
X144238000Y-105084000D02*
X145445000Y-105084000D01*
X140974000Y-105044000D02*
X142158000Y-105044000D01*
X144238000Y-105044000D02*
X145422000Y-105044000D01*
X140998000Y-105004000D02*
X142158000Y-105004000D01*
X144238000Y-105004000D02*
X145398000Y-105004000D01*
X141023000Y-104964000D02*
X142158000Y-104964000D01*
X144238000Y-104964000D02*
X145373000Y-104964000D01*
X141049000Y-104924000D02*
X142158000Y-104924000D01*
X144238000Y-104924000D02*
X145347000Y-104924000D01*
X141076000Y-104884000D02*
X142158000Y-104884000D01*
X144238000Y-104884000D02*
X145320000Y-104884000D01*
X141103000Y-104844000D02*
X142158000Y-104844000D01*
X144238000Y-104844000D02*
X145293000Y-104844000D01*
X141133000Y-104804000D02*
X142158000Y-104804000D01*
X144238000Y-104804000D02*
X145263000Y-104804000D01*
X141163000Y-104764000D02*
X142158000Y-104764000D01*
X144238000Y-104764000D02*
X145233000Y-104764000D01*
X141194000Y-104724000D02*
X142158000Y-104724000D01*
X144238000Y-104724000D02*
X145202000Y-104724000D01*
X141227000Y-104684000D02*
X142158000Y-104684000D01*
X144238000Y-104684000D02*
X145169000Y-104684000D01*
X141261000Y-104644000D02*
X142158000Y-104644000D01*
X144238000Y-104644000D02*
X145135000Y-104644000D01*
X141297000Y-104604000D02*
X142158000Y-104604000D01*
X144238000Y-104604000D02*
X145099000Y-104604000D01*
X141334000Y-104564000D02*
X142158000Y-104564000D01*
X144238000Y-104564000D02*
X145062000Y-104564000D01*
X141372000Y-104524000D02*
X142158000Y-104524000D01*
X144238000Y-104524000D02*
X145024000Y-104524000D01*
X141413000Y-104484000D02*
X142158000Y-104484000D01*
X144238000Y-104484000D02*
X144983000Y-104484000D01*
X141455000Y-104444000D02*
X142158000Y-104444000D01*
X144238000Y-104444000D02*
X144941000Y-104444000D01*
X141499000Y-104404000D02*
X142158000Y-104404000D01*
X144238000Y-104404000D02*
X144897000Y-104404000D01*
X141545000Y-104364000D02*
X142158000Y-104364000D01*
X144238000Y-104364000D02*
X144851000Y-104364000D01*
X141593000Y-104324000D02*
X144803000Y-104324000D01*
X141644000Y-104284000D02*
X144752000Y-104284000D01*
X141698000Y-104244000D02*
X144698000Y-104244000D01*
X141755000Y-104204000D02*
X144641000Y-104204000D01*
X141815000Y-104164000D02*
X144581000Y-104164000D01*
X141879000Y-104124000D02*
X144517000Y-104124000D01*
X141947000Y-104084000D02*
X144449000Y-104084000D01*
X142020000Y-104044000D02*
X144376000Y-104044000D01*
X142100000Y-104004000D02*
X144296000Y-104004000D01*
X142187000Y-103964000D02*
X144209000Y-103964000D01*
X142283000Y-103924000D02*
X144113000Y-103924000D01*
X142393000Y-103884000D02*
X144003000Y-103884000D01*
X142521000Y-103844000D02*
X143875000Y-103844000D01*
X142680000Y-103804000D02*
X143716000Y-103804000D01*
X142914000Y-103764000D02*
X143482000Y-103764000D01*
X141723000Y-109169775D02*
X141723000Y-108669775D01*
X141473000Y-108919775D02*
X141973000Y-108919775D01*
D13*
X137388000Y-122275000D02*
X137388000Y-125375000D01*
X138938000Y-122275000D02*
X137388000Y-122275000D01*
X140208000Y-125095000D02*
X140208000Y-122555000D01*
X137388000Y-125375000D02*
X138938000Y-125375000D01*
X157988000Y-122555000D02*
X140208000Y-122555000D01*
X157988000Y-125095000D02*
X157988000Y-122555000D01*
X140208000Y-125095000D02*
X157988000Y-125095000D01*
X160248000Y-122275000D02*
X160248000Y-125375000D01*
X161798000Y-122275000D02*
X160248000Y-122275000D01*
X163068000Y-125095000D02*
X163068000Y-122555000D01*
X160248000Y-125375000D02*
X161798000Y-125375000D01*
X175768000Y-122555000D02*
X163068000Y-122555000D01*
X175768000Y-125095000D02*
X175768000Y-122555000D01*
X163068000Y-125095000D02*
X175768000Y-125095000D01*
X128244000Y-74015000D02*
X128244000Y-77115000D01*
X129794000Y-74015000D02*
X128244000Y-74015000D01*
X131064000Y-76835000D02*
X131064000Y-74295000D01*
X128244000Y-77115000D02*
X129794000Y-77115000D01*
X153924000Y-74295000D02*
X131064000Y-74295000D01*
X153924000Y-76835000D02*
X153924000Y-74295000D01*
X131064000Y-76835000D02*
X153924000Y-76835000D01*
X155168000Y-74015000D02*
X155168000Y-77115000D01*
X156718000Y-74015000D02*
X155168000Y-74015000D01*
X157988000Y-76835000D02*
X157988000Y-74295000D01*
X155168000Y-77115000D02*
X156718000Y-77115000D01*
X175768000Y-74295000D02*
X157988000Y-74295000D01*
X175768000Y-76835000D02*
X175768000Y-74295000D01*
X157988000Y-76835000D02*
X175768000Y-76835000D01*
X127254000Y-123825000D02*
G75*
G03X127254000Y-123825000I-2286000J0D01*
G01*
X128524000Y-75565000D02*
G75*
G03X128524000Y-75565000I-2286000J0D01*
G01*
X162950380Y-102853095D02*
X161950380Y-102853095D01*
X161950380Y-102615000D01*
X161998000Y-102472142D01*
X162093238Y-102376904D01*
X162188476Y-102329285D01*
X162378952Y-102281666D01*
X162521809Y-102281666D01*
X162712285Y-102329285D01*
X162807523Y-102376904D01*
X162902761Y-102472142D01*
X162950380Y-102615000D01*
X162950380Y-102853095D01*
X162045619Y-101900714D02*
X161998000Y-101853095D01*
X161950380Y-101757857D01*
X161950380Y-101519761D01*
X161998000Y-101424523D01*
X162045619Y-101376904D01*
X162140857Y-101329285D01*
X162236095Y-101329285D01*
X162378952Y-101376904D01*
X162950380Y-101948333D01*
X162950380Y-101329285D01*
X162950380Y-110353095D02*
X161950380Y-110353095D01*
X161950380Y-110115000D01*
X161998000Y-109972142D01*
X162093238Y-109876904D01*
X162188476Y-109829285D01*
X162378952Y-109781666D01*
X162521809Y-109781666D01*
X162712285Y-109829285D01*
X162807523Y-109876904D01*
X162902761Y-109972142D01*
X162950380Y-110115000D01*
X162950380Y-110353095D01*
X162950380Y-108829285D02*
X162950380Y-109400714D01*
X162950380Y-109115000D02*
X161950380Y-109115000D01*
X162093238Y-109210238D01*
X162188476Y-109305476D01*
X162236095Y-109400714D01*
X160831333Y-87822142D02*
X160783714Y-87869761D01*
X160640857Y-87917380D01*
X160545619Y-87917380D01*
X160402761Y-87869761D01*
X160307523Y-87774523D01*
X160259904Y-87679285D01*
X160212285Y-87488809D01*
X160212285Y-87345952D01*
X160259904Y-87155476D01*
X160307523Y-87060238D01*
X160402761Y-86965000D01*
X160545619Y-86917380D01*
X160640857Y-86917380D01*
X160783714Y-86965000D01*
X160831333Y-87012619D01*
X161688476Y-87250714D02*
X161688476Y-87917380D01*
X161450380Y-86869761D02*
X161212285Y-87584047D01*
X161831333Y-87584047D01*
X160831333Y-95322142D02*
X160783714Y-95369761D01*
X160640857Y-95417380D01*
X160545619Y-95417380D01*
X160402761Y-95369761D01*
X160307523Y-95274523D01*
X160259904Y-95179285D01*
X160212285Y-94988809D01*
X160212285Y-94845952D01*
X160259904Y-94655476D01*
X160307523Y-94560238D01*
X160402761Y-94465000D01*
X160545619Y-94417380D01*
X160640857Y-94417380D01*
X160783714Y-94465000D01*
X160831333Y-94512619D01*
X161164666Y-94417380D02*
X161783714Y-94417380D01*
X161450380Y-94798333D01*
X161593238Y-94798333D01*
X161688476Y-94845952D01*
X161736095Y-94893571D01*
X161783714Y-94988809D01*
X161783714Y-95226904D01*
X161736095Y-95322142D01*
X161688476Y-95369761D01*
X161593238Y-95417380D01*
X161307523Y-95417380D01*
X161212285Y-95369761D01*
X161164666Y-95322142D01*
X160831333Y-102822142D02*
X160783714Y-102869761D01*
X160640857Y-102917380D01*
X160545619Y-102917380D01*
X160402761Y-102869761D01*
X160307523Y-102774523D01*
X160259904Y-102679285D01*
X160212285Y-102488809D01*
X160212285Y-102345952D01*
X160259904Y-102155476D01*
X160307523Y-102060238D01*
X160402761Y-101965000D01*
X160545619Y-101917380D01*
X160640857Y-101917380D01*
X160783714Y-101965000D01*
X160831333Y-102012619D01*
X161212285Y-102012619D02*
X161259904Y-101965000D01*
X161355142Y-101917380D01*
X161593238Y-101917380D01*
X161688476Y-101965000D01*
X161736095Y-102012619D01*
X161783714Y-102107857D01*
X161783714Y-102203095D01*
X161736095Y-102345952D01*
X161164666Y-102917380D01*
X161783714Y-102917380D01*
X160831333Y-110322142D02*
X160783714Y-110369761D01*
X160640857Y-110417380D01*
X160545619Y-110417380D01*
X160402761Y-110369761D01*
X160307523Y-110274523D01*
X160259904Y-110179285D01*
X160212285Y-109988809D01*
X160212285Y-109845952D01*
X160259904Y-109655476D01*
X160307523Y-109560238D01*
X160402761Y-109465000D01*
X160545619Y-109417380D01*
X160640857Y-109417380D01*
X160783714Y-109465000D01*
X160831333Y-109512619D01*
X161783714Y-110417380D02*
X161212285Y-110417380D01*
X161498000Y-110417380D02*
X161498000Y-109417380D01*
X161402761Y-109560238D01*
X161307523Y-109655476D01*
X161212285Y-109703095D01*
X115964666Y-72117380D02*
X115631333Y-71641190D01*
X115393238Y-72117380D02*
X115393238Y-71117380D01*
X115774190Y-71117380D01*
X115869428Y-71165000D01*
X115917047Y-71212619D01*
X115964666Y-71307857D01*
X115964666Y-71450714D01*
X115917047Y-71545952D01*
X115869428Y-71593571D01*
X115774190Y-71641190D01*
X115393238Y-71641190D01*
X116393238Y-71593571D02*
X116726571Y-71593571D01*
X116869428Y-72117380D02*
X116393238Y-72117380D01*
X116393238Y-71117380D01*
X116869428Y-71117380D01*
X117631333Y-71593571D02*
X117298000Y-71593571D01*
X117298000Y-72117380D02*
X117298000Y-71117380D01*
X117774190Y-71117380D01*
X118298000Y-71117380D02*
X118298000Y-71355476D01*
X118059904Y-71260238D02*
X118298000Y-71355476D01*
X118536095Y-71260238D01*
X118155142Y-71545952D02*
X118298000Y-71355476D01*
X118440857Y-71545952D01*
X119059904Y-71117380D02*
X119059904Y-71355476D01*
X118821809Y-71260238D02*
X119059904Y-71355476D01*
X119298000Y-71260238D01*
X118917047Y-71545952D02*
X119059904Y-71355476D01*
X119202761Y-71545952D01*
X129889666Y-84697380D02*
X129889666Y-85411666D01*
X129842047Y-85554523D01*
X129746809Y-85649761D01*
X129603952Y-85697380D01*
X129508714Y-85697380D01*
X130270619Y-84697380D02*
X130889666Y-84697380D01*
X130556333Y-85078333D01*
X130699190Y-85078333D01*
X130794428Y-85125952D01*
X130842047Y-85173571D01*
X130889666Y-85268809D01*
X130889666Y-85506904D01*
X130842047Y-85602142D01*
X130794428Y-85649761D01*
X130699190Y-85697380D01*
X130413476Y-85697380D01*
X130318238Y-85649761D01*
X130270619Y-85602142D01*
X140734806Y-94635943D02*
X140734806Y-94703287D01*
X140667462Y-94837974D01*
X140600119Y-94905317D01*
X140465432Y-94972661D01*
X140330745Y-94972661D01*
X140229730Y-94938989D01*
X140061371Y-94837974D01*
X139960356Y-94736959D01*
X139859340Y-94568600D01*
X139825669Y-94467585D01*
X139825669Y-94332898D01*
X139893012Y-94198211D01*
X139960356Y-94130867D01*
X140095043Y-94063524D01*
X140162386Y-94063524D01*
X141475585Y-94029852D02*
X141071524Y-94433913D01*
X141273554Y-94231882D02*
X140566447Y-93524775D01*
X140600119Y-93693134D01*
X140600119Y-93827821D01*
X140566447Y-93928837D01*
X141004180Y-93087043D02*
X141441913Y-92649310D01*
X141475585Y-93154386D01*
X141576600Y-93053371D01*
X141677615Y-93019699D01*
X141744959Y-93019699D01*
X141845974Y-93053371D01*
X142014333Y-93221730D01*
X142048004Y-93322745D01*
X142048004Y-93390088D01*
X142014333Y-93491104D01*
X141812302Y-93693134D01*
X141711287Y-93726806D01*
X141643943Y-93726806D01*
X122950380Y-104626904D02*
X123759904Y-104626904D01*
X123855142Y-104579285D01*
X123902761Y-104531666D01*
X123950380Y-104436428D01*
X123950380Y-104245952D01*
X123902761Y-104150714D01*
X123855142Y-104103095D01*
X123759904Y-104055476D01*
X122950380Y-104055476D01*
X122950380Y-103674523D02*
X122950380Y-103007857D01*
X123950380Y-103436428D01*
X142089118Y-84446385D02*
X141516698Y-85018805D01*
X141483026Y-85119820D01*
X141483026Y-85187164D01*
X141516698Y-85288179D01*
X141651385Y-85422866D01*
X141752400Y-85456538D01*
X141819744Y-85456538D01*
X141920759Y-85422866D01*
X142493179Y-84850446D01*
X143132942Y-85490210D02*
X142998255Y-85355523D01*
X142897240Y-85321851D01*
X142829896Y-85321851D01*
X142661537Y-85355523D01*
X142493179Y-85456538D01*
X142223805Y-85725912D01*
X142190133Y-85826927D01*
X142190133Y-85894271D01*
X142223805Y-85995286D01*
X142358492Y-86129973D01*
X142459507Y-86163645D01*
X142526850Y-86163645D01*
X142627866Y-86129973D01*
X142796224Y-85961614D01*
X142829896Y-85860599D01*
X142829896Y-85793255D01*
X142796224Y-85692240D01*
X142661537Y-85557553D01*
X142560522Y-85523881D01*
X142493179Y-85523881D01*
X142392163Y-85557553D01*
X125905142Y-99667380D02*
X125571809Y-99191190D01*
X125333714Y-99667380D02*
X125333714Y-98667380D01*
X125714666Y-98667380D01*
X125809904Y-98715000D01*
X125857523Y-98762619D01*
X125905142Y-98857857D01*
X125905142Y-99000714D01*
X125857523Y-99095952D01*
X125809904Y-99143571D01*
X125714666Y-99191190D01*
X125333714Y-99191190D01*
X126857523Y-99667380D02*
X126286095Y-99667380D01*
X126571809Y-99667380D02*
X126571809Y-98667380D01*
X126476571Y-98810238D01*
X126381333Y-98905476D01*
X126286095Y-98953095D01*
X127476571Y-98667380D02*
X127571809Y-98667380D01*
X127667047Y-98715000D01*
X127714666Y-98762619D01*
X127762285Y-98857857D01*
X127809904Y-99048333D01*
X127809904Y-99286428D01*
X127762285Y-99476904D01*
X127714666Y-99572142D01*
X127667047Y-99619761D01*
X127571809Y-99667380D01*
X127476571Y-99667380D01*
X127381333Y-99619761D01*
X127333714Y-99572142D01*
X127286095Y-99476904D01*
X127238476Y-99286428D01*
X127238476Y-99048333D01*
X127286095Y-98857857D01*
X127333714Y-98762619D01*
X127381333Y-98715000D01*
X127476571Y-98667380D01*
X126381333Y-108817380D02*
X126048000Y-108341190D01*
X125809904Y-108817380D02*
X125809904Y-107817380D01*
X126190857Y-107817380D01*
X126286095Y-107865000D01*
X126333714Y-107912619D01*
X126381333Y-108007857D01*
X126381333Y-108150714D01*
X126333714Y-108245952D01*
X126286095Y-108293571D01*
X126190857Y-108341190D01*
X125809904Y-108341190D01*
X126857523Y-108817380D02*
X127048000Y-108817380D01*
X127143238Y-108769761D01*
X127190857Y-108722142D01*
X127286095Y-108579285D01*
X127333714Y-108388809D01*
X127333714Y-108007857D01*
X127286095Y-107912619D01*
X127238476Y-107865000D01*
X127143238Y-107817380D01*
X126952761Y-107817380D01*
X126857523Y-107865000D01*
X126809904Y-107912619D01*
X126762285Y-108007857D01*
X126762285Y-108245952D01*
X126809904Y-108341190D01*
X126857523Y-108388809D01*
X126952761Y-108436428D01*
X127143238Y-108436428D01*
X127238476Y-108388809D01*
X127286095Y-108341190D01*
X127333714Y-108245952D01*
X131950380Y-111126904D02*
X132759904Y-111126904D01*
X132855142Y-111079285D01*
X132902761Y-111031666D01*
X132950380Y-110936428D01*
X132950380Y-110745952D01*
X132902761Y-110650714D01*
X132855142Y-110603095D01*
X132759904Y-110555476D01*
X131950380Y-110555476D01*
X131950380Y-109603095D02*
X131950380Y-110079285D01*
X132426571Y-110126904D01*
X132378952Y-110079285D01*
X132331333Y-109984047D01*
X132331333Y-109745952D01*
X132378952Y-109650714D01*
X132426571Y-109603095D01*
X132521809Y-109555476D01*
X132759904Y-109555476D01*
X132855142Y-109603095D01*
X132902761Y-109650714D01*
X132950380Y-109745952D01*
X132950380Y-109984047D01*
X132902761Y-110079285D01*
X132855142Y-110126904D01*
X112414666Y-112067380D02*
X112414666Y-112781666D01*
X112367047Y-112924523D01*
X112271809Y-113019761D01*
X112128952Y-113067380D01*
X112033714Y-113067380D01*
X112843238Y-112162619D02*
X112890857Y-112115000D01*
X112986095Y-112067380D01*
X113224190Y-112067380D01*
X113319428Y-112115000D01*
X113367047Y-112162619D01*
X113414666Y-112257857D01*
X113414666Y-112353095D01*
X113367047Y-112495952D01*
X112795619Y-113067380D01*
X113414666Y-113067380D01*
X130985142Y-103731666D02*
X131032761Y-103779285D01*
X131080380Y-103922142D01*
X131080380Y-104017380D01*
X131032761Y-104160238D01*
X130937523Y-104255476D01*
X130842285Y-104303095D01*
X130651809Y-104350714D01*
X130508952Y-104350714D01*
X130318476Y-104303095D01*
X130223238Y-104255476D01*
X130128000Y-104160238D01*
X130080380Y-104017380D01*
X130080380Y-103922142D01*
X130128000Y-103779285D01*
X130175619Y-103731666D01*
X130508952Y-103160238D02*
X130461333Y-103255476D01*
X130413714Y-103303095D01*
X130318476Y-103350714D01*
X130270857Y-103350714D01*
X130175619Y-103303095D01*
X130128000Y-103255476D01*
X130080380Y-103160238D01*
X130080380Y-102969761D01*
X130128000Y-102874523D01*
X130175619Y-102826904D01*
X130270857Y-102779285D01*
X130318476Y-102779285D01*
X130413714Y-102826904D01*
X130461333Y-102874523D01*
X130508952Y-102969761D01*
X130508952Y-103160238D01*
X130556571Y-103255476D01*
X130604190Y-103303095D01*
X130699428Y-103350714D01*
X130889904Y-103350714D01*
X130985142Y-103303095D01*
X131032761Y-103255476D01*
X131080380Y-103160238D01*
X131080380Y-102969761D01*
X131032761Y-102874523D01*
X130985142Y-102826904D01*
X130889904Y-102779285D01*
X130699428Y-102779285D01*
X130604190Y-102826904D01*
X130556571Y-102874523D01*
X130508952Y-102969761D01*
X139805142Y-112331666D02*
X139852761Y-112379285D01*
X139900380Y-112522142D01*
X139900380Y-112617380D01*
X139852761Y-112760238D01*
X139757523Y-112855476D01*
X139662285Y-112903095D01*
X139471809Y-112950714D01*
X139328952Y-112950714D01*
X139138476Y-112903095D01*
X139043238Y-112855476D01*
X138948000Y-112760238D01*
X138900380Y-112617380D01*
X138900380Y-112522142D01*
X138948000Y-112379285D01*
X138995619Y-112331666D01*
X138900380Y-111998333D02*
X138900380Y-111331666D01*
X139900380Y-111760238D01*
X136581333Y-106292142D02*
X136533714Y-106339761D01*
X136390857Y-106387380D01*
X136295619Y-106387380D01*
X136152761Y-106339761D01*
X136057523Y-106244523D01*
X136009904Y-106149285D01*
X135962285Y-105958809D01*
X135962285Y-105815952D01*
X136009904Y-105625476D01*
X136057523Y-105530238D01*
X136152761Y-105435000D01*
X136295619Y-105387380D01*
X136390857Y-105387380D01*
X136533714Y-105435000D01*
X136581333Y-105482619D01*
X137438476Y-105387380D02*
X137248000Y-105387380D01*
X137152761Y-105435000D01*
X137105142Y-105482619D01*
X137009904Y-105625476D01*
X136962285Y-105815952D01*
X136962285Y-106196904D01*
X137009904Y-106292142D01*
X137057523Y-106339761D01*
X137152761Y-106387380D01*
X137343238Y-106387380D01*
X137438476Y-106339761D01*
X137486095Y-106292142D01*
X137533714Y-106196904D01*
X137533714Y-105958809D01*
X137486095Y-105863571D01*
X137438476Y-105815952D01*
X137343238Y-105768333D01*
X137152761Y-105768333D01*
X137057523Y-105815952D01*
X137009904Y-105863571D01*
X136962285Y-105958809D01*
X139805142Y-106531666D02*
X139852761Y-106579285D01*
X139900380Y-106722142D01*
X139900380Y-106817380D01*
X139852761Y-106960238D01*
X139757523Y-107055476D01*
X139662285Y-107103095D01*
X139471809Y-107150714D01*
X139328952Y-107150714D01*
X139138476Y-107103095D01*
X139043238Y-107055476D01*
X138948000Y-106960238D01*
X138900380Y-106817380D01*
X138900380Y-106722142D01*
X138948000Y-106579285D01*
X138995619Y-106531666D01*
X138900380Y-105626904D02*
X138900380Y-106103095D01*
X139376571Y-106150714D01*
X139328952Y-106103095D01*
X139281333Y-106007857D01*
X139281333Y-105769761D01*
X139328952Y-105674523D01*
X139376571Y-105626904D01*
X139471809Y-105579285D01*
X139709904Y-105579285D01*
X139805142Y-105626904D01*
X139852761Y-105674523D01*
X139900380Y-105769761D01*
X139900380Y-106007857D01*
X139852761Y-106103095D01*
X139805142Y-106150714D01*
M02*
