G04 #@! TF.GenerationSoftware,KiCad,Pcbnew,(5.1.5)-3*
G04 #@! TF.CreationDate,2020-05-05T12:11:31+02:00*
G04 #@! TF.ProjectId,led_board,6c65645f-626f-4617-9264-2e6b69636164,rev?*
G04 #@! TF.SameCoordinates,Original*
G04 #@! TF.FileFunction,Soldermask,Top*
G04 #@! TF.FilePolarity,Negative*
%FSLAX46Y46*%
G04 Gerber Fmt 4.6, Leading zero omitted, Abs format (unit mm)*
G04 Created by KiCad (PCBNEW (5.1.5)-3) date 2020-05-05 12:11:31*
%MOMM*%
%LPD*%
G04 APERTURE LIST*
%ADD10C,0.100000*%
G04 APERTURE END LIST*
D10*
G36*
X280003048Y-156153122D02*
G01*
X280037387Y-156163539D01*
X280069036Y-156180456D01*
X280096778Y-156203222D01*
X280119544Y-156230964D01*
X280136461Y-156262613D01*
X280146878Y-156296952D01*
X280151000Y-156338807D01*
X280151000Y-159461193D01*
X280146878Y-159503048D01*
X280136461Y-159537387D01*
X280119544Y-159569036D01*
X280096778Y-159596778D01*
X280069036Y-159619544D01*
X280037387Y-159636461D01*
X280003048Y-159646878D01*
X279961193Y-159651000D01*
X278738807Y-159651000D01*
X278696952Y-159646878D01*
X278662613Y-159636461D01*
X278630964Y-159619544D01*
X278603222Y-159596778D01*
X278580456Y-159569036D01*
X278563539Y-159537387D01*
X278553122Y-159503048D01*
X278549000Y-159461193D01*
X278549000Y-156338807D01*
X278553122Y-156296952D01*
X278563539Y-156262613D01*
X278580456Y-156230964D01*
X278603222Y-156203222D01*
X278630964Y-156180456D01*
X278662613Y-156163539D01*
X278696952Y-156153122D01*
X278738807Y-156149000D01*
X279961193Y-156149000D01*
X280003048Y-156153122D01*
G37*
G36*
X261303048Y-156153122D02*
G01*
X261337387Y-156163539D01*
X261369036Y-156180456D01*
X261396778Y-156203222D01*
X261419544Y-156230964D01*
X261436461Y-156262613D01*
X261446878Y-156296952D01*
X261451000Y-156338807D01*
X261451000Y-159461193D01*
X261446878Y-159503048D01*
X261436461Y-159537387D01*
X261419544Y-159569036D01*
X261396778Y-159596778D01*
X261369036Y-159619544D01*
X261337387Y-159636461D01*
X261303048Y-159646878D01*
X261261193Y-159651000D01*
X260038807Y-159651000D01*
X259996952Y-159646878D01*
X259962613Y-159636461D01*
X259930964Y-159619544D01*
X259903222Y-159596778D01*
X259880456Y-159569036D01*
X259863539Y-159537387D01*
X259853122Y-159503048D01*
X259849000Y-159461193D01*
X259849000Y-156338807D01*
X259853122Y-156296952D01*
X259863539Y-156262613D01*
X259880456Y-156230964D01*
X259903222Y-156203222D01*
X259930964Y-156180456D01*
X259962613Y-156163539D01*
X259996952Y-156153122D01*
X260038807Y-156149000D01*
X261261193Y-156149000D01*
X261303048Y-156153122D01*
G37*
G36*
X221303048Y-156153122D02*
G01*
X221337387Y-156163539D01*
X221369036Y-156180456D01*
X221396778Y-156203222D01*
X221419544Y-156230964D01*
X221436461Y-156262613D01*
X221446878Y-156296952D01*
X221451000Y-156338807D01*
X221451000Y-159461193D01*
X221446878Y-159503048D01*
X221436461Y-159537387D01*
X221419544Y-159569036D01*
X221396778Y-159596778D01*
X221369036Y-159619544D01*
X221337387Y-159636461D01*
X221303048Y-159646878D01*
X221261193Y-159651000D01*
X220038807Y-159651000D01*
X219996952Y-159646878D01*
X219962613Y-159636461D01*
X219930964Y-159619544D01*
X219903222Y-159596778D01*
X219880456Y-159569036D01*
X219863539Y-159537387D01*
X219853122Y-159503048D01*
X219849000Y-159461193D01*
X219849000Y-156338807D01*
X219853122Y-156296952D01*
X219863539Y-156262613D01*
X219880456Y-156230964D01*
X219903222Y-156203222D01*
X219930964Y-156180456D01*
X219962613Y-156163539D01*
X219996952Y-156153122D01*
X220038807Y-156149000D01*
X221261193Y-156149000D01*
X221303048Y-156153122D01*
G37*
G36*
X240003048Y-156153122D02*
G01*
X240037387Y-156163539D01*
X240069036Y-156180456D01*
X240096778Y-156203222D01*
X240119544Y-156230964D01*
X240136461Y-156262613D01*
X240146878Y-156296952D01*
X240151000Y-156338807D01*
X240151000Y-159461193D01*
X240146878Y-159503048D01*
X240136461Y-159537387D01*
X240119544Y-159569036D01*
X240096778Y-159596778D01*
X240069036Y-159619544D01*
X240037387Y-159636461D01*
X240003048Y-159646878D01*
X239961193Y-159651000D01*
X238738807Y-159651000D01*
X238696952Y-159646878D01*
X238662613Y-159636461D01*
X238630964Y-159619544D01*
X238603222Y-159596778D01*
X238580456Y-159569036D01*
X238563539Y-159537387D01*
X238553122Y-159503048D01*
X238549000Y-159461193D01*
X238549000Y-156338807D01*
X238553122Y-156296952D01*
X238563539Y-156262613D01*
X238580456Y-156230964D01*
X238603222Y-156203222D01*
X238630964Y-156180456D01*
X238662613Y-156163539D01*
X238696952Y-156153122D01*
X238738807Y-156149000D01*
X239961193Y-156149000D01*
X240003048Y-156153122D01*
G37*
G36*
X295634239Y-151811467D02*
G01*
X295948282Y-151873934D01*
X296539926Y-152119001D01*
X297072392Y-152474784D01*
X297525216Y-152927608D01*
X297880999Y-153460074D01*
X298077399Y-153934226D01*
X298126066Y-154051719D01*
X298251000Y-154679803D01*
X298251000Y-155320197D01*
X298188533Y-155634239D01*
X298126066Y-155948282D01*
X297880999Y-156539926D01*
X297525216Y-157072392D01*
X297072392Y-157525216D01*
X296539926Y-157880999D01*
X295948282Y-158126066D01*
X295634239Y-158188533D01*
X295320197Y-158251000D01*
X294679803Y-158251000D01*
X294365761Y-158188533D01*
X294051718Y-158126066D01*
X293460074Y-157880999D01*
X292927608Y-157525216D01*
X292474784Y-157072392D01*
X292119001Y-156539926D01*
X291873934Y-155948282D01*
X291811467Y-155634239D01*
X291749000Y-155320197D01*
X291749000Y-154679803D01*
X291873934Y-154051719D01*
X291922601Y-153934226D01*
X292119001Y-153460074D01*
X292474784Y-152927608D01*
X292927608Y-152474784D01*
X293460074Y-152119001D01*
X294051718Y-151873934D01*
X294365761Y-151811467D01*
X294679803Y-151749000D01*
X295320197Y-151749000D01*
X295634239Y-151811467D01*
G37*
G36*
X205634239Y-151811467D02*
G01*
X205948282Y-151873934D01*
X206539926Y-152119001D01*
X207072392Y-152474784D01*
X207525216Y-152927608D01*
X207880999Y-153460074D01*
X208077399Y-153934226D01*
X208126066Y-154051719D01*
X208251000Y-154679803D01*
X208251000Y-155320197D01*
X208188533Y-155634239D01*
X208126066Y-155948282D01*
X207880999Y-156539926D01*
X207525216Y-157072392D01*
X207072392Y-157525216D01*
X206539926Y-157880999D01*
X205948282Y-158126066D01*
X205634239Y-158188533D01*
X205320197Y-158251000D01*
X204679803Y-158251000D01*
X204365761Y-158188533D01*
X204051718Y-158126066D01*
X203460074Y-157880999D01*
X202927608Y-157525216D01*
X202474784Y-157072392D01*
X202119001Y-156539926D01*
X201873934Y-155948282D01*
X201811467Y-155634239D01*
X201749000Y-155320197D01*
X201749000Y-154679803D01*
X201873934Y-154051719D01*
X201922601Y-153934226D01*
X202119001Y-153460074D01*
X202474784Y-152927608D01*
X202927608Y-152474784D01*
X203460074Y-152119001D01*
X204051718Y-151873934D01*
X204365761Y-151811467D01*
X204679803Y-151749000D01*
X205320197Y-151749000D01*
X205634239Y-151811467D01*
G37*
G36*
X229379434Y-150353686D02*
G01*
X229419284Y-150365774D01*
X229455999Y-150385399D01*
X229488186Y-150411814D01*
X229514601Y-150444001D01*
X229534226Y-150480716D01*
X229546314Y-150520566D01*
X229551000Y-150568141D01*
X229551000Y-153731859D01*
X229546314Y-153779434D01*
X229534226Y-153819284D01*
X229514601Y-153855999D01*
X229488186Y-153888186D01*
X229455999Y-153914601D01*
X229419284Y-153934226D01*
X229379434Y-153946314D01*
X229331859Y-153951000D01*
X228668141Y-153951000D01*
X228620566Y-153946314D01*
X228580716Y-153934226D01*
X228544001Y-153914601D01*
X228511814Y-153888186D01*
X228485399Y-153855999D01*
X228465774Y-153819284D01*
X228453686Y-153779434D01*
X228449000Y-153731859D01*
X228449000Y-150568141D01*
X228453686Y-150520566D01*
X228465774Y-150480716D01*
X228485399Y-150444001D01*
X228511814Y-150411814D01*
X228544001Y-150385399D01*
X228580716Y-150365774D01*
X228620566Y-150353686D01*
X228668141Y-150349000D01*
X229331859Y-150349000D01*
X229379434Y-150353686D01*
G37*
G36*
X223379434Y-150353686D02*
G01*
X223419284Y-150365774D01*
X223455999Y-150385399D01*
X223488186Y-150411814D01*
X223514601Y-150444001D01*
X223534226Y-150480716D01*
X223546314Y-150520566D01*
X223551000Y-150568141D01*
X223551000Y-153731859D01*
X223546314Y-153779434D01*
X223534226Y-153819284D01*
X223514601Y-153855999D01*
X223488186Y-153888186D01*
X223455999Y-153914601D01*
X223419284Y-153934226D01*
X223379434Y-153946314D01*
X223331859Y-153951000D01*
X222668141Y-153951000D01*
X222620566Y-153946314D01*
X222580716Y-153934226D01*
X222544001Y-153914601D01*
X222511814Y-153888186D01*
X222485399Y-153855999D01*
X222465774Y-153819284D01*
X222453686Y-153779434D01*
X222449000Y-153731859D01*
X222449000Y-150568141D01*
X222453686Y-150520566D01*
X222465774Y-150480716D01*
X222485399Y-150444001D01*
X222511814Y-150411814D01*
X222544001Y-150385399D01*
X222580716Y-150365774D01*
X222620566Y-150353686D01*
X222668141Y-150349000D01*
X223331859Y-150349000D01*
X223379434Y-150353686D01*
G37*
G36*
X225379434Y-150353686D02*
G01*
X225419284Y-150365774D01*
X225455999Y-150385399D01*
X225488186Y-150411814D01*
X225514601Y-150444001D01*
X225534226Y-150480716D01*
X225546314Y-150520566D01*
X225551000Y-150568141D01*
X225551000Y-153731859D01*
X225546314Y-153779434D01*
X225534226Y-153819284D01*
X225514601Y-153855999D01*
X225488186Y-153888186D01*
X225455999Y-153914601D01*
X225419284Y-153934226D01*
X225379434Y-153946314D01*
X225331859Y-153951000D01*
X224668141Y-153951000D01*
X224620566Y-153946314D01*
X224580716Y-153934226D01*
X224544001Y-153914601D01*
X224511814Y-153888186D01*
X224485399Y-153855999D01*
X224465774Y-153819284D01*
X224453686Y-153779434D01*
X224449000Y-153731859D01*
X224449000Y-150568141D01*
X224453686Y-150520566D01*
X224465774Y-150480716D01*
X224485399Y-150444001D01*
X224511814Y-150411814D01*
X224544001Y-150385399D01*
X224580716Y-150365774D01*
X224620566Y-150353686D01*
X224668141Y-150349000D01*
X225331859Y-150349000D01*
X225379434Y-150353686D01*
G37*
G36*
X227379434Y-150353686D02*
G01*
X227419284Y-150365774D01*
X227455999Y-150385399D01*
X227488186Y-150411814D01*
X227514601Y-150444001D01*
X227534226Y-150480716D01*
X227546314Y-150520566D01*
X227551000Y-150568141D01*
X227551000Y-153731859D01*
X227546314Y-153779434D01*
X227534226Y-153819284D01*
X227514601Y-153855999D01*
X227488186Y-153888186D01*
X227455999Y-153914601D01*
X227419284Y-153934226D01*
X227379434Y-153946314D01*
X227331859Y-153951000D01*
X226668141Y-153951000D01*
X226620566Y-153946314D01*
X226580716Y-153934226D01*
X226544001Y-153914601D01*
X226511814Y-153888186D01*
X226485399Y-153855999D01*
X226465774Y-153819284D01*
X226453686Y-153779434D01*
X226449000Y-153731859D01*
X226449000Y-150568141D01*
X226453686Y-150520566D01*
X226465774Y-150480716D01*
X226485399Y-150444001D01*
X226511814Y-150411814D01*
X226544001Y-150385399D01*
X226580716Y-150365774D01*
X226620566Y-150353686D01*
X226668141Y-150349000D01*
X227331859Y-150349000D01*
X227379434Y-150353686D01*
G37*
G36*
X231379434Y-150353686D02*
G01*
X231419284Y-150365774D01*
X231455999Y-150385399D01*
X231488186Y-150411814D01*
X231514601Y-150444001D01*
X231534226Y-150480716D01*
X231546314Y-150520566D01*
X231551000Y-150568141D01*
X231551000Y-153731859D01*
X231546314Y-153779434D01*
X231534226Y-153819284D01*
X231514601Y-153855999D01*
X231488186Y-153888186D01*
X231455999Y-153914601D01*
X231419284Y-153934226D01*
X231379434Y-153946314D01*
X231331859Y-153951000D01*
X230668141Y-153951000D01*
X230620566Y-153946314D01*
X230580716Y-153934226D01*
X230544001Y-153914601D01*
X230511814Y-153888186D01*
X230485399Y-153855999D01*
X230465774Y-153819284D01*
X230453686Y-153779434D01*
X230449000Y-153731859D01*
X230449000Y-150568141D01*
X230453686Y-150520566D01*
X230465774Y-150480716D01*
X230485399Y-150444001D01*
X230511814Y-150411814D01*
X230544001Y-150385399D01*
X230580716Y-150365774D01*
X230620566Y-150353686D01*
X230668141Y-150349000D01*
X231331859Y-150349000D01*
X231379434Y-150353686D01*
G37*
G36*
X233379434Y-150353686D02*
G01*
X233419284Y-150365774D01*
X233455999Y-150385399D01*
X233488186Y-150411814D01*
X233514601Y-150444001D01*
X233534226Y-150480716D01*
X233546314Y-150520566D01*
X233551000Y-150568141D01*
X233551000Y-153731859D01*
X233546314Y-153779434D01*
X233534226Y-153819284D01*
X233514601Y-153855999D01*
X233488186Y-153888186D01*
X233455999Y-153914601D01*
X233419284Y-153934226D01*
X233379434Y-153946314D01*
X233331859Y-153951000D01*
X232668141Y-153951000D01*
X232620566Y-153946314D01*
X232580716Y-153934226D01*
X232544001Y-153914601D01*
X232511814Y-153888186D01*
X232485399Y-153855999D01*
X232465774Y-153819284D01*
X232453686Y-153779434D01*
X232449000Y-153731859D01*
X232449000Y-150568141D01*
X232453686Y-150520566D01*
X232465774Y-150480716D01*
X232485399Y-150444001D01*
X232511814Y-150411814D01*
X232544001Y-150385399D01*
X232580716Y-150365774D01*
X232620566Y-150353686D01*
X232668141Y-150349000D01*
X233331859Y-150349000D01*
X233379434Y-150353686D01*
G37*
G36*
X235379434Y-150353686D02*
G01*
X235419284Y-150365774D01*
X235455999Y-150385399D01*
X235488186Y-150411814D01*
X235514601Y-150444001D01*
X235534226Y-150480716D01*
X235546314Y-150520566D01*
X235551000Y-150568141D01*
X235551000Y-153731859D01*
X235546314Y-153779434D01*
X235534226Y-153819284D01*
X235514601Y-153855999D01*
X235488186Y-153888186D01*
X235455999Y-153914601D01*
X235419284Y-153934226D01*
X235379434Y-153946314D01*
X235331859Y-153951000D01*
X234668141Y-153951000D01*
X234620566Y-153946314D01*
X234580716Y-153934226D01*
X234544001Y-153914601D01*
X234511814Y-153888186D01*
X234485399Y-153855999D01*
X234465774Y-153819284D01*
X234453686Y-153779434D01*
X234449000Y-153731859D01*
X234449000Y-150568141D01*
X234453686Y-150520566D01*
X234465774Y-150480716D01*
X234485399Y-150444001D01*
X234511814Y-150411814D01*
X234544001Y-150385399D01*
X234580716Y-150365774D01*
X234620566Y-150353686D01*
X234668141Y-150349000D01*
X235331859Y-150349000D01*
X235379434Y-150353686D01*
G37*
G36*
X237379434Y-150353686D02*
G01*
X237419284Y-150365774D01*
X237455999Y-150385399D01*
X237488186Y-150411814D01*
X237514601Y-150444001D01*
X237534226Y-150480716D01*
X237546314Y-150520566D01*
X237551000Y-150568141D01*
X237551000Y-153731859D01*
X237546314Y-153779434D01*
X237534226Y-153819284D01*
X237514601Y-153855999D01*
X237488186Y-153888186D01*
X237455999Y-153914601D01*
X237419284Y-153934226D01*
X237379434Y-153946314D01*
X237331859Y-153951000D01*
X236668141Y-153951000D01*
X236620566Y-153946314D01*
X236580716Y-153934226D01*
X236544001Y-153914601D01*
X236511814Y-153888186D01*
X236485399Y-153855999D01*
X236465774Y-153819284D01*
X236453686Y-153779434D01*
X236449000Y-153731859D01*
X236449000Y-150568141D01*
X236453686Y-150520566D01*
X236465774Y-150480716D01*
X236485399Y-150444001D01*
X236511814Y-150411814D01*
X236544001Y-150385399D01*
X236580716Y-150365774D01*
X236620566Y-150353686D01*
X236668141Y-150349000D01*
X237331859Y-150349000D01*
X237379434Y-150353686D01*
G37*
G36*
X265379434Y-150353686D02*
G01*
X265419284Y-150365774D01*
X265455999Y-150385399D01*
X265488186Y-150411814D01*
X265514601Y-150444001D01*
X265534226Y-150480716D01*
X265546314Y-150520566D01*
X265551000Y-150568141D01*
X265551000Y-153731859D01*
X265546314Y-153779434D01*
X265534226Y-153819284D01*
X265514601Y-153855999D01*
X265488186Y-153888186D01*
X265455999Y-153914601D01*
X265419284Y-153934226D01*
X265379434Y-153946314D01*
X265331859Y-153951000D01*
X264668141Y-153951000D01*
X264620566Y-153946314D01*
X264580716Y-153934226D01*
X264544001Y-153914601D01*
X264511814Y-153888186D01*
X264485399Y-153855999D01*
X264465774Y-153819284D01*
X264453686Y-153779434D01*
X264449000Y-153731859D01*
X264449000Y-150568141D01*
X264453686Y-150520566D01*
X264465774Y-150480716D01*
X264485399Y-150444001D01*
X264511814Y-150411814D01*
X264544001Y-150385399D01*
X264580716Y-150365774D01*
X264620566Y-150353686D01*
X264668141Y-150349000D01*
X265331859Y-150349000D01*
X265379434Y-150353686D01*
G37*
G36*
X267379434Y-150353686D02*
G01*
X267419284Y-150365774D01*
X267455999Y-150385399D01*
X267488186Y-150411814D01*
X267514601Y-150444001D01*
X267534226Y-150480716D01*
X267546314Y-150520566D01*
X267551000Y-150568141D01*
X267551000Y-153731859D01*
X267546314Y-153779434D01*
X267534226Y-153819284D01*
X267514601Y-153855999D01*
X267488186Y-153888186D01*
X267455999Y-153914601D01*
X267419284Y-153934226D01*
X267379434Y-153946314D01*
X267331859Y-153951000D01*
X266668141Y-153951000D01*
X266620566Y-153946314D01*
X266580716Y-153934226D01*
X266544001Y-153914601D01*
X266511814Y-153888186D01*
X266485399Y-153855999D01*
X266465774Y-153819284D01*
X266453686Y-153779434D01*
X266449000Y-153731859D01*
X266449000Y-150568141D01*
X266453686Y-150520566D01*
X266465774Y-150480716D01*
X266485399Y-150444001D01*
X266511814Y-150411814D01*
X266544001Y-150385399D01*
X266580716Y-150365774D01*
X266620566Y-150353686D01*
X266668141Y-150349000D01*
X267331859Y-150349000D01*
X267379434Y-150353686D01*
G37*
G36*
X269379434Y-150353686D02*
G01*
X269419284Y-150365774D01*
X269455999Y-150385399D01*
X269488186Y-150411814D01*
X269514601Y-150444001D01*
X269534226Y-150480716D01*
X269546314Y-150520566D01*
X269551000Y-150568141D01*
X269551000Y-153731859D01*
X269546314Y-153779434D01*
X269534226Y-153819284D01*
X269514601Y-153855999D01*
X269488186Y-153888186D01*
X269455999Y-153914601D01*
X269419284Y-153934226D01*
X269379434Y-153946314D01*
X269331859Y-153951000D01*
X268668141Y-153951000D01*
X268620566Y-153946314D01*
X268580716Y-153934226D01*
X268544001Y-153914601D01*
X268511814Y-153888186D01*
X268485399Y-153855999D01*
X268465774Y-153819284D01*
X268453686Y-153779434D01*
X268449000Y-153731859D01*
X268449000Y-150568141D01*
X268453686Y-150520566D01*
X268465774Y-150480716D01*
X268485399Y-150444001D01*
X268511814Y-150411814D01*
X268544001Y-150385399D01*
X268580716Y-150365774D01*
X268620566Y-150353686D01*
X268668141Y-150349000D01*
X269331859Y-150349000D01*
X269379434Y-150353686D01*
G37*
G36*
X263379434Y-150353686D02*
G01*
X263419284Y-150365774D01*
X263455999Y-150385399D01*
X263488186Y-150411814D01*
X263514601Y-150444001D01*
X263534226Y-150480716D01*
X263546314Y-150520566D01*
X263551000Y-150568141D01*
X263551000Y-153731859D01*
X263546314Y-153779434D01*
X263534226Y-153819284D01*
X263514601Y-153855999D01*
X263488186Y-153888186D01*
X263455999Y-153914601D01*
X263419284Y-153934226D01*
X263379434Y-153946314D01*
X263331859Y-153951000D01*
X262668141Y-153951000D01*
X262620566Y-153946314D01*
X262580716Y-153934226D01*
X262544001Y-153914601D01*
X262511814Y-153888186D01*
X262485399Y-153855999D01*
X262465774Y-153819284D01*
X262453686Y-153779434D01*
X262449000Y-153731859D01*
X262449000Y-150568141D01*
X262453686Y-150520566D01*
X262465774Y-150480716D01*
X262485399Y-150444001D01*
X262511814Y-150411814D01*
X262544001Y-150385399D01*
X262580716Y-150365774D01*
X262620566Y-150353686D01*
X262668141Y-150349000D01*
X263331859Y-150349000D01*
X263379434Y-150353686D01*
G37*
G36*
X271379434Y-150353686D02*
G01*
X271419284Y-150365774D01*
X271455999Y-150385399D01*
X271488186Y-150411814D01*
X271514601Y-150444001D01*
X271534226Y-150480716D01*
X271546314Y-150520566D01*
X271551000Y-150568141D01*
X271551000Y-153731859D01*
X271546314Y-153779434D01*
X271534226Y-153819284D01*
X271514601Y-153855999D01*
X271488186Y-153888186D01*
X271455999Y-153914601D01*
X271419284Y-153934226D01*
X271379434Y-153946314D01*
X271331859Y-153951000D01*
X270668141Y-153951000D01*
X270620566Y-153946314D01*
X270580716Y-153934226D01*
X270544001Y-153914601D01*
X270511814Y-153888186D01*
X270485399Y-153855999D01*
X270465774Y-153819284D01*
X270453686Y-153779434D01*
X270449000Y-153731859D01*
X270449000Y-150568141D01*
X270453686Y-150520566D01*
X270465774Y-150480716D01*
X270485399Y-150444001D01*
X270511814Y-150411814D01*
X270544001Y-150385399D01*
X270580716Y-150365774D01*
X270620566Y-150353686D01*
X270668141Y-150349000D01*
X271331859Y-150349000D01*
X271379434Y-150353686D01*
G37*
G36*
X273379434Y-150353686D02*
G01*
X273419284Y-150365774D01*
X273455999Y-150385399D01*
X273488186Y-150411814D01*
X273514601Y-150444001D01*
X273534226Y-150480716D01*
X273546314Y-150520566D01*
X273551000Y-150568141D01*
X273551000Y-153731859D01*
X273546314Y-153779434D01*
X273534226Y-153819284D01*
X273514601Y-153855999D01*
X273488186Y-153888186D01*
X273455999Y-153914601D01*
X273419284Y-153934226D01*
X273379434Y-153946314D01*
X273331859Y-153951000D01*
X272668141Y-153951000D01*
X272620566Y-153946314D01*
X272580716Y-153934226D01*
X272544001Y-153914601D01*
X272511814Y-153888186D01*
X272485399Y-153855999D01*
X272465774Y-153819284D01*
X272453686Y-153779434D01*
X272449000Y-153731859D01*
X272449000Y-150568141D01*
X272453686Y-150520566D01*
X272465774Y-150480716D01*
X272485399Y-150444001D01*
X272511814Y-150411814D01*
X272544001Y-150385399D01*
X272580716Y-150365774D01*
X272620566Y-150353686D01*
X272668141Y-150349000D01*
X273331859Y-150349000D01*
X273379434Y-150353686D01*
G37*
G36*
X275379434Y-150353686D02*
G01*
X275419284Y-150365774D01*
X275455999Y-150385399D01*
X275488186Y-150411814D01*
X275514601Y-150444001D01*
X275534226Y-150480716D01*
X275546314Y-150520566D01*
X275551000Y-150568141D01*
X275551000Y-153731859D01*
X275546314Y-153779434D01*
X275534226Y-153819284D01*
X275514601Y-153855999D01*
X275488186Y-153888186D01*
X275455999Y-153914601D01*
X275419284Y-153934226D01*
X275379434Y-153946314D01*
X275331859Y-153951000D01*
X274668141Y-153951000D01*
X274620566Y-153946314D01*
X274580716Y-153934226D01*
X274544001Y-153914601D01*
X274511814Y-153888186D01*
X274485399Y-153855999D01*
X274465774Y-153819284D01*
X274453686Y-153779434D01*
X274449000Y-153731859D01*
X274449000Y-150568141D01*
X274453686Y-150520566D01*
X274465774Y-150480716D01*
X274485399Y-150444001D01*
X274511814Y-150411814D01*
X274544001Y-150385399D01*
X274580716Y-150365774D01*
X274620566Y-150353686D01*
X274668141Y-150349000D01*
X275331859Y-150349000D01*
X275379434Y-150353686D01*
G37*
G36*
X277379434Y-150353686D02*
G01*
X277419284Y-150365774D01*
X277455999Y-150385399D01*
X277488186Y-150411814D01*
X277514601Y-150444001D01*
X277534226Y-150480716D01*
X277546314Y-150520566D01*
X277551000Y-150568141D01*
X277551000Y-153731859D01*
X277546314Y-153779434D01*
X277534226Y-153819284D01*
X277514601Y-153855999D01*
X277488186Y-153888186D01*
X277455999Y-153914601D01*
X277419284Y-153934226D01*
X277379434Y-153946314D01*
X277331859Y-153951000D01*
X276668141Y-153951000D01*
X276620566Y-153946314D01*
X276580716Y-153934226D01*
X276544001Y-153914601D01*
X276511814Y-153888186D01*
X276485399Y-153855999D01*
X276465774Y-153819284D01*
X276453686Y-153779434D01*
X276449000Y-153731859D01*
X276449000Y-150568141D01*
X276453686Y-150520566D01*
X276465774Y-150480716D01*
X276485399Y-150444001D01*
X276511814Y-150411814D01*
X276544001Y-150385399D01*
X276580716Y-150365774D01*
X276620566Y-150353686D01*
X276668141Y-150349000D01*
X277331859Y-150349000D01*
X277379434Y-150353686D01*
G37*
G36*
X253901000Y-146701000D02*
G01*
X253299000Y-146701000D01*
X253299000Y-143299000D01*
X253901000Y-143299000D01*
X253901000Y-146701000D01*
G37*
G36*
X246701000Y-146701000D02*
G01*
X246099000Y-146701000D01*
X246099000Y-143299000D01*
X246701000Y-143299000D01*
X246701000Y-146701000D01*
G37*
G36*
X243901000Y-146701000D02*
G01*
X243299000Y-146701000D01*
X243299000Y-143299000D01*
X243901000Y-143299000D01*
X243901000Y-146701000D01*
G37*
G36*
X236701000Y-146701000D02*
G01*
X236099000Y-146701000D01*
X236099000Y-143299000D01*
X236701000Y-143299000D01*
X236701000Y-146701000D01*
G37*
G36*
X215701000Y-146701000D02*
G01*
X214299000Y-146701000D01*
X214299000Y-143299000D01*
X215701000Y-143299000D01*
X215701000Y-146701000D01*
G37*
G36*
X213901000Y-146701000D02*
G01*
X213299000Y-146701000D01*
X213299000Y-143299000D01*
X213901000Y-143299000D01*
X213901000Y-146701000D01*
G37*
G36*
X216701000Y-146701000D02*
G01*
X216099000Y-146701000D01*
X216099000Y-143299000D01*
X216701000Y-143299000D01*
X216701000Y-146701000D01*
G37*
G36*
X226701000Y-146701000D02*
G01*
X226099000Y-146701000D01*
X226099000Y-143299000D01*
X226701000Y-143299000D01*
X226701000Y-146701000D01*
G37*
G36*
X223901000Y-146701000D02*
G01*
X223299000Y-146701000D01*
X223299000Y-143299000D01*
X223901000Y-143299000D01*
X223901000Y-146701000D01*
G37*
G36*
X225701000Y-146701000D02*
G01*
X224299000Y-146701000D01*
X224299000Y-143299000D01*
X225701000Y-143299000D01*
X225701000Y-146701000D01*
G37*
G36*
X233901000Y-146701000D02*
G01*
X233299000Y-146701000D01*
X233299000Y-143299000D01*
X233901000Y-143299000D01*
X233901000Y-146701000D01*
G37*
G36*
X286701000Y-146701000D02*
G01*
X286099000Y-146701000D01*
X286099000Y-143299000D01*
X286701000Y-143299000D01*
X286701000Y-146701000D01*
G37*
G36*
X266701000Y-146701000D02*
G01*
X266099000Y-146701000D01*
X266099000Y-143299000D01*
X266701000Y-143299000D01*
X266701000Y-146701000D01*
G37*
G36*
X276701000Y-146701000D02*
G01*
X276099000Y-146701000D01*
X276099000Y-143299000D01*
X276701000Y-143299000D01*
X276701000Y-146701000D01*
G37*
G36*
X265701000Y-146701000D02*
G01*
X264299000Y-146701000D01*
X264299000Y-143299000D01*
X265701000Y-143299000D01*
X265701000Y-146701000D01*
G37*
G36*
X255701000Y-146701000D02*
G01*
X254299000Y-146701000D01*
X254299000Y-143299000D01*
X255701000Y-143299000D01*
X255701000Y-146701000D01*
G37*
G36*
X263901000Y-146701000D02*
G01*
X263299000Y-146701000D01*
X263299000Y-143299000D01*
X263901000Y-143299000D01*
X263901000Y-146701000D01*
G37*
G36*
X245701000Y-146701000D02*
G01*
X244299000Y-146701000D01*
X244299000Y-143299000D01*
X245701000Y-143299000D01*
X245701000Y-146701000D01*
G37*
G36*
X273901000Y-146701000D02*
G01*
X273299000Y-146701000D01*
X273299000Y-143299000D01*
X273901000Y-143299000D01*
X273901000Y-146701000D01*
G37*
G36*
X275701000Y-146701000D02*
G01*
X274299000Y-146701000D01*
X274299000Y-143299000D01*
X275701000Y-143299000D01*
X275701000Y-146701000D01*
G37*
G36*
X256701000Y-146701000D02*
G01*
X256099000Y-146701000D01*
X256099000Y-143299000D01*
X256701000Y-143299000D01*
X256701000Y-146701000D01*
G37*
G36*
X283901000Y-146701000D02*
G01*
X283299000Y-146701000D01*
X283299000Y-143299000D01*
X283901000Y-143299000D01*
X283901000Y-146701000D01*
G37*
G36*
X285701000Y-146701000D02*
G01*
X284299000Y-146701000D01*
X284299000Y-143299000D01*
X285701000Y-143299000D01*
X285701000Y-146701000D01*
G37*
G36*
X235701000Y-146701000D02*
G01*
X234299000Y-146701000D01*
X234299000Y-143299000D01*
X235701000Y-143299000D01*
X235701000Y-146701000D01*
G37*
G36*
X266701000Y-136701000D02*
G01*
X266099000Y-136701000D01*
X266099000Y-133299000D01*
X266701000Y-133299000D01*
X266701000Y-136701000D01*
G37*
G36*
X263901000Y-136701000D02*
G01*
X263299000Y-136701000D01*
X263299000Y-133299000D01*
X263901000Y-133299000D01*
X263901000Y-136701000D01*
G37*
G36*
X265701000Y-136701000D02*
G01*
X264299000Y-136701000D01*
X264299000Y-133299000D01*
X265701000Y-133299000D01*
X265701000Y-136701000D01*
G37*
G36*
X256701000Y-136701000D02*
G01*
X256099000Y-136701000D01*
X256099000Y-133299000D01*
X256701000Y-133299000D01*
X256701000Y-136701000D01*
G37*
G36*
X253901000Y-136701000D02*
G01*
X253299000Y-136701000D01*
X253299000Y-133299000D01*
X253901000Y-133299000D01*
X253901000Y-136701000D01*
G37*
G36*
X246701000Y-136701000D02*
G01*
X246099000Y-136701000D01*
X246099000Y-133299000D01*
X246701000Y-133299000D01*
X246701000Y-136701000D01*
G37*
G36*
X243901000Y-136701000D02*
G01*
X243299000Y-136701000D01*
X243299000Y-133299000D01*
X243901000Y-133299000D01*
X243901000Y-136701000D01*
G37*
G36*
X245701000Y-136701000D02*
G01*
X244299000Y-136701000D01*
X244299000Y-133299000D01*
X245701000Y-133299000D01*
X245701000Y-136701000D01*
G37*
G36*
X236701000Y-136701000D02*
G01*
X236099000Y-136701000D01*
X236099000Y-133299000D01*
X236701000Y-133299000D01*
X236701000Y-136701000D01*
G37*
G36*
X233901000Y-136701000D02*
G01*
X233299000Y-136701000D01*
X233299000Y-133299000D01*
X233901000Y-133299000D01*
X233901000Y-136701000D01*
G37*
G36*
X235701000Y-136701000D02*
G01*
X234299000Y-136701000D01*
X234299000Y-133299000D01*
X235701000Y-133299000D01*
X235701000Y-136701000D01*
G37*
G36*
X255701000Y-136701000D02*
G01*
X254299000Y-136701000D01*
X254299000Y-133299000D01*
X255701000Y-133299000D01*
X255701000Y-136701000D01*
G37*
G36*
X273901000Y-136701000D02*
G01*
X273299000Y-136701000D01*
X273299000Y-133299000D01*
X273901000Y-133299000D01*
X273901000Y-136701000D01*
G37*
G36*
X275701000Y-136701000D02*
G01*
X274299000Y-136701000D01*
X274299000Y-133299000D01*
X275701000Y-133299000D01*
X275701000Y-136701000D01*
G37*
G36*
X285701000Y-136701000D02*
G01*
X284299000Y-136701000D01*
X284299000Y-133299000D01*
X285701000Y-133299000D01*
X285701000Y-136701000D01*
G37*
G36*
X226701000Y-136701000D02*
G01*
X226099000Y-136701000D01*
X226099000Y-133299000D01*
X226701000Y-133299000D01*
X226701000Y-136701000D01*
G37*
G36*
X283901000Y-136701000D02*
G01*
X283299000Y-136701000D01*
X283299000Y-133299000D01*
X283901000Y-133299000D01*
X283901000Y-136701000D01*
G37*
G36*
X286701000Y-136701000D02*
G01*
X286099000Y-136701000D01*
X286099000Y-133299000D01*
X286701000Y-133299000D01*
X286701000Y-136701000D01*
G37*
G36*
X223901000Y-136701000D02*
G01*
X223299000Y-136701000D01*
X223299000Y-133299000D01*
X223901000Y-133299000D01*
X223901000Y-136701000D01*
G37*
G36*
X225701000Y-136701000D02*
G01*
X224299000Y-136701000D01*
X224299000Y-133299000D01*
X225701000Y-133299000D01*
X225701000Y-136701000D01*
G37*
G36*
X216701000Y-136701000D02*
G01*
X216099000Y-136701000D01*
X216099000Y-133299000D01*
X216701000Y-133299000D01*
X216701000Y-136701000D01*
G37*
G36*
X213901000Y-136701000D02*
G01*
X213299000Y-136701000D01*
X213299000Y-133299000D01*
X213901000Y-133299000D01*
X213901000Y-136701000D01*
G37*
G36*
X215701000Y-136701000D02*
G01*
X214299000Y-136701000D01*
X214299000Y-133299000D01*
X215701000Y-133299000D01*
X215701000Y-136701000D01*
G37*
G36*
X276701000Y-136701000D02*
G01*
X276099000Y-136701000D01*
X276099000Y-133299000D01*
X276701000Y-133299000D01*
X276701000Y-136701000D01*
G37*
G36*
X275701000Y-126701000D02*
G01*
X274299000Y-126701000D01*
X274299000Y-123299000D01*
X275701000Y-123299000D01*
X275701000Y-126701000D01*
G37*
G36*
X226701000Y-126701000D02*
G01*
X226099000Y-126701000D01*
X226099000Y-123299000D01*
X226701000Y-123299000D01*
X226701000Y-126701000D01*
G37*
G36*
X223901000Y-126701000D02*
G01*
X223299000Y-126701000D01*
X223299000Y-123299000D01*
X223901000Y-123299000D01*
X223901000Y-126701000D01*
G37*
G36*
X215701000Y-126701000D02*
G01*
X214299000Y-126701000D01*
X214299000Y-123299000D01*
X215701000Y-123299000D01*
X215701000Y-126701000D01*
G37*
G36*
X213901000Y-126701000D02*
G01*
X213299000Y-126701000D01*
X213299000Y-123299000D01*
X213901000Y-123299000D01*
X213901000Y-126701000D01*
G37*
G36*
X216701000Y-126701000D02*
G01*
X216099000Y-126701000D01*
X216099000Y-123299000D01*
X216701000Y-123299000D01*
X216701000Y-126701000D01*
G37*
G36*
X276701000Y-126701000D02*
G01*
X276099000Y-126701000D01*
X276099000Y-123299000D01*
X276701000Y-123299000D01*
X276701000Y-126701000D01*
G37*
G36*
X286701000Y-126701000D02*
G01*
X286099000Y-126701000D01*
X286099000Y-123299000D01*
X286701000Y-123299000D01*
X286701000Y-126701000D01*
G37*
G36*
X285701000Y-126701000D02*
G01*
X284299000Y-126701000D01*
X284299000Y-123299000D01*
X285701000Y-123299000D01*
X285701000Y-126701000D01*
G37*
G36*
X283901000Y-126701000D02*
G01*
X283299000Y-126701000D01*
X283299000Y-123299000D01*
X283901000Y-123299000D01*
X283901000Y-126701000D01*
G37*
G36*
X265701000Y-126701000D02*
G01*
X264299000Y-126701000D01*
X264299000Y-123299000D01*
X265701000Y-123299000D01*
X265701000Y-126701000D01*
G37*
G36*
X273901000Y-126701000D02*
G01*
X273299000Y-126701000D01*
X273299000Y-123299000D01*
X273901000Y-123299000D01*
X273901000Y-126701000D01*
G37*
G36*
X236701000Y-126701000D02*
G01*
X236099000Y-126701000D01*
X236099000Y-123299000D01*
X236701000Y-123299000D01*
X236701000Y-126701000D01*
G37*
G36*
X235701000Y-126701000D02*
G01*
X234299000Y-126701000D01*
X234299000Y-123299000D01*
X235701000Y-123299000D01*
X235701000Y-126701000D01*
G37*
G36*
X246701000Y-126701000D02*
G01*
X246099000Y-126701000D01*
X246099000Y-123299000D01*
X246701000Y-123299000D01*
X246701000Y-126701000D01*
G37*
G36*
X243901000Y-126701000D02*
G01*
X243299000Y-126701000D01*
X243299000Y-123299000D01*
X243901000Y-123299000D01*
X243901000Y-126701000D01*
G37*
G36*
X263901000Y-126701000D02*
G01*
X263299000Y-126701000D01*
X263299000Y-123299000D01*
X263901000Y-123299000D01*
X263901000Y-126701000D01*
G37*
G36*
X245701000Y-126701000D02*
G01*
X244299000Y-126701000D01*
X244299000Y-123299000D01*
X245701000Y-123299000D01*
X245701000Y-126701000D01*
G37*
G36*
X256701000Y-126701000D02*
G01*
X256099000Y-126701000D01*
X256099000Y-123299000D01*
X256701000Y-123299000D01*
X256701000Y-126701000D01*
G37*
G36*
X253901000Y-126701000D02*
G01*
X253299000Y-126701000D01*
X253299000Y-123299000D01*
X253901000Y-123299000D01*
X253901000Y-126701000D01*
G37*
G36*
X255701000Y-126701000D02*
G01*
X254299000Y-126701000D01*
X254299000Y-123299000D01*
X255701000Y-123299000D01*
X255701000Y-126701000D01*
G37*
G36*
X266701000Y-126701000D02*
G01*
X266099000Y-126701000D01*
X266099000Y-123299000D01*
X266701000Y-123299000D01*
X266701000Y-126701000D01*
G37*
G36*
X233901000Y-126701000D02*
G01*
X233299000Y-126701000D01*
X233299000Y-123299000D01*
X233901000Y-123299000D01*
X233901000Y-126701000D01*
G37*
G36*
X225701000Y-126701000D02*
G01*
X224299000Y-126701000D01*
X224299000Y-123299000D01*
X225701000Y-123299000D01*
X225701000Y-126701000D01*
G37*
G36*
X298091000Y-120776000D02*
G01*
X296989000Y-120776000D01*
X296989000Y-118174000D01*
X298091000Y-118174000D01*
X298091000Y-120776000D01*
G37*
G36*
X295551000Y-120776000D02*
G01*
X294449000Y-120776000D01*
X294449000Y-118174000D01*
X295551000Y-118174000D01*
X295551000Y-120776000D01*
G37*
G36*
X293011000Y-120776000D02*
G01*
X291909000Y-120776000D01*
X291909000Y-118174000D01*
X293011000Y-118174000D01*
X293011000Y-120776000D01*
G37*
G36*
X275701000Y-116701000D02*
G01*
X274299000Y-116701000D01*
X274299000Y-113299000D01*
X275701000Y-113299000D01*
X275701000Y-116701000D01*
G37*
G36*
X273901000Y-116701000D02*
G01*
X273299000Y-116701000D01*
X273299000Y-113299000D01*
X273901000Y-113299000D01*
X273901000Y-116701000D01*
G37*
G36*
X265701000Y-116701000D02*
G01*
X264299000Y-116701000D01*
X264299000Y-113299000D01*
X265701000Y-113299000D01*
X265701000Y-116701000D01*
G37*
G36*
X263901000Y-116701000D02*
G01*
X263299000Y-116701000D01*
X263299000Y-113299000D01*
X263901000Y-113299000D01*
X263901000Y-116701000D01*
G37*
G36*
X256701000Y-116701000D02*
G01*
X256099000Y-116701000D01*
X256099000Y-113299000D01*
X256701000Y-113299000D01*
X256701000Y-116701000D01*
G37*
G36*
X255701000Y-116701000D02*
G01*
X254299000Y-116701000D01*
X254299000Y-113299000D01*
X255701000Y-113299000D01*
X255701000Y-116701000D01*
G37*
G36*
X253901000Y-116701000D02*
G01*
X253299000Y-116701000D01*
X253299000Y-113299000D01*
X253901000Y-113299000D01*
X253901000Y-116701000D01*
G37*
G36*
X246701000Y-116701000D02*
G01*
X246099000Y-116701000D01*
X246099000Y-113299000D01*
X246701000Y-113299000D01*
X246701000Y-116701000D01*
G37*
G36*
X245701000Y-116701000D02*
G01*
X244299000Y-116701000D01*
X244299000Y-113299000D01*
X245701000Y-113299000D01*
X245701000Y-116701000D01*
G37*
G36*
X243901000Y-116701000D02*
G01*
X243299000Y-116701000D01*
X243299000Y-113299000D01*
X243901000Y-113299000D01*
X243901000Y-116701000D01*
G37*
G36*
X236701000Y-116701000D02*
G01*
X236099000Y-116701000D01*
X236099000Y-113299000D01*
X236701000Y-113299000D01*
X236701000Y-116701000D01*
G37*
G36*
X235701000Y-116701000D02*
G01*
X234299000Y-116701000D01*
X234299000Y-113299000D01*
X235701000Y-113299000D01*
X235701000Y-116701000D01*
G37*
G36*
X226701000Y-116701000D02*
G01*
X226099000Y-116701000D01*
X226099000Y-113299000D01*
X226701000Y-113299000D01*
X226701000Y-116701000D01*
G37*
G36*
X225701000Y-116701000D02*
G01*
X224299000Y-116701000D01*
X224299000Y-113299000D01*
X225701000Y-113299000D01*
X225701000Y-116701000D01*
G37*
G36*
X223901000Y-116701000D02*
G01*
X223299000Y-116701000D01*
X223299000Y-113299000D01*
X223901000Y-113299000D01*
X223901000Y-116701000D01*
G37*
G36*
X216701000Y-116701000D02*
G01*
X216099000Y-116701000D01*
X216099000Y-113299000D01*
X216701000Y-113299000D01*
X216701000Y-116701000D01*
G37*
G36*
X215701000Y-116701000D02*
G01*
X214299000Y-116701000D01*
X214299000Y-113299000D01*
X215701000Y-113299000D01*
X215701000Y-116701000D01*
G37*
G36*
X213901000Y-116701000D02*
G01*
X213299000Y-116701000D01*
X213299000Y-113299000D01*
X213901000Y-113299000D01*
X213901000Y-116701000D01*
G37*
G36*
X276701000Y-116701000D02*
G01*
X276099000Y-116701000D01*
X276099000Y-113299000D01*
X276701000Y-113299000D01*
X276701000Y-116701000D01*
G37*
G36*
X283901000Y-116701000D02*
G01*
X283299000Y-116701000D01*
X283299000Y-113299000D01*
X283901000Y-113299000D01*
X283901000Y-116701000D01*
G37*
G36*
X285701000Y-116701000D02*
G01*
X284299000Y-116701000D01*
X284299000Y-113299000D01*
X285701000Y-113299000D01*
X285701000Y-116701000D01*
G37*
G36*
X286701000Y-116701000D02*
G01*
X286099000Y-116701000D01*
X286099000Y-113299000D01*
X286701000Y-113299000D01*
X286701000Y-116701000D01*
G37*
G36*
X233901000Y-116701000D02*
G01*
X233299000Y-116701000D01*
X233299000Y-113299000D01*
X233901000Y-113299000D01*
X233901000Y-116701000D01*
G37*
G36*
X266701000Y-116701000D02*
G01*
X266099000Y-116701000D01*
X266099000Y-113299000D01*
X266701000Y-113299000D01*
X266701000Y-116701000D01*
G37*
G36*
X299503048Y-114553122D02*
G01*
X299537387Y-114563539D01*
X299569036Y-114580456D01*
X299596778Y-114603222D01*
X299619544Y-114630964D01*
X299636461Y-114662613D01*
X299646878Y-114696952D01*
X299651000Y-114738807D01*
X299651000Y-115961193D01*
X299646878Y-116003048D01*
X299636461Y-116037387D01*
X299619544Y-116069036D01*
X299596778Y-116096778D01*
X299569036Y-116119544D01*
X299537387Y-116136461D01*
X299503048Y-116146878D01*
X299461193Y-116151000D01*
X296338807Y-116151000D01*
X296296952Y-116146878D01*
X296262613Y-116136461D01*
X296230964Y-116119544D01*
X296203222Y-116096778D01*
X296180456Y-116069036D01*
X296163539Y-116037387D01*
X296153122Y-116003048D01*
X296149000Y-115961193D01*
X296149000Y-114738807D01*
X296153122Y-114696952D01*
X296163539Y-114662613D01*
X296180456Y-114630964D01*
X296203222Y-114603222D01*
X296230964Y-114580456D01*
X296262613Y-114563539D01*
X296296952Y-114553122D01*
X296338807Y-114549000D01*
X299461193Y-114549000D01*
X299503048Y-114553122D01*
G37*
G36*
X293779434Y-112453686D02*
G01*
X293819284Y-112465774D01*
X293855999Y-112485399D01*
X293888186Y-112511814D01*
X293914601Y-112544001D01*
X293934226Y-112580716D01*
X293946314Y-112620566D01*
X293951000Y-112668141D01*
X293951000Y-113331859D01*
X293946314Y-113379434D01*
X293934226Y-113419284D01*
X293914601Y-113455999D01*
X293888186Y-113488186D01*
X293855999Y-113514601D01*
X293819284Y-113534226D01*
X293779434Y-113546314D01*
X293731859Y-113551000D01*
X290568141Y-113551000D01*
X290520566Y-113546314D01*
X290480716Y-113534226D01*
X290444001Y-113514601D01*
X290411814Y-113488186D01*
X290385399Y-113455999D01*
X290365774Y-113419284D01*
X290353686Y-113379434D01*
X290349000Y-113331859D01*
X290349000Y-112668141D01*
X290353686Y-112620566D01*
X290365774Y-112580716D01*
X290385399Y-112544001D01*
X290411814Y-112511814D01*
X290444001Y-112485399D01*
X290480716Y-112465774D01*
X290520566Y-112453686D01*
X290568141Y-112449000D01*
X293731859Y-112449000D01*
X293779434Y-112453686D01*
G37*
G36*
X293779434Y-110453686D02*
G01*
X293819284Y-110465774D01*
X293855999Y-110485399D01*
X293888186Y-110511814D01*
X293914601Y-110544001D01*
X293934226Y-110580716D01*
X293946314Y-110620566D01*
X293951000Y-110668141D01*
X293951000Y-111331859D01*
X293946314Y-111379434D01*
X293934226Y-111419284D01*
X293914601Y-111455999D01*
X293888186Y-111488186D01*
X293855999Y-111514601D01*
X293819284Y-111534226D01*
X293779434Y-111546314D01*
X293731859Y-111551000D01*
X290568141Y-111551000D01*
X290520566Y-111546314D01*
X290480716Y-111534226D01*
X290444001Y-111514601D01*
X290411814Y-111488186D01*
X290385399Y-111455999D01*
X290365774Y-111419284D01*
X290353686Y-111379434D01*
X290349000Y-111331859D01*
X290349000Y-110668141D01*
X290353686Y-110620566D01*
X290365774Y-110580716D01*
X290385399Y-110544001D01*
X290411814Y-110511814D01*
X290444001Y-110485399D01*
X290480716Y-110465774D01*
X290520566Y-110453686D01*
X290568141Y-110449000D01*
X293731859Y-110449000D01*
X293779434Y-110453686D01*
G37*
G36*
X249434468Y-109253565D02*
G01*
X249473138Y-109265296D01*
X249508777Y-109284346D01*
X249540017Y-109309983D01*
X249565654Y-109341223D01*
X249584704Y-109376862D01*
X249596435Y-109415532D01*
X249601000Y-109461888D01*
X249601000Y-110538112D01*
X249596435Y-110584468D01*
X249584704Y-110623138D01*
X249565654Y-110658777D01*
X249540017Y-110690017D01*
X249508777Y-110715654D01*
X249473138Y-110734704D01*
X249434468Y-110746435D01*
X249388112Y-110751000D01*
X248736888Y-110751000D01*
X248690532Y-110746435D01*
X248651862Y-110734704D01*
X248616223Y-110715654D01*
X248584983Y-110690017D01*
X248559346Y-110658777D01*
X248540296Y-110623138D01*
X248528565Y-110584468D01*
X248524000Y-110538112D01*
X248524000Y-109461888D01*
X248528565Y-109415532D01*
X248540296Y-109376862D01*
X248559346Y-109341223D01*
X248584983Y-109309983D01*
X248616223Y-109284346D01*
X248651862Y-109265296D01*
X248690532Y-109253565D01*
X248736888Y-109249000D01*
X249388112Y-109249000D01*
X249434468Y-109253565D01*
G37*
G36*
X251309468Y-109253565D02*
G01*
X251348138Y-109265296D01*
X251383777Y-109284346D01*
X251415017Y-109309983D01*
X251440654Y-109341223D01*
X251459704Y-109376862D01*
X251471435Y-109415532D01*
X251476000Y-109461888D01*
X251476000Y-110538112D01*
X251471435Y-110584468D01*
X251459704Y-110623138D01*
X251440654Y-110658777D01*
X251415017Y-110690017D01*
X251383777Y-110715654D01*
X251348138Y-110734704D01*
X251309468Y-110746435D01*
X251263112Y-110751000D01*
X250611888Y-110751000D01*
X250565532Y-110746435D01*
X250526862Y-110734704D01*
X250491223Y-110715654D01*
X250459983Y-110690017D01*
X250434346Y-110658777D01*
X250415296Y-110623138D01*
X250403565Y-110584468D01*
X250399000Y-110538112D01*
X250399000Y-109461888D01*
X250403565Y-109415532D01*
X250415296Y-109376862D01*
X250434346Y-109341223D01*
X250459983Y-109309983D01*
X250491223Y-109284346D01*
X250526862Y-109265296D01*
X250565532Y-109253565D01*
X250611888Y-109249000D01*
X251263112Y-109249000D01*
X251309468Y-109253565D01*
G37*
G36*
X293779434Y-108453686D02*
G01*
X293819284Y-108465774D01*
X293855999Y-108485399D01*
X293888186Y-108511814D01*
X293914601Y-108544001D01*
X293934226Y-108580716D01*
X293946314Y-108620566D01*
X293951000Y-108668141D01*
X293951000Y-109331859D01*
X293946314Y-109379434D01*
X293934226Y-109419284D01*
X293914601Y-109455999D01*
X293888186Y-109488186D01*
X293855999Y-109514601D01*
X293819284Y-109534226D01*
X293779434Y-109546314D01*
X293731859Y-109551000D01*
X290568141Y-109551000D01*
X290520566Y-109546314D01*
X290480716Y-109534226D01*
X290444001Y-109514601D01*
X290411814Y-109488186D01*
X290385399Y-109455999D01*
X290365774Y-109419284D01*
X290353686Y-109379434D01*
X290349000Y-109331859D01*
X290349000Y-108668141D01*
X290353686Y-108620566D01*
X290365774Y-108580716D01*
X290385399Y-108544001D01*
X290411814Y-108511814D01*
X290444001Y-108485399D01*
X290480716Y-108465774D01*
X290520566Y-108453686D01*
X290568141Y-108449000D01*
X293731859Y-108449000D01*
X293779434Y-108453686D01*
G37*
G36*
X293779434Y-106453686D02*
G01*
X293819284Y-106465774D01*
X293855999Y-106485399D01*
X293888186Y-106511814D01*
X293914601Y-106544001D01*
X293934226Y-106580716D01*
X293946314Y-106620566D01*
X293951000Y-106668141D01*
X293951000Y-107331859D01*
X293946314Y-107379434D01*
X293934226Y-107419284D01*
X293914601Y-107455999D01*
X293888186Y-107488186D01*
X293855999Y-107514601D01*
X293819284Y-107534226D01*
X293779434Y-107546314D01*
X293731859Y-107551000D01*
X290568141Y-107551000D01*
X290520566Y-107546314D01*
X290480716Y-107534226D01*
X290444001Y-107514601D01*
X290411814Y-107488186D01*
X290385399Y-107455999D01*
X290365774Y-107419284D01*
X290353686Y-107379434D01*
X290349000Y-107331859D01*
X290349000Y-106668141D01*
X290353686Y-106620566D01*
X290365774Y-106580716D01*
X290385399Y-106544001D01*
X290411814Y-106511814D01*
X290444001Y-106485399D01*
X290480716Y-106465774D01*
X290520566Y-106453686D01*
X290568141Y-106449000D01*
X293731859Y-106449000D01*
X293779434Y-106453686D01*
G37*
G36*
X236701000Y-106701000D02*
G01*
X236099000Y-106701000D01*
X236099000Y-103299000D01*
X236701000Y-103299000D01*
X236701000Y-106701000D01*
G37*
G36*
X213901000Y-106701000D02*
G01*
X213299000Y-106701000D01*
X213299000Y-103299000D01*
X213901000Y-103299000D01*
X213901000Y-106701000D01*
G37*
G36*
X216701000Y-106701000D02*
G01*
X216099000Y-106701000D01*
X216099000Y-103299000D01*
X216701000Y-103299000D01*
X216701000Y-106701000D01*
G37*
G36*
X225701000Y-106701000D02*
G01*
X224299000Y-106701000D01*
X224299000Y-103299000D01*
X225701000Y-103299000D01*
X225701000Y-106701000D01*
G37*
G36*
X223901000Y-106701000D02*
G01*
X223299000Y-106701000D01*
X223299000Y-103299000D01*
X223901000Y-103299000D01*
X223901000Y-106701000D01*
G37*
G36*
X226701000Y-106701000D02*
G01*
X226099000Y-106701000D01*
X226099000Y-103299000D01*
X226701000Y-103299000D01*
X226701000Y-106701000D01*
G37*
G36*
X235701000Y-106701000D02*
G01*
X234299000Y-106701000D01*
X234299000Y-103299000D01*
X235701000Y-103299000D01*
X235701000Y-106701000D01*
G37*
G36*
X233901000Y-106701000D02*
G01*
X233299000Y-106701000D01*
X233299000Y-103299000D01*
X233901000Y-103299000D01*
X233901000Y-106701000D01*
G37*
G36*
X245701000Y-106701000D02*
G01*
X244299000Y-106701000D01*
X244299000Y-103299000D01*
X245701000Y-103299000D01*
X245701000Y-106701000D01*
G37*
G36*
X243901000Y-106701000D02*
G01*
X243299000Y-106701000D01*
X243299000Y-103299000D01*
X243901000Y-103299000D01*
X243901000Y-106701000D01*
G37*
G36*
X215701000Y-106701000D02*
G01*
X214299000Y-106701000D01*
X214299000Y-103299000D01*
X215701000Y-103299000D01*
X215701000Y-106701000D01*
G37*
G36*
X255701000Y-106701000D02*
G01*
X254299000Y-106701000D01*
X254299000Y-103299000D01*
X255701000Y-103299000D01*
X255701000Y-106701000D01*
G37*
G36*
X256701000Y-106701000D02*
G01*
X256099000Y-106701000D01*
X256099000Y-103299000D01*
X256701000Y-103299000D01*
X256701000Y-106701000D01*
G37*
G36*
X265701000Y-106701000D02*
G01*
X264299000Y-106701000D01*
X264299000Y-103299000D01*
X265701000Y-103299000D01*
X265701000Y-106701000D01*
G37*
G36*
X263901000Y-106701000D02*
G01*
X263299000Y-106701000D01*
X263299000Y-103299000D01*
X263901000Y-103299000D01*
X263901000Y-106701000D01*
G37*
G36*
X246701000Y-106701000D02*
G01*
X246099000Y-106701000D01*
X246099000Y-103299000D01*
X246701000Y-103299000D01*
X246701000Y-106701000D01*
G37*
G36*
X266701000Y-106701000D02*
G01*
X266099000Y-106701000D01*
X266099000Y-103299000D01*
X266701000Y-103299000D01*
X266701000Y-106701000D01*
G37*
G36*
X275701000Y-106701000D02*
G01*
X274299000Y-106701000D01*
X274299000Y-103299000D01*
X275701000Y-103299000D01*
X275701000Y-106701000D01*
G37*
G36*
X273901000Y-106701000D02*
G01*
X273299000Y-106701000D01*
X273299000Y-103299000D01*
X273901000Y-103299000D01*
X273901000Y-106701000D01*
G37*
G36*
X276701000Y-106701000D02*
G01*
X276099000Y-106701000D01*
X276099000Y-103299000D01*
X276701000Y-103299000D01*
X276701000Y-106701000D01*
G37*
G36*
X286701000Y-106701000D02*
G01*
X286099000Y-106701000D01*
X286099000Y-103299000D01*
X286701000Y-103299000D01*
X286701000Y-106701000D01*
G37*
G36*
X283901000Y-106701000D02*
G01*
X283299000Y-106701000D01*
X283299000Y-103299000D01*
X283901000Y-103299000D01*
X283901000Y-106701000D01*
G37*
G36*
X285701000Y-106701000D02*
G01*
X284299000Y-106701000D01*
X284299000Y-103299000D01*
X285701000Y-103299000D01*
X285701000Y-106701000D01*
G37*
G36*
X253901000Y-106701000D02*
G01*
X253299000Y-106701000D01*
X253299000Y-103299000D01*
X253901000Y-103299000D01*
X253901000Y-106701000D01*
G37*
G36*
X299503048Y-103853122D02*
G01*
X299537387Y-103863539D01*
X299569036Y-103880456D01*
X299596778Y-103903222D01*
X299619544Y-103930964D01*
X299636461Y-103962613D01*
X299646878Y-103996952D01*
X299651000Y-104038807D01*
X299651000Y-105261193D01*
X299646878Y-105303048D01*
X299636461Y-105337387D01*
X299619544Y-105369036D01*
X299596778Y-105396778D01*
X299569036Y-105419544D01*
X299537387Y-105436461D01*
X299503048Y-105446878D01*
X299461193Y-105451000D01*
X296338807Y-105451000D01*
X296296952Y-105446878D01*
X296262613Y-105436461D01*
X296230964Y-105419544D01*
X296203222Y-105396778D01*
X296180456Y-105369036D01*
X296163539Y-105337387D01*
X296153122Y-105303048D01*
X296149000Y-105261193D01*
X296149000Y-104038807D01*
X296153122Y-103996952D01*
X296163539Y-103962613D01*
X296180456Y-103930964D01*
X296203222Y-103903222D01*
X296230964Y-103880456D01*
X296262613Y-103863539D01*
X296296952Y-103853122D01*
X296338807Y-103849000D01*
X299461193Y-103849000D01*
X299503048Y-103853122D01*
G37*
G36*
X246701000Y-96701000D02*
G01*
X246099000Y-96701000D01*
X246099000Y-93299000D01*
X246701000Y-93299000D01*
X246701000Y-96701000D01*
G37*
G36*
X213901000Y-96701000D02*
G01*
X213299000Y-96701000D01*
X213299000Y-93299000D01*
X213901000Y-93299000D01*
X213901000Y-96701000D01*
G37*
G36*
X215701000Y-96701000D02*
G01*
X214299000Y-96701000D01*
X214299000Y-93299000D01*
X215701000Y-93299000D01*
X215701000Y-96701000D01*
G37*
G36*
X216701000Y-96701000D02*
G01*
X216099000Y-96701000D01*
X216099000Y-93299000D01*
X216701000Y-93299000D01*
X216701000Y-96701000D01*
G37*
G36*
X223901000Y-96701000D02*
G01*
X223299000Y-96701000D01*
X223299000Y-93299000D01*
X223901000Y-93299000D01*
X223901000Y-96701000D01*
G37*
G36*
X226701000Y-96701000D02*
G01*
X226099000Y-96701000D01*
X226099000Y-93299000D01*
X226701000Y-93299000D01*
X226701000Y-96701000D01*
G37*
G36*
X236701000Y-96701000D02*
G01*
X236099000Y-96701000D01*
X236099000Y-93299000D01*
X236701000Y-93299000D01*
X236701000Y-96701000D01*
G37*
G36*
X225701000Y-96701000D02*
G01*
X224299000Y-96701000D01*
X224299000Y-93299000D01*
X225701000Y-93299000D01*
X225701000Y-96701000D01*
G37*
G36*
X285701000Y-96701000D02*
G01*
X284299000Y-96701000D01*
X284299000Y-93299000D01*
X285701000Y-93299000D01*
X285701000Y-96701000D01*
G37*
G36*
X255701000Y-96701000D02*
G01*
X254299000Y-96701000D01*
X254299000Y-93299000D01*
X255701000Y-93299000D01*
X255701000Y-96701000D01*
G37*
G36*
X286701000Y-96701000D02*
G01*
X286099000Y-96701000D01*
X286099000Y-93299000D01*
X286701000Y-93299000D01*
X286701000Y-96701000D01*
G37*
G36*
X275701000Y-96701000D02*
G01*
X274299000Y-96701000D01*
X274299000Y-93299000D01*
X275701000Y-93299000D01*
X275701000Y-96701000D01*
G37*
G36*
X276701000Y-96701000D02*
G01*
X276099000Y-96701000D01*
X276099000Y-93299000D01*
X276701000Y-93299000D01*
X276701000Y-96701000D01*
G37*
G36*
X283901000Y-96701000D02*
G01*
X283299000Y-96701000D01*
X283299000Y-93299000D01*
X283901000Y-93299000D01*
X283901000Y-96701000D01*
G37*
G36*
X233901000Y-96701000D02*
G01*
X233299000Y-96701000D01*
X233299000Y-93299000D01*
X233901000Y-93299000D01*
X233901000Y-96701000D01*
G37*
G36*
X235701000Y-96701000D02*
G01*
X234299000Y-96701000D01*
X234299000Y-93299000D01*
X235701000Y-93299000D01*
X235701000Y-96701000D01*
G37*
G36*
X273901000Y-96701000D02*
G01*
X273299000Y-96701000D01*
X273299000Y-93299000D01*
X273901000Y-93299000D01*
X273901000Y-96701000D01*
G37*
G36*
X243901000Y-96701000D02*
G01*
X243299000Y-96701000D01*
X243299000Y-93299000D01*
X243901000Y-93299000D01*
X243901000Y-96701000D01*
G37*
G36*
X245701000Y-96701000D02*
G01*
X244299000Y-96701000D01*
X244299000Y-93299000D01*
X245701000Y-93299000D01*
X245701000Y-96701000D01*
G37*
G36*
X256701000Y-96701000D02*
G01*
X256099000Y-96701000D01*
X256099000Y-93299000D01*
X256701000Y-93299000D01*
X256701000Y-96701000D01*
G37*
G36*
X253901000Y-96701000D02*
G01*
X253299000Y-96701000D01*
X253299000Y-93299000D01*
X253901000Y-93299000D01*
X253901000Y-96701000D01*
G37*
G36*
X266701000Y-96701000D02*
G01*
X266099000Y-96701000D01*
X266099000Y-93299000D01*
X266701000Y-93299000D01*
X266701000Y-96701000D01*
G37*
G36*
X263901000Y-96701000D02*
G01*
X263299000Y-96701000D01*
X263299000Y-93299000D01*
X263901000Y-93299000D01*
X263901000Y-96701000D01*
G37*
G36*
X265701000Y-96701000D02*
G01*
X264299000Y-96701000D01*
X264299000Y-93299000D01*
X265701000Y-93299000D01*
X265701000Y-96701000D01*
G37*
G36*
X236701000Y-86701000D02*
G01*
X236099000Y-86701000D01*
X236099000Y-83299000D01*
X236701000Y-83299000D01*
X236701000Y-86701000D01*
G37*
G36*
X243901000Y-86701000D02*
G01*
X243299000Y-86701000D01*
X243299000Y-83299000D01*
X243901000Y-83299000D01*
X243901000Y-86701000D01*
G37*
G36*
X235701000Y-86701000D02*
G01*
X234299000Y-86701000D01*
X234299000Y-83299000D01*
X235701000Y-83299000D01*
X235701000Y-86701000D01*
G37*
G36*
X245701000Y-86701000D02*
G01*
X244299000Y-86701000D01*
X244299000Y-83299000D01*
X245701000Y-83299000D01*
X245701000Y-86701000D01*
G37*
G36*
X246701000Y-86701000D02*
G01*
X246099000Y-86701000D01*
X246099000Y-83299000D01*
X246701000Y-83299000D01*
X246701000Y-86701000D01*
G37*
G36*
X253901000Y-86701000D02*
G01*
X253299000Y-86701000D01*
X253299000Y-83299000D01*
X253901000Y-83299000D01*
X253901000Y-86701000D01*
G37*
G36*
X255701000Y-86701000D02*
G01*
X254299000Y-86701000D01*
X254299000Y-83299000D01*
X255701000Y-83299000D01*
X255701000Y-86701000D01*
G37*
G36*
X256701000Y-86701000D02*
G01*
X256099000Y-86701000D01*
X256099000Y-83299000D01*
X256701000Y-83299000D01*
X256701000Y-86701000D01*
G37*
G36*
X286701000Y-86701000D02*
G01*
X286099000Y-86701000D01*
X286099000Y-83299000D01*
X286701000Y-83299000D01*
X286701000Y-86701000D01*
G37*
G36*
X285701000Y-86701000D02*
G01*
X284299000Y-86701000D01*
X284299000Y-83299000D01*
X285701000Y-83299000D01*
X285701000Y-86701000D01*
G37*
G36*
X283901000Y-86701000D02*
G01*
X283299000Y-86701000D01*
X283299000Y-83299000D01*
X283901000Y-83299000D01*
X283901000Y-86701000D01*
G37*
G36*
X215701000Y-86701000D02*
G01*
X214299000Y-86701000D01*
X214299000Y-83299000D01*
X215701000Y-83299000D01*
X215701000Y-86701000D01*
G37*
G36*
X263901000Y-86701000D02*
G01*
X263299000Y-86701000D01*
X263299000Y-83299000D01*
X263901000Y-83299000D01*
X263901000Y-86701000D01*
G37*
G36*
X233901000Y-86701000D02*
G01*
X233299000Y-86701000D01*
X233299000Y-83299000D01*
X233901000Y-83299000D01*
X233901000Y-86701000D01*
G37*
G36*
X223901000Y-86701000D02*
G01*
X223299000Y-86701000D01*
X223299000Y-83299000D01*
X223901000Y-83299000D01*
X223901000Y-86701000D01*
G37*
G36*
X225701000Y-86701000D02*
G01*
X224299000Y-86701000D01*
X224299000Y-83299000D01*
X225701000Y-83299000D01*
X225701000Y-86701000D01*
G37*
G36*
X265701000Y-86701000D02*
G01*
X264299000Y-86701000D01*
X264299000Y-83299000D01*
X265701000Y-83299000D01*
X265701000Y-86701000D01*
G37*
G36*
X266701000Y-86701000D02*
G01*
X266099000Y-86701000D01*
X266099000Y-83299000D01*
X266701000Y-83299000D01*
X266701000Y-86701000D01*
G37*
G36*
X273901000Y-86701000D02*
G01*
X273299000Y-86701000D01*
X273299000Y-83299000D01*
X273901000Y-83299000D01*
X273901000Y-86701000D01*
G37*
G36*
X275701000Y-86701000D02*
G01*
X274299000Y-86701000D01*
X274299000Y-83299000D01*
X275701000Y-83299000D01*
X275701000Y-86701000D01*
G37*
G36*
X213901000Y-86701000D02*
G01*
X213299000Y-86701000D01*
X213299000Y-83299000D01*
X213901000Y-83299000D01*
X213901000Y-86701000D01*
G37*
G36*
X216701000Y-86701000D02*
G01*
X216099000Y-86701000D01*
X216099000Y-83299000D01*
X216701000Y-83299000D01*
X216701000Y-86701000D01*
G37*
G36*
X276701000Y-86701000D02*
G01*
X276099000Y-86701000D01*
X276099000Y-83299000D01*
X276701000Y-83299000D01*
X276701000Y-86701000D01*
G37*
G36*
X226701000Y-86701000D02*
G01*
X226099000Y-86701000D01*
X226099000Y-83299000D01*
X226701000Y-83299000D01*
X226701000Y-86701000D01*
G37*
G36*
X245701000Y-76701000D02*
G01*
X244299000Y-76701000D01*
X244299000Y-73299000D01*
X245701000Y-73299000D01*
X245701000Y-76701000D01*
G37*
G36*
X216701000Y-76701000D02*
G01*
X216099000Y-76701000D01*
X216099000Y-73299000D01*
X216701000Y-73299000D01*
X216701000Y-76701000D01*
G37*
G36*
X235701000Y-76701000D02*
G01*
X234299000Y-76701000D01*
X234299000Y-73299000D01*
X235701000Y-73299000D01*
X235701000Y-76701000D01*
G37*
G36*
X226701000Y-76701000D02*
G01*
X226099000Y-76701000D01*
X226099000Y-73299000D01*
X226701000Y-73299000D01*
X226701000Y-76701000D01*
G37*
G36*
X225701000Y-76701000D02*
G01*
X224299000Y-76701000D01*
X224299000Y-73299000D01*
X225701000Y-73299000D01*
X225701000Y-76701000D01*
G37*
G36*
X223901000Y-76701000D02*
G01*
X223299000Y-76701000D01*
X223299000Y-73299000D01*
X223901000Y-73299000D01*
X223901000Y-76701000D01*
G37*
G36*
X215701000Y-76701000D02*
G01*
X214299000Y-76701000D01*
X214299000Y-73299000D01*
X215701000Y-73299000D01*
X215701000Y-76701000D01*
G37*
G36*
X213901000Y-76701000D02*
G01*
X213299000Y-76701000D01*
X213299000Y-73299000D01*
X213901000Y-73299000D01*
X213901000Y-76701000D01*
G37*
G36*
X243901000Y-76701000D02*
G01*
X243299000Y-76701000D01*
X243299000Y-73299000D01*
X243901000Y-73299000D01*
X243901000Y-76701000D01*
G37*
G36*
X246701000Y-76701000D02*
G01*
X246099000Y-76701000D01*
X246099000Y-73299000D01*
X246701000Y-73299000D01*
X246701000Y-76701000D01*
G37*
G36*
X233901000Y-76701000D02*
G01*
X233299000Y-76701000D01*
X233299000Y-73299000D01*
X233901000Y-73299000D01*
X233901000Y-76701000D01*
G37*
G36*
X236701000Y-76701000D02*
G01*
X236099000Y-76701000D01*
X236099000Y-73299000D01*
X236701000Y-73299000D01*
X236701000Y-76701000D01*
G37*
G36*
X283901000Y-76701000D02*
G01*
X283299000Y-76701000D01*
X283299000Y-73299000D01*
X283901000Y-73299000D01*
X283901000Y-76701000D01*
G37*
G36*
X285701000Y-76701000D02*
G01*
X284299000Y-76701000D01*
X284299000Y-73299000D01*
X285701000Y-73299000D01*
X285701000Y-76701000D01*
G37*
G36*
X255701000Y-76701000D02*
G01*
X254299000Y-76701000D01*
X254299000Y-73299000D01*
X255701000Y-73299000D01*
X255701000Y-76701000D01*
G37*
G36*
X253901000Y-76701000D02*
G01*
X253299000Y-76701000D01*
X253299000Y-73299000D01*
X253901000Y-73299000D01*
X253901000Y-76701000D01*
G37*
G36*
X256701000Y-76701000D02*
G01*
X256099000Y-76701000D01*
X256099000Y-73299000D01*
X256701000Y-73299000D01*
X256701000Y-76701000D01*
G37*
G36*
X266701000Y-76701000D02*
G01*
X266099000Y-76701000D01*
X266099000Y-73299000D01*
X266701000Y-73299000D01*
X266701000Y-76701000D01*
G37*
G36*
X263901000Y-76701000D02*
G01*
X263299000Y-76701000D01*
X263299000Y-73299000D01*
X263901000Y-73299000D01*
X263901000Y-76701000D01*
G37*
G36*
X265701000Y-76701000D02*
G01*
X264299000Y-76701000D01*
X264299000Y-73299000D01*
X265701000Y-73299000D01*
X265701000Y-76701000D01*
G37*
G36*
X276701000Y-76701000D02*
G01*
X276099000Y-76701000D01*
X276099000Y-73299000D01*
X276701000Y-73299000D01*
X276701000Y-76701000D01*
G37*
G36*
X273901000Y-76701000D02*
G01*
X273299000Y-76701000D01*
X273299000Y-73299000D01*
X273901000Y-73299000D01*
X273901000Y-76701000D01*
G37*
G36*
X275701000Y-76701000D02*
G01*
X274299000Y-76701000D01*
X274299000Y-73299000D01*
X275701000Y-73299000D01*
X275701000Y-76701000D01*
G37*
G36*
X286701000Y-76701000D02*
G01*
X286099000Y-76701000D01*
X286099000Y-73299000D01*
X286701000Y-73299000D01*
X286701000Y-76701000D01*
G37*
G36*
X235379434Y-66053686D02*
G01*
X235419284Y-66065774D01*
X235455999Y-66085399D01*
X235488186Y-66111814D01*
X235514601Y-66144001D01*
X235534226Y-66180716D01*
X235546314Y-66220566D01*
X235551000Y-66268141D01*
X235551000Y-69431859D01*
X235546314Y-69479434D01*
X235534226Y-69519284D01*
X235514601Y-69555999D01*
X235488186Y-69588186D01*
X235455999Y-69614601D01*
X235419284Y-69634226D01*
X235379434Y-69646314D01*
X235331859Y-69651000D01*
X234668141Y-69651000D01*
X234620566Y-69646314D01*
X234580716Y-69634226D01*
X234544001Y-69614601D01*
X234511814Y-69588186D01*
X234485399Y-69555999D01*
X234465774Y-69519284D01*
X234453686Y-69479434D01*
X234449000Y-69431859D01*
X234449000Y-66268141D01*
X234453686Y-66220566D01*
X234465774Y-66180716D01*
X234485399Y-66144001D01*
X234511814Y-66111814D01*
X234544001Y-66085399D01*
X234580716Y-66065774D01*
X234620566Y-66053686D01*
X234668141Y-66049000D01*
X235331859Y-66049000D01*
X235379434Y-66053686D01*
G37*
G36*
X237379434Y-66053686D02*
G01*
X237419284Y-66065774D01*
X237455999Y-66085399D01*
X237488186Y-66111814D01*
X237514601Y-66144001D01*
X237534226Y-66180716D01*
X237546314Y-66220566D01*
X237551000Y-66268141D01*
X237551000Y-69431859D01*
X237546314Y-69479434D01*
X237534226Y-69519284D01*
X237514601Y-69555999D01*
X237488186Y-69588186D01*
X237455999Y-69614601D01*
X237419284Y-69634226D01*
X237379434Y-69646314D01*
X237331859Y-69651000D01*
X236668141Y-69651000D01*
X236620566Y-69646314D01*
X236580716Y-69634226D01*
X236544001Y-69614601D01*
X236511814Y-69588186D01*
X236485399Y-69555999D01*
X236465774Y-69519284D01*
X236453686Y-69479434D01*
X236449000Y-69431859D01*
X236449000Y-66268141D01*
X236453686Y-66220566D01*
X236465774Y-66180716D01*
X236485399Y-66144001D01*
X236511814Y-66111814D01*
X236544001Y-66085399D01*
X236580716Y-66065774D01*
X236620566Y-66053686D01*
X236668141Y-66049000D01*
X237331859Y-66049000D01*
X237379434Y-66053686D01*
G37*
G36*
X233379434Y-66053686D02*
G01*
X233419284Y-66065774D01*
X233455999Y-66085399D01*
X233488186Y-66111814D01*
X233514601Y-66144001D01*
X233534226Y-66180716D01*
X233546314Y-66220566D01*
X233551000Y-66268141D01*
X233551000Y-69431859D01*
X233546314Y-69479434D01*
X233534226Y-69519284D01*
X233514601Y-69555999D01*
X233488186Y-69588186D01*
X233455999Y-69614601D01*
X233419284Y-69634226D01*
X233379434Y-69646314D01*
X233331859Y-69651000D01*
X232668141Y-69651000D01*
X232620566Y-69646314D01*
X232580716Y-69634226D01*
X232544001Y-69614601D01*
X232511814Y-69588186D01*
X232485399Y-69555999D01*
X232465774Y-69519284D01*
X232453686Y-69479434D01*
X232449000Y-69431859D01*
X232449000Y-66268141D01*
X232453686Y-66220566D01*
X232465774Y-66180716D01*
X232485399Y-66144001D01*
X232511814Y-66111814D01*
X232544001Y-66085399D01*
X232580716Y-66065774D01*
X232620566Y-66053686D01*
X232668141Y-66049000D01*
X233331859Y-66049000D01*
X233379434Y-66053686D01*
G37*
G36*
X231379434Y-66053686D02*
G01*
X231419284Y-66065774D01*
X231455999Y-66085399D01*
X231488186Y-66111814D01*
X231514601Y-66144001D01*
X231534226Y-66180716D01*
X231546314Y-66220566D01*
X231551000Y-66268141D01*
X231551000Y-69431859D01*
X231546314Y-69479434D01*
X231534226Y-69519284D01*
X231514601Y-69555999D01*
X231488186Y-69588186D01*
X231455999Y-69614601D01*
X231419284Y-69634226D01*
X231379434Y-69646314D01*
X231331859Y-69651000D01*
X230668141Y-69651000D01*
X230620566Y-69646314D01*
X230580716Y-69634226D01*
X230544001Y-69614601D01*
X230511814Y-69588186D01*
X230485399Y-69555999D01*
X230465774Y-69519284D01*
X230453686Y-69479434D01*
X230449000Y-69431859D01*
X230449000Y-66268141D01*
X230453686Y-66220566D01*
X230465774Y-66180716D01*
X230485399Y-66144001D01*
X230511814Y-66111814D01*
X230544001Y-66085399D01*
X230580716Y-66065774D01*
X230620566Y-66053686D01*
X230668141Y-66049000D01*
X231331859Y-66049000D01*
X231379434Y-66053686D01*
G37*
G36*
X229379434Y-66053686D02*
G01*
X229419284Y-66065774D01*
X229455999Y-66085399D01*
X229488186Y-66111814D01*
X229514601Y-66144001D01*
X229534226Y-66180716D01*
X229546314Y-66220566D01*
X229551000Y-66268141D01*
X229551000Y-69431859D01*
X229546314Y-69479434D01*
X229534226Y-69519284D01*
X229514601Y-69555999D01*
X229488186Y-69588186D01*
X229455999Y-69614601D01*
X229419284Y-69634226D01*
X229379434Y-69646314D01*
X229331859Y-69651000D01*
X228668141Y-69651000D01*
X228620566Y-69646314D01*
X228580716Y-69634226D01*
X228544001Y-69614601D01*
X228511814Y-69588186D01*
X228485399Y-69555999D01*
X228465774Y-69519284D01*
X228453686Y-69479434D01*
X228449000Y-69431859D01*
X228449000Y-66268141D01*
X228453686Y-66220566D01*
X228465774Y-66180716D01*
X228485399Y-66144001D01*
X228511814Y-66111814D01*
X228544001Y-66085399D01*
X228580716Y-66065774D01*
X228620566Y-66053686D01*
X228668141Y-66049000D01*
X229331859Y-66049000D01*
X229379434Y-66053686D01*
G37*
G36*
X269379434Y-66053686D02*
G01*
X269419284Y-66065774D01*
X269455999Y-66085399D01*
X269488186Y-66111814D01*
X269514601Y-66144001D01*
X269534226Y-66180716D01*
X269546314Y-66220566D01*
X269551000Y-66268141D01*
X269551000Y-69431859D01*
X269546314Y-69479434D01*
X269534226Y-69519284D01*
X269514601Y-69555999D01*
X269488186Y-69588186D01*
X269455999Y-69614601D01*
X269419284Y-69634226D01*
X269379434Y-69646314D01*
X269331859Y-69651000D01*
X268668141Y-69651000D01*
X268620566Y-69646314D01*
X268580716Y-69634226D01*
X268544001Y-69614601D01*
X268511814Y-69588186D01*
X268485399Y-69555999D01*
X268465774Y-69519284D01*
X268453686Y-69479434D01*
X268449000Y-69431859D01*
X268449000Y-66268141D01*
X268453686Y-66220566D01*
X268465774Y-66180716D01*
X268485399Y-66144001D01*
X268511814Y-66111814D01*
X268544001Y-66085399D01*
X268580716Y-66065774D01*
X268620566Y-66053686D01*
X268668141Y-66049000D01*
X269331859Y-66049000D01*
X269379434Y-66053686D01*
G37*
G36*
X227379434Y-66053686D02*
G01*
X227419284Y-66065774D01*
X227455999Y-66085399D01*
X227488186Y-66111814D01*
X227514601Y-66144001D01*
X227534226Y-66180716D01*
X227546314Y-66220566D01*
X227551000Y-66268141D01*
X227551000Y-69431859D01*
X227546314Y-69479434D01*
X227534226Y-69519284D01*
X227514601Y-69555999D01*
X227488186Y-69588186D01*
X227455999Y-69614601D01*
X227419284Y-69634226D01*
X227379434Y-69646314D01*
X227331859Y-69651000D01*
X226668141Y-69651000D01*
X226620566Y-69646314D01*
X226580716Y-69634226D01*
X226544001Y-69614601D01*
X226511814Y-69588186D01*
X226485399Y-69555999D01*
X226465774Y-69519284D01*
X226453686Y-69479434D01*
X226449000Y-69431859D01*
X226449000Y-66268141D01*
X226453686Y-66220566D01*
X226465774Y-66180716D01*
X226485399Y-66144001D01*
X226511814Y-66111814D01*
X226544001Y-66085399D01*
X226580716Y-66065774D01*
X226620566Y-66053686D01*
X226668141Y-66049000D01*
X227331859Y-66049000D01*
X227379434Y-66053686D01*
G37*
G36*
X225379434Y-66053686D02*
G01*
X225419284Y-66065774D01*
X225455999Y-66085399D01*
X225488186Y-66111814D01*
X225514601Y-66144001D01*
X225534226Y-66180716D01*
X225546314Y-66220566D01*
X225551000Y-66268141D01*
X225551000Y-69431859D01*
X225546314Y-69479434D01*
X225534226Y-69519284D01*
X225514601Y-69555999D01*
X225488186Y-69588186D01*
X225455999Y-69614601D01*
X225419284Y-69634226D01*
X225379434Y-69646314D01*
X225331859Y-69651000D01*
X224668141Y-69651000D01*
X224620566Y-69646314D01*
X224580716Y-69634226D01*
X224544001Y-69614601D01*
X224511814Y-69588186D01*
X224485399Y-69555999D01*
X224465774Y-69519284D01*
X224453686Y-69479434D01*
X224449000Y-69431859D01*
X224449000Y-66268141D01*
X224453686Y-66220566D01*
X224465774Y-66180716D01*
X224485399Y-66144001D01*
X224511814Y-66111814D01*
X224544001Y-66085399D01*
X224580716Y-66065774D01*
X224620566Y-66053686D01*
X224668141Y-66049000D01*
X225331859Y-66049000D01*
X225379434Y-66053686D01*
G37*
G36*
X277379434Y-66053686D02*
G01*
X277419284Y-66065774D01*
X277455999Y-66085399D01*
X277488186Y-66111814D01*
X277514601Y-66144001D01*
X277534226Y-66180716D01*
X277546314Y-66220566D01*
X277551000Y-66268141D01*
X277551000Y-69431859D01*
X277546314Y-69479434D01*
X277534226Y-69519284D01*
X277514601Y-69555999D01*
X277488186Y-69588186D01*
X277455999Y-69614601D01*
X277419284Y-69634226D01*
X277379434Y-69646314D01*
X277331859Y-69651000D01*
X276668141Y-69651000D01*
X276620566Y-69646314D01*
X276580716Y-69634226D01*
X276544001Y-69614601D01*
X276511814Y-69588186D01*
X276485399Y-69555999D01*
X276465774Y-69519284D01*
X276453686Y-69479434D01*
X276449000Y-69431859D01*
X276449000Y-66268141D01*
X276453686Y-66220566D01*
X276465774Y-66180716D01*
X276485399Y-66144001D01*
X276511814Y-66111814D01*
X276544001Y-66085399D01*
X276580716Y-66065774D01*
X276620566Y-66053686D01*
X276668141Y-66049000D01*
X277331859Y-66049000D01*
X277379434Y-66053686D01*
G37*
G36*
X273379434Y-66053686D02*
G01*
X273419284Y-66065774D01*
X273455999Y-66085399D01*
X273488186Y-66111814D01*
X273514601Y-66144001D01*
X273534226Y-66180716D01*
X273546314Y-66220566D01*
X273551000Y-66268141D01*
X273551000Y-69431859D01*
X273546314Y-69479434D01*
X273534226Y-69519284D01*
X273514601Y-69555999D01*
X273488186Y-69588186D01*
X273455999Y-69614601D01*
X273419284Y-69634226D01*
X273379434Y-69646314D01*
X273331859Y-69651000D01*
X272668141Y-69651000D01*
X272620566Y-69646314D01*
X272580716Y-69634226D01*
X272544001Y-69614601D01*
X272511814Y-69588186D01*
X272485399Y-69555999D01*
X272465774Y-69519284D01*
X272453686Y-69479434D01*
X272449000Y-69431859D01*
X272449000Y-66268141D01*
X272453686Y-66220566D01*
X272465774Y-66180716D01*
X272485399Y-66144001D01*
X272511814Y-66111814D01*
X272544001Y-66085399D01*
X272580716Y-66065774D01*
X272620566Y-66053686D01*
X272668141Y-66049000D01*
X273331859Y-66049000D01*
X273379434Y-66053686D01*
G37*
G36*
X271379434Y-66053686D02*
G01*
X271419284Y-66065774D01*
X271455999Y-66085399D01*
X271488186Y-66111814D01*
X271514601Y-66144001D01*
X271534226Y-66180716D01*
X271546314Y-66220566D01*
X271551000Y-66268141D01*
X271551000Y-69431859D01*
X271546314Y-69479434D01*
X271534226Y-69519284D01*
X271514601Y-69555999D01*
X271488186Y-69588186D01*
X271455999Y-69614601D01*
X271419284Y-69634226D01*
X271379434Y-69646314D01*
X271331859Y-69651000D01*
X270668141Y-69651000D01*
X270620566Y-69646314D01*
X270580716Y-69634226D01*
X270544001Y-69614601D01*
X270511814Y-69588186D01*
X270485399Y-69555999D01*
X270465774Y-69519284D01*
X270453686Y-69479434D01*
X270449000Y-69431859D01*
X270449000Y-66268141D01*
X270453686Y-66220566D01*
X270465774Y-66180716D01*
X270485399Y-66144001D01*
X270511814Y-66111814D01*
X270544001Y-66085399D01*
X270580716Y-66065774D01*
X270620566Y-66053686D01*
X270668141Y-66049000D01*
X271331859Y-66049000D01*
X271379434Y-66053686D01*
G37*
G36*
X267379434Y-66053686D02*
G01*
X267419284Y-66065774D01*
X267455999Y-66085399D01*
X267488186Y-66111814D01*
X267514601Y-66144001D01*
X267534226Y-66180716D01*
X267546314Y-66220566D01*
X267551000Y-66268141D01*
X267551000Y-69431859D01*
X267546314Y-69479434D01*
X267534226Y-69519284D01*
X267514601Y-69555999D01*
X267488186Y-69588186D01*
X267455999Y-69614601D01*
X267419284Y-69634226D01*
X267379434Y-69646314D01*
X267331859Y-69651000D01*
X266668141Y-69651000D01*
X266620566Y-69646314D01*
X266580716Y-69634226D01*
X266544001Y-69614601D01*
X266511814Y-69588186D01*
X266485399Y-69555999D01*
X266465774Y-69519284D01*
X266453686Y-69479434D01*
X266449000Y-69431859D01*
X266449000Y-66268141D01*
X266453686Y-66220566D01*
X266465774Y-66180716D01*
X266485399Y-66144001D01*
X266511814Y-66111814D01*
X266544001Y-66085399D01*
X266580716Y-66065774D01*
X266620566Y-66053686D01*
X266668141Y-66049000D01*
X267331859Y-66049000D01*
X267379434Y-66053686D01*
G37*
G36*
X265379434Y-66053686D02*
G01*
X265419284Y-66065774D01*
X265455999Y-66085399D01*
X265488186Y-66111814D01*
X265514601Y-66144001D01*
X265534226Y-66180716D01*
X265546314Y-66220566D01*
X265551000Y-66268141D01*
X265551000Y-69431859D01*
X265546314Y-69479434D01*
X265534226Y-69519284D01*
X265514601Y-69555999D01*
X265488186Y-69588186D01*
X265455999Y-69614601D01*
X265419284Y-69634226D01*
X265379434Y-69646314D01*
X265331859Y-69651000D01*
X264668141Y-69651000D01*
X264620566Y-69646314D01*
X264580716Y-69634226D01*
X264544001Y-69614601D01*
X264511814Y-69588186D01*
X264485399Y-69555999D01*
X264465774Y-69519284D01*
X264453686Y-69479434D01*
X264449000Y-69431859D01*
X264449000Y-66268141D01*
X264453686Y-66220566D01*
X264465774Y-66180716D01*
X264485399Y-66144001D01*
X264511814Y-66111814D01*
X264544001Y-66085399D01*
X264580716Y-66065774D01*
X264620566Y-66053686D01*
X264668141Y-66049000D01*
X265331859Y-66049000D01*
X265379434Y-66053686D01*
G37*
G36*
X223379434Y-66053686D02*
G01*
X223419284Y-66065774D01*
X223455999Y-66085399D01*
X223488186Y-66111814D01*
X223514601Y-66144001D01*
X223534226Y-66180716D01*
X223546314Y-66220566D01*
X223551000Y-66268141D01*
X223551000Y-69431859D01*
X223546314Y-69479434D01*
X223534226Y-69519284D01*
X223514601Y-69555999D01*
X223488186Y-69588186D01*
X223455999Y-69614601D01*
X223419284Y-69634226D01*
X223379434Y-69646314D01*
X223331859Y-69651000D01*
X222668141Y-69651000D01*
X222620566Y-69646314D01*
X222580716Y-69634226D01*
X222544001Y-69614601D01*
X222511814Y-69588186D01*
X222485399Y-69555999D01*
X222465774Y-69519284D01*
X222453686Y-69479434D01*
X222449000Y-69431859D01*
X222449000Y-66268141D01*
X222453686Y-66220566D01*
X222465774Y-66180716D01*
X222485399Y-66144001D01*
X222511814Y-66111814D01*
X222544001Y-66085399D01*
X222580716Y-66065774D01*
X222620566Y-66053686D01*
X222668141Y-66049000D01*
X223331859Y-66049000D01*
X223379434Y-66053686D01*
G37*
G36*
X275379434Y-66053686D02*
G01*
X275419284Y-66065774D01*
X275455999Y-66085399D01*
X275488186Y-66111814D01*
X275514601Y-66144001D01*
X275534226Y-66180716D01*
X275546314Y-66220566D01*
X275551000Y-66268141D01*
X275551000Y-69431859D01*
X275546314Y-69479434D01*
X275534226Y-69519284D01*
X275514601Y-69555999D01*
X275488186Y-69588186D01*
X275455999Y-69614601D01*
X275419284Y-69634226D01*
X275379434Y-69646314D01*
X275331859Y-69651000D01*
X274668141Y-69651000D01*
X274620566Y-69646314D01*
X274580716Y-69634226D01*
X274544001Y-69614601D01*
X274511814Y-69588186D01*
X274485399Y-69555999D01*
X274465774Y-69519284D01*
X274453686Y-69479434D01*
X274449000Y-69431859D01*
X274449000Y-66268141D01*
X274453686Y-66220566D01*
X274465774Y-66180716D01*
X274485399Y-66144001D01*
X274511814Y-66111814D01*
X274544001Y-66085399D01*
X274580716Y-66065774D01*
X274620566Y-66053686D01*
X274668141Y-66049000D01*
X275331859Y-66049000D01*
X275379434Y-66053686D01*
G37*
G36*
X263379434Y-66053686D02*
G01*
X263419284Y-66065774D01*
X263455999Y-66085399D01*
X263488186Y-66111814D01*
X263514601Y-66144001D01*
X263534226Y-66180716D01*
X263546314Y-66220566D01*
X263551000Y-66268141D01*
X263551000Y-69431859D01*
X263546314Y-69479434D01*
X263534226Y-69519284D01*
X263514601Y-69555999D01*
X263488186Y-69588186D01*
X263455999Y-69614601D01*
X263419284Y-69634226D01*
X263379434Y-69646314D01*
X263331859Y-69651000D01*
X262668141Y-69651000D01*
X262620566Y-69646314D01*
X262580716Y-69634226D01*
X262544001Y-69614601D01*
X262511814Y-69588186D01*
X262485399Y-69555999D01*
X262465774Y-69519284D01*
X262453686Y-69479434D01*
X262449000Y-69431859D01*
X262449000Y-66268141D01*
X262453686Y-66220566D01*
X262465774Y-66180716D01*
X262485399Y-66144001D01*
X262511814Y-66111814D01*
X262544001Y-66085399D01*
X262580716Y-66065774D01*
X262620566Y-66053686D01*
X262668141Y-66049000D01*
X263331859Y-66049000D01*
X263379434Y-66053686D01*
G37*
G36*
X205634239Y-61811467D02*
G01*
X205948282Y-61873934D01*
X206539926Y-62119001D01*
X207072392Y-62474784D01*
X207525216Y-62927608D01*
X207880999Y-63460074D01*
X208126066Y-64051718D01*
X208126066Y-64051719D01*
X208251000Y-64679803D01*
X208251000Y-65320197D01*
X208188533Y-65634239D01*
X208126066Y-65948282D01*
X207880999Y-66539926D01*
X207525216Y-67072392D01*
X207072392Y-67525216D01*
X206539926Y-67880999D01*
X205948282Y-68126066D01*
X205634239Y-68188533D01*
X205320197Y-68251000D01*
X204679803Y-68251000D01*
X204365761Y-68188533D01*
X204051718Y-68126066D01*
X203460074Y-67880999D01*
X202927608Y-67525216D01*
X202474784Y-67072392D01*
X202119001Y-66539926D01*
X201873934Y-65948282D01*
X201811467Y-65634239D01*
X201749000Y-65320197D01*
X201749000Y-64679803D01*
X201873934Y-64051719D01*
X201873934Y-64051718D01*
X202119001Y-63460074D01*
X202474784Y-62927608D01*
X202927608Y-62474784D01*
X203460074Y-62119001D01*
X204051718Y-61873934D01*
X204365761Y-61811467D01*
X204679803Y-61749000D01*
X205320197Y-61749000D01*
X205634239Y-61811467D01*
G37*
G36*
X295634239Y-61811467D02*
G01*
X295948282Y-61873934D01*
X296539926Y-62119001D01*
X297072392Y-62474784D01*
X297525216Y-62927608D01*
X297880999Y-63460074D01*
X298126066Y-64051718D01*
X298126066Y-64051719D01*
X298251000Y-64679803D01*
X298251000Y-65320197D01*
X298188533Y-65634239D01*
X298126066Y-65948282D01*
X297880999Y-66539926D01*
X297525216Y-67072392D01*
X297072392Y-67525216D01*
X296539926Y-67880999D01*
X295948282Y-68126066D01*
X295634239Y-68188533D01*
X295320197Y-68251000D01*
X294679803Y-68251000D01*
X294365761Y-68188533D01*
X294051718Y-68126066D01*
X293460074Y-67880999D01*
X292927608Y-67525216D01*
X292474784Y-67072392D01*
X292119001Y-66539926D01*
X291873934Y-65948282D01*
X291811467Y-65634239D01*
X291749000Y-65320197D01*
X291749000Y-64679803D01*
X291873934Y-64051719D01*
X291873934Y-64051718D01*
X292119001Y-63460074D01*
X292474784Y-62927608D01*
X292927608Y-62474784D01*
X293460074Y-62119001D01*
X294051718Y-61873934D01*
X294365761Y-61811467D01*
X294679803Y-61749000D01*
X295320197Y-61749000D01*
X295634239Y-61811467D01*
G37*
G36*
X240003048Y-60353122D02*
G01*
X240037387Y-60363539D01*
X240069036Y-60380456D01*
X240096778Y-60403222D01*
X240119544Y-60430964D01*
X240136461Y-60462613D01*
X240146878Y-60496952D01*
X240151000Y-60538807D01*
X240151000Y-63661193D01*
X240146878Y-63703048D01*
X240136461Y-63737387D01*
X240119544Y-63769036D01*
X240096778Y-63796778D01*
X240069036Y-63819544D01*
X240037387Y-63836461D01*
X240003048Y-63846878D01*
X239961193Y-63851000D01*
X238738807Y-63851000D01*
X238696952Y-63846878D01*
X238662613Y-63836461D01*
X238630964Y-63819544D01*
X238603222Y-63796778D01*
X238580456Y-63769036D01*
X238563539Y-63737387D01*
X238553122Y-63703048D01*
X238549000Y-63661193D01*
X238549000Y-60538807D01*
X238553122Y-60496952D01*
X238563539Y-60462613D01*
X238580456Y-60430964D01*
X238603222Y-60403222D01*
X238630964Y-60380456D01*
X238662613Y-60363539D01*
X238696952Y-60353122D01*
X238738807Y-60349000D01*
X239961193Y-60349000D01*
X240003048Y-60353122D01*
G37*
G36*
X221303048Y-60353122D02*
G01*
X221337387Y-60363539D01*
X221369036Y-60380456D01*
X221396778Y-60403222D01*
X221419544Y-60430964D01*
X221436461Y-60462613D01*
X221446878Y-60496952D01*
X221451000Y-60538807D01*
X221451000Y-63661193D01*
X221446878Y-63703048D01*
X221436461Y-63737387D01*
X221419544Y-63769036D01*
X221396778Y-63796778D01*
X221369036Y-63819544D01*
X221337387Y-63836461D01*
X221303048Y-63846878D01*
X221261193Y-63851000D01*
X220038807Y-63851000D01*
X219996952Y-63846878D01*
X219962613Y-63836461D01*
X219930964Y-63819544D01*
X219903222Y-63796778D01*
X219880456Y-63769036D01*
X219863539Y-63737387D01*
X219853122Y-63703048D01*
X219849000Y-63661193D01*
X219849000Y-60538807D01*
X219853122Y-60496952D01*
X219863539Y-60462613D01*
X219880456Y-60430964D01*
X219903222Y-60403222D01*
X219930964Y-60380456D01*
X219962613Y-60363539D01*
X219996952Y-60353122D01*
X220038807Y-60349000D01*
X221261193Y-60349000D01*
X221303048Y-60353122D01*
G37*
G36*
X261303048Y-60353122D02*
G01*
X261337387Y-60363539D01*
X261369036Y-60380456D01*
X261396778Y-60403222D01*
X261419544Y-60430964D01*
X261436461Y-60462613D01*
X261446878Y-60496952D01*
X261451000Y-60538807D01*
X261451000Y-63661193D01*
X261446878Y-63703048D01*
X261436461Y-63737387D01*
X261419544Y-63769036D01*
X261396778Y-63796778D01*
X261369036Y-63819544D01*
X261337387Y-63836461D01*
X261303048Y-63846878D01*
X261261193Y-63851000D01*
X260038807Y-63851000D01*
X259996952Y-63846878D01*
X259962613Y-63836461D01*
X259930964Y-63819544D01*
X259903222Y-63796778D01*
X259880456Y-63769036D01*
X259863539Y-63737387D01*
X259853122Y-63703048D01*
X259849000Y-63661193D01*
X259849000Y-60538807D01*
X259853122Y-60496952D01*
X259863539Y-60462613D01*
X259880456Y-60430964D01*
X259903222Y-60403222D01*
X259930964Y-60380456D01*
X259962613Y-60363539D01*
X259996952Y-60353122D01*
X260038807Y-60349000D01*
X261261193Y-60349000D01*
X261303048Y-60353122D01*
G37*
G36*
X280003048Y-60353122D02*
G01*
X280037387Y-60363539D01*
X280069036Y-60380456D01*
X280096778Y-60403222D01*
X280119544Y-60430964D01*
X280136461Y-60462613D01*
X280146878Y-60496952D01*
X280151000Y-60538807D01*
X280151000Y-63661193D01*
X280146878Y-63703048D01*
X280136461Y-63737387D01*
X280119544Y-63769036D01*
X280096778Y-63796778D01*
X280069036Y-63819544D01*
X280037387Y-63836461D01*
X280003048Y-63846878D01*
X279961193Y-63851000D01*
X278738807Y-63851000D01*
X278696952Y-63846878D01*
X278662613Y-63836461D01*
X278630964Y-63819544D01*
X278603222Y-63796778D01*
X278580456Y-63769036D01*
X278563539Y-63737387D01*
X278553122Y-63703048D01*
X278549000Y-63661193D01*
X278549000Y-60538807D01*
X278553122Y-60496952D01*
X278563539Y-60462613D01*
X278580456Y-60430964D01*
X278603222Y-60403222D01*
X278630964Y-60380456D01*
X278662613Y-60363539D01*
X278696952Y-60353122D01*
X278738807Y-60349000D01*
X279961193Y-60349000D01*
X280003048Y-60353122D01*
G37*
M02*
