G04 #@! TF.GenerationSoftware,KiCad,Pcbnew,(5.1.5)-3*
G04 #@! TF.CreationDate,2020-05-05T12:11:31+02:00*
G04 #@! TF.ProjectId,led_board,6c65645f-626f-4617-9264-2e6b69636164,rev?*
G04 #@! TF.SameCoordinates,Original*
G04 #@! TF.FileFunction,Copper,L2,Bot*
G04 #@! TF.FilePolarity,Positive*
%FSLAX46Y46*%
G04 Gerber Fmt 4.6, Leading zero omitted, Abs format (unit mm)*
G04 Created by KiCad (PCBNEW (5.1.5)-3) date 2020-05-05 12:11:31*
%MOMM*%
%LPD*%
G04 APERTURE LIST*
%ADD10C,0.800000*%
%ADD11C,6.400000*%
%ADD12C,0.150000*%
G04 APERTURE END LIST*
D10*
X296697056Y-153302944D03*
X295000000Y-152600000D03*
X293302944Y-153302944D03*
X292600000Y-155000000D03*
X293302944Y-156697056D03*
X295000000Y-157400000D03*
X296697056Y-156697056D03*
X297400000Y-155000000D03*
D11*
X295000000Y-155000000D03*
D10*
X296697056Y-63302944D03*
X295000000Y-62600000D03*
X293302944Y-63302944D03*
X292600000Y-65000000D03*
X293302944Y-66697056D03*
X295000000Y-67400000D03*
X296697056Y-66697056D03*
X297400000Y-65000000D03*
D11*
X295000000Y-65000000D03*
D10*
X206697056Y-153302944D03*
X205000000Y-152600000D03*
X203302944Y-153302944D03*
X202600000Y-155000000D03*
X203302944Y-156697056D03*
X205000000Y-157400000D03*
X206697056Y-156697056D03*
X207400000Y-155000000D03*
D11*
X205000000Y-155000000D03*
D10*
X206697056Y-63302944D03*
X205000000Y-62600000D03*
X203302944Y-63302944D03*
X202600000Y-65000000D03*
X203302944Y-66697056D03*
X205000000Y-67400000D03*
X206697056Y-66697056D03*
X207400000Y-65000000D03*
D11*
X205000000Y-65000000D03*
D10*
X292500000Y-120500000D03*
X292500000Y-119500000D03*
X292500000Y-118500000D03*
X293500000Y-107000000D03*
X292500000Y-107000000D03*
X291500000Y-107000000D03*
X290500000Y-107000000D03*
X219000000Y-118500000D03*
X214000000Y-118500000D03*
X217000000Y-117500000D03*
X215000000Y-117500000D03*
X214000000Y-117500000D03*
X219000000Y-117500000D03*
X217000000Y-118500000D03*
X218000000Y-118500000D03*
X218000000Y-117500000D03*
X211000000Y-117500000D03*
X215000000Y-76000000D03*
X215000000Y-74000000D03*
X215000000Y-75000000D03*
X215000000Y-72500000D03*
X214000000Y-72500000D03*
X213000000Y-72500000D03*
X215000000Y-142500000D03*
X215000000Y-144000000D03*
X215000000Y-145000000D03*
X213000000Y-142500000D03*
X216000000Y-142500000D03*
X217000000Y-142500000D03*
X215000000Y-146000000D03*
X215000000Y-77500000D03*
X213000000Y-77500000D03*
X216000000Y-77500000D03*
X217000000Y-77500000D03*
X225000000Y-72500000D03*
X235000000Y-72500000D03*
X245000000Y-72500000D03*
X255000000Y-72500000D03*
X265000000Y-72500000D03*
X275000000Y-72500000D03*
X285000000Y-72500000D03*
X215000000Y-82500000D03*
X225000000Y-82500000D03*
X235000000Y-82500000D03*
X245000000Y-82500000D03*
X255000000Y-82500000D03*
X265000000Y-82500000D03*
X275000000Y-82500000D03*
X285000000Y-82500000D03*
X215000000Y-92500000D03*
X225000000Y-92500000D03*
X235000000Y-92500000D03*
X245000000Y-92500000D03*
X255000000Y-92500000D03*
X265000000Y-92500000D03*
X275000000Y-92500000D03*
X285000000Y-92500000D03*
X215000000Y-102500000D03*
X225000000Y-102500000D03*
X235000000Y-102500000D03*
X245000000Y-102500000D03*
X255000000Y-102500000D03*
X265000000Y-102500000D03*
X275000000Y-102500000D03*
X285000000Y-102500000D03*
X225000000Y-74000000D03*
X235000000Y-74000000D03*
X245000000Y-74000000D03*
X255000000Y-74000000D03*
X265000000Y-74000000D03*
X275000000Y-74000000D03*
X285000000Y-74000000D03*
X215000000Y-84000000D03*
X225000000Y-84000000D03*
X235000000Y-84000000D03*
X245000000Y-84000000D03*
X255000000Y-84000000D03*
X265000000Y-84000000D03*
X275000000Y-84000000D03*
X285000000Y-84000000D03*
X215000000Y-94000000D03*
X225000000Y-94000000D03*
X235000000Y-94000000D03*
X245000000Y-94000000D03*
X255000000Y-94000000D03*
X265000000Y-94000000D03*
X275000000Y-94000000D03*
X285000000Y-94000000D03*
X215000000Y-104000000D03*
X225000000Y-104000000D03*
X235000000Y-104000000D03*
X245000000Y-104000000D03*
X255000000Y-104000000D03*
X265000000Y-104000000D03*
X275000000Y-104000000D03*
X285000000Y-104000000D03*
X224000000Y-72500000D03*
X234000000Y-72500000D03*
X244000000Y-72500000D03*
X254000000Y-72500000D03*
X264000000Y-72500000D03*
X274000000Y-72500000D03*
X284000000Y-72500000D03*
X214000000Y-82500000D03*
X224000000Y-82500000D03*
X234000000Y-82500000D03*
X244000000Y-82500000D03*
X254000000Y-82500000D03*
X264000000Y-82500000D03*
X274000000Y-82500000D03*
X284000000Y-82500000D03*
X214000000Y-92500000D03*
X224000000Y-92500000D03*
X234000000Y-92500000D03*
X244000000Y-92500000D03*
X254000000Y-92500000D03*
X264000000Y-92500000D03*
X274000000Y-92500000D03*
X284000000Y-92500000D03*
X214000000Y-102500000D03*
X224000000Y-102500000D03*
X234000000Y-102500000D03*
X244000000Y-102500000D03*
X254000000Y-102500000D03*
X264000000Y-102500000D03*
X274000000Y-102500000D03*
X284000000Y-102500000D03*
X225000000Y-75000000D03*
X235000000Y-75000000D03*
X245000000Y-75000000D03*
X255000000Y-75000000D03*
X265000000Y-75000000D03*
X275000000Y-75000000D03*
X285000000Y-75000000D03*
X215000000Y-85000000D03*
X225000000Y-85000000D03*
X235000000Y-85000000D03*
X245000000Y-85000000D03*
X255000000Y-85000000D03*
X265000000Y-85000000D03*
X275000000Y-85000000D03*
X285000000Y-85000000D03*
X215000000Y-95000000D03*
X225000000Y-95000000D03*
X235000000Y-95000000D03*
X245000000Y-95000000D03*
X255000000Y-95000000D03*
X265000000Y-95000000D03*
X275000000Y-95000000D03*
X285000000Y-95000000D03*
X215000000Y-105000000D03*
X225000000Y-105000000D03*
X235000000Y-105000000D03*
X245000000Y-105000000D03*
X255000000Y-105000000D03*
X265000000Y-105000000D03*
X275000000Y-105000000D03*
X285000000Y-105000000D03*
X223000000Y-72500000D03*
X233000000Y-72500000D03*
X243000000Y-72500000D03*
X253000000Y-72500000D03*
X263000000Y-72500000D03*
X273000000Y-72500000D03*
X283000000Y-72500000D03*
X213000000Y-82500000D03*
X223000000Y-82500000D03*
X233000000Y-82500000D03*
X243000000Y-82500000D03*
X253000000Y-82500000D03*
X263000000Y-82500000D03*
X273000000Y-82500000D03*
X283000000Y-82500000D03*
X213000000Y-92500000D03*
X223000000Y-92500000D03*
X233000000Y-92500000D03*
X243000000Y-92500000D03*
X253000000Y-92500000D03*
X263000000Y-92500000D03*
X273000000Y-92500000D03*
X283000000Y-92500000D03*
X237000000Y-72500000D03*
X247000000Y-72500000D03*
X267000000Y-72500000D03*
X277000000Y-72500000D03*
X287000000Y-72500000D03*
X217000000Y-82500000D03*
X227000000Y-82500000D03*
X237000000Y-82500000D03*
X247000000Y-82500000D03*
X257000000Y-82500000D03*
X267000000Y-82500000D03*
X277000000Y-82500000D03*
X287000000Y-82500000D03*
X217000000Y-92500000D03*
X227000000Y-92500000D03*
X237000000Y-92500000D03*
X247000000Y-92500000D03*
X257000000Y-92500000D03*
X267000000Y-92500000D03*
X277000000Y-92500000D03*
X287000000Y-92500000D03*
X217000000Y-102500000D03*
X227000000Y-102500000D03*
X237000000Y-102500000D03*
X247000000Y-102500000D03*
X257000000Y-102500000D03*
X267000000Y-102500000D03*
X277000000Y-102500000D03*
X287000000Y-102500000D03*
X225000000Y-77500000D03*
X235000000Y-77500000D03*
X245000000Y-77500000D03*
X255000000Y-77500000D03*
X265000000Y-77500000D03*
X275000000Y-77500000D03*
X285000000Y-77500000D03*
X215000000Y-87500000D03*
X225000000Y-87500000D03*
X235000000Y-87500000D03*
X245000000Y-87500000D03*
X255000000Y-87500000D03*
X265000000Y-87500000D03*
X275000000Y-87500000D03*
X285000000Y-87500000D03*
X215000000Y-97500000D03*
X225000000Y-97500000D03*
X235000000Y-97500000D03*
X245000000Y-97500000D03*
X255000000Y-97500000D03*
X265000000Y-97500000D03*
X275000000Y-97500000D03*
X285000000Y-97500000D03*
X215000000Y-107500000D03*
X225000000Y-107500000D03*
X235000000Y-107500000D03*
X245000000Y-107500000D03*
X255000000Y-107500000D03*
X265000000Y-107500000D03*
X275000000Y-107500000D03*
X285000000Y-107500000D03*
X227000000Y-77500000D03*
X237000000Y-77500000D03*
X247000000Y-77500000D03*
X257000000Y-77500000D03*
X267000000Y-77500000D03*
X277000000Y-77500000D03*
X287000000Y-77500000D03*
X217000000Y-87500000D03*
X227000000Y-87500000D03*
X237000000Y-87500000D03*
X247000000Y-87500000D03*
X257000000Y-87500000D03*
X267000000Y-87500000D03*
X277000000Y-87500000D03*
X287000000Y-87500000D03*
X217000000Y-97500000D03*
X227000000Y-97500000D03*
X237000000Y-97500000D03*
X247000000Y-97500000D03*
X257000000Y-97500000D03*
X267000000Y-97500000D03*
X277000000Y-97500000D03*
X287000000Y-97500000D03*
X217000000Y-107500000D03*
X227000000Y-107500000D03*
X237000000Y-107500000D03*
X247000000Y-107500000D03*
X257000000Y-107500000D03*
X267000000Y-107500000D03*
X277000000Y-107500000D03*
X287000000Y-107500000D03*
X225000000Y-76000000D03*
X235000000Y-76000000D03*
X245000000Y-76000000D03*
X255000000Y-76000000D03*
X265000000Y-76000000D03*
X275000000Y-76000000D03*
X285000000Y-76000000D03*
X215000000Y-86000000D03*
X225000000Y-86000000D03*
X235000000Y-86000000D03*
X245000000Y-86000000D03*
X255000000Y-86000000D03*
X265000000Y-86000000D03*
X275000000Y-86000000D03*
X285000000Y-86000000D03*
X215000000Y-96000000D03*
X225000000Y-96000000D03*
X235000000Y-96000000D03*
X245000000Y-96000000D03*
X255000000Y-96000000D03*
X265000000Y-96000000D03*
X275000000Y-96000000D03*
X285000000Y-96000000D03*
X215000000Y-106000000D03*
X225000000Y-106000000D03*
X235000000Y-106000000D03*
X245000000Y-106000000D03*
X255000000Y-106000000D03*
X265000000Y-106000000D03*
X275000000Y-106000000D03*
X285000000Y-106000000D03*
X226000000Y-77500000D03*
X236000000Y-77500000D03*
X246000000Y-77500000D03*
X256000000Y-77500000D03*
X266000000Y-77500000D03*
X276000000Y-77500000D03*
X286000000Y-77500000D03*
X216000000Y-87500000D03*
X226000000Y-87500000D03*
X236000000Y-87500000D03*
X246000000Y-87500000D03*
X256000000Y-87500000D03*
X266000000Y-87500000D03*
X276000000Y-87500000D03*
X286000000Y-87500000D03*
X216000000Y-97500000D03*
X226000000Y-97500000D03*
X236000000Y-97500000D03*
X246000000Y-97500000D03*
X256000000Y-97500000D03*
X266000000Y-97500000D03*
X276000000Y-97500000D03*
X286000000Y-97500000D03*
X216000000Y-107500000D03*
X226000000Y-107500000D03*
X236000000Y-107500000D03*
X246000000Y-107500000D03*
X256000000Y-107500000D03*
X266000000Y-107500000D03*
X276000000Y-107500000D03*
X286000000Y-107500000D03*
X223000000Y-77500000D03*
X233000000Y-77500000D03*
X243000000Y-77500000D03*
X253000000Y-77500000D03*
X263000000Y-77500000D03*
X273000000Y-77500000D03*
X283000000Y-77500000D03*
X213000000Y-87500000D03*
X223000000Y-87500000D03*
X233000000Y-87500000D03*
X243000000Y-87500000D03*
X253000000Y-87500000D03*
X263000000Y-87500000D03*
X273000000Y-87500000D03*
X283000000Y-87500000D03*
X213000000Y-97500000D03*
X223000000Y-97500000D03*
X233000000Y-97500000D03*
X243000000Y-97500000D03*
X253000000Y-97500000D03*
X263000000Y-97500000D03*
X273000000Y-97500000D03*
X283000000Y-97500000D03*
X213000000Y-107500000D03*
X223000000Y-107500000D03*
X233000000Y-107500000D03*
X243000000Y-107500000D03*
X253000000Y-107500000D03*
X263000000Y-107500000D03*
X273000000Y-107500000D03*
X283000000Y-107500000D03*
X225000000Y-142500000D03*
X235000000Y-142500000D03*
X245000000Y-142500000D03*
X255000000Y-142500000D03*
X265000000Y-142500000D03*
X275000000Y-142500000D03*
X285000000Y-142500000D03*
X215000000Y-132500000D03*
X225000000Y-132500000D03*
X235000000Y-132500000D03*
X245000000Y-132500000D03*
X255000000Y-132500000D03*
X265000000Y-132500000D03*
X275000000Y-132500000D03*
X285000000Y-132500000D03*
X215000000Y-122500000D03*
X225000000Y-122500000D03*
X235000000Y-122500000D03*
X245000000Y-122500000D03*
X255000000Y-122500000D03*
X265000000Y-122500000D03*
X275000000Y-122500000D03*
X285000000Y-122500000D03*
X215000000Y-112500000D03*
X225000000Y-112500000D03*
X235000000Y-112500000D03*
X245000000Y-112500000D03*
X255000000Y-112500000D03*
X265000000Y-112500000D03*
X275000000Y-112500000D03*
X285000000Y-112500000D03*
X225000000Y-144000000D03*
X235000000Y-144000000D03*
X245000000Y-144000000D03*
X255000000Y-144000000D03*
X265000000Y-144000000D03*
X275000000Y-144000000D03*
X285000000Y-144000000D03*
X215000000Y-134000000D03*
X225000000Y-134000000D03*
X235000000Y-134000000D03*
X245000000Y-134000000D03*
X255000000Y-134000000D03*
X265000000Y-134000000D03*
X275000000Y-134000000D03*
X285000000Y-134000000D03*
X215000000Y-124000000D03*
X225000000Y-124000000D03*
X235000000Y-124000000D03*
X245000000Y-124000000D03*
X255000000Y-124000000D03*
X265000000Y-124000000D03*
X275000000Y-124000000D03*
X285000000Y-124000000D03*
X215000000Y-114000000D03*
X225000000Y-114000000D03*
X235000000Y-114000000D03*
X245000000Y-114000000D03*
X255000000Y-114000000D03*
X265000000Y-114000000D03*
X275000000Y-114000000D03*
X285000000Y-114000000D03*
X225000000Y-145000000D03*
X235000000Y-145000000D03*
X245000000Y-145000000D03*
X255000000Y-145000000D03*
X265000000Y-145000000D03*
X275000000Y-145000000D03*
X285000000Y-145000000D03*
X215000000Y-135000000D03*
X225000000Y-135000000D03*
X235000000Y-135000000D03*
X245000000Y-135000000D03*
X255000000Y-135000000D03*
X265000000Y-135000000D03*
X275000000Y-135000000D03*
X285000000Y-135000000D03*
X215000000Y-125000000D03*
X225000000Y-125000000D03*
X235000000Y-125000000D03*
X245000000Y-125000000D03*
X255000000Y-125000000D03*
X265000000Y-125000000D03*
X275000000Y-125000000D03*
X285000000Y-125000000D03*
X215000000Y-115000000D03*
X225000000Y-115000000D03*
X235000000Y-115000000D03*
X245000000Y-115000000D03*
X255000000Y-115000000D03*
X265000000Y-115000000D03*
X275000000Y-115000000D03*
X285000000Y-115000000D03*
X223000000Y-142500000D03*
X233000000Y-142500000D03*
X243000000Y-142500000D03*
X253000000Y-142500000D03*
X263000000Y-142500000D03*
X273000000Y-142500000D03*
X283000000Y-142500000D03*
X213000000Y-132500000D03*
X223000000Y-132500000D03*
X233000000Y-132500000D03*
X243000000Y-132500000D03*
X253000000Y-132500000D03*
X263000000Y-132500000D03*
X273000000Y-132500000D03*
X283000000Y-132500000D03*
X213000000Y-122500000D03*
X223000000Y-122500000D03*
X233000000Y-122500000D03*
X243000000Y-122500000D03*
X253000000Y-122500000D03*
X263000000Y-122500000D03*
X273000000Y-122500000D03*
X283000000Y-122500000D03*
X213000000Y-112500000D03*
X223000000Y-112500000D03*
X233000000Y-112500000D03*
X243000000Y-112500000D03*
X253000000Y-112500000D03*
X263000000Y-112500000D03*
X273000000Y-112500000D03*
X283000000Y-112500000D03*
X226000000Y-142500000D03*
X236000000Y-142500000D03*
X246000000Y-142500000D03*
X256000000Y-142500000D03*
X266000000Y-142500000D03*
X276000000Y-142500000D03*
X286000000Y-142500000D03*
X216000000Y-132500000D03*
X226000000Y-132500000D03*
X236000000Y-132500000D03*
X246000000Y-132500000D03*
X256000000Y-132500000D03*
X266000000Y-132500000D03*
X276000000Y-132500000D03*
X286000000Y-132500000D03*
X216000000Y-122500000D03*
X226000000Y-122500000D03*
X236000000Y-122500000D03*
X246000000Y-122500000D03*
X256000000Y-122500000D03*
X266000000Y-122500000D03*
X276000000Y-122500000D03*
X286000000Y-122500000D03*
X216000000Y-112500000D03*
X226000000Y-112500000D03*
X236000000Y-112500000D03*
X246000000Y-112500000D03*
X256000000Y-112500000D03*
X266000000Y-112500000D03*
X276000000Y-112500000D03*
X286000000Y-112500000D03*
X227000000Y-142500000D03*
X237000000Y-142500000D03*
X247000000Y-142500000D03*
X257000000Y-142500000D03*
X267000000Y-142500000D03*
X277000000Y-142500000D03*
X287000000Y-142500000D03*
X217000000Y-132500000D03*
X227000000Y-132500000D03*
X237000000Y-132500000D03*
X247000000Y-132500000D03*
X257000000Y-132500000D03*
X267000000Y-132500000D03*
X277000000Y-132500000D03*
X287000000Y-132500000D03*
X217000000Y-122500000D03*
X227000000Y-122500000D03*
X237000000Y-122500000D03*
X247000000Y-122500000D03*
X257000000Y-122500000D03*
X267000000Y-122500000D03*
X277000000Y-122500000D03*
X287000000Y-122500000D03*
X217000000Y-112500000D03*
X227000000Y-112500000D03*
X237000000Y-112500000D03*
X247000000Y-112500000D03*
X257000000Y-112500000D03*
X267000000Y-112500000D03*
X277000000Y-112500000D03*
X287000000Y-112500000D03*
X225000000Y-146000000D03*
X235000000Y-146000000D03*
X245000000Y-146000000D03*
X255000000Y-146000000D03*
X265000000Y-146000000D03*
X275000000Y-146000000D03*
X285000000Y-146000000D03*
X215000000Y-136000000D03*
X225000000Y-136000000D03*
X235000000Y-136000000D03*
X245000000Y-136000000D03*
X255000000Y-136000000D03*
X265000000Y-136000000D03*
X275000000Y-136000000D03*
X285000000Y-136000000D03*
X215000000Y-126000000D03*
X225000000Y-126000000D03*
X235000000Y-126000000D03*
X245000000Y-126000000D03*
X255000000Y-126000000D03*
X265000000Y-126000000D03*
X275000000Y-126000000D03*
X285000000Y-126000000D03*
X215000000Y-116000000D03*
X225000000Y-116000000D03*
X235000000Y-116000000D03*
X245000000Y-116000000D03*
X255000000Y-116000000D03*
X265000000Y-116000000D03*
X275000000Y-116000000D03*
X285000000Y-116000000D03*
X213000000Y-81500000D03*
X212000000Y-72500000D03*
X211000000Y-71500000D03*
X211000000Y-73500000D03*
X211000000Y-74500000D03*
X211000000Y-75500000D03*
X211000000Y-76500000D03*
X211000000Y-77500000D03*
X211000000Y-78500000D03*
X212000000Y-78500000D03*
X212000000Y-77500000D03*
X212000000Y-76500000D03*
X212000000Y-75500000D03*
X212000000Y-74500000D03*
X212000000Y-73500000D03*
X212000000Y-71500000D03*
X213000000Y-71500000D03*
X214000000Y-71500000D03*
X215000000Y-71500000D03*
X216000000Y-71500000D03*
X216000000Y-72500000D03*
X218000000Y-71500000D03*
X219000000Y-71500000D03*
X218000000Y-77500000D03*
X219000000Y-77500000D03*
X219000000Y-76500000D03*
X213000000Y-78500000D03*
X215000000Y-78500000D03*
X216000000Y-78500000D03*
X217000000Y-78500000D03*
X218000000Y-78500000D03*
X219000000Y-78500000D03*
X241000000Y-71500000D03*
X251000000Y-71500000D03*
X211000000Y-81500000D03*
X221000000Y-81500000D03*
X231000000Y-81500000D03*
X241000000Y-81500000D03*
X251000000Y-81500000D03*
X261000000Y-81500000D03*
X271000000Y-81500000D03*
X281000000Y-81500000D03*
X211000000Y-111500000D03*
X221000000Y-111500000D03*
X231000000Y-111500000D03*
X241000000Y-111500000D03*
X251000000Y-111500000D03*
X261000000Y-111500000D03*
X271000000Y-111500000D03*
X281000000Y-111500000D03*
X211000000Y-121500000D03*
X221000000Y-121500000D03*
X231000000Y-121500000D03*
X241000000Y-121500000D03*
X251000000Y-121500000D03*
X261000000Y-121500000D03*
X271000000Y-121500000D03*
X281000000Y-121500000D03*
X211000000Y-131500000D03*
X221000000Y-131500000D03*
X231000000Y-131500000D03*
X241000000Y-131500000D03*
X251000000Y-131500000D03*
X261000000Y-131500000D03*
X271000000Y-131500000D03*
X281000000Y-131500000D03*
X211000000Y-141500000D03*
X221000000Y-141500000D03*
X231000000Y-141500000D03*
X241000000Y-141500000D03*
X251000000Y-141500000D03*
X261000000Y-141500000D03*
X271000000Y-141500000D03*
X281000000Y-141500000D03*
X243000000Y-71500000D03*
X253000000Y-71500000D03*
X273000000Y-71500000D03*
X213000000Y-81500000D03*
X223000000Y-81500000D03*
X233000000Y-81500000D03*
X243000000Y-81500000D03*
X253000000Y-81500000D03*
X263000000Y-81500000D03*
X273000000Y-81500000D03*
X283000000Y-81500000D03*
X213000000Y-111500000D03*
X223000000Y-111500000D03*
X233000000Y-111500000D03*
X243000000Y-111500000D03*
X253000000Y-111500000D03*
X263000000Y-111500000D03*
X273000000Y-111500000D03*
X283000000Y-111500000D03*
X213000000Y-121500000D03*
X223000000Y-121500000D03*
X233000000Y-121500000D03*
X243000000Y-121500000D03*
X253000000Y-121500000D03*
X263000000Y-121500000D03*
X273000000Y-121500000D03*
X283000000Y-121500000D03*
X213000000Y-131500000D03*
X223000000Y-131500000D03*
X233000000Y-131500000D03*
X243000000Y-131500000D03*
X253000000Y-131500000D03*
X263000000Y-131500000D03*
X273000000Y-131500000D03*
X283000000Y-131500000D03*
X213000000Y-141500000D03*
X223000000Y-141500000D03*
X233000000Y-141500000D03*
X243000000Y-141500000D03*
X253000000Y-141500000D03*
X263000000Y-141500000D03*
X273000000Y-141500000D03*
X283000000Y-141500000D03*
X244000000Y-71500000D03*
X254000000Y-71500000D03*
X274000000Y-71500000D03*
X214000000Y-81500000D03*
X224000000Y-81500000D03*
X234000000Y-81500000D03*
X244000000Y-81500000D03*
X254000000Y-81500000D03*
X264000000Y-81500000D03*
X274000000Y-81500000D03*
X284000000Y-81500000D03*
X214000000Y-111500000D03*
X224000000Y-111500000D03*
X234000000Y-111500000D03*
X244000000Y-111500000D03*
X254000000Y-111500000D03*
X264000000Y-111500000D03*
X274000000Y-111500000D03*
X284000000Y-111500000D03*
X231000000Y-72500000D03*
X241000000Y-72500000D03*
X251000000Y-72500000D03*
X281000000Y-72500000D03*
X211000000Y-82500000D03*
X221000000Y-82500000D03*
X231000000Y-82500000D03*
X241000000Y-82500000D03*
X251000000Y-82500000D03*
X261000000Y-82500000D03*
X271000000Y-82500000D03*
X281000000Y-82500000D03*
X211000000Y-92500000D03*
X221000000Y-92500000D03*
X231000000Y-92500000D03*
X241000000Y-92500000D03*
X251000000Y-92500000D03*
X261000000Y-92500000D03*
X271000000Y-92500000D03*
X281000000Y-92500000D03*
X211000000Y-102500000D03*
X221000000Y-102500000D03*
X231000000Y-102500000D03*
X241000000Y-102500000D03*
X251000000Y-102500000D03*
X261000000Y-102500000D03*
X271000000Y-102500000D03*
X281000000Y-102500000D03*
X211000000Y-112500000D03*
X221000000Y-112500000D03*
X231000000Y-112500000D03*
X241000000Y-112500000D03*
X251000000Y-112500000D03*
X261000000Y-112500000D03*
X271000000Y-112500000D03*
X281000000Y-112500000D03*
X211000000Y-122500000D03*
X221000000Y-122500000D03*
X231000000Y-122500000D03*
X241000000Y-122500000D03*
X251000000Y-122500000D03*
X261000000Y-122500000D03*
X271000000Y-122500000D03*
X281000000Y-122500000D03*
X211000000Y-132500000D03*
X221000000Y-132500000D03*
X231000000Y-132500000D03*
X241000000Y-132500000D03*
X251000000Y-132500000D03*
X261000000Y-132500000D03*
X271000000Y-132500000D03*
X281000000Y-132500000D03*
X211000000Y-142500000D03*
X221000000Y-142500000D03*
X231000000Y-142500000D03*
X241000000Y-142500000D03*
X251000000Y-142500000D03*
X261000000Y-142500000D03*
X271000000Y-142500000D03*
X281000000Y-142500000D03*
X222000000Y-78500000D03*
X232000000Y-78500000D03*
X242000000Y-78500000D03*
X252000000Y-78500000D03*
X262000000Y-78500000D03*
X272000000Y-78500000D03*
X282000000Y-78500000D03*
X212000000Y-88500000D03*
X222000000Y-88500000D03*
X232000000Y-88500000D03*
X242000000Y-88500000D03*
X252000000Y-88500000D03*
X262000000Y-88500000D03*
X272000000Y-88500000D03*
X282000000Y-88500000D03*
X212000000Y-98500000D03*
X222000000Y-98500000D03*
X232000000Y-98500000D03*
X242000000Y-98500000D03*
X252000000Y-98500000D03*
X262000000Y-98500000D03*
X272000000Y-98500000D03*
X282000000Y-98500000D03*
X212000000Y-108500000D03*
X222000000Y-108500000D03*
X232000000Y-108500000D03*
X242000000Y-108500000D03*
X252000000Y-108500000D03*
X262000000Y-108500000D03*
X272000000Y-108500000D03*
X282000000Y-108500000D03*
X221000000Y-75500000D03*
X231000000Y-75500000D03*
X241000000Y-75500000D03*
X251000000Y-75500000D03*
X261000000Y-75500000D03*
X271000000Y-75500000D03*
X281000000Y-75500000D03*
X211000000Y-85500000D03*
X221000000Y-85500000D03*
X231000000Y-85500000D03*
X241000000Y-85500000D03*
X251000000Y-85500000D03*
X261000000Y-85500000D03*
X271000000Y-85500000D03*
X281000000Y-85500000D03*
X211000000Y-95500000D03*
X221000000Y-95500000D03*
X231000000Y-95500000D03*
X241000000Y-95500000D03*
X251000000Y-95500000D03*
X261000000Y-95500000D03*
X271000000Y-95500000D03*
X281000000Y-95500000D03*
X211000000Y-105500000D03*
X221000000Y-105500000D03*
X231000000Y-105500000D03*
X241000000Y-105500000D03*
X251000000Y-105500000D03*
X261000000Y-105500000D03*
X271000000Y-105500000D03*
X281000000Y-105500000D03*
X211000000Y-115500000D03*
X221000000Y-115500000D03*
X231000000Y-115500000D03*
X241000000Y-115500000D03*
X251000000Y-115500000D03*
X261000000Y-115500000D03*
X271000000Y-115500000D03*
X281000000Y-115500000D03*
X211000000Y-125500000D03*
X221000000Y-125500000D03*
X231000000Y-125500000D03*
X241000000Y-125500000D03*
X251000000Y-125500000D03*
X261000000Y-125500000D03*
X271000000Y-125500000D03*
X281000000Y-125500000D03*
X211000000Y-135500000D03*
X221000000Y-135500000D03*
X231000000Y-135500000D03*
X241000000Y-135500000D03*
X251000000Y-135500000D03*
X261000000Y-135500000D03*
X271000000Y-135500000D03*
X281000000Y-135500000D03*
X211000000Y-145500000D03*
X221000000Y-145500000D03*
X231000000Y-145500000D03*
X241000000Y-145500000D03*
X251000000Y-145500000D03*
X271000000Y-145500000D03*
X281000000Y-145500000D03*
X222000000Y-72500000D03*
X232000000Y-72500000D03*
X242000000Y-72500000D03*
X252000000Y-72500000D03*
X262000000Y-72500000D03*
X272000000Y-72500000D03*
X282000000Y-72500000D03*
X212000000Y-82500000D03*
X222000000Y-82500000D03*
X232000000Y-82500000D03*
X242000000Y-82500000D03*
X252000000Y-82500000D03*
X262000000Y-82500000D03*
X272000000Y-82500000D03*
X282000000Y-82500000D03*
X212000000Y-92500000D03*
X222000000Y-92500000D03*
X232000000Y-92500000D03*
X242000000Y-92500000D03*
X252000000Y-92500000D03*
X262000000Y-92500000D03*
X272000000Y-92500000D03*
X282000000Y-92500000D03*
X212000000Y-102500000D03*
X222000000Y-102500000D03*
X232000000Y-102500000D03*
X242000000Y-102500000D03*
X252000000Y-102500000D03*
X262000000Y-102500000D03*
X272000000Y-102500000D03*
X282000000Y-102500000D03*
X212000000Y-112500000D03*
X222000000Y-112500000D03*
X232000000Y-112500000D03*
X242000000Y-112500000D03*
X252000000Y-112500000D03*
X262000000Y-112500000D03*
X272000000Y-112500000D03*
X282000000Y-112500000D03*
X212000000Y-122500000D03*
X222000000Y-122500000D03*
X232000000Y-122500000D03*
X242000000Y-122500000D03*
X252000000Y-122500000D03*
X262000000Y-122500000D03*
X272000000Y-122500000D03*
X282000000Y-122500000D03*
X212000000Y-132500000D03*
X222000000Y-132500000D03*
X232000000Y-132500000D03*
X242000000Y-132500000D03*
X252000000Y-132500000D03*
X262000000Y-132500000D03*
X272000000Y-132500000D03*
X282000000Y-132500000D03*
X212000000Y-142500000D03*
X222000000Y-142500000D03*
X232000000Y-142500000D03*
X242000000Y-142500000D03*
X252000000Y-142500000D03*
X262000000Y-142500000D03*
X272000000Y-142500000D03*
X282000000Y-142500000D03*
X221000000Y-73500000D03*
X231000000Y-73500000D03*
X241000000Y-73500000D03*
X251000000Y-73500000D03*
X261000000Y-73500000D03*
X271000000Y-73500000D03*
X281000000Y-73500000D03*
X211000000Y-83500000D03*
X221000000Y-83500000D03*
X231000000Y-83500000D03*
X241000000Y-83500000D03*
X251000000Y-83500000D03*
X261000000Y-83500000D03*
X271000000Y-83500000D03*
X281000000Y-83500000D03*
X211000000Y-93500000D03*
X221000000Y-93500000D03*
X231000000Y-93500000D03*
X241000000Y-93500000D03*
X251000000Y-93500000D03*
X261000000Y-93500000D03*
X271000000Y-93500000D03*
X281000000Y-93500000D03*
X211000000Y-103500000D03*
X221000000Y-103500000D03*
X231000000Y-103500000D03*
X241000000Y-103500000D03*
X251000000Y-103500000D03*
X261000000Y-103500000D03*
X271000000Y-103500000D03*
X281000000Y-103500000D03*
X211000000Y-113500000D03*
X221000000Y-113500000D03*
X231000000Y-113500000D03*
X241000000Y-113500000D03*
X251000000Y-113500000D03*
X261000000Y-113500000D03*
X271000000Y-113500000D03*
X281000000Y-113500000D03*
X211000000Y-123500000D03*
X221000000Y-123500000D03*
X231000000Y-123500000D03*
X241000000Y-123500000D03*
X251000000Y-123500000D03*
X261000000Y-123500000D03*
X271000000Y-123500000D03*
X281000000Y-123500000D03*
X211000000Y-133500000D03*
X221000000Y-133500000D03*
X231000000Y-133500000D03*
X241000000Y-133500000D03*
X251000000Y-133500000D03*
X261000000Y-133500000D03*
X271000000Y-133500000D03*
X281000000Y-133500000D03*
X211000000Y-143500000D03*
X221000000Y-143500000D03*
X231000000Y-143500000D03*
X241000000Y-143500000D03*
X251000000Y-143500000D03*
X261000000Y-143500000D03*
X271000000Y-143500000D03*
X281000000Y-143500000D03*
X222000000Y-74500000D03*
X232000000Y-74500000D03*
X242000000Y-74500000D03*
X252000000Y-74500000D03*
X262000000Y-74500000D03*
X272000000Y-74500000D03*
X282000000Y-74500000D03*
X212000000Y-84500000D03*
X222000000Y-84500000D03*
X232000000Y-84500000D03*
X242000000Y-84500000D03*
X252000000Y-84500000D03*
X262000000Y-84500000D03*
X272000000Y-84500000D03*
X282000000Y-84500000D03*
X212000000Y-94500000D03*
X222000000Y-94500000D03*
X232000000Y-94500000D03*
X242000000Y-94500000D03*
X252000000Y-94500000D03*
X262000000Y-94500000D03*
X272000000Y-94500000D03*
X282000000Y-94500000D03*
X212000000Y-104500000D03*
X222000000Y-104500000D03*
X232000000Y-104500000D03*
X242000000Y-104500000D03*
X252000000Y-104500000D03*
X262000000Y-104500000D03*
X272000000Y-104500000D03*
X282000000Y-104500000D03*
X212000000Y-114500000D03*
X222000000Y-114500000D03*
X232000000Y-114500000D03*
X242000000Y-114500000D03*
X252000000Y-114500000D03*
X262000000Y-114500000D03*
X272000000Y-114500000D03*
X282000000Y-114500000D03*
X212000000Y-124500000D03*
X222000000Y-124500000D03*
X232000000Y-124500000D03*
X242000000Y-124500000D03*
X252000000Y-124500000D03*
X262000000Y-124500000D03*
X272000000Y-124500000D03*
X282000000Y-124500000D03*
X212000000Y-134500000D03*
X222000000Y-134500000D03*
X232000000Y-134500000D03*
X242000000Y-134500000D03*
X252000000Y-134500000D03*
X262000000Y-134500000D03*
X272000000Y-134500000D03*
X282000000Y-134500000D03*
X212000000Y-144500000D03*
X222000000Y-144500000D03*
X232000000Y-144500000D03*
X242000000Y-144500000D03*
X252000000Y-144500000D03*
X262000000Y-144500000D03*
X272000000Y-144500000D03*
X282000000Y-144500000D03*
X222000000Y-76500000D03*
X232000000Y-76500000D03*
X242000000Y-76500000D03*
X252000000Y-76500000D03*
X262000000Y-76500000D03*
X272000000Y-76500000D03*
X282000000Y-76500000D03*
X212000000Y-86500000D03*
X222000000Y-86500000D03*
X232000000Y-86500000D03*
X242000000Y-86500000D03*
X252000000Y-86500000D03*
X262000000Y-86500000D03*
X272000000Y-86500000D03*
X282000000Y-86500000D03*
X212000000Y-96500000D03*
X222000000Y-96500000D03*
X232000000Y-96500000D03*
X242000000Y-96500000D03*
X252000000Y-96500000D03*
X262000000Y-96500000D03*
X272000000Y-96500000D03*
X282000000Y-96500000D03*
X212000000Y-106500000D03*
X222000000Y-106500000D03*
X232000000Y-106500000D03*
X242000000Y-106500000D03*
X252000000Y-106500000D03*
X262000000Y-106500000D03*
X272000000Y-106500000D03*
X282000000Y-106500000D03*
X212000000Y-116500000D03*
X222000000Y-116500000D03*
X232000000Y-116500000D03*
X242000000Y-116500000D03*
X252000000Y-116500000D03*
X262000000Y-116500000D03*
X272000000Y-116500000D03*
X282000000Y-116500000D03*
X212000000Y-126500000D03*
X222000000Y-126500000D03*
X232000000Y-126500000D03*
X242000000Y-126500000D03*
X252000000Y-126500000D03*
X262000000Y-126500000D03*
X272000000Y-126500000D03*
X282000000Y-126500000D03*
X212000000Y-136500000D03*
X222000000Y-136500000D03*
X232000000Y-136500000D03*
X242000000Y-136500000D03*
X252000000Y-136500000D03*
X262000000Y-136500000D03*
X272000000Y-136500000D03*
X282000000Y-136500000D03*
X212000000Y-146500000D03*
X222000000Y-146500000D03*
X232000000Y-146500000D03*
X242000000Y-146500000D03*
X252000000Y-146500000D03*
X272000000Y-146500000D03*
X282000000Y-146500000D03*
X221000000Y-77500000D03*
X231000000Y-77500000D03*
X241000000Y-77500000D03*
X251000000Y-77500000D03*
X261000000Y-77500000D03*
X271000000Y-77500000D03*
X281000000Y-77500000D03*
X211000000Y-87500000D03*
X221000000Y-87500000D03*
X231000000Y-87500000D03*
X241000000Y-87500000D03*
X251000000Y-87500000D03*
X261000000Y-87500000D03*
X271000000Y-87500000D03*
X281000000Y-87500000D03*
X211000000Y-97500000D03*
X221000000Y-97500000D03*
X231000000Y-97500000D03*
X241000000Y-97500000D03*
X251000000Y-97500000D03*
X261000000Y-97500000D03*
X271000000Y-97500000D03*
X281000000Y-97500000D03*
X211000000Y-107500000D03*
X221000000Y-107500000D03*
X231000000Y-107500000D03*
X241000000Y-107500000D03*
X251000000Y-107500000D03*
X261000000Y-107500000D03*
X271000000Y-107500000D03*
X281000000Y-107500000D03*
X221000000Y-78500000D03*
X231000000Y-78500000D03*
X241000000Y-78500000D03*
X251000000Y-78500000D03*
X261000000Y-78500000D03*
X271000000Y-78500000D03*
X281000000Y-78500000D03*
X211000000Y-88500000D03*
X221000000Y-88500000D03*
X231000000Y-88500000D03*
X241000000Y-88500000D03*
X251000000Y-88500000D03*
X261000000Y-88500000D03*
X271000000Y-88500000D03*
X281000000Y-88500000D03*
X211000000Y-98500000D03*
X221000000Y-98500000D03*
X231000000Y-98500000D03*
X241000000Y-98500000D03*
X251000000Y-98500000D03*
X261000000Y-98500000D03*
X271000000Y-98500000D03*
X281000000Y-98500000D03*
X211000000Y-108500000D03*
X221000000Y-108500000D03*
X231000000Y-108500000D03*
X241000000Y-108500000D03*
X251000000Y-108500000D03*
X261000000Y-108500000D03*
X271000000Y-108500000D03*
X281000000Y-108500000D03*
X238000000Y-71500000D03*
X248000000Y-71500000D03*
X258000000Y-71500000D03*
X268000000Y-71500000D03*
X288000000Y-71500000D03*
X218000000Y-81500000D03*
X228000000Y-81500000D03*
X238000000Y-81500000D03*
X248000000Y-81500000D03*
X258000000Y-81500000D03*
X268000000Y-81500000D03*
X278000000Y-81500000D03*
X288000000Y-81500000D03*
X218000000Y-111500000D03*
X228000000Y-111500000D03*
X238000000Y-111500000D03*
X248000000Y-111500000D03*
X258000000Y-111500000D03*
X268000000Y-111500000D03*
X278000000Y-111500000D03*
X288000000Y-111500000D03*
X218000000Y-121500000D03*
X228000000Y-121500000D03*
X238000000Y-121500000D03*
X248000000Y-121500000D03*
X258000000Y-121500000D03*
X268000000Y-121500000D03*
X278000000Y-121500000D03*
X288000000Y-121500000D03*
X218000000Y-131500000D03*
X228000000Y-131500000D03*
X238000000Y-131500000D03*
X248000000Y-131500000D03*
X258000000Y-131500000D03*
X268000000Y-131500000D03*
X278000000Y-131500000D03*
X288000000Y-131500000D03*
X218000000Y-141500000D03*
X228000000Y-141500000D03*
X238000000Y-141500000D03*
X248000000Y-141500000D03*
X258000000Y-141500000D03*
X268000000Y-141500000D03*
X278000000Y-141500000D03*
X288000000Y-141500000D03*
X221000000Y-76500000D03*
X231000000Y-76500000D03*
X241000000Y-76500000D03*
X251000000Y-76500000D03*
X261000000Y-76500000D03*
X271000000Y-76500000D03*
X281000000Y-76500000D03*
X211000000Y-86500000D03*
X221000000Y-86500000D03*
X231000000Y-86500000D03*
X241000000Y-86500000D03*
X251000000Y-86500000D03*
X261000000Y-86500000D03*
X271000000Y-86500000D03*
X281000000Y-86500000D03*
X211000000Y-96500000D03*
X221000000Y-96500000D03*
X231000000Y-96500000D03*
X241000000Y-96500000D03*
X251000000Y-96500000D03*
X261000000Y-96500000D03*
X271000000Y-96500000D03*
X281000000Y-96500000D03*
X211000000Y-106500000D03*
X221000000Y-106500000D03*
X231000000Y-106500000D03*
X241000000Y-106500000D03*
X251000000Y-106500000D03*
X261000000Y-106500000D03*
X271000000Y-106500000D03*
X281000000Y-106500000D03*
X211000000Y-116500000D03*
X221000000Y-116500000D03*
X231000000Y-116500000D03*
X241000000Y-116500000D03*
X251000000Y-116500000D03*
X261000000Y-116500000D03*
X271000000Y-116500000D03*
X281000000Y-116500000D03*
X211000000Y-126500000D03*
X221000000Y-126500000D03*
X231000000Y-126500000D03*
X241000000Y-126500000D03*
X251000000Y-126500000D03*
X261000000Y-126500000D03*
X271000000Y-126500000D03*
X281000000Y-126500000D03*
X211000000Y-136500000D03*
X221000000Y-136500000D03*
X231000000Y-136500000D03*
X241000000Y-136500000D03*
X251000000Y-136500000D03*
X261000000Y-136500000D03*
X271000000Y-136500000D03*
X281000000Y-136500000D03*
X211000000Y-146500000D03*
X221000000Y-146500000D03*
X231000000Y-146500000D03*
X241000000Y-146500000D03*
X251000000Y-146500000D03*
X271000000Y-146500000D03*
X281000000Y-146500000D03*
X221000000Y-74500000D03*
X231000000Y-74500000D03*
X241000000Y-74500000D03*
X251000000Y-74500000D03*
X261000000Y-74500000D03*
X271000000Y-74500000D03*
X281000000Y-74500000D03*
X211000000Y-84500000D03*
X221000000Y-84500000D03*
X231000000Y-84500000D03*
X241000000Y-84500000D03*
X251000000Y-84500000D03*
X261000000Y-84500000D03*
X271000000Y-84500000D03*
X281000000Y-84500000D03*
X211000000Y-94500000D03*
X221000000Y-94500000D03*
X231000000Y-94500000D03*
X241000000Y-94500000D03*
X251000000Y-94500000D03*
X261000000Y-94500000D03*
X271000000Y-94500000D03*
X281000000Y-94500000D03*
X211000000Y-104500000D03*
X221000000Y-104500000D03*
X231000000Y-104500000D03*
X241000000Y-104500000D03*
X251000000Y-104500000D03*
X261000000Y-104500000D03*
X271000000Y-104500000D03*
X281000000Y-104500000D03*
X211000000Y-114500000D03*
X221000000Y-114500000D03*
X231000000Y-114500000D03*
X241000000Y-114500000D03*
X251000000Y-114500000D03*
X261000000Y-114500000D03*
X271000000Y-114500000D03*
X281000000Y-114500000D03*
X211000000Y-124500000D03*
X221000000Y-124500000D03*
X231000000Y-124500000D03*
X241000000Y-124500000D03*
X251000000Y-124500000D03*
X261000000Y-124500000D03*
X271000000Y-124500000D03*
X281000000Y-124500000D03*
X211000000Y-134500000D03*
X221000000Y-134500000D03*
X231000000Y-134500000D03*
X241000000Y-134500000D03*
X251000000Y-134500000D03*
X261000000Y-134500000D03*
X271000000Y-134500000D03*
X281000000Y-134500000D03*
X211000000Y-144500000D03*
X221000000Y-144500000D03*
X231000000Y-144500000D03*
X241000000Y-144500000D03*
X251000000Y-144500000D03*
X261000000Y-144500000D03*
X271000000Y-144500000D03*
X281000000Y-144500000D03*
X222000000Y-73500000D03*
X232000000Y-73500000D03*
X242000000Y-73500000D03*
X252000000Y-73500000D03*
X262000000Y-73500000D03*
X272000000Y-73500000D03*
X282000000Y-73500000D03*
X212000000Y-83500000D03*
X222000000Y-83500000D03*
X232000000Y-83500000D03*
X242000000Y-83500000D03*
X252000000Y-83500000D03*
X262000000Y-83500000D03*
X272000000Y-83500000D03*
X282000000Y-83500000D03*
X212000000Y-93500000D03*
X222000000Y-93500000D03*
X232000000Y-93500000D03*
X242000000Y-93500000D03*
X252000000Y-93500000D03*
X262000000Y-93500000D03*
X272000000Y-93500000D03*
X282000000Y-93500000D03*
X212000000Y-103500000D03*
X222000000Y-103500000D03*
X232000000Y-103500000D03*
X242000000Y-103500000D03*
X252000000Y-103500000D03*
X262000000Y-103500000D03*
X272000000Y-103500000D03*
X282000000Y-103500000D03*
X212000000Y-113500000D03*
X222000000Y-113500000D03*
X232000000Y-113500000D03*
X242000000Y-113500000D03*
X252000000Y-113500000D03*
X262000000Y-113500000D03*
X272000000Y-113500000D03*
X282000000Y-113500000D03*
X212000000Y-123500000D03*
X222000000Y-123500000D03*
X232000000Y-123500000D03*
X242000000Y-123500000D03*
X252000000Y-123500000D03*
X262000000Y-123500000D03*
X272000000Y-123500000D03*
X282000000Y-123500000D03*
X212000000Y-133500000D03*
X222000000Y-133500000D03*
X232000000Y-133500000D03*
X242000000Y-133500000D03*
X252000000Y-133500000D03*
X262000000Y-133500000D03*
X272000000Y-133500000D03*
X282000000Y-133500000D03*
X212000000Y-143500000D03*
X222000000Y-143500000D03*
X232000000Y-143500000D03*
X242000000Y-143500000D03*
X252000000Y-143500000D03*
X262000000Y-143500000D03*
X272000000Y-143500000D03*
X282000000Y-143500000D03*
X255000000Y-71500000D03*
X215000000Y-111500000D03*
X225000000Y-111500000D03*
X235000000Y-111500000D03*
X245000000Y-111500000D03*
X255000000Y-111500000D03*
X265000000Y-111500000D03*
X275000000Y-111500000D03*
X285000000Y-111500000D03*
X215000000Y-121500000D03*
X225000000Y-121500000D03*
X235000000Y-121500000D03*
X245000000Y-121500000D03*
X255000000Y-121500000D03*
X265000000Y-121500000D03*
X275000000Y-121500000D03*
X285000000Y-121500000D03*
X215000000Y-131500000D03*
X225000000Y-131500000D03*
X235000000Y-131500000D03*
X245000000Y-131500000D03*
X255000000Y-131500000D03*
X265000000Y-131500000D03*
X275000000Y-131500000D03*
X285000000Y-131500000D03*
X215000000Y-141500000D03*
X225000000Y-141500000D03*
X235000000Y-141500000D03*
X245000000Y-141500000D03*
X255000000Y-141500000D03*
X265000000Y-141500000D03*
X275000000Y-141500000D03*
X285000000Y-141500000D03*
X222000000Y-77500000D03*
X232000000Y-77500000D03*
X242000000Y-77500000D03*
X252000000Y-77500000D03*
X262000000Y-77500000D03*
X272000000Y-77500000D03*
X282000000Y-77500000D03*
X212000000Y-87500000D03*
X222000000Y-87500000D03*
X232000000Y-87500000D03*
X242000000Y-87500000D03*
X252000000Y-87500000D03*
X262000000Y-87500000D03*
X272000000Y-87500000D03*
X282000000Y-87500000D03*
X212000000Y-97500000D03*
X222000000Y-97500000D03*
X232000000Y-97500000D03*
X242000000Y-97500000D03*
X252000000Y-97500000D03*
X262000000Y-97500000D03*
X272000000Y-97500000D03*
X282000000Y-97500000D03*
X212000000Y-107500000D03*
X222000000Y-107500000D03*
X232000000Y-107500000D03*
X242000000Y-107500000D03*
X252000000Y-107500000D03*
X262000000Y-107500000D03*
X272000000Y-107500000D03*
X282000000Y-107500000D03*
X242000000Y-71500000D03*
X252000000Y-71500000D03*
X212000000Y-81500000D03*
X222000000Y-81500000D03*
X232000000Y-81500000D03*
X242000000Y-81500000D03*
X252000000Y-81500000D03*
X262000000Y-81500000D03*
X272000000Y-81500000D03*
X282000000Y-81500000D03*
X212000000Y-111500000D03*
X222000000Y-111500000D03*
X232000000Y-111500000D03*
X242000000Y-111500000D03*
X252000000Y-111500000D03*
X262000000Y-111500000D03*
X272000000Y-111500000D03*
X282000000Y-111500000D03*
X212000000Y-121500000D03*
X222000000Y-121500000D03*
X232000000Y-121500000D03*
X242000000Y-121500000D03*
X252000000Y-121500000D03*
X262000000Y-121500000D03*
X272000000Y-121500000D03*
X282000000Y-121500000D03*
X212000000Y-131500000D03*
X222000000Y-131500000D03*
X232000000Y-131500000D03*
X242000000Y-131500000D03*
X252000000Y-131500000D03*
X262000000Y-131500000D03*
X272000000Y-131500000D03*
X282000000Y-131500000D03*
X212000000Y-141500000D03*
X222000000Y-141500000D03*
X232000000Y-141500000D03*
X242000000Y-141500000D03*
X252000000Y-141500000D03*
X262000000Y-141500000D03*
X272000000Y-141500000D03*
X282000000Y-141500000D03*
X222000000Y-75500000D03*
X232000000Y-75500000D03*
X242000000Y-75500000D03*
X252000000Y-75500000D03*
X262000000Y-75500000D03*
X272000000Y-75500000D03*
X282000000Y-75500000D03*
X212000000Y-85500000D03*
X222000000Y-85500000D03*
X232000000Y-85500000D03*
X242000000Y-85500000D03*
X252000000Y-85500000D03*
X262000000Y-85500000D03*
X272000000Y-85500000D03*
X282000000Y-85500000D03*
X212000000Y-95500000D03*
X222000000Y-95500000D03*
X232000000Y-95500000D03*
X242000000Y-95500000D03*
X252000000Y-95500000D03*
X262000000Y-95500000D03*
X272000000Y-95500000D03*
X282000000Y-95500000D03*
X212000000Y-105500000D03*
X222000000Y-105500000D03*
X232000000Y-105500000D03*
X242000000Y-105500000D03*
X252000000Y-105500000D03*
X262000000Y-105500000D03*
X272000000Y-105500000D03*
X282000000Y-105500000D03*
X212000000Y-115500000D03*
X222000000Y-115500000D03*
X232000000Y-115500000D03*
X242000000Y-115500000D03*
X252000000Y-115500000D03*
X262000000Y-115500000D03*
X272000000Y-115500000D03*
X282000000Y-115500000D03*
X212000000Y-125500000D03*
X222000000Y-125500000D03*
X232000000Y-125500000D03*
X242000000Y-125500000D03*
X252000000Y-125500000D03*
X262000000Y-125500000D03*
X272000000Y-125500000D03*
X282000000Y-125500000D03*
X212000000Y-135500000D03*
X222000000Y-135500000D03*
X232000000Y-135500000D03*
X242000000Y-135500000D03*
X252000000Y-135500000D03*
X262000000Y-135500000D03*
X272000000Y-135500000D03*
X282000000Y-135500000D03*
X212000000Y-145500000D03*
X222000000Y-145500000D03*
X232000000Y-145500000D03*
X242000000Y-145500000D03*
X252000000Y-145500000D03*
X262000000Y-145500000D03*
X272000000Y-145500000D03*
X282000000Y-145500000D03*
X237000000Y-71500000D03*
X247000000Y-71500000D03*
X277000000Y-71500000D03*
X287000000Y-71500000D03*
X217000000Y-81500000D03*
X227000000Y-81500000D03*
X237000000Y-81500000D03*
X247000000Y-81500000D03*
X257000000Y-81500000D03*
X267000000Y-81500000D03*
X277000000Y-81500000D03*
X287000000Y-81500000D03*
X217000000Y-111500000D03*
X227000000Y-111500000D03*
X237000000Y-111500000D03*
X247000000Y-111500000D03*
X257000000Y-111500000D03*
X267000000Y-111500000D03*
X277000000Y-111500000D03*
X287000000Y-111500000D03*
X217000000Y-121500000D03*
X227000000Y-121500000D03*
X237000000Y-121500000D03*
X247000000Y-121500000D03*
X257000000Y-121500000D03*
X267000000Y-121500000D03*
X277000000Y-121500000D03*
X287000000Y-121500000D03*
X217000000Y-131500000D03*
X227000000Y-131500000D03*
X237000000Y-131500000D03*
X247000000Y-131500000D03*
X257000000Y-131500000D03*
X267000000Y-131500000D03*
X277000000Y-131500000D03*
X287000000Y-131500000D03*
X217000000Y-141500000D03*
X227000000Y-141500000D03*
X237000000Y-141500000D03*
X247000000Y-141500000D03*
X257000000Y-141500000D03*
X267000000Y-141500000D03*
X277000000Y-141500000D03*
X287000000Y-141500000D03*
X256000000Y-71500000D03*
X216000000Y-111500000D03*
X226000000Y-111500000D03*
X236000000Y-111500000D03*
X246000000Y-111500000D03*
X256000000Y-111500000D03*
X266000000Y-111500000D03*
X276000000Y-111500000D03*
X286000000Y-111500000D03*
X216000000Y-121500000D03*
X226000000Y-121500000D03*
X236000000Y-121500000D03*
X246000000Y-121500000D03*
X256000000Y-121500000D03*
X266000000Y-121500000D03*
X276000000Y-121500000D03*
X286000000Y-121500000D03*
X216000000Y-131500000D03*
X226000000Y-131500000D03*
X236000000Y-131500000D03*
X246000000Y-131500000D03*
X256000000Y-131500000D03*
X266000000Y-131500000D03*
X276000000Y-131500000D03*
X286000000Y-131500000D03*
X216000000Y-141500000D03*
X226000000Y-141500000D03*
X236000000Y-141500000D03*
X246000000Y-141500000D03*
X256000000Y-141500000D03*
X266000000Y-141500000D03*
X276000000Y-141500000D03*
X286000000Y-141500000D03*
X229000000Y-77500000D03*
X239000000Y-77500000D03*
X249000000Y-77500000D03*
X259000000Y-77500000D03*
X269000000Y-77500000D03*
X279000000Y-77500000D03*
X219000000Y-87500000D03*
X229000000Y-87500000D03*
X239000000Y-87500000D03*
X249000000Y-87500000D03*
X259000000Y-87500000D03*
X269000000Y-87500000D03*
X279000000Y-87500000D03*
X219000000Y-97500000D03*
X229000000Y-97500000D03*
X239000000Y-97500000D03*
X249000000Y-97500000D03*
X259000000Y-97500000D03*
X269000000Y-97500000D03*
X279000000Y-97500000D03*
X219000000Y-107500000D03*
X229000000Y-107500000D03*
X239000000Y-107500000D03*
X249000000Y-107500000D03*
X259000000Y-107500000D03*
X269000000Y-107500000D03*
X279000000Y-107500000D03*
X229000000Y-72500000D03*
X239000000Y-72500000D03*
X249000000Y-72500000D03*
X279000000Y-72500000D03*
X289000000Y-72500000D03*
X219000000Y-82500000D03*
X229000000Y-82500000D03*
X239000000Y-82500000D03*
X249000000Y-82500000D03*
X259000000Y-82500000D03*
X269000000Y-82500000D03*
X279000000Y-82500000D03*
X219000000Y-92500000D03*
X229000000Y-92500000D03*
X239000000Y-92500000D03*
X249000000Y-92500000D03*
X259000000Y-92500000D03*
X269000000Y-92500000D03*
X279000000Y-92500000D03*
X219000000Y-102500000D03*
X229000000Y-102500000D03*
X239000000Y-102500000D03*
X249000000Y-102500000D03*
X259000000Y-102500000D03*
X269000000Y-102500000D03*
X279000000Y-102500000D03*
X219000000Y-112500000D03*
X229000000Y-112500000D03*
X239000000Y-112500000D03*
X249000000Y-112500000D03*
X259000000Y-112500000D03*
X269000000Y-112500000D03*
X279000000Y-112500000D03*
X289000000Y-112500000D03*
X219000000Y-122500000D03*
X229000000Y-122500000D03*
X239000000Y-122500000D03*
X249000000Y-122500000D03*
X259000000Y-122500000D03*
X269000000Y-122500000D03*
X279000000Y-122500000D03*
X289000000Y-122500000D03*
X219000000Y-132500000D03*
X229000000Y-132500000D03*
X239000000Y-132500000D03*
X249000000Y-132500000D03*
X259000000Y-132500000D03*
X269000000Y-132500000D03*
X279000000Y-132500000D03*
X289000000Y-132500000D03*
X219000000Y-142500000D03*
X229000000Y-142500000D03*
X239000000Y-142500000D03*
X249000000Y-142500000D03*
X259000000Y-142500000D03*
X269000000Y-142500000D03*
X279000000Y-142500000D03*
X289000000Y-142500000D03*
X228000000Y-78500000D03*
X238000000Y-78500000D03*
X248000000Y-78500000D03*
X258000000Y-78500000D03*
X268000000Y-78500000D03*
X278000000Y-78500000D03*
X288000000Y-78500000D03*
X218000000Y-88500000D03*
X228000000Y-88500000D03*
X238000000Y-88500000D03*
X248000000Y-88500000D03*
X258000000Y-88500000D03*
X268000000Y-88500000D03*
X278000000Y-88500000D03*
X288000000Y-88500000D03*
X218000000Y-98500000D03*
X228000000Y-98500000D03*
X238000000Y-98500000D03*
X248000000Y-98500000D03*
X258000000Y-98500000D03*
X268000000Y-98500000D03*
X278000000Y-98500000D03*
X288000000Y-98500000D03*
X218000000Y-108500000D03*
X228000000Y-108500000D03*
X238000000Y-108500000D03*
X248000000Y-108500000D03*
X258000000Y-108500000D03*
X268000000Y-108500000D03*
X278000000Y-108500000D03*
X226000000Y-78500000D03*
X236000000Y-78500000D03*
X246000000Y-78500000D03*
X256000000Y-78500000D03*
X266000000Y-78500000D03*
X276000000Y-78500000D03*
X286000000Y-78500000D03*
X216000000Y-88500000D03*
X226000000Y-88500000D03*
X236000000Y-88500000D03*
X246000000Y-88500000D03*
X256000000Y-88500000D03*
X266000000Y-88500000D03*
X276000000Y-88500000D03*
X286000000Y-88500000D03*
X216000000Y-98500000D03*
X226000000Y-98500000D03*
X236000000Y-98500000D03*
X246000000Y-98500000D03*
X256000000Y-98500000D03*
X266000000Y-98500000D03*
X276000000Y-98500000D03*
X286000000Y-98500000D03*
X216000000Y-108500000D03*
X226000000Y-108500000D03*
X236000000Y-108500000D03*
X246000000Y-108500000D03*
X256000000Y-108500000D03*
X266000000Y-108500000D03*
X276000000Y-108500000D03*
X286000000Y-108500000D03*
X227000000Y-78500000D03*
X237000000Y-78500000D03*
X247000000Y-78500000D03*
X257000000Y-78500000D03*
X267000000Y-78500000D03*
X277000000Y-78500000D03*
X287000000Y-78500000D03*
X217000000Y-88500000D03*
X227000000Y-88500000D03*
X237000000Y-88500000D03*
X247000000Y-88500000D03*
X257000000Y-88500000D03*
X267000000Y-88500000D03*
X277000000Y-88500000D03*
X287000000Y-88500000D03*
X217000000Y-98500000D03*
X227000000Y-98500000D03*
X237000000Y-98500000D03*
X247000000Y-98500000D03*
X257000000Y-98500000D03*
X267000000Y-98500000D03*
X277000000Y-98500000D03*
X287000000Y-98500000D03*
X217000000Y-108500000D03*
X227000000Y-108500000D03*
X237000000Y-108500000D03*
X247000000Y-108500000D03*
X257000000Y-108500000D03*
X267000000Y-108500000D03*
X277000000Y-108500000D03*
X228000000Y-72500000D03*
X238000000Y-72500000D03*
X248000000Y-72500000D03*
X258000000Y-72500000D03*
X268000000Y-72500000D03*
X278000000Y-72500000D03*
X288000000Y-72500000D03*
X218000000Y-82500000D03*
X228000000Y-82500000D03*
X238000000Y-82500000D03*
X248000000Y-82500000D03*
X258000000Y-82500000D03*
X268000000Y-82500000D03*
X278000000Y-82500000D03*
X288000000Y-82500000D03*
X218000000Y-92500000D03*
X228000000Y-92500000D03*
X238000000Y-92500000D03*
X248000000Y-92500000D03*
X258000000Y-92500000D03*
X268000000Y-92500000D03*
X278000000Y-92500000D03*
X288000000Y-92500000D03*
X218000000Y-102500000D03*
X228000000Y-102500000D03*
X238000000Y-102500000D03*
X248000000Y-102500000D03*
X258000000Y-102500000D03*
X268000000Y-102500000D03*
X278000000Y-102500000D03*
X288000000Y-102500000D03*
X218000000Y-112500000D03*
X228000000Y-112500000D03*
X238000000Y-112500000D03*
X248000000Y-112500000D03*
X258000000Y-112500000D03*
X268000000Y-112500000D03*
X278000000Y-112500000D03*
X288000000Y-112500000D03*
X218000000Y-122500000D03*
X228000000Y-122500000D03*
X238000000Y-122500000D03*
X248000000Y-122500000D03*
X258000000Y-122500000D03*
X268000000Y-122500000D03*
X278000000Y-122500000D03*
X288000000Y-122500000D03*
X218000000Y-132500000D03*
X228000000Y-132500000D03*
X238000000Y-132500000D03*
X248000000Y-132500000D03*
X258000000Y-132500000D03*
X268000000Y-132500000D03*
X278000000Y-132500000D03*
X288000000Y-132500000D03*
X218000000Y-142500000D03*
X228000000Y-142500000D03*
X238000000Y-142500000D03*
X248000000Y-142500000D03*
X258000000Y-142500000D03*
X268000000Y-142500000D03*
X278000000Y-142500000D03*
X288000000Y-142500000D03*
X228000000Y-77500000D03*
X238000000Y-77500000D03*
X248000000Y-77500000D03*
X258000000Y-77500000D03*
X268000000Y-77500000D03*
X278000000Y-77500000D03*
X288000000Y-77500000D03*
X218000000Y-87500000D03*
X228000000Y-87500000D03*
X238000000Y-87500000D03*
X248000000Y-87500000D03*
X258000000Y-87500000D03*
X268000000Y-87500000D03*
X278000000Y-87500000D03*
X288000000Y-87500000D03*
X218000000Y-97500000D03*
X228000000Y-97500000D03*
X238000000Y-97500000D03*
X248000000Y-97500000D03*
X258000000Y-97500000D03*
X268000000Y-97500000D03*
X278000000Y-97500000D03*
X288000000Y-97500000D03*
X218000000Y-107500000D03*
X228000000Y-107500000D03*
X238000000Y-107500000D03*
X248000000Y-107500000D03*
X258000000Y-107500000D03*
X268000000Y-107500000D03*
X278000000Y-107500000D03*
X239000000Y-71500000D03*
X249000000Y-71500000D03*
X259000000Y-71500000D03*
X269000000Y-71500000D03*
X289000000Y-71500000D03*
X219000000Y-81500000D03*
X229000000Y-81500000D03*
X239000000Y-81500000D03*
X249000000Y-81500000D03*
X259000000Y-81500000D03*
X269000000Y-81500000D03*
X279000000Y-81500000D03*
X219000000Y-111500000D03*
X229000000Y-111500000D03*
X239000000Y-111500000D03*
X249000000Y-111500000D03*
X259000000Y-111500000D03*
X269000000Y-111500000D03*
X279000000Y-111500000D03*
X289000000Y-111500000D03*
X219000000Y-121500000D03*
X229000000Y-121500000D03*
X239000000Y-121500000D03*
X249000000Y-121500000D03*
X259000000Y-121500000D03*
X269000000Y-121500000D03*
X279000000Y-121500000D03*
X289000000Y-121500000D03*
X219000000Y-131500000D03*
X229000000Y-131500000D03*
X239000000Y-131500000D03*
X249000000Y-131500000D03*
X259000000Y-131500000D03*
X269000000Y-131500000D03*
X279000000Y-131500000D03*
X289000000Y-131500000D03*
X219000000Y-141500000D03*
X229000000Y-141500000D03*
X239000000Y-141500000D03*
X249000000Y-141500000D03*
X259000000Y-141500000D03*
X269000000Y-141500000D03*
X279000000Y-141500000D03*
X289000000Y-141500000D03*
X229000000Y-74500000D03*
X239000000Y-74500000D03*
X249000000Y-74500000D03*
X279000000Y-74500000D03*
X219000000Y-84500000D03*
X229000000Y-84500000D03*
X239000000Y-84500000D03*
X249000000Y-84500000D03*
X259000000Y-84500000D03*
X269000000Y-84500000D03*
X279000000Y-84500000D03*
X219000000Y-94500000D03*
X229000000Y-94500000D03*
X239000000Y-94500000D03*
X249000000Y-94500000D03*
X259000000Y-94500000D03*
X269000000Y-94500000D03*
X279000000Y-94500000D03*
X219000000Y-104500000D03*
X229000000Y-104500000D03*
X239000000Y-104500000D03*
X249000000Y-104500000D03*
X259000000Y-104500000D03*
X269000000Y-104500000D03*
X279000000Y-104500000D03*
X219000000Y-114500000D03*
X229000000Y-114500000D03*
X239000000Y-114500000D03*
X249000000Y-114500000D03*
X259000000Y-114500000D03*
X269000000Y-114500000D03*
X279000000Y-114500000D03*
X289000000Y-114500000D03*
X219000000Y-124500000D03*
X229000000Y-124500000D03*
X239000000Y-124500000D03*
X249000000Y-124500000D03*
X259000000Y-124500000D03*
X269000000Y-124500000D03*
X279000000Y-124500000D03*
X289000000Y-124500000D03*
X219000000Y-134500000D03*
X229000000Y-134500000D03*
X239000000Y-134500000D03*
X249000000Y-134500000D03*
X259000000Y-134500000D03*
X269000000Y-134500000D03*
X279000000Y-134500000D03*
X289000000Y-134500000D03*
X219000000Y-144500000D03*
X229000000Y-144500000D03*
X239000000Y-144500000D03*
X249000000Y-144500000D03*
X269000000Y-144500000D03*
X279000000Y-144500000D03*
X289000000Y-144500000D03*
X225000000Y-78500000D03*
X235000000Y-78500000D03*
X245000000Y-78500000D03*
X255000000Y-78500000D03*
X265000000Y-78500000D03*
X275000000Y-78500000D03*
X285000000Y-78500000D03*
X215000000Y-88500000D03*
X225000000Y-88500000D03*
X235000000Y-88500000D03*
X245000000Y-88500000D03*
X255000000Y-88500000D03*
X265000000Y-88500000D03*
X275000000Y-88500000D03*
X285000000Y-88500000D03*
X215000000Y-98500000D03*
X225000000Y-98500000D03*
X235000000Y-98500000D03*
X245000000Y-98500000D03*
X255000000Y-98500000D03*
X265000000Y-98500000D03*
X275000000Y-98500000D03*
X285000000Y-98500000D03*
X215000000Y-108500000D03*
X225000000Y-108500000D03*
X235000000Y-108500000D03*
X245000000Y-108500000D03*
X255000000Y-108500000D03*
X265000000Y-108500000D03*
X275000000Y-108500000D03*
X285000000Y-108500000D03*
X229000000Y-76500000D03*
X239000000Y-76500000D03*
X249000000Y-76500000D03*
X259000000Y-76500000D03*
X269000000Y-76500000D03*
X279000000Y-76500000D03*
X219000000Y-86500000D03*
X229000000Y-86500000D03*
X239000000Y-86500000D03*
X249000000Y-86500000D03*
X259000000Y-86500000D03*
X269000000Y-86500000D03*
X279000000Y-86500000D03*
X219000000Y-96500000D03*
X229000000Y-96500000D03*
X239000000Y-96500000D03*
X249000000Y-96500000D03*
X259000000Y-96500000D03*
X269000000Y-96500000D03*
X279000000Y-96500000D03*
X219000000Y-106500000D03*
X229000000Y-106500000D03*
X239000000Y-106500000D03*
X249000000Y-106500000D03*
X259000000Y-106500000D03*
X269000000Y-106500000D03*
X279000000Y-106500000D03*
X219000000Y-116500000D03*
X229000000Y-116500000D03*
X239000000Y-116500000D03*
X249000000Y-116500000D03*
X259000000Y-116500000D03*
X269000000Y-116500000D03*
X279000000Y-116500000D03*
X289000000Y-116500000D03*
X219000000Y-126500000D03*
X229000000Y-126500000D03*
X239000000Y-126500000D03*
X249000000Y-126500000D03*
X259000000Y-126500000D03*
X269000000Y-126500000D03*
X279000000Y-126500000D03*
X289000000Y-126500000D03*
X219000000Y-136500000D03*
X229000000Y-136500000D03*
X239000000Y-136500000D03*
X249000000Y-136500000D03*
X259000000Y-136500000D03*
X269000000Y-136500000D03*
X279000000Y-136500000D03*
X289000000Y-136500000D03*
X229000000Y-146500000D03*
X239000000Y-146500000D03*
X249000000Y-146500000D03*
X259000000Y-146500000D03*
X279000000Y-146500000D03*
X289000000Y-146500000D03*
X228000000Y-73500000D03*
X238000000Y-73500000D03*
X248000000Y-73500000D03*
X278000000Y-73500000D03*
X288000000Y-73500000D03*
X218000000Y-83500000D03*
X228000000Y-83500000D03*
X238000000Y-83500000D03*
X248000000Y-83500000D03*
X258000000Y-83500000D03*
X268000000Y-83500000D03*
X278000000Y-83500000D03*
X288000000Y-83500000D03*
X218000000Y-93500000D03*
X228000000Y-93500000D03*
X238000000Y-93500000D03*
X248000000Y-93500000D03*
X258000000Y-93500000D03*
X268000000Y-93500000D03*
X278000000Y-93500000D03*
X288000000Y-93500000D03*
X218000000Y-103500000D03*
X228000000Y-103500000D03*
X238000000Y-103500000D03*
X248000000Y-103500000D03*
X258000000Y-103500000D03*
X268000000Y-103500000D03*
X278000000Y-103500000D03*
X288000000Y-103500000D03*
X218000000Y-113500000D03*
X228000000Y-113500000D03*
X238000000Y-113500000D03*
X248000000Y-113500000D03*
X258000000Y-113500000D03*
X268000000Y-113500000D03*
X278000000Y-113500000D03*
X288000000Y-113500000D03*
X218000000Y-123500000D03*
X228000000Y-123500000D03*
X238000000Y-123500000D03*
X248000000Y-123500000D03*
X258000000Y-123500000D03*
X268000000Y-123500000D03*
X278000000Y-123500000D03*
X288000000Y-123500000D03*
X218000000Y-133500000D03*
X228000000Y-133500000D03*
X238000000Y-133500000D03*
X248000000Y-133500000D03*
X258000000Y-133500000D03*
X268000000Y-133500000D03*
X278000000Y-133500000D03*
X288000000Y-133500000D03*
X218000000Y-143500000D03*
X228000000Y-143500000D03*
X238000000Y-143500000D03*
X248000000Y-143500000D03*
X258000000Y-143500000D03*
X268000000Y-143500000D03*
X278000000Y-143500000D03*
X288000000Y-143500000D03*
X223000000Y-78500000D03*
X233000000Y-78500000D03*
X243000000Y-78500000D03*
X253000000Y-78500000D03*
X263000000Y-78500000D03*
X273000000Y-78500000D03*
X283000000Y-78500000D03*
X213000000Y-88500000D03*
X223000000Y-88500000D03*
X233000000Y-88500000D03*
X243000000Y-88500000D03*
X253000000Y-88500000D03*
X263000000Y-88500000D03*
X273000000Y-88500000D03*
X283000000Y-88500000D03*
X213000000Y-98500000D03*
X223000000Y-98500000D03*
X233000000Y-98500000D03*
X243000000Y-98500000D03*
X253000000Y-98500000D03*
X263000000Y-98500000D03*
X273000000Y-98500000D03*
X283000000Y-98500000D03*
X213000000Y-108500000D03*
X223000000Y-108500000D03*
X233000000Y-108500000D03*
X243000000Y-108500000D03*
X253000000Y-108500000D03*
X263000000Y-108500000D03*
X273000000Y-108500000D03*
X283000000Y-108500000D03*
X228000000Y-76500000D03*
X238000000Y-76500000D03*
X248000000Y-76500000D03*
X258000000Y-76500000D03*
X268000000Y-76500000D03*
X278000000Y-76500000D03*
X288000000Y-76500000D03*
X218000000Y-86500000D03*
X228000000Y-86500000D03*
X238000000Y-86500000D03*
X248000000Y-86500000D03*
X258000000Y-86500000D03*
X268000000Y-86500000D03*
X278000000Y-86500000D03*
X288000000Y-86500000D03*
X218000000Y-96500000D03*
X228000000Y-96500000D03*
X238000000Y-96500000D03*
X248000000Y-96500000D03*
X258000000Y-96500000D03*
X268000000Y-96500000D03*
X278000000Y-96500000D03*
X288000000Y-96500000D03*
X218000000Y-106500000D03*
X228000000Y-106500000D03*
X238000000Y-106500000D03*
X248000000Y-106500000D03*
X258000000Y-106500000D03*
X268000000Y-106500000D03*
X278000000Y-106500000D03*
X288000000Y-106500000D03*
X218000000Y-116500000D03*
X228000000Y-116500000D03*
X238000000Y-116500000D03*
X248000000Y-116500000D03*
X258000000Y-116500000D03*
X268000000Y-116500000D03*
X278000000Y-116500000D03*
X288000000Y-116500000D03*
X218000000Y-126500000D03*
X228000000Y-126500000D03*
X238000000Y-126500000D03*
X248000000Y-126500000D03*
X258000000Y-126500000D03*
X268000000Y-126500000D03*
X278000000Y-126500000D03*
X288000000Y-126500000D03*
X218000000Y-136500000D03*
X228000000Y-136500000D03*
X238000000Y-136500000D03*
X248000000Y-136500000D03*
X258000000Y-136500000D03*
X268000000Y-136500000D03*
X278000000Y-136500000D03*
X288000000Y-136500000D03*
X228000000Y-146500000D03*
X238000000Y-146500000D03*
X248000000Y-146500000D03*
X258000000Y-146500000D03*
X278000000Y-146500000D03*
X288000000Y-146500000D03*
X228000000Y-75500000D03*
X238000000Y-75500000D03*
X248000000Y-75500000D03*
X278000000Y-75500000D03*
X288000000Y-75500000D03*
X218000000Y-85500000D03*
X228000000Y-85500000D03*
X238000000Y-85500000D03*
X248000000Y-85500000D03*
X258000000Y-85500000D03*
X268000000Y-85500000D03*
X278000000Y-85500000D03*
X288000000Y-85500000D03*
X218000000Y-95500000D03*
X228000000Y-95500000D03*
X238000000Y-95500000D03*
X248000000Y-95500000D03*
X258000000Y-95500000D03*
X268000000Y-95500000D03*
X278000000Y-95500000D03*
X288000000Y-95500000D03*
X218000000Y-105500000D03*
X228000000Y-105500000D03*
X238000000Y-105500000D03*
X248000000Y-105500000D03*
X258000000Y-105500000D03*
X268000000Y-105500000D03*
X278000000Y-105500000D03*
X288000000Y-105500000D03*
X218000000Y-115500000D03*
X228000000Y-115500000D03*
X238000000Y-115500000D03*
X248000000Y-115500000D03*
X258000000Y-115500000D03*
X268000000Y-115500000D03*
X278000000Y-115500000D03*
X288000000Y-115500000D03*
X218000000Y-125500000D03*
X228000000Y-125500000D03*
X238000000Y-125500000D03*
X248000000Y-125500000D03*
X258000000Y-125500000D03*
X268000000Y-125500000D03*
X278000000Y-125500000D03*
X288000000Y-125500000D03*
X218000000Y-135500000D03*
X228000000Y-135500000D03*
X238000000Y-135500000D03*
X248000000Y-135500000D03*
X258000000Y-135500000D03*
X268000000Y-135500000D03*
X278000000Y-135500000D03*
X288000000Y-135500000D03*
X228000000Y-145500000D03*
X238000000Y-145500000D03*
X248000000Y-145500000D03*
X278000000Y-145500000D03*
X288000000Y-145500000D03*
X229000000Y-78500000D03*
X239000000Y-78500000D03*
X249000000Y-78500000D03*
X259000000Y-78500000D03*
X269000000Y-78500000D03*
X279000000Y-78500000D03*
X219000000Y-88500000D03*
X229000000Y-88500000D03*
X239000000Y-88500000D03*
X249000000Y-88500000D03*
X259000000Y-88500000D03*
X269000000Y-88500000D03*
X279000000Y-88500000D03*
X219000000Y-98500000D03*
X229000000Y-98500000D03*
X239000000Y-98500000D03*
X249000000Y-98500000D03*
X259000000Y-98500000D03*
X269000000Y-98500000D03*
X279000000Y-98500000D03*
X219000000Y-108500000D03*
X229000000Y-108500000D03*
X239000000Y-108500000D03*
X249000000Y-108500000D03*
X259000000Y-108500000D03*
X269000000Y-108500000D03*
X279000000Y-108500000D03*
X289000000Y-108500000D03*
X229000000Y-75500000D03*
X239000000Y-75500000D03*
X249000000Y-75500000D03*
X259000000Y-75500000D03*
X269000000Y-75500000D03*
X279000000Y-75500000D03*
X219000000Y-85500000D03*
X229000000Y-85500000D03*
X239000000Y-85500000D03*
X249000000Y-85500000D03*
X259000000Y-85500000D03*
X269000000Y-85500000D03*
X279000000Y-85500000D03*
X219000000Y-95500000D03*
X229000000Y-95500000D03*
X239000000Y-95500000D03*
X249000000Y-95500000D03*
X259000000Y-95500000D03*
X269000000Y-95500000D03*
X279000000Y-95500000D03*
X219000000Y-105500000D03*
X229000000Y-105500000D03*
X239000000Y-105500000D03*
X249000000Y-105500000D03*
X259000000Y-105500000D03*
X269000000Y-105500000D03*
X279000000Y-105500000D03*
X219000000Y-115500000D03*
X229000000Y-115500000D03*
X239000000Y-115500000D03*
X249000000Y-115500000D03*
X259000000Y-115500000D03*
X269000000Y-115500000D03*
X279000000Y-115500000D03*
X289000000Y-115500000D03*
X219000000Y-125500000D03*
X229000000Y-125500000D03*
X239000000Y-125500000D03*
X249000000Y-125500000D03*
X259000000Y-125500000D03*
X269000000Y-125500000D03*
X279000000Y-125500000D03*
X289000000Y-125500000D03*
X219000000Y-135500000D03*
X229000000Y-135500000D03*
X239000000Y-135500000D03*
X249000000Y-135500000D03*
X259000000Y-135500000D03*
X269000000Y-135500000D03*
X279000000Y-135500000D03*
X289000000Y-135500000D03*
X229000000Y-145500000D03*
X239000000Y-145500000D03*
X249000000Y-145500000D03*
X279000000Y-145500000D03*
X289000000Y-145500000D03*
X229000000Y-73500000D03*
X228000000Y-74500000D03*
X238000000Y-74500000D03*
X239000000Y-73500000D03*
X279000000Y-73500000D03*
X278000000Y-74500000D03*
X248000000Y-74500000D03*
X249000000Y-73500000D03*
X288000000Y-74500000D03*
X288000000Y-84500000D03*
X288000000Y-94500000D03*
X279000000Y-83500000D03*
X278000000Y-84500000D03*
X269000000Y-83500000D03*
X268000000Y-84500000D03*
X258000000Y-84500000D03*
X259000000Y-83500000D03*
X249000000Y-83500000D03*
X248000000Y-84500000D03*
X239000000Y-83500000D03*
X238000000Y-84500000D03*
X229000000Y-83500000D03*
X228000000Y-84500000D03*
X219000000Y-83500000D03*
X218000000Y-84500000D03*
X228000000Y-94500000D03*
X238000000Y-94500000D03*
X248000000Y-94500000D03*
X258000000Y-94500000D03*
X268000000Y-94500000D03*
X278000000Y-94500000D03*
X288000000Y-94500000D03*
X218000000Y-104500000D03*
X228000000Y-104500000D03*
X238000000Y-104500000D03*
X248000000Y-104500000D03*
X258000000Y-104500000D03*
X268000000Y-104500000D03*
X278000000Y-104500000D03*
X288000000Y-104500000D03*
X218000000Y-114500000D03*
X228000000Y-114500000D03*
X238000000Y-114500000D03*
X248000000Y-114500000D03*
X258000000Y-114500000D03*
X268000000Y-114500000D03*
X278000000Y-114500000D03*
X288000000Y-114500000D03*
X218000000Y-124500000D03*
X228000000Y-124500000D03*
X238000000Y-124500000D03*
X248000000Y-124500000D03*
X258000000Y-124500000D03*
X268000000Y-124500000D03*
X278000000Y-124500000D03*
X288000000Y-124500000D03*
X218000000Y-134500000D03*
X228000000Y-134500000D03*
X238000000Y-134500000D03*
X248000000Y-134500000D03*
X258000000Y-134500000D03*
X268000000Y-134500000D03*
X278000000Y-134500000D03*
X288000000Y-134500000D03*
X228000000Y-144500000D03*
X238000000Y-144500000D03*
X248000000Y-144500000D03*
X278000000Y-144500000D03*
X288000000Y-144500000D03*
X229000000Y-93500000D03*
X239000000Y-93500000D03*
X249000000Y-93500000D03*
X259000000Y-93500000D03*
X269000000Y-93500000D03*
X279000000Y-93500000D03*
X219000000Y-103500000D03*
X229000000Y-103500000D03*
X239000000Y-103500000D03*
X249000000Y-103500000D03*
X259000000Y-103500000D03*
X269000000Y-103500000D03*
X279000000Y-103500000D03*
X219000000Y-113500000D03*
X229000000Y-113500000D03*
X239000000Y-113500000D03*
X249000000Y-113500000D03*
X259000000Y-113500000D03*
X269000000Y-113500000D03*
X279000000Y-113500000D03*
X289000000Y-113500000D03*
X219000000Y-123500000D03*
X229000000Y-123500000D03*
X239000000Y-123500000D03*
X249000000Y-123500000D03*
X259000000Y-123500000D03*
X269000000Y-123500000D03*
X279000000Y-123500000D03*
X289000000Y-123500000D03*
X219000000Y-133500000D03*
X229000000Y-133500000D03*
X239000000Y-133500000D03*
X249000000Y-133500000D03*
X259000000Y-133500000D03*
X269000000Y-133500000D03*
X279000000Y-133500000D03*
X289000000Y-133500000D03*
X219000000Y-143500000D03*
X229000000Y-143500000D03*
X239000000Y-143500000D03*
X249000000Y-143500000D03*
X259000000Y-143500000D03*
X269000000Y-143500000D03*
X279000000Y-143500000D03*
X289000000Y-143500000D03*
X213000000Y-91500000D03*
X211000000Y-91500000D03*
X214000000Y-91500000D03*
X219000000Y-91500000D03*
X218000000Y-91500000D03*
X212000000Y-91500000D03*
X217000000Y-91500000D03*
X222000000Y-91500000D03*
X232000000Y-91500000D03*
X242000000Y-91500000D03*
X252000000Y-91500000D03*
X262000000Y-91500000D03*
X272000000Y-91500000D03*
X282000000Y-91500000D03*
X212000000Y-101500000D03*
X222000000Y-101500000D03*
X232000000Y-101500000D03*
X242000000Y-101500000D03*
X252000000Y-101500000D03*
X262000000Y-101500000D03*
X272000000Y-101500000D03*
X282000000Y-101500000D03*
X223000000Y-91500000D03*
X233000000Y-91500000D03*
X243000000Y-91500000D03*
X253000000Y-91500000D03*
X263000000Y-91500000D03*
X273000000Y-91500000D03*
X283000000Y-91500000D03*
X228000000Y-91500000D03*
X238000000Y-91500000D03*
X248000000Y-91500000D03*
X258000000Y-91500000D03*
X268000000Y-91500000D03*
X278000000Y-91500000D03*
X288000000Y-91500000D03*
X218000000Y-101500000D03*
X228000000Y-101500000D03*
X238000000Y-101500000D03*
X248000000Y-101500000D03*
X258000000Y-101500000D03*
X268000000Y-101500000D03*
X278000000Y-101500000D03*
X288000000Y-101500000D03*
X227000000Y-91500000D03*
X237000000Y-91500000D03*
X247000000Y-91500000D03*
X257000000Y-91500000D03*
X267000000Y-91500000D03*
X277000000Y-91500000D03*
X287000000Y-91500000D03*
X217000000Y-101500000D03*
X227000000Y-101500000D03*
X237000000Y-101500000D03*
X247000000Y-101500000D03*
X257000000Y-101500000D03*
X267000000Y-101500000D03*
X277000000Y-101500000D03*
X287000000Y-101500000D03*
X229000000Y-91500000D03*
X239000000Y-91500000D03*
X249000000Y-91500000D03*
X259000000Y-91500000D03*
X269000000Y-91500000D03*
X279000000Y-91500000D03*
X219000000Y-101500000D03*
X229000000Y-101500000D03*
X239000000Y-101500000D03*
X249000000Y-101500000D03*
X259000000Y-101500000D03*
X269000000Y-101500000D03*
X279000000Y-101500000D03*
X224000000Y-91500000D03*
X234000000Y-91500000D03*
X244000000Y-91500000D03*
X254000000Y-91500000D03*
X264000000Y-91500000D03*
X274000000Y-91500000D03*
X284000000Y-91500000D03*
X214000000Y-101500000D03*
X224000000Y-101500000D03*
X234000000Y-101500000D03*
X244000000Y-101500000D03*
X254000000Y-101500000D03*
X264000000Y-101500000D03*
X274000000Y-101500000D03*
X284000000Y-101500000D03*
X221000000Y-91500000D03*
X231000000Y-91500000D03*
X241000000Y-91500000D03*
X251000000Y-91500000D03*
X261000000Y-91500000D03*
X271000000Y-91500000D03*
X281000000Y-91500000D03*
X211000000Y-101500000D03*
X221000000Y-101500000D03*
X231000000Y-101500000D03*
X241000000Y-101500000D03*
X251000000Y-101500000D03*
X261000000Y-101500000D03*
X271000000Y-101500000D03*
X281000000Y-101500000D03*
X219000000Y-93500000D03*
X218000000Y-94500000D03*
X229000000Y-118500000D03*
X239000000Y-118500000D03*
X249000000Y-118500000D03*
X259000000Y-118500000D03*
X269000000Y-118500000D03*
X279000000Y-118500000D03*
X289000000Y-118500000D03*
X219000000Y-128500000D03*
X229000000Y-128500000D03*
X239000000Y-128500000D03*
X249000000Y-128500000D03*
X259000000Y-128500000D03*
X269000000Y-128500000D03*
X279000000Y-128500000D03*
X289000000Y-128500000D03*
X219000000Y-138500000D03*
X229000000Y-138500000D03*
X239000000Y-138500000D03*
X249000000Y-138500000D03*
X259000000Y-138500000D03*
X269000000Y-138500000D03*
X279000000Y-138500000D03*
X289000000Y-138500000D03*
X219000000Y-148500000D03*
X239000000Y-148500000D03*
X249000000Y-148500000D03*
X259000000Y-148500000D03*
X279000000Y-148500000D03*
X289000000Y-148500000D03*
X224000000Y-118500000D03*
X234000000Y-118500000D03*
X244000000Y-118500000D03*
X254000000Y-118500000D03*
X264000000Y-118500000D03*
X274000000Y-118500000D03*
X284000000Y-118500000D03*
X214000000Y-128500000D03*
X224000000Y-128500000D03*
X234000000Y-128500000D03*
X244000000Y-128500000D03*
X254000000Y-128500000D03*
X264000000Y-128500000D03*
X274000000Y-128500000D03*
X284000000Y-128500000D03*
X214000000Y-138500000D03*
X224000000Y-138500000D03*
X234000000Y-138500000D03*
X244000000Y-138500000D03*
X254000000Y-138500000D03*
X264000000Y-138500000D03*
X274000000Y-138500000D03*
X284000000Y-138500000D03*
X214000000Y-148500000D03*
X244000000Y-148500000D03*
X254000000Y-148500000D03*
X274000000Y-148500000D03*
X284000000Y-148500000D03*
X227000000Y-117500000D03*
X237000000Y-117500000D03*
X247000000Y-117500000D03*
X257000000Y-117500000D03*
X267000000Y-117500000D03*
X277000000Y-117500000D03*
X287000000Y-117500000D03*
X217000000Y-127500000D03*
X227000000Y-127500000D03*
X237000000Y-127500000D03*
X247000000Y-127500000D03*
X257000000Y-127500000D03*
X267000000Y-127500000D03*
X277000000Y-127500000D03*
X287000000Y-127500000D03*
X217000000Y-137500000D03*
X227000000Y-137500000D03*
X237000000Y-137500000D03*
X247000000Y-137500000D03*
X257000000Y-137500000D03*
X267000000Y-137500000D03*
X277000000Y-137500000D03*
X287000000Y-137500000D03*
X237000000Y-147500000D03*
X247000000Y-147500000D03*
X257000000Y-147500000D03*
X277000000Y-147500000D03*
X287000000Y-147500000D03*
X225000000Y-117500000D03*
X235000000Y-117500000D03*
X245000000Y-117500000D03*
X255000000Y-117500000D03*
X265000000Y-117500000D03*
X275000000Y-117500000D03*
X285000000Y-117500000D03*
X215000000Y-127500000D03*
X225000000Y-127500000D03*
X235000000Y-127500000D03*
X245000000Y-127500000D03*
X255000000Y-127500000D03*
X265000000Y-127500000D03*
X275000000Y-127500000D03*
X285000000Y-127500000D03*
X215000000Y-137500000D03*
X225000000Y-137500000D03*
X235000000Y-137500000D03*
X245000000Y-137500000D03*
X255000000Y-137500000D03*
X265000000Y-137500000D03*
X275000000Y-137500000D03*
X285000000Y-137500000D03*
X215000000Y-147500000D03*
X225000000Y-147500000D03*
X235000000Y-147500000D03*
X245000000Y-147500000D03*
X255000000Y-147500000D03*
X265000000Y-147500000D03*
X275000000Y-147500000D03*
X285000000Y-147500000D03*
X224000000Y-117500000D03*
X234000000Y-117500000D03*
X244000000Y-117500000D03*
X254000000Y-117500000D03*
X264000000Y-117500000D03*
X274000000Y-117500000D03*
X284000000Y-117500000D03*
X214000000Y-127500000D03*
X224000000Y-127500000D03*
X234000000Y-127500000D03*
X244000000Y-127500000D03*
X254000000Y-127500000D03*
X264000000Y-127500000D03*
X274000000Y-127500000D03*
X284000000Y-127500000D03*
X214000000Y-137500000D03*
X224000000Y-137500000D03*
X234000000Y-137500000D03*
X244000000Y-137500000D03*
X254000000Y-137500000D03*
X264000000Y-137500000D03*
X274000000Y-137500000D03*
X284000000Y-137500000D03*
X214000000Y-147500000D03*
X224000000Y-147500000D03*
X234000000Y-147500000D03*
X244000000Y-147500000D03*
X254000000Y-147500000D03*
X264000000Y-147500000D03*
X274000000Y-147500000D03*
X284000000Y-147500000D03*
X213000000Y-127500000D03*
X223000000Y-127500000D03*
X233000000Y-127500000D03*
X243000000Y-127500000D03*
X253000000Y-127500000D03*
X263000000Y-127500000D03*
X273000000Y-127500000D03*
X283000000Y-127500000D03*
X213000000Y-137500000D03*
X223000000Y-137500000D03*
X233000000Y-137500000D03*
X243000000Y-137500000D03*
X253000000Y-137500000D03*
X263000000Y-137500000D03*
X273000000Y-137500000D03*
X283000000Y-137500000D03*
X213000000Y-147500000D03*
X223000000Y-147500000D03*
X233000000Y-147500000D03*
X243000000Y-147500000D03*
X253000000Y-147500000D03*
X273000000Y-147500000D03*
X283000000Y-147500000D03*
X212000000Y-128500000D03*
X222000000Y-128500000D03*
X232000000Y-128500000D03*
X242000000Y-128500000D03*
X252000000Y-128500000D03*
X262000000Y-128500000D03*
X272000000Y-128500000D03*
X282000000Y-128500000D03*
X212000000Y-138500000D03*
X222000000Y-138500000D03*
X232000000Y-138500000D03*
X242000000Y-138500000D03*
X252000000Y-138500000D03*
X262000000Y-138500000D03*
X272000000Y-138500000D03*
X282000000Y-138500000D03*
X212000000Y-148500000D03*
X242000000Y-148500000D03*
X252000000Y-148500000D03*
X282000000Y-148500000D03*
X229000000Y-117500000D03*
X239000000Y-117500000D03*
X249000000Y-117500000D03*
X259000000Y-117500000D03*
X269000000Y-117500000D03*
X279000000Y-117500000D03*
X289000000Y-117500000D03*
X219000000Y-127500000D03*
X229000000Y-127500000D03*
X239000000Y-127500000D03*
X249000000Y-127500000D03*
X259000000Y-127500000D03*
X269000000Y-127500000D03*
X279000000Y-127500000D03*
X289000000Y-127500000D03*
X219000000Y-137500000D03*
X229000000Y-137500000D03*
X239000000Y-137500000D03*
X249000000Y-137500000D03*
X259000000Y-137500000D03*
X269000000Y-137500000D03*
X279000000Y-137500000D03*
X289000000Y-137500000D03*
X229000000Y-147500000D03*
X239000000Y-147500000D03*
X249000000Y-147500000D03*
X259000000Y-147500000D03*
X279000000Y-147500000D03*
X289000000Y-147500000D03*
X228000000Y-118500000D03*
X238000000Y-118500000D03*
X248000000Y-118500000D03*
X258000000Y-118500000D03*
X268000000Y-118500000D03*
X278000000Y-118500000D03*
X288000000Y-118500000D03*
X218000000Y-128500000D03*
X228000000Y-128500000D03*
X238000000Y-128500000D03*
X248000000Y-128500000D03*
X258000000Y-128500000D03*
X268000000Y-128500000D03*
X278000000Y-128500000D03*
X288000000Y-128500000D03*
X218000000Y-138500000D03*
X228000000Y-138500000D03*
X238000000Y-138500000D03*
X248000000Y-138500000D03*
X258000000Y-138500000D03*
X268000000Y-138500000D03*
X278000000Y-138500000D03*
X288000000Y-138500000D03*
X218000000Y-148500000D03*
X238000000Y-148500000D03*
X248000000Y-148500000D03*
X258000000Y-148500000D03*
X278000000Y-148500000D03*
X288000000Y-148500000D03*
X227000000Y-118500000D03*
X237000000Y-118500000D03*
X247000000Y-118500000D03*
X257000000Y-118500000D03*
X267000000Y-118500000D03*
X277000000Y-118500000D03*
X287000000Y-118500000D03*
X217000000Y-128500000D03*
X227000000Y-128500000D03*
X237000000Y-128500000D03*
X247000000Y-128500000D03*
X257000000Y-128500000D03*
X267000000Y-128500000D03*
X277000000Y-128500000D03*
X287000000Y-128500000D03*
X217000000Y-138500000D03*
X227000000Y-138500000D03*
X237000000Y-138500000D03*
X247000000Y-138500000D03*
X257000000Y-138500000D03*
X267000000Y-138500000D03*
X277000000Y-138500000D03*
X287000000Y-138500000D03*
X237000000Y-148500000D03*
X247000000Y-148500000D03*
X257000000Y-148500000D03*
X277000000Y-148500000D03*
X287000000Y-148500000D03*
X228000000Y-117500000D03*
X238000000Y-117500000D03*
X248000000Y-117500000D03*
X258000000Y-117500000D03*
X268000000Y-117500000D03*
X278000000Y-117500000D03*
X288000000Y-117500000D03*
X218000000Y-127500000D03*
X228000000Y-127500000D03*
X238000000Y-127500000D03*
X248000000Y-127500000D03*
X258000000Y-127500000D03*
X268000000Y-127500000D03*
X278000000Y-127500000D03*
X288000000Y-127500000D03*
X218000000Y-137500000D03*
X228000000Y-137500000D03*
X238000000Y-137500000D03*
X248000000Y-137500000D03*
X258000000Y-137500000D03*
X268000000Y-137500000D03*
X278000000Y-137500000D03*
X288000000Y-137500000D03*
X218000000Y-147500000D03*
X228000000Y-147500000D03*
X238000000Y-147500000D03*
X248000000Y-147500000D03*
X258000000Y-147500000D03*
X278000000Y-147500000D03*
X288000000Y-147500000D03*
X223000000Y-118500000D03*
X233000000Y-118500000D03*
X243000000Y-118500000D03*
X253000000Y-118500000D03*
X263000000Y-118500000D03*
X273000000Y-118500000D03*
X283000000Y-118500000D03*
X213000000Y-128500000D03*
X223000000Y-128500000D03*
X233000000Y-128500000D03*
X243000000Y-128500000D03*
X253000000Y-128500000D03*
X263000000Y-128500000D03*
X273000000Y-128500000D03*
X283000000Y-128500000D03*
X213000000Y-138500000D03*
X223000000Y-138500000D03*
X233000000Y-138500000D03*
X243000000Y-138500000D03*
X253000000Y-138500000D03*
X263000000Y-138500000D03*
X273000000Y-138500000D03*
X283000000Y-138500000D03*
X213000000Y-148500000D03*
X243000000Y-148500000D03*
X253000000Y-148500000D03*
X273000000Y-148500000D03*
X283000000Y-148500000D03*
X221000000Y-117500000D03*
X231000000Y-117500000D03*
X241000000Y-117500000D03*
X251000000Y-117500000D03*
X261000000Y-117500000D03*
X271000000Y-117500000D03*
X281000000Y-117500000D03*
X211000000Y-127500000D03*
X221000000Y-127500000D03*
X231000000Y-127500000D03*
X241000000Y-127500000D03*
X251000000Y-127500000D03*
X261000000Y-127500000D03*
X271000000Y-127500000D03*
X281000000Y-127500000D03*
X211000000Y-137500000D03*
X221000000Y-137500000D03*
X231000000Y-137500000D03*
X241000000Y-137500000D03*
X251000000Y-137500000D03*
X261000000Y-137500000D03*
X271000000Y-137500000D03*
X281000000Y-137500000D03*
X211000000Y-147500000D03*
X231000000Y-147500000D03*
X241000000Y-147500000D03*
X251000000Y-147500000D03*
X281000000Y-147500000D03*
X211000000Y-128500000D03*
X221000000Y-128500000D03*
X231000000Y-128500000D03*
X241000000Y-128500000D03*
X251000000Y-128500000D03*
X261000000Y-128500000D03*
X271000000Y-128500000D03*
X281000000Y-128500000D03*
X211000000Y-138500000D03*
X221000000Y-138500000D03*
X231000000Y-138500000D03*
X241000000Y-138500000D03*
X251000000Y-138500000D03*
X261000000Y-138500000D03*
X271000000Y-138500000D03*
X281000000Y-138500000D03*
X211000000Y-148500000D03*
X241000000Y-148500000D03*
X251000000Y-148500000D03*
X281000000Y-148500000D03*
X212000000Y-127500000D03*
X222000000Y-127500000D03*
X232000000Y-127500000D03*
X242000000Y-127500000D03*
X252000000Y-127500000D03*
X262000000Y-127500000D03*
X272000000Y-127500000D03*
X282000000Y-127500000D03*
X212000000Y-137500000D03*
X222000000Y-137500000D03*
X232000000Y-137500000D03*
X242000000Y-137500000D03*
X252000000Y-137500000D03*
X262000000Y-137500000D03*
X272000000Y-137500000D03*
X282000000Y-137500000D03*
X212000000Y-147500000D03*
X222000000Y-147500000D03*
X232000000Y-147500000D03*
X242000000Y-147500000D03*
X252000000Y-147500000D03*
X272000000Y-147500000D03*
X282000000Y-147500000D03*
X216000000Y-147500000D03*
X216000000Y-148500000D03*
X215000000Y-148500000D03*
X256000000Y-147500000D03*
X255000000Y-148500000D03*
X256000000Y-148500000D03*
X265000000Y-148500000D03*
X266000000Y-148500000D03*
X266000000Y-147500000D03*
X214000000Y-107500000D03*
X214000000Y-108500000D03*
X224000000Y-108500000D03*
X234000000Y-108500000D03*
X244000000Y-108500000D03*
X254000000Y-108500000D03*
X264000000Y-108500000D03*
X274000000Y-108500000D03*
X284000000Y-108500000D03*
X224000000Y-107500000D03*
X234000000Y-107500000D03*
X244000000Y-107500000D03*
X254000000Y-107500000D03*
X264000000Y-107500000D03*
X274000000Y-107500000D03*
X284000000Y-107500000D03*
X219000000Y-75500000D03*
X218000000Y-76500000D03*
X218000000Y-72500000D03*
X211000000Y-72500000D03*
X219000000Y-72500000D03*
X218000000Y-73500000D03*
X219000000Y-73500000D03*
X219000000Y-74500000D03*
X218000000Y-74500000D03*
X218000000Y-75500000D03*
X232000000Y-71500000D03*
X229000000Y-71500000D03*
X228000000Y-71500000D03*
X233000000Y-71500000D03*
X234000000Y-71500000D03*
X245000000Y-71500000D03*
X256000000Y-72500000D03*
X259000000Y-72500000D03*
X258000000Y-73500000D03*
X258000000Y-74500000D03*
X258000000Y-75500000D03*
X259000000Y-74500000D03*
X259000000Y-73500000D03*
X261000000Y-72500000D03*
X269000000Y-72500000D03*
X269000000Y-73500000D03*
X269000000Y-74500000D03*
X268000000Y-73500000D03*
X268000000Y-74500000D03*
X268000000Y-75500000D03*
X272000000Y-71500000D03*
X271000000Y-72500000D03*
X278000000Y-71500000D03*
X279000000Y-71500000D03*
X281000000Y-71500000D03*
X282000000Y-71500000D03*
X283000000Y-71500000D03*
X284000000Y-71500000D03*
X285000000Y-71500000D03*
X213000000Y-118500000D03*
X214000000Y-112500000D03*
X224000000Y-112500000D03*
X234000000Y-112500000D03*
X244000000Y-112500000D03*
X254000000Y-112500000D03*
X264000000Y-112500000D03*
X274000000Y-112500000D03*
X284000000Y-112500000D03*
X218000000Y-144500000D03*
X218000000Y-145500000D03*
X218000000Y-146500000D03*
X219000000Y-145500000D03*
X219000000Y-146500000D03*
X219000000Y-147500000D03*
X259000000Y-144500000D03*
X261000000Y-148500000D03*
X267000000Y-148500000D03*
X268000000Y-144500000D03*
X268000000Y-145500000D03*
X268000000Y-146500000D03*
X269000000Y-145500000D03*
X269000000Y-146500000D03*
X269000000Y-147500000D03*
X272000000Y-148500000D03*
X285000000Y-148500000D03*
X229000000Y-148500000D03*
X231000000Y-148500000D03*
X232000000Y-148500000D03*
X287000000Y-108500000D03*
X288000000Y-108500000D03*
X288000000Y-107500000D03*
X289000000Y-106500000D03*
X289000000Y-107500000D03*
X289000000Y-105500000D03*
X289000000Y-104500000D03*
X289000000Y-101500000D03*
X289000000Y-102500000D03*
X289000000Y-103500000D03*
X289000000Y-98500000D03*
X289000000Y-97500000D03*
X289000000Y-96500000D03*
X289000000Y-95500000D03*
X289000000Y-94500000D03*
X289000000Y-93500000D03*
X289000000Y-92500000D03*
X289000000Y-91500000D03*
X289000000Y-88500000D03*
X289000000Y-87500000D03*
X289000000Y-86500000D03*
X289000000Y-85500000D03*
X289000000Y-84500000D03*
X289000000Y-83500000D03*
X289000000Y-82500000D03*
X289000000Y-81500000D03*
X289000000Y-73500000D03*
X289000000Y-74500000D03*
X289000000Y-75500000D03*
X289000000Y-76500000D03*
X289000000Y-77500000D03*
X289000000Y-78500000D03*
D12*
G36*
X295818751Y-60429563D02*
G01*
X296611625Y-60646469D01*
X297353559Y-61000352D01*
X298021097Y-61480027D01*
X298593139Y-62070329D01*
X299051612Y-62752608D01*
X299382016Y-63505289D01*
X299574603Y-64307471D01*
X299625001Y-64993765D01*
X299625000Y-154963304D01*
X299550438Y-155798752D01*
X299333533Y-156591622D01*
X298979649Y-157333558D01*
X298499973Y-158001098D01*
X297909671Y-158573140D01*
X297227391Y-159031613D01*
X296474714Y-159362015D01*
X295672530Y-159554603D01*
X294986249Y-159605000D01*
X205016696Y-159605000D01*
X204181248Y-159530438D01*
X203388378Y-159313533D01*
X202646442Y-158959649D01*
X201978902Y-158479973D01*
X201406860Y-157889671D01*
X200948387Y-157207391D01*
X200617985Y-156454714D01*
X200425397Y-155652530D01*
X200375000Y-154966249D01*
X200375000Y-64996696D01*
X200449562Y-64161248D01*
X200666468Y-63368372D01*
X201020351Y-62626442D01*
X201500027Y-61958902D01*
X202090329Y-61386860D01*
X202772609Y-60928387D01*
X203525289Y-60597984D01*
X204327470Y-60405397D01*
X205013751Y-60355000D01*
X294983292Y-60355000D01*
X295818751Y-60429563D01*
G37*
X295818751Y-60429563D02*
X296611625Y-60646469D01*
X297353559Y-61000352D01*
X298021097Y-61480027D01*
X298593139Y-62070329D01*
X299051612Y-62752608D01*
X299382016Y-63505289D01*
X299574603Y-64307471D01*
X299625001Y-64993765D01*
X299625000Y-154963304D01*
X299550438Y-155798752D01*
X299333533Y-156591622D01*
X298979649Y-157333558D01*
X298499973Y-158001098D01*
X297909671Y-158573140D01*
X297227391Y-159031613D01*
X296474714Y-159362015D01*
X295672530Y-159554603D01*
X294986249Y-159605000D01*
X205016696Y-159605000D01*
X204181248Y-159530438D01*
X203388378Y-159313533D01*
X202646442Y-158959649D01*
X201978902Y-158479973D01*
X201406860Y-157889671D01*
X200948387Y-157207391D01*
X200617985Y-156454714D01*
X200425397Y-155652530D01*
X200375000Y-154966249D01*
X200375000Y-64996696D01*
X200449562Y-64161248D01*
X200666468Y-63368372D01*
X201020351Y-62626442D01*
X201500027Y-61958902D01*
X202090329Y-61386860D01*
X202772609Y-60928387D01*
X203525289Y-60597984D01*
X204327470Y-60405397D01*
X205013751Y-60355000D01*
X294983292Y-60355000D01*
X295818751Y-60429563D01*
M02*
