G04 #@! TF.GenerationSoftware,KiCad,Pcbnew,(5.1.5)-3*
G04 #@! TF.CreationDate,2020-05-05T12:11:31+02:00*
G04 #@! TF.ProjectId,led_board,6c65645f-626f-4617-9264-2e6b69636164,rev?*
G04 #@! TF.SameCoordinates,Original*
G04 #@! TF.FileFunction,Soldermask,Bot*
G04 #@! TF.FilePolarity,Negative*
%FSLAX46Y46*%
G04 Gerber Fmt 4.6, Leading zero omitted, Abs format (unit mm)*
G04 Created by KiCad (PCBNEW (5.1.5)-3) date 2020-05-05 12:11:31*
%MOMM*%
%LPD*%
G04 APERTURE LIST*
%ADD10C,0.100000*%
G04 APERTURE END LIST*
D10*
G36*
X289000000Y-149000000D02*
G01*
X281000000Y-149000000D01*
X281000000Y-141000000D01*
X289000000Y-141000000D01*
X289000000Y-149000000D01*
G37*
X289000000Y-149000000D02*
X281000000Y-149000000D01*
X281000000Y-141000000D01*
X289000000Y-141000000D01*
X289000000Y-149000000D01*
G36*
X279000000Y-149000000D02*
G01*
X271000000Y-149000000D01*
X271000000Y-141000000D01*
X279000000Y-141000000D01*
X279000000Y-149000000D01*
G37*
X279000000Y-149000000D02*
X271000000Y-149000000D01*
X271000000Y-141000000D01*
X279000000Y-141000000D01*
X279000000Y-149000000D01*
G36*
X269000000Y-149000000D02*
G01*
X261000000Y-149000000D01*
X261000000Y-141000000D01*
X269000000Y-141000000D01*
X269000000Y-149000000D01*
G37*
X269000000Y-149000000D02*
X261000000Y-149000000D01*
X261000000Y-141000000D01*
X269000000Y-141000000D01*
X269000000Y-149000000D01*
G36*
X259000000Y-149000000D02*
G01*
X251000000Y-149000000D01*
X251000000Y-141000000D01*
X259000000Y-141000000D01*
X259000000Y-149000000D01*
G37*
X259000000Y-149000000D02*
X251000000Y-149000000D01*
X251000000Y-141000000D01*
X259000000Y-141000000D01*
X259000000Y-149000000D01*
G36*
X249000000Y-149000000D02*
G01*
X241000000Y-149000000D01*
X241000000Y-141000000D01*
X249000000Y-141000000D01*
X249000000Y-149000000D01*
G37*
X249000000Y-149000000D02*
X241000000Y-149000000D01*
X241000000Y-141000000D01*
X249000000Y-141000000D01*
X249000000Y-149000000D01*
G36*
X239000000Y-149000000D02*
G01*
X231000000Y-149000000D01*
X231000000Y-141000000D01*
X239000000Y-141000000D01*
X239000000Y-149000000D01*
G37*
X239000000Y-149000000D02*
X231000000Y-149000000D01*
X231000000Y-141000000D01*
X239000000Y-141000000D01*
X239000000Y-149000000D01*
G36*
X229000000Y-149000000D02*
G01*
X221000000Y-149000000D01*
X221000000Y-141000000D01*
X229000000Y-141000000D01*
X229000000Y-149000000D01*
G37*
X229000000Y-149000000D02*
X221000000Y-149000000D01*
X221000000Y-141000000D01*
X229000000Y-141000000D01*
X229000000Y-149000000D01*
G36*
X219000000Y-149000000D02*
G01*
X211000000Y-149000000D01*
X211000000Y-141000000D01*
X219000000Y-141000000D01*
X219000000Y-149000000D01*
G37*
X219000000Y-149000000D02*
X211000000Y-149000000D01*
X211000000Y-141000000D01*
X219000000Y-141000000D01*
X219000000Y-149000000D01*
G36*
X289000000Y-139000000D02*
G01*
X281000000Y-139000000D01*
X281000000Y-131000000D01*
X289000000Y-131000000D01*
X289000000Y-139000000D01*
G37*
X289000000Y-139000000D02*
X281000000Y-139000000D01*
X281000000Y-131000000D01*
X289000000Y-131000000D01*
X289000000Y-139000000D01*
G36*
X279000000Y-139000000D02*
G01*
X271000000Y-139000000D01*
X271000000Y-131000000D01*
X279000000Y-131000000D01*
X279000000Y-139000000D01*
G37*
X279000000Y-139000000D02*
X271000000Y-139000000D01*
X271000000Y-131000000D01*
X279000000Y-131000000D01*
X279000000Y-139000000D01*
G36*
X269000000Y-139000000D02*
G01*
X261000000Y-139000000D01*
X261000000Y-131000000D01*
X269000000Y-131000000D01*
X269000000Y-139000000D01*
G37*
X269000000Y-139000000D02*
X261000000Y-139000000D01*
X261000000Y-131000000D01*
X269000000Y-131000000D01*
X269000000Y-139000000D01*
G36*
X259000000Y-139000000D02*
G01*
X251000000Y-139000000D01*
X251000000Y-131000000D01*
X259000000Y-131000000D01*
X259000000Y-139000000D01*
G37*
X259000000Y-139000000D02*
X251000000Y-139000000D01*
X251000000Y-131000000D01*
X259000000Y-131000000D01*
X259000000Y-139000000D01*
G36*
X249000000Y-139000000D02*
G01*
X241000000Y-139000000D01*
X241000000Y-131000000D01*
X249000000Y-131000000D01*
X249000000Y-139000000D01*
G37*
X249000000Y-139000000D02*
X241000000Y-139000000D01*
X241000000Y-131000000D01*
X249000000Y-131000000D01*
X249000000Y-139000000D01*
G36*
X239000000Y-139000000D02*
G01*
X231000000Y-139000000D01*
X231000000Y-131000000D01*
X239000000Y-131000000D01*
X239000000Y-139000000D01*
G37*
X239000000Y-139000000D02*
X231000000Y-139000000D01*
X231000000Y-131000000D01*
X239000000Y-131000000D01*
X239000000Y-139000000D01*
G36*
X229000000Y-139000000D02*
G01*
X221000000Y-139000000D01*
X221000000Y-131000000D01*
X229000000Y-131000000D01*
X229000000Y-139000000D01*
G37*
X229000000Y-139000000D02*
X221000000Y-139000000D01*
X221000000Y-131000000D01*
X229000000Y-131000000D01*
X229000000Y-139000000D01*
G36*
X219000000Y-139000000D02*
G01*
X211000000Y-139000000D01*
X211000000Y-131000000D01*
X219000000Y-131000000D01*
X219000000Y-139000000D01*
G37*
X219000000Y-139000000D02*
X211000000Y-139000000D01*
X211000000Y-131000000D01*
X219000000Y-131000000D01*
X219000000Y-139000000D01*
G36*
X289000000Y-129000000D02*
G01*
X281000000Y-129000000D01*
X281000000Y-121000000D01*
X289000000Y-121000000D01*
X289000000Y-129000000D01*
G37*
X289000000Y-129000000D02*
X281000000Y-129000000D01*
X281000000Y-121000000D01*
X289000000Y-121000000D01*
X289000000Y-129000000D01*
G36*
X279000000Y-129000000D02*
G01*
X271000000Y-129000000D01*
X271000000Y-121000000D01*
X279000000Y-121000000D01*
X279000000Y-129000000D01*
G37*
X279000000Y-129000000D02*
X271000000Y-129000000D01*
X271000000Y-121000000D01*
X279000000Y-121000000D01*
X279000000Y-129000000D01*
G36*
X269000000Y-129000000D02*
G01*
X261000000Y-129000000D01*
X261000000Y-121000000D01*
X269000000Y-121000000D01*
X269000000Y-129000000D01*
G37*
X269000000Y-129000000D02*
X261000000Y-129000000D01*
X261000000Y-121000000D01*
X269000000Y-121000000D01*
X269000000Y-129000000D01*
G36*
X259000000Y-129000000D02*
G01*
X251000000Y-129000000D01*
X251000000Y-121000000D01*
X259000000Y-121000000D01*
X259000000Y-129000000D01*
G37*
X259000000Y-129000000D02*
X251000000Y-129000000D01*
X251000000Y-121000000D01*
X259000000Y-121000000D01*
X259000000Y-129000000D01*
G36*
X249000000Y-129000000D02*
G01*
X241000000Y-129000000D01*
X241000000Y-121000000D01*
X249000000Y-121000000D01*
X249000000Y-129000000D01*
G37*
X249000000Y-129000000D02*
X241000000Y-129000000D01*
X241000000Y-121000000D01*
X249000000Y-121000000D01*
X249000000Y-129000000D01*
G36*
X239000000Y-129000000D02*
G01*
X231000000Y-129000000D01*
X231000000Y-121000000D01*
X239000000Y-121000000D01*
X239000000Y-129000000D01*
G37*
X239000000Y-129000000D02*
X231000000Y-129000000D01*
X231000000Y-121000000D01*
X239000000Y-121000000D01*
X239000000Y-129000000D01*
G36*
X229000000Y-129000000D02*
G01*
X221000000Y-129000000D01*
X221000000Y-121000000D01*
X229000000Y-121000000D01*
X229000000Y-129000000D01*
G37*
X229000000Y-129000000D02*
X221000000Y-129000000D01*
X221000000Y-121000000D01*
X229000000Y-121000000D01*
X229000000Y-129000000D01*
G36*
X219000000Y-129000000D02*
G01*
X211000000Y-129000000D01*
X211000000Y-121000000D01*
X219000000Y-121000000D01*
X219000000Y-129000000D01*
G37*
X219000000Y-129000000D02*
X211000000Y-129000000D01*
X211000000Y-121000000D01*
X219000000Y-121000000D01*
X219000000Y-129000000D01*
G36*
X289000000Y-119000000D02*
G01*
X281000000Y-119000000D01*
X281000000Y-111000000D01*
X289000000Y-111000000D01*
X289000000Y-119000000D01*
G37*
X289000000Y-119000000D02*
X281000000Y-119000000D01*
X281000000Y-111000000D01*
X289000000Y-111000000D01*
X289000000Y-119000000D01*
G36*
X279000000Y-119000000D02*
G01*
X271000000Y-119000000D01*
X271000000Y-111000000D01*
X279000000Y-111000000D01*
X279000000Y-119000000D01*
G37*
X279000000Y-119000000D02*
X271000000Y-119000000D01*
X271000000Y-111000000D01*
X279000000Y-111000000D01*
X279000000Y-119000000D01*
G36*
X269000000Y-119000000D02*
G01*
X261000000Y-119000000D01*
X261000000Y-111000000D01*
X269000000Y-111000000D01*
X269000000Y-119000000D01*
G37*
X269000000Y-119000000D02*
X261000000Y-119000000D01*
X261000000Y-111000000D01*
X269000000Y-111000000D01*
X269000000Y-119000000D01*
G36*
X259000000Y-119000000D02*
G01*
X251000000Y-119000000D01*
X251000000Y-111000000D01*
X259000000Y-111000000D01*
X259000000Y-119000000D01*
G37*
X259000000Y-119000000D02*
X251000000Y-119000000D01*
X251000000Y-111000000D01*
X259000000Y-111000000D01*
X259000000Y-119000000D01*
G36*
X249000000Y-119000000D02*
G01*
X241000000Y-119000000D01*
X241000000Y-111000000D01*
X249000000Y-111000000D01*
X249000000Y-119000000D01*
G37*
X249000000Y-119000000D02*
X241000000Y-119000000D01*
X241000000Y-111000000D01*
X249000000Y-111000000D01*
X249000000Y-119000000D01*
G36*
X239000000Y-119000000D02*
G01*
X231000000Y-119000000D01*
X231000000Y-111000000D01*
X239000000Y-111000000D01*
X239000000Y-119000000D01*
G37*
X239000000Y-119000000D02*
X231000000Y-119000000D01*
X231000000Y-111000000D01*
X239000000Y-111000000D01*
X239000000Y-119000000D01*
G36*
X229000000Y-119000000D02*
G01*
X221000000Y-119000000D01*
X221000000Y-111000000D01*
X229000000Y-111000000D01*
X229000000Y-119000000D01*
G37*
X229000000Y-119000000D02*
X221000000Y-119000000D01*
X221000000Y-111000000D01*
X229000000Y-111000000D01*
X229000000Y-119000000D01*
G36*
X219000000Y-119000000D02*
G01*
X211000000Y-119000000D01*
X211000000Y-111000000D01*
X219000000Y-111000000D01*
X219000000Y-119000000D01*
G37*
X219000000Y-119000000D02*
X211000000Y-119000000D01*
X211000000Y-111000000D01*
X219000000Y-111000000D01*
X219000000Y-119000000D01*
G36*
X289000000Y-109000000D02*
G01*
X281000000Y-109000000D01*
X281000000Y-101000000D01*
X289000000Y-101000000D01*
X289000000Y-109000000D01*
G37*
X289000000Y-109000000D02*
X281000000Y-109000000D01*
X281000000Y-101000000D01*
X289000000Y-101000000D01*
X289000000Y-109000000D01*
G36*
X279000000Y-109000000D02*
G01*
X271000000Y-109000000D01*
X271000000Y-101000000D01*
X279000000Y-101000000D01*
X279000000Y-109000000D01*
G37*
X279000000Y-109000000D02*
X271000000Y-109000000D01*
X271000000Y-101000000D01*
X279000000Y-101000000D01*
X279000000Y-109000000D01*
G36*
X269000000Y-109000000D02*
G01*
X261000000Y-109000000D01*
X261000000Y-101000000D01*
X269000000Y-101000000D01*
X269000000Y-109000000D01*
G37*
X269000000Y-109000000D02*
X261000000Y-109000000D01*
X261000000Y-101000000D01*
X269000000Y-101000000D01*
X269000000Y-109000000D01*
G36*
X259000000Y-109000000D02*
G01*
X251000000Y-109000000D01*
X251000000Y-101000000D01*
X259000000Y-101000000D01*
X259000000Y-109000000D01*
G37*
X259000000Y-109000000D02*
X251000000Y-109000000D01*
X251000000Y-101000000D01*
X259000000Y-101000000D01*
X259000000Y-109000000D01*
G36*
X249000000Y-109000000D02*
G01*
X241000000Y-109000000D01*
X241000000Y-101000000D01*
X249000000Y-101000000D01*
X249000000Y-109000000D01*
G37*
X249000000Y-109000000D02*
X241000000Y-109000000D01*
X241000000Y-101000000D01*
X249000000Y-101000000D01*
X249000000Y-109000000D01*
G36*
X239000000Y-109000000D02*
G01*
X231000000Y-109000000D01*
X231000000Y-101000000D01*
X239000000Y-101000000D01*
X239000000Y-109000000D01*
G37*
X239000000Y-109000000D02*
X231000000Y-109000000D01*
X231000000Y-101000000D01*
X239000000Y-101000000D01*
X239000000Y-109000000D01*
G36*
X229000000Y-109000000D02*
G01*
X221000000Y-109000000D01*
X221000000Y-101000000D01*
X229000000Y-101000000D01*
X229000000Y-109000000D01*
G37*
X229000000Y-109000000D02*
X221000000Y-109000000D01*
X221000000Y-101000000D01*
X229000000Y-101000000D01*
X229000000Y-109000000D01*
G36*
X219000000Y-109000000D02*
G01*
X211000000Y-109000000D01*
X211000000Y-101000000D01*
X219000000Y-101000000D01*
X219000000Y-109000000D01*
G37*
X219000000Y-109000000D02*
X211000000Y-109000000D01*
X211000000Y-101000000D01*
X219000000Y-101000000D01*
X219000000Y-109000000D01*
G36*
X289000000Y-99000000D02*
G01*
X281000000Y-99000000D01*
X281000000Y-91000000D01*
X289000000Y-91000000D01*
X289000000Y-99000000D01*
G37*
X289000000Y-99000000D02*
X281000000Y-99000000D01*
X281000000Y-91000000D01*
X289000000Y-91000000D01*
X289000000Y-99000000D01*
G36*
X279000000Y-99000000D02*
G01*
X271000000Y-99000000D01*
X271000000Y-91000000D01*
X279000000Y-91000000D01*
X279000000Y-99000000D01*
G37*
X279000000Y-99000000D02*
X271000000Y-99000000D01*
X271000000Y-91000000D01*
X279000000Y-91000000D01*
X279000000Y-99000000D01*
G36*
X269000000Y-99000000D02*
G01*
X261000000Y-99000000D01*
X261000000Y-91000000D01*
X269000000Y-91000000D01*
X269000000Y-99000000D01*
G37*
X269000000Y-99000000D02*
X261000000Y-99000000D01*
X261000000Y-91000000D01*
X269000000Y-91000000D01*
X269000000Y-99000000D01*
G36*
X259000000Y-99000000D02*
G01*
X251000000Y-99000000D01*
X251000000Y-91000000D01*
X259000000Y-91000000D01*
X259000000Y-99000000D01*
G37*
X259000000Y-99000000D02*
X251000000Y-99000000D01*
X251000000Y-91000000D01*
X259000000Y-91000000D01*
X259000000Y-99000000D01*
G36*
X249000000Y-99000000D02*
G01*
X241000000Y-99000000D01*
X241000000Y-91000000D01*
X249000000Y-91000000D01*
X249000000Y-99000000D01*
G37*
X249000000Y-99000000D02*
X241000000Y-99000000D01*
X241000000Y-91000000D01*
X249000000Y-91000000D01*
X249000000Y-99000000D01*
G36*
X239000000Y-99000000D02*
G01*
X231000000Y-99000000D01*
X231000000Y-91000000D01*
X239000000Y-91000000D01*
X239000000Y-99000000D01*
G37*
X239000000Y-99000000D02*
X231000000Y-99000000D01*
X231000000Y-91000000D01*
X239000000Y-91000000D01*
X239000000Y-99000000D01*
G36*
X229000000Y-99000000D02*
G01*
X221000000Y-99000000D01*
X221000000Y-91000000D01*
X229000000Y-91000000D01*
X229000000Y-99000000D01*
G37*
X229000000Y-99000000D02*
X221000000Y-99000000D01*
X221000000Y-91000000D01*
X229000000Y-91000000D01*
X229000000Y-99000000D01*
G36*
X219000000Y-99000000D02*
G01*
X211000000Y-99000000D01*
X211000000Y-91000000D01*
X219000000Y-91000000D01*
X219000000Y-99000000D01*
G37*
X219000000Y-99000000D02*
X211000000Y-99000000D01*
X211000000Y-91000000D01*
X219000000Y-91000000D01*
X219000000Y-99000000D01*
G36*
X289000000Y-89000000D02*
G01*
X281000000Y-89000000D01*
X281000000Y-81000000D01*
X289000000Y-81000000D01*
X289000000Y-89000000D01*
G37*
X289000000Y-89000000D02*
X281000000Y-89000000D01*
X281000000Y-81000000D01*
X289000000Y-81000000D01*
X289000000Y-89000000D01*
G36*
X279000000Y-89000000D02*
G01*
X271000000Y-89000000D01*
X271000000Y-81000000D01*
X279000000Y-81000000D01*
X279000000Y-89000000D01*
G37*
X279000000Y-89000000D02*
X271000000Y-89000000D01*
X271000000Y-81000000D01*
X279000000Y-81000000D01*
X279000000Y-89000000D01*
G36*
X269000000Y-89000000D02*
G01*
X261000000Y-89000000D01*
X261000000Y-81000000D01*
X269000000Y-81000000D01*
X269000000Y-89000000D01*
G37*
X269000000Y-89000000D02*
X261000000Y-89000000D01*
X261000000Y-81000000D01*
X269000000Y-81000000D01*
X269000000Y-89000000D01*
G36*
X259000000Y-89000000D02*
G01*
X251000000Y-89000000D01*
X251000000Y-81000000D01*
X259000000Y-81000000D01*
X259000000Y-89000000D01*
G37*
X259000000Y-89000000D02*
X251000000Y-89000000D01*
X251000000Y-81000000D01*
X259000000Y-81000000D01*
X259000000Y-89000000D01*
G36*
X249000000Y-89000000D02*
G01*
X241000000Y-89000000D01*
X241000000Y-81000000D01*
X249000000Y-81000000D01*
X249000000Y-89000000D01*
G37*
X249000000Y-89000000D02*
X241000000Y-89000000D01*
X241000000Y-81000000D01*
X249000000Y-81000000D01*
X249000000Y-89000000D01*
G36*
X239000000Y-89000000D02*
G01*
X231000000Y-89000000D01*
X231000000Y-81000000D01*
X239000000Y-81000000D01*
X239000000Y-89000000D01*
G37*
X239000000Y-89000000D02*
X231000000Y-89000000D01*
X231000000Y-81000000D01*
X239000000Y-81000000D01*
X239000000Y-89000000D01*
G36*
X229000000Y-89000000D02*
G01*
X221000000Y-89000000D01*
X221000000Y-81000000D01*
X229000000Y-81000000D01*
X229000000Y-89000000D01*
G37*
X229000000Y-89000000D02*
X221000000Y-89000000D01*
X221000000Y-81000000D01*
X229000000Y-81000000D01*
X229000000Y-89000000D01*
G36*
X219000000Y-89000000D02*
G01*
X211000000Y-89000000D01*
X211000000Y-81000000D01*
X219000000Y-81000000D01*
X219000000Y-89000000D01*
G37*
X219000000Y-89000000D02*
X211000000Y-89000000D01*
X211000000Y-81000000D01*
X219000000Y-81000000D01*
X219000000Y-89000000D01*
G36*
X289000000Y-79000000D02*
G01*
X281000000Y-79000000D01*
X281000000Y-71000000D01*
X289000000Y-71000000D01*
X289000000Y-79000000D01*
G37*
X289000000Y-79000000D02*
X281000000Y-79000000D01*
X281000000Y-71000000D01*
X289000000Y-71000000D01*
X289000000Y-79000000D01*
G36*
X279000000Y-79000000D02*
G01*
X271000000Y-79000000D01*
X271000000Y-71000000D01*
X279000000Y-71000000D01*
X279000000Y-79000000D01*
G37*
X279000000Y-79000000D02*
X271000000Y-79000000D01*
X271000000Y-71000000D01*
X279000000Y-71000000D01*
X279000000Y-79000000D01*
G36*
X269000000Y-79000000D02*
G01*
X261000000Y-79000000D01*
X261000000Y-71000000D01*
X269000000Y-71000000D01*
X269000000Y-79000000D01*
G37*
X269000000Y-79000000D02*
X261000000Y-79000000D01*
X261000000Y-71000000D01*
X269000000Y-71000000D01*
X269000000Y-79000000D01*
G36*
X259000000Y-79000000D02*
G01*
X251000000Y-79000000D01*
X251000000Y-71000000D01*
X259000000Y-71000000D01*
X259000000Y-79000000D01*
G37*
X259000000Y-79000000D02*
X251000000Y-79000000D01*
X251000000Y-71000000D01*
X259000000Y-71000000D01*
X259000000Y-79000000D01*
G36*
X249000000Y-79000000D02*
G01*
X241000000Y-79000000D01*
X241000000Y-71000000D01*
X249000000Y-71000000D01*
X249000000Y-79000000D01*
G37*
X249000000Y-79000000D02*
X241000000Y-79000000D01*
X241000000Y-71000000D01*
X249000000Y-71000000D01*
X249000000Y-79000000D01*
G36*
X239000000Y-79000000D02*
G01*
X231000000Y-79000000D01*
X231000000Y-71000000D01*
X239000000Y-71000000D01*
X239000000Y-79000000D01*
G37*
X239000000Y-79000000D02*
X231000000Y-79000000D01*
X231000000Y-71000000D01*
X239000000Y-71000000D01*
X239000000Y-79000000D01*
G36*
X229000000Y-79000000D02*
G01*
X221000000Y-79000000D01*
X221000000Y-71000000D01*
X229000000Y-71000000D01*
X229000000Y-79000000D01*
G37*
X229000000Y-79000000D02*
X221000000Y-79000000D01*
X221000000Y-71000000D01*
X229000000Y-71000000D01*
X229000000Y-79000000D01*
G36*
X219000000Y-79000000D02*
G01*
X211000000Y-79000000D01*
X211000000Y-71000000D01*
X219000000Y-71000000D01*
X219000000Y-79000000D01*
G37*
X219000000Y-79000000D02*
X211000000Y-79000000D01*
X211000000Y-71000000D01*
X219000000Y-71000000D01*
X219000000Y-79000000D01*
G36*
X205634239Y-151811467D02*
G01*
X205948282Y-151873934D01*
X206539926Y-152119001D01*
X207072392Y-152474784D01*
X207525216Y-152927608D01*
X207880999Y-153460074D01*
X208126066Y-154051718D01*
X208126066Y-154051719D01*
X208251000Y-154679803D01*
X208251000Y-155320197D01*
X208188533Y-155634239D01*
X208126066Y-155948282D01*
X207880999Y-156539926D01*
X207525216Y-157072392D01*
X207072392Y-157525216D01*
X206539926Y-157880999D01*
X205948282Y-158126066D01*
X205634239Y-158188533D01*
X205320197Y-158251000D01*
X204679803Y-158251000D01*
X204365761Y-158188533D01*
X204051718Y-158126066D01*
X203460074Y-157880999D01*
X202927608Y-157525216D01*
X202474784Y-157072392D01*
X202119001Y-156539926D01*
X201873934Y-155948282D01*
X201811467Y-155634239D01*
X201749000Y-155320197D01*
X201749000Y-154679803D01*
X201873934Y-154051719D01*
X201873934Y-154051718D01*
X202119001Y-153460074D01*
X202474784Y-152927608D01*
X202927608Y-152474784D01*
X203460074Y-152119001D01*
X204051718Y-151873934D01*
X204365761Y-151811467D01*
X204679803Y-151749000D01*
X205320197Y-151749000D01*
X205634239Y-151811467D01*
G37*
G36*
X295634239Y-151811467D02*
G01*
X295948282Y-151873934D01*
X296539926Y-152119001D01*
X297072392Y-152474784D01*
X297525216Y-152927608D01*
X297880999Y-153460074D01*
X298126066Y-154051718D01*
X298126066Y-154051719D01*
X298251000Y-154679803D01*
X298251000Y-155320197D01*
X298188533Y-155634239D01*
X298126066Y-155948282D01*
X297880999Y-156539926D01*
X297525216Y-157072392D01*
X297072392Y-157525216D01*
X296539926Y-157880999D01*
X295948282Y-158126066D01*
X295634239Y-158188533D01*
X295320197Y-158251000D01*
X294679803Y-158251000D01*
X294365761Y-158188533D01*
X294051718Y-158126066D01*
X293460074Y-157880999D01*
X292927608Y-157525216D01*
X292474784Y-157072392D01*
X292119001Y-156539926D01*
X291873934Y-155948282D01*
X291811467Y-155634239D01*
X291749000Y-155320197D01*
X291749000Y-154679803D01*
X291873934Y-154051719D01*
X291873934Y-154051718D01*
X292119001Y-153460074D01*
X292474784Y-152927608D01*
X292927608Y-152474784D01*
X293460074Y-152119001D01*
X294051718Y-151873934D01*
X294365761Y-151811467D01*
X294679803Y-151749000D01*
X295320197Y-151749000D01*
X295634239Y-151811467D01*
G37*
G36*
X205634239Y-61811467D02*
G01*
X205948282Y-61873934D01*
X206539926Y-62119001D01*
X207072392Y-62474784D01*
X207525216Y-62927608D01*
X207880999Y-63460074D01*
X208126066Y-64051718D01*
X208126066Y-64051719D01*
X208251000Y-64679803D01*
X208251000Y-65320197D01*
X208188533Y-65634239D01*
X208126066Y-65948282D01*
X207880999Y-66539926D01*
X207525216Y-67072392D01*
X207072392Y-67525216D01*
X206539926Y-67880999D01*
X205948282Y-68126066D01*
X205634239Y-68188533D01*
X205320197Y-68251000D01*
X204679803Y-68251000D01*
X204365761Y-68188533D01*
X204051718Y-68126066D01*
X203460074Y-67880999D01*
X202927608Y-67525216D01*
X202474784Y-67072392D01*
X202119001Y-66539926D01*
X201873934Y-65948282D01*
X201811467Y-65634239D01*
X201749000Y-65320197D01*
X201749000Y-64679803D01*
X201873934Y-64051719D01*
X201873934Y-64051718D01*
X202119001Y-63460074D01*
X202474784Y-62927608D01*
X202927608Y-62474784D01*
X203460074Y-62119001D01*
X204051718Y-61873934D01*
X204365761Y-61811467D01*
X204679803Y-61749000D01*
X205320197Y-61749000D01*
X205634239Y-61811467D01*
G37*
G36*
X295634239Y-61811467D02*
G01*
X295948282Y-61873934D01*
X296539926Y-62119001D01*
X297072392Y-62474784D01*
X297525216Y-62927608D01*
X297880999Y-63460074D01*
X298126066Y-64051718D01*
X298126066Y-64051719D01*
X298251000Y-64679803D01*
X298251000Y-65320197D01*
X298188533Y-65634239D01*
X298126066Y-65948282D01*
X297880999Y-66539926D01*
X297525216Y-67072392D01*
X297072392Y-67525216D01*
X296539926Y-67880999D01*
X295948282Y-68126066D01*
X295634239Y-68188533D01*
X295320197Y-68251000D01*
X294679803Y-68251000D01*
X294365761Y-68188533D01*
X294051718Y-68126066D01*
X293460074Y-67880999D01*
X292927608Y-67525216D01*
X292474784Y-67072392D01*
X292119001Y-66539926D01*
X291873934Y-65948282D01*
X291811467Y-65634239D01*
X291749000Y-65320197D01*
X291749000Y-64679803D01*
X291873934Y-64051719D01*
X291873934Y-64051718D01*
X292119001Y-63460074D01*
X292474784Y-62927608D01*
X292927608Y-62474784D01*
X293460074Y-62119001D01*
X294051718Y-61873934D01*
X294365761Y-61811467D01*
X294679803Y-61749000D01*
X295320197Y-61749000D01*
X295634239Y-61811467D01*
G37*
M02*
