M48
; DRILL file {KiCad (5.1.5)-3} date 05/05/2020 12:11:33
; FORMAT={-:-/ absolute / metric / decimal}
; #@! TF.CreationDate,2020-05-05T12:11:33+02:00
; #@! TF.GenerationSoftware,Kicad,Pcbnew,(5.1.5)-3
; #@! TF.FileFunction,Plated,1,2,PTH
FMAT,2
METRIC
T1C0.400
T2C0.500
T3C3.200
%
G90
G05
T1
X211.0Y-71.5
X211.0Y-72.5
X211.0Y-73.5
X211.0Y-74.5
X211.0Y-75.5
X211.0Y-76.5
X211.0Y-77.5
X211.0Y-78.5
X211.0Y-81.5
X211.0Y-82.5
X211.0Y-83.5
X211.0Y-84.5
X211.0Y-85.5
X211.0Y-86.5
X211.0Y-87.5
X211.0Y-88.5
X211.0Y-91.5
X211.0Y-92.5
X211.0Y-93.5
X211.0Y-94.5
X211.0Y-95.5
X211.0Y-96.5
X211.0Y-97.5
X211.0Y-98.5
X211.0Y-101.5
X211.0Y-102.5
X211.0Y-103.5
X211.0Y-104.5
X211.0Y-105.5
X211.0Y-106.5
X211.0Y-107.5
X211.0Y-108.5
X211.0Y-111.5
X211.0Y-112.5
X211.0Y-113.5
X211.0Y-114.5
X211.0Y-115.5
X211.0Y-116.5
X211.0Y-117.5
X211.0Y-121.5
X211.0Y-122.5
X211.0Y-123.5
X211.0Y-124.5
X211.0Y-125.5
X211.0Y-126.5
X211.0Y-127.5
X211.0Y-128.5
X211.0Y-131.5
X211.0Y-132.5
X211.0Y-133.5
X211.0Y-134.5
X211.0Y-135.5
X211.0Y-136.5
X211.0Y-137.5
X211.0Y-138.5
X211.0Y-141.5
X211.0Y-142.5
X211.0Y-143.5
X211.0Y-144.5
X211.0Y-145.5
X211.0Y-146.5
X211.0Y-147.5
X211.0Y-148.5
X212.0Y-71.5
X212.0Y-72.5
X212.0Y-73.5
X212.0Y-74.5
X212.0Y-75.5
X212.0Y-76.5
X212.0Y-77.5
X212.0Y-78.5
X212.0Y-81.5
X212.0Y-82.5
X212.0Y-83.5
X212.0Y-84.5
X212.0Y-85.5
X212.0Y-86.5
X212.0Y-87.5
X212.0Y-88.5
X212.0Y-91.5
X212.0Y-92.5
X212.0Y-93.5
X212.0Y-94.5
X212.0Y-95.5
X212.0Y-96.5
X212.0Y-97.5
X212.0Y-98.5
X212.0Y-101.5
X212.0Y-102.5
X212.0Y-103.5
X212.0Y-104.5
X212.0Y-105.5
X212.0Y-106.5
X212.0Y-107.5
X212.0Y-108.5
X212.0Y-111.5
X212.0Y-112.5
X212.0Y-113.5
X212.0Y-114.5
X212.0Y-115.5
X212.0Y-116.5
X212.0Y-121.5
X212.0Y-122.5
X212.0Y-123.5
X212.0Y-124.5
X212.0Y-125.5
X212.0Y-126.5
X212.0Y-127.5
X212.0Y-128.5
X212.0Y-131.5
X212.0Y-132.5
X212.0Y-133.5
X212.0Y-134.5
X212.0Y-135.5
X212.0Y-136.5
X212.0Y-137.5
X212.0Y-138.5
X212.0Y-141.5
X212.0Y-142.5
X212.0Y-143.5
X212.0Y-144.5
X212.0Y-145.5
X212.0Y-146.5
X212.0Y-147.5
X212.0Y-148.5
X213.0Y-71.5
X213.0Y-72.5
X213.0Y-77.5
X213.0Y-78.5
X213.0Y-81.5
X213.0Y-81.5
X213.0Y-82.5
X213.0Y-87.5
X213.0Y-88.5
X213.0Y-91.5
X213.0Y-92.5
X213.0Y-97.5
X213.0Y-98.5
X213.0Y-107.5
X213.0Y-108.5
X213.0Y-111.5
X213.0Y-112.5
X213.0Y-118.5
X213.0Y-121.5
X213.0Y-122.5
X213.0Y-127.5
X213.0Y-128.5
X213.0Y-131.5
X213.0Y-132.5
X213.0Y-137.5
X213.0Y-138.5
X213.0Y-141.5
X213.0Y-142.5
X213.0Y-147.5
X213.0Y-148.5
X214.0Y-71.5
X214.0Y-72.5
X214.0Y-81.5
X214.0Y-82.5
X214.0Y-91.5
X214.0Y-92.5
X214.0Y-101.5
X214.0Y-102.5
X214.0Y-107.5
X214.0Y-108.5
X214.0Y-111.5
X214.0Y-112.5
X214.0Y-117.5
X214.0Y-118.5
X214.0Y-127.5
X214.0Y-128.5
X214.0Y-137.5
X214.0Y-138.5
X214.0Y-147.5
X214.0Y-148.5
X215.0Y-71.5
X215.0Y-72.5
X215.0Y-74.0
X215.0Y-75.0
X215.0Y-76.0
X215.0Y-77.5
X215.0Y-78.5
X215.0Y-82.5
X215.0Y-84.0
X215.0Y-85.0
X215.0Y-86.0
X215.0Y-87.5
X215.0Y-88.5
X215.0Y-92.5
X215.0Y-94.0
X215.0Y-95.0
X215.0Y-96.0
X215.0Y-97.5
X215.0Y-98.5
X215.0Y-102.5
X215.0Y-104.0
X215.0Y-105.0
X215.0Y-106.0
X215.0Y-107.5
X215.0Y-108.5
X215.0Y-111.5
X215.0Y-112.5
X215.0Y-114.0
X215.0Y-115.0
X215.0Y-116.0
X215.0Y-117.5
X215.0Y-121.5
X215.0Y-122.5
X215.0Y-124.0
X215.0Y-125.0
X215.0Y-126.0
X215.0Y-127.5
X215.0Y-131.5
X215.0Y-132.5
X215.0Y-134.0
X215.0Y-135.0
X215.0Y-136.0
X215.0Y-137.5
X215.0Y-141.5
X215.0Y-142.5
X215.0Y-144.0
X215.0Y-145.0
X215.0Y-146.0
X215.0Y-147.5
X215.0Y-148.5
X216.0Y-71.5
X216.0Y-72.5
X216.0Y-77.5
X216.0Y-78.5
X216.0Y-87.5
X216.0Y-88.5
X216.0Y-97.5
X216.0Y-98.5
X216.0Y-107.5
X216.0Y-108.5
X216.0Y-111.5
X216.0Y-112.5
X216.0Y-121.5
X216.0Y-122.5
X216.0Y-131.5
X216.0Y-132.5
X216.0Y-141.5
X216.0Y-142.5
X216.0Y-147.5
X216.0Y-148.5
X217.0Y-77.5
X217.0Y-78.5
X217.0Y-81.5
X217.0Y-82.5
X217.0Y-87.5
X217.0Y-88.5
X217.0Y-91.5
X217.0Y-92.5
X217.0Y-97.5
X217.0Y-98.5
X217.0Y-101.5
X217.0Y-102.5
X217.0Y-107.5
X217.0Y-108.5
X217.0Y-111.5
X217.0Y-112.5
X217.0Y-117.5
X217.0Y-118.5
X217.0Y-121.5
X217.0Y-122.5
X217.0Y-127.5
X217.0Y-128.5
X217.0Y-131.5
X217.0Y-132.5
X217.0Y-137.5
X217.0Y-138.5
X217.0Y-141.5
X217.0Y-142.5
X218.0Y-71.5
X218.0Y-72.5
X218.0Y-73.5
X218.0Y-74.5
X218.0Y-75.5
X218.0Y-76.5
X218.0Y-77.5
X218.0Y-78.5
X218.0Y-81.5
X218.0Y-82.5
X218.0Y-83.5
X218.0Y-84.5
X218.0Y-85.5
X218.0Y-86.5
X218.0Y-87.5
X218.0Y-88.5
X218.0Y-91.5
X218.0Y-92.5
X218.0Y-93.5
X218.0Y-94.5
X218.0Y-95.5
X218.0Y-96.5
X218.0Y-97.5
X218.0Y-98.5
X218.0Y-101.5
X218.0Y-102.5
X218.0Y-103.5
X218.0Y-104.5
X218.0Y-105.5
X218.0Y-106.5
X218.0Y-107.5
X218.0Y-108.5
X218.0Y-111.5
X218.0Y-112.5
X218.0Y-113.5
X218.0Y-114.5
X218.0Y-115.5
X218.0Y-116.5
X218.0Y-117.5
X218.0Y-118.5
X218.0Y-121.5
X218.0Y-122.5
X218.0Y-123.5
X218.0Y-124.5
X218.0Y-125.5
X218.0Y-126.5
X218.0Y-127.5
X218.0Y-128.5
X218.0Y-131.5
X218.0Y-132.5
X218.0Y-133.5
X218.0Y-134.5
X218.0Y-135.5
X218.0Y-136.5
X218.0Y-137.5
X218.0Y-138.5
X218.0Y-141.5
X218.0Y-142.5
X218.0Y-143.5
X218.0Y-144.5
X218.0Y-145.5
X218.0Y-146.5
X218.0Y-147.5
X218.0Y-148.5
X219.0Y-71.5
X219.0Y-72.5
X219.0Y-73.5
X219.0Y-74.5
X219.0Y-75.5
X219.0Y-76.5
X219.0Y-77.5
X219.0Y-78.5
X219.0Y-81.5
X219.0Y-82.5
X219.0Y-83.5
X219.0Y-84.5
X219.0Y-85.5
X219.0Y-86.5
X219.0Y-87.5
X219.0Y-88.5
X219.0Y-91.5
X219.0Y-92.5
X219.0Y-93.5
X219.0Y-94.5
X219.0Y-95.5
X219.0Y-96.5
X219.0Y-97.5
X219.0Y-98.5
X219.0Y-101.5
X219.0Y-102.5
X219.0Y-103.5
X219.0Y-104.5
X219.0Y-105.5
X219.0Y-106.5
X219.0Y-107.5
X219.0Y-108.5
X219.0Y-111.5
X219.0Y-112.5
X219.0Y-113.5
X219.0Y-114.5
X219.0Y-115.5
X219.0Y-116.5
X219.0Y-117.5
X219.0Y-118.5
X219.0Y-121.5
X219.0Y-122.5
X219.0Y-123.5
X219.0Y-124.5
X219.0Y-125.5
X219.0Y-126.5
X219.0Y-127.5
X219.0Y-128.5
X219.0Y-131.5
X219.0Y-132.5
X219.0Y-133.5
X219.0Y-134.5
X219.0Y-135.5
X219.0Y-136.5
X219.0Y-137.5
X219.0Y-138.5
X219.0Y-141.5
X219.0Y-142.5
X219.0Y-143.5
X219.0Y-144.5
X219.0Y-145.5
X219.0Y-146.5
X219.0Y-147.5
X219.0Y-148.5
X221.0Y-73.5
X221.0Y-74.5
X221.0Y-75.5
X221.0Y-76.5
X221.0Y-77.5
X221.0Y-78.5
X221.0Y-81.5
X221.0Y-82.5
X221.0Y-83.5
X221.0Y-84.5
X221.0Y-85.5
X221.0Y-86.5
X221.0Y-87.5
X221.0Y-88.5
X221.0Y-91.5
X221.0Y-92.5
X221.0Y-93.5
X221.0Y-94.5
X221.0Y-95.5
X221.0Y-96.5
X221.0Y-97.5
X221.0Y-98.5
X221.0Y-101.5
X221.0Y-102.5
X221.0Y-103.5
X221.0Y-104.5
X221.0Y-105.5
X221.0Y-106.5
X221.0Y-107.5
X221.0Y-108.5
X221.0Y-111.5
X221.0Y-112.5
X221.0Y-113.5
X221.0Y-114.5
X221.0Y-115.5
X221.0Y-116.5
X221.0Y-117.5
X221.0Y-121.5
X221.0Y-122.5
X221.0Y-123.5
X221.0Y-124.5
X221.0Y-125.5
X221.0Y-126.5
X221.0Y-127.5
X221.0Y-128.5
X221.0Y-131.5
X221.0Y-132.5
X221.0Y-133.5
X221.0Y-134.5
X221.0Y-135.5
X221.0Y-136.5
X221.0Y-137.5
X221.0Y-138.5
X221.0Y-141.5
X221.0Y-142.5
X221.0Y-143.5
X221.0Y-144.5
X221.0Y-145.5
X221.0Y-146.5
X222.0Y-72.5
X222.0Y-73.5
X222.0Y-74.5
X222.0Y-75.5
X222.0Y-76.5
X222.0Y-77.5
X222.0Y-78.5
X222.0Y-81.5
X222.0Y-82.5
X222.0Y-83.5
X222.0Y-84.5
X222.0Y-85.5
X222.0Y-86.5
X222.0Y-87.5
X222.0Y-88.5
X222.0Y-91.5
X222.0Y-92.5
X222.0Y-93.5
X222.0Y-94.5
X222.0Y-95.5
X222.0Y-96.5
X222.0Y-97.5
X222.0Y-98.5
X222.0Y-101.5
X222.0Y-102.5
X222.0Y-103.5
X222.0Y-104.5
X222.0Y-105.5
X222.0Y-106.5
X222.0Y-107.5
X222.0Y-108.5
X222.0Y-111.5
X222.0Y-112.5
X222.0Y-113.5
X222.0Y-114.5
X222.0Y-115.5
X222.0Y-116.5
X222.0Y-121.5
X222.0Y-122.5
X222.0Y-123.5
X222.0Y-124.5
X222.0Y-125.5
X222.0Y-126.5
X222.0Y-127.5
X222.0Y-128.5
X222.0Y-131.5
X222.0Y-132.5
X222.0Y-133.5
X222.0Y-134.5
X222.0Y-135.5
X222.0Y-136.5
X222.0Y-137.5
X222.0Y-138.5
X222.0Y-141.5
X222.0Y-142.5
X222.0Y-143.5
X222.0Y-144.5
X222.0Y-145.5
X222.0Y-146.5
X222.0Y-147.5
X223.0Y-72.5
X223.0Y-77.5
X223.0Y-78.5
X223.0Y-81.5
X223.0Y-82.5
X223.0Y-87.5
X223.0Y-88.5
X223.0Y-91.5
X223.0Y-92.5
X223.0Y-97.5
X223.0Y-98.5
X223.0Y-107.5
X223.0Y-108.5
X223.0Y-111.5
X223.0Y-112.5
X223.0Y-118.5
X223.0Y-121.5
X223.0Y-122.5
X223.0Y-127.5
X223.0Y-128.5
X223.0Y-131.5
X223.0Y-132.5
X223.0Y-137.5
X223.0Y-138.5
X223.0Y-141.5
X223.0Y-142.5
X223.0Y-147.5
X224.0Y-72.5
X224.0Y-81.5
X224.0Y-82.5
X224.0Y-91.5
X224.0Y-92.5
X224.0Y-101.5
X224.0Y-102.5
X224.0Y-107.5
X224.0Y-108.5
X224.0Y-111.5
X224.0Y-112.5
X224.0Y-117.5
X224.0Y-118.5
X224.0Y-127.5
X224.0Y-128.5
X224.0Y-137.5
X224.0Y-138.5
X224.0Y-147.5
X225.0Y-72.5
X225.0Y-74.0
X225.0Y-75.0
X225.0Y-76.0
X225.0Y-77.5
X225.0Y-78.5
X225.0Y-82.5
X225.0Y-84.0
X225.0Y-85.0
X225.0Y-86.0
X225.0Y-87.5
X225.0Y-88.5
X225.0Y-92.5
X225.0Y-94.0
X225.0Y-95.0
X225.0Y-96.0
X225.0Y-97.5
X225.0Y-98.5
X225.0Y-102.5
X225.0Y-104.0
X225.0Y-105.0
X225.0Y-106.0
X225.0Y-107.5
X225.0Y-108.5
X225.0Y-111.5
X225.0Y-112.5
X225.0Y-114.0
X225.0Y-115.0
X225.0Y-116.0
X225.0Y-117.5
X225.0Y-121.5
X225.0Y-122.5
X225.0Y-124.0
X225.0Y-125.0
X225.0Y-126.0
X225.0Y-127.5
X225.0Y-131.5
X225.0Y-132.5
X225.0Y-134.0
X225.0Y-135.0
X225.0Y-136.0
X225.0Y-137.5
X225.0Y-141.5
X225.0Y-142.5
X225.0Y-144.0
X225.0Y-145.0
X225.0Y-146.0
X225.0Y-147.5
X226.0Y-77.5
X226.0Y-78.5
X226.0Y-87.5
X226.0Y-88.5
X226.0Y-97.5
X226.0Y-98.5
X226.0Y-107.5
X226.0Y-108.5
X226.0Y-111.5
X226.0Y-112.5
X226.0Y-121.5
X226.0Y-122.5
X226.0Y-131.5
X226.0Y-132.5
X226.0Y-141.5
X226.0Y-142.5
X227.0Y-77.5
X227.0Y-78.5
X227.0Y-81.5
X227.0Y-82.5
X227.0Y-87.5
X227.0Y-88.5
X227.0Y-91.5
X227.0Y-92.5
X227.0Y-97.5
X227.0Y-98.5
X227.0Y-101.5
X227.0Y-102.5
X227.0Y-107.5
X227.0Y-108.5
X227.0Y-111.5
X227.0Y-112.5
X227.0Y-117.5
X227.0Y-118.5
X227.0Y-121.5
X227.0Y-122.5
X227.0Y-127.5
X227.0Y-128.5
X227.0Y-131.5
X227.0Y-132.5
X227.0Y-137.5
X227.0Y-138.5
X227.0Y-141.5
X227.0Y-142.5
X228.0Y-71.5
X228.0Y-72.5
X228.0Y-73.5
X228.0Y-74.5
X228.0Y-75.5
X228.0Y-76.5
X228.0Y-77.5
X228.0Y-78.5
X228.0Y-81.5
X228.0Y-82.5
X228.0Y-83.5
X228.0Y-84.5
X228.0Y-85.5
X228.0Y-86.5
X228.0Y-87.5
X228.0Y-88.5
X228.0Y-91.5
X228.0Y-92.5
X228.0Y-93.5
X228.0Y-94.5
X228.0Y-95.5
X228.0Y-96.5
X228.0Y-97.5
X228.0Y-98.5
X228.0Y-101.5
X228.0Y-102.5
X228.0Y-103.5
X228.0Y-104.5
X228.0Y-105.5
X228.0Y-106.5
X228.0Y-107.5
X228.0Y-108.5
X228.0Y-111.5
X228.0Y-112.5
X228.0Y-113.5
X228.0Y-114.5
X228.0Y-115.5
X228.0Y-116.5
X228.0Y-117.5
X228.0Y-118.5
X228.0Y-121.5
X228.0Y-122.5
X228.0Y-123.5
X228.0Y-124.5
X228.0Y-125.5
X228.0Y-126.5
X228.0Y-127.5
X228.0Y-128.5
X228.0Y-131.5
X228.0Y-132.5
X228.0Y-133.5
X228.0Y-134.5
X228.0Y-135.5
X228.0Y-136.5
X228.0Y-137.5
X228.0Y-138.5
X228.0Y-141.5
X228.0Y-142.5
X228.0Y-143.5
X228.0Y-144.5
X228.0Y-145.5
X228.0Y-146.5
X228.0Y-147.5
X229.0Y-71.5
X229.0Y-72.5
X229.0Y-73.5
X229.0Y-74.5
X229.0Y-75.5
X229.0Y-76.5
X229.0Y-77.5
X229.0Y-78.5
X229.0Y-81.5
X229.0Y-82.5
X229.0Y-83.5
X229.0Y-84.5
X229.0Y-85.5
X229.0Y-86.5
X229.0Y-87.5
X229.0Y-88.5
X229.0Y-91.5
X229.0Y-92.5
X229.0Y-93.5
X229.0Y-94.5
X229.0Y-95.5
X229.0Y-96.5
X229.0Y-97.5
X229.0Y-98.5
X229.0Y-101.5
X229.0Y-102.5
X229.0Y-103.5
X229.0Y-104.5
X229.0Y-105.5
X229.0Y-106.5
X229.0Y-107.5
X229.0Y-108.5
X229.0Y-111.5
X229.0Y-112.5
X229.0Y-113.5
X229.0Y-114.5
X229.0Y-115.5
X229.0Y-116.5
X229.0Y-117.5
X229.0Y-118.5
X229.0Y-121.5
X229.0Y-122.5
X229.0Y-123.5
X229.0Y-124.5
X229.0Y-125.5
X229.0Y-126.5
X229.0Y-127.5
X229.0Y-128.5
X229.0Y-131.5
X229.0Y-132.5
X229.0Y-133.5
X229.0Y-134.5
X229.0Y-135.5
X229.0Y-136.5
X229.0Y-137.5
X229.0Y-138.5
X229.0Y-141.5
X229.0Y-142.5
X229.0Y-143.5
X229.0Y-144.5
X229.0Y-145.5
X229.0Y-146.5
X229.0Y-147.5
X229.0Y-148.5
X231.0Y-72.5
X231.0Y-73.5
X231.0Y-74.5
X231.0Y-75.5
X231.0Y-76.5
X231.0Y-77.5
X231.0Y-78.5
X231.0Y-81.5
X231.0Y-82.5
X231.0Y-83.5
X231.0Y-84.5
X231.0Y-85.5
X231.0Y-86.5
X231.0Y-87.5
X231.0Y-88.5
X231.0Y-91.5
X231.0Y-92.5
X231.0Y-93.5
X231.0Y-94.5
X231.0Y-95.5
X231.0Y-96.5
X231.0Y-97.5
X231.0Y-98.5
X231.0Y-101.5
X231.0Y-102.5
X231.0Y-103.5
X231.0Y-104.5
X231.0Y-105.5
X231.0Y-106.5
X231.0Y-107.5
X231.0Y-108.5
X231.0Y-111.5
X231.0Y-112.5
X231.0Y-113.5
X231.0Y-114.5
X231.0Y-115.5
X231.0Y-116.5
X231.0Y-117.5
X231.0Y-121.5
X231.0Y-122.5
X231.0Y-123.5
X231.0Y-124.5
X231.0Y-125.5
X231.0Y-126.5
X231.0Y-127.5
X231.0Y-128.5
X231.0Y-131.5
X231.0Y-132.5
X231.0Y-133.5
X231.0Y-134.5
X231.0Y-135.5
X231.0Y-136.5
X231.0Y-137.5
X231.0Y-138.5
X231.0Y-141.5
X231.0Y-142.5
X231.0Y-143.5
X231.0Y-144.5
X231.0Y-145.5
X231.0Y-146.5
X231.0Y-147.5
X231.0Y-148.5
X232.0Y-71.5
X232.0Y-72.5
X232.0Y-73.5
X232.0Y-74.5
X232.0Y-75.5
X232.0Y-76.5
X232.0Y-77.5
X232.0Y-78.5
X232.0Y-81.5
X232.0Y-82.5
X232.0Y-83.5
X232.0Y-84.5
X232.0Y-85.5
X232.0Y-86.5
X232.0Y-87.5
X232.0Y-88.5
X232.0Y-91.5
X232.0Y-92.5
X232.0Y-93.5
X232.0Y-94.5
X232.0Y-95.5
X232.0Y-96.5
X232.0Y-97.5
X232.0Y-98.5
X232.0Y-101.5
X232.0Y-102.5
X232.0Y-103.5
X232.0Y-104.5
X232.0Y-105.5
X232.0Y-106.5
X232.0Y-107.5
X232.0Y-108.5
X232.0Y-111.5
X232.0Y-112.5
X232.0Y-113.5
X232.0Y-114.5
X232.0Y-115.5
X232.0Y-116.5
X232.0Y-121.5
X232.0Y-122.5
X232.0Y-123.5
X232.0Y-124.5
X232.0Y-125.5
X232.0Y-126.5
X232.0Y-127.5
X232.0Y-128.5
X232.0Y-131.5
X232.0Y-132.5
X232.0Y-133.5
X232.0Y-134.5
X232.0Y-135.5
X232.0Y-136.5
X232.0Y-137.5
X232.0Y-138.5
X232.0Y-141.5
X232.0Y-142.5
X232.0Y-143.5
X232.0Y-144.5
X232.0Y-145.5
X232.0Y-146.5
X232.0Y-147.5
X232.0Y-148.5
X233.0Y-71.5
X233.0Y-72.5
X233.0Y-77.5
X233.0Y-78.5
X233.0Y-81.5
X233.0Y-82.5
X233.0Y-87.5
X233.0Y-88.5
X233.0Y-91.5
X233.0Y-92.5
X233.0Y-97.5
X233.0Y-98.5
X233.0Y-107.5
X233.0Y-108.5
X233.0Y-111.5
X233.0Y-112.5
X233.0Y-118.5
X233.0Y-121.5
X233.0Y-122.5
X233.0Y-127.5
X233.0Y-128.5
X233.0Y-131.5
X233.0Y-132.5
X233.0Y-137.5
X233.0Y-138.5
X233.0Y-141.5
X233.0Y-142.5
X233.0Y-147.5
X234.0Y-71.5
X234.0Y-72.5
X234.0Y-81.5
X234.0Y-82.5
X234.0Y-91.5
X234.0Y-92.5
X234.0Y-101.5
X234.0Y-102.5
X234.0Y-107.5
X234.0Y-108.5
X234.0Y-111.5
X234.0Y-112.5
X234.0Y-117.5
X234.0Y-118.5
X234.0Y-127.5
X234.0Y-128.5
X234.0Y-137.5
X234.0Y-138.5
X234.0Y-147.5
X235.0Y-72.5
X235.0Y-74.0
X235.0Y-75.0
X235.0Y-76.0
X235.0Y-77.5
X235.0Y-78.5
X235.0Y-82.5
X235.0Y-84.0
X235.0Y-85.0
X235.0Y-86.0
X235.0Y-87.5
X235.0Y-88.5
X235.0Y-92.5
X235.0Y-94.0
X235.0Y-95.0
X235.0Y-96.0
X235.0Y-97.5
X235.0Y-98.5
X235.0Y-102.5
X235.0Y-104.0
X235.0Y-105.0
X235.0Y-106.0
X235.0Y-107.5
X235.0Y-108.5
X235.0Y-111.5
X235.0Y-112.5
X235.0Y-114.0
X235.0Y-115.0
X235.0Y-116.0
X235.0Y-117.5
X235.0Y-121.5
X235.0Y-122.5
X235.0Y-124.0
X235.0Y-125.0
X235.0Y-126.0
X235.0Y-127.5
X235.0Y-131.5
X235.0Y-132.5
X235.0Y-134.0
X235.0Y-135.0
X235.0Y-136.0
X235.0Y-137.5
X235.0Y-141.5
X235.0Y-142.5
X235.0Y-144.0
X235.0Y-145.0
X235.0Y-146.0
X235.0Y-147.5
X236.0Y-77.5
X236.0Y-78.5
X236.0Y-87.5
X236.0Y-88.5
X236.0Y-97.5
X236.0Y-98.5
X236.0Y-107.5
X236.0Y-108.5
X236.0Y-111.5
X236.0Y-112.5
X236.0Y-121.5
X236.0Y-122.5
X236.0Y-131.5
X236.0Y-132.5
X236.0Y-141.5
X236.0Y-142.5
X237.0Y-71.5
X237.0Y-72.5
X237.0Y-77.5
X237.0Y-78.5
X237.0Y-81.5
X237.0Y-82.5
X237.0Y-87.5
X237.0Y-88.5
X237.0Y-91.5
X237.0Y-92.5
X237.0Y-97.5
X237.0Y-98.5
X237.0Y-101.5
X237.0Y-102.5
X237.0Y-107.5
X237.0Y-108.5
X237.0Y-111.5
X237.0Y-112.5
X237.0Y-117.5
X237.0Y-118.5
X237.0Y-121.5
X237.0Y-122.5
X237.0Y-127.5
X237.0Y-128.5
X237.0Y-131.5
X237.0Y-132.5
X237.0Y-137.5
X237.0Y-138.5
X237.0Y-141.5
X237.0Y-142.5
X237.0Y-147.5
X237.0Y-148.5
X238.0Y-71.5
X238.0Y-72.5
X238.0Y-73.5
X238.0Y-74.5
X238.0Y-75.5
X238.0Y-76.5
X238.0Y-77.5
X238.0Y-78.5
X238.0Y-81.5
X238.0Y-82.5
X238.0Y-83.5
X238.0Y-84.5
X238.0Y-85.5
X238.0Y-86.5
X238.0Y-87.5
X238.0Y-88.5
X238.0Y-91.5
X238.0Y-92.5
X238.0Y-93.5
X238.0Y-94.5
X238.0Y-95.5
X238.0Y-96.5
X238.0Y-97.5
X238.0Y-98.5
X238.0Y-101.5
X238.0Y-102.5
X238.0Y-103.5
X238.0Y-104.5
X238.0Y-105.5
X238.0Y-106.5
X238.0Y-107.5
X238.0Y-108.5
X238.0Y-111.5
X238.0Y-112.5
X238.0Y-113.5
X238.0Y-114.5
X238.0Y-115.5
X238.0Y-116.5
X238.0Y-117.5
X238.0Y-118.5
X238.0Y-121.5
X238.0Y-122.5
X238.0Y-123.5
X238.0Y-124.5
X238.0Y-125.5
X238.0Y-126.5
X238.0Y-127.5
X238.0Y-128.5
X238.0Y-131.5
X238.0Y-132.5
X238.0Y-133.5
X238.0Y-134.5
X238.0Y-135.5
X238.0Y-136.5
X238.0Y-137.5
X238.0Y-138.5
X238.0Y-141.5
X238.0Y-142.5
X238.0Y-143.5
X238.0Y-144.5
X238.0Y-145.5
X238.0Y-146.5
X238.0Y-147.5
X238.0Y-148.5
X239.0Y-71.5
X239.0Y-72.5
X239.0Y-73.5
X239.0Y-74.5
X239.0Y-75.5
X239.0Y-76.5
X239.0Y-77.5
X239.0Y-78.5
X239.0Y-81.5
X239.0Y-82.5
X239.0Y-83.5
X239.0Y-84.5
X239.0Y-85.5
X239.0Y-86.5
X239.0Y-87.5
X239.0Y-88.5
X239.0Y-91.5
X239.0Y-92.5
X239.0Y-93.5
X239.0Y-94.5
X239.0Y-95.5
X239.0Y-96.5
X239.0Y-97.5
X239.0Y-98.5
X239.0Y-101.5
X239.0Y-102.5
X239.0Y-103.5
X239.0Y-104.5
X239.0Y-105.5
X239.0Y-106.5
X239.0Y-107.5
X239.0Y-108.5
X239.0Y-111.5
X239.0Y-112.5
X239.0Y-113.5
X239.0Y-114.5
X239.0Y-115.5
X239.0Y-116.5
X239.0Y-117.5
X239.0Y-118.5
X239.0Y-121.5
X239.0Y-122.5
X239.0Y-123.5
X239.0Y-124.5
X239.0Y-125.5
X239.0Y-126.5
X239.0Y-127.5
X239.0Y-128.5
X239.0Y-131.5
X239.0Y-132.5
X239.0Y-133.5
X239.0Y-134.5
X239.0Y-135.5
X239.0Y-136.5
X239.0Y-137.5
X239.0Y-138.5
X239.0Y-141.5
X239.0Y-142.5
X239.0Y-143.5
X239.0Y-144.5
X239.0Y-145.5
X239.0Y-146.5
X239.0Y-147.5
X239.0Y-148.5
X241.0Y-71.5
X241.0Y-72.5
X241.0Y-73.5
X241.0Y-74.5
X241.0Y-75.5
X241.0Y-76.5
X241.0Y-77.5
X241.0Y-78.5
X241.0Y-81.5
X241.0Y-82.5
X241.0Y-83.5
X241.0Y-84.5
X241.0Y-85.5
X241.0Y-86.5
X241.0Y-87.5
X241.0Y-88.5
X241.0Y-91.5
X241.0Y-92.5
X241.0Y-93.5
X241.0Y-94.5
X241.0Y-95.5
X241.0Y-96.5
X241.0Y-97.5
X241.0Y-98.5
X241.0Y-101.5
X241.0Y-102.5
X241.0Y-103.5
X241.0Y-104.5
X241.0Y-105.5
X241.0Y-106.5
X241.0Y-107.5
X241.0Y-108.5
X241.0Y-111.5
X241.0Y-112.5
X241.0Y-113.5
X241.0Y-114.5
X241.0Y-115.5
X241.0Y-116.5
X241.0Y-117.5
X241.0Y-121.5
X241.0Y-122.5
X241.0Y-123.5
X241.0Y-124.5
X241.0Y-125.5
X241.0Y-126.5
X241.0Y-127.5
X241.0Y-128.5
X241.0Y-131.5
X241.0Y-132.5
X241.0Y-133.5
X241.0Y-134.5
X241.0Y-135.5
X241.0Y-136.5
X241.0Y-137.5
X241.0Y-138.5
X241.0Y-141.5
X241.0Y-142.5
X241.0Y-143.5
X241.0Y-144.5
X241.0Y-145.5
X241.0Y-146.5
X241.0Y-147.5
X241.0Y-148.5
X242.0Y-71.5
X242.0Y-72.5
X242.0Y-73.5
X242.0Y-74.5
X242.0Y-75.5
X242.0Y-76.5
X242.0Y-77.5
X242.0Y-78.5
X242.0Y-81.5
X242.0Y-82.5
X242.0Y-83.5
X242.0Y-84.5
X242.0Y-85.5
X242.0Y-86.5
X242.0Y-87.5
X242.0Y-88.5
X242.0Y-91.5
X242.0Y-92.5
X242.0Y-93.5
X242.0Y-94.5
X242.0Y-95.5
X242.0Y-96.5
X242.0Y-97.5
X242.0Y-98.5
X242.0Y-101.5
X242.0Y-102.5
X242.0Y-103.5
X242.0Y-104.5
X242.0Y-105.5
X242.0Y-106.5
X242.0Y-107.5
X242.0Y-108.5
X242.0Y-111.5
X242.0Y-112.5
X242.0Y-113.5
X242.0Y-114.5
X242.0Y-115.5
X242.0Y-116.5
X242.0Y-121.5
X242.0Y-122.5
X242.0Y-123.5
X242.0Y-124.5
X242.0Y-125.5
X242.0Y-126.5
X242.0Y-127.5
X242.0Y-128.5
X242.0Y-131.5
X242.0Y-132.5
X242.0Y-133.5
X242.0Y-134.5
X242.0Y-135.5
X242.0Y-136.5
X242.0Y-137.5
X242.0Y-138.5
X242.0Y-141.5
X242.0Y-142.5
X242.0Y-143.5
X242.0Y-144.5
X242.0Y-145.5
X242.0Y-146.5
X242.0Y-147.5
X242.0Y-148.5
X243.0Y-71.5
X243.0Y-72.5
X243.0Y-77.5
X243.0Y-78.5
X243.0Y-81.5
X243.0Y-82.5
X243.0Y-87.5
X243.0Y-88.5
X243.0Y-91.5
X243.0Y-92.5
X243.0Y-97.5
X243.0Y-98.5
X243.0Y-107.5
X243.0Y-108.5
X243.0Y-111.5
X243.0Y-112.5
X243.0Y-118.5
X243.0Y-121.5
X243.0Y-122.5
X243.0Y-127.5
X243.0Y-128.5
X243.0Y-131.5
X243.0Y-132.5
X243.0Y-137.5
X243.0Y-138.5
X243.0Y-141.5
X243.0Y-142.5
X243.0Y-147.5
X243.0Y-148.5
X244.0Y-71.5
X244.0Y-72.5
X244.0Y-81.5
X244.0Y-82.5
X244.0Y-91.5
X244.0Y-92.5
X244.0Y-101.5
X244.0Y-102.5
X244.0Y-107.5
X244.0Y-108.5
X244.0Y-111.5
X244.0Y-112.5
X244.0Y-117.5
X244.0Y-118.5
X244.0Y-127.5
X244.0Y-128.5
X244.0Y-137.5
X244.0Y-138.5
X244.0Y-147.5
X244.0Y-148.5
X245.0Y-71.5
X245.0Y-72.5
X245.0Y-74.0
X245.0Y-75.0
X245.0Y-76.0
X245.0Y-77.5
X245.0Y-78.5
X245.0Y-82.5
X245.0Y-84.0
X245.0Y-85.0
X245.0Y-86.0
X245.0Y-87.5
X245.0Y-88.5
X245.0Y-92.5
X245.0Y-94.0
X245.0Y-95.0
X245.0Y-96.0
X245.0Y-97.5
X245.0Y-98.5
X245.0Y-102.5
X245.0Y-104.0
X245.0Y-105.0
X245.0Y-106.0
X245.0Y-107.5
X245.0Y-108.5
X245.0Y-111.5
X245.0Y-112.5
X245.0Y-114.0
X245.0Y-115.0
X245.0Y-116.0
X245.0Y-117.5
X245.0Y-121.5
X245.0Y-122.5
X245.0Y-124.0
X245.0Y-125.0
X245.0Y-126.0
X245.0Y-127.5
X245.0Y-131.5
X245.0Y-132.5
X245.0Y-134.0
X245.0Y-135.0
X245.0Y-136.0
X245.0Y-137.5
X245.0Y-141.5
X245.0Y-142.5
X245.0Y-144.0
X245.0Y-145.0
X245.0Y-146.0
X245.0Y-147.5
X246.0Y-77.5
X246.0Y-78.5
X246.0Y-87.5
X246.0Y-88.5
X246.0Y-97.5
X246.0Y-98.5
X246.0Y-107.5
X246.0Y-108.5
X246.0Y-111.5
X246.0Y-112.5
X246.0Y-121.5
X246.0Y-122.5
X246.0Y-131.5
X246.0Y-132.5
X246.0Y-141.5
X246.0Y-142.5
X247.0Y-71.5
X247.0Y-72.5
X247.0Y-77.5
X247.0Y-78.5
X247.0Y-81.5
X247.0Y-82.5
X247.0Y-87.5
X247.0Y-88.5
X247.0Y-91.5
X247.0Y-92.5
X247.0Y-97.5
X247.0Y-98.5
X247.0Y-101.5
X247.0Y-102.5
X247.0Y-107.5
X247.0Y-108.5
X247.0Y-111.5
X247.0Y-112.5
X247.0Y-117.5
X247.0Y-118.5
X247.0Y-121.5
X247.0Y-122.5
X247.0Y-127.5
X247.0Y-128.5
X247.0Y-131.5
X247.0Y-132.5
X247.0Y-137.5
X247.0Y-138.5
X247.0Y-141.5
X247.0Y-142.5
X247.0Y-147.5
X247.0Y-148.5
X248.0Y-71.5
X248.0Y-72.5
X248.0Y-73.5
X248.0Y-74.5
X248.0Y-75.5
X248.0Y-76.5
X248.0Y-77.5
X248.0Y-78.5
X248.0Y-81.5
X248.0Y-82.5
X248.0Y-83.5
X248.0Y-84.5
X248.0Y-85.5
X248.0Y-86.5
X248.0Y-87.5
X248.0Y-88.5
X248.0Y-91.5
X248.0Y-92.5
X248.0Y-93.5
X248.0Y-94.5
X248.0Y-95.5
X248.0Y-96.5
X248.0Y-97.5
X248.0Y-98.5
X248.0Y-101.5
X248.0Y-102.5
X248.0Y-103.5
X248.0Y-104.5
X248.0Y-105.5
X248.0Y-106.5
X248.0Y-107.5
X248.0Y-108.5
X248.0Y-111.5
X248.0Y-112.5
X248.0Y-113.5
X248.0Y-114.5
X248.0Y-115.5
X248.0Y-116.5
X248.0Y-117.5
X248.0Y-118.5
X248.0Y-121.5
X248.0Y-122.5
X248.0Y-123.5
X248.0Y-124.5
X248.0Y-125.5
X248.0Y-126.5
X248.0Y-127.5
X248.0Y-128.5
X248.0Y-131.5
X248.0Y-132.5
X248.0Y-133.5
X248.0Y-134.5
X248.0Y-135.5
X248.0Y-136.5
X248.0Y-137.5
X248.0Y-138.5
X248.0Y-141.5
X248.0Y-142.5
X248.0Y-143.5
X248.0Y-144.5
X248.0Y-145.5
X248.0Y-146.5
X248.0Y-147.5
X248.0Y-148.5
X249.0Y-71.5
X249.0Y-72.5
X249.0Y-73.5
X249.0Y-74.5
X249.0Y-75.5
X249.0Y-76.5
X249.0Y-77.5
X249.0Y-78.5
X249.0Y-81.5
X249.0Y-82.5
X249.0Y-83.5
X249.0Y-84.5
X249.0Y-85.5
X249.0Y-86.5
X249.0Y-87.5
X249.0Y-88.5
X249.0Y-91.5
X249.0Y-92.5
X249.0Y-93.5
X249.0Y-94.5
X249.0Y-95.5
X249.0Y-96.5
X249.0Y-97.5
X249.0Y-98.5
X249.0Y-101.5
X249.0Y-102.5
X249.0Y-103.5
X249.0Y-104.5
X249.0Y-105.5
X249.0Y-106.5
X249.0Y-107.5
X249.0Y-108.5
X249.0Y-111.5
X249.0Y-112.5
X249.0Y-113.5
X249.0Y-114.5
X249.0Y-115.5
X249.0Y-116.5
X249.0Y-117.5
X249.0Y-118.5
X249.0Y-121.5
X249.0Y-122.5
X249.0Y-123.5
X249.0Y-124.5
X249.0Y-125.5
X249.0Y-126.5
X249.0Y-127.5
X249.0Y-128.5
X249.0Y-131.5
X249.0Y-132.5
X249.0Y-133.5
X249.0Y-134.5
X249.0Y-135.5
X249.0Y-136.5
X249.0Y-137.5
X249.0Y-138.5
X249.0Y-141.5
X249.0Y-142.5
X249.0Y-143.5
X249.0Y-144.5
X249.0Y-145.5
X249.0Y-146.5
X249.0Y-147.5
X249.0Y-148.5
X251.0Y-71.5
X251.0Y-72.5
X251.0Y-73.5
X251.0Y-74.5
X251.0Y-75.5
X251.0Y-76.5
X251.0Y-77.5
X251.0Y-78.5
X251.0Y-81.5
X251.0Y-82.5
X251.0Y-83.5
X251.0Y-84.5
X251.0Y-85.5
X251.0Y-86.5
X251.0Y-87.5
X251.0Y-88.5
X251.0Y-91.5
X251.0Y-92.5
X251.0Y-93.5
X251.0Y-94.5
X251.0Y-95.5
X251.0Y-96.5
X251.0Y-97.5
X251.0Y-98.5
X251.0Y-101.5
X251.0Y-102.5
X251.0Y-103.5
X251.0Y-104.5
X251.0Y-105.5
X251.0Y-106.5
X251.0Y-107.5
X251.0Y-108.5
X251.0Y-111.5
X251.0Y-112.5
X251.0Y-113.5
X251.0Y-114.5
X251.0Y-115.5
X251.0Y-116.5
X251.0Y-117.5
X251.0Y-121.5
X251.0Y-122.5
X251.0Y-123.5
X251.0Y-124.5
X251.0Y-125.5
X251.0Y-126.5
X251.0Y-127.5
X251.0Y-128.5
X251.0Y-131.5
X251.0Y-132.5
X251.0Y-133.5
X251.0Y-134.5
X251.0Y-135.5
X251.0Y-136.5
X251.0Y-137.5
X251.0Y-138.5
X251.0Y-141.5
X251.0Y-142.5
X251.0Y-143.5
X251.0Y-144.5
X251.0Y-145.5
X251.0Y-146.5
X251.0Y-147.5
X251.0Y-148.5
X252.0Y-71.5
X252.0Y-72.5
X252.0Y-73.5
X252.0Y-74.5
X252.0Y-75.5
X252.0Y-76.5
X252.0Y-77.5
X252.0Y-78.5
X252.0Y-81.5
X252.0Y-82.5
X252.0Y-83.5
X252.0Y-84.5
X252.0Y-85.5
X252.0Y-86.5
X252.0Y-87.5
X252.0Y-88.5
X252.0Y-91.5
X252.0Y-92.5
X252.0Y-93.5
X252.0Y-94.5
X252.0Y-95.5
X252.0Y-96.5
X252.0Y-97.5
X252.0Y-98.5
X252.0Y-101.5
X252.0Y-102.5
X252.0Y-103.5
X252.0Y-104.5
X252.0Y-105.5
X252.0Y-106.5
X252.0Y-107.5
X252.0Y-108.5
X252.0Y-111.5
X252.0Y-112.5
X252.0Y-113.5
X252.0Y-114.5
X252.0Y-115.5
X252.0Y-116.5
X252.0Y-121.5
X252.0Y-122.5
X252.0Y-123.5
X252.0Y-124.5
X252.0Y-125.5
X252.0Y-126.5
X252.0Y-127.5
X252.0Y-128.5
X252.0Y-131.5
X252.0Y-132.5
X252.0Y-133.5
X252.0Y-134.5
X252.0Y-135.5
X252.0Y-136.5
X252.0Y-137.5
X252.0Y-138.5
X252.0Y-141.5
X252.0Y-142.5
X252.0Y-143.5
X252.0Y-144.5
X252.0Y-145.5
X252.0Y-146.5
X252.0Y-147.5
X252.0Y-148.5
X253.0Y-71.5
X253.0Y-72.5
X253.0Y-77.5
X253.0Y-78.5
X253.0Y-81.5
X253.0Y-82.5
X253.0Y-87.5
X253.0Y-88.5
X253.0Y-91.5
X253.0Y-92.5
X253.0Y-97.5
X253.0Y-98.5
X253.0Y-107.5
X253.0Y-108.5
X253.0Y-111.5
X253.0Y-112.5
X253.0Y-118.5
X253.0Y-121.5
X253.0Y-122.5
X253.0Y-127.5
X253.0Y-128.5
X253.0Y-131.5
X253.0Y-132.5
X253.0Y-137.5
X253.0Y-138.5
X253.0Y-141.5
X253.0Y-142.5
X253.0Y-147.5
X253.0Y-148.5
X254.0Y-71.5
X254.0Y-72.5
X254.0Y-81.5
X254.0Y-82.5
X254.0Y-91.5
X254.0Y-92.5
X254.0Y-101.5
X254.0Y-102.5
X254.0Y-107.5
X254.0Y-108.5
X254.0Y-111.5
X254.0Y-112.5
X254.0Y-117.5
X254.0Y-118.5
X254.0Y-127.5
X254.0Y-128.5
X254.0Y-137.5
X254.0Y-138.5
X254.0Y-147.5
X254.0Y-148.5
X255.0Y-71.5
X255.0Y-72.5
X255.0Y-74.0
X255.0Y-75.0
X255.0Y-76.0
X255.0Y-77.5
X255.0Y-78.5
X255.0Y-82.5
X255.0Y-84.0
X255.0Y-85.0
X255.0Y-86.0
X255.0Y-87.5
X255.0Y-88.5
X255.0Y-92.5
X255.0Y-94.0
X255.0Y-95.0
X255.0Y-96.0
X255.0Y-97.5
X255.0Y-98.5
X255.0Y-102.5
X255.0Y-104.0
X255.0Y-105.0
X255.0Y-106.0
X255.0Y-107.5
X255.0Y-108.5
X255.0Y-111.5
X255.0Y-112.5
X255.0Y-114.0
X255.0Y-115.0
X255.0Y-116.0
X255.0Y-117.5
X255.0Y-121.5
X255.0Y-122.5
X255.0Y-124.0
X255.0Y-125.0
X255.0Y-126.0
X255.0Y-127.5
X255.0Y-131.5
X255.0Y-132.5
X255.0Y-134.0
X255.0Y-135.0
X255.0Y-136.0
X255.0Y-137.5
X255.0Y-141.5
X255.0Y-142.5
X255.0Y-144.0
X255.0Y-145.0
X255.0Y-146.0
X255.0Y-147.5
X255.0Y-148.5
X256.0Y-71.5
X256.0Y-72.5
X256.0Y-77.5
X256.0Y-78.5
X256.0Y-87.5
X256.0Y-88.5
X256.0Y-97.5
X256.0Y-98.5
X256.0Y-107.5
X256.0Y-108.5
X256.0Y-111.5
X256.0Y-112.5
X256.0Y-121.5
X256.0Y-122.5
X256.0Y-131.5
X256.0Y-132.5
X256.0Y-141.5
X256.0Y-142.5
X256.0Y-147.5
X256.0Y-148.5
X257.0Y-77.5
X257.0Y-78.5
X257.0Y-81.5
X257.0Y-82.5
X257.0Y-87.5
X257.0Y-88.5
X257.0Y-91.5
X257.0Y-92.5
X257.0Y-97.5
X257.0Y-98.5
X257.0Y-101.5
X257.0Y-102.5
X257.0Y-107.5
X257.0Y-108.5
X257.0Y-111.5
X257.0Y-112.5
X257.0Y-117.5
X257.0Y-118.5
X257.0Y-121.5
X257.0Y-122.5
X257.0Y-127.5
X257.0Y-128.5
X257.0Y-131.5
X257.0Y-132.5
X257.0Y-137.5
X257.0Y-138.5
X257.0Y-141.5
X257.0Y-142.5
X257.0Y-147.5
X257.0Y-148.5
X258.0Y-71.5
X258.0Y-72.5
X258.0Y-73.5
X258.0Y-74.5
X258.0Y-75.5
X258.0Y-76.5
X258.0Y-77.5
X258.0Y-78.5
X258.0Y-81.5
X258.0Y-82.5
X258.0Y-83.5
X258.0Y-84.5
X258.0Y-85.5
X258.0Y-86.5
X258.0Y-87.5
X258.0Y-88.5
X258.0Y-91.5
X258.0Y-92.5
X258.0Y-93.5
X258.0Y-94.5
X258.0Y-95.5
X258.0Y-96.5
X258.0Y-97.5
X258.0Y-98.5
X258.0Y-101.5
X258.0Y-102.5
X258.0Y-103.5
X258.0Y-104.5
X258.0Y-105.5
X258.0Y-106.5
X258.0Y-107.5
X258.0Y-108.5
X258.0Y-111.5
X258.0Y-112.5
X258.0Y-113.5
X258.0Y-114.5
X258.0Y-115.5
X258.0Y-116.5
X258.0Y-117.5
X258.0Y-118.5
X258.0Y-121.5
X258.0Y-122.5
X258.0Y-123.5
X258.0Y-124.5
X258.0Y-125.5
X258.0Y-126.5
X258.0Y-127.5
X258.0Y-128.5
X258.0Y-131.5
X258.0Y-132.5
X258.0Y-133.5
X258.0Y-134.5
X258.0Y-135.5
X258.0Y-136.5
X258.0Y-137.5
X258.0Y-138.5
X258.0Y-141.5
X258.0Y-142.5
X258.0Y-143.5
X258.0Y-146.5
X258.0Y-147.5
X258.0Y-148.5
X259.0Y-71.5
X259.0Y-72.5
X259.0Y-73.5
X259.0Y-74.5
X259.0Y-75.5
X259.0Y-76.5
X259.0Y-77.5
X259.0Y-78.5
X259.0Y-81.5
X259.0Y-82.5
X259.0Y-83.5
X259.0Y-84.5
X259.0Y-85.5
X259.0Y-86.5
X259.0Y-87.5
X259.0Y-88.5
X259.0Y-91.5
X259.0Y-92.5
X259.0Y-93.5
X259.0Y-94.5
X259.0Y-95.5
X259.0Y-96.5
X259.0Y-97.5
X259.0Y-98.5
X259.0Y-101.5
X259.0Y-102.5
X259.0Y-103.5
X259.0Y-104.5
X259.0Y-105.5
X259.0Y-106.5
X259.0Y-107.5
X259.0Y-108.5
X259.0Y-111.5
X259.0Y-112.5
X259.0Y-113.5
X259.0Y-114.5
X259.0Y-115.5
X259.0Y-116.5
X259.0Y-117.5
X259.0Y-118.5
X259.0Y-121.5
X259.0Y-122.5
X259.0Y-123.5
X259.0Y-124.5
X259.0Y-125.5
X259.0Y-126.5
X259.0Y-127.5
X259.0Y-128.5
X259.0Y-131.5
X259.0Y-132.5
X259.0Y-133.5
X259.0Y-134.5
X259.0Y-135.5
X259.0Y-136.5
X259.0Y-137.5
X259.0Y-138.5
X259.0Y-141.5
X259.0Y-142.5
X259.0Y-143.5
X259.0Y-144.5
X259.0Y-146.5
X259.0Y-147.5
X259.0Y-148.5
X261.0Y-72.5
X261.0Y-73.5
X261.0Y-74.5
X261.0Y-75.5
X261.0Y-76.5
X261.0Y-77.5
X261.0Y-78.5
X261.0Y-81.5
X261.0Y-82.5
X261.0Y-83.5
X261.0Y-84.5
X261.0Y-85.5
X261.0Y-86.5
X261.0Y-87.5
X261.0Y-88.5
X261.0Y-91.5
X261.0Y-92.5
X261.0Y-93.5
X261.0Y-94.5
X261.0Y-95.5
X261.0Y-96.5
X261.0Y-97.5
X261.0Y-98.5
X261.0Y-101.5
X261.0Y-102.5
X261.0Y-103.5
X261.0Y-104.5
X261.0Y-105.5
X261.0Y-106.5
X261.0Y-107.5
X261.0Y-108.5
X261.0Y-111.5
X261.0Y-112.5
X261.0Y-113.5
X261.0Y-114.5
X261.0Y-115.5
X261.0Y-116.5
X261.0Y-117.5
X261.0Y-121.5
X261.0Y-122.5
X261.0Y-123.5
X261.0Y-124.5
X261.0Y-125.5
X261.0Y-126.5
X261.0Y-127.5
X261.0Y-128.5
X261.0Y-131.5
X261.0Y-132.5
X261.0Y-133.5
X261.0Y-134.5
X261.0Y-135.5
X261.0Y-136.5
X261.0Y-137.5
X261.0Y-138.5
X261.0Y-141.5
X261.0Y-142.5
X261.0Y-143.5
X261.0Y-144.5
X261.0Y-148.5
X262.0Y-72.5
X262.0Y-73.5
X262.0Y-74.5
X262.0Y-75.5
X262.0Y-76.5
X262.0Y-77.5
X262.0Y-78.5
X262.0Y-81.5
X262.0Y-82.5
X262.0Y-83.5
X262.0Y-84.5
X262.0Y-85.5
X262.0Y-86.5
X262.0Y-87.5
X262.0Y-88.5
X262.0Y-91.5
X262.0Y-92.5
X262.0Y-93.5
X262.0Y-94.5
X262.0Y-95.5
X262.0Y-96.5
X262.0Y-97.5
X262.0Y-98.5
X262.0Y-101.5
X262.0Y-102.5
X262.0Y-103.5
X262.0Y-104.5
X262.0Y-105.5
X262.0Y-106.5
X262.0Y-107.5
X262.0Y-108.5
X262.0Y-111.5
X262.0Y-112.5
X262.0Y-113.5
X262.0Y-114.5
X262.0Y-115.5
X262.0Y-116.5
X262.0Y-121.5
X262.0Y-122.5
X262.0Y-123.5
X262.0Y-124.5
X262.0Y-125.5
X262.0Y-126.5
X262.0Y-127.5
X262.0Y-128.5
X262.0Y-131.5
X262.0Y-132.5
X262.0Y-133.5
X262.0Y-134.5
X262.0Y-135.5
X262.0Y-136.5
X262.0Y-137.5
X262.0Y-138.5
X262.0Y-141.5
X262.0Y-142.5
X262.0Y-143.5
X262.0Y-144.5
X262.0Y-145.5
X263.0Y-72.5
X263.0Y-77.5
X263.0Y-78.5
X263.0Y-81.5
X263.0Y-82.5
X263.0Y-87.5
X263.0Y-88.5
X263.0Y-91.5
X263.0Y-92.5
X263.0Y-97.5
X263.0Y-98.5
X263.0Y-107.5
X263.0Y-108.5
X263.0Y-111.5
X263.0Y-112.5
X263.0Y-118.5
X263.0Y-121.5
X263.0Y-122.5
X263.0Y-127.5
X263.0Y-128.5
X263.0Y-131.5
X263.0Y-132.5
X263.0Y-137.5
X263.0Y-138.5
X263.0Y-141.5
X263.0Y-142.5
X264.0Y-72.5
X264.0Y-81.5
X264.0Y-82.5
X264.0Y-91.5
X264.0Y-92.5
X264.0Y-101.5
X264.0Y-102.5
X264.0Y-107.5
X264.0Y-108.5
X264.0Y-111.5
X264.0Y-112.5
X264.0Y-117.5
X264.0Y-118.5
X264.0Y-127.5
X264.0Y-128.5
X264.0Y-137.5
X264.0Y-138.5
X264.0Y-147.5
X265.0Y-72.5
X265.0Y-74.0
X265.0Y-75.0
X265.0Y-76.0
X265.0Y-77.5
X265.0Y-78.5
X265.0Y-82.5
X265.0Y-84.0
X265.0Y-85.0
X265.0Y-86.0
X265.0Y-87.5
X265.0Y-88.5
X265.0Y-92.5
X265.0Y-94.0
X265.0Y-95.0
X265.0Y-96.0
X265.0Y-97.5
X265.0Y-98.5
X265.0Y-102.5
X265.0Y-104.0
X265.0Y-105.0
X265.0Y-106.0
X265.0Y-107.5
X265.0Y-108.5
X265.0Y-111.5
X265.0Y-112.5
X265.0Y-114.0
X265.0Y-115.0
X265.0Y-116.0
X265.0Y-117.5
X265.0Y-121.5
X265.0Y-122.5
X265.0Y-124.0
X265.0Y-125.0
X265.0Y-126.0
X265.0Y-127.5
X265.0Y-131.5
X265.0Y-132.5
X265.0Y-134.0
X265.0Y-135.0
X265.0Y-136.0
X265.0Y-137.5
X265.0Y-141.5
X265.0Y-142.5
X265.0Y-144.0
X265.0Y-145.0
X265.0Y-146.0
X265.0Y-147.5
X265.0Y-148.5
X266.0Y-77.5
X266.0Y-78.5
X266.0Y-87.5
X266.0Y-88.5
X266.0Y-97.5
X266.0Y-98.5
X266.0Y-107.5
X266.0Y-108.5
X266.0Y-111.5
X266.0Y-112.5
X266.0Y-121.5
X266.0Y-122.5
X266.0Y-131.5
X266.0Y-132.5
X266.0Y-141.5
X266.0Y-142.5
X266.0Y-147.5
X266.0Y-148.5
X267.0Y-72.5
X267.0Y-77.5
X267.0Y-78.5
X267.0Y-81.5
X267.0Y-82.5
X267.0Y-87.5
X267.0Y-88.5
X267.0Y-91.5
X267.0Y-92.5
X267.0Y-97.5
X267.0Y-98.5
X267.0Y-101.5
X267.0Y-102.5
X267.0Y-107.5
X267.0Y-108.5
X267.0Y-111.5
X267.0Y-112.5
X267.0Y-117.5
X267.0Y-118.5
X267.0Y-121.5
X267.0Y-122.5
X267.0Y-127.5
X267.0Y-128.5
X267.0Y-131.5
X267.0Y-132.5
X267.0Y-137.5
X267.0Y-138.5
X267.0Y-141.5
X267.0Y-142.5
X267.0Y-148.5
X268.0Y-71.5
X268.0Y-72.5
X268.0Y-73.5
X268.0Y-74.5
X268.0Y-75.5
X268.0Y-76.5
X268.0Y-77.5
X268.0Y-78.5
X268.0Y-81.5
X268.0Y-82.5
X268.0Y-83.5
X268.0Y-84.5
X268.0Y-85.5
X268.0Y-86.5
X268.0Y-87.5
X268.0Y-88.5
X268.0Y-91.5
X268.0Y-92.5
X268.0Y-93.5
X268.0Y-94.5
X268.0Y-95.5
X268.0Y-96.5
X268.0Y-97.5
X268.0Y-98.5
X268.0Y-101.5
X268.0Y-102.5
X268.0Y-103.5
X268.0Y-104.5
X268.0Y-105.5
X268.0Y-106.5
X268.0Y-107.5
X268.0Y-108.5
X268.0Y-111.5
X268.0Y-112.5
X268.0Y-113.5
X268.0Y-114.5
X268.0Y-115.5
X268.0Y-116.5
X268.0Y-117.5
X268.0Y-118.5
X268.0Y-121.5
X268.0Y-122.5
X268.0Y-123.5
X268.0Y-124.5
X268.0Y-125.5
X268.0Y-126.5
X268.0Y-127.5
X268.0Y-128.5
X268.0Y-131.5
X268.0Y-132.5
X268.0Y-133.5
X268.0Y-134.5
X268.0Y-135.5
X268.0Y-136.5
X268.0Y-137.5
X268.0Y-138.5
X268.0Y-141.5
X268.0Y-142.5
X268.0Y-143.5
X268.0Y-144.5
X268.0Y-145.5
X268.0Y-146.5
X269.0Y-71.5
X269.0Y-72.5
X269.0Y-73.5
X269.0Y-74.5
X269.0Y-75.5
X269.0Y-76.5
X269.0Y-77.5
X269.0Y-78.5
X269.0Y-81.5
X269.0Y-82.5
X269.0Y-83.5
X269.0Y-84.5
X269.0Y-85.5
X269.0Y-86.5
X269.0Y-87.5
X269.0Y-88.5
X269.0Y-91.5
X269.0Y-92.5
X269.0Y-93.5
X269.0Y-94.5
X269.0Y-95.5
X269.0Y-96.5
X269.0Y-97.5
X269.0Y-98.5
X269.0Y-101.5
X269.0Y-102.5
X269.0Y-103.5
X269.0Y-104.5
X269.0Y-105.5
X269.0Y-106.5
X269.0Y-107.5
X269.0Y-108.5
X269.0Y-111.5
X269.0Y-112.5
X269.0Y-113.5
X269.0Y-114.5
X269.0Y-115.5
X269.0Y-116.5
X269.0Y-117.5
X269.0Y-118.5
X269.0Y-121.5
X269.0Y-122.5
X269.0Y-123.5
X269.0Y-124.5
X269.0Y-125.5
X269.0Y-126.5
X269.0Y-127.5
X269.0Y-128.5
X269.0Y-131.5
X269.0Y-132.5
X269.0Y-133.5
X269.0Y-134.5
X269.0Y-135.5
X269.0Y-136.5
X269.0Y-137.5
X269.0Y-138.5
X269.0Y-141.5
X269.0Y-142.5
X269.0Y-143.5
X269.0Y-144.5
X269.0Y-145.5
X269.0Y-146.5
X269.0Y-147.5
X271.0Y-72.5
X271.0Y-73.5
X271.0Y-74.5
X271.0Y-75.5
X271.0Y-76.5
X271.0Y-77.5
X271.0Y-78.5
X271.0Y-81.5
X271.0Y-82.5
X271.0Y-83.5
X271.0Y-84.5
X271.0Y-85.5
X271.0Y-86.5
X271.0Y-87.5
X271.0Y-88.5
X271.0Y-91.5
X271.0Y-92.5
X271.0Y-93.5
X271.0Y-94.5
X271.0Y-95.5
X271.0Y-96.5
X271.0Y-97.5
X271.0Y-98.5
X271.0Y-101.5
X271.0Y-102.5
X271.0Y-103.5
X271.0Y-104.5
X271.0Y-105.5
X271.0Y-106.5
X271.0Y-107.5
X271.0Y-108.5
X271.0Y-111.5
X271.0Y-112.5
X271.0Y-113.5
X271.0Y-114.5
X271.0Y-115.5
X271.0Y-116.5
X271.0Y-117.5
X271.0Y-121.5
X271.0Y-122.5
X271.0Y-123.5
X271.0Y-124.5
X271.0Y-125.5
X271.0Y-126.5
X271.0Y-127.5
X271.0Y-128.5
X271.0Y-131.5
X271.0Y-132.5
X271.0Y-133.5
X271.0Y-134.5
X271.0Y-135.5
X271.0Y-136.5
X271.0Y-137.5
X271.0Y-138.5
X271.0Y-141.5
X271.0Y-142.5
X271.0Y-143.5
X271.0Y-144.5
X271.0Y-145.5
X271.0Y-146.5
X272.0Y-71.5
X272.0Y-72.5
X272.0Y-73.5
X272.0Y-74.5
X272.0Y-75.5
X272.0Y-76.5
X272.0Y-77.5
X272.0Y-78.5
X272.0Y-81.5
X272.0Y-82.5
X272.0Y-83.5
X272.0Y-84.5
X272.0Y-85.5
X272.0Y-86.5
X272.0Y-87.5
X272.0Y-88.5
X272.0Y-91.5
X272.0Y-92.5
X272.0Y-93.5
X272.0Y-94.5
X272.0Y-95.5
X272.0Y-96.5
X272.0Y-97.5
X272.0Y-98.5
X272.0Y-101.5
X272.0Y-102.5
X272.0Y-103.5
X272.0Y-104.5
X272.0Y-105.5
X272.0Y-106.5
X272.0Y-107.5
X272.0Y-108.5
X272.0Y-111.5
X272.0Y-112.5
X272.0Y-113.5
X272.0Y-114.5
X272.0Y-115.5
X272.0Y-116.5
X272.0Y-121.5
X272.0Y-122.5
X272.0Y-123.5
X272.0Y-124.5
X272.0Y-125.5
X272.0Y-126.5
X272.0Y-127.5
X272.0Y-128.5
X272.0Y-131.5
X272.0Y-132.5
X272.0Y-133.5
X272.0Y-134.5
X272.0Y-135.5
X272.0Y-136.5
X272.0Y-137.5
X272.0Y-138.5
X272.0Y-141.5
X272.0Y-142.5
X272.0Y-143.5
X272.0Y-144.5
X272.0Y-145.5
X272.0Y-146.5
X272.0Y-147.5
X272.0Y-148.5
X273.0Y-71.5
X273.0Y-72.5
X273.0Y-77.5
X273.0Y-78.5
X273.0Y-81.5
X273.0Y-82.5
X273.0Y-87.5
X273.0Y-88.5
X273.0Y-91.5
X273.0Y-92.5
X273.0Y-97.5
X273.0Y-98.5
X273.0Y-107.5
X273.0Y-108.5
X273.0Y-111.5
X273.0Y-112.5
X273.0Y-118.5
X273.0Y-121.5
X273.0Y-122.5
X273.0Y-127.5
X273.0Y-128.5
X273.0Y-131.5
X273.0Y-132.5
X273.0Y-137.5
X273.0Y-138.5
X273.0Y-141.5
X273.0Y-142.5
X273.0Y-147.5
X273.0Y-148.5
X274.0Y-71.5
X274.0Y-72.5
X274.0Y-81.5
X274.0Y-82.5
X274.0Y-91.5
X274.0Y-92.5
X274.0Y-101.5
X274.0Y-102.5
X274.0Y-107.5
X274.0Y-108.5
X274.0Y-111.5
X274.0Y-112.5
X274.0Y-117.5
X274.0Y-118.5
X274.0Y-127.5
X274.0Y-128.5
X274.0Y-137.5
X274.0Y-138.5
X274.0Y-147.5
X274.0Y-148.5
X275.0Y-72.5
X275.0Y-74.0
X275.0Y-75.0
X275.0Y-76.0
X275.0Y-77.5
X275.0Y-78.5
X275.0Y-82.5
X275.0Y-84.0
X275.0Y-85.0
X275.0Y-86.0
X275.0Y-87.5
X275.0Y-88.5
X275.0Y-92.5
X275.0Y-94.0
X275.0Y-95.0
X275.0Y-96.0
X275.0Y-97.5
X275.0Y-98.5
X275.0Y-102.5
X275.0Y-104.0
X275.0Y-105.0
X275.0Y-106.0
X275.0Y-107.5
X275.0Y-108.5
X275.0Y-111.5
X275.0Y-112.5
X275.0Y-114.0
X275.0Y-115.0
X275.0Y-116.0
X275.0Y-117.5
X275.0Y-121.5
X275.0Y-122.5
X275.0Y-124.0
X275.0Y-125.0
X275.0Y-126.0
X275.0Y-127.5
X275.0Y-131.5
X275.0Y-132.5
X275.0Y-134.0
X275.0Y-135.0
X275.0Y-136.0
X275.0Y-137.5
X275.0Y-141.5
X275.0Y-142.5
X275.0Y-144.0
X275.0Y-145.0
X275.0Y-146.0
X275.0Y-147.5
X276.0Y-77.5
X276.0Y-78.5
X276.0Y-87.5
X276.0Y-88.5
X276.0Y-97.5
X276.0Y-98.5
X276.0Y-107.5
X276.0Y-108.5
X276.0Y-111.5
X276.0Y-112.5
X276.0Y-121.5
X276.0Y-122.5
X276.0Y-131.5
X276.0Y-132.5
X276.0Y-141.5
X276.0Y-142.5
X277.0Y-71.5
X277.0Y-72.5
X277.0Y-77.5
X277.0Y-78.5
X277.0Y-81.5
X277.0Y-82.5
X277.0Y-87.5
X277.0Y-88.5
X277.0Y-91.5
X277.0Y-92.5
X277.0Y-97.5
X277.0Y-98.5
X277.0Y-101.5
X277.0Y-102.5
X277.0Y-107.5
X277.0Y-108.5
X277.0Y-111.5
X277.0Y-112.5
X277.0Y-117.5
X277.0Y-118.5
X277.0Y-121.5
X277.0Y-122.5
X277.0Y-127.5
X277.0Y-128.5
X277.0Y-131.5
X277.0Y-132.5
X277.0Y-137.5
X277.0Y-138.5
X277.0Y-141.5
X277.0Y-142.5
X277.0Y-147.5
X277.0Y-148.5
X278.0Y-71.5
X278.0Y-72.5
X278.0Y-73.5
X278.0Y-74.5
X278.0Y-75.5
X278.0Y-76.5
X278.0Y-77.5
X278.0Y-78.5
X278.0Y-81.5
X278.0Y-82.5
X278.0Y-83.5
X278.0Y-84.5
X278.0Y-85.5
X278.0Y-86.5
X278.0Y-87.5
X278.0Y-88.5
X278.0Y-91.5
X278.0Y-92.5
X278.0Y-93.5
X278.0Y-94.5
X278.0Y-95.5
X278.0Y-96.5
X278.0Y-97.5
X278.0Y-98.5
X278.0Y-101.5
X278.0Y-102.5
X278.0Y-103.5
X278.0Y-104.5
X278.0Y-105.5
X278.0Y-106.5
X278.0Y-107.5
X278.0Y-108.5
X278.0Y-111.5
X278.0Y-112.5
X278.0Y-113.5
X278.0Y-114.5
X278.0Y-115.5
X278.0Y-116.5
X278.0Y-117.5
X278.0Y-118.5
X278.0Y-121.5
X278.0Y-122.5
X278.0Y-123.5
X278.0Y-124.5
X278.0Y-125.5
X278.0Y-126.5
X278.0Y-127.5
X278.0Y-128.5
X278.0Y-131.5
X278.0Y-132.5
X278.0Y-133.5
X278.0Y-134.5
X278.0Y-135.5
X278.0Y-136.5
X278.0Y-137.5
X278.0Y-138.5
X278.0Y-141.5
X278.0Y-142.5
X278.0Y-143.5
X278.0Y-144.5
X278.0Y-145.5
X278.0Y-146.5
X278.0Y-147.5
X278.0Y-148.5
X279.0Y-71.5
X279.0Y-72.5
X279.0Y-73.5
X279.0Y-74.5
X279.0Y-75.5
X279.0Y-76.5
X279.0Y-77.5
X279.0Y-78.5
X279.0Y-81.5
X279.0Y-82.5
X279.0Y-83.5
X279.0Y-84.5
X279.0Y-85.5
X279.0Y-86.5
X279.0Y-87.5
X279.0Y-88.5
X279.0Y-91.5
X279.0Y-92.5
X279.0Y-93.5
X279.0Y-94.5
X279.0Y-95.5
X279.0Y-96.5
X279.0Y-97.5
X279.0Y-98.5
X279.0Y-101.5
X279.0Y-102.5
X279.0Y-103.5
X279.0Y-104.5
X279.0Y-105.5
X279.0Y-106.5
X279.0Y-107.5
X279.0Y-108.5
X279.0Y-111.5
X279.0Y-112.5
X279.0Y-113.5
X279.0Y-114.5
X279.0Y-115.5
X279.0Y-116.5
X279.0Y-117.5
X279.0Y-118.5
X279.0Y-121.5
X279.0Y-122.5
X279.0Y-123.5
X279.0Y-124.5
X279.0Y-125.5
X279.0Y-126.5
X279.0Y-127.5
X279.0Y-128.5
X279.0Y-131.5
X279.0Y-132.5
X279.0Y-133.5
X279.0Y-134.5
X279.0Y-135.5
X279.0Y-136.5
X279.0Y-137.5
X279.0Y-138.5
X279.0Y-141.5
X279.0Y-142.5
X279.0Y-143.5
X279.0Y-144.5
X279.0Y-145.5
X279.0Y-146.5
X279.0Y-147.5
X279.0Y-148.5
X281.0Y-71.5
X281.0Y-72.5
X281.0Y-73.5
X281.0Y-74.5
X281.0Y-75.5
X281.0Y-76.5
X281.0Y-77.5
X281.0Y-78.5
X281.0Y-81.5
X281.0Y-82.5
X281.0Y-83.5
X281.0Y-84.5
X281.0Y-85.5
X281.0Y-86.5
X281.0Y-87.5
X281.0Y-88.5
X281.0Y-91.5
X281.0Y-92.5
X281.0Y-93.5
X281.0Y-94.5
X281.0Y-95.5
X281.0Y-96.5
X281.0Y-97.5
X281.0Y-98.5
X281.0Y-101.5
X281.0Y-102.5
X281.0Y-103.5
X281.0Y-104.5
X281.0Y-105.5
X281.0Y-106.5
X281.0Y-107.5
X281.0Y-108.5
X281.0Y-111.5
X281.0Y-112.5
X281.0Y-113.5
X281.0Y-114.5
X281.0Y-115.5
X281.0Y-116.5
X281.0Y-117.5
X281.0Y-121.5
X281.0Y-122.5
X281.0Y-123.5
X281.0Y-124.5
X281.0Y-125.5
X281.0Y-126.5
X281.0Y-127.5
X281.0Y-128.5
X281.0Y-131.5
X281.0Y-132.5
X281.0Y-133.5
X281.0Y-134.5
X281.0Y-135.5
X281.0Y-136.5
X281.0Y-137.5
X281.0Y-138.5
X281.0Y-141.5
X281.0Y-142.5
X281.0Y-143.5
X281.0Y-144.5
X281.0Y-145.5
X281.0Y-146.5
X281.0Y-147.5
X281.0Y-148.5
X282.0Y-71.5
X282.0Y-72.5
X282.0Y-73.5
X282.0Y-74.5
X282.0Y-75.5
X282.0Y-76.5
X282.0Y-77.5
X282.0Y-78.5
X282.0Y-81.5
X282.0Y-82.5
X282.0Y-83.5
X282.0Y-84.5
X282.0Y-85.5
X282.0Y-86.5
X282.0Y-87.5
X282.0Y-88.5
X282.0Y-91.5
X282.0Y-92.5
X282.0Y-93.5
X282.0Y-94.5
X282.0Y-95.5
X282.0Y-96.5
X282.0Y-97.5
X282.0Y-98.5
X282.0Y-101.5
X282.0Y-102.5
X282.0Y-103.5
X282.0Y-104.5
X282.0Y-105.5
X282.0Y-106.5
X282.0Y-107.5
X282.0Y-108.5
X282.0Y-111.5
X282.0Y-112.5
X282.0Y-113.5
X282.0Y-114.5
X282.0Y-115.5
X282.0Y-116.5
X282.0Y-121.5
X282.0Y-122.5
X282.0Y-123.5
X282.0Y-124.5
X282.0Y-125.5
X282.0Y-126.5
X282.0Y-127.5
X282.0Y-128.5
X282.0Y-131.5
X282.0Y-132.5
X282.0Y-133.5
X282.0Y-134.5
X282.0Y-135.5
X282.0Y-136.5
X282.0Y-137.5
X282.0Y-138.5
X282.0Y-141.5
X282.0Y-142.5
X282.0Y-143.5
X282.0Y-144.5
X282.0Y-145.5
X282.0Y-146.5
X282.0Y-147.5
X282.0Y-148.5
X283.0Y-71.5
X283.0Y-72.5
X283.0Y-77.5
X283.0Y-78.5
X283.0Y-81.5
X283.0Y-82.5
X283.0Y-87.5
X283.0Y-88.5
X283.0Y-91.5
X283.0Y-92.5
X283.0Y-97.5
X283.0Y-98.5
X283.0Y-107.5
X283.0Y-108.5
X283.0Y-111.5
X283.0Y-112.5
X283.0Y-118.5
X283.0Y-121.5
X283.0Y-122.5
X283.0Y-127.5
X283.0Y-128.5
X283.0Y-131.5
X283.0Y-132.5
X283.0Y-137.5
X283.0Y-138.5
X283.0Y-141.5
X283.0Y-142.5
X283.0Y-147.5
X283.0Y-148.5
X284.0Y-71.5
X284.0Y-72.5
X284.0Y-81.5
X284.0Y-82.5
X284.0Y-91.5
X284.0Y-92.5
X284.0Y-101.5
X284.0Y-102.5
X284.0Y-107.5
X284.0Y-108.5
X284.0Y-111.5
X284.0Y-112.5
X284.0Y-117.5
X284.0Y-118.5
X284.0Y-127.5
X284.0Y-128.5
X284.0Y-137.5
X284.0Y-138.5
X284.0Y-147.5
X284.0Y-148.5
X285.0Y-71.5
X285.0Y-72.5
X285.0Y-74.0
X285.0Y-75.0
X285.0Y-76.0
X285.0Y-77.5
X285.0Y-78.5
X285.0Y-82.5
X285.0Y-84.0
X285.0Y-85.0
X285.0Y-86.0
X285.0Y-87.5
X285.0Y-88.5
X285.0Y-92.5
X285.0Y-94.0
X285.0Y-95.0
X285.0Y-96.0
X285.0Y-97.5
X285.0Y-98.5
X285.0Y-102.5
X285.0Y-104.0
X285.0Y-105.0
X285.0Y-106.0
X285.0Y-107.5
X285.0Y-108.5
X285.0Y-111.5
X285.0Y-112.5
X285.0Y-114.0
X285.0Y-115.0
X285.0Y-116.0
X285.0Y-117.5
X285.0Y-121.5
X285.0Y-122.5
X285.0Y-124.0
X285.0Y-125.0
X285.0Y-126.0
X285.0Y-127.5
X285.0Y-131.5
X285.0Y-132.5
X285.0Y-134.0
X285.0Y-135.0
X285.0Y-136.0
X285.0Y-137.5
X285.0Y-141.5
X285.0Y-142.5
X285.0Y-144.0
X285.0Y-145.0
X285.0Y-146.0
X285.0Y-147.5
X285.0Y-148.5
X286.0Y-77.5
X286.0Y-78.5
X286.0Y-87.5
X286.0Y-88.5
X286.0Y-97.5
X286.0Y-98.5
X286.0Y-107.5
X286.0Y-108.5
X286.0Y-111.5
X286.0Y-112.5
X286.0Y-121.5
X286.0Y-122.5
X286.0Y-131.5
X286.0Y-132.5
X286.0Y-141.5
X286.0Y-142.5
X287.0Y-71.5
X287.0Y-72.5
X287.0Y-77.5
X287.0Y-78.5
X287.0Y-81.5
X287.0Y-82.5
X287.0Y-87.5
X287.0Y-88.5
X287.0Y-91.5
X287.0Y-92.5
X287.0Y-97.5
X287.0Y-98.5
X287.0Y-101.5
X287.0Y-102.5
X287.0Y-107.5
X287.0Y-108.5
X287.0Y-111.5
X287.0Y-112.5
X287.0Y-117.5
X287.0Y-118.5
X287.0Y-121.5
X287.0Y-122.5
X287.0Y-127.5
X287.0Y-128.5
X287.0Y-131.5
X287.0Y-132.5
X287.0Y-137.5
X287.0Y-138.5
X287.0Y-141.5
X287.0Y-142.5
X287.0Y-147.5
X287.0Y-148.5
X288.0Y-71.5
X288.0Y-72.5
X288.0Y-73.5
X288.0Y-74.5
X288.0Y-75.5
X288.0Y-76.5
X288.0Y-77.5
X288.0Y-78.5
X288.0Y-81.5
X288.0Y-82.5
X288.0Y-83.5
X288.0Y-84.5
X288.0Y-85.5
X288.0Y-86.5
X288.0Y-87.5
X288.0Y-88.5
X288.0Y-91.5
X288.0Y-92.5
X288.0Y-93.5
X288.0Y-94.5
X288.0Y-94.5
X288.0Y-95.5
X288.0Y-96.5
X288.0Y-97.5
X288.0Y-98.5
X288.0Y-101.5
X288.0Y-102.5
X288.0Y-103.5
X288.0Y-104.5
X288.0Y-105.5
X288.0Y-106.5
X288.0Y-107.5
X288.0Y-108.5
X288.0Y-111.5
X288.0Y-112.5
X288.0Y-113.5
X288.0Y-114.5
X288.0Y-115.5
X288.0Y-116.5
X288.0Y-117.5
X288.0Y-118.5
X288.0Y-121.5
X288.0Y-122.5
X288.0Y-123.5
X288.0Y-124.5
X288.0Y-125.5
X288.0Y-126.5
X288.0Y-127.5
X288.0Y-128.5
X288.0Y-131.5
X288.0Y-132.5
X288.0Y-133.5
X288.0Y-134.5
X288.0Y-135.5
X288.0Y-136.5
X288.0Y-137.5
X288.0Y-138.5
X288.0Y-141.5
X288.0Y-142.5
X288.0Y-143.5
X288.0Y-144.5
X288.0Y-145.5
X288.0Y-146.5
X288.0Y-147.5
X288.0Y-148.5
X289.0Y-71.5
X289.0Y-72.5
X289.0Y-73.5
X289.0Y-74.5
X289.0Y-75.5
X289.0Y-76.5
X289.0Y-77.5
X289.0Y-78.5
X289.0Y-81.5
X289.0Y-82.5
X289.0Y-83.5
X289.0Y-84.5
X289.0Y-85.5
X289.0Y-86.5
X289.0Y-87.5
X289.0Y-88.5
X289.0Y-91.5
X289.0Y-92.5
X289.0Y-93.5
X289.0Y-94.5
X289.0Y-95.5
X289.0Y-96.5
X289.0Y-97.5
X289.0Y-98.5
X289.0Y-101.5
X289.0Y-102.5
X289.0Y-103.5
X289.0Y-104.5
X289.0Y-105.5
X289.0Y-106.5
X289.0Y-107.5
X289.0Y-108.5
X289.0Y-111.5
X289.0Y-112.5
X289.0Y-113.5
X289.0Y-114.5
X289.0Y-115.5
X289.0Y-116.5
X289.0Y-117.5
X289.0Y-118.5
X289.0Y-121.5
X289.0Y-122.5
X289.0Y-123.5
X289.0Y-124.5
X289.0Y-125.5
X289.0Y-126.5
X289.0Y-127.5
X289.0Y-128.5
X289.0Y-131.5
X289.0Y-132.5
X289.0Y-133.5
X289.0Y-134.5
X289.0Y-135.5
X289.0Y-136.5
X289.0Y-137.5
X289.0Y-138.5
X289.0Y-141.5
X289.0Y-142.5
X289.0Y-143.5
X289.0Y-144.5
X289.0Y-145.5
X289.0Y-146.5
X289.0Y-147.5
X289.0Y-148.5
X290.5Y-107.0
X291.5Y-107.0
X292.5Y-107.0
X292.5Y-118.5
X292.5Y-119.5
X292.5Y-120.5
X293.5Y-107.0
T2
X292.6Y-155.0
X293.303Y-153.303
X293.303Y-156.697
X295.0Y-152.6
X295.0Y-157.4
X296.697Y-153.303
X296.697Y-156.697
X297.4Y-155.0
X292.6Y-65.0
X293.303Y-63.303
X293.303Y-66.697
X295.0Y-62.6
X295.0Y-67.4
X296.697Y-63.303
X296.697Y-66.697
X297.4Y-65.0
X202.6Y-155.0
X203.303Y-153.303
X203.303Y-156.697
X205.0Y-152.6
X205.0Y-157.4
X206.697Y-153.303
X206.697Y-156.697
X207.4Y-155.0
X202.6Y-65.0
X203.303Y-63.303
X203.303Y-66.697
X205.0Y-62.6
X205.0Y-67.4
X206.697Y-63.303
X206.697Y-66.697
X207.4Y-65.0
T3
X295.0Y-155.0
X295.0Y-65.0
X205.0Y-155.0
X205.0Y-65.0
T0
M30
